<?xml version="1.0" encoding="UTF-8" standalone="no"?>
<!DOCTYPE svg PUBLIC "-//W3C//DTD SVG 1.1//EN"
 "http://www.w3.org/Graphics/SVG/1.1/DTD/svg11.dtd">
<!-- Generated by graphviz version 2.40.1 (20161225.0304)
 -->
<!-- Title: dependencies Pages: 1 -->
<svg width="2122pt" height="211pt"
 viewBox="0.00 0.00 2122.00 211.00" xmlns="http://www.w3.org/2000/svg" xmlns:xlink="http://www.w3.org/1999/xlink">
<g id="graph0" class="graph" transform="scale(1 1) rotate(0) translate(4 207)">
<title>dependencies</title>
<polygon fill="#ffffff" stroke="transparent" points="-4,4 -4,-207 2118,-207 2118,4 -4,4"/>
<text text-anchor="start" x="1036.0091" y="-42.4" font-family="sans-serif" font-weight="bold" font-size="14.00" fill="#000000">Legend</text>
<polygon fill="#ffffb3" stroke="transparent" points="823,-10 823,-30 843,-30 843,-10 823,-10"/>
<text text-anchor="start" x="846.629" y="-15.4" font-family="sans-serif" font-size="14.00" fill="#000000"> &#160;Declarations</text>
<polygon fill="#8dd3c7" stroke="transparent" points="936,-10 936,-30 956,-30 956,-10 936,-10"/>
<text text-anchor="start" x="959.7251" y="-15.4" font-family="sans-serif" font-size="14.00" fill="#000000"> &#160;Module</text>
<polygon fill="#80b1d3" stroke="transparent" points="1022,-10 1022,-30 1042,-30 1042,-10 1022,-10"/>
<text text-anchor="start" x="1045.7812" y="-15.4" font-family="sans-serif" font-size="14.00" fill="#000000"> &#160;Bootstrap</text>
<polygon fill="#fdb462" stroke="transparent" points="1119,-10 1119,-30 1139,-30 1139,-10 1119,-10"/>
<text text-anchor="start" x="1142.6732" y="-15.4" font-family="sans-serif" font-size="14.00" fill="#000000"> &#160;Providers</text>
<polygon fill="#fb8072" stroke="transparent" points="1215,-10 1215,-30 1235,-30 1235,-10 1215,-10"/>
<text text-anchor="start" x="1238.7258" y="-15.4" font-family="sans-serif" font-size="14.00" fill="#000000"> &#160;Exports</text>
<g id="clust1" class="cluster">
<title>cluster_CoreModule</title>
<polygon fill="none" stroke="#000000" stroke-dasharray="1,5" points="8,-70 8,-195 2106,-195 2106,-70 8,-70"/>
</g>
<g id="clust3" class="cluster">
<title>cluster_CoreModule_imports</title>
<polygon fill="none" stroke="#000000" points="1994,-78 1994,-130 2098,-130 2098,-78 1994,-78"/>
</g>
<g id="clust6" class="cluster">
<title>cluster_CoreModule_providers</title>
<polygon fill="none" stroke="#000000" points="16,-78 16,-130 1986,-130 1986,-78 16,-78"/>
</g>
<!-- ShellModule -->
<g id="node1" class="node">
<title>ShellModule</title>
<polygon fill="#8dd3c7" stroke="#000000" points="2090.3288,-122 2087.3288,-126 2066.3288,-126 2063.3288,-122 2001.6712,-122 2001.6712,-86 2090.3288,-86 2090.3288,-122"/>
<text text-anchor="middle" x="2046" y="-99.8" font-family="Times,serif" font-size="14.00" fill="#000000">ShellModule</text>
</g>
<!-- CoreModule -->
<g id="node2" class="node">
<title>CoreModule</title>
<polygon fill="#8dd3c7" stroke="#000000" points="1270.2619,-187 1267.2619,-191 1246.2619,-191 1243.2619,-187 1183.7381,-187 1183.7381,-151 1270.2619,-151 1270.2619,-187"/>
<text text-anchor="middle" x="1227" y="-164.8" font-family="Times,serif" font-size="14.00" fill="#000000">CoreModule</text>
</g>
<!-- ShellModule&#45;&gt;CoreModule -->
<g id="edge1" class="edge">
<title>ShellModule&#45;&gt;CoreModule</title>
<path fill="none" stroke="#000000" d="M2046,-122.0908C2046,-145.1328 2046,-182 2046,-182 2046,-182 1280.4547,-182 1280.4547,-182"/>
<polygon fill="#000000" stroke="#000000" points="1280.4548,-178.5001 1270.4547,-182 1280.4547,-185.5001 1280.4548,-178.5001"/>
</g>
<!-- AuthInterceptor -->
<g id="node3" class="node">
<title>AuthInterceptor</title>
<ellipse fill="#fdb462" stroke="#000000" cx="1905" cy="-104" rx="72.9121" ry="18"/>
<text text-anchor="middle" x="1905" y="-99.8" font-family="Times,serif" font-size="14.00" fill="#000000">AuthInterceptor</text>
</g>
<!-- AuthInterceptor&#45;&gt;CoreModule -->
<g id="edge2" class="edge">
<title>AuthInterceptor&#45;&gt;CoreModule</title>
<path fill="none" stroke="#000000" d="M1905,-122.2843C1905,-143.3211 1905,-175 1905,-175 1905,-175 1280.4433,-175 1280.4433,-175"/>
<polygon fill="#000000" stroke="#000000" points="1280.4434,-171.5001 1270.4433,-175 1280.4433,-178.5001 1280.4434,-171.5001"/>
</g>
<!-- AwsUtil -->
<g id="node4" class="node">
<title>AwsUtil</title>
<ellipse fill="#fdb462" stroke="#000000" cx="1771" cy="-104" rx="43.5156" ry="18"/>
<text text-anchor="middle" x="1771" y="-99.8" font-family="Times,serif" font-size="14.00" fill="#000000">AwsUtil</text>
</g>
<!-- AwsUtil&#45;&gt;CoreModule -->
<g id="edge3" class="edge">
<title>AwsUtil&#45;&gt;CoreModule</title>
<path fill="none" stroke="#000000" d="M1771,-122.1061C1771,-141.3391 1771,-169 1771,-169 1771,-169 1280.5982,-169 1280.5982,-169"/>
<polygon fill="#000000" stroke="#000000" points="1280.5983,-165.5001 1270.5982,-169 1280.5982,-172.5001 1280.5983,-165.5001"/>
</g>
<!-- CacheInterceptor -->
<g id="node5" class="node">
<title>CacheInterceptor</title>
<ellipse fill="#fdb462" stroke="#000000" cx="1632" cy="-104" rx="77.5453" ry="18"/>
<text text-anchor="middle" x="1632" y="-99.8" font-family="Times,serif" font-size="14.00" fill="#000000">CacheInterceptor</text>
</g>
<!-- CacheInterceptor&#45;&gt;CoreModule -->
<g id="edge4" class="edge">
<title>CacheInterceptor&#45;&gt;CoreModule</title>
<path fill="none" stroke="#000000" d="M1632,-122.0225C1632,-139.3734 1632,-163 1632,-163 1632,-163 1280.3421,-163 1280.3421,-163"/>
<polygon fill="#000000" stroke="#000000" points="1280.3421,-159.5001 1270.3421,-163 1280.3421,-166.5001 1280.3421,-159.5001"/>
</g>
<!-- CognitoUtil -->
<g id="node6" class="node">
<title>CognitoUtil</title>
<ellipse fill="#fdb462" stroke="#000000" cx="1479" cy="-104" rx="57.3611" ry="18"/>
<text text-anchor="middle" x="1479" y="-99.8" font-family="Times,serif" font-size="14.00" fill="#000000">CognitoUtil</text>
</g>
<!-- CognitoUtil&#45;&gt;CoreModule -->
<g id="edge5" class="edge">
<title>CognitoUtil&#45;&gt;CoreModule</title>
<path fill="none" stroke="#000000" d="M1479,-122.2396C1479,-137.5706 1479,-157 1479,-157 1479,-157 1280.3203,-157 1280.3203,-157"/>
<polygon fill="#000000" stroke="#000000" points="1280.3204,-153.5001 1270.3203,-157 1280.3203,-160.5001 1280.3204,-153.5001"/>
</g>
<!-- DynamoDBService -->
<g id="node7" class="node">
<title>DynamoDBService</title>
<ellipse fill="#fdb462" stroke="#000000" cx="1317" cy="-104" rx="86.8184" ry="18"/>
<text text-anchor="middle" x="1317" y="-99.8" font-family="Times,serif" font-size="14.00" fill="#000000">DynamoDBService</text>
</g>
<!-- DynamoDBService&#45;&gt;CoreModule -->
<g id="edge6" class="edge">
<title>DynamoDBService&#45;&gt;CoreModule</title>
<path fill="none" stroke="#000000" d="M1250.3609,-115.6207C1250.3609,-115.6207 1250.3609,-140.8534 1250.3609,-140.8534"/>
<polygon fill="#000000" stroke="#000000" points="1246.861,-140.8533 1250.3609,-150.8534 1253.861,-140.8534 1246.861,-140.8533"/>
</g>
<!-- EndpointService -->
<g id="node8" class="node">
<title>EndpointService</title>
<ellipse fill="#fdb462" stroke="#000000" cx="1137" cy="-104" rx="75.3021" ry="18"/>
<text text-anchor="middle" x="1137" y="-99.8" font-family="Times,serif" font-size="14.00" fill="#000000">EndpointService</text>
</g>
<!-- EndpointService&#45;&gt;CoreModule -->
<g id="edge7" class="edge">
<title>EndpointService&#45;&gt;CoreModule</title>
<path fill="none" stroke="#000000" d="M1198.0101,-114.7334C1198.0101,-114.7334 1198.0101,-140.8723 1198.0101,-140.8723"/>
<polygon fill="#000000" stroke="#000000" points="1194.5102,-140.8722 1198.0101,-150.8723 1201.5102,-140.8723 1194.5102,-140.8722"/>
</g>
<!-- ErrorHandlerInterceptor -->
<g id="node9" class="node">
<title>ErrorHandlerInterceptor</title>
<ellipse fill="#fdb462" stroke="#000000" cx="939" cy="-104" rx="104.7327" ry="18"/>
<text text-anchor="middle" x="939" y="-99.8" font-family="Times,serif" font-size="14.00" fill="#000000">ErrorHandlerInterceptor</text>
</g>
<!-- ErrorHandlerInterceptor&#45;&gt;CoreModule -->
<g id="edge8" class="edge">
<title>ErrorHandlerInterceptor&#45;&gt;CoreModule</title>
<path fill="none" stroke="#000000" d="M939,-122.2396C939,-137.5706 939,-157 939,-157 939,-157 1173.5717,-157 1173.5717,-157"/>
<polygon fill="#000000" stroke="#000000" points="1173.5717,-160.5001 1183.5717,-157 1173.5716,-153.5001 1173.5717,-160.5001"/>
</g>
<!-- HttpCacheService -->
<g id="node10" class="node">
<title>HttpCacheService</title>
<ellipse fill="#fdb462" stroke="#000000" cx="735" cy="-104" rx="81.0763" ry="18"/>
<text text-anchor="middle" x="735" y="-99.8" font-family="Times,serif" font-size="14.00" fill="#000000">HttpCacheService</text>
</g>
<!-- HttpCacheService&#45;&gt;CoreModule -->
<g id="edge9" class="edge">
<title>HttpCacheService&#45;&gt;CoreModule</title>
<path fill="none" stroke="#000000" d="M735,-122.0225C735,-139.3734 735,-163 735,-163 735,-163 1173.3383,-163 1173.3383,-163"/>
<polygon fill="#000000" stroke="#000000" points="1173.3383,-166.5001 1183.3383,-163 1173.3382,-159.5001 1173.3383,-166.5001"/>
</g>
<!-- UserLoginService -->
<g id="node11" class="node">
<title>UserLoginService</title>
<ellipse fill="#fdb462" stroke="#000000" cx="554" cy="-104" rx="81.0782" ry="18"/>
<text text-anchor="middle" x="554" y="-99.8" font-family="Times,serif" font-size="14.00" fill="#000000">UserLoginService</text>
</g>
<!-- UserLoginService&#45;&gt;CoreModule -->
<g id="edge10" class="edge">
<title>UserLoginService&#45;&gt;CoreModule</title>
<path fill="none" stroke="#000000" d="M554,-122.1061C554,-141.3391 554,-169 554,-169 554,-169 1173.6194,-169 1173.6194,-169"/>
<polygon fill="#000000" stroke="#000000" points="1173.6195,-172.5001 1183.6194,-169 1173.6194,-165.5001 1173.6195,-172.5001"/>
</g>
<!-- UserParametersService -->
<g id="node12" class="node">
<title>UserParametersService</title>
<ellipse fill="#fdb462" stroke="#000000" cx="354" cy="-104" rx="101.2331" ry="18"/>
<text text-anchor="middle" x="354" y="-99.8" font-family="Times,serif" font-size="14.00" fill="#000000">UserParametersService</text>
</g>
<!-- UserParametersService&#45;&gt;CoreModule -->
<g id="edge11" class="edge">
<title>UserParametersService&#45;&gt;CoreModule</title>
<path fill="none" stroke="#000000" d="M354,-122.2843C354,-143.3211 354,-175 354,-175 354,-175 1173.7078,-175 1173.7078,-175"/>
<polygon fill="#000000" stroke="#000000" points="1173.7078,-178.5001 1183.7078,-175 1173.7078,-171.5001 1173.7078,-178.5001"/>
</g>
<!-- UserRegistrationService -->
<g id="node13" class="node">
<title>UserRegistrationService</title>
<ellipse fill="#fdb462" stroke="#000000" cx="129" cy="-104" rx="105.349" ry="18"/>
<text text-anchor="middle" x="129" y="-99.8" font-family="Times,serif" font-size="14.00" fill="#000000">UserRegistrationService</text>
</g>
<!-- UserRegistrationService&#45;&gt;CoreModule -->
<g id="edge12" class="edge">
<title>UserRegistrationService&#45;&gt;CoreModule</title>
<path fill="none" stroke="#000000" d="M129,-122.0908C129,-145.1328 129,-182 129,-182 129,-182 1173.6189,-182 1173.6189,-182"/>
<polygon fill="#000000" stroke="#000000" points="1173.6189,-185.5001 1183.6189,-182 1173.6189,-178.5001 1173.6189,-185.5001"/>
</g>
</g>
</svg>
