<?xml version="1.0" encoding="UTF-8" standalone="no"?>
<!DOCTYPE svg PUBLIC "-//W3C//DTD SVG 1.1//EN"
 "http://www.w3.org/Graphics/SVG/1.1/DTD/svg11.dtd">
<!-- Generated by graphviz version 2.40.1 (20161225.0304)
 -->
<!-- Title: dependencies Pages: 1 -->
<svg width="2844pt" height="284pt"
 viewBox="0.00 0.00 2844.00 284.00" xmlns="http://www.w3.org/2000/svg" xmlns:xlink="http://www.w3.org/1999/xlink">
<g id="graph0" class="graph" transform="scale(1 1) rotate(0) translate(4 280)">
<title>dependencies</title>
<polygon fill="#ffffff" stroke="transparent" points="-4,4 -4,-280 2840,-280 2840,4 -4,4"/>
<text text-anchor="start" x="1397.0091" y="-42.4" font-family="sans-serif" font-weight="bold" font-size="14.00" fill="#000000">Legend</text>
<polygon fill="#ffffb3" stroke="transparent" points="1184,-10 1184,-30 1204,-30 1204,-10 1184,-10"/>
<text text-anchor="start" x="1207.629" y="-15.4" font-family="sans-serif" font-size="14.00" fill="#000000"> &#160;Declarations</text>
<polygon fill="#8dd3c7" stroke="transparent" points="1297,-10 1297,-30 1317,-30 1317,-10 1297,-10"/>
<text text-anchor="start" x="1320.7251" y="-15.4" font-family="sans-serif" font-size="14.00" fill="#000000"> &#160;Module</text>
<polygon fill="#80b1d3" stroke="transparent" points="1383,-10 1383,-30 1403,-30 1403,-10 1383,-10"/>
<text text-anchor="start" x="1406.7812" y="-15.4" font-family="sans-serif" font-size="14.00" fill="#000000"> &#160;Bootstrap</text>
<polygon fill="#fdb462" stroke="transparent" points="1480,-10 1480,-30 1500,-30 1500,-10 1480,-10"/>
<text text-anchor="start" x="1503.6732" y="-15.4" font-family="sans-serif" font-size="14.00" fill="#000000"> &#160;Providers</text>
<polygon fill="#fb8072" stroke="transparent" points="1576,-10 1576,-30 1596,-30 1596,-10 1576,-10"/>
<text text-anchor="start" x="1599.7258" y="-15.4" font-family="sans-serif" font-size="14.00" fill="#000000"> &#160;Exports</text>
<g id="clust1" class="cluster">
<title>cluster_CoreModule</title>
<polygon fill="none" stroke="#000000" stroke-dasharray="1,5" points="8,-70 8,-268 2828,-268 2828,-70 8,-70"/>
</g>
<g id="clust2" class="cluster">
<title>cluster_CoreModule_declarations</title>
<polygon fill="none" stroke="#000000" points="2540,-78 2540,-130 2820,-130 2820,-78 2540,-78"/>
</g>
<g id="clust5" class="cluster">
<title>cluster_CoreModule_imports</title>
<polygon fill="none" stroke="#000000" points="2303,-78 2303,-130 2532,-130 2532,-78 2303,-78"/>
</g>
<g id="clust6" class="cluster">
<title>cluster_CoreModule_exports</title>
<polygon fill="none" stroke="#000000" points="1485,-208 1485,-260 1772,-260 1772,-208 1485,-208"/>
</g>
<g id="clust8" class="cluster">
<title>cluster_CoreModule_providers</title>
<polygon fill="none" stroke="#000000" points="16,-78 16,-130 2295,-130 2295,-78 16,-78"/>
</g>
<!-- LoadingComponent -->
<g id="node1" class="node">
<title>LoadingComponent</title>
<polygon fill="#ffffb3" stroke="#000000" points="2811.9902,-122 2684.0098,-122 2684.0098,-86 2811.9902,-86 2811.9902,-122"/>
<text text-anchor="middle" x="2748" y="-99.8" font-family="Times,serif" font-size="14.00" fill="#000000">LoadingComponent</text>
</g>
<!-- CoreModule -->
<g id="node3" class="node">
<title>CoreModule</title>
<polygon fill="#8dd3c7" stroke="#000000" points="1669.2619,-187 1666.2619,-191 1645.2619,-191 1642.2619,-187 1582.7381,-187 1582.7381,-151 1669.2619,-151 1669.2619,-187"/>
<text text-anchor="middle" x="1626" y="-164.8" font-family="Times,serif" font-size="14.00" fill="#000000">CoreModule</text>
</g>
<!-- LoadingComponent&#45;&gt;CoreModule -->
<g id="edge1" class="edge">
<title>LoadingComponent&#45;&gt;CoreModule</title>
<path fill="none" stroke="#000000" d="M2748,-122.3228C2748,-145.6602 2748,-183 2748,-183 2748,-183 1679.2962,-183 1679.2962,-183"/>
<polygon fill="#000000" stroke="#000000" points="1679.2963,-179.5001 1669.2962,-183 1679.2962,-186.5001 1679.2963,-179.5001"/>
</g>
<!-- ModalComponent -->
<g id="node2" class="node">
<title>ModalComponent</title>
<polygon fill="#ffffb3" stroke="#000000" points="2665.8823,-122 2548.1177,-122 2548.1177,-86 2665.8823,-86 2665.8823,-122"/>
<text text-anchor="middle" x="2607" y="-99.8" font-family="Times,serif" font-size="14.00" fill="#000000">ModalComponent</text>
</g>
<!-- ModalComponent&#45;&gt;CoreModule -->
<g id="edge2" class="edge">
<title>ModalComponent&#45;&gt;CoreModule</title>
<path fill="none" stroke="#000000" d="M2607,-122.1554C2607,-144.3519 2607,-179 2607,-179 2607,-179 1679.4181,-179 1679.4181,-179"/>
<polygon fill="#000000" stroke="#000000" points="1679.4182,-175.5001 1669.4181,-179 1679.4181,-182.5001 1679.4182,-175.5001"/>
</g>
<!-- LoadingComponent  -->
<g id="node6" class="node">
<title>LoadingComponent </title>
<polygon fill="#fb8072" stroke="#000000" points="1763.9911,-252 1632.0089,-252 1632.0089,-216 1763.9911,-216 1763.9911,-252"/>
<text text-anchor="middle" x="1698" y="-229.8" font-family="Times,serif" font-size="14.00" fill="#000000">LoadingComponent </text>
</g>
<!-- CoreModule&#45;&gt;LoadingComponent  -->
<g id="edge5" class="edge">
<title>CoreModule&#45;&gt;LoadingComponent </title>
<path fill="none" stroke="#000000" stroke-dasharray="5,2" d="M1650.8179,-187.1061C1650.8179,-187.1061 1650.8179,-205.991 1650.8179,-205.991"/>
<polygon fill="#000000" stroke="#000000" points="1647.3179,-205.9909 1650.8179,-215.991 1654.3179,-205.991 1647.3179,-205.9909"/>
</g>
<!-- ModalComponent  -->
<g id="node7" class="node">
<title>ModalComponent </title>
<polygon fill="#fb8072" stroke="#000000" points="1614.8828,-252 1493.1172,-252 1493.1172,-216 1614.8828,-216 1614.8828,-252"/>
<text text-anchor="middle" x="1554" y="-229.8" font-family="Times,serif" font-size="14.00" fill="#000000">ModalComponent </text>
</g>
<!-- CoreModule&#45;&gt;ModalComponent  -->
<g id="edge6" class="edge">
<title>CoreModule&#45;&gt;ModalComponent </title>
<path fill="none" stroke="#000000" stroke-dasharray="5,2" d="M1598.6552,-187.1061C1598.6552,-187.1061 1598.6552,-205.991 1598.6552,-205.991"/>
<polygon fill="#000000" stroke="#000000" points="1595.1552,-205.9909 1598.6552,-215.991 1602.1552,-205.991 1595.1552,-205.9909"/>
</g>
<!-- MaterialModule -->
<g id="node4" class="node">
<title>MaterialModule</title>
<polygon fill="#8dd3c7" stroke="#000000" points="2524.4706,-122 2521.4706,-126 2500.4706,-126 2497.4706,-122 2417.5294,-122 2417.5294,-86 2524.4706,-86 2524.4706,-122"/>
<text text-anchor="middle" x="2471" y="-99.8" font-family="Times,serif" font-size="14.00" fill="#000000">MaterialModule</text>
</g>
<!-- MaterialModule&#45;&gt;CoreModule -->
<g id="edge3" class="edge">
<title>MaterialModule&#45;&gt;CoreModule</title>
<path fill="none" stroke="#000000" d="M2471,-122.2843C2471,-143.3211 2471,-175 2471,-175 2471,-175 1679.358,-175 1679.358,-175"/>
<polygon fill="#000000" stroke="#000000" points="1679.358,-171.5001 1669.358,-175 1679.358,-178.5001 1679.358,-171.5001"/>
</g>
<!-- ShellModule -->
<g id="node5" class="node">
<title>ShellModule</title>
<polygon fill="#8dd3c7" stroke="#000000" points="2399.3288,-122 2396.3288,-126 2375.3288,-126 2372.3288,-122 2310.6712,-122 2310.6712,-86 2399.3288,-86 2399.3288,-122"/>
<text text-anchor="middle" x="2355" y="-99.8" font-family="Times,serif" font-size="14.00" fill="#000000">ShellModule</text>
</g>
<!-- ShellModule&#45;&gt;CoreModule -->
<g id="edge4" class="edge">
<title>ShellModule&#45;&gt;CoreModule</title>
<path fill="none" stroke="#000000" d="M2355,-122.308C2355,-142.1455 2355,-171 2355,-171 2355,-171 1679.4191,-171 1679.4191,-171"/>
<polygon fill="#000000" stroke="#000000" points="1679.4191,-167.5001 1669.4191,-171 1679.4191,-174.5001 1679.4191,-167.5001"/>
</g>
<!-- AuthInterceptor -->
<g id="node8" class="node">
<title>AuthInterceptor</title>
<ellipse fill="#fdb462" stroke="#000000" cx="2214" cy="-104" rx="72.9121" ry="18"/>
<text text-anchor="middle" x="2214" y="-99.8" font-family="Times,serif" font-size="14.00" fill="#000000">AuthInterceptor</text>
</g>
<!-- AuthInterceptor&#45;&gt;CoreModule -->
<g id="edge7" class="edge">
<title>AuthInterceptor&#45;&gt;CoreModule</title>
<path fill="none" stroke="#000000" d="M2214,-122.2222C2214,-140.8285 2214,-167 2214,-167 2214,-167 1679.7152,-167 1679.7152,-167"/>
<polygon fill="#000000" stroke="#000000" points="1679.7152,-163.5001 1669.7152,-167 1679.7152,-170.5001 1679.7152,-163.5001"/>
</g>
<!-- AwsUtil -->
<g id="node9" class="node">
<title>AwsUtil</title>
<ellipse fill="#fdb462" stroke="#000000" cx="2080" cy="-104" rx="43.5156" ry="18"/>
<text text-anchor="middle" x="2080" y="-99.8" font-family="Times,serif" font-size="14.00" fill="#000000">AwsUtil</text>
</g>
<!-- AwsUtil&#45;&gt;CoreModule -->
<g id="edge8" class="edge">
<title>AwsUtil&#45;&gt;CoreModule</title>
<path fill="none" stroke="#000000" d="M2080,-122.0225C2080,-139.3734 2080,-163 2080,-163 2080,-163 1679.5314,-163 1679.5314,-163"/>
<polygon fill="#000000" stroke="#000000" points="1679.5315,-159.5001 1669.5314,-163 1679.5314,-166.5001 1679.5315,-159.5001"/>
</g>
<!-- CacheInterceptor -->
<g id="node10" class="node">
<title>CacheInterceptor</title>
<ellipse fill="#fdb462" stroke="#000000" cx="1941" cy="-104" rx="77.5453" ry="18"/>
<text text-anchor="middle" x="1941" y="-99.8" font-family="Times,serif" font-size="14.00" fill="#000000">CacheInterceptor</text>
</g>
<!-- CacheInterceptor&#45;&gt;CoreModule -->
<g id="edge9" class="edge">
<title>CacheInterceptor&#45;&gt;CoreModule</title>
<path fill="none" stroke="#000000" d="M1941,-122.0091C1941,-138.0494 1941,-159 1941,-159 1941,-159 1679.4687,-159 1679.4687,-159"/>
<polygon fill="#000000" stroke="#000000" points="1679.4687,-155.5001 1669.4687,-159 1679.4686,-162.5001 1679.4687,-155.5001"/>
</g>
<!-- CognitoUtil -->
<g id="node11" class="node">
<title>CognitoUtil</title>
<ellipse fill="#fdb462" stroke="#000000" cx="1788" cy="-104" rx="57.3611" ry="18"/>
<text text-anchor="middle" x="1788" y="-99.8" font-family="Times,serif" font-size="14.00" fill="#000000">CognitoUtil</text>
</g>
<!-- CognitoUtil&#45;&gt;CoreModule -->
<g id="edge10" class="edge">
<title>CognitoUtil&#45;&gt;CoreModule</title>
<path fill="none" stroke="#000000" d="M1747.2824,-116.8695C1747.2824,-131.9778 1747.2824,-155 1747.2824,-155 1747.2824,-155 1679.4432,-155 1679.4432,-155"/>
<polygon fill="#000000" stroke="#000000" points="1679.4432,-151.5001 1669.4432,-155 1679.4431,-158.5001 1679.4432,-151.5001"/>
</g>
<!-- DynamoDBService -->
<g id="node12" class="node">
<title>DynamoDBService</title>
<ellipse fill="#fdb462" stroke="#000000" cx="1626" cy="-104" rx="86.8184" ry="18"/>
<text text-anchor="middle" x="1626" y="-99.8" font-family="Times,serif" font-size="14.00" fill="#000000">DynamoDBService</text>
</g>
<!-- DynamoDBService&#45;&gt;CoreModule -->
<g id="edge11" class="edge">
<title>DynamoDBService&#45;&gt;CoreModule</title>
<path fill="none" stroke="#000000" d="M1626,-122.1061C1626,-122.1061 1626,-140.991 1626,-140.991"/>
<polygon fill="#000000" stroke="#000000" points="1622.5001,-140.9909 1626,-150.991 1629.5001,-140.991 1622.5001,-140.9909"/>
</g>
<!-- EndpointService -->
<g id="node13" class="node">
<title>EndpointService</title>
<ellipse fill="#fdb462" stroke="#000000" cx="1446" cy="-104" rx="75.3021" ry="18"/>
<text text-anchor="middle" x="1446" y="-99.8" font-family="Times,serif" font-size="14.00" fill="#000000">EndpointService</text>
</g>
<!-- EndpointService&#45;&gt;CoreModule -->
<g id="edge12" class="edge">
<title>EndpointService&#45;&gt;CoreModule</title>
<path fill="none" stroke="#000000" d="M1507.355,-114.8158C1507.355,-129.7864 1507.355,-155 1507.355,-155 1507.355,-155 1572.4947,-155 1572.4947,-155"/>
<polygon fill="#000000" stroke="#000000" points="1572.4947,-158.5001 1582.4947,-155 1572.4946,-151.5001 1572.4947,-158.5001"/>
</g>
<!-- ErrorHandlerInterceptor -->
<g id="node14" class="node">
<title>ErrorHandlerInterceptor</title>
<ellipse fill="#fdb462" stroke="#000000" cx="1248" cy="-104" rx="104.7327" ry="18"/>
<text text-anchor="middle" x="1248" y="-99.8" font-family="Times,serif" font-size="14.00" fill="#000000">ErrorHandlerInterceptor</text>
</g>
<!-- ErrorHandlerInterceptor&#45;&gt;CoreModule -->
<g id="edge13" class="edge">
<title>ErrorHandlerInterceptor&#45;&gt;CoreModule</title>
<path fill="none" stroke="#000000" d="M1248,-122.0091C1248,-138.0494 1248,-159 1248,-159 1248,-159 1572.6386,-159 1572.6386,-159"/>
<polygon fill="#000000" stroke="#000000" points="1572.6386,-162.5001 1582.6386,-159 1572.6386,-155.5001 1572.6386,-162.5001"/>
</g>
<!-- HttpCacheService -->
<g id="node15" class="node">
<title>HttpCacheService</title>
<ellipse fill="#fdb462" stroke="#000000" cx="1044" cy="-104" rx="81.0763" ry="18"/>
<text text-anchor="middle" x="1044" y="-99.8" font-family="Times,serif" font-size="14.00" fill="#000000">HttpCacheService</text>
</g>
<!-- HttpCacheService&#45;&gt;CoreModule -->
<g id="edge14" class="edge">
<title>HttpCacheService&#45;&gt;CoreModule</title>
<path fill="none" stroke="#000000" d="M1044,-122.0225C1044,-139.3734 1044,-163 1044,-163 1044,-163 1572.7309,-163 1572.7309,-163"/>
<polygon fill="#000000" stroke="#000000" points="1572.7309,-166.5001 1582.7309,-163 1572.7309,-159.5001 1572.7309,-166.5001"/>
</g>
<!-- LoadingService -->
<g id="node16" class="node">
<title>LoadingService</title>
<ellipse fill="#fdb462" stroke="#000000" cx="873" cy="-104" rx="72.3516" ry="18"/>
<text text-anchor="middle" x="873" y="-99.8" font-family="Times,serif" font-size="14.00" fill="#000000">LoadingService</text>
</g>
<!-- LoadingService&#45;&gt;CoreModule -->
<g id="edge15" class="edge">
<title>LoadingService&#45;&gt;CoreModule</title>
<path fill="none" stroke="#000000" d="M873,-122.2222C873,-140.8285 873,-167 873,-167 873,-167 1572.5362,-167 1572.5362,-167"/>
<polygon fill="#000000" stroke="#000000" points="1572.5363,-170.5001 1582.5362,-167 1572.5362,-163.5001 1572.5363,-170.5001"/>
</g>
<!-- ModalService -->
<g id="node17" class="node">
<title>ModalService</title>
<ellipse fill="#fdb462" stroke="#000000" cx="718" cy="-104" rx="65.4072" ry="18"/>
<text text-anchor="middle" x="718" y="-99.8" font-family="Times,serif" font-size="14.00" fill="#000000">ModalService</text>
</g>
<!-- ModalService&#45;&gt;CoreModule -->
<g id="edge16" class="edge">
<title>ModalService&#45;&gt;CoreModule</title>
<path fill="none" stroke="#000000" d="M718,-122.308C718,-142.1455 718,-171 718,-171 718,-171 1572.5112,-171 1572.5112,-171"/>
<polygon fill="#000000" stroke="#000000" points="1572.5112,-174.5001 1582.5112,-171 1572.5111,-167.5001 1572.5112,-174.5001"/>
</g>
<!-- UserLoginService -->
<g id="node18" class="node">
<title>UserLoginService</title>
<ellipse fill="#fdb462" stroke="#000000" cx="554" cy="-104" rx="81.0782" ry="18"/>
<text text-anchor="middle" x="554" y="-99.8" font-family="Times,serif" font-size="14.00" fill="#000000">UserLoginService</text>
</g>
<!-- UserLoginService&#45;&gt;CoreModule -->
<g id="edge17" class="edge">
<title>UserLoginService&#45;&gt;CoreModule</title>
<path fill="none" stroke="#000000" d="M554,-122.2843C554,-143.3211 554,-175 554,-175 554,-175 1572.6486,-175 1572.6486,-175"/>
<polygon fill="#000000" stroke="#000000" points="1572.6486,-178.5001 1582.6486,-175 1572.6486,-171.5001 1572.6486,-178.5001"/>
</g>
<!-- UserParametersService -->
<g id="node19" class="node">
<title>UserParametersService</title>
<ellipse fill="#fdb462" stroke="#000000" cx="354" cy="-104" rx="101.2331" ry="18"/>
<text text-anchor="middle" x="354" y="-99.8" font-family="Times,serif" font-size="14.00" fill="#000000">UserParametersService</text>
</g>
<!-- UserParametersService&#45;&gt;CoreModule -->
<g id="edge18" class="edge">
<title>UserParametersService&#45;&gt;CoreModule</title>
<path fill="none" stroke="#000000" d="M354,-122.1554C354,-144.3519 354,-179 354,-179 354,-179 1572.5829,-179 1572.5829,-179"/>
<polygon fill="#000000" stroke="#000000" points="1572.5829,-182.5001 1582.5829,-179 1572.5828,-175.5001 1572.5829,-182.5001"/>
</g>
<!-- UserRegistrationService -->
<g id="node20" class="node">
<title>UserRegistrationService</title>
<ellipse fill="#fdb462" stroke="#000000" cx="129" cy="-104" rx="105.349" ry="18"/>
<text text-anchor="middle" x="129" y="-99.8" font-family="Times,serif" font-size="14.00" fill="#000000">UserRegistrationService</text>
</g>
<!-- UserRegistrationService&#45;&gt;CoreModule -->
<g id="edge19" class="edge">
<title>UserRegistrationService&#45;&gt;CoreModule</title>
<path fill="none" stroke="#000000" d="M129,-122.3228C129,-145.6602 129,-183 129,-183 129,-183 1572.4111,-183 1572.4111,-183"/>
<polygon fill="#000000" stroke="#000000" points="1572.4111,-186.5001 1582.4111,-183 1572.4111,-179.5001 1572.4111,-186.5001"/>
</g>
</g>
</svg>
