<?xml version="1.0" encoding="UTF-8" standalone="no"?>
<!DOCTYPE svg PUBLIC "-//W3C//DTD SVG 1.1//EN"
 "http://www.w3.org/Graphics/SVG/1.1/DTD/svg11.dtd">
<!-- Generated by graphviz version 2.40.1 (20161225.0304)
 -->
<!-- Title: dependencies Pages: 1 -->
<svg width="984pt" height="284pt"
 viewBox="0.00 0.00 984.00 284.00" xmlns="http://www.w3.org/2000/svg" xmlns:xlink="http://www.w3.org/1999/xlink">
<g id="graph0" class="graph" transform="scale(1 1) rotate(0) translate(4 280)">
<title>dependencies</title>
<polygon fill="#ffffff" stroke="transparent" points="-4,4 -4,-280 980,-280 980,4 -4,4"/>
<text text-anchor="start" x="467.0091" y="-42.4" font-family="sans-serif" font-weight="bold" font-size="14.00" fill="#000000">Legend</text>
<polygon fill="#ffffb3" stroke="transparent" points="254,-10 254,-30 274,-30 274,-10 254,-10"/>
<text text-anchor="start" x="277.629" y="-15.4" font-family="sans-serif" font-size="14.00" fill="#000000"> &#160;Declarations</text>
<polygon fill="#8dd3c7" stroke="transparent" points="367,-10 367,-30 387,-30 387,-10 367,-10"/>
<text text-anchor="start" x="390.7251" y="-15.4" font-family="sans-serif" font-size="14.00" fill="#000000"> &#160;Module</text>
<polygon fill="#80b1d3" stroke="transparent" points="453,-10 453,-30 473,-30 473,-10 453,-10"/>
<text text-anchor="start" x="476.7812" y="-15.4" font-family="sans-serif" font-size="14.00" fill="#000000"> &#160;Bootstrap</text>
<polygon fill="#fdb462" stroke="transparent" points="550,-10 550,-30 570,-30 570,-10 550,-10"/>
<text text-anchor="start" x="573.6732" y="-15.4" font-family="sans-serif" font-size="14.00" fill="#000000"> &#160;Providers</text>
<polygon fill="#fb8072" stroke="transparent" points="646,-10 646,-30 666,-30 666,-10 646,-10"/>
<text text-anchor="start" x="669.7258" y="-15.4" font-family="sans-serif" font-size="14.00" fill="#000000"> &#160;Exports</text>
<g id="clust1" class="cluster">
<title>cluster_SharedModule</title>
<polygon fill="none" stroke="#000000" stroke-dasharray="1,5" points="8,-70 8,-268 968,-268 968,-70 8,-70"/>
</g>
<g id="clust2" class="cluster">
<title>cluster_SharedModule_declarations</title>
<polygon fill="none" stroke="#000000" points="337,-78 337,-130 819,-130 819,-78 337,-78"/>
</g>
<g id="clust6" class="cluster">
<title>cluster_SharedModule_imports</title>
<polygon fill="none" stroke="#000000" points="207,-78 207,-130 329,-130 329,-78 207,-78"/>
</g>
<g id="clust7" class="cluster">
<title>cluster_SharedModule_exports</title>
<polygon fill="none" stroke="#000000" points="16,-208 16,-260 960,-260 960,-208 16,-208"/>
</g>
<!-- CdkDetailRowDirective -->
<g id="node1" class="node">
<title>CdkDetailRowDirective</title>
<polygon fill="#ffffb3" stroke="#000000" points="811.0702,-122 658.9298,-122 658.9298,-86 811.0702,-86 811.0702,-122"/>
<text text-anchor="middle" x="735" y="-99.8" font-family="Times,serif" font-size="14.00" fill="#000000">CdkDetailRowDirective</text>
</g>
<!-- SharedModule -->
<g id="node4" class="node">
<title>SharedModule</title>
<polygon fill="#8dd3c7" stroke="#000000" points="547.4231,-187 544.4231,-191 523.4231,-191 520.4231,-187 448.5769,-187 448.5769,-151 547.4231,-151 547.4231,-187"/>
<text text-anchor="middle" x="498" y="-164.8" font-family="Times,serif" font-size="14.00" fill="#000000">SharedModule</text>
</g>
<!-- CdkDetailRowDirective&#45;&gt;SharedModule -->
<g id="edge1" class="edge">
<title>CdkDetailRowDirective&#45;&gt;SharedModule</title>
<path fill="none" stroke="#000000" d="M718.355,-122.027C718.355,-138.3976 718.355,-160 718.355,-160 718.355,-160 557.452,-160 557.452,-160"/>
<polygon fill="#000000" stroke="#000000" points="557.452,-156.5001 547.452,-160 557.4519,-163.5001 557.452,-156.5001"/>
</g>
<!-- LoadingComponent -->
<g id="node2" class="node">
<title>LoadingComponent</title>
<polygon fill="#ffffb3" stroke="#000000" points="640.9902,-122 513.0098,-122 513.0098,-86 640.9902,-86 640.9902,-122"/>
<text text-anchor="middle" x="577" y="-99.8" font-family="Times,serif" font-size="14.00" fill="#000000">LoadingComponent</text>
</g>
<!-- LoadingComponent&#45;&gt;SharedModule -->
<g id="edge2" class="edge">
<title>LoadingComponent&#45;&gt;SharedModule</title>
<path fill="none" stroke="#000000" d="M530.108,-122.1061C530.108,-122.1061 530.108,-140.991 530.108,-140.991"/>
<polygon fill="#000000" stroke="#000000" points="526.6081,-140.9909 530.108,-150.991 533.6081,-140.991 526.6081,-140.9909"/>
</g>
<!-- NoWhitespaceDirective -->
<g id="node3" class="node">
<title>NoWhitespaceDirective</title>
<polygon fill="#ffffb3" stroke="#000000" points="495.489,-122 344.511,-122 344.511,-86 495.489,-86 495.489,-122"/>
<text text-anchor="middle" x="420" y="-99.8" font-family="Times,serif" font-size="14.00" fill="#000000">NoWhitespaceDirective</text>
</g>
<!-- NoWhitespaceDirective&#45;&gt;SharedModule -->
<g id="edge3" class="edge">
<title>NoWhitespaceDirective&#45;&gt;SharedModule</title>
<path fill="none" stroke="#000000" d="M472.0165,-122.1061C472.0165,-122.1061 472.0165,-140.991 472.0165,-140.991"/>
<polygon fill="#000000" stroke="#000000" points="468.5166,-140.9909 472.0165,-150.991 475.5166,-140.991 468.5166,-140.9909"/>
</g>
<!-- CdkDetailRowDirective  -->
<g id="node6" class="node">
<title>CdkDetailRowDirective </title>
<polygon fill="#fb8072" stroke="#000000" points="951.5708,-252 796.4292,-252 796.4292,-216 951.5708,-216 951.5708,-252"/>
<text text-anchor="middle" x="874" y="-229.8" font-family="Times,serif" font-size="14.00" fill="#000000">CdkDetailRowDirective </text>
</g>
<!-- SharedModule&#45;&gt;CdkDetailRowDirective  -->
<g id="edge5" class="edge">
<title>SharedModule&#45;&gt;CdkDetailRowDirective </title>
<path fill="none" stroke="#000000" stroke-dasharray="5,2" d="M547.4436,-169C633.9421,-169 803.625,-169 803.625,-169 803.625,-169 803.625,-205.8939 803.625,-205.8939"/>
<polygon fill="#000000" stroke="#000000" points="800.1251,-205.8938 803.625,-215.8939 807.1251,-205.8939 800.1251,-205.8938"/>
</g>
<!-- LoadingComponent  -->
<g id="node7" class="node">
<title>LoadingComponent </title>
<polygon fill="#fb8072" stroke="#000000" points="777.9911,-252 646.0089,-252 646.0089,-216 777.9911,-216 777.9911,-252"/>
<text text-anchor="middle" x="712" y="-229.8" font-family="Times,serif" font-size="14.00" fill="#000000">LoadingComponent </text>
</g>
<!-- SharedModule&#45;&gt;LoadingComponent  -->
<g id="edge6" class="edge">
<title>SharedModule&#45;&gt;LoadingComponent </title>
<path fill="none" stroke="#000000" stroke-dasharray="5,2" d="M547.3446,-178C592.5923,-178 652.6099,-178 652.6099,-178 652.6099,-178 652.6099,-205.973 652.6099,-205.973"/>
<polygon fill="#000000" stroke="#000000" points="649.11,-205.973 652.6099,-215.973 656.11,-205.973 649.11,-205.973"/>
</g>
<!-- MaterialModule  -->
<g id="node8" class="node">
<title>MaterialModule </title>
<polygon fill="#fb8072" stroke="#000000" points="628.4716,-252 517.5284,-252 517.5284,-216 628.4716,-216 628.4716,-252"/>
<text text-anchor="middle" x="573" y="-229.8" font-family="Times,serif" font-size="14.00" fill="#000000">MaterialModule </text>
</g>
<!-- SharedModule&#45;&gt;MaterialModule  -->
<g id="edge7" class="edge">
<title>SharedModule&#45;&gt;MaterialModule </title>
<path fill="none" stroke="#000000" stroke-dasharray="5,2" d="M532.4879,-187.1061C532.4879,-187.1061 532.4879,-205.991 532.4879,-205.991"/>
<polygon fill="#000000" stroke="#000000" points="528.988,-205.9909 532.4879,-215.991 535.988,-205.991 528.988,-205.9909"/>
</g>
<!-- NoWhitespaceDirective  -->
<g id="node9" class="node">
<title>NoWhitespaceDirective </title>
<polygon fill="#fb8072" stroke="#000000" points="499.9882,-252 346.0118,-252 346.0118,-216 499.9882,-216 499.9882,-252"/>
<text text-anchor="middle" x="423" y="-229.8" font-family="Times,serif" font-size="14.00" fill="#000000">NoWhitespaceDirective </text>
</g>
<!-- SharedModule&#45;&gt;NoWhitespaceDirective  -->
<g id="edge8" class="edge">
<title>SharedModule&#45;&gt;NoWhitespaceDirective </title>
<path fill="none" stroke="#000000" stroke-dasharray="5,2" d="M474.3915,-187.1061C474.3915,-187.1061 474.3915,-205.991 474.3915,-205.991"/>
<polygon fill="#000000" stroke="#000000" points="470.8916,-205.9909 474.3915,-215.991 477.8916,-205.991 470.8916,-205.9909"/>
</g>
<!-- ToolbarLinkModule  -->
<g id="node10" class="node">
<title>ToolbarLinkModule </title>
<polygon fill="#fb8072" stroke="#000000" points="327.8115,-252 194.1885,-252 194.1885,-216 327.8115,-216 327.8115,-252"/>
<text text-anchor="middle" x="261" y="-229.8" font-family="Times,serif" font-size="14.00" fill="#000000">ToolbarLinkModule </text>
</g>
<!-- SharedModule&#45;&gt;ToolbarLinkModule  -->
<g id="edge9" class="edge">
<title>SharedModule&#45;&gt;ToolbarLinkModule </title>
<path fill="none" stroke="#000000" stroke-dasharray="5,2" d="M448.7408,-178C376.4665,-178 250.1716,-178 250.1716,-178 250.1716,-178 250.1716,-205.973 250.1716,-205.973"/>
<polygon fill="#000000" stroke="#000000" points="246.6717,-205.973 250.1716,-215.973 253.6717,-205.973 246.6717,-205.973"/>
</g>
<!-- ToolbarOptionsModule  -->
<g id="node11" class="node">
<title>ToolbarOptionsModule </title>
<polygon fill="#fb8072" stroke="#000000" points="175.7009,-252 24.2991,-252 24.2991,-216 175.7009,-216 175.7009,-252"/>
<text text-anchor="middle" x="100" y="-229.8" font-family="Times,serif" font-size="14.00" fill="#000000">ToolbarOptionsModule </text>
</g>
<!-- SharedModule&#45;&gt;ToolbarOptionsModule  -->
<g id="edge10" class="edge">
<title>SharedModule&#45;&gt;ToolbarOptionsModule </title>
<path fill="none" stroke="#000000" stroke-dasharray="5,2" d="M448.3978,-169C341.7068,-169 100,-169 100,-169 100,-169 100,-205.8939 100,-205.8939"/>
<polygon fill="#000000" stroke="#000000" points="96.5001,-205.8938 100,-215.8939 103.5001,-205.8939 96.5001,-205.8938"/>
</g>
<!-- MaterialModule -->
<g id="node5" class="node">
<title>MaterialModule</title>
<polygon fill="#8dd3c7" stroke="#000000" points="321.4706,-122 318.4706,-126 297.4706,-126 294.4706,-122 214.5294,-122 214.5294,-86 321.4706,-86 321.4706,-122"/>
<text text-anchor="middle" x="268" y="-99.8" font-family="Times,serif" font-size="14.00" fill="#000000">MaterialModule</text>
</g>
<!-- MaterialModule&#45;&gt;SharedModule -->
<g id="edge4" class="edge">
<title>MaterialModule&#45;&gt;SharedModule</title>
<path fill="none" stroke="#000000" d="M285.8284,-122.027C285.8284,-138.3976 285.8284,-160 285.8284,-160 285.8284,-160 438.523,-160 438.523,-160"/>
<polygon fill="#000000" stroke="#000000" points="438.523,-163.5001 448.523,-160 438.5229,-156.5001 438.523,-163.5001"/>
</g>
</g>
</svg>
