<?xml version="1.0" encoding="UTF-8" standalone="no"?>
<!DOCTYPE svg PUBLIC "-//W3C//DTD SVG 1.1//EN"
 "http://www.w3.org/Graphics/SVG/1.1/DTD/svg11.dtd">
<!-- Generated by graphviz version 2.40.1 (20161225.0304)
 -->
<!-- Title: dependencies Pages: 1 -->
<svg width="1062pt" height="284pt"
 viewBox="0.00 0.00 1062.00 284.00" xmlns="http://www.w3.org/2000/svg" xmlns:xlink="http://www.w3.org/1999/xlink">
<g id="graph0" class="graph" transform="scale(1 1) rotate(0) translate(4 280)">
<title>dependencies</title>
<polygon fill="#ffffff" stroke="transparent" points="-4,4 -4,-280 1058,-280 1058,4 -4,4"/>
<text text-anchor="start" x="506.0091" y="-42.4" font-family="sans-serif" font-weight="bold" font-size="14.00" fill="#000000">Legend</text>
<polygon fill="#ffffb3" stroke="transparent" points="293,-10 293,-30 313,-30 313,-10 293,-10"/>
<text text-anchor="start" x="316.629" y="-15.4" font-family="sans-serif" font-size="14.00" fill="#000000"> &#160;Declarations</text>
<polygon fill="#8dd3c7" stroke="transparent" points="406,-10 406,-30 426,-30 426,-10 406,-10"/>
<text text-anchor="start" x="429.7251" y="-15.4" font-family="sans-serif" font-size="14.00" fill="#000000"> &#160;Module</text>
<polygon fill="#80b1d3" stroke="transparent" points="492,-10 492,-30 512,-30 512,-10 492,-10"/>
<text text-anchor="start" x="515.7812" y="-15.4" font-family="sans-serif" font-size="14.00" fill="#000000"> &#160;Bootstrap</text>
<polygon fill="#fdb462" stroke="transparent" points="589,-10 589,-30 609,-30 609,-10 589,-10"/>
<text text-anchor="start" x="612.6732" y="-15.4" font-family="sans-serif" font-size="14.00" fill="#000000"> &#160;Providers</text>
<polygon fill="#fb8072" stroke="transparent" points="685,-10 685,-30 705,-30 705,-10 685,-10"/>
<text text-anchor="start" x="708.7258" y="-15.4" font-family="sans-serif" font-size="14.00" fill="#000000"> &#160;Exports</text>
<g id="clust1" class="cluster">
<title>cluster_SharedModule</title>
<polygon fill="none" stroke="#000000" stroke-dasharray="1,5" points="8,-70 8,-268 1046,-268 1046,-70 8,-70"/>
</g>
<g id="clust2" class="cluster">
<title>cluster_SharedModule_declarations</title>
<polygon fill="none" stroke="#000000" points="454,-78 454,-130 790,-130 790,-78 454,-78"/>
</g>
<g id="clust5" class="cluster">
<title>cluster_SharedModule_imports</title>
<polygon fill="none" stroke="#000000" points="324,-78 324,-130 446,-130 446,-78 324,-78"/>
</g>
<g id="clust6" class="cluster">
<title>cluster_SharedModule_exports</title>
<polygon fill="none" stroke="#000000" points="16,-208 16,-260 1038,-260 1038,-208 16,-208"/>
</g>
<!-- CdkDetailRowDirective -->
<g id="node1" class="node">
<title>CdkDetailRowDirective</title>
<polygon fill="#ffffb3" stroke="#000000" points="782.0702,-122 629.9298,-122 629.9298,-86 782.0702,-86 782.0702,-122"/>
<text text-anchor="middle" x="706" y="-99.8" font-family="Times,serif" font-size="14.00" fill="#000000">CdkDetailRowDirective</text>
</g>
<!-- SharedModule -->
<g id="node3" class="node">
<title>SharedModule</title>
<polygon fill="#8dd3c7" stroke="#000000" points="586.4231,-187 583.4231,-191 562.4231,-191 559.4231,-187 487.5769,-187 487.5769,-151 586.4231,-151 586.4231,-187"/>
<text text-anchor="middle" x="537" y="-164.8" font-family="Times,serif" font-size="14.00" fill="#000000">SharedModule</text>
</g>
<!-- CdkDetailRowDirective&#45;&gt;SharedModule -->
<g id="edge1" class="edge">
<title>CdkDetailRowDirective&#45;&gt;SharedModule</title>
<path fill="none" stroke="#000000" d="M668.5882,-122.0091C668.5882,-138.0494 668.5882,-159 668.5882,-159 668.5882,-159 596.373,-159 596.373,-159"/>
<polygon fill="#000000" stroke="#000000" points="596.373,-155.5001 586.373,-159 596.3729,-162.5001 596.373,-155.5001"/>
</g>
<!-- NoWhitespaceDirective -->
<g id="node2" class="node">
<title>NoWhitespaceDirective</title>
<polygon fill="#ffffb3" stroke="#000000" points="612.489,-122 461.511,-122 461.511,-86 612.489,-86 612.489,-122"/>
<text text-anchor="middle" x="537" y="-99.8" font-family="Times,serif" font-size="14.00" fill="#000000">NoWhitespaceDirective</text>
</g>
<!-- NoWhitespaceDirective&#45;&gt;SharedModule -->
<g id="edge2" class="edge">
<title>NoWhitespaceDirective&#45;&gt;SharedModule</title>
<path fill="none" stroke="#000000" d="M537,-122.1061C537,-122.1061 537,-140.991 537,-140.991"/>
<polygon fill="#000000" stroke="#000000" points="533.5001,-140.9909 537,-150.991 540.5001,-140.991 533.5001,-140.9909"/>
</g>
<!-- CdkDetailRowDirective  -->
<g id="node5" class="node">
<title>CdkDetailRowDirective </title>
<polygon fill="#fb8072" stroke="#000000" points="1029.5708,-252 874.4292,-252 874.4292,-216 1029.5708,-216 1029.5708,-252"/>
<text text-anchor="middle" x="952" y="-229.8" font-family="Times,serif" font-size="14.00" fill="#000000">CdkDetailRowDirective </text>
</g>
<!-- SharedModule&#45;&gt;CdkDetailRowDirective  -->
<g id="edge4" class="edge">
<title>SharedModule&#45;&gt;CdkDetailRowDirective </title>
<path fill="none" stroke="#000000" stroke-dasharray="5,2" d="M586.2356,-166C696.1648,-166 952,-166 952,-166 952,-166 952,-205.7772 952,-205.7772"/>
<polygon fill="#000000" stroke="#000000" points="948.5001,-205.7772 952,-215.7772 955.5001,-205.7773 948.5001,-205.7772"/>
</g>
<!-- CitiesModule  -->
<g id="node6" class="node">
<title>CitiesModule </title>
<polygon fill="#fb8072" stroke="#000000" points="855.7178,-252 760.2822,-252 760.2822,-216 855.7178,-216 855.7178,-252"/>
<text text-anchor="middle" x="808" y="-229.8" font-family="Times,serif" font-size="14.00" fill="#000000">CitiesModule </text>
</g>
<!-- SharedModule&#45;&gt;CitiesModule  -->
<g id="edge5" class="edge">
<title>SharedModule&#45;&gt;CitiesModule </title>
<path fill="none" stroke="#000000" stroke-dasharray="5,2" d="M586.358,-173C655.0369,-173 771.0882,-173 771.0882,-173 771.0882,-173 771.0882,-205.698 771.0882,-205.698"/>
<polygon fill="#000000" stroke="#000000" points="767.5883,-205.698 771.0882,-215.698 774.5883,-205.698 767.5883,-205.698"/>
</g>
<!-- MaterialModule  -->
<g id="node7" class="node">
<title>MaterialModule </title>
<polygon fill="#fb8072" stroke="#000000" points="742.4716,-252 631.5284,-252 631.5284,-216 742.4716,-216 742.4716,-252"/>
<text text-anchor="middle" x="687" y="-229.8" font-family="Times,serif" font-size="14.00" fill="#000000">MaterialModule </text>
</g>
<!-- SharedModule&#45;&gt;MaterialModule  -->
<g id="edge6" class="edge">
<title>SharedModule&#45;&gt;MaterialModule </title>
<path fill="none" stroke="#000000" stroke-dasharray="5,2" d="M586.6182,-180C636.2955,-180 705.4118,-180 705.4118,-180 705.4118,-180 705.4118,-205.7181 705.4118,-205.7181"/>
<polygon fill="#000000" stroke="#000000" points="701.9119,-205.718 705.4118,-215.7181 708.9119,-205.7181 701.9119,-205.718"/>
</g>
<!-- NoWhitespaceDirective  -->
<g id="node8" class="node">
<title>NoWhitespaceDirective </title>
<polygon fill="#fb8072" stroke="#000000" points="613.9882,-252 460.0118,-252 460.0118,-216 613.9882,-216 613.9882,-252"/>
<text text-anchor="middle" x="537" y="-229.8" font-family="Times,serif" font-size="14.00" fill="#000000">NoWhitespaceDirective </text>
</g>
<!-- SharedModule&#45;&gt;NoWhitespaceDirective  -->
<g id="edge7" class="edge">
<title>SharedModule&#45;&gt;NoWhitespaceDirective </title>
<path fill="none" stroke="#000000" stroke-dasharray="5,2" d="M537,-187.1061C537,-187.1061 537,-205.991 537,-205.991"/>
<polygon fill="#000000" stroke="#000000" points="533.5001,-205.9909 537,-215.991 540.5001,-205.991 533.5001,-205.9909"/>
</g>
<!-- StatesModule  -->
<g id="node9" class="node">
<title>StatesModule </title>
<polygon fill="#fb8072" stroke="#000000" points="442.4886,-252 345.5114,-252 345.5114,-216 442.4886,-216 442.4886,-252"/>
<text text-anchor="middle" x="394" y="-229.8" font-family="Times,serif" font-size="14.00" fill="#000000">StatesModule </text>
</g>
<!-- SharedModule&#45;&gt;StatesModule  -->
<g id="edge8" class="edge">
<title>SharedModule&#45;&gt;StatesModule </title>
<path fill="none" stroke="#000000" stroke-dasharray="5,2" d="M487.701,-180C451.1257,-180 407.5756,-180 407.5756,-180 407.5756,-180 407.5756,-205.7181 407.5756,-205.7181"/>
<polygon fill="#000000" stroke="#000000" points="404.0757,-205.718 407.5756,-215.7181 411.0757,-205.7181 404.0757,-205.718"/>
</g>
<!-- ToolbarLinkModule  -->
<g id="node10" class="node">
<title>ToolbarLinkModule </title>
<polygon fill="#fb8072" stroke="#000000" points="327.8115,-252 194.1885,-252 194.1885,-216 327.8115,-216 327.8115,-252"/>
<text text-anchor="middle" x="261" y="-229.8" font-family="Times,serif" font-size="14.00" fill="#000000">ToolbarLinkModule </text>
</g>
<!-- SharedModule&#45;&gt;ToolbarLinkModule  -->
<g id="edge9" class="edge">
<title>SharedModule&#45;&gt;ToolbarLinkModule </title>
<path fill="none" stroke="#000000" stroke-dasharray="5,2" d="M487.6567,-173C408.2693,-173 261,-173 261,-173 261,-173 261,-205.698 261,-205.698"/>
<polygon fill="#000000" stroke="#000000" points="257.5001,-205.698 261,-215.698 264.5001,-205.698 257.5001,-205.698"/>
</g>
<!-- ToolbarOptionsModule  -->
<g id="node11" class="node">
<title>ToolbarOptionsModule </title>
<polygon fill="#fb8072" stroke="#000000" points="175.7009,-252 24.2991,-252 24.2991,-216 175.7009,-216 175.7009,-252"/>
<text text-anchor="middle" x="100" y="-229.8" font-family="Times,serif" font-size="14.00" fill="#000000">ToolbarOptionsModule </text>
</g>
<!-- SharedModule&#45;&gt;ToolbarOptionsModule  -->
<g id="edge10" class="edge">
<title>SharedModule&#45;&gt;ToolbarOptionsModule </title>
<path fill="none" stroke="#000000" stroke-dasharray="5,2" d="M487.72,-166C373.4334,-166 100,-166 100,-166 100,-166 100,-205.7772 100,-205.7772"/>
<polygon fill="#000000" stroke="#000000" points="96.5001,-205.7772 100,-215.7772 103.5001,-205.7773 96.5001,-205.7772"/>
</g>
<!-- MaterialModule -->
<g id="node4" class="node">
<title>MaterialModule</title>
<polygon fill="#8dd3c7" stroke="#000000" points="438.4706,-122 435.4706,-126 414.4706,-126 411.4706,-122 331.5294,-122 331.5294,-86 438.4706,-86 438.4706,-122"/>
<text text-anchor="middle" x="385" y="-99.8" font-family="Times,serif" font-size="14.00" fill="#000000">MaterialModule</text>
</g>
<!-- MaterialModule&#45;&gt;SharedModule -->
<g id="edge3" class="edge">
<title>MaterialModule&#45;&gt;SharedModule</title>
<path fill="none" stroke="#000000" d="M376.666,-122.0091C376.666,-138.0494 376.666,-159 376.666,-159 376.666,-159 477.5862,-159 477.5862,-159"/>
<polygon fill="#000000" stroke="#000000" points="477.5863,-162.5001 487.5862,-159 477.5862,-155.5001 477.5863,-162.5001"/>
</g>
</g>
</svg>
