<?xml version="1.0" encoding="UTF-8" standalone="no"?>
<!DOCTYPE svg PUBLIC "-//W3C//DTD SVG 1.1//EN"
 "http://www.w3.org/Graphics/SVG/1.1/DTD/svg11.dtd">
<!-- Generated by graphviz version 2.40.1 (20161225.0304)
 -->
<!-- Title: dependencies Pages: 1 -->
<svg width="1066pt" height="284pt"
 viewBox="0.00 0.00 1066.00 284.00" xmlns="http://www.w3.org/2000/svg" xmlns:xlink="http://www.w3.org/1999/xlink">
<g id="graph0" class="graph" transform="scale(1 1) rotate(0) translate(4 280)">
<title>dependencies</title>
<polygon fill="#ffffff" stroke="transparent" points="-4,4 -4,-280 1062,-280 1062,4 -4,4"/>
<text text-anchor="start" x="508.0091" y="-42.4" font-family="sans-serif" font-weight="bold" font-size="14.00" fill="#000000">Legend</text>
<polygon fill="#ffffb3" stroke="transparent" points="295,-10 295,-30 315,-30 315,-10 295,-10"/>
<text text-anchor="start" x="318.629" y="-15.4" font-family="sans-serif" font-size="14.00" fill="#000000"> &#160;Declarations</text>
<polygon fill="#8dd3c7" stroke="transparent" points="408,-10 408,-30 428,-30 428,-10 408,-10"/>
<text text-anchor="start" x="431.7251" y="-15.4" font-family="sans-serif" font-size="14.00" fill="#000000"> &#160;Module</text>
<polygon fill="#80b1d3" stroke="transparent" points="494,-10 494,-30 514,-30 514,-10 494,-10"/>
<text text-anchor="start" x="517.7812" y="-15.4" font-family="sans-serif" font-size="14.00" fill="#000000"> &#160;Bootstrap</text>
<polygon fill="#fdb462" stroke="transparent" points="591,-10 591,-30 611,-30 611,-10 591,-10"/>
<text text-anchor="start" x="614.6732" y="-15.4" font-family="sans-serif" font-size="14.00" fill="#000000"> &#160;Providers</text>
<polygon fill="#fb8072" stroke="transparent" points="687,-10 687,-30 707,-30 707,-10 687,-10"/>
<text text-anchor="start" x="710.7258" y="-15.4" font-family="sans-serif" font-size="14.00" fill="#000000"> &#160;Exports</text>
<g id="clust1" class="cluster">
<title>cluster_SharedModule</title>
<polygon fill="none" stroke="#000000" stroke-dasharray="1,5" points="8,-70 8,-268 1050,-268 1050,-70 8,-70"/>
</g>
<g id="clust2" class="cluster">
<title>cluster_SharedModule_declarations</title>
<polygon fill="none" stroke="#000000" points="458,-78 458,-130 794,-130 794,-78 458,-78"/>
</g>
<g id="clust5" class="cluster">
<title>cluster_SharedModule_imports</title>
<polygon fill="none" stroke="#000000" points="328,-78 328,-130 450,-130 450,-78 328,-78"/>
</g>
<g id="clust6" class="cluster">
<title>cluster_SharedModule_exports</title>
<polygon fill="none" stroke="#000000" points="16,-208 16,-260 1042,-260 1042,-208 16,-208"/>
</g>
<!-- CdkDetailRowDirective -->
<g id="node1" class="node">
<title>CdkDetailRowDirective</title>
<polygon fill="#ffffb3" stroke="#000000" points="786.0702,-122 633.9298,-122 633.9298,-86 786.0702,-86 786.0702,-122"/>
<text text-anchor="middle" x="710" y="-99.8" font-family="Times,serif" font-size="14.00" fill="#000000">CdkDetailRowDirective</text>
</g>
<!-- SharedModule -->
<g id="node3" class="node">
<title>SharedModule</title>
<polygon fill="#8dd3c7" stroke="#000000" points="590.4231,-187 587.4231,-191 566.4231,-191 563.4231,-187 491.5769,-187 491.5769,-151 590.4231,-151 590.4231,-187"/>
<text text-anchor="middle" x="541" y="-164.8" font-family="Times,serif" font-size="14.00" fill="#000000">SharedModule</text>
</g>
<!-- CdkDetailRowDirective&#45;&gt;SharedModule -->
<g id="edge1" class="edge">
<title>CdkDetailRowDirective&#45;&gt;SharedModule</title>
<path fill="none" stroke="#000000" d="M672.5882,-122.0091C672.5882,-138.0494 672.5882,-159 672.5882,-159 672.5882,-159 600.373,-159 600.373,-159"/>
<polygon fill="#000000" stroke="#000000" points="600.373,-155.5001 590.373,-159 600.3729,-162.5001 600.373,-155.5001"/>
</g>
<!-- NoWhitespaceDirective -->
<g id="node2" class="node">
<title>NoWhitespaceDirective</title>
<polygon fill="#ffffb3" stroke="#000000" points="616.489,-122 465.511,-122 465.511,-86 616.489,-86 616.489,-122"/>
<text text-anchor="middle" x="541" y="-99.8" font-family="Times,serif" font-size="14.00" fill="#000000">NoWhitespaceDirective</text>
</g>
<!-- NoWhitespaceDirective&#45;&gt;SharedModule -->
<g id="edge2" class="edge">
<title>NoWhitespaceDirective&#45;&gt;SharedModule</title>
<path fill="none" stroke="#000000" d="M541,-122.1061C541,-122.1061 541,-140.991 541,-140.991"/>
<polygon fill="#000000" stroke="#000000" points="537.5001,-140.9909 541,-150.991 544.5001,-140.991 537.5001,-140.9909"/>
</g>
<!-- CdkDetailRowDirective  -->
<g id="node5" class="node">
<title>CdkDetailRowDirective </title>
<polygon fill="#fb8072" stroke="#000000" points="1033.5708,-252 878.4292,-252 878.4292,-216 1033.5708,-216 1033.5708,-252"/>
<text text-anchor="middle" x="956" y="-229.8" font-family="Times,serif" font-size="14.00" fill="#000000">CdkDetailRowDirective </text>
</g>
<!-- SharedModule&#45;&gt;CdkDetailRowDirective  -->
<g id="edge4" class="edge">
<title>SharedModule&#45;&gt;CdkDetailRowDirective </title>
<path fill="none" stroke="#000000" stroke-dasharray="5,2" d="M590.2356,-166C700.1648,-166 956,-166 956,-166 956,-166 956,-205.7772 956,-205.7772"/>
<polygon fill="#000000" stroke="#000000" points="952.5001,-205.7772 956,-215.7772 959.5001,-205.7773 952.5001,-205.7772"/>
</g>
<!-- CitiesModule  -->
<g id="node6" class="node">
<title>CitiesModule </title>
<polygon fill="#fb8072" stroke="#000000" points="859.7178,-252 764.2822,-252 764.2822,-216 859.7178,-216 859.7178,-252"/>
<text text-anchor="middle" x="812" y="-229.8" font-family="Times,serif" font-size="14.00" fill="#000000">CitiesModule </text>
</g>
<!-- SharedModule&#45;&gt;CitiesModule  -->
<g id="edge5" class="edge">
<title>SharedModule&#45;&gt;CitiesModule </title>
<path fill="none" stroke="#000000" stroke-dasharray="5,2" d="M590.358,-173C659.0369,-173 775.0882,-173 775.0882,-173 775.0882,-173 775.0882,-205.698 775.0882,-205.698"/>
<polygon fill="#000000" stroke="#000000" points="771.5883,-205.698 775.0882,-215.698 778.5883,-205.698 771.5883,-205.698"/>
</g>
<!-- MaterialModule  -->
<g id="node7" class="node">
<title>MaterialModule </title>
<polygon fill="#fb8072" stroke="#000000" points="746.4716,-252 635.5284,-252 635.5284,-216 746.4716,-216 746.4716,-252"/>
<text text-anchor="middle" x="691" y="-229.8" font-family="Times,serif" font-size="14.00" fill="#000000">MaterialModule </text>
</g>
<!-- SharedModule&#45;&gt;MaterialModule  -->
<g id="edge6" class="edge">
<title>SharedModule&#45;&gt;MaterialModule </title>
<path fill="none" stroke="#000000" stroke-dasharray="5,2" d="M590.6182,-180C640.2955,-180 709.4118,-180 709.4118,-180 709.4118,-180 709.4118,-205.7181 709.4118,-205.7181"/>
<polygon fill="#000000" stroke="#000000" points="705.9119,-205.718 709.4118,-215.7181 712.9119,-205.7181 705.9119,-205.718"/>
</g>
<!-- NoWhitespaceDirective  -->
<g id="node8" class="node">
<title>NoWhitespaceDirective </title>
<polygon fill="#fb8072" stroke="#000000" points="617.9882,-252 464.0118,-252 464.0118,-216 617.9882,-216 617.9882,-252"/>
<text text-anchor="middle" x="541" y="-229.8" font-family="Times,serif" font-size="14.00" fill="#000000">NoWhitespaceDirective </text>
</g>
<!-- SharedModule&#45;&gt;NoWhitespaceDirective  -->
<g id="edge7" class="edge">
<title>SharedModule&#45;&gt;NoWhitespaceDirective </title>
<path fill="none" stroke="#000000" stroke-dasharray="5,2" d="M541,-187.1061C541,-187.1061 541,-205.991 541,-205.991"/>
<polygon fill="#000000" stroke="#000000" points="537.5001,-205.9909 541,-215.991 544.5001,-205.991 537.5001,-205.9909"/>
</g>
<!-- StatesModule  -->
<g id="node9" class="node">
<title>StatesModule </title>
<polygon fill="#fb8072" stroke="#000000" points="446.4886,-252 349.5114,-252 349.5114,-216 446.4886,-216 446.4886,-252"/>
<text text-anchor="middle" x="398" y="-229.8" font-family="Times,serif" font-size="14.00" fill="#000000">StatesModule </text>
</g>
<!-- SharedModule&#45;&gt;StatesModule  -->
<g id="edge8" class="edge">
<title>SharedModule&#45;&gt;StatesModule </title>
<path fill="none" stroke="#000000" stroke-dasharray="5,2" d="M491.701,-180C455.1257,-180 411.5756,-180 411.5756,-180 411.5756,-180 411.5756,-205.7181 411.5756,-205.7181"/>
<polygon fill="#000000" stroke="#000000" points="408.0757,-205.718 411.5756,-215.7181 415.0757,-205.7181 408.0757,-205.718"/>
</g>
<!-- ToolbarOptionsModule  -->
<g id="node10" class="node">
<title>ToolbarOptionsModule </title>
<polygon fill="#fb8072" stroke="#000000" points="331.7009,-252 180.2991,-252 180.2991,-216 331.7009,-216 331.7009,-252"/>
<text text-anchor="middle" x="256" y="-229.8" font-family="Times,serif" font-size="14.00" fill="#000000">ToolbarOptionsModule </text>
</g>
<!-- SharedModule&#45;&gt;ToolbarOptionsModule  -->
<g id="edge9" class="edge">
<title>SharedModule&#45;&gt;ToolbarOptionsModule </title>
<path fill="none" stroke="#000000" stroke-dasharray="5,2" d="M491.6822,-173C410.1114,-173 256,-173 256,-173 256,-173 256,-205.698 256,-205.698"/>
<polygon fill="#000000" stroke="#000000" points="252.5001,-205.698 256,-215.698 259.5001,-205.698 252.5001,-205.698"/>
</g>
<!-- ToolbarTittleModule  -->
<g id="node11" class="node">
<title>ToolbarTittleModule </title>
<polygon fill="#fb8072" stroke="#000000" points="161.6981,-252 24.3019,-252 24.3019,-216 161.6981,-216 161.6981,-252"/>
<text text-anchor="middle" x="93" y="-229.8" font-family="Times,serif" font-size="14.00" fill="#000000">ToolbarTittleModule </text>
</g>
<!-- SharedModule&#45;&gt;ToolbarTittleModule  -->
<g id="edge10" class="edge">
<title>SharedModule&#45;&gt;ToolbarTittleModule </title>
<path fill="none" stroke="#000000" stroke-dasharray="5,2" d="M491.7746,-166C375.3964,-166 93,-166 93,-166 93,-166 93,-205.7772 93,-205.7772"/>
<polygon fill="#000000" stroke="#000000" points="89.5001,-205.7772 93,-215.7772 96.5001,-205.7773 89.5001,-205.7772"/>
</g>
<!-- MaterialModule -->
<g id="node4" class="node">
<title>MaterialModule</title>
<polygon fill="#8dd3c7" stroke="#000000" points="442.4706,-122 439.4706,-126 418.4706,-126 415.4706,-122 335.5294,-122 335.5294,-86 442.4706,-86 442.4706,-122"/>
<text text-anchor="middle" x="389" y="-99.8" font-family="Times,serif" font-size="14.00" fill="#000000">MaterialModule</text>
</g>
<!-- MaterialModule&#45;&gt;SharedModule -->
<g id="edge3" class="edge">
<title>MaterialModule&#45;&gt;SharedModule</title>
<path fill="none" stroke="#000000" d="M380.666,-122.0091C380.666,-138.0494 380.666,-159 380.666,-159 380.666,-159 481.5862,-159 481.5862,-159"/>
<polygon fill="#000000" stroke="#000000" points="481.5863,-162.5001 491.5862,-159 481.5862,-155.5001 481.5863,-162.5001"/>
</g>
</g>
</svg>
