<?xml version="1.0" encoding="UTF-8" standalone="no"?>
<!DOCTYPE svg PUBLIC "-//W3C//DTD SVG 1.1//EN"
 "http://www.w3.org/Graphics/SVG/1.1/DTD/svg11.dtd">
<!-- Generated by graphviz version 2.40.1 (20161225.0304)
 -->
<!-- Title: dependencies Pages: 1 -->
<svg width="834pt" height="284pt"
 viewBox="0.00 0.00 834.00 284.00" xmlns="http://www.w3.org/2000/svg" xmlns:xlink="http://www.w3.org/1999/xlink">
<g id="graph0" class="graph" transform="scale(1 1) rotate(0) translate(4 280)">
<title>dependencies</title>
<polygon fill="#ffffff" stroke="transparent" points="-4,4 -4,-280 830,-280 830,4 -4,4"/>
<text text-anchor="start" x="392.0091" y="-42.4" font-family="sans-serif" font-weight="bold" font-size="14.00" fill="#000000">Legend</text>
<polygon fill="#ffffb3" stroke="transparent" points="179,-10 179,-30 199,-30 199,-10 179,-10"/>
<text text-anchor="start" x="202.629" y="-15.4" font-family="sans-serif" font-size="14.00" fill="#000000"> &#160;Declarations</text>
<polygon fill="#8dd3c7" stroke="transparent" points="292,-10 292,-30 312,-30 312,-10 292,-10"/>
<text text-anchor="start" x="315.7251" y="-15.4" font-family="sans-serif" font-size="14.00" fill="#000000"> &#160;Module</text>
<polygon fill="#80b1d3" stroke="transparent" points="378,-10 378,-30 398,-30 398,-10 378,-10"/>
<text text-anchor="start" x="401.7812" y="-15.4" font-family="sans-serif" font-size="14.00" fill="#000000"> &#160;Bootstrap</text>
<polygon fill="#fdb462" stroke="transparent" points="475,-10 475,-30 495,-30 495,-10 475,-10"/>
<text text-anchor="start" x="498.6732" y="-15.4" font-family="sans-serif" font-size="14.00" fill="#000000"> &#160;Providers</text>
<polygon fill="#fb8072" stroke="transparent" points="571,-10 571,-30 591,-30 591,-10 571,-10"/>
<text text-anchor="start" x="594.7258" y="-15.4" font-family="sans-serif" font-size="14.00" fill="#000000"> &#160;Exports</text>
<g id="clust1" class="cluster">
<title>cluster_SharedModule</title>
<polygon fill="none" stroke="#000000" stroke-dasharray="1,5" points="8,-70 8,-268 818,-268 818,-70 8,-70"/>
</g>
<g id="clust2" class="cluster">
<title>cluster_SharedModule_declarations</title>
<polygon fill="none" stroke="#000000" points="340,-78 340,-130 676,-130 676,-78 340,-78"/>
</g>
<g id="clust5" class="cluster">
<title>cluster_SharedModule_imports</title>
<polygon fill="none" stroke="#000000" points="210,-78 210,-130 332,-130 332,-78 210,-78"/>
</g>
<g id="clust6" class="cluster">
<title>cluster_SharedModule_exports</title>
<polygon fill="none" stroke="#000000" points="16,-208 16,-260 810,-260 810,-208 16,-208"/>
</g>
<!-- CdkDetailRowDirective -->
<g id="node1" class="node">
<title>CdkDetailRowDirective</title>
<polygon fill="#ffffb3" stroke="#000000" points="668.0702,-122 515.9298,-122 515.9298,-86 668.0702,-86 668.0702,-122"/>
<text text-anchor="middle" x="592" y="-99.8" font-family="Times,serif" font-size="14.00" fill="#000000">CdkDetailRowDirective</text>
</g>
<!-- SharedModule -->
<g id="node3" class="node">
<title>SharedModule</title>
<polygon fill="#8dd3c7" stroke="#000000" points="472.4231,-187 469.4231,-191 448.4231,-191 445.4231,-187 373.5769,-187 373.5769,-151 472.4231,-151 472.4231,-187"/>
<text text-anchor="middle" x="423" y="-164.8" font-family="Times,serif" font-size="14.00" fill="#000000">SharedModule</text>
</g>
<!-- CdkDetailRowDirective&#45;&gt;SharedModule -->
<g id="edge1" class="edge">
<title>CdkDetailRowDirective&#45;&gt;SharedModule</title>
<path fill="none" stroke="#000000" d="M554.5882,-122.027C554.5882,-138.3976 554.5882,-160 554.5882,-160 554.5882,-160 482.373,-160 482.373,-160"/>
<polygon fill="#000000" stroke="#000000" points="482.373,-156.5001 472.373,-160 482.3729,-163.5001 482.373,-156.5001"/>
</g>
<!-- NoWhitespaceDirective -->
<g id="node2" class="node">
<title>NoWhitespaceDirective</title>
<polygon fill="#ffffb3" stroke="#000000" points="498.489,-122 347.511,-122 347.511,-86 498.489,-86 498.489,-122"/>
<text text-anchor="middle" x="423" y="-99.8" font-family="Times,serif" font-size="14.00" fill="#000000">NoWhitespaceDirective</text>
</g>
<!-- NoWhitespaceDirective&#45;&gt;SharedModule -->
<g id="edge2" class="edge">
<title>NoWhitespaceDirective&#45;&gt;SharedModule</title>
<path fill="none" stroke="#000000" d="M423,-122.1061C423,-122.1061 423,-140.991 423,-140.991"/>
<polygon fill="#000000" stroke="#000000" points="419.5001,-140.9909 423,-150.991 426.5001,-140.991 419.5001,-140.9909"/>
</g>
<!-- CdkDetailRowDirective  -->
<g id="node5" class="node">
<title>CdkDetailRowDirective </title>
<polygon fill="#fb8072" stroke="#000000" points="801.5708,-252 646.4292,-252 646.4292,-216 801.5708,-216 801.5708,-252"/>
<text text-anchor="middle" x="724" y="-229.8" font-family="Times,serif" font-size="14.00" fill="#000000">CdkDetailRowDirective </text>
</g>
<!-- SharedModule&#45;&gt;CdkDetailRowDirective  -->
<g id="edge4" class="edge">
<title>SharedModule&#45;&gt;CdkDetailRowDirective </title>
<path fill="none" stroke="#000000" stroke-dasharray="5,2" d="M472.3658,-169C541.0554,-169 657.125,-169 657.125,-169 657.125,-169 657.125,-205.8939 657.125,-205.8939"/>
<polygon fill="#000000" stroke="#000000" points="653.6251,-205.8938 657.125,-215.8939 660.6251,-205.8939 653.6251,-205.8938"/>
</g>
<!-- MaterialModule  -->
<g id="node6" class="node">
<title>MaterialModule </title>
<polygon fill="#fb8072" stroke="#000000" points="628.4716,-252 517.5284,-252 517.5284,-216 628.4716,-216 628.4716,-252"/>
<text text-anchor="middle" x="573" y="-229.8" font-family="Times,serif" font-size="14.00" fill="#000000">MaterialModule </text>
</g>
<!-- SharedModule&#45;&gt;MaterialModule  -->
<g id="edge5" class="edge">
<title>SharedModule&#45;&gt;MaterialModule </title>
<path fill="none" stroke="#000000" stroke-dasharray="5,2" d="M472.6182,-178C522.2955,-178 591.4118,-178 591.4118,-178 591.4118,-178 591.4118,-205.973 591.4118,-205.973"/>
<polygon fill="#000000" stroke="#000000" points="587.9119,-205.973 591.4118,-215.973 594.9119,-205.973 587.9119,-205.973"/>
</g>
<!-- NoWhitespaceDirective  -->
<g id="node7" class="node">
<title>NoWhitespaceDirective </title>
<polygon fill="#fb8072" stroke="#000000" points="499.9882,-252 346.0118,-252 346.0118,-216 499.9882,-216 499.9882,-252"/>
<text text-anchor="middle" x="423" y="-229.8" font-family="Times,serif" font-size="14.00" fill="#000000">NoWhitespaceDirective </text>
</g>
<!-- SharedModule&#45;&gt;NoWhitespaceDirective  -->
<g id="edge6" class="edge">
<title>SharedModule&#45;&gt;NoWhitespaceDirective </title>
<path fill="none" stroke="#000000" stroke-dasharray="5,2" d="M423,-187.1061C423,-187.1061 423,-205.991 423,-205.991"/>
<polygon fill="#000000" stroke="#000000" points="419.5001,-205.9909 423,-215.991 426.5001,-205.991 419.5001,-205.9909"/>
</g>
<!-- ToolbarLinkModule  -->
<g id="node8" class="node">
<title>ToolbarLinkModule </title>
<polygon fill="#fb8072" stroke="#000000" points="327.8115,-252 194.1885,-252 194.1885,-216 327.8115,-216 327.8115,-252"/>
<text text-anchor="middle" x="261" y="-229.8" font-family="Times,serif" font-size="14.00" fill="#000000">ToolbarLinkModule </text>
</g>
<!-- SharedModule&#45;&gt;ToolbarLinkModule  -->
<g id="edge7" class="edge">
<title>SharedModule&#45;&gt;ToolbarLinkModule </title>
<path fill="none" stroke="#000000" stroke-dasharray="5,2" d="M373.4221,-178C323.2949,-178 253.1716,-178 253.1716,-178 253.1716,-178 253.1716,-205.973 253.1716,-205.973"/>
<polygon fill="#000000" stroke="#000000" points="249.6717,-205.973 253.1716,-215.973 256.6717,-205.973 249.6717,-205.973"/>
</g>
<!-- ToolbarOptionsModule  -->
<g id="node9" class="node">
<title>ToolbarOptionsModule </title>
<polygon fill="#fb8072" stroke="#000000" points="175.7009,-252 24.2991,-252 24.2991,-216 175.7009,-216 175.7009,-252"/>
<text text-anchor="middle" x="100" y="-229.8" font-family="Times,serif" font-size="14.00" fill="#000000">ToolbarOptionsModule </text>
</g>
<!-- SharedModule&#45;&gt;ToolbarOptionsModule  -->
<g id="edge8" class="edge">
<title>SharedModule&#45;&gt;ToolbarOptionsModule </title>
<path fill="none" stroke="#000000" stroke-dasharray="5,2" d="M373.5917,-169C283.1097,-169 100,-169 100,-169 100,-169 100,-205.8939 100,-205.8939"/>
<polygon fill="#000000" stroke="#000000" points="96.5001,-205.8938 100,-215.8939 103.5001,-205.8939 96.5001,-205.8938"/>
</g>
<!-- MaterialModule -->
<g id="node4" class="node">
<title>MaterialModule</title>
<polygon fill="#8dd3c7" stroke="#000000" points="324.4706,-122 321.4706,-126 300.4706,-126 297.4706,-122 217.5294,-122 217.5294,-86 324.4706,-86 324.4706,-122"/>
<text text-anchor="middle" x="271" y="-99.8" font-family="Times,serif" font-size="14.00" fill="#000000">MaterialModule</text>
</g>
<!-- MaterialModule&#45;&gt;SharedModule -->
<g id="edge3" class="edge">
<title>MaterialModule&#45;&gt;SharedModule</title>
<path fill="none" stroke="#000000" d="M288.8284,-122.027C288.8284,-138.3976 288.8284,-160 288.8284,-160 288.8284,-160 363.4207,-160 363.4207,-160"/>
<polygon fill="#000000" stroke="#000000" points="363.4207,-163.5001 373.4207,-160 363.4206,-156.5001 363.4207,-163.5001"/>
</g>
</g>
</svg>
