<?xml version="1.0" encoding="UTF-8" standalone="no"?>
<!DOCTYPE svg PUBLIC "-//W3C//DTD SVG 1.1//EN"
 "http://www.w3.org/Graphics/SVG/1.1/DTD/svg11.dtd">
<!-- Generated by graphviz version 2.40.1 (20161225.0304)
 -->
<!-- Title: dependencies Pages: 1 -->
<svg width="1236pt" height="284pt"
 viewBox="0.00 0.00 1236.00 284.00" xmlns="http://www.w3.org/2000/svg" xmlns:xlink="http://www.w3.org/1999/xlink">
<g id="graph0" class="graph" transform="scale(1 1) rotate(0) translate(4 280)">
<title>dependencies</title>
<polygon fill="#ffffff" stroke="transparent" points="-4,4 -4,-280 1232,-280 1232,4 -4,4"/>
<text text-anchor="start" x="593.0091" y="-42.4" font-family="sans-serif" font-weight="bold" font-size="14.00" fill="#000000">Legend</text>
<polygon fill="#ffffb3" stroke="transparent" points="380,-10 380,-30 400,-30 400,-10 380,-10"/>
<text text-anchor="start" x="403.629" y="-15.4" font-family="sans-serif" font-size="14.00" fill="#000000"> &#160;Declarations</text>
<polygon fill="#8dd3c7" stroke="transparent" points="493,-10 493,-30 513,-30 513,-10 493,-10"/>
<text text-anchor="start" x="516.7251" y="-15.4" font-family="sans-serif" font-size="14.00" fill="#000000"> &#160;Module</text>
<polygon fill="#80b1d3" stroke="transparent" points="579,-10 579,-30 599,-30 599,-10 579,-10"/>
<text text-anchor="start" x="602.7812" y="-15.4" font-family="sans-serif" font-size="14.00" fill="#000000"> &#160;Bootstrap</text>
<polygon fill="#fdb462" stroke="transparent" points="676,-10 676,-30 696,-30 696,-10 676,-10"/>
<text text-anchor="start" x="699.6732" y="-15.4" font-family="sans-serif" font-size="14.00" fill="#000000"> &#160;Providers</text>
<polygon fill="#fb8072" stroke="transparent" points="772,-10 772,-30 792,-30 792,-10 772,-10"/>
<text text-anchor="start" x="795.7258" y="-15.4" font-family="sans-serif" font-size="14.00" fill="#000000"> &#160;Exports</text>
<g id="clust1" class="cluster">
<title>cluster_SharedModule</title>
<polygon fill="none" stroke="#000000" stroke-dasharray="1,5" points="8,-70 8,-268 1220,-268 1220,-70 8,-70"/>
</g>
<g id="clust2" class="cluster">
<title>cluster_SharedModule_declarations</title>
<polygon fill="none" stroke="#000000" points="540,-78 540,-130 1046,-130 1046,-78 540,-78"/>
</g>
<g id="clust6" class="cluster">
<title>cluster_SharedModule_imports</title>
<polygon fill="none" stroke="#000000" points="410,-78 410,-130 532,-130 532,-78 410,-78"/>
</g>
<g id="clust7" class="cluster">
<title>cluster_SharedModule_exports</title>
<polygon fill="none" stroke="#000000" points="16,-208 16,-260 1212,-260 1212,-208 16,-208"/>
</g>
<g id="clust9" class="cluster">
<title>cluster_SharedModule_providers</title>
<polygon fill="none" stroke="#000000" points="216,-78 216,-130 402,-130 402,-78 216,-78"/>
</g>
<!-- CdkDetailRowDirective -->
<g id="node1" class="node">
<title>CdkDetailRowDirective</title>
<polygon fill="#ffffb3" stroke="#000000" points="1038.0702,-122 885.9298,-122 885.9298,-86 1038.0702,-86 1038.0702,-122"/>
<text text-anchor="middle" x="962" y="-99.8" font-family="Times,serif" font-size="14.00" fill="#000000">CdkDetailRowDirective</text>
</g>
<!-- SharedModule -->
<g id="node4" class="node">
<title>SharedModule</title>
<polygon fill="#8dd3c7" stroke="#000000" points="673.4231,-187 670.4231,-191 649.4231,-191 646.4231,-187 574.5769,-187 574.5769,-151 673.4231,-151 673.4231,-187"/>
<text text-anchor="middle" x="624" y="-164.8" font-family="Times,serif" font-size="14.00" fill="#000000">SharedModule</text>
</g>
<!-- CdkDetailRowDirective&#45;&gt;SharedModule -->
<g id="edge1" class="edge">
<title>CdkDetailRowDirective&#45;&gt;SharedModule</title>
<path fill="none" stroke="#000000" d="M901.1001,-122.0225C901.1001,-139.3734 901.1001,-163 901.1001,-163 901.1001,-163 683.2206,-163 683.2206,-163"/>
<polygon fill="#000000" stroke="#000000" points="683.2207,-159.5001 673.2206,-163 683.2206,-166.5001 683.2207,-159.5001"/>
</g>
<!-- NoWhitespaceDirective -->
<g id="node2" class="node">
<title>NoWhitespaceDirective</title>
<polygon fill="#ffffb3" stroke="#000000" points="868.489,-122 717.511,-122 717.511,-86 868.489,-86 868.489,-122"/>
<text text-anchor="middle" x="793" y="-99.8" font-family="Times,serif" font-size="14.00" fill="#000000">NoWhitespaceDirective</text>
</g>
<!-- NoWhitespaceDirective&#45;&gt;SharedModule -->
<g id="edge2" class="edge">
<title>NoWhitespaceDirective&#45;&gt;SharedModule</title>
<path fill="none" stroke="#000000" d="M752.875,-122.2396C752.875,-137.5706 752.875,-157 752.875,-157 752.875,-157 683.4579,-157 683.4579,-157"/>
<polygon fill="#000000" stroke="#000000" points="683.4579,-153.5001 673.4579,-157 683.4578,-160.5001 683.4579,-153.5001"/>
</g>
<!-- SearchSellerComponent -->
<g id="node3" class="node">
<title>SearchSellerComponent</title>
<polygon fill="#ffffb3" stroke="#000000" points="700.073,-122 547.927,-122 547.927,-86 700.073,-86 700.073,-122"/>
<text text-anchor="middle" x="624" y="-99.8" font-family="Times,serif" font-size="14.00" fill="#000000">SearchSellerComponent</text>
</g>
<!-- SearchSellerComponent&#45;&gt;SharedModule -->
<g id="edge3" class="edge">
<title>SearchSellerComponent&#45;&gt;SharedModule</title>
<path fill="none" stroke="#000000" d="M624,-122.1061C624,-122.1061 624,-140.991 624,-140.991"/>
<polygon fill="#000000" stroke="#000000" points="620.5001,-140.9909 624,-150.991 627.5001,-140.991 620.5001,-140.9909"/>
</g>
<!-- CdkDetailRowDirective  -->
<g id="node6" class="node">
<title>CdkDetailRowDirective </title>
<polygon fill="#fb8072" stroke="#000000" points="1203.5708,-252 1048.4292,-252 1048.4292,-216 1203.5708,-216 1203.5708,-252"/>
<text text-anchor="middle" x="1126" y="-229.8" font-family="Times,serif" font-size="14.00" fill="#000000">CdkDetailRowDirective </text>
</g>
<!-- SharedModule&#45;&gt;CdkDetailRowDirective  -->
<g id="edge5" class="edge">
<title>SharedModule&#45;&gt;CdkDetailRowDirective </title>
<path fill="none" stroke="#000000" stroke-dasharray="5,2" d="M673.5075,-169C800.1545,-169 1126,-169 1126,-169 1126,-169 1126,-205.8939 1126,-205.8939"/>
<polygon fill="#000000" stroke="#000000" points="1122.5001,-205.8938 1126,-215.8939 1129.5001,-205.8939 1122.5001,-205.8938"/>
</g>
<!-- CitiesModule  -->
<g id="node7" class="node">
<title>CitiesModule </title>
<polygon fill="#fb8072" stroke="#000000" points="1029.7178,-252 934.2822,-252 934.2822,-216 1029.7178,-216 1029.7178,-252"/>
<text text-anchor="middle" x="982" y="-229.8" font-family="Times,serif" font-size="14.00" fill="#000000">CitiesModule </text>
</g>
<!-- SharedModule&#45;&gt;CitiesModule  -->
<g id="edge6" class="edge">
<title>SharedModule&#45;&gt;CitiesModule </title>
<path fill="none" stroke="#000000" stroke-dasharray="5,2" d="M673.4025,-175C771.6113,-175 982,-175 982,-175 982,-175 982,-205.9775 982,-205.9775"/>
<polygon fill="#000000" stroke="#000000" points="978.5001,-205.9774 982,-215.9775 985.5001,-205.9775 978.5001,-205.9774"/>
</g>
<!-- MaterialModule  -->
<g id="node8" class="node">
<title>MaterialModule </title>
<polygon fill="#fb8072" stroke="#000000" points="916.4716,-252 805.5284,-252 805.5284,-216 916.4716,-216 916.4716,-252"/>
<text text-anchor="middle" x="861" y="-229.8" font-family="Times,serif" font-size="14.00" fill="#000000">MaterialModule </text>
</g>
<!-- SharedModule&#45;&gt;MaterialModule  -->
<g id="edge7" class="edge">
<title>SharedModule&#45;&gt;MaterialModule </title>
<path fill="none" stroke="#000000" stroke-dasharray="5,2" d="M673.4029,-181C736.3265,-181 837.0044,-181 837.0044,-181 837.0044,-181 837.0044,-205.7604 837.0044,-205.7604"/>
<polygon fill="#000000" stroke="#000000" points="833.5045,-205.7604 837.0044,-215.7604 840.5045,-205.7604 833.5045,-205.7604"/>
</g>
<!-- NoWhitespaceDirective  -->
<g id="node9" class="node">
<title>NoWhitespaceDirective </title>
<polygon fill="#fb8072" stroke="#000000" points="787.9882,-252 634.0118,-252 634.0118,-216 787.9882,-216 787.9882,-252"/>
<text text-anchor="middle" x="711" y="-229.8" font-family="Times,serif" font-size="14.00" fill="#000000">NoWhitespaceDirective </text>
</g>
<!-- SharedModule&#45;&gt;NoWhitespaceDirective  -->
<g id="edge8" class="edge">
<title>SharedModule&#45;&gt;NoWhitespaceDirective </title>
<path fill="none" stroke="#000000" stroke-dasharray="5,2" d="M653.6085,-187.1061C653.6085,-187.1061 653.6085,-205.991 653.6085,-205.991"/>
<polygon fill="#000000" stroke="#000000" points="650.1086,-205.9909 653.6085,-215.991 657.1086,-205.991 650.1086,-205.9909"/>
</g>
<!-- SearchSellerComponent  -->
<g id="node10" class="node">
<title>SearchSellerComponent </title>
<polygon fill="#fb8072" stroke="#000000" points="615.5736,-252 460.4264,-252 460.4264,-216 615.5736,-216 615.5736,-252"/>
<text text-anchor="middle" x="538" y="-229.8" font-family="Times,serif" font-size="14.00" fill="#000000">SearchSellerComponent </text>
</g>
<!-- SharedModule&#45;&gt;SearchSellerComponent  -->
<g id="edge9" class="edge">
<title>SharedModule&#45;&gt;SearchSellerComponent </title>
<path fill="none" stroke="#000000" stroke-dasharray="5,2" d="M595.2877,-187.1061C595.2877,-187.1061 595.2877,-205.991 595.2877,-205.991"/>
<polygon fill="#000000" stroke="#000000" points="591.7878,-205.9909 595.2877,-215.991 598.7878,-205.991 591.7878,-205.9909"/>
</g>
<!-- StatesModule  -->
<g id="node11" class="node">
<title>StatesModule </title>
<polygon fill="#fb8072" stroke="#000000" points="442.4886,-252 345.5114,-252 345.5114,-216 442.4886,-216 442.4886,-252"/>
<text text-anchor="middle" x="394" y="-229.8" font-family="Times,serif" font-size="14.00" fill="#000000">StatesModule </text>
</g>
<!-- SharedModule&#45;&gt;StatesModule  -->
<g id="edge10" class="edge">
<title>SharedModule&#45;&gt;StatesModule </title>
<path fill="none" stroke="#000000" stroke-dasharray="5,2" d="M574.7642,-181C517.2539,-181 429.8792,-181 429.8792,-181 429.8792,-181 429.8792,-205.7604 429.8792,-205.7604"/>
<polygon fill="#000000" stroke="#000000" points="426.3793,-205.7604 429.8792,-215.7604 433.3793,-205.7604 426.3793,-205.7604"/>
</g>
<!-- ToolbarLinkModule  -->
<g id="node12" class="node">
<title>ToolbarLinkModule </title>
<polygon fill="#fb8072" stroke="#000000" points="327.8115,-252 194.1885,-252 194.1885,-216 327.8115,-216 327.8115,-252"/>
<text text-anchor="middle" x="261" y="-229.8" font-family="Times,serif" font-size="14.00" fill="#000000">ToolbarLinkModule </text>
</g>
<!-- SharedModule&#45;&gt;ToolbarLinkModule  -->
<g id="edge11" class="edge">
<title>SharedModule&#45;&gt;ToolbarLinkModule </title>
<path fill="none" stroke="#000000" stroke-dasharray="5,2" d="M574.4993,-175C478.4026,-175 275.9273,-175 275.9273,-175 275.9273,-175 275.9273,-205.9775 275.9273,-205.9775"/>
<polygon fill="#000000" stroke="#000000" points="272.4274,-205.9774 275.9273,-215.9775 279.4274,-205.9775 272.4274,-205.9774"/>
</g>
<!-- ToolbarOptionsModule  -->
<g id="node13" class="node">
<title>ToolbarOptionsModule </title>
<polygon fill="#fb8072" stroke="#000000" points="175.7009,-252 24.2991,-252 24.2991,-216 175.7009,-216 175.7009,-252"/>
<text text-anchor="middle" x="100" y="-229.8" font-family="Times,serif" font-size="14.00" fill="#000000">ToolbarOptionsModule </text>
</g>
<!-- SharedModule&#45;&gt;ToolbarOptionsModule  -->
<g id="edge12" class="edge">
<title>SharedModule&#45;&gt;ToolbarOptionsModule </title>
<path fill="none" stroke="#000000" stroke-dasharray="5,2" d="M574.7034,-169C444.2608,-169 100,-169 100,-169 100,-169 100,-205.8939 100,-205.8939"/>
<polygon fill="#000000" stroke="#000000" points="96.5001,-205.8938 100,-215.8939 103.5001,-205.8939 96.5001,-205.8938"/>
</g>
<!-- MaterialModule -->
<g id="node5" class="node">
<title>MaterialModule</title>
<polygon fill="#8dd3c7" stroke="#000000" points="524.4706,-122 521.4706,-126 500.4706,-126 497.4706,-122 417.5294,-122 417.5294,-86 524.4706,-86 524.4706,-122"/>
<text text-anchor="middle" x="471" y="-99.8" font-family="Times,serif" font-size="14.00" fill="#000000">MaterialModule</text>
</g>
<!-- MaterialModule&#45;&gt;SharedModule -->
<g id="edge4" class="edge">
<title>MaterialModule&#45;&gt;SharedModule</title>
<path fill="none" stroke="#000000" d="M492.3494,-122.2396C492.3494,-137.5706 492.3494,-157 492.3494,-157 492.3494,-157 564.6036,-157 564.6036,-157"/>
<polygon fill="#000000" stroke="#000000" points="564.6037,-160.5001 574.6036,-157 564.6036,-153.5001 564.6037,-160.5001"/>
</g>
<!-- EventEmitterSeller -->
<g id="node14" class="node">
<title>EventEmitterSeller</title>
<ellipse fill="#fdb462" stroke="#000000" cx="309" cy="-104" rx="85.1024" ry="18"/>
<text text-anchor="middle" x="309" y="-99.8" font-family="Times,serif" font-size="14.00" fill="#000000">EventEmitterSeller</text>
</g>
<!-- EventEmitterSeller&#45;&gt;SharedModule -->
<g id="edge13" class="edge">
<title>EventEmitterSeller&#45;&gt;SharedModule</title>
<path fill="none" stroke="#000000" d="M369.9037,-116.8021C369.9037,-134.1545 369.9037,-163 369.9037,-163 369.9037,-163 564.7064,-163 564.7064,-163"/>
<polygon fill="#000000" stroke="#000000" points="564.7064,-166.5001 574.7064,-163 564.7064,-159.5001 564.7064,-166.5001"/>
</g>
</g>
</svg>
