<?xml version="1.0" encoding="UTF-8" standalone="no"?>
<!DOCTYPE svg PUBLIC "-//W3C//DTD SVG 1.1//EN"
 "http://www.w3.org/Graphics/SVG/1.1/DTD/svg11.dtd">
<!-- Generated by graphviz version 2.40.1 (20161225.0304)
 -->
<!-- Title: dependencies Pages: 1 -->
<svg width="1240pt" height="284pt"
 viewBox="0.00 0.00 1240.00 284.00" xmlns="http://www.w3.org/2000/svg" xmlns:xlink="http://www.w3.org/1999/xlink">
<g id="graph0" class="graph" transform="scale(1 1) rotate(0) translate(4 280)">
<title>dependencies</title>
<polygon fill="#ffffff" stroke="transparent" points="-4,4 -4,-280 1236,-280 1236,4 -4,4"/>
<text text-anchor="start" x="595.0091" y="-42.4" font-family="sans-serif" font-weight="bold" font-size="14.00" fill="#000000">Legend</text>
<polygon fill="#ffffb3" stroke="transparent" points="382,-10 382,-30 402,-30 402,-10 382,-10"/>
<text text-anchor="start" x="405.629" y="-15.4" font-family="sans-serif" font-size="14.00" fill="#000000"> &#160;Declarations</text>
<polygon fill="#8dd3c7" stroke="transparent" points="495,-10 495,-30 515,-30 515,-10 495,-10"/>
<text text-anchor="start" x="518.7251" y="-15.4" font-family="sans-serif" font-size="14.00" fill="#000000"> &#160;Module</text>
<polygon fill="#80b1d3" stroke="transparent" points="581,-10 581,-30 601,-30 601,-10 581,-10"/>
<text text-anchor="start" x="604.7812" y="-15.4" font-family="sans-serif" font-size="14.00" fill="#000000"> &#160;Bootstrap</text>
<polygon fill="#fdb462" stroke="transparent" points="678,-10 678,-30 698,-30 698,-10 678,-10"/>
<text text-anchor="start" x="701.6732" y="-15.4" font-family="sans-serif" font-size="14.00" fill="#000000"> &#160;Providers</text>
<polygon fill="#fb8072" stroke="transparent" points="774,-10 774,-30 794,-30 794,-10 774,-10"/>
<text text-anchor="start" x="797.7258" y="-15.4" font-family="sans-serif" font-size="14.00" fill="#000000"> &#160;Exports</text>
<g id="clust1" class="cluster">
<title>cluster_SharedModule</title>
<polygon fill="none" stroke="#000000" stroke-dasharray="1,5" points="8,-70 8,-268 1224,-268 1224,-70 8,-70"/>
</g>
<g id="clust2" class="cluster">
<title>cluster_SharedModule_declarations</title>
<polygon fill="none" stroke="#000000" points="544,-78 544,-130 1050,-130 1050,-78 544,-78"/>
</g>
<g id="clust6" class="cluster">
<title>cluster_SharedModule_imports</title>
<polygon fill="none" stroke="#000000" points="414,-78 414,-130 536,-130 536,-78 414,-78"/>
</g>
<g id="clust7" class="cluster">
<title>cluster_SharedModule_exports</title>
<polygon fill="none" stroke="#000000" points="16,-208 16,-260 1216,-260 1216,-208 16,-208"/>
</g>
<g id="clust9" class="cluster">
<title>cluster_SharedModule_providers</title>
<polygon fill="none" stroke="#000000" points="220,-78 220,-130 406,-130 406,-78 220,-78"/>
</g>
<!-- CdkDetailRowDirective -->
<g id="node1" class="node">
<title>CdkDetailRowDirective</title>
<polygon fill="#ffffb3" stroke="#000000" points="1042.0702,-122 889.9298,-122 889.9298,-86 1042.0702,-86 1042.0702,-122"/>
<text text-anchor="middle" x="966" y="-99.8" font-family="Times,serif" font-size="14.00" fill="#000000">CdkDetailRowDirective</text>
</g>
<!-- SharedModule -->
<g id="node4" class="node">
<title>SharedModule</title>
<polygon fill="#8dd3c7" stroke="#000000" points="677.4231,-187 674.4231,-191 653.4231,-191 650.4231,-187 578.5769,-187 578.5769,-151 677.4231,-151 677.4231,-187"/>
<text text-anchor="middle" x="628" y="-164.8" font-family="Times,serif" font-size="14.00" fill="#000000">SharedModule</text>
</g>
<!-- CdkDetailRowDirective&#45;&gt;SharedModule -->
<g id="edge1" class="edge">
<title>CdkDetailRowDirective&#45;&gt;SharedModule</title>
<path fill="none" stroke="#000000" d="M905.1001,-122.0225C905.1001,-139.3734 905.1001,-163 905.1001,-163 905.1001,-163 687.2206,-163 687.2206,-163"/>
<polygon fill="#000000" stroke="#000000" points="687.2207,-159.5001 677.2206,-163 687.2206,-166.5001 687.2207,-159.5001"/>
</g>
<!-- NoWhitespaceDirective -->
<g id="node2" class="node">
<title>NoWhitespaceDirective</title>
<polygon fill="#ffffb3" stroke="#000000" points="872.489,-122 721.511,-122 721.511,-86 872.489,-86 872.489,-122"/>
<text text-anchor="middle" x="797" y="-99.8" font-family="Times,serif" font-size="14.00" fill="#000000">NoWhitespaceDirective</text>
</g>
<!-- NoWhitespaceDirective&#45;&gt;SharedModule -->
<g id="edge2" class="edge">
<title>NoWhitespaceDirective&#45;&gt;SharedModule</title>
<path fill="none" stroke="#000000" d="M756.875,-122.2396C756.875,-137.5706 756.875,-157 756.875,-157 756.875,-157 687.4579,-157 687.4579,-157"/>
<polygon fill="#000000" stroke="#000000" points="687.4579,-153.5001 677.4579,-157 687.4578,-160.5001 687.4579,-153.5001"/>
</g>
<!-- SearchSellerComponent -->
<g id="node3" class="node">
<title>SearchSellerComponent</title>
<polygon fill="#ffffb3" stroke="#000000" points="704.073,-122 551.927,-122 551.927,-86 704.073,-86 704.073,-122"/>
<text text-anchor="middle" x="628" y="-99.8" font-family="Times,serif" font-size="14.00" fill="#000000">SearchSellerComponent</text>
</g>
<!-- SearchSellerComponent&#45;&gt;SharedModule -->
<g id="edge3" class="edge">
<title>SearchSellerComponent&#45;&gt;SharedModule</title>
<path fill="none" stroke="#000000" d="M628,-122.1061C628,-122.1061 628,-140.991 628,-140.991"/>
<polygon fill="#000000" stroke="#000000" points="624.5001,-140.9909 628,-150.991 631.5001,-140.991 624.5001,-140.9909"/>
</g>
<!-- CdkDetailRowDirective  -->
<g id="node6" class="node">
<title>CdkDetailRowDirective </title>
<polygon fill="#fb8072" stroke="#000000" points="1207.5708,-252 1052.4292,-252 1052.4292,-216 1207.5708,-216 1207.5708,-252"/>
<text text-anchor="middle" x="1130" y="-229.8" font-family="Times,serif" font-size="14.00" fill="#000000">CdkDetailRowDirective </text>
</g>
<!-- SharedModule&#45;&gt;CdkDetailRowDirective  -->
<g id="edge5" class="edge">
<title>SharedModule&#45;&gt;CdkDetailRowDirective </title>
<path fill="none" stroke="#000000" stroke-dasharray="5,2" d="M677.5075,-169C804.1545,-169 1130,-169 1130,-169 1130,-169 1130,-205.8939 1130,-205.8939"/>
<polygon fill="#000000" stroke="#000000" points="1126.5001,-205.8938 1130,-215.8939 1133.5001,-205.8939 1126.5001,-205.8938"/>
</g>
<!-- CitiesModule  -->
<g id="node7" class="node">
<title>CitiesModule </title>
<polygon fill="#fb8072" stroke="#000000" points="1033.7178,-252 938.2822,-252 938.2822,-216 1033.7178,-216 1033.7178,-252"/>
<text text-anchor="middle" x="986" y="-229.8" font-family="Times,serif" font-size="14.00" fill="#000000">CitiesModule </text>
</g>
<!-- SharedModule&#45;&gt;CitiesModule  -->
<g id="edge6" class="edge">
<title>SharedModule&#45;&gt;CitiesModule </title>
<path fill="none" stroke="#000000" stroke-dasharray="5,2" d="M677.4025,-175C775.6113,-175 986,-175 986,-175 986,-175 986,-205.9775 986,-205.9775"/>
<polygon fill="#000000" stroke="#000000" points="982.5001,-205.9774 986,-215.9775 989.5001,-205.9775 982.5001,-205.9774"/>
</g>
<!-- MaterialModule  -->
<g id="node8" class="node">
<title>MaterialModule </title>
<polygon fill="#fb8072" stroke="#000000" points="920.4716,-252 809.5284,-252 809.5284,-216 920.4716,-216 920.4716,-252"/>
<text text-anchor="middle" x="865" y="-229.8" font-family="Times,serif" font-size="14.00" fill="#000000">MaterialModule </text>
</g>
<!-- SharedModule&#45;&gt;MaterialModule  -->
<g id="edge7" class="edge">
<title>SharedModule&#45;&gt;MaterialModule </title>
<path fill="none" stroke="#000000" stroke-dasharray="5,2" d="M677.4029,-181C740.3265,-181 841.0044,-181 841.0044,-181 841.0044,-181 841.0044,-205.7604 841.0044,-205.7604"/>
<polygon fill="#000000" stroke="#000000" points="837.5045,-205.7604 841.0044,-215.7604 844.5045,-205.7604 837.5045,-205.7604"/>
</g>
<!-- NoWhitespaceDirective  -->
<g id="node9" class="node">
<title>NoWhitespaceDirective </title>
<polygon fill="#fb8072" stroke="#000000" points="791.9882,-252 638.0118,-252 638.0118,-216 791.9882,-216 791.9882,-252"/>
<text text-anchor="middle" x="715" y="-229.8" font-family="Times,serif" font-size="14.00" fill="#000000">NoWhitespaceDirective </text>
</g>
<!-- SharedModule&#45;&gt;NoWhitespaceDirective  -->
<g id="edge8" class="edge">
<title>SharedModule&#45;&gt;NoWhitespaceDirective </title>
<path fill="none" stroke="#000000" stroke-dasharray="5,2" d="M657.6085,-187.1061C657.6085,-187.1061 657.6085,-205.991 657.6085,-205.991"/>
<polygon fill="#000000" stroke="#000000" points="654.1086,-205.9909 657.6085,-215.991 661.1086,-205.991 654.1086,-205.9909"/>
</g>
<!-- SearchSellerComponent  -->
<g id="node10" class="node">
<title>SearchSellerComponent </title>
<polygon fill="#fb8072" stroke="#000000" points="619.5736,-252 464.4264,-252 464.4264,-216 619.5736,-216 619.5736,-252"/>
<text text-anchor="middle" x="542" y="-229.8" font-family="Times,serif" font-size="14.00" fill="#000000">SearchSellerComponent </text>
</g>
<!-- SharedModule&#45;&gt;SearchSellerComponent  -->
<g id="edge9" class="edge">
<title>SharedModule&#45;&gt;SearchSellerComponent </title>
<path fill="none" stroke="#000000" stroke-dasharray="5,2" d="M599.2877,-187.1061C599.2877,-187.1061 599.2877,-205.991 599.2877,-205.991"/>
<polygon fill="#000000" stroke="#000000" points="595.7878,-205.9909 599.2877,-215.991 602.7878,-205.991 595.7878,-205.9909"/>
</g>
<!-- StatesModule  -->
<g id="node11" class="node">
<title>StatesModule </title>
<polygon fill="#fb8072" stroke="#000000" points="446.4886,-252 349.5114,-252 349.5114,-216 446.4886,-216 446.4886,-252"/>
<text text-anchor="middle" x="398" y="-229.8" font-family="Times,serif" font-size="14.00" fill="#000000">StatesModule </text>
</g>
<!-- SharedModule&#45;&gt;StatesModule  -->
<g id="edge10" class="edge">
<title>SharedModule&#45;&gt;StatesModule </title>
<path fill="none" stroke="#000000" stroke-dasharray="5,2" d="M578.7642,-181C521.2539,-181 433.8792,-181 433.8792,-181 433.8792,-181 433.8792,-205.7604 433.8792,-205.7604"/>
<polygon fill="#000000" stroke="#000000" points="430.3793,-205.7604 433.8792,-215.7604 437.3793,-205.7604 430.3793,-205.7604"/>
</g>
<!-- ToolbarOptionsModule  -->
<g id="node12" class="node">
<title>ToolbarOptionsModule </title>
<polygon fill="#fb8072" stroke="#000000" points="331.7009,-252 180.2991,-252 180.2991,-216 331.7009,-216 331.7009,-252"/>
<text text-anchor="middle" x="256" y="-229.8" font-family="Times,serif" font-size="14.00" fill="#000000">ToolbarOptionsModule </text>
</g>
<!-- SharedModule&#45;&gt;ToolbarOptionsModule  -->
<g id="edge11" class="edge">
<title>SharedModule&#45;&gt;ToolbarOptionsModule </title>
<path fill="none" stroke="#000000" stroke-dasharray="5,2" d="M578.4954,-175C482.391,-175 279.8996,-175 279.8996,-175 279.8996,-175 279.8996,-205.9775 279.8996,-205.9775"/>
<polygon fill="#000000" stroke="#000000" points="276.3997,-205.9774 279.8996,-215.9775 283.3997,-205.9775 276.3997,-205.9774"/>
</g>
<!-- ToolbarTittleModule  -->
<g id="node13" class="node">
<title>ToolbarTittleModule </title>
<polygon fill="#fb8072" stroke="#000000" points="161.6981,-252 24.3019,-252 24.3019,-216 161.6981,-216 161.6981,-252"/>
<text text-anchor="middle" x="93" y="-229.8" font-family="Times,serif" font-size="14.00" fill="#000000">ToolbarTittleModule </text>
</g>
<!-- SharedModule&#45;&gt;ToolbarTittleModule  -->
<g id="edge12" class="edge">
<title>SharedModule&#45;&gt;ToolbarTittleModule </title>
<path fill="none" stroke="#000000" stroke-dasharray="5,2" d="M578.6274,-169C446.1836,-169 93,-169 93,-169 93,-169 93,-205.8939 93,-205.8939"/>
<polygon fill="#000000" stroke="#000000" points="89.5001,-205.8938 93,-215.8939 96.5001,-205.8939 89.5001,-205.8938"/>
</g>
<!-- MaterialModule -->
<g id="node5" class="node">
<title>MaterialModule</title>
<polygon fill="#8dd3c7" stroke="#000000" points="528.4706,-122 525.4706,-126 504.4706,-126 501.4706,-122 421.5294,-122 421.5294,-86 528.4706,-86 528.4706,-122"/>
<text text-anchor="middle" x="475" y="-99.8" font-family="Times,serif" font-size="14.00" fill="#000000">MaterialModule</text>
</g>
<!-- MaterialModule&#45;&gt;SharedModule -->
<g id="edge4" class="edge">
<title>MaterialModule&#45;&gt;SharedModule</title>
<path fill="none" stroke="#000000" d="M496.3494,-122.2396C496.3494,-137.5706 496.3494,-157 496.3494,-157 496.3494,-157 568.6036,-157 568.6036,-157"/>
<polygon fill="#000000" stroke="#000000" points="568.6037,-160.5001 578.6036,-157 568.6036,-153.5001 568.6037,-160.5001"/>
</g>
<!-- EventEmitterSeller -->
<g id="node14" class="node">
<title>EventEmitterSeller</title>
<ellipse fill="#fdb462" stroke="#000000" cx="313" cy="-104" rx="85.1024" ry="18"/>
<text text-anchor="middle" x="313" y="-99.8" font-family="Times,serif" font-size="14.00" fill="#000000">EventEmitterSeller</text>
</g>
<!-- EventEmitterSeller&#45;&gt;SharedModule -->
<g id="edge13" class="edge">
<title>EventEmitterSeller&#45;&gt;SharedModule</title>
<path fill="none" stroke="#000000" d="M373.9037,-116.8021C373.9037,-134.1545 373.9037,-163 373.9037,-163 373.9037,-163 568.7064,-163 568.7064,-163"/>
<polygon fill="#000000" stroke="#000000" points="568.7064,-166.5001 578.7064,-163 568.7064,-159.5001 568.7064,-166.5001"/>
</g>
</g>
</svg>
