<?xml version="1.0" encoding="UTF-8" standalone="no"?>
<!DOCTYPE svg PUBLIC "-//W3C//DTD SVG 1.1//EN"
 "http://www.w3.org/Graphics/SVG/1.1/DTD/svg11.dtd">
<!-- Generated by graphviz version 2.40.1 (20161225.0304)
 -->
<!-- Title: dependencies Pages: 1 -->
<svg width="1005pt" height="211pt"
 viewBox="0.00 0.00 1005.00 211.00" xmlns="http://www.w3.org/2000/svg" xmlns:xlink="http://www.w3.org/1999/xlink">
<g id="graph0" class="graph" transform="scale(1 1) rotate(0) translate(4 207)">
<title>dependencies</title>
<polygon fill="#ffffff" stroke="transparent" points="-4,4 -4,-207 1001,-207 1001,4 -4,4"/>
<text text-anchor="start" x="477.5091" y="-42.4" font-family="sans-serif" font-weight="bold" font-size="14.00" fill="#000000">Legend</text>
<polygon fill="#ffffb3" stroke="transparent" points="264.5,-10 264.5,-30 284.5,-30 284.5,-10 264.5,-10"/>
<text text-anchor="start" x="288.129" y="-15.4" font-family="sans-serif" font-size="14.00" fill="#000000"> &#160;Declarations</text>
<polygon fill="#8dd3c7" stroke="transparent" points="377.5,-10 377.5,-30 397.5,-30 397.5,-10 377.5,-10"/>
<text text-anchor="start" x="401.2251" y="-15.4" font-family="sans-serif" font-size="14.00" fill="#000000"> &#160;Module</text>
<polygon fill="#80b1d3" stroke="transparent" points="463.5,-10 463.5,-30 483.5,-30 483.5,-10 463.5,-10"/>
<text text-anchor="start" x="487.2812" y="-15.4" font-family="sans-serif" font-size="14.00" fill="#000000"> &#160;Bootstrap</text>
<polygon fill="#fdb462" stroke="transparent" points="560.5,-10 560.5,-30 580.5,-30 580.5,-10 560.5,-10"/>
<text text-anchor="start" x="584.1732" y="-15.4" font-family="sans-serif" font-size="14.00" fill="#000000"> &#160;Providers</text>
<polygon fill="#fb8072" stroke="transparent" points="656.5,-10 656.5,-30 676.5,-30 676.5,-10 656.5,-10"/>
<text text-anchor="start" x="680.2258" y="-15.4" font-family="sans-serif" font-size="14.00" fill="#000000"> &#160;Exports</text>
<g id="clust1" class="cluster">
<title>cluster_ListModule</title>
<polygon fill="none" stroke="#000000" stroke-dasharray="1,5" points="8,-70 8,-195 989,-195 989,-70 8,-70"/>
</g>
<g id="clust2" class="cluster">
<title>cluster_ListModule_declarations</title>
<polygon fill="none" stroke="#000000" points="425,-78 425,-130 981,-130 981,-78 425,-78"/>
</g>
<g id="clust7" class="cluster">
<title>cluster_ListModule_imports</title>
<polygon fill="none" stroke="#000000" points="150,-78 150,-130 417,-130 417,-78 150,-78"/>
</g>
<g id="clust10" class="cluster">
<title>cluster_ListModule_providers</title>
<polygon fill="none" stroke="#000000" points="16,-78 16,-130 142,-130 142,-78 16,-78"/>
</g>
<!-- DetailOfferComponent -->
<g id="node1" class="node">
<title>DetailOfferComponent</title>
<polygon fill="#ffffb3" stroke="#000000" points="972.8431,-122 827.1569,-122 827.1569,-86 972.8431,-86 972.8431,-122"/>
<text text-anchor="middle" x="900" y="-99.8" font-family="Times,serif" font-size="14.00" fill="#000000">DetailOfferComponent</text>
</g>
<!-- ListModule -->
<g id="node5" class="node">
<title>ListModule</title>
<polygon fill="#8dd3c7" stroke="#000000" points="536.8289,-187 533.8289,-191 512.8289,-191 509.8289,-187 455.1711,-187 455.1711,-151 536.8289,-151 536.8289,-187"/>
<text text-anchor="middle" x="496" y="-164.8" font-family="Times,serif" font-size="14.00" fill="#000000">ListModule</text>
</g>
<!-- DetailOfferComponent&#45;&gt;ListModule -->
<g id="edge1" class="edge">
<title>DetailOfferComponent&#45;&gt;ListModule</title>
<path fill="none" stroke="#000000" d="M900,-122.2921C900,-144.2057 900,-178 900,-178 900,-178 546.961,-178 546.961,-178"/>
<polygon fill="#000000" stroke="#000000" points="546.961,-174.5001 536.961,-178 546.9609,-181.5001 546.961,-174.5001"/>
</g>
<!-- FilterComponent -->
<g id="node2" class="node">
<title>FilterComponent</title>
<polygon fill="#ffffb3" stroke="#000000" points="808.6625,-122 697.3375,-122 697.3375,-86 808.6625,-86 808.6625,-122"/>
<text text-anchor="middle" x="753" y="-99.8" font-family="Times,serif" font-size="14.00" fill="#000000">FilterComponent</text>
</g>
<!-- FilterComponent&#45;&gt;ListModule -->
<g id="edge2" class="edge">
<title>FilterComponent&#45;&gt;ListModule</title>
<path fill="none" stroke="#000000" d="M753,-122.1061C753,-141.3391 753,-169 753,-169 753,-169 546.7224,-169 546.7224,-169"/>
<polygon fill="#000000" stroke="#000000" points="546.7224,-165.5001 536.7224,-169 546.7224,-172.5001 546.7224,-165.5001"/>
</g>
<!-- ListComponent -->
<g id="node3" class="node">
<title>ListComponent</title>
<polygon fill="#ffffb3" stroke="#000000" points="679.6109,-122 576.3891,-122 576.3891,-86 679.6109,-86 679.6109,-122"/>
<text text-anchor="middle" x="628" y="-99.8" font-family="Times,serif" font-size="14.00" fill="#000000">ListComponent</text>
</g>
<!-- ListComponent&#45;&gt;ListModule -->
<g id="edge3" class="edge">
<title>ListComponent&#45;&gt;ListModule</title>
<path fill="none" stroke="#000000" d="M628,-122.027C628,-138.3976 628,-160 628,-160 628,-160 546.6814,-160 546.6814,-160"/>
<polygon fill="#000000" stroke="#000000" points="546.6815,-156.5001 536.6814,-160 546.6814,-163.5001 546.6815,-156.5001"/>
</g>
<!-- ToolbarComponent -->
<g id="node4" class="node">
<title>ToolbarComponent</title>
<polygon fill="#ffffb3" stroke="#000000" points="558.6513,-122 433.3487,-122 433.3487,-86 558.6513,-86 558.6513,-122"/>
<text text-anchor="middle" x="496" y="-99.8" font-family="Times,serif" font-size="14.00" fill="#000000">ToolbarComponent</text>
</g>
<!-- ToolbarComponent&#45;&gt;ListModule -->
<g id="edge4" class="edge">
<title>ToolbarComponent&#45;&gt;ListModule</title>
<path fill="none" stroke="#000000" d="M496,-122.1061C496,-122.1061 496,-140.991 496,-140.991"/>
<polygon fill="#000000" stroke="#000000" points="492.5001,-140.9909 496,-150.991 499.5001,-140.991 492.5001,-140.9909"/>
</g>
<!-- ListRoutingModule -->
<g id="node6" class="node">
<title>ListRoutingModule</title>
<polygon fill="#8dd3c7" stroke="#000000" points="409.4468,-122 406.4468,-126 385.4468,-126 382.4468,-122 282.5532,-122 282.5532,-86 409.4468,-86 409.4468,-122"/>
<text text-anchor="middle" x="346" y="-99.8" font-family="Times,serif" font-size="14.00" fill="#000000">ListRoutingModule</text>
</g>
<!-- ListRoutingModule&#45;&gt;ListModule -->
<g id="edge5" class="edge">
<title>ListRoutingModule&#45;&gt;ListModule</title>
<path fill="none" stroke="#000000" d="M346,-122.027C346,-138.3976 346,-160 346,-160 346,-160 445.0118,-160 445.0118,-160"/>
<polygon fill="#000000" stroke="#000000" points="445.0119,-163.5001 455.0118,-160 445.0118,-156.5001 445.0119,-163.5001"/>
</g>
<!-- MaterialModule -->
<g id="node7" class="node">
<title>MaterialModule</title>
<polygon fill="#8dd3c7" stroke="#000000" points="264.4706,-122 261.4706,-126 240.4706,-126 237.4706,-122 157.5294,-122 157.5294,-86 264.4706,-86 264.4706,-122"/>
<text text-anchor="middle" x="211" y="-99.8" font-family="Times,serif" font-size="14.00" fill="#000000">MaterialModule</text>
</g>
<!-- MaterialModule&#45;&gt;ListModule -->
<g id="edge6" class="edge">
<title>MaterialModule&#45;&gt;ListModule</title>
<path fill="none" stroke="#000000" d="M211,-122.1061C211,-141.3391 211,-169 211,-169 211,-169 445.1664,-169 445.1664,-169"/>
<polygon fill="#000000" stroke="#000000" points="445.1665,-172.5001 455.1664,-169 445.1664,-165.5001 445.1665,-172.5001"/>
</g>
<!-- ListService -->
<g id="node8" class="node">
<title>ListService</title>
<ellipse fill="#fdb462" stroke="#000000" cx="79" cy="-104" rx="55.0285" ry="18"/>
<text text-anchor="middle" x="79" y="-99.8" font-family="Times,serif" font-size="14.00" fill="#000000">ListService</text>
</g>
<!-- ListService&#45;&gt;ListModule -->
<g id="edge7" class="edge">
<title>ListService&#45;&gt;ListModule</title>
<path fill="none" stroke="#000000" d="M79,-122.2921C79,-144.2057 79,-178 79,-178 79,-178 445.257,-178 445.257,-178"/>
<polygon fill="#000000" stroke="#000000" points="445.2571,-181.5001 455.257,-178 445.257,-174.5001 445.2571,-181.5001"/>
</g>
</g>
</svg>
