<?xml version="1.0" encoding="UTF-8" standalone="no"?>
<!DOCTYPE svg PUBLIC "-//W3C//DTD SVG 1.1//EN"
 "http://www.w3.org/Graphics/SVG/1.1/DTD/svg11.dtd">
<!-- Generated by graphviz version 2.40.1 (20161225.0304)
 -->
<!-- Title: dependencies Pages: 1 -->
<svg width="723pt" height="211pt"
 viewBox="0.00 0.00 723.00 211.00" xmlns="http://www.w3.org/2000/svg" xmlns:xlink="http://www.w3.org/1999/xlink">
<g id="graph0" class="graph" transform="scale(1 1) rotate(0) translate(4 207)">
<title>dependencies</title>
<polygon fill="#ffffff" stroke="transparent" points="-4,4 -4,-207 719,-207 719,4 -4,4"/>
<text text-anchor="start" x="336.5091" y="-42.4" font-family="sans-serif" font-weight="bold" font-size="14.00" fill="#000000">Legend</text>
<polygon fill="#ffffb3" stroke="transparent" points="123.5,-10 123.5,-30 143.5,-30 143.5,-10 123.5,-10"/>
<text text-anchor="start" x="147.129" y="-15.4" font-family="sans-serif" font-size="14.00" fill="#000000"> &#160;Declarations</text>
<polygon fill="#8dd3c7" stroke="transparent" points="236.5,-10 236.5,-30 256.5,-30 256.5,-10 236.5,-10"/>
<text text-anchor="start" x="260.2251" y="-15.4" font-family="sans-serif" font-size="14.00" fill="#000000"> &#160;Module</text>
<polygon fill="#80b1d3" stroke="transparent" points="322.5,-10 322.5,-30 342.5,-30 342.5,-10 322.5,-10"/>
<text text-anchor="start" x="346.2812" y="-15.4" font-family="sans-serif" font-size="14.00" fill="#000000"> &#160;Bootstrap</text>
<polygon fill="#fdb462" stroke="transparent" points="419.5,-10 419.5,-30 439.5,-30 439.5,-10 419.5,-10"/>
<text text-anchor="start" x="443.1732" y="-15.4" font-family="sans-serif" font-size="14.00" fill="#000000"> &#160;Providers</text>
<polygon fill="#fb8072" stroke="transparent" points="515.5,-10 515.5,-30 535.5,-30 535.5,-10 515.5,-10"/>
<text text-anchor="start" x="539.2258" y="-15.4" font-family="sans-serif" font-size="14.00" fill="#000000"> &#160;Exports</text>
<g id="clust1" class="cluster">
<title>cluster_ListModule</title>
<polygon fill="none" stroke="#000000" stroke-dasharray="1,5" points="8,-70 8,-195 707,-195 707,-70 8,-70"/>
</g>
<g id="clust2" class="cluster">
<title>cluster_ListModule_declarations</title>
<polygon fill="none" stroke="#000000" points="416,-78 416,-130 699,-130 699,-78 416,-78"/>
</g>
<g id="clust5" class="cluster">
<title>cluster_ListModule_imports</title>
<polygon fill="none" stroke="#000000" points="150,-78 150,-130 408,-130 408,-78 150,-78"/>
</g>
<g id="clust8" class="cluster">
<title>cluster_ListModule_providers</title>
<polygon fill="none" stroke="#000000" points="16,-78 16,-130 142,-130 142,-78 16,-78"/>
</g>
<!-- DetailOfferComponent -->
<g id="node1" class="node">
<title>DetailOfferComponent</title>
<polygon fill="#ffffb3" stroke="#000000" points="690.8431,-122 545.1569,-122 545.1569,-86 690.8431,-86 690.8431,-122"/>
<text text-anchor="middle" x="618" y="-99.8" font-family="Times,serif" font-size="14.00" fill="#000000">DetailOfferComponent</text>
</g>
<!-- ListModule -->
<g id="node3" class="node">
<title>ListModule</title>
<polygon fill="#8dd3c7" stroke="#000000" points="377.8289,-187 374.8289,-191 353.8289,-191 350.8289,-187 296.1711,-187 296.1711,-151 377.8289,-151 377.8289,-187"/>
<text text-anchor="middle" x="337" y="-164.8" font-family="Times,serif" font-size="14.00" fill="#000000">ListModule</text>
</g>
<!-- DetailOfferComponent&#45;&gt;ListModule -->
<g id="edge1" class="edge">
<title>DetailOfferComponent&#45;&gt;ListModule</title>
<path fill="none" stroke="#000000" d="M618,-122.2843C618,-143.3211 618,-175 618,-175 618,-175 387.8598,-175 387.8598,-175"/>
<polygon fill="#000000" stroke="#000000" points="387.8598,-171.5001 377.8598,-175 387.8598,-178.5001 387.8598,-171.5001"/>
</g>
<!-- ListComponent -->
<g id="node2" class="node">
<title>ListComponent</title>
<polygon fill="#ffffb3" stroke="#000000" points="527.6109,-122 424.3891,-122 424.3891,-86 527.6109,-86 527.6109,-122"/>
<text text-anchor="middle" x="476" y="-99.8" font-family="Times,serif" font-size="14.00" fill="#000000">ListComponent</text>
</g>
<!-- ListComponent&#45;&gt;ListModule -->
<g id="edge2" class="edge">
<title>ListComponent&#45;&gt;ListModule</title>
<path fill="none" stroke="#000000" d="M476,-122.0225C476,-139.3734 476,-163 476,-163 476,-163 387.9528,-163 387.9528,-163"/>
<polygon fill="#000000" stroke="#000000" points="387.9528,-159.5001 377.9528,-163 387.9527,-166.5001 387.9528,-159.5001"/>
</g>
<!-- ListRoutingModule -->
<g id="node4" class="node">
<title>ListRoutingModule</title>
<polygon fill="#8dd3c7" stroke="#000000" points="400.4468,-122 397.4468,-126 376.4468,-126 373.4468,-122 273.5532,-122 273.5532,-86 400.4468,-86 400.4468,-122"/>
<text text-anchor="middle" x="337" y="-99.8" font-family="Times,serif" font-size="14.00" fill="#000000">ListRoutingModule</text>
</g>
<!-- ListRoutingModule&#45;&gt;ListModule -->
<g id="edge3" class="edge">
<title>ListRoutingModule&#45;&gt;ListModule</title>
<path fill="none" stroke="#000000" d="M337,-122.1061C337,-122.1061 337,-140.991 337,-140.991"/>
<polygon fill="#000000" stroke="#000000" points="333.5001,-140.9909 337,-150.991 340.5001,-140.991 333.5001,-140.9909"/>
</g>
<!-- SharedModule -->
<g id="node5" class="node">
<title>SharedModule</title>
<polygon fill="#8dd3c7" stroke="#000000" points="256.4231,-122 253.4231,-126 232.4231,-126 229.4231,-122 157.5769,-122 157.5769,-86 256.4231,-86 256.4231,-122"/>
<text text-anchor="middle" x="207" y="-99.8" font-family="Times,serif" font-size="14.00" fill="#000000">SharedModule</text>
</g>
<!-- SharedModule&#45;&gt;ListModule -->
<g id="edge4" class="edge">
<title>SharedModule&#45;&gt;ListModule</title>
<path fill="none" stroke="#000000" d="M207,-122.0225C207,-139.3734 207,-163 207,-163 207,-163 286.2239,-163 286.2239,-163"/>
<polygon fill="#000000" stroke="#000000" points="286.2239,-166.5001 296.2239,-163 286.2238,-159.5001 286.2239,-166.5001"/>
</g>
<!-- ListService -->
<g id="node6" class="node">
<title>ListService</title>
<ellipse fill="#fdb462" stroke="#000000" cx="79" cy="-104" rx="55.0285" ry="18"/>
<text text-anchor="middle" x="79" y="-99.8" font-family="Times,serif" font-size="14.00" fill="#000000">ListService</text>
</g>
<!-- ListService&#45;&gt;ListModule -->
<g id="edge5" class="edge">
<title>ListService&#45;&gt;ListModule</title>
<path fill="none" stroke="#000000" d="M79,-122.2843C79,-143.3211 79,-175 79,-175 79,-175 286.1191,-175 286.1191,-175"/>
<polygon fill="#000000" stroke="#000000" points="286.1192,-178.5001 296.1191,-175 286.1191,-171.5001 286.1192,-178.5001"/>
</g>
</g>
</svg>
