<?xml version="1.0" encoding="UTF-8" standalone="no"?>
<!DOCTYPE svg PUBLIC "-//W3C//DTD SVG 1.1//EN"
 "http://www.w3.org/Graphics/SVG/1.1/DTD/svg11.dtd">
<!-- Generated by graphviz version 2.40.1 (20161225.0304)
 -->
<!-- Title: dependencies Pages: 1 -->
<svg width="996pt" height="211pt"
 viewBox="0.00 0.00 996.00 211.00" xmlns="http://www.w3.org/2000/svg" xmlns:xlink="http://www.w3.org/1999/xlink">
<g id="graph0" class="graph" transform="scale(1 1) rotate(0) translate(4 207)">
<title>dependencies</title>
<polygon fill="#ffffff" stroke="transparent" points="-4,4 -4,-207 992,-207 992,4 -4,4"/>
<text text-anchor="start" x="473.0091" y="-42.4" font-family="sans-serif" font-weight="bold" font-size="14.00" fill="#000000">Legend</text>
<polygon fill="#ffffb3" stroke="transparent" points="260,-10 260,-30 280,-30 280,-10 260,-10"/>
<text text-anchor="start" x="283.629" y="-15.4" font-family="sans-serif" font-size="14.00" fill="#000000"> &#160;Declarations</text>
<polygon fill="#8dd3c7" stroke="transparent" points="373,-10 373,-30 393,-30 393,-10 373,-10"/>
<text text-anchor="start" x="396.7251" y="-15.4" font-family="sans-serif" font-size="14.00" fill="#000000"> &#160;Module</text>
<polygon fill="#80b1d3" stroke="transparent" points="459,-10 459,-30 479,-30 479,-10 459,-10"/>
<text text-anchor="start" x="482.7812" y="-15.4" font-family="sans-serif" font-size="14.00" fill="#000000"> &#160;Bootstrap</text>
<polygon fill="#fdb462" stroke="transparent" points="556,-10 556,-30 576,-30 576,-10 556,-10"/>
<text text-anchor="start" x="579.6732" y="-15.4" font-family="sans-serif" font-size="14.00" fill="#000000"> &#160;Providers</text>
<polygon fill="#fb8072" stroke="transparent" points="652,-10 652,-30 672,-30 672,-10 652,-10"/>
<text text-anchor="start" x="675.7258" y="-15.4" font-family="sans-serif" font-size="14.00" fill="#000000"> &#160;Exports</text>
<g id="clust1" class="cluster">
<title>cluster_ListModule</title>
<polygon fill="none" stroke="#000000" stroke-dasharray="1,5" points="8,-70 8,-195 980,-195 980,-70 8,-70"/>
</g>
<g id="clust2" class="cluster">
<title>cluster_ListModule_declarations</title>
<polygon fill="none" stroke="#000000" points="416,-78 416,-130 972,-130 972,-78 416,-78"/>
</g>
<g id="clust7" class="cluster">
<title>cluster_ListModule_imports</title>
<polygon fill="none" stroke="#000000" points="150,-78 150,-130 408,-130 408,-78 150,-78"/>
</g>
<g id="clust10" class="cluster">
<title>cluster_ListModule_providers</title>
<polygon fill="none" stroke="#000000" points="16,-78 16,-130 142,-130 142,-78 16,-78"/>
</g>
<!-- DetailOfferComponent -->
<g id="node1" class="node">
<title>DetailOfferComponent</title>
<polygon fill="#ffffb3" stroke="#000000" points="963.8431,-122 818.1569,-122 818.1569,-86 963.8431,-86 963.8431,-122"/>
<text text-anchor="middle" x="891" y="-99.8" font-family="Times,serif" font-size="14.00" fill="#000000">DetailOfferComponent</text>
</g>
<!-- ListModule -->
<g id="node5" class="node">
<title>ListModule</title>
<polygon fill="#8dd3c7" stroke="#000000" points="527.8289,-187 524.8289,-191 503.8289,-191 500.8289,-187 446.1711,-187 446.1711,-151 527.8289,-151 527.8289,-187"/>
<text text-anchor="middle" x="487" y="-164.8" font-family="Times,serif" font-size="14.00" fill="#000000">ListModule</text>
</g>
<!-- DetailOfferComponent&#45;&gt;ListModule -->
<g id="edge1" class="edge">
<title>DetailOfferComponent&#45;&gt;ListModule</title>
<path fill="none" stroke="#000000" d="M891,-122.2921C891,-144.2057 891,-178 891,-178 891,-178 537.961,-178 537.961,-178"/>
<polygon fill="#000000" stroke="#000000" points="537.961,-174.5001 527.961,-178 537.9609,-181.5001 537.961,-174.5001"/>
</g>
<!-- FilterComponent -->
<g id="node2" class="node">
<title>FilterComponent</title>
<polygon fill="#ffffb3" stroke="#000000" points="799.6625,-122 688.3375,-122 688.3375,-86 799.6625,-86 799.6625,-122"/>
<text text-anchor="middle" x="744" y="-99.8" font-family="Times,serif" font-size="14.00" fill="#000000">FilterComponent</text>
</g>
<!-- FilterComponent&#45;&gt;ListModule -->
<g id="edge2" class="edge">
<title>FilterComponent&#45;&gt;ListModule</title>
<path fill="none" stroke="#000000" d="M744,-122.1061C744,-141.3391 744,-169 744,-169 744,-169 537.7224,-169 537.7224,-169"/>
<polygon fill="#000000" stroke="#000000" points="537.7224,-165.5001 527.7224,-169 537.7224,-172.5001 537.7224,-165.5001"/>
</g>
<!-- ListComponent -->
<g id="node3" class="node">
<title>ListComponent</title>
<polygon fill="#ffffb3" stroke="#000000" points="670.6109,-122 567.3891,-122 567.3891,-86 670.6109,-86 670.6109,-122"/>
<text text-anchor="middle" x="619" y="-99.8" font-family="Times,serif" font-size="14.00" fill="#000000">ListComponent</text>
</g>
<!-- ListComponent&#45;&gt;ListModule -->
<g id="edge3" class="edge">
<title>ListComponent&#45;&gt;ListModule</title>
<path fill="none" stroke="#000000" d="M619,-122.027C619,-138.3976 619,-160 619,-160 619,-160 537.6814,-160 537.6814,-160"/>
<polygon fill="#000000" stroke="#000000" points="537.6815,-156.5001 527.6814,-160 537.6814,-163.5001 537.6815,-156.5001"/>
</g>
<!-- ToolbarComponent -->
<g id="node4" class="node">
<title>ToolbarComponent</title>
<polygon fill="#ffffb3" stroke="#000000" points="549.6513,-122 424.3487,-122 424.3487,-86 549.6513,-86 549.6513,-122"/>
<text text-anchor="middle" x="487" y="-99.8" font-family="Times,serif" font-size="14.00" fill="#000000">ToolbarComponent</text>
</g>
<!-- ToolbarComponent&#45;&gt;ListModule -->
<g id="edge4" class="edge">
<title>ToolbarComponent&#45;&gt;ListModule</title>
<path fill="none" stroke="#000000" d="M487,-122.1061C487,-122.1061 487,-140.991 487,-140.991"/>
<polygon fill="#000000" stroke="#000000" points="483.5001,-140.9909 487,-150.991 490.5001,-140.991 483.5001,-140.9909"/>
</g>
<!-- ListRoutingModule -->
<g id="node6" class="node">
<title>ListRoutingModule</title>
<polygon fill="#8dd3c7" stroke="#000000" points="400.4468,-122 397.4468,-126 376.4468,-126 373.4468,-122 273.5532,-122 273.5532,-86 400.4468,-86 400.4468,-122"/>
<text text-anchor="middle" x="337" y="-99.8" font-family="Times,serif" font-size="14.00" fill="#000000">ListRoutingModule</text>
</g>
<!-- ListRoutingModule&#45;&gt;ListModule -->
<g id="edge5" class="edge">
<title>ListRoutingModule&#45;&gt;ListModule</title>
<path fill="none" stroke="#000000" d="M337,-122.027C337,-138.3976 337,-160 337,-160 337,-160 436.0118,-160 436.0118,-160"/>
<polygon fill="#000000" stroke="#000000" points="436.0119,-163.5001 446.0118,-160 436.0118,-156.5001 436.0119,-163.5001"/>
</g>
<!-- SharedModule -->
<g id="node7" class="node">
<title>SharedModule</title>
<polygon fill="#8dd3c7" stroke="#000000" points="256.4231,-122 253.4231,-126 232.4231,-126 229.4231,-122 157.5769,-122 157.5769,-86 256.4231,-86 256.4231,-122"/>
<text text-anchor="middle" x="207" y="-99.8" font-family="Times,serif" font-size="14.00" fill="#000000">SharedModule</text>
</g>
<!-- SharedModule&#45;&gt;ListModule -->
<g id="edge6" class="edge">
<title>SharedModule&#45;&gt;ListModule</title>
<path fill="none" stroke="#000000" d="M207,-122.1061C207,-141.3391 207,-169 207,-169 207,-169 436.2856,-169 436.2856,-169"/>
<polygon fill="#000000" stroke="#000000" points="436.2856,-172.5001 446.2856,-169 436.2856,-165.5001 436.2856,-172.5001"/>
</g>
<!-- ListService -->
<g id="node8" class="node">
<title>ListService</title>
<ellipse fill="#fdb462" stroke="#000000" cx="79" cy="-104" rx="55.0285" ry="18"/>
<text text-anchor="middle" x="79" y="-99.8" font-family="Times,serif" font-size="14.00" fill="#000000">ListService</text>
</g>
<!-- ListService&#45;&gt;ListModule -->
<g id="edge7" class="edge">
<title>ListService&#45;&gt;ListModule</title>
<path fill="none" stroke="#000000" d="M79,-122.2921C79,-144.2057 79,-178 79,-178 79,-178 436.0113,-178 436.0113,-178"/>
<polygon fill="#000000" stroke="#000000" points="436.0114,-181.5001 446.0113,-178 436.0113,-174.5001 436.0114,-181.5001"/>
</g>
</g>
</svg>
