<?xml version="1.0" encoding="UTF-8" standalone="no"?>
<!DOCTYPE svg PUBLIC "-//W3C//DTD SVG 1.1//EN"
 "http://www.w3.org/Graphics/SVG/1.1/DTD/svg11.dtd">
<!-- Generated by graphviz version 2.40.1 (20161225.0304)
 -->
<!-- Title: dependencies Pages: 1 -->
<svg width="2784pt" height="211pt"
 viewBox="0.00 0.00 2784.00 211.00" xmlns="http://www.w3.org/2000/svg" xmlns:xlink="http://www.w3.org/1999/xlink">
<g id="graph0" class="graph" transform="scale(1 1) rotate(0) translate(4 207)">
<title>dependencies</title>
<polygon fill="#ffffff" stroke="transparent" points="-4,4 -4,-207 2780,-207 2780,4 -4,4"/>
<text text-anchor="start" x="1367.0091" y="-42.4" font-family="sans-serif" font-weight="bold" font-size="14.00" fill="#000000">Legend</text>
<polygon fill="#ffffb3" stroke="transparent" points="1154,-10 1154,-30 1174,-30 1174,-10 1154,-10"/>
<text text-anchor="start" x="1177.629" y="-15.4" font-family="sans-serif" font-size="14.00" fill="#000000"> &#160;Declarations</text>
<polygon fill="#8dd3c7" stroke="transparent" points="1267,-10 1267,-30 1287,-30 1287,-10 1267,-10"/>
<text text-anchor="start" x="1290.7251" y="-15.4" font-family="sans-serif" font-size="14.00" fill="#000000"> &#160;Module</text>
<polygon fill="#80b1d3" stroke="transparent" points="1353,-10 1353,-30 1373,-30 1373,-10 1353,-10"/>
<text text-anchor="start" x="1376.7812" y="-15.4" font-family="sans-serif" font-size="14.00" fill="#000000"> &#160;Bootstrap</text>
<polygon fill="#fdb462" stroke="transparent" points="1450,-10 1450,-30 1470,-30 1470,-10 1450,-10"/>
<text text-anchor="start" x="1473.6732" y="-15.4" font-family="sans-serif" font-size="14.00" fill="#000000"> &#160;Providers</text>
<polygon fill="#fb8072" stroke="transparent" points="1546,-10 1546,-30 1566,-30 1566,-10 1546,-10"/>
<text text-anchor="start" x="1569.7258" y="-15.4" font-family="sans-serif" font-size="14.00" fill="#000000"> &#160;Exports</text>
<g id="clust1" class="cluster">
<title>cluster_SecureModule</title>
<polygon fill="none" stroke="#000000" stroke-dasharray="1,5" points="8,-70 8,-195 2768,-195 2768,-70 8,-70"/>
</g>
<g id="clust3" class="cluster">
<title>cluster_SecureModule_imports</title>
<polygon fill="none" stroke="#000000" points="16,-78 16,-130 2760,-130 2760,-78 16,-78"/>
</g>
<!-- AwsCognitoModule -->
<g id="node1" class="node">
<title>AwsCognitoModule</title>
<polygon fill="#8dd3c7" stroke="#000000" points="2752.3258,-122 2749.3258,-126 2728.3258,-126 2725.3258,-122 2621.6742,-122 2621.6742,-86 2752.3258,-86 2752.3258,-122"/>
<text text-anchor="middle" x="2687" y="-99.8" font-family="Times,serif" font-size="14.00" fill="#000000">AwsCognitoModule</text>
</g>
<!-- SecureModule -->
<g id="node22" class="node">
<title>SecureModule</title>
<polygon fill="#8dd3c7" stroke="#000000" points="1407.6375,-187 1404.6375,-191 1383.6375,-191 1380.6375,-187 1310.3625,-187 1310.3625,-151 1407.6375,-151 1407.6375,-187"/>
<text text-anchor="middle" x="1359" y="-164.8" font-family="Times,serif" font-size="14.00" fill="#000000">SecureModule</text>
</g>
<!-- AwsCognitoModule&#45;&gt;SecureModule -->
<g id="edge1" class="edge">
<title>AwsCognitoModule&#45;&gt;SecureModule</title>
<path fill="none" stroke="#000000" d="M2687,-122.1532C2687,-145.7566 2687,-184 2687,-184 2687,-184 1417.8392,-184 1417.8392,-184"/>
<polygon fill="#000000" stroke="#000000" points="1417.8392,-180.5001 1407.8392,-184 1417.8392,-187.5001 1417.8392,-180.5001"/>
</g>
<!-- BillingModule -->
<g id="node2" class="node">
<title>BillingModule</title>
<polygon fill="#8dd3c7" stroke="#000000" points="2604.4498,-122 2601.4498,-126 2580.4498,-126 2577.4498,-122 2505.5502,-122 2505.5502,-86 2604.4498,-86 2604.4498,-122"/>
<text text-anchor="middle" x="2555" y="-99.8" font-family="Times,serif" font-size="14.00" fill="#000000">BillingModule</text>
</g>
<!-- BillingModule&#45;&gt;SecureModule -->
<g id="edge2" class="edge">
<title>BillingModule&#45;&gt;SecureModule</title>
<path fill="none" stroke="#000000" d="M2555,-122.2479C2555,-145.0179 2555,-181 2555,-181 2555,-181 1417.7395,-181 1417.7395,-181"/>
<polygon fill="#000000" stroke="#000000" points="1417.7395,-177.5001 1407.7395,-181 1417.7394,-184.5001 1417.7395,-177.5001"/>
</g>
<!-- BulkLoadModule -->
<g id="node3" class="node">
<title>BulkLoadModule</title>
<polygon fill="#8dd3c7" stroke="#000000" points="2487.5451,-122 2484.5451,-126 2463.5451,-126 2460.5451,-122 2372.4549,-122 2372.4549,-86 2487.5451,-86 2487.5451,-122"/>
<text text-anchor="middle" x="2430" y="-99.8" font-family="Times,serif" font-size="14.00" fill="#000000">BulkLoadModule</text>
</g>
<!-- BulkLoadModule&#45;&gt;SecureModule -->
<g id="edge3" class="edge">
<title>BulkLoadModule&#45;&gt;SecureModule</title>
<path fill="none" stroke="#000000" d="M2430,-122.2921C2430,-144.2057 2430,-178 2430,-178 2430,-178 1417.8017,-178 1417.8017,-178"/>
<polygon fill="#000000" stroke="#000000" points="1417.8017,-174.5001 1407.8017,-178 1417.8016,-181.5001 1417.8017,-174.5001"/>
</g>
<!-- BulkLoadProductModule -->
<g id="node4" class="node">
<title>BulkLoadProductModule</title>
<polygon fill="#8dd3c7" stroke="#000000" points="2354.5926,-122 2351.5926,-126 2330.5926,-126 2327.5926,-122 2195.4074,-122 2195.4074,-86 2354.5926,-86 2354.5926,-122"/>
<text text-anchor="middle" x="2275" y="-99.8" font-family="Times,serif" font-size="14.00" fill="#000000">BulkLoadProductModule</text>
</g>
<!-- BulkLoadProductModule&#45;&gt;SecureModule -->
<g id="edge4" class="edge">
<title>BulkLoadProductModule&#45;&gt;SecureModule</title>
<path fill="none" stroke="#000000" d="M2275,-122.0267C2275,-142.7672 2275,-174 2275,-174 2275,-174 1417.9243,-174 1417.9243,-174"/>
<polygon fill="#000000" stroke="#000000" points="1417.9243,-170.5001 1407.9243,-174 1417.9243,-177.5001 1417.9243,-170.5001"/>
</g>
<!-- DetailModule -->
<g id="node5" class="node">
<title>DetailModule</title>
<polygon fill="#8dd3c7" stroke="#000000" points="2177.7577,-122 2174.7577,-126 2153.7577,-126 2150.7577,-122 2084.2423,-122 2084.2423,-86 2177.7577,-86 2177.7577,-122"/>
<text text-anchor="middle" x="2131" y="-99.8" font-family="Times,serif" font-size="14.00" fill="#000000">DetailModule</text>
</g>
<!-- DetailModule&#45;&gt;SecureModule -->
<g id="edge5" class="edge">
<title>DetailModule&#45;&gt;SecureModule</title>
<path fill="none" stroke="#000000" d="M2131,-122.308C2131,-142.1455 2131,-171 2131,-171 2131,-171 1417.8777,-171 1417.8777,-171"/>
<polygon fill="#000000" stroke="#000000" points="1417.8778,-167.5001 1407.8777,-171 1417.8777,-174.5001 1417.8778,-167.5001"/>
</g>
<!-- DispatchModule -->
<g id="node6" class="node">
<title>DispatchModule</title>
<polygon fill="#8dd3c7" stroke="#000000" points="2065.8118,-122 2062.8118,-126 2041.8118,-126 2038.8118,-122 1956.1882,-122 1956.1882,-86 2065.8118,-86 2065.8118,-122"/>
<text text-anchor="middle" x="2011" y="-99.8" font-family="Times,serif" font-size="14.00" fill="#000000">DispatchModule</text>
</g>
<!-- DispatchModule&#45;&gt;SecureModule -->
<g id="edge6" class="edge">
<title>DispatchModule&#45;&gt;SecureModule</title>
<path fill="none" stroke="#000000" d="M2011,-122.1686C2011,-141.0898 2011,-168 2011,-168 2011,-168 1417.7393,-168 1417.7393,-168"/>
<polygon fill="#000000" stroke="#000000" points="1417.7394,-164.5001 1407.7393,-168 1417.7393,-171.5001 1417.7394,-164.5001"/>
</g>
<!-- ErrorModule -->
<g id="node7" class="node">
<title>ErrorModule</title>
<polygon fill="#8dd3c7" stroke="#000000" points="1938.5842,-122 1935.5842,-126 1914.5842,-126 1911.5842,-122 1849.4158,-122 1849.4158,-86 1938.5842,-86 1938.5842,-122"/>
<text text-anchor="middle" x="1894" y="-99.8" font-family="Times,serif" font-size="14.00" fill="#000000">ErrorModule</text>
</g>
<!-- ErrorModule&#45;&gt;SecureModule -->
<g id="edge7" class="edge">
<title>ErrorModule&#45;&gt;SecureModule</title>
<path fill="none" stroke="#000000" d="M1894,-122.302C1894,-140.2699 1894,-165 1894,-165 1894,-165 1417.896,-165 1417.896,-165"/>
<polygon fill="#000000" stroke="#000000" points="1417.896,-161.5001 1407.896,-165 1417.8959,-168.5001 1417.896,-161.5001"/>
</g>
<!-- HistoricModule -->
<g id="node8" class="node">
<title>HistoricModule</title>
<polygon fill="#8dd3c7" stroke="#000000" points="1831.1486,-122 1828.1486,-126 1807.1486,-126 1804.1486,-122 1726.8514,-122 1726.8514,-86 1831.1486,-86 1831.1486,-122"/>
<text text-anchor="middle" x="1779" y="-99.8" font-family="Times,serif" font-size="14.00" fill="#000000">HistoricModule</text>
</g>
<!-- HistoricModule&#45;&gt;SecureModule -->
<g id="edge8" class="edge">
<title>HistoricModule&#45;&gt;SecureModule</title>
<path fill="none" stroke="#000000" d="M1779,-122.0352C1779,-138.7344 1779,-161 1779,-161 1779,-161 1418.0013,-161 1418.0013,-161"/>
<polygon fill="#000000" stroke="#000000" points="1418.0014,-157.5001 1408.0013,-161 1418.0013,-164.5001 1418.0014,-157.5001"/>
</g>
<!-- HistoricalModule -->
<g id="node9" class="node">
<title>HistoricalModule</title>
<polygon fill="#8dd3c7" stroke="#000000" points="1708.2535,-122 1705.2535,-126 1684.2535,-126 1681.2535,-122 1593.7465,-122 1593.7465,-86 1708.2535,-86 1708.2535,-122"/>
<text text-anchor="middle" x="1651" y="-99.8" font-family="Times,serif" font-size="14.00" fill="#000000">HistoricalModule</text>
</g>
<!-- HistoricalModule&#45;&gt;SecureModule -->
<g id="edge9" class="edge">
<title>HistoricalModule&#45;&gt;SecureModule</title>
<path fill="none" stroke="#000000" d="M1651,-122.2819C1651,-137.9478 1651,-158 1651,-158 1651,-158 1417.8742,-158 1417.8742,-158"/>
<polygon fill="#000000" stroke="#000000" points="1417.8743,-154.5001 1407.8742,-158 1417.8742,-161.5001 1417.8743,-154.5001"/>
</g>
<!-- InDevolutionModule -->
<g id="node10" class="node">
<title>InDevolutionModule</title>
<polygon fill="#8dd3c7" stroke="#000000" points="1576.2036,-122 1573.2036,-126 1552.2036,-126 1549.2036,-122 1441.7964,-122 1441.7964,-86 1576.2036,-86 1576.2036,-122"/>
<text text-anchor="middle" x="1509" y="-99.8" font-family="Times,serif" font-size="14.00" fill="#000000">InDevolutionModule</text>
</g>
<!-- InDevolutionModule&#45;&gt;SecureModule -->
<g id="edge10" class="edge">
<title>InDevolutionModule&#45;&gt;SecureModule</title>
<path fill="none" stroke="#000000" d="M1509,-122.1243C1509,-136.7832 1509,-155 1509,-155 1509,-155 1417.7007,-155 1417.7007,-155"/>
<polygon fill="#000000" stroke="#000000" points="1417.7007,-151.5001 1407.7007,-155 1417.7007,-158.5001 1417.7007,-151.5001"/>
</g>
<!-- InValidationModule -->
<g id="node11" class="node">
<title>InValidationModule</title>
<polygon fill="#8dd3c7" stroke="#000000" points="1424.309,-122 1421.309,-126 1400.309,-126 1397.309,-122 1293.691,-122 1293.691,-86 1424.309,-86 1424.309,-122"/>
<text text-anchor="middle" x="1359" y="-99.8" font-family="Times,serif" font-size="14.00" fill="#000000">InValidationModule</text>
</g>
<!-- InValidationModule&#45;&gt;SecureModule -->
<g id="edge11" class="edge">
<title>InValidationModule&#45;&gt;SecureModule</title>
<path fill="none" stroke="#000000" d="M1359,-122.1061C1359,-122.1061 1359,-140.991 1359,-140.991"/>
<polygon fill="#000000" stroke="#000000" points="1355.5001,-140.9909 1359,-150.991 1362.5001,-140.991 1355.5001,-140.9909"/>
</g>
<!-- ListModule -->
<g id="node12" class="node">
<title>ListModule</title>
<polygon fill="#8dd3c7" stroke="#000000" points="1275.8289,-122 1272.8289,-126 1251.8289,-126 1248.8289,-122 1194.1711,-122 1194.1711,-86 1275.8289,-86 1275.8289,-122"/>
<text text-anchor="middle" x="1235" y="-99.8" font-family="Times,serif" font-size="14.00" fill="#000000">ListModule</text>
</g>
<!-- ListModule&#45;&gt;SecureModule -->
<g id="edge12" class="edge">
<title>ListModule&#45;&gt;SecureModule</title>
<path fill="none" stroke="#000000" d="M1235,-122.1243C1235,-136.7832 1235,-155 1235,-155 1235,-155 1300.3478,-155 1300.3478,-155"/>
<polygon fill="#000000" stroke="#000000" points="1300.3478,-158.5001 1310.3478,-155 1300.3478,-151.5001 1300.3478,-158.5001"/>
</g>
<!-- LoadGuideModule -->
<g id="node13" class="node">
<title>LoadGuideModule</title>
<polygon fill="#8dd3c7" stroke="#000000" points="1176.0297,-122 1173.0297,-126 1152.0297,-126 1149.0297,-122 1053.9703,-122 1053.9703,-86 1176.0297,-86 1176.0297,-122"/>
<text text-anchor="middle" x="1115" y="-99.8" font-family="Times,serif" font-size="14.00" fill="#000000">LoadGuideModule</text>
</g>
<!-- LoadGuideModule&#45;&gt;SecureModule -->
<g id="edge13" class="edge">
<title>LoadGuideModule&#45;&gt;SecureModule</title>
<path fill="none" stroke="#000000" d="M1115,-122.2819C1115,-137.9478 1115,-158 1115,-158 1115,-158 1300.2094,-158 1300.2094,-158"/>
<polygon fill="#000000" stroke="#000000" points="1300.2094,-161.5001 1310.2094,-158 1300.2094,-154.5001 1300.2094,-161.5001"/>
</g>
<!-- ManageModule -->
<g id="node14" class="node">
<title>ManageModule</title>
<polygon fill="#8dd3c7" stroke="#000000" points="1035.1388,-122 1032.1388,-126 1011.1388,-126 1008.1388,-122 930.8612,-122 930.8612,-86 1035.1388,-86 1035.1388,-122"/>
<text text-anchor="middle" x="983" y="-99.8" font-family="Times,serif" font-size="14.00" fill="#000000">ManageModule</text>
</g>
<!-- ManageModule&#45;&gt;SecureModule -->
<g id="edge14" class="edge">
<title>ManageModule&#45;&gt;SecureModule</title>
<path fill="none" stroke="#000000" d="M983,-122.0352C983,-138.7344 983,-161 983,-161 983,-161 1300.23,-161 1300.23,-161"/>
<polygon fill="#000000" stroke="#000000" points="1300.2301,-164.5001 1310.23,-161 1300.23,-157.5001 1300.2301,-164.5001"/>
</g>
<!-- OrdersModule -->
<g id="node15" class="node">
<title>OrdersModule</title>
<polygon fill="#8dd3c7" stroke="#000000" points="912.6375,-122 909.6375,-126 888.6375,-126 885.6375,-122 815.3625,-122 815.3625,-86 912.6375,-86 912.6375,-122"/>
<text text-anchor="middle" x="864" y="-99.8" font-family="Times,serif" font-size="14.00" fill="#000000">OrdersModule</text>
</g>
<!-- OrdersModule&#45;&gt;SecureModule -->
<g id="edge15" class="edge">
<title>OrdersModule&#45;&gt;SecureModule</title>
<path fill="none" stroke="#000000" d="M864,-122.302C864,-140.2699 864,-165 864,-165 864,-165 1300.1828,-165 1300.1828,-165"/>
<polygon fill="#000000" stroke="#000000" points="1300.1828,-168.5001 1310.1828,-165 1300.1828,-161.5001 1300.1828,-168.5001"/>
</g>
<!-- PendingDevolutionModule -->
<g id="node16" class="node">
<title>PendingDevolutionModule</title>
<polygon fill="#8dd3c7" stroke="#000000" points="797.4312,-122 794.4312,-126 773.4312,-126 770.4312,-122 628.5688,-122 628.5688,-86 797.4312,-86 797.4312,-122"/>
<text text-anchor="middle" x="713" y="-99.8" font-family="Times,serif" font-size="14.00" fill="#000000">PendingDevolutionModule</text>
</g>
<!-- PendingDevolutionModule&#45;&gt;SecureModule -->
<g id="edge16" class="edge">
<title>PendingDevolutionModule&#45;&gt;SecureModule</title>
<path fill="none" stroke="#000000" d="M713,-122.1686C713,-141.0898 713,-168 713,-168 713,-168 1300.1802,-168 1300.1802,-168"/>
<polygon fill="#000000" stroke="#000000" points="1300.1802,-171.5001 1310.1802,-168 1300.1802,-164.5001 1300.1802,-171.5001"/>
</g>
<!-- PendingModule -->
<g id="node17" class="node">
<title>PendingModule</title>
<polygon fill="#8dd3c7" stroke="#000000" points="610.9385,-122 607.9385,-126 586.9385,-126 583.9385,-122 505.0615,-122 505.0615,-86 610.9385,-86 610.9385,-122"/>
<text text-anchor="middle" x="558" y="-99.8" font-family="Times,serif" font-size="14.00" fill="#000000">PendingModule</text>
</g>
<!-- PendingModule&#45;&gt;SecureModule -->
<g id="edge17" class="edge">
<title>PendingModule&#45;&gt;SecureModule</title>
<path fill="none" stroke="#000000" d="M558,-122.308C558,-142.1455 558,-171 558,-171 558,-171 1300.0996,-171 1300.0996,-171"/>
<polygon fill="#000000" stroke="#000000" points="1300.0997,-174.5001 1310.0996,-171 1300.0996,-167.5001 1300.0997,-174.5001"/>
</g>
<!-- QuotingModule -->
<g id="node18" class="node">
<title>QuotingModule</title>
<polygon fill="#8dd3c7" stroke="#000000" points="487.9385,-122 484.9385,-126 463.9385,-126 460.9385,-122 382.0615,-122 382.0615,-86 487.9385,-86 487.9385,-122"/>
<text text-anchor="middle" x="435" y="-99.8" font-family="Times,serif" font-size="14.00" fill="#000000">QuotingModule</text>
</g>
<!-- QuotingModule&#45;&gt;SecureModule -->
<g id="edge18" class="edge">
<title>QuotingModule&#45;&gt;SecureModule</title>
<path fill="none" stroke="#000000" d="M435,-122.0267C435,-142.7672 435,-174 435,-174 435,-174 1300.2989,-174 1300.2989,-174"/>
<polygon fill="#000000" stroke="#000000" points="1300.2989,-177.5001 1310.2989,-174 1300.2989,-170.5001 1300.2989,-177.5001"/>
</g>
<!-- RegisterModule -->
<g id="node19" class="node">
<title>RegisterModule</title>
<polygon fill="#8dd3c7" stroke="#000000" points="364.2022,-122 361.2022,-126 340.2022,-126 337.2022,-122 257.7978,-122 257.7978,-86 364.2022,-86 364.2022,-122"/>
<text text-anchor="middle" x="311" y="-99.8" font-family="Times,serif" font-size="14.00" fill="#000000">RegisterModule</text>
</g>
<!-- RegisterModule&#45;&gt;SecureModule -->
<g id="edge19" class="edge">
<title>RegisterModule&#45;&gt;SecureModule</title>
<path fill="none" stroke="#000000" d="M311,-122.2921C311,-144.2057 311,-178 311,-178 311,-178 1300.2071,-178 1300.2071,-178"/>
<polygon fill="#000000" stroke="#000000" points="1300.2071,-181.5001 1310.2071,-178 1300.207,-174.5001 1300.2071,-181.5001"/>
</g>
<!-- ReportsModule -->
<g id="node20" class="node">
<title>ReportsModule</title>
<polygon fill="#8dd3c7" stroke="#000000" points="239.5968,-122 236.5968,-126 215.5968,-126 212.5968,-122 136.4032,-122 136.4032,-86 239.5968,-86 239.5968,-122"/>
<text text-anchor="middle" x="188" y="-99.8" font-family="Times,serif" font-size="14.00" fill="#000000">ReportsModule</text>
</g>
<!-- ReportsModule&#45;&gt;SecureModule -->
<g id="edge20" class="edge">
<title>ReportsModule&#45;&gt;SecureModule</title>
<path fill="none" stroke="#000000" d="M188,-122.2479C188,-145.0179 188,-181 188,-181 188,-181 1300.1744,-181 1300.1744,-181"/>
<polygon fill="#000000" stroke="#000000" points="1300.1745,-184.5001 1310.1744,-181 1300.1744,-177.5001 1300.1745,-184.5001"/>
</g>
<!-- StoresModule -->
<g id="node21" class="node">
<title>StoresModule</title>
<polygon fill="#8dd3c7" stroke="#000000" points="118.0439,-122 115.0439,-126 94.0439,-126 91.0439,-122 23.9561,-122 23.9561,-86 118.0439,-86 118.0439,-122"/>
<text text-anchor="middle" x="71" y="-99.8" font-family="Times,serif" font-size="14.00" fill="#000000">StoresModule</text>
</g>
<!-- StoresModule&#45;&gt;SecureModule -->
<g id="edge21" class="edge">
<title>StoresModule&#45;&gt;SecureModule</title>
<path fill="none" stroke="#000000" d="M71,-122.1532C71,-145.7566 71,-184 71,-184 71,-184 1300.0817,-184 1300.0817,-184"/>
<polygon fill="#000000" stroke="#000000" points="1300.0817,-187.5001 1310.0817,-184 1300.0816,-180.5001 1300.0817,-187.5001"/>
</g>
</g>
</svg>
