<?xml version="1.0" encoding="UTF-8" standalone="no"?>
<!DOCTYPE svg PUBLIC "-//W3C//DTD SVG 1.1//EN"
 "http://www.w3.org/Graphics/SVG/1.1/DTD/svg11.dtd">
<!-- Generated by graphviz version 2.40.1 (20161225.0304)
 -->
<!-- Title: dependencies Pages: 1 -->
<svg width="2833pt" height="211pt"
 viewBox="0.00 0.00 2833.00 211.00" xmlns="http://www.w3.org/2000/svg" xmlns:xlink="http://www.w3.org/1999/xlink">
<g id="graph0" class="graph" transform="scale(1 1) rotate(0) translate(4 207)">
<title>dependencies</title>
<polygon fill="#ffffff" stroke="transparent" points="-4,4 -4,-207 2829,-207 2829,4 -4,4"/>
<text text-anchor="start" x="1391.5091" y="-42.4" font-family="sans-serif" font-weight="bold" font-size="14.00" fill="#000000">Legend</text>
<polygon fill="#ffffb3" stroke="transparent" points="1178.5,-10 1178.5,-30 1198.5,-30 1198.5,-10 1178.5,-10"/>
<text text-anchor="start" x="1202.129" y="-15.4" font-family="sans-serif" font-size="14.00" fill="#000000"> &#160;Declarations</text>
<polygon fill="#8dd3c7" stroke="transparent" points="1291.5,-10 1291.5,-30 1311.5,-30 1311.5,-10 1291.5,-10"/>
<text text-anchor="start" x="1315.2251" y="-15.4" font-family="sans-serif" font-size="14.00" fill="#000000"> &#160;Module</text>
<polygon fill="#80b1d3" stroke="transparent" points="1377.5,-10 1377.5,-30 1397.5,-30 1397.5,-10 1377.5,-10"/>
<text text-anchor="start" x="1401.2812" y="-15.4" font-family="sans-serif" font-size="14.00" fill="#000000"> &#160;Bootstrap</text>
<polygon fill="#fdb462" stroke="transparent" points="1474.5,-10 1474.5,-30 1494.5,-30 1494.5,-10 1474.5,-10"/>
<text text-anchor="start" x="1498.1732" y="-15.4" font-family="sans-serif" font-size="14.00" fill="#000000"> &#160;Providers</text>
<polygon fill="#fb8072" stroke="transparent" points="1570.5,-10 1570.5,-30 1590.5,-30 1590.5,-10 1570.5,-10"/>
<text text-anchor="start" x="1594.2258" y="-15.4" font-family="sans-serif" font-size="14.00" fill="#000000"> &#160;Exports</text>
<g id="clust1" class="cluster">
<title>cluster_SecureModule</title>
<polygon fill="none" stroke="#000000" stroke-dasharray="1,5" points="8,-70 8,-195 2817,-195 2817,-70 8,-70"/>
</g>
<g id="clust3" class="cluster">
<title>cluster_SecureModule_imports</title>
<polygon fill="none" stroke="#000000" points="16,-78 16,-130 2809,-130 2809,-78 16,-78"/>
</g>
<!-- AwsCognitoModule -->
<g id="node1" class="node">
<title>AwsCognitoModule</title>
<polygon fill="#8dd3c7" stroke="#000000" points="2801.3258,-122 2798.3258,-126 2777.3258,-126 2774.3258,-122 2670.6742,-122 2670.6742,-86 2801.3258,-86 2801.3258,-122"/>
<text text-anchor="middle" x="2736" y="-99.8" font-family="Times,serif" font-size="14.00" fill="#000000">AwsCognitoModule</text>
</g>
<!-- SecureModule -->
<g id="node22" class="node">
<title>SecureModule</title>
<polygon fill="#8dd3c7" stroke="#000000" points="1434.6375,-187 1431.6375,-191 1410.6375,-191 1407.6375,-187 1337.3625,-187 1337.3625,-151 1434.6375,-151 1434.6375,-187"/>
<text text-anchor="middle" x="1386" y="-164.8" font-family="Times,serif" font-size="14.00" fill="#000000">SecureModule</text>
</g>
<!-- AwsCognitoModule&#45;&gt;SecureModule -->
<g id="edge1" class="edge">
<title>AwsCognitoModule&#45;&gt;SecureModule</title>
<path fill="none" stroke="#000000" d="M2736,-122.1532C2736,-145.7566 2736,-184 2736,-184 2736,-184 1444.8448,-184 1444.8448,-184"/>
<polygon fill="#000000" stroke="#000000" points="1444.8448,-180.5001 1434.8448,-184 1444.8447,-187.5001 1444.8448,-180.5001"/>
</g>
<!-- BillingModule -->
<g id="node2" class="node">
<title>BillingModule</title>
<polygon fill="#8dd3c7" stroke="#000000" points="2653.4498,-122 2650.4498,-126 2629.4498,-126 2626.4498,-122 2554.5502,-122 2554.5502,-86 2653.4498,-86 2653.4498,-122"/>
<text text-anchor="middle" x="2604" y="-99.8" font-family="Times,serif" font-size="14.00" fill="#000000">BillingModule</text>
</g>
<!-- BillingModule&#45;&gt;SecureModule -->
<g id="edge2" class="edge">
<title>BillingModule&#45;&gt;SecureModule</title>
<path fill="none" stroke="#000000" d="M2604,-122.2479C2604,-145.0179 2604,-181 2604,-181 2604,-181 1444.8765,-181 1444.8765,-181"/>
<polygon fill="#000000" stroke="#000000" points="1444.8765,-177.5001 1434.8765,-181 1444.8764,-184.5001 1444.8765,-177.5001"/>
</g>
<!-- BulkLoadModule -->
<g id="node3" class="node">
<title>BulkLoadModule</title>
<polygon fill="#8dd3c7" stroke="#000000" points="2536.5451,-122 2533.5451,-126 2512.5451,-126 2509.5451,-122 2421.4549,-122 2421.4549,-86 2536.5451,-86 2536.5451,-122"/>
<text text-anchor="middle" x="2479" y="-99.8" font-family="Times,serif" font-size="14.00" fill="#000000">BulkLoadModule</text>
</g>
<!-- BulkLoadModule&#45;&gt;SecureModule -->
<g id="edge3" class="edge">
<title>BulkLoadModule&#45;&gt;SecureModule</title>
<path fill="none" stroke="#000000" d="M2479,-122.2921C2479,-144.2057 2479,-178 2479,-178 2479,-178 1444.7306,-178 1444.7306,-178"/>
<polygon fill="#000000" stroke="#000000" points="1444.7307,-174.5001 1434.7306,-178 1444.7306,-181.5001 1444.7307,-174.5001"/>
</g>
<!-- BulkLoadProductModule -->
<g id="node4" class="node">
<title>BulkLoadProductModule</title>
<polygon fill="#8dd3c7" stroke="#000000" points="2403.5926,-122 2400.5926,-126 2379.5926,-126 2376.5926,-122 2244.4074,-122 2244.4074,-86 2403.5926,-86 2403.5926,-122"/>
<text text-anchor="middle" x="2324" y="-99.8" font-family="Times,serif" font-size="14.00" fill="#000000">BulkLoadProductModule</text>
</g>
<!-- BulkLoadProductModule&#45;&gt;SecureModule -->
<g id="edge4" class="edge">
<title>BulkLoadProductModule&#45;&gt;SecureModule</title>
<path fill="none" stroke="#000000" d="M2324,-122.0267C2324,-142.7672 2324,-174 2324,-174 2324,-174 1444.7825,-174 1444.7825,-174"/>
<polygon fill="#000000" stroke="#000000" points="1444.7826,-170.5001 1434.7825,-174 1444.7825,-177.5001 1444.7826,-170.5001"/>
</g>
<!-- DetailModule -->
<g id="node5" class="node">
<title>DetailModule</title>
<polygon fill="#8dd3c7" stroke="#000000" points="2226.7577,-122 2223.7577,-126 2202.7577,-126 2199.7577,-122 2133.2423,-122 2133.2423,-86 2226.7577,-86 2226.7577,-122"/>
<text text-anchor="middle" x="2180" y="-99.8" font-family="Times,serif" font-size="14.00" fill="#000000">DetailModule</text>
</g>
<!-- DetailModule&#45;&gt;SecureModule -->
<g id="edge5" class="edge">
<title>DetailModule&#45;&gt;SecureModule</title>
<path fill="none" stroke="#000000" d="M2180,-122.308C2180,-142.1455 2180,-171 2180,-171 2180,-171 1444.7706,-171 1444.7706,-171"/>
<polygon fill="#000000" stroke="#000000" points="1444.7707,-167.5001 1434.7706,-171 1444.7706,-174.5001 1444.7707,-167.5001"/>
</g>
<!-- DispatchModule -->
<g id="node6" class="node">
<title>DispatchModule</title>
<polygon fill="#8dd3c7" stroke="#000000" points="2114.8118,-122 2111.8118,-126 2090.8118,-126 2087.8118,-122 2005.1882,-122 2005.1882,-86 2114.8118,-86 2114.8118,-122"/>
<text text-anchor="middle" x="2060" y="-99.8" font-family="Times,serif" font-size="14.00" fill="#000000">DispatchModule</text>
</g>
<!-- DispatchModule&#45;&gt;SecureModule -->
<g id="edge6" class="edge">
<title>DispatchModule&#45;&gt;SecureModule</title>
<path fill="none" stroke="#000000" d="M2060,-122.1686C2060,-141.0898 2060,-168 2060,-168 2060,-168 1444.7436,-168 1444.7436,-168"/>
<polygon fill="#000000" stroke="#000000" points="1444.7436,-164.5001 1434.7436,-168 1444.7435,-171.5001 1444.7436,-164.5001"/>
</g>
<!-- ErrorModule -->
<g id="node7" class="node">
<title>ErrorModule</title>
<polygon fill="#8dd3c7" stroke="#000000" points="1987.5842,-122 1984.5842,-126 1963.5842,-126 1960.5842,-122 1898.4158,-122 1898.4158,-86 1987.5842,-86 1987.5842,-122"/>
<text text-anchor="middle" x="1943" y="-99.8" font-family="Times,serif" font-size="14.00" fill="#000000">ErrorModule</text>
</g>
<!-- ErrorModule&#45;&gt;SecureModule -->
<g id="edge7" class="edge">
<title>ErrorModule&#45;&gt;SecureModule</title>
<path fill="none" stroke="#000000" d="M1943,-122.302C1943,-140.2699 1943,-165 1943,-165 1943,-165 1444.9419,-165 1444.9419,-165"/>
<polygon fill="#000000" stroke="#000000" points="1444.9419,-161.5001 1434.9419,-165 1444.9418,-168.5001 1444.9419,-161.5001"/>
</g>
<!-- HistoricModule -->
<g id="node8" class="node">
<title>HistoricModule</title>
<polygon fill="#8dd3c7" stroke="#000000" points="1880.1486,-122 1877.1486,-126 1856.1486,-126 1853.1486,-122 1775.8514,-122 1775.8514,-86 1880.1486,-86 1880.1486,-122"/>
<text text-anchor="middle" x="1828" y="-99.8" font-family="Times,serif" font-size="14.00" fill="#000000">HistoricModule</text>
</g>
<!-- HistoricModule&#45;&gt;SecureModule -->
<g id="edge8" class="edge">
<title>HistoricModule&#45;&gt;SecureModule</title>
<path fill="none" stroke="#000000" d="M1828,-122.0352C1828,-138.7344 1828,-161 1828,-161 1828,-161 1444.9905,-161 1444.9905,-161"/>
<polygon fill="#000000" stroke="#000000" points="1444.9906,-157.5001 1434.9905,-161 1444.9905,-164.5001 1444.9906,-157.5001"/>
</g>
<!-- HistoricalModule -->
<g id="node9" class="node">
<title>HistoricalModule</title>
<polygon fill="#8dd3c7" stroke="#000000" points="1757.2535,-122 1754.2535,-126 1733.2535,-126 1730.2535,-122 1642.7465,-122 1642.7465,-86 1757.2535,-86 1757.2535,-122"/>
<text text-anchor="middle" x="1700" y="-99.8" font-family="Times,serif" font-size="14.00" fill="#000000">HistoricalModule</text>
</g>
<!-- HistoricalModule&#45;&gt;SecureModule -->
<g id="edge9" class="edge">
<title>HistoricalModule&#45;&gt;SecureModule</title>
<path fill="none" stroke="#000000" d="M1700,-122.2819C1700,-137.9478 1700,-158 1700,-158 1700,-158 1444.718,-158 1444.718,-158"/>
<polygon fill="#000000" stroke="#000000" points="1444.718,-154.5001 1434.718,-158 1444.7179,-161.5001 1444.718,-154.5001"/>
</g>
<!-- HistoricalModuleAdmin -->
<g id="node10" class="node">
<title>HistoricalModuleAdmin</title>
<polygon fill="#8dd3c7" stroke="#000000" points="1624.6414,-122 1621.6414,-126 1600.6414,-126 1597.6414,-122 1471.3586,-122 1471.3586,-86 1624.6414,-86 1624.6414,-122"/>
<text text-anchor="middle" x="1548" y="-99.8" font-family="Times,serif" font-size="14.00" fill="#000000">HistoricalModuleAdmin</text>
</g>
<!-- HistoricalModuleAdmin&#45;&gt;SecureModule -->
<g id="edge10" class="edge">
<title>HistoricalModuleAdmin&#45;&gt;SecureModule</title>
<path fill="none" stroke="#000000" d="M1548,-122.1243C1548,-136.7832 1548,-155 1548,-155 1548,-155 1445.045,-155 1445.045,-155"/>
<polygon fill="#000000" stroke="#000000" points="1445.045,-151.5001 1435.045,-155 1445.0449,-158.5001 1445.045,-151.5001"/>
</g>
<!-- InDevolutionModule -->
<g id="node11" class="node">
<title>InDevolutionModule</title>
<polygon fill="#8dd3c7" stroke="#000000" points="1453.2036,-122 1450.2036,-126 1429.2036,-126 1426.2036,-122 1318.7964,-122 1318.7964,-86 1453.2036,-86 1453.2036,-122"/>
<text text-anchor="middle" x="1386" y="-99.8" font-family="Times,serif" font-size="14.00" fill="#000000">InDevolutionModule</text>
</g>
<!-- InDevolutionModule&#45;&gt;SecureModule -->
<g id="edge11" class="edge">
<title>InDevolutionModule&#45;&gt;SecureModule</title>
<path fill="none" stroke="#000000" d="M1386,-122.1061C1386,-122.1061 1386,-140.991 1386,-140.991"/>
<polygon fill="#000000" stroke="#000000" points="1382.5001,-140.9909 1386,-150.991 1389.5001,-140.991 1382.5001,-140.9909"/>
</g>
<!-- InValidationModule -->
<g id="node12" class="node">
<title>InValidationModule</title>
<polygon fill="#8dd3c7" stroke="#000000" points="1301.309,-122 1298.309,-126 1277.309,-126 1274.309,-122 1170.691,-122 1170.691,-86 1301.309,-86 1301.309,-122"/>
<text text-anchor="middle" x="1236" y="-99.8" font-family="Times,serif" font-size="14.00" fill="#000000">InValidationModule</text>
</g>
<!-- InValidationModule&#45;&gt;SecureModule -->
<g id="edge12" class="edge">
<title>InValidationModule&#45;&gt;SecureModule</title>
<path fill="none" stroke="#000000" d="M1236,-122.1243C1236,-136.7832 1236,-155 1236,-155 1236,-155 1327.2993,-155 1327.2993,-155"/>
<polygon fill="#000000" stroke="#000000" points="1327.2993,-158.5001 1337.2993,-155 1327.2993,-151.5001 1327.2993,-158.5001"/>
</g>
<!-- ListModule -->
<g id="node13" class="node">
<title>ListModule</title>
<polygon fill="#8dd3c7" stroke="#000000" points="1152.8289,-122 1149.8289,-126 1128.8289,-126 1125.8289,-122 1071.1711,-122 1071.1711,-86 1152.8289,-86 1152.8289,-122"/>
<text text-anchor="middle" x="1112" y="-99.8" font-family="Times,serif" font-size="14.00" fill="#000000">ListModule</text>
</g>
<!-- ListModule&#45;&gt;SecureModule -->
<g id="edge13" class="edge">
<title>ListModule&#45;&gt;SecureModule</title>
<path fill="none" stroke="#000000" d="M1112,-122.2819C1112,-137.9478 1112,-158 1112,-158 1112,-158 1327.33,-158 1327.33,-158"/>
<polygon fill="#000000" stroke="#000000" points="1327.3301,-161.5001 1337.33,-158 1327.33,-154.5001 1327.3301,-161.5001"/>
</g>
<!-- LoadGuideModule -->
<g id="node14" class="node">
<title>LoadGuideModule</title>
<polygon fill="#8dd3c7" stroke="#000000" points="1053.0297,-122 1050.0297,-126 1029.0297,-126 1026.0297,-122 930.9703,-122 930.9703,-86 1053.0297,-86 1053.0297,-122"/>
<text text-anchor="middle" x="992" y="-99.8" font-family="Times,serif" font-size="14.00" fill="#000000">LoadGuideModule</text>
</g>
<!-- LoadGuideModule&#45;&gt;SecureModule -->
<g id="edge14" class="edge">
<title>LoadGuideModule&#45;&gt;SecureModule</title>
<path fill="none" stroke="#000000" d="M992,-122.0352C992,-138.7344 992,-161 992,-161 992,-161 1327.2927,-161 1327.2927,-161"/>
<polygon fill="#000000" stroke="#000000" points="1327.2927,-164.5001 1337.2927,-161 1327.2927,-157.5001 1327.2927,-164.5001"/>
</g>
<!-- ManageModule -->
<g id="node15" class="node">
<title>ManageModule</title>
<polygon fill="#8dd3c7" stroke="#000000" points="912.1388,-122 909.1388,-126 888.1388,-126 885.1388,-122 807.8612,-122 807.8612,-86 912.1388,-86 912.1388,-122"/>
<text text-anchor="middle" x="860" y="-99.8" font-family="Times,serif" font-size="14.00" fill="#000000">ManageModule</text>
</g>
<!-- ManageModule&#45;&gt;SecureModule -->
<g id="edge15" class="edge">
<title>ManageModule&#45;&gt;SecureModule</title>
<path fill="none" stroke="#000000" d="M860,-122.302C860,-140.2699 860,-165 860,-165 860,-165 1326.9875,-165 1326.9875,-165"/>
<polygon fill="#000000" stroke="#000000" points="1326.9876,-168.5001 1336.9875,-165 1326.9875,-161.5001 1326.9876,-168.5001"/>
</g>
<!-- OrdersModule -->
<g id="node16" class="node">
<title>OrdersModule</title>
<polygon fill="#8dd3c7" stroke="#000000" points="789.6375,-122 786.6375,-126 765.6375,-126 762.6375,-122 692.3625,-122 692.3625,-86 789.6375,-86 789.6375,-122"/>
<text text-anchor="middle" x="741" y="-99.8" font-family="Times,serif" font-size="14.00" fill="#000000">OrdersModule</text>
</g>
<!-- OrdersModule&#45;&gt;SecureModule -->
<g id="edge16" class="edge">
<title>OrdersModule&#45;&gt;SecureModule</title>
<path fill="none" stroke="#000000" d="M741,-122.1686C741,-141.0898 741,-168 741,-168 741,-168 1327.2558,-168 1327.2558,-168"/>
<polygon fill="#000000" stroke="#000000" points="1327.2558,-171.5001 1337.2558,-168 1327.2557,-164.5001 1327.2558,-171.5001"/>
</g>
<!-- PendingDevolutionModule -->
<g id="node17" class="node">
<title>PendingDevolutionModule</title>
<polygon fill="#8dd3c7" stroke="#000000" points="674.4312,-122 671.4312,-126 650.4312,-126 647.4312,-122 505.5688,-122 505.5688,-86 674.4312,-86 674.4312,-122"/>
<text text-anchor="middle" x="590" y="-99.8" font-family="Times,serif" font-size="14.00" fill="#000000">PendingDevolutionModule</text>
</g>
<!-- PendingDevolutionModule&#45;&gt;SecureModule -->
<g id="edge17" class="edge">
<title>PendingDevolutionModule&#45;&gt;SecureModule</title>
<path fill="none" stroke="#000000" d="M590,-122.308C590,-142.1455 590,-171 590,-171 590,-171 1327.1065,-171 1327.1065,-171"/>
<polygon fill="#000000" stroke="#000000" points="1327.1065,-174.5001 1337.1065,-171 1327.1065,-167.5001 1327.1065,-174.5001"/>
</g>
<!-- PendingModule -->
<g id="node18" class="node">
<title>PendingModule</title>
<polygon fill="#8dd3c7" stroke="#000000" points="487.9385,-122 484.9385,-126 463.9385,-126 460.9385,-122 382.0615,-122 382.0615,-86 487.9385,-86 487.9385,-122"/>
<text text-anchor="middle" x="435" y="-99.8" font-family="Times,serif" font-size="14.00" fill="#000000">PendingModule</text>
</g>
<!-- PendingModule&#45;&gt;SecureModule -->
<g id="edge18" class="edge">
<title>PendingModule&#45;&gt;SecureModule</title>
<path fill="none" stroke="#000000" d="M435,-122.0267C435,-142.7672 435,-174 435,-174 435,-174 1327.203,-174 1327.203,-174"/>
<polygon fill="#000000" stroke="#000000" points="1327.203,-177.5001 1337.203,-174 1327.203,-170.5001 1327.203,-177.5001"/>
</g>
<!-- RegisterModule -->
<g id="node19" class="node">
<title>RegisterModule</title>
<polygon fill="#8dd3c7" stroke="#000000" points="364.2022,-122 361.2022,-126 340.2022,-126 337.2022,-122 257.7978,-122 257.7978,-86 364.2022,-86 364.2022,-122"/>
<text text-anchor="middle" x="311" y="-99.8" font-family="Times,serif" font-size="14.00" fill="#000000">RegisterModule</text>
</g>
<!-- RegisterModule&#45;&gt;SecureModule -->
<g id="edge19" class="edge">
<title>RegisterModule&#45;&gt;SecureModule</title>
<path fill="none" stroke="#000000" d="M311,-122.2921C311,-144.2057 311,-178 311,-178 311,-178 1327.0161,-178 1327.0161,-178"/>
<polygon fill="#000000" stroke="#000000" points="1327.0161,-181.5001 1337.0161,-178 1327.016,-174.5001 1327.0161,-181.5001"/>
</g>
<!-- ReportsModule -->
<g id="node20" class="node">
<title>ReportsModule</title>
<polygon fill="#8dd3c7" stroke="#000000" points="239.5968,-122 236.5968,-126 215.5968,-126 212.5968,-122 136.4032,-122 136.4032,-86 239.5968,-86 239.5968,-122"/>
<text text-anchor="middle" x="188" y="-99.8" font-family="Times,serif" font-size="14.00" fill="#000000">ReportsModule</text>
</g>
<!-- ReportsModule&#45;&gt;SecureModule -->
<g id="edge20" class="edge">
<title>ReportsModule&#45;&gt;SecureModule</title>
<path fill="none" stroke="#000000" d="M188,-122.2479C188,-145.0179 188,-181 188,-181 188,-181 1327.179,-181 1327.179,-181"/>
<polygon fill="#000000" stroke="#000000" points="1327.1791,-184.5001 1337.179,-181 1327.179,-177.5001 1327.1791,-184.5001"/>
</g>
<!-- StoresModule -->
<g id="node21" class="node">
<title>StoresModule</title>
<polygon fill="#8dd3c7" stroke="#000000" points="118.0439,-122 115.0439,-126 94.0439,-126 91.0439,-122 23.9561,-122 23.9561,-86 118.0439,-86 118.0439,-122"/>
<text text-anchor="middle" x="71" y="-99.8" font-family="Times,serif" font-size="14.00" fill="#000000">StoresModule</text>
</g>
<!-- StoresModule&#45;&gt;SecureModule -->
<g id="edge21" class="edge">
<title>StoresModule&#45;&gt;SecureModule</title>
<path fill="none" stroke="#000000" d="M71,-122.1532C71,-145.7566 71,-184 71,-184 71,-184 1327.2454,-184 1327.2454,-184"/>
<polygon fill="#000000" stroke="#000000" points="1327.2454,-187.5001 1337.2454,-184 1327.2454,-180.5001 1327.2454,-187.5001"/>
</g>
</g>
</svg>
