<?xml version="1.0" encoding="UTF-8" standalone="no"?>
<!DOCTYPE svg PUBLIC "-//W3C//DTD SVG 1.1//EN"
 "http://www.w3.org/Graphics/SVG/1.1/DTD/svg11.dtd">
<!-- Generated by graphviz version 2.40.1 (20161225.0304)
 -->
<!-- Title: dependencies Pages: 1 -->
<svg width="2405pt" height="211pt"
 viewBox="0.00 0.00 2405.00 211.00" xmlns="http://www.w3.org/2000/svg" xmlns:xlink="http://www.w3.org/1999/xlink">
<g id="graph0" class="graph" transform="scale(1 1) rotate(0) translate(4 207)">
<title>dependencies</title>
<polygon fill="#ffffff" stroke="transparent" points="-4,4 -4,-207 2401,-207 2401,4 -4,4"/>
<text text-anchor="start" x="1177.5091" y="-42.4" font-family="sans-serif" font-weight="bold" font-size="14.00" fill="#000000">Legend</text>
<polygon fill="#ffffb3" stroke="transparent" points="964.5,-10 964.5,-30 984.5,-30 984.5,-10 964.5,-10"/>
<text text-anchor="start" x="988.129" y="-15.4" font-family="sans-serif" font-size="14.00" fill="#000000"> &#160;Declarations</text>
<polygon fill="#8dd3c7" stroke="transparent" points="1077.5,-10 1077.5,-30 1097.5,-30 1097.5,-10 1077.5,-10"/>
<text text-anchor="start" x="1101.2251" y="-15.4" font-family="sans-serif" font-size="14.00" fill="#000000"> &#160;Module</text>
<polygon fill="#80b1d3" stroke="transparent" points="1163.5,-10 1163.5,-30 1183.5,-30 1183.5,-10 1163.5,-10"/>
<text text-anchor="start" x="1187.2812" y="-15.4" font-family="sans-serif" font-size="14.00" fill="#000000"> &#160;Bootstrap</text>
<polygon fill="#fdb462" stroke="transparent" points="1260.5,-10 1260.5,-30 1280.5,-30 1280.5,-10 1260.5,-10"/>
<text text-anchor="start" x="1284.1732" y="-15.4" font-family="sans-serif" font-size="14.00" fill="#000000"> &#160;Providers</text>
<polygon fill="#fb8072" stroke="transparent" points="1356.5,-10 1356.5,-30 1376.5,-30 1376.5,-10 1356.5,-10"/>
<text text-anchor="start" x="1380.2258" y="-15.4" font-family="sans-serif" font-size="14.00" fill="#000000"> &#160;Exports</text>
<g id="clust1" class="cluster">
<title>cluster_SecureModule</title>
<polygon fill="none" stroke="#000000" stroke-dasharray="1,5" points="8,-70 8,-195 2389,-195 2389,-70 8,-70"/>
</g>
<g id="clust3" class="cluster">
<title>cluster_SecureModule_imports</title>
<polygon fill="none" stroke="#000000" points="16,-78 16,-130 2381,-130 2381,-78 16,-78"/>
</g>
<!-- AwsCognitoModule -->
<g id="node1" class="node">
<title>AwsCognitoModule</title>
<polygon fill="#8dd3c7" stroke="#000000" points="2373.3258,-122 2370.3258,-126 2349.3258,-126 2346.3258,-122 2242.6742,-122 2242.6742,-86 2373.3258,-86 2373.3258,-122"/>
<text text-anchor="middle" x="2308" y="-99.8" font-family="Times,serif" font-size="14.00" fill="#000000">AwsCognitoModule</text>
</g>
<!-- SecureModule -->
<g id="node19" class="node">
<title>SecureModule</title>
<polygon fill="#8dd3c7" stroke="#000000" points="1236.6375,-187 1233.6375,-191 1212.6375,-191 1209.6375,-187 1139.3625,-187 1139.3625,-151 1236.6375,-151 1236.6375,-187"/>
<text text-anchor="middle" x="1188" y="-164.8" font-family="Times,serif" font-size="14.00" fill="#000000">SecureModule</text>
</g>
<!-- AwsCognitoModule&#45;&gt;SecureModule -->
<g id="edge1" class="edge">
<title>AwsCognitoModule&#45;&gt;SecureModule</title>
<path fill="none" stroke="#000000" d="M2308,-122.3228C2308,-145.6602 2308,-183 2308,-183 2308,-183 1246.8452,-183 1246.8452,-183"/>
<polygon fill="#000000" stroke="#000000" points="1246.8452,-179.5001 1236.8452,-183 1246.8451,-186.5001 1246.8452,-179.5001"/>
</g>
<!-- BillingModule -->
<g id="node2" class="node">
<title>BillingModule</title>
<polygon fill="#8dd3c7" stroke="#000000" points="2225.4498,-122 2222.4498,-126 2201.4498,-126 2198.4498,-122 2126.5502,-122 2126.5502,-86 2225.4498,-86 2225.4498,-122"/>
<text text-anchor="middle" x="2176" y="-99.8" font-family="Times,serif" font-size="14.00" fill="#000000">BillingModule</text>
</g>
<!-- BillingModule&#45;&gt;SecureModule -->
<g id="edge2" class="edge">
<title>BillingModule&#45;&gt;SecureModule</title>
<path fill="none" stroke="#000000" d="M2176,-122.1554C2176,-144.3519 2176,-179 2176,-179 2176,-179 1246.6581,-179 1246.6581,-179"/>
<polygon fill="#000000" stroke="#000000" points="1246.6581,-175.5001 1236.6581,-179 1246.658,-182.5001 1246.6581,-175.5001"/>
</g>
<!-- BulkLoadModule -->
<g id="node3" class="node">
<title>BulkLoadModule</title>
<polygon fill="#8dd3c7" stroke="#000000" points="2108.5451,-122 2105.5451,-126 2084.5451,-126 2081.5451,-122 1993.4549,-122 1993.4549,-86 2108.5451,-86 2108.5451,-122"/>
<text text-anchor="middle" x="2051" y="-99.8" font-family="Times,serif" font-size="14.00" fill="#000000">BulkLoadModule</text>
</g>
<!-- BulkLoadModule&#45;&gt;SecureModule -->
<g id="edge3" class="edge">
<title>BulkLoadModule&#45;&gt;SecureModule</title>
<path fill="none" stroke="#000000" d="M2051,-122.2843C2051,-143.3211 2051,-175 2051,-175 2051,-175 1246.8713,-175 1246.8713,-175"/>
<polygon fill="#000000" stroke="#000000" points="1246.8713,-171.5001 1236.8713,-175 1246.8713,-178.5001 1246.8713,-171.5001"/>
</g>
<!-- BulkLoadProductModule -->
<g id="node4" class="node">
<title>BulkLoadProductModule</title>
<polygon fill="#8dd3c7" stroke="#000000" points="1975.5926,-122 1972.5926,-126 1951.5926,-126 1948.5926,-122 1816.4074,-122 1816.4074,-86 1975.5926,-86 1975.5926,-122"/>
<text text-anchor="middle" x="1896" y="-99.8" font-family="Times,serif" font-size="14.00" fill="#000000">BulkLoadProductModule</text>
</g>
<!-- BulkLoadProductModule&#45;&gt;SecureModule -->
<g id="edge4" class="edge">
<title>BulkLoadProductModule&#45;&gt;SecureModule</title>
<path fill="none" stroke="#000000" d="M1896,-122.308C1896,-142.1455 1896,-171 1896,-171 1896,-171 1246.6637,-171 1246.6637,-171"/>
<polygon fill="#000000" stroke="#000000" points="1246.6637,-167.5001 1236.6637,-171 1246.6637,-174.5001 1246.6637,-167.5001"/>
</g>
<!-- DetailModule -->
<g id="node5" class="node">
<title>DetailModule</title>
<polygon fill="#8dd3c7" stroke="#000000" points="1798.7577,-122 1795.7577,-126 1774.7577,-126 1771.7577,-122 1705.2423,-122 1705.2423,-86 1798.7577,-86 1798.7577,-122"/>
<text text-anchor="middle" x="1752" y="-99.8" font-family="Times,serif" font-size="14.00" fill="#000000">DetailModule</text>
</g>
<!-- DetailModule&#45;&gt;SecureModule -->
<g id="edge5" class="edge">
<title>DetailModule&#45;&gt;SecureModule</title>
<path fill="none" stroke="#000000" d="M1752,-122.2222C1752,-140.8285 1752,-167 1752,-167 1752,-167 1247.0647,-167 1247.0647,-167"/>
<polygon fill="#000000" stroke="#000000" points="1247.0647,-163.5001 1237.0647,-167 1247.0646,-170.5001 1247.0647,-163.5001"/>
</g>
<!-- DispatchModule -->
<g id="node6" class="node">
<title>DispatchModule</title>
<polygon fill="#8dd3c7" stroke="#000000" points="1686.8118,-122 1683.8118,-126 1662.8118,-126 1659.8118,-122 1577.1882,-122 1577.1882,-86 1686.8118,-86 1686.8118,-122"/>
<text text-anchor="middle" x="1632" y="-99.8" font-family="Times,serif" font-size="14.00" fill="#000000">DispatchModule</text>
</g>
<!-- DispatchModule&#45;&gt;SecureModule -->
<g id="edge6" class="edge">
<title>DispatchModule&#45;&gt;SecureModule</title>
<path fill="none" stroke="#000000" d="M1632,-122.0225C1632,-139.3734 1632,-163 1632,-163 1632,-163 1246.7859,-163 1246.7859,-163"/>
<polygon fill="#000000" stroke="#000000" points="1246.7859,-159.5001 1236.7859,-163 1246.7858,-166.5001 1246.7859,-159.5001"/>
</g>
<!-- ErrorModule -->
<g id="node7" class="node">
<title>ErrorModule</title>
<polygon fill="#8dd3c7" stroke="#000000" points="1559.5842,-122 1556.5842,-126 1535.5842,-126 1532.5842,-122 1470.4158,-122 1470.4158,-86 1559.5842,-86 1559.5842,-122"/>
<text text-anchor="middle" x="1515" y="-99.8" font-family="Times,serif" font-size="14.00" fill="#000000">ErrorModule</text>
</g>
<!-- ErrorModule&#45;&gt;SecureModule -->
<g id="edge7" class="edge">
<title>ErrorModule&#45;&gt;SecureModule</title>
<path fill="none" stroke="#000000" d="M1515,-122.0091C1515,-138.0494 1515,-159 1515,-159 1515,-159 1246.9552,-159 1246.9552,-159"/>
<polygon fill="#000000" stroke="#000000" points="1246.9552,-155.5001 1236.9552,-159 1246.9552,-162.5001 1246.9552,-155.5001"/>
</g>
<!-- HistoricModule -->
<g id="node8" class="node">
<title>HistoricModule</title>
<polygon fill="#8dd3c7" stroke="#000000" points="1452.1486,-122 1449.1486,-126 1428.1486,-126 1425.1486,-122 1347.8514,-122 1347.8514,-86 1452.1486,-86 1452.1486,-122"/>
<text text-anchor="middle" x="1400" y="-99.8" font-family="Times,serif" font-size="14.00" fill="#000000">HistoricModule</text>
</g>
<!-- HistoricModule&#45;&gt;SecureModule -->
<g id="edge8" class="edge">
<title>HistoricModule&#45;&gt;SecureModule</title>
<path fill="none" stroke="#000000" d="M1400,-122.1243C1400,-136.7832 1400,-155 1400,-155 1400,-155 1246.9033,-155 1246.9033,-155"/>
<polygon fill="#000000" stroke="#000000" points="1246.9033,-151.5001 1236.9033,-155 1246.9032,-158.5001 1246.9033,-151.5001"/>
</g>
<!-- InDevolutionModule -->
<g id="node9" class="node">
<title>InDevolutionModule</title>
<polygon fill="#8dd3c7" stroke="#000000" points="1330.2036,-122 1327.2036,-126 1306.2036,-126 1303.2036,-122 1195.7964,-122 1195.7964,-86 1330.2036,-86 1330.2036,-122"/>
<text text-anchor="middle" x="1263" y="-99.8" font-family="Times,serif" font-size="14.00" fill="#000000">InDevolutionModule</text>
</g>
<!-- InDevolutionModule&#45;&gt;SecureModule -->
<g id="edge9" class="edge">
<title>InDevolutionModule&#45;&gt;SecureModule</title>
<path fill="none" stroke="#000000" d="M1216.3584,-122.1061C1216.3584,-122.1061 1216.3584,-140.991 1216.3584,-140.991"/>
<polygon fill="#000000" stroke="#000000" points="1212.8584,-140.9909 1216.3584,-150.991 1219.8584,-140.991 1212.8584,-140.9909"/>
</g>
<!-- InValidationModule -->
<g id="node10" class="node">
<title>InValidationModule</title>
<polygon fill="#8dd3c7" stroke="#000000" points="1178.309,-122 1175.309,-126 1154.309,-126 1151.309,-122 1047.691,-122 1047.691,-86 1178.309,-86 1178.309,-122"/>
<text text-anchor="middle" x="1113" y="-99.8" font-family="Times,serif" font-size="14.00" fill="#000000">InValidationModule</text>
</g>
<!-- InValidationModule&#45;&gt;SecureModule -->
<g id="edge10" class="edge">
<title>InValidationModule&#45;&gt;SecureModule</title>
<path fill="none" stroke="#000000" d="M1158.668,-122.1061C1158.668,-122.1061 1158.668,-140.991 1158.668,-140.991"/>
<polygon fill="#000000" stroke="#000000" points="1155.168,-140.9909 1158.668,-150.991 1162.168,-140.991 1155.168,-140.9909"/>
</g>
<!-- ListModule -->
<g id="node11" class="node">
<title>ListModule</title>
<polygon fill="#8dd3c7" stroke="#000000" points="1029.8289,-122 1026.8289,-126 1005.8289,-126 1002.8289,-122 948.1711,-122 948.1711,-86 1029.8289,-86 1029.8289,-122"/>
<text text-anchor="middle" x="989" y="-99.8" font-family="Times,serif" font-size="14.00" fill="#000000">ListModule</text>
</g>
<!-- ListModule&#45;&gt;SecureModule -->
<g id="edge11" class="edge">
<title>ListModule&#45;&gt;SecureModule</title>
<path fill="none" stroke="#000000" d="M989,-122.1243C989,-136.7832 989,-155 989,-155 989,-155 1129.3191,-155 1129.3191,-155"/>
<polygon fill="#000000" stroke="#000000" points="1129.3192,-158.5001 1139.3191,-155 1129.3191,-151.5001 1129.3192,-158.5001"/>
</g>
<!-- LoadGuideModule -->
<g id="node12" class="node">
<title>LoadGuideModule</title>
<polygon fill="#8dd3c7" stroke="#000000" points="930.0297,-122 927.0297,-126 906.0297,-126 903.0297,-122 807.9703,-122 807.9703,-86 930.0297,-86 930.0297,-122"/>
<text text-anchor="middle" x="869" y="-99.8" font-family="Times,serif" font-size="14.00" fill="#000000">LoadGuideModule</text>
</g>
<!-- LoadGuideModule&#45;&gt;SecureModule -->
<g id="edge12" class="edge">
<title>LoadGuideModule&#45;&gt;SecureModule</title>
<path fill="none" stroke="#000000" d="M869,-122.0091C869,-138.0494 869,-159 869,-159 869,-159 1129.2035,-159 1129.2035,-159"/>
<polygon fill="#000000" stroke="#000000" points="1129.2036,-162.5001 1139.2035,-159 1129.2035,-155.5001 1129.2036,-162.5001"/>
</g>
<!-- OrdersModule -->
<g id="node13" class="node">
<title>OrdersModule</title>
<polygon fill="#8dd3c7" stroke="#000000" points="789.6375,-122 786.6375,-126 765.6375,-126 762.6375,-122 692.3625,-122 692.3625,-86 789.6375,-86 789.6375,-122"/>
<text text-anchor="middle" x="741" y="-99.8" font-family="Times,serif" font-size="14.00" fill="#000000">OrdersModule</text>
</g>
<!-- OrdersModule&#45;&gt;SecureModule -->
<g id="edge13" class="edge">
<title>OrdersModule&#45;&gt;SecureModule</title>
<path fill="none" stroke="#000000" d="M741,-122.0225C741,-139.3734 741,-163 741,-163 741,-163 1129.3122,-163 1129.3122,-163"/>
<polygon fill="#000000" stroke="#000000" points="1129.3123,-166.5001 1139.3122,-163 1129.3122,-159.5001 1129.3123,-166.5001"/>
</g>
<!-- PendingDevolutionModule -->
<g id="node14" class="node">
<title>PendingDevolutionModule</title>
<polygon fill="#8dd3c7" stroke="#000000" points="674.4312,-122 671.4312,-126 650.4312,-126 647.4312,-122 505.5688,-122 505.5688,-86 674.4312,-86 674.4312,-122"/>
<text text-anchor="middle" x="590" y="-99.8" font-family="Times,serif" font-size="14.00" fill="#000000">PendingDevolutionModule</text>
</g>
<!-- PendingDevolutionModule&#45;&gt;SecureModule -->
<g id="edge14" class="edge">
<title>PendingDevolutionModule&#45;&gt;SecureModule</title>
<path fill="none" stroke="#000000" d="M590,-122.2222C590,-140.8285 590,-167 590,-167 590,-167 1129.3167,-167 1129.3167,-167"/>
<polygon fill="#000000" stroke="#000000" points="1129.3167,-170.5001 1139.3167,-167 1129.3167,-163.5001 1129.3167,-170.5001"/>
</g>
<!-- PendingModule -->
<g id="node15" class="node">
<title>PendingModule</title>
<polygon fill="#8dd3c7" stroke="#000000" points="487.9385,-122 484.9385,-126 463.9385,-126 460.9385,-122 382.0615,-122 382.0615,-86 487.9385,-86 487.9385,-122"/>
<text text-anchor="middle" x="435" y="-99.8" font-family="Times,serif" font-size="14.00" fill="#000000">PendingModule</text>
</g>
<!-- PendingModule&#45;&gt;SecureModule -->
<g id="edge15" class="edge">
<title>PendingModule&#45;&gt;SecureModule</title>
<path fill="none" stroke="#000000" d="M435,-122.308C435,-142.1455 435,-171 435,-171 435,-171 1129.1738,-171 1129.1738,-171"/>
<polygon fill="#000000" stroke="#000000" points="1129.1738,-174.5001 1139.1738,-171 1129.1737,-167.5001 1129.1738,-174.5001"/>
</g>
<!-- RegisterModule -->
<g id="node16" class="node">
<title>RegisterModule</title>
<polygon fill="#8dd3c7" stroke="#000000" points="364.2022,-122 361.2022,-126 340.2022,-126 337.2022,-122 257.7978,-122 257.7978,-86 364.2022,-86 364.2022,-122"/>
<text text-anchor="middle" x="311" y="-99.8" font-family="Times,serif" font-size="14.00" fill="#000000">RegisterModule</text>
</g>
<!-- RegisterModule&#45;&gt;SecureModule -->
<g id="edge16" class="edge">
<title>RegisterModule&#45;&gt;SecureModule</title>
<path fill="none" stroke="#000000" d="M311,-122.2843C311,-143.3211 311,-175 311,-175 311,-175 1129.2849,-175 1129.2849,-175"/>
<polygon fill="#000000" stroke="#000000" points="1129.2849,-178.5001 1139.2849,-175 1129.2849,-171.5001 1129.2849,-178.5001"/>
</g>
<!-- ReportsModule -->
<g id="node17" class="node">
<title>ReportsModule</title>
<polygon fill="#8dd3c7" stroke="#000000" points="239.5968,-122 236.5968,-126 215.5968,-126 212.5968,-122 136.4032,-122 136.4032,-86 239.5968,-86 239.5968,-122"/>
<text text-anchor="middle" x="188" y="-99.8" font-family="Times,serif" font-size="14.00" fill="#000000">ReportsModule</text>
</g>
<!-- ReportsModule&#45;&gt;SecureModule -->
<g id="edge17" class="edge">
<title>ReportsModule&#45;&gt;SecureModule</title>
<path fill="none" stroke="#000000" d="M188,-122.1554C188,-144.3519 188,-179 188,-179 188,-179 1129.091,-179 1129.091,-179"/>
<polygon fill="#000000" stroke="#000000" points="1129.091,-182.5001 1139.091,-179 1129.0909,-175.5001 1129.091,-182.5001"/>
</g>
<!-- StoresModule -->
<g id="node18" class="node">
<title>StoresModule</title>
<polygon fill="#8dd3c7" stroke="#000000" points="118.0439,-122 115.0439,-126 94.0439,-126 91.0439,-122 23.9561,-122 23.9561,-86 118.0439,-86 118.0439,-122"/>
<text text-anchor="middle" x="71" y="-99.8" font-family="Times,serif" font-size="14.00" fill="#000000">StoresModule</text>
</g>
<!-- StoresModule&#45;&gt;SecureModule -->
<g id="edge18" class="edge">
<title>StoresModule&#45;&gt;SecureModule</title>
<path fill="none" stroke="#000000" d="M71,-122.3228C71,-145.6602 71,-183 71,-183 71,-183 1129.2857,-183 1129.2857,-183"/>
<polygon fill="#000000" stroke="#000000" points="1129.2857,-186.5001 1139.2857,-183 1129.2856,-179.5001 1129.2857,-186.5001"/>
</g>
</g>
</svg>
