<?xml version="1.0" encoding="UTF-8" standalone="no"?>
<!DOCTYPE svg PUBLIC "-//W3C//DTD SVG 1.1//EN"
 "http://www.w3.org/Graphics/SVG/1.1/DTD/svg11.dtd">
<!-- Generated by graphviz version 2.40.1 (20161225.0304)
 -->
<!-- Title: dependencies Pages: 1 -->
<svg width="2528pt" height="211pt"
 viewBox="0.00 0.00 2528.00 211.00" xmlns="http://www.w3.org/2000/svg" xmlns:xlink="http://www.w3.org/1999/xlink">
<g id="graph0" class="graph" transform="scale(1 1) rotate(0) translate(4 207)">
<title>dependencies</title>
<polygon fill="#ffffff" stroke="transparent" points="-4,4 -4,-207 2524,-207 2524,4 -4,4"/>
<text text-anchor="start" x="1239.0091" y="-42.4" font-family="sans-serif" font-weight="bold" font-size="14.00" fill="#000000">Legend</text>
<polygon fill="#ffffb3" stroke="transparent" points="1026,-10 1026,-30 1046,-30 1046,-10 1026,-10"/>
<text text-anchor="start" x="1049.629" y="-15.4" font-family="sans-serif" font-size="14.00" fill="#000000"> &#160;Declarations</text>
<polygon fill="#8dd3c7" stroke="transparent" points="1139,-10 1139,-30 1159,-30 1159,-10 1139,-10"/>
<text text-anchor="start" x="1162.7251" y="-15.4" font-family="sans-serif" font-size="14.00" fill="#000000"> &#160;Module</text>
<polygon fill="#80b1d3" stroke="transparent" points="1225,-10 1225,-30 1245,-30 1245,-10 1225,-10"/>
<text text-anchor="start" x="1248.7812" y="-15.4" font-family="sans-serif" font-size="14.00" fill="#000000"> &#160;Bootstrap</text>
<polygon fill="#fdb462" stroke="transparent" points="1322,-10 1322,-30 1342,-30 1342,-10 1322,-10"/>
<text text-anchor="start" x="1345.6732" y="-15.4" font-family="sans-serif" font-size="14.00" fill="#000000"> &#160;Providers</text>
<polygon fill="#fb8072" stroke="transparent" points="1418,-10 1418,-30 1438,-30 1438,-10 1418,-10"/>
<text text-anchor="start" x="1441.7258" y="-15.4" font-family="sans-serif" font-size="14.00" fill="#000000"> &#160;Exports</text>
<g id="clust1" class="cluster">
<title>cluster_SecureModule</title>
<polygon fill="none" stroke="#000000" stroke-dasharray="1,5" points="8,-70 8,-195 2512,-195 2512,-70 8,-70"/>
</g>
<g id="clust3" class="cluster">
<title>cluster_SecureModule_imports</title>
<polygon fill="none" stroke="#000000" points="16,-78 16,-130 2504,-130 2504,-78 16,-78"/>
</g>
<!-- AwsCognitoModule -->
<g id="node1" class="node">
<title>AwsCognitoModule</title>
<polygon fill="#8dd3c7" stroke="#000000" points="2496.3258,-122 2493.3258,-126 2472.3258,-126 2469.3258,-122 2365.6742,-122 2365.6742,-86 2496.3258,-86 2496.3258,-122"/>
<text text-anchor="middle" x="2431" y="-99.8" font-family="Times,serif" font-size="14.00" fill="#000000">AwsCognitoModule</text>
</g>
<!-- SecureModule -->
<g id="node20" class="node">
<title>SecureModule</title>
<polygon fill="#8dd3c7" stroke="#000000" points="1284.6375,-187 1281.6375,-191 1260.6375,-191 1257.6375,-187 1187.3625,-187 1187.3625,-151 1284.6375,-151 1284.6375,-187"/>
<text text-anchor="middle" x="1236" y="-164.8" font-family="Times,serif" font-size="14.00" fill="#000000">SecureModule</text>
</g>
<!-- AwsCognitoModule&#45;&gt;SecureModule -->
<g id="edge1" class="edge">
<title>AwsCognitoModule&#45;&gt;SecureModule</title>
<path fill="none" stroke="#000000" d="M2431,-122.1532C2431,-145.7566 2431,-184 2431,-184 2431,-184 1294.6987,-184 1294.6987,-184"/>
<polygon fill="#000000" stroke="#000000" points="1294.6988,-180.5001 1284.6987,-184 1294.6987,-187.5001 1294.6988,-180.5001"/>
</g>
<!-- BillingModule -->
<g id="node2" class="node">
<title>BillingModule</title>
<polygon fill="#8dd3c7" stroke="#000000" points="2348.4498,-122 2345.4498,-126 2324.4498,-126 2321.4498,-122 2249.5502,-122 2249.5502,-86 2348.4498,-86 2348.4498,-122"/>
<text text-anchor="middle" x="2299" y="-99.8" font-family="Times,serif" font-size="14.00" fill="#000000">BillingModule</text>
</g>
<!-- BillingModule&#45;&gt;SecureModule -->
<g id="edge2" class="edge">
<title>BillingModule&#45;&gt;SecureModule</title>
<path fill="none" stroke="#000000" d="M2299,-122.0109C2299,-144.4852 2299,-180 2299,-180 2299,-180 1294.7874,-180 1294.7874,-180"/>
<polygon fill="#000000" stroke="#000000" points="1294.7874,-176.5001 1284.7874,-180 1294.7874,-183.5001 1294.7874,-176.5001"/>
</g>
<!-- BulkLoadModule -->
<g id="node3" class="node">
<title>BulkLoadModule</title>
<polygon fill="#8dd3c7" stroke="#000000" points="2231.5451,-122 2228.5451,-126 2207.5451,-126 2204.5451,-122 2116.4549,-122 2116.4549,-86 2231.5451,-86 2231.5451,-122"/>
<text text-anchor="middle" x="2174" y="-99.8" font-family="Times,serif" font-size="14.00" fill="#000000">BulkLoadModule</text>
</g>
<!-- BulkLoadModule&#45;&gt;SecureModule -->
<g id="edge3" class="edge">
<title>BulkLoadModule&#45;&gt;SecureModule</title>
<path fill="none" stroke="#000000" d="M2174,-122.0449C2174,-143.6623 2174,-177 2174,-177 2174,-177 1294.7825,-177 1294.7825,-177"/>
<polygon fill="#000000" stroke="#000000" points="1294.7826,-173.5001 1284.7825,-177 1294.7825,-180.5001 1294.7826,-173.5001"/>
</g>
<!-- BulkLoadProductModule -->
<g id="node4" class="node">
<title>BulkLoadProductModule</title>
<polygon fill="#8dd3c7" stroke="#000000" points="2098.5926,-122 2095.5926,-126 2074.5926,-126 2071.5926,-122 1939.4074,-122 1939.4074,-86 2098.5926,-86 2098.5926,-122"/>
<text text-anchor="middle" x="2019" y="-99.8" font-family="Times,serif" font-size="14.00" fill="#000000">BulkLoadProductModule</text>
</g>
<!-- BulkLoadProductModule&#45;&gt;SecureModule -->
<g id="edge4" class="edge">
<title>BulkLoadProductModule&#45;&gt;SecureModule</title>
<path fill="none" stroke="#000000" d="M2019,-122.1289C2019,-142.5724 2019,-173 2019,-173 2019,-173 1294.6843,-173 1294.6843,-173"/>
<polygon fill="#000000" stroke="#000000" points="1294.6844,-169.5001 1284.6843,-173 1294.6843,-176.5001 1294.6844,-169.5001"/>
</g>
<!-- DetailModule -->
<g id="node5" class="node">
<title>DetailModule</title>
<polygon fill="#8dd3c7" stroke="#000000" points="1921.7577,-122 1918.7577,-126 1897.7577,-126 1894.7577,-122 1828.2423,-122 1828.2423,-86 1921.7577,-86 1921.7577,-122"/>
<text text-anchor="middle" x="1875" y="-99.8" font-family="Times,serif" font-size="14.00" fill="#000000">DetailModule</text>
</g>
<!-- DetailModule&#45;&gt;SecureModule -->
<g id="edge5" class="edge">
<title>DetailModule&#45;&gt;SecureModule</title>
<path fill="none" stroke="#000000" d="M1875,-122.1061C1875,-141.3391 1875,-169 1875,-169 1875,-169 1294.8165,-169 1294.8165,-169"/>
<polygon fill="#000000" stroke="#000000" points="1294.8165,-165.5001 1284.8165,-169 1294.8164,-172.5001 1294.8165,-165.5001"/>
</g>
<!-- DispatchModule -->
<g id="node6" class="node">
<title>DispatchModule</title>
<polygon fill="#8dd3c7" stroke="#000000" points="1809.8118,-122 1806.8118,-126 1785.8118,-126 1782.8118,-122 1700.1882,-122 1700.1882,-86 1809.8118,-86 1809.8118,-122"/>
<text text-anchor="middle" x="1755" y="-99.8" font-family="Times,serif" font-size="14.00" fill="#000000">DispatchModule</text>
</g>
<!-- DispatchModule&#45;&gt;SecureModule -->
<g id="edge6" class="edge">
<title>DispatchModule&#45;&gt;SecureModule</title>
<path fill="none" stroke="#000000" d="M1755,-122.2667C1755,-140.5552 1755,-166 1755,-166 1755,-166 1294.8263,-166 1294.8263,-166"/>
<polygon fill="#000000" stroke="#000000" points="1294.8263,-162.5001 1284.8263,-166 1294.8262,-169.5001 1294.8263,-162.5001"/>
</g>
<!-- ErrorModule -->
<g id="node7" class="node">
<title>ErrorModule</title>
<polygon fill="#8dd3c7" stroke="#000000" points="1682.5842,-122 1679.5842,-126 1658.5842,-126 1655.5842,-122 1593.4158,-122 1593.4158,-86 1682.5842,-86 1682.5842,-122"/>
<text text-anchor="middle" x="1638" y="-99.8" font-family="Times,serif" font-size="14.00" fill="#000000">ErrorModule</text>
</g>
<!-- ErrorModule&#45;&gt;SecureModule -->
<g id="edge7" class="edge">
<title>ErrorModule&#45;&gt;SecureModule</title>
<path fill="none" stroke="#000000" d="M1638,-122.0336C1638,-139.0597 1638,-162 1638,-162 1638,-162 1294.8912,-162 1294.8912,-162"/>
<polygon fill="#000000" stroke="#000000" points="1294.8912,-158.5001 1284.8912,-162 1294.8912,-165.5001 1294.8912,-158.5001"/>
</g>
<!-- HistoricModule -->
<g id="node8" class="node">
<title>HistoricModule</title>
<polygon fill="#8dd3c7" stroke="#000000" points="1575.1486,-122 1572.1486,-126 1551.1486,-126 1548.1486,-122 1470.8514,-122 1470.8514,-86 1575.1486,-86 1575.1486,-122"/>
<text text-anchor="middle" x="1523" y="-99.8" font-family="Times,serif" font-size="14.00" fill="#000000">HistoricModule</text>
</g>
<!-- HistoricModule&#45;&gt;SecureModule -->
<g id="edge8" class="edge">
<title>HistoricModule&#45;&gt;SecureModule</title>
<path fill="none" stroke="#000000" d="M1523,-122.0091C1523,-138.0494 1523,-159 1523,-159 1523,-159 1294.6856,-159 1294.6856,-159"/>
<polygon fill="#000000" stroke="#000000" points="1294.6857,-155.5001 1284.6856,-159 1294.6856,-162.5001 1294.6857,-155.5001"/>
</g>
<!-- InDevolutionModule -->
<g id="node9" class="node">
<title>InDevolutionModule</title>
<polygon fill="#8dd3c7" stroke="#000000" points="1453.2036,-122 1450.2036,-126 1429.2036,-126 1426.2036,-122 1318.7964,-122 1318.7964,-86 1453.2036,-86 1453.2036,-122"/>
<text text-anchor="middle" x="1386" y="-99.8" font-family="Times,serif" font-size="14.00" fill="#000000">InDevolutionModule</text>
</g>
<!-- InDevolutionModule&#45;&gt;SecureModule -->
<g id="edge9" class="edge">
<title>InDevolutionModule&#45;&gt;SecureModule</title>
<path fill="none" stroke="#000000" d="M1386,-122.1243C1386,-136.7832 1386,-155 1386,-155 1386,-155 1294.7007,-155 1294.7007,-155"/>
<polygon fill="#000000" stroke="#000000" points="1294.7007,-151.5001 1284.7007,-155 1294.7007,-158.5001 1294.7007,-151.5001"/>
</g>
<!-- InValidationModule -->
<g id="node10" class="node">
<title>InValidationModule</title>
<polygon fill="#8dd3c7" stroke="#000000" points="1301.309,-122 1298.309,-126 1277.309,-126 1274.309,-122 1170.691,-122 1170.691,-86 1301.309,-86 1301.309,-122"/>
<text text-anchor="middle" x="1236" y="-99.8" font-family="Times,serif" font-size="14.00" fill="#000000">InValidationModule</text>
</g>
<!-- InValidationModule&#45;&gt;SecureModule -->
<g id="edge10" class="edge">
<title>InValidationModule&#45;&gt;SecureModule</title>
<path fill="none" stroke="#000000" d="M1236,-122.1061C1236,-122.1061 1236,-140.991 1236,-140.991"/>
<polygon fill="#000000" stroke="#000000" points="1232.5001,-140.9909 1236,-150.991 1239.5001,-140.991 1232.5001,-140.9909"/>
</g>
<!-- ListModule -->
<g id="node11" class="node">
<title>ListModule</title>
<polygon fill="#8dd3c7" stroke="#000000" points="1152.8289,-122 1149.8289,-126 1128.8289,-126 1125.8289,-122 1071.1711,-122 1071.1711,-86 1152.8289,-86 1152.8289,-122"/>
<text text-anchor="middle" x="1112" y="-99.8" font-family="Times,serif" font-size="14.00" fill="#000000">ListModule</text>
</g>
<!-- ListModule&#45;&gt;SecureModule -->
<g id="edge11" class="edge">
<title>ListModule&#45;&gt;SecureModule</title>
<path fill="none" stroke="#000000" d="M1112,-122.1243C1112,-136.7832 1112,-155 1112,-155 1112,-155 1177.3478,-155 1177.3478,-155"/>
<polygon fill="#000000" stroke="#000000" points="1177.3478,-158.5001 1187.3478,-155 1177.3478,-151.5001 1177.3478,-158.5001"/>
</g>
<!-- LoadGuideModule -->
<g id="node12" class="node">
<title>LoadGuideModule</title>
<polygon fill="#8dd3c7" stroke="#000000" points="1053.0297,-122 1050.0297,-126 1029.0297,-126 1026.0297,-122 930.9703,-122 930.9703,-86 1053.0297,-86 1053.0297,-122"/>
<text text-anchor="middle" x="992" y="-99.8" font-family="Times,serif" font-size="14.00" fill="#000000">LoadGuideModule</text>
</g>
<!-- LoadGuideModule&#45;&gt;SecureModule -->
<g id="edge12" class="edge">
<title>LoadGuideModule&#45;&gt;SecureModule</title>
<path fill="none" stroke="#000000" d="M992,-122.0091C992,-138.0494 992,-159 992,-159 992,-159 1177.2094,-159 1177.2094,-159"/>
<polygon fill="#000000" stroke="#000000" points="1177.2094,-162.5001 1187.2094,-159 1177.2094,-155.5001 1177.2094,-162.5001"/>
</g>
<!-- ManageModule -->
<g id="node13" class="node">
<title>ManageModule</title>
<polygon fill="#8dd3c7" stroke="#000000" points="912.1388,-122 909.1388,-126 888.1388,-126 885.1388,-122 807.8612,-122 807.8612,-86 912.1388,-86 912.1388,-122"/>
<text text-anchor="middle" x="860" y="-99.8" font-family="Times,serif" font-size="14.00" fill="#000000">ManageModule</text>
</g>
<!-- ManageModule&#45;&gt;SecureModule -->
<g id="edge13" class="edge">
<title>ManageModule&#45;&gt;SecureModule</title>
<path fill="none" stroke="#000000" d="M860,-122.0336C860,-139.0597 860,-162 860,-162 860,-162 1177.23,-162 1177.23,-162"/>
<polygon fill="#000000" stroke="#000000" points="1177.2301,-165.5001 1187.23,-162 1177.23,-158.5001 1177.2301,-165.5001"/>
</g>
<!-- OrdersModule -->
<g id="node14" class="node">
<title>OrdersModule</title>
<polygon fill="#8dd3c7" stroke="#000000" points="789.6375,-122 786.6375,-126 765.6375,-126 762.6375,-122 692.3625,-122 692.3625,-86 789.6375,-86 789.6375,-122"/>
<text text-anchor="middle" x="741" y="-99.8" font-family="Times,serif" font-size="14.00" fill="#000000">OrdersModule</text>
</g>
<!-- OrdersModule&#45;&gt;SecureModule -->
<g id="edge14" class="edge">
<title>OrdersModule&#45;&gt;SecureModule</title>
<path fill="none" stroke="#000000" d="M741,-122.2667C741,-140.5552 741,-166 741,-166 741,-166 1177.1828,-166 1177.1828,-166"/>
<polygon fill="#000000" stroke="#000000" points="1177.1828,-169.5001 1187.1828,-166 1177.1828,-162.5001 1177.1828,-169.5001"/>
</g>
<!-- PendingDevolutionModule -->
<g id="node15" class="node">
<title>PendingDevolutionModule</title>
<polygon fill="#8dd3c7" stroke="#000000" points="674.4312,-122 671.4312,-126 650.4312,-126 647.4312,-122 505.5688,-122 505.5688,-86 674.4312,-86 674.4312,-122"/>
<text text-anchor="middle" x="590" y="-99.8" font-family="Times,serif" font-size="14.00" fill="#000000">PendingDevolutionModule</text>
</g>
<!-- PendingDevolutionModule&#45;&gt;SecureModule -->
<g id="edge15" class="edge">
<title>PendingDevolutionModule&#45;&gt;SecureModule</title>
<path fill="none" stroke="#000000" d="M590,-122.1061C590,-141.3391 590,-169 590,-169 590,-169 1177.1802,-169 1177.1802,-169"/>
<polygon fill="#000000" stroke="#000000" points="1177.1802,-172.5001 1187.1802,-169 1177.1802,-165.5001 1177.1802,-172.5001"/>
</g>
<!-- PendingModule -->
<g id="node16" class="node">
<title>PendingModule</title>
<polygon fill="#8dd3c7" stroke="#000000" points="487.9385,-122 484.9385,-126 463.9385,-126 460.9385,-122 382.0615,-122 382.0615,-86 487.9385,-86 487.9385,-122"/>
<text text-anchor="middle" x="435" y="-99.8" font-family="Times,serif" font-size="14.00" fill="#000000">PendingModule</text>
</g>
<!-- PendingModule&#45;&gt;SecureModule -->
<g id="edge16" class="edge">
<title>PendingModule&#45;&gt;SecureModule</title>
<path fill="none" stroke="#000000" d="M435,-122.1289C435,-142.5724 435,-173 435,-173 435,-173 1177.0996,-173 1177.0996,-173"/>
<polygon fill="#000000" stroke="#000000" points="1177.0997,-176.5001 1187.0996,-173 1177.0996,-169.5001 1177.0997,-176.5001"/>
</g>
<!-- RegisterModule -->
<g id="node17" class="node">
<title>RegisterModule</title>
<polygon fill="#8dd3c7" stroke="#000000" points="364.2022,-122 361.2022,-126 340.2022,-126 337.2022,-122 257.7978,-122 257.7978,-86 364.2022,-86 364.2022,-122"/>
<text text-anchor="middle" x="311" y="-99.8" font-family="Times,serif" font-size="14.00" fill="#000000">RegisterModule</text>
</g>
<!-- RegisterModule&#45;&gt;SecureModule -->
<g id="edge17" class="edge">
<title>RegisterModule&#45;&gt;SecureModule</title>
<path fill="none" stroke="#000000" d="M311,-122.0449C311,-143.6623 311,-177 311,-177 311,-177 1177.2462,-177 1177.2462,-177"/>
<polygon fill="#000000" stroke="#000000" points="1177.2462,-180.5001 1187.2462,-177 1177.2462,-173.5001 1177.2462,-180.5001"/>
</g>
<!-- ReportsModule -->
<g id="node18" class="node">
<title>ReportsModule</title>
<polygon fill="#8dd3c7" stroke="#000000" points="239.5968,-122 236.5968,-126 215.5968,-126 212.5968,-122 136.4032,-122 136.4032,-86 239.5968,-86 239.5968,-122"/>
<text text-anchor="middle" x="188" y="-99.8" font-family="Times,serif" font-size="14.00" fill="#000000">ReportsModule</text>
</g>
<!-- ReportsModule&#45;&gt;SecureModule -->
<g id="edge18" class="edge">
<title>ReportsModule&#45;&gt;SecureModule</title>
<path fill="none" stroke="#000000" d="M188,-122.0109C188,-144.4852 188,-180 188,-180 188,-180 1177.2071,-180 1177.2071,-180"/>
<polygon fill="#000000" stroke="#000000" points="1177.2071,-183.5001 1187.2071,-180 1177.207,-176.5001 1177.2071,-183.5001"/>
</g>
<!-- StoresModule -->
<g id="node19" class="node">
<title>StoresModule</title>
<polygon fill="#8dd3c7" stroke="#000000" points="118.0439,-122 115.0439,-126 94.0439,-126 91.0439,-122 23.9561,-122 23.9561,-86 118.0439,-86 118.0439,-122"/>
<text text-anchor="middle" x="71" y="-99.8" font-family="Times,serif" font-size="14.00" fill="#000000">StoresModule</text>
</g>
<!-- StoresModule&#45;&gt;SecureModule -->
<g id="edge19" class="edge">
<title>StoresModule&#45;&gt;SecureModule</title>
<path fill="none" stroke="#000000" d="M71,-122.1532C71,-145.7566 71,-184 71,-184 71,-184 1177.0557,-184 1177.0557,-184"/>
<polygon fill="#000000" stroke="#000000" points="1177.0557,-187.5001 1187.0557,-184 1177.0557,-180.5001 1177.0557,-187.5001"/>
</g>
</g>
</svg>
