<?xml version="1.0" encoding="UTF-8" standalone="no"?>
<!DOCTYPE svg PUBLIC "-//W3C//DTD SVG 1.1//EN"
 "http://www.w3.org/Graphics/SVG/1.1/DTD/svg11.dtd">
<!-- Generated by graphviz version 2.40.1 (20161225.0304)
 -->
<!-- Title: dependencies Pages: 1 -->
<svg width="2956pt" height="211pt"
 viewBox="0.00 0.00 2956.00 211.00" xmlns="http://www.w3.org/2000/svg" xmlns:xlink="http://www.w3.org/1999/xlink">
<g id="graph0" class="graph" transform="scale(1 1) rotate(0) translate(4 207)">
<title>dependencies</title>
<polygon fill="#ffffff" stroke="transparent" points="-4,4 -4,-207 2952,-207 2952,4 -4,4"/>
<text text-anchor="start" x="1453.0091" y="-42.4" font-family="sans-serif" font-weight="bold" font-size="14.00" fill="#000000">Legend</text>
<polygon fill="#ffffb3" stroke="transparent" points="1240,-10 1240,-30 1260,-30 1260,-10 1240,-10"/>
<text text-anchor="start" x="1263.629" y="-15.4" font-family="sans-serif" font-size="14.00" fill="#000000"> &#160;Declarations</text>
<polygon fill="#8dd3c7" stroke="transparent" points="1353,-10 1353,-30 1373,-30 1373,-10 1353,-10"/>
<text text-anchor="start" x="1376.7251" y="-15.4" font-family="sans-serif" font-size="14.00" fill="#000000"> &#160;Module</text>
<polygon fill="#80b1d3" stroke="transparent" points="1439,-10 1439,-30 1459,-30 1459,-10 1439,-10"/>
<text text-anchor="start" x="1462.7812" y="-15.4" font-family="sans-serif" font-size="14.00" fill="#000000"> &#160;Bootstrap</text>
<polygon fill="#fdb462" stroke="transparent" points="1536,-10 1536,-30 1556,-30 1556,-10 1536,-10"/>
<text text-anchor="start" x="1559.6732" y="-15.4" font-family="sans-serif" font-size="14.00" fill="#000000"> &#160;Providers</text>
<polygon fill="#fb8072" stroke="transparent" points="1632,-10 1632,-30 1652,-30 1652,-10 1632,-10"/>
<text text-anchor="start" x="1655.7258" y="-15.4" font-family="sans-serif" font-size="14.00" fill="#000000"> &#160;Exports</text>
<g id="clust1" class="cluster">
<title>cluster_SecureModule</title>
<polygon fill="none" stroke="#000000" stroke-dasharray="1,5" points="8,-70 8,-195 2940,-195 2940,-70 8,-70"/>
</g>
<g id="clust3" class="cluster">
<title>cluster_SecureModule_imports</title>
<polygon fill="none" stroke="#000000" points="16,-78 16,-130 2932,-130 2932,-78 16,-78"/>
</g>
<!-- AwsCognitoModule -->
<g id="node1" class="node">
<title>AwsCognitoModule</title>
<polygon fill="#8dd3c7" stroke="#000000" points="2924.3258,-122 2921.3258,-126 2900.3258,-126 2897.3258,-122 2793.6742,-122 2793.6742,-86 2924.3258,-86 2924.3258,-122"/>
<text text-anchor="middle" x="2859" y="-99.8" font-family="Times,serif" font-size="14.00" fill="#000000">AwsCognitoModule</text>
</g>
<!-- SecureModule -->
<g id="node23" class="node">
<title>SecureModule</title>
<polygon fill="#8dd3c7" stroke="#000000" points="1482.6375,-187 1479.6375,-191 1458.6375,-191 1455.6375,-187 1385.3625,-187 1385.3625,-151 1482.6375,-151 1482.6375,-187"/>
<text text-anchor="middle" x="1434" y="-164.8" font-family="Times,serif" font-size="14.00" fill="#000000">SecureModule</text>
</g>
<!-- AwsCognitoModule&#45;&gt;SecureModule -->
<g id="edge1" class="edge">
<title>AwsCognitoModule&#45;&gt;SecureModule</title>
<path fill="none" stroke="#000000" d="M2859,-122.1532C2859,-145.7566 2859,-184 2859,-184 2859,-184 1492.6395,-184 1492.6395,-184"/>
<polygon fill="#000000" stroke="#000000" points="1492.6395,-180.5001 1482.6395,-184 1492.6395,-187.5001 1492.6395,-180.5001"/>
</g>
<!-- BillingModule -->
<g id="node2" class="node">
<title>BillingModule</title>
<polygon fill="#8dd3c7" stroke="#000000" points="2776.4498,-122 2773.4498,-126 2752.4498,-126 2749.4498,-122 2677.5502,-122 2677.5502,-86 2776.4498,-86 2776.4498,-122"/>
<text text-anchor="middle" x="2727" y="-99.8" font-family="Times,serif" font-size="14.00" fill="#000000">BillingModule</text>
</g>
<!-- BillingModule&#45;&gt;SecureModule -->
<g id="edge2" class="edge">
<title>BillingModule&#45;&gt;SecureModule</title>
<path fill="none" stroke="#000000" d="M2727,-122.2479C2727,-145.0179 2727,-181 2727,-181 2727,-181 1492.7171,-181 1492.7171,-181"/>
<polygon fill="#000000" stroke="#000000" points="1492.7171,-177.5001 1482.7171,-181 1492.717,-184.5001 1492.7171,-177.5001"/>
</g>
<!-- BulkLoadModule -->
<g id="node3" class="node">
<title>BulkLoadModule</title>
<polygon fill="#8dd3c7" stroke="#000000" points="2659.5451,-122 2656.5451,-126 2635.5451,-126 2632.5451,-122 2544.4549,-122 2544.4549,-86 2659.5451,-86 2659.5451,-122"/>
<text text-anchor="middle" x="2602" y="-99.8" font-family="Times,serif" font-size="14.00" fill="#000000">BulkLoadModule</text>
</g>
<!-- BulkLoadModule&#45;&gt;SecureModule -->
<g id="edge3" class="edge">
<title>BulkLoadModule&#45;&gt;SecureModule</title>
<path fill="none" stroke="#000000" d="M2602,-122.2921C2602,-144.2057 2602,-178 2602,-178 2602,-178 1492.7005,-178 1492.7005,-178"/>
<polygon fill="#000000" stroke="#000000" points="1492.7005,-174.5001 1482.7005,-178 1492.7004,-181.5001 1492.7005,-174.5001"/>
</g>
<!-- BulkLoadProductModule -->
<g id="node4" class="node">
<title>BulkLoadProductModule</title>
<polygon fill="#8dd3c7" stroke="#000000" points="2526.5926,-122 2523.5926,-126 2502.5926,-126 2499.5926,-122 2367.4074,-122 2367.4074,-86 2526.5926,-86 2526.5926,-122"/>
<text text-anchor="middle" x="2447" y="-99.8" font-family="Times,serif" font-size="14.00" fill="#000000">BulkLoadProductModule</text>
</g>
<!-- BulkLoadProductModule&#45;&gt;SecureModule -->
<g id="edge4" class="edge">
<title>BulkLoadProductModule&#45;&gt;SecureModule</title>
<path fill="none" stroke="#000000" d="M2447,-122.0267C2447,-142.7672 2447,-174 2447,-174 2447,-174 1492.8591,-174 1492.8591,-174"/>
<polygon fill="#000000" stroke="#000000" points="1492.8591,-170.5001 1482.8591,-174 1492.8591,-177.5001 1492.8591,-170.5001"/>
</g>
<!-- DetailModule -->
<g id="node5" class="node">
<title>DetailModule</title>
<polygon fill="#8dd3c7" stroke="#000000" points="2349.7577,-122 2346.7577,-126 2325.7577,-126 2322.7577,-122 2256.2423,-122 2256.2423,-86 2349.7577,-86 2349.7577,-122"/>
<text text-anchor="middle" x="2303" y="-99.8" font-family="Times,serif" font-size="14.00" fill="#000000">DetailModule</text>
</g>
<!-- DetailModule&#45;&gt;SecureModule -->
<g id="edge5" class="edge">
<title>DetailModule&#45;&gt;SecureModule</title>
<path fill="none" stroke="#000000" d="M2303,-122.308C2303,-142.1455 2303,-171 2303,-171 2303,-171 1492.8967,-171 1492.8967,-171"/>
<polygon fill="#000000" stroke="#000000" points="1492.8968,-167.5001 1482.8967,-171 1492.8967,-174.5001 1492.8968,-167.5001"/>
</g>
<!-- DispatchModule -->
<g id="node6" class="node">
<title>DispatchModule</title>
<polygon fill="#8dd3c7" stroke="#000000" points="2237.8118,-122 2234.8118,-126 2213.8118,-126 2210.8118,-122 2128.1882,-122 2128.1882,-86 2237.8118,-86 2237.8118,-122"/>
<text text-anchor="middle" x="2183" y="-99.8" font-family="Times,serif" font-size="14.00" fill="#000000">DispatchModule</text>
</g>
<!-- DispatchModule&#45;&gt;SecureModule -->
<g id="edge6" class="edge">
<title>DispatchModule&#45;&gt;SecureModule</title>
<path fill="none" stroke="#000000" d="M2183,-122.1686C2183,-141.0898 2183,-168 2183,-168 2183,-168 1492.8551,-168 1492.8551,-168"/>
<polygon fill="#000000" stroke="#000000" points="1492.8551,-164.5001 1482.8551,-168 1492.855,-171.5001 1492.8551,-164.5001"/>
</g>
<!-- ErrorModule -->
<g id="node7" class="node">
<title>ErrorModule</title>
<polygon fill="#8dd3c7" stroke="#000000" points="2110.5842,-122 2107.5842,-126 2086.5842,-126 2083.5842,-122 2021.4158,-122 2021.4158,-86 2110.5842,-86 2110.5842,-122"/>
<text text-anchor="middle" x="2066" y="-99.8" font-family="Times,serif" font-size="14.00" fill="#000000">ErrorModule</text>
</g>
<!-- ErrorModule&#45;&gt;SecureModule -->
<g id="edge7" class="edge">
<title>ErrorModule&#45;&gt;SecureModule</title>
<path fill="none" stroke="#000000" d="M2066,-122.302C2066,-140.2699 2066,-165 2066,-165 2066,-165 1492.804,-165 1492.804,-165"/>
<polygon fill="#000000" stroke="#000000" points="1492.8041,-161.5001 1482.804,-165 1492.804,-168.5001 1492.8041,-161.5001"/>
</g>
<!-- HistoricModule -->
<g id="node8" class="node">
<title>HistoricModule</title>
<polygon fill="#8dd3c7" stroke="#000000" points="2003.1486,-122 2000.1486,-126 1979.1486,-126 1976.1486,-122 1898.8514,-122 1898.8514,-86 2003.1486,-86 2003.1486,-122"/>
<text text-anchor="middle" x="1951" y="-99.8" font-family="Times,serif" font-size="14.00" fill="#000000">HistoricModule</text>
</g>
<!-- HistoricModule&#45;&gt;SecureModule -->
<g id="edge8" class="edge">
<title>HistoricModule&#45;&gt;SecureModule</title>
<path fill="none" stroke="#000000" d="M1951,-122.0352C1951,-138.7344 1951,-161 1951,-161 1951,-161 1492.6381,-161 1492.6381,-161"/>
<polygon fill="#000000" stroke="#000000" points="1492.6381,-157.5001 1482.6381,-161 1492.6381,-164.5001 1492.6381,-157.5001"/>
</g>
<!-- HistoricalModule -->
<g id="node9" class="node">
<title>HistoricalModule</title>
<polygon fill="#8dd3c7" stroke="#000000" points="1880.2535,-122 1877.2535,-126 1856.2535,-126 1853.2535,-122 1765.7465,-122 1765.7465,-86 1880.2535,-86 1880.2535,-122"/>
<text text-anchor="middle" x="1823" y="-99.8" font-family="Times,serif" font-size="14.00" fill="#000000">HistoricalModule</text>
</g>
<!-- HistoricalModule&#45;&gt;SecureModule -->
<g id="edge9" class="edge">
<title>HistoricalModule&#45;&gt;SecureModule</title>
<path fill="none" stroke="#000000" d="M1823,-122.2819C1823,-137.9478 1823,-158 1823,-158 1823,-158 1492.8732,-158 1492.8732,-158"/>
<polygon fill="#000000" stroke="#000000" points="1492.8733,-154.5001 1482.8732,-158 1492.8732,-161.5001 1492.8733,-154.5001"/>
</g>
<!-- HistoricalModuleAdmin -->
<g id="node10" class="node">
<title>HistoricalModuleAdmin</title>
<polygon fill="#8dd3c7" stroke="#000000" points="1747.6414,-122 1744.6414,-126 1723.6414,-126 1720.6414,-122 1594.3586,-122 1594.3586,-86 1747.6414,-86 1747.6414,-122"/>
<text text-anchor="middle" x="1671" y="-99.8" font-family="Times,serif" font-size="14.00" fill="#000000">HistoricalModuleAdmin</text>
</g>
<!-- HistoricalModuleAdmin&#45;&gt;SecureModule -->
<g id="edge10" class="edge">
<title>HistoricalModuleAdmin&#45;&gt;SecureModule</title>
<path fill="none" stroke="#000000" d="M1671,-122.1243C1671,-136.7832 1671,-155 1671,-155 1671,-155 1492.8192,-155 1492.8192,-155"/>
<polygon fill="#000000" stroke="#000000" points="1492.8192,-151.5001 1482.8192,-155 1492.8192,-158.5001 1492.8192,-151.5001"/>
</g>
<!-- InDevolutionModule -->
<g id="node11" class="node">
<title>InDevolutionModule</title>
<polygon fill="#8dd3c7" stroke="#000000" points="1576.2036,-122 1573.2036,-126 1552.2036,-126 1549.2036,-122 1441.7964,-122 1441.7964,-86 1576.2036,-86 1576.2036,-122"/>
<text text-anchor="middle" x="1509" y="-99.8" font-family="Times,serif" font-size="14.00" fill="#000000">InDevolutionModule</text>
</g>
<!-- InDevolutionModule&#45;&gt;SecureModule -->
<g id="edge11" class="edge">
<title>InDevolutionModule&#45;&gt;SecureModule</title>
<path fill="none" stroke="#000000" d="M1462.3584,-122.1061C1462.3584,-122.1061 1462.3584,-140.991 1462.3584,-140.991"/>
<polygon fill="#000000" stroke="#000000" points="1458.8584,-140.9909 1462.3584,-150.991 1465.8584,-140.991 1458.8584,-140.9909"/>
</g>
<!-- InValidationModule -->
<g id="node12" class="node">
<title>InValidationModule</title>
<polygon fill="#8dd3c7" stroke="#000000" points="1424.309,-122 1421.309,-126 1400.309,-126 1397.309,-122 1293.691,-122 1293.691,-86 1424.309,-86 1424.309,-122"/>
<text text-anchor="middle" x="1359" y="-99.8" font-family="Times,serif" font-size="14.00" fill="#000000">InValidationModule</text>
</g>
<!-- InValidationModule&#45;&gt;SecureModule -->
<g id="edge12" class="edge">
<title>InValidationModule&#45;&gt;SecureModule</title>
<path fill="none" stroke="#000000" d="M1404.668,-122.1061C1404.668,-122.1061 1404.668,-140.991 1404.668,-140.991"/>
<polygon fill="#000000" stroke="#000000" points="1401.168,-140.9909 1404.668,-150.991 1408.168,-140.991 1401.168,-140.9909"/>
</g>
<!-- ListModule -->
<g id="node13" class="node">
<title>ListModule</title>
<polygon fill="#8dd3c7" stroke="#000000" points="1275.8289,-122 1272.8289,-126 1251.8289,-126 1248.8289,-122 1194.1711,-122 1194.1711,-86 1275.8289,-86 1275.8289,-122"/>
<text text-anchor="middle" x="1235" y="-99.8" font-family="Times,serif" font-size="14.00" fill="#000000">ListModule</text>
</g>
<!-- ListModule&#45;&gt;SecureModule -->
<g id="edge13" class="edge">
<title>ListModule&#45;&gt;SecureModule</title>
<path fill="none" stroke="#000000" d="M1235,-122.1243C1235,-136.7832 1235,-155 1235,-155 1235,-155 1375.3191,-155 1375.3191,-155"/>
<polygon fill="#000000" stroke="#000000" points="1375.3192,-158.5001 1385.3191,-155 1375.3191,-151.5001 1375.3192,-158.5001"/>
</g>
<!-- LoadGuideModule -->
<g id="node14" class="node">
<title>LoadGuideModule</title>
<polygon fill="#8dd3c7" stroke="#000000" points="1176.0297,-122 1173.0297,-126 1152.0297,-126 1149.0297,-122 1053.9703,-122 1053.9703,-86 1176.0297,-86 1176.0297,-122"/>
<text text-anchor="middle" x="1115" y="-99.8" font-family="Times,serif" font-size="14.00" fill="#000000">LoadGuideModule</text>
</g>
<!-- LoadGuideModule&#45;&gt;SecureModule -->
<g id="edge14" class="edge">
<title>LoadGuideModule&#45;&gt;SecureModule</title>
<path fill="none" stroke="#000000" d="M1115,-122.2819C1115,-137.9478 1115,-158 1115,-158 1115,-158 1375.2035,-158 1375.2035,-158"/>
<polygon fill="#000000" stroke="#000000" points="1375.2036,-161.5001 1385.2035,-158 1375.2035,-154.5001 1375.2036,-161.5001"/>
</g>
<!-- ManageModule -->
<g id="node15" class="node">
<title>ManageModule</title>
<polygon fill="#8dd3c7" stroke="#000000" points="1035.1388,-122 1032.1388,-126 1011.1388,-126 1008.1388,-122 930.8612,-122 930.8612,-86 1035.1388,-86 1035.1388,-122"/>
<text text-anchor="middle" x="983" y="-99.8" font-family="Times,serif" font-size="14.00" fill="#000000">ManageModule</text>
</g>
<!-- ManageModule&#45;&gt;SecureModule -->
<g id="edge15" class="edge">
<title>ManageModule&#45;&gt;SecureModule</title>
<path fill="none" stroke="#000000" d="M983,-122.0352C983,-138.7344 983,-161 983,-161 983,-161 1375.3066,-161 1375.3066,-161"/>
<polygon fill="#000000" stroke="#000000" points="1375.3066,-164.5001 1385.3066,-161 1375.3066,-157.5001 1375.3066,-164.5001"/>
</g>
<!-- OrdersModule -->
<g id="node16" class="node">
<title>OrdersModule</title>
<polygon fill="#8dd3c7" stroke="#000000" points="912.6375,-122 909.6375,-126 888.6375,-126 885.6375,-122 815.3625,-122 815.3625,-86 912.6375,-86 912.6375,-122"/>
<text text-anchor="middle" x="864" y="-99.8" font-family="Times,serif" font-size="14.00" fill="#000000">OrdersModule</text>
</g>
<!-- OrdersModule&#45;&gt;SecureModule -->
<g id="edge16" class="edge">
<title>OrdersModule&#45;&gt;SecureModule</title>
<path fill="none" stroke="#000000" d="M864,-122.302C864,-140.2699 864,-165 864,-165 864,-165 1374.9088,-165 1374.9088,-165"/>
<polygon fill="#000000" stroke="#000000" points="1374.9088,-168.5001 1384.9088,-165 1374.9087,-161.5001 1374.9088,-168.5001"/>
</g>
<!-- PendingDevolutionModule -->
<g id="node17" class="node">
<title>PendingDevolutionModule</title>
<polygon fill="#8dd3c7" stroke="#000000" points="797.4312,-122 794.4312,-126 773.4312,-126 770.4312,-122 628.5688,-122 628.5688,-86 797.4312,-86 797.4312,-122"/>
<text text-anchor="middle" x="713" y="-99.8" font-family="Times,serif" font-size="14.00" fill="#000000">PendingDevolutionModule</text>
</g>
<!-- PendingDevolutionModule&#45;&gt;SecureModule -->
<g id="edge17" class="edge">
<title>PendingDevolutionModule&#45;&gt;SecureModule</title>
<path fill="none" stroke="#000000" d="M713,-122.1686C713,-141.0898 713,-168 713,-168 713,-168 1375.2919,-168 1375.2919,-168"/>
<polygon fill="#000000" stroke="#000000" points="1375.292,-171.5001 1385.2919,-168 1375.2919,-164.5001 1375.292,-171.5001"/>
</g>
<!-- PendingModule -->
<g id="node18" class="node">
<title>PendingModule</title>
<polygon fill="#8dd3c7" stroke="#000000" points="610.9385,-122 607.9385,-126 586.9385,-126 583.9385,-122 505.0615,-122 505.0615,-86 610.9385,-86 610.9385,-122"/>
<text text-anchor="middle" x="558" y="-99.8" font-family="Times,serif" font-size="14.00" fill="#000000">PendingModule</text>
</g>
<!-- PendingModule&#45;&gt;SecureModule -->
<g id="edge18" class="edge">
<title>PendingModule&#45;&gt;SecureModule</title>
<path fill="none" stroke="#000000" d="M558,-122.308C558,-142.1455 558,-171 558,-171 558,-171 1375.3405,-171 1375.3405,-171"/>
<polygon fill="#000000" stroke="#000000" points="1375.3405,-174.5001 1385.3405,-171 1375.3404,-167.5001 1375.3405,-174.5001"/>
</g>
<!-- QuotingModule -->
<g id="node19" class="node">
<title>QuotingModule</title>
<polygon fill="#8dd3c7" stroke="#000000" points="487.9385,-122 484.9385,-126 463.9385,-126 460.9385,-122 382.0615,-122 382.0615,-86 487.9385,-86 487.9385,-122"/>
<text text-anchor="middle" x="435" y="-99.8" font-family="Times,serif" font-size="14.00" fill="#000000">QuotingModule</text>
</g>
<!-- QuotingModule&#45;&gt;SecureModule -->
<g id="edge19" class="edge">
<title>QuotingModule&#45;&gt;SecureModule</title>
<path fill="none" stroke="#000000" d="M435,-122.0267C435,-142.7672 435,-174 435,-174 435,-174 1375.1399,-174 1375.1399,-174"/>
<polygon fill="#000000" stroke="#000000" points="1375.1399,-177.5001 1385.1399,-174 1375.1399,-170.5001 1375.1399,-177.5001"/>
</g>
<!-- RegisterModule -->
<g id="node20" class="node">
<title>RegisterModule</title>
<polygon fill="#8dd3c7" stroke="#000000" points="364.2022,-122 361.2022,-126 340.2022,-126 337.2022,-122 257.7978,-122 257.7978,-86 364.2022,-86 364.2022,-122"/>
<text text-anchor="middle" x="311" y="-99.8" font-family="Times,serif" font-size="14.00" fill="#000000">RegisterModule</text>
</g>
<!-- RegisterModule&#45;&gt;SecureModule -->
<g id="edge20" class="edge">
<title>RegisterModule&#45;&gt;SecureModule</title>
<path fill="none" stroke="#000000" d="M311,-122.2921C311,-144.2057 311,-178 311,-178 311,-178 1375.024,-178 1375.024,-178"/>
<polygon fill="#000000" stroke="#000000" points="1375.024,-181.5001 1385.024,-178 1375.024,-174.5001 1375.024,-181.5001"/>
</g>
<!-- ReportsModule -->
<g id="node21" class="node">
<title>ReportsModule</title>
<polygon fill="#8dd3c7" stroke="#000000" points="239.5968,-122 236.5968,-126 215.5968,-126 212.5968,-122 136.4032,-122 136.4032,-86 239.5968,-86 239.5968,-122"/>
<text text-anchor="middle" x="188" y="-99.8" font-family="Times,serif" font-size="14.00" fill="#000000">ReportsModule</text>
</g>
<!-- ReportsModule&#45;&gt;SecureModule -->
<g id="edge21" class="edge">
<title>ReportsModule&#45;&gt;SecureModule</title>
<path fill="none" stroke="#000000" d="M188,-122.2479C188,-145.0179 188,-181 188,-181 188,-181 1375.1553,-181 1375.1553,-181"/>
<polygon fill="#000000" stroke="#000000" points="1375.1554,-184.5001 1385.1553,-181 1375.1553,-177.5001 1375.1554,-184.5001"/>
</g>
<!-- StoresModule -->
<g id="node22" class="node">
<title>StoresModule</title>
<polygon fill="#8dd3c7" stroke="#000000" points="118.0439,-122 115.0439,-126 94.0439,-126 91.0439,-122 23.9561,-122 23.9561,-86 118.0439,-86 118.0439,-122"/>
<text text-anchor="middle" x="71" y="-99.8" font-family="Times,serif" font-size="14.00" fill="#000000">StoresModule</text>
</g>
<!-- StoresModule&#45;&gt;SecureModule -->
<g id="edge22" class="edge">
<title>StoresModule&#45;&gt;SecureModule</title>
<path fill="none" stroke="#000000" d="M71,-122.1532C71,-145.7566 71,-184 71,-184 71,-184 1375.0882,-184 1375.0882,-184"/>
<polygon fill="#000000" stroke="#000000" points="1375.0883,-187.5001 1385.0882,-184 1375.0882,-180.5001 1375.0883,-187.5001"/>
</g>
</g>
</svg>
