<?xml version="1.0" encoding="UTF-8" standalone="no"?>
<!DOCTYPE svg PUBLIC "-//W3C//DTD SVG 1.1//EN"
 "http://www.w3.org/Graphics/SVG/1.1/DTD/svg11.dtd">
<!-- Generated by graphviz version 2.40.1 (20161225.0304)
 -->
<!-- Title: dependencies Pages: 1 -->
<svg width="2651pt" height="211pt"
 viewBox="0.00 0.00 2651.00 211.00" xmlns="http://www.w3.org/2000/svg" xmlns:xlink="http://www.w3.org/1999/xlink">
<g id="graph0" class="graph" transform="scale(1 1) rotate(0) translate(4 207)">
<title>dependencies</title>
<polygon fill="#ffffff" stroke="transparent" points="-4,4 -4,-207 2647,-207 2647,4 -4,4"/>
<text text-anchor="start" x="1300.5091" y="-42.4" font-family="sans-serif" font-weight="bold" font-size="14.00" fill="#000000">Legend</text>
<polygon fill="#ffffb3" stroke="transparent" points="1087.5,-10 1087.5,-30 1107.5,-30 1107.5,-10 1087.5,-10"/>
<text text-anchor="start" x="1111.129" y="-15.4" font-family="sans-serif" font-size="14.00" fill="#000000"> &#160;Declarations</text>
<polygon fill="#8dd3c7" stroke="transparent" points="1200.5,-10 1200.5,-30 1220.5,-30 1220.5,-10 1200.5,-10"/>
<text text-anchor="start" x="1224.2251" y="-15.4" font-family="sans-serif" font-size="14.00" fill="#000000"> &#160;Module</text>
<polygon fill="#80b1d3" stroke="transparent" points="1286.5,-10 1286.5,-30 1306.5,-30 1306.5,-10 1286.5,-10"/>
<text text-anchor="start" x="1310.2812" y="-15.4" font-family="sans-serif" font-size="14.00" fill="#000000"> &#160;Bootstrap</text>
<polygon fill="#fdb462" stroke="transparent" points="1383.5,-10 1383.5,-30 1403.5,-30 1403.5,-10 1383.5,-10"/>
<text text-anchor="start" x="1407.1732" y="-15.4" font-family="sans-serif" font-size="14.00" fill="#000000"> &#160;Providers</text>
<polygon fill="#fb8072" stroke="transparent" points="1479.5,-10 1479.5,-30 1499.5,-30 1499.5,-10 1479.5,-10"/>
<text text-anchor="start" x="1503.2258" y="-15.4" font-family="sans-serif" font-size="14.00" fill="#000000"> &#160;Exports</text>
<g id="clust1" class="cluster">
<title>cluster_SecureModule</title>
<polygon fill="none" stroke="#000000" stroke-dasharray="1,5" points="8,-70 8,-195 2635,-195 2635,-70 8,-70"/>
</g>
<g id="clust3" class="cluster">
<title>cluster_SecureModule_imports</title>
<polygon fill="none" stroke="#000000" points="16,-78 16,-130 2627,-130 2627,-78 16,-78"/>
</g>
<!-- AwsCognitoModule -->
<g id="node1" class="node">
<title>AwsCognitoModule</title>
<polygon fill="#8dd3c7" stroke="#000000" points="2619.3258,-122 2616.3258,-126 2595.3258,-126 2592.3258,-122 2488.6742,-122 2488.6742,-86 2619.3258,-86 2619.3258,-122"/>
<text text-anchor="middle" x="2554" y="-99.8" font-family="Times,serif" font-size="14.00" fill="#000000">AwsCognitoModule</text>
</g>
<!-- SecureModule -->
<g id="node21" class="node">
<title>SecureModule</title>
<polygon fill="#8dd3c7" stroke="#000000" points="1345.6375,-187 1342.6375,-191 1321.6375,-191 1318.6375,-187 1248.3625,-187 1248.3625,-151 1345.6375,-151 1345.6375,-187"/>
<text text-anchor="middle" x="1297" y="-164.8" font-family="Times,serif" font-size="14.00" fill="#000000">SecureModule</text>
</g>
<!-- AwsCognitoModule&#45;&gt;SecureModule -->
<g id="edge1" class="edge">
<title>AwsCognitoModule&#45;&gt;SecureModule</title>
<path fill="none" stroke="#000000" d="M2554,-122.1532C2554,-145.7566 2554,-184 2554,-184 2554,-184 1355.8901,-184 1355.8901,-184"/>
<polygon fill="#000000" stroke="#000000" points="1355.8901,-180.5001 1345.8901,-184 1355.8901,-187.5001 1355.8901,-180.5001"/>
</g>
<!-- BillingModule -->
<g id="node2" class="node">
<title>BillingModule</title>
<polygon fill="#8dd3c7" stroke="#000000" points="2471.4498,-122 2468.4498,-126 2447.4498,-126 2444.4498,-122 2372.5502,-122 2372.5502,-86 2471.4498,-86 2471.4498,-122"/>
<text text-anchor="middle" x="2422" y="-99.8" font-family="Times,serif" font-size="14.00" fill="#000000">BillingModule</text>
</g>
<!-- BillingModule&#45;&gt;SecureModule -->
<g id="edge2" class="edge">
<title>BillingModule&#45;&gt;SecureModule</title>
<path fill="none" stroke="#000000" d="M2422,-122.0109C2422,-144.4852 2422,-180 2422,-180 2422,-180 1355.7009,-180 1355.7009,-180"/>
<polygon fill="#000000" stroke="#000000" points="1355.701,-176.5001 1345.7009,-180 1355.7009,-183.5001 1355.701,-176.5001"/>
</g>
<!-- BulkLoadModule -->
<g id="node3" class="node">
<title>BulkLoadModule</title>
<polygon fill="#8dd3c7" stroke="#000000" points="2354.5451,-122 2351.5451,-126 2330.5451,-126 2327.5451,-122 2239.4549,-122 2239.4549,-86 2354.5451,-86 2354.5451,-122"/>
<text text-anchor="middle" x="2297" y="-99.8" font-family="Times,serif" font-size="14.00" fill="#000000">BulkLoadModule</text>
</g>
<!-- BulkLoadModule&#45;&gt;SecureModule -->
<g id="edge3" class="edge">
<title>BulkLoadModule&#45;&gt;SecureModule</title>
<path fill="none" stroke="#000000" d="M2297,-122.0449C2297,-143.6623 2297,-177 2297,-177 2297,-177 1355.909,-177 1355.909,-177"/>
<polygon fill="#000000" stroke="#000000" points="1355.9091,-173.5001 1345.909,-177 1355.909,-180.5001 1355.9091,-173.5001"/>
</g>
<!-- BulkLoadProductModule -->
<g id="node4" class="node">
<title>BulkLoadProductModule</title>
<polygon fill="#8dd3c7" stroke="#000000" points="2221.5926,-122 2218.5926,-126 2197.5926,-126 2194.5926,-122 2062.4074,-122 2062.4074,-86 2221.5926,-86 2221.5926,-122"/>
<text text-anchor="middle" x="2142" y="-99.8" font-family="Times,serif" font-size="14.00" fill="#000000">BulkLoadProductModule</text>
</g>
<!-- BulkLoadProductModule&#45;&gt;SecureModule -->
<g id="edge4" class="edge">
<title>BulkLoadProductModule&#45;&gt;SecureModule</title>
<path fill="none" stroke="#000000" d="M2142,-122.1289C2142,-142.5724 2142,-173 2142,-173 2142,-173 1355.7741,-173 1355.7741,-173"/>
<polygon fill="#000000" stroke="#000000" points="1355.7741,-169.5001 1345.7741,-173 1355.774,-176.5001 1355.7741,-169.5001"/>
</g>
<!-- DetailModule -->
<g id="node5" class="node">
<title>DetailModule</title>
<polygon fill="#8dd3c7" stroke="#000000" points="2044.7577,-122 2041.7577,-126 2020.7577,-126 2017.7577,-122 1951.2423,-122 1951.2423,-86 2044.7577,-86 2044.7577,-122"/>
<text text-anchor="middle" x="1998" y="-99.8" font-family="Times,serif" font-size="14.00" fill="#000000">DetailModule</text>
</g>
<!-- DetailModule&#45;&gt;SecureModule -->
<g id="edge5" class="edge">
<title>DetailModule&#45;&gt;SecureModule</title>
<path fill="none" stroke="#000000" d="M1998,-122.1061C1998,-141.3391 1998,-169 1998,-169 1998,-169 1355.7364,-169 1355.7364,-169"/>
<polygon fill="#000000" stroke="#000000" points="1355.7364,-165.5001 1345.7364,-169 1355.7364,-172.5001 1355.7364,-165.5001"/>
</g>
<!-- DispatchModule -->
<g id="node6" class="node">
<title>DispatchModule</title>
<polygon fill="#8dd3c7" stroke="#000000" points="1932.8118,-122 1929.8118,-126 1908.8118,-126 1905.8118,-122 1823.1882,-122 1823.1882,-86 1932.8118,-86 1932.8118,-122"/>
<text text-anchor="middle" x="1878" y="-99.8" font-family="Times,serif" font-size="14.00" fill="#000000">DispatchModule</text>
</g>
<!-- DispatchModule&#45;&gt;SecureModule -->
<g id="edge6" class="edge">
<title>DispatchModule&#45;&gt;SecureModule</title>
<path fill="none" stroke="#000000" d="M1878,-122.2667C1878,-140.5552 1878,-166 1878,-166 1878,-166 1356.035,-166 1356.035,-166"/>
<polygon fill="#000000" stroke="#000000" points="1356.035,-162.5001 1346.035,-166 1356.035,-169.5001 1356.035,-162.5001"/>
</g>
<!-- ErrorModule -->
<g id="node7" class="node">
<title>ErrorModule</title>
<polygon fill="#8dd3c7" stroke="#000000" points="1805.5842,-122 1802.5842,-126 1781.5842,-126 1778.5842,-122 1716.4158,-122 1716.4158,-86 1805.5842,-86 1805.5842,-122"/>
<text text-anchor="middle" x="1761" y="-99.8" font-family="Times,serif" font-size="14.00" fill="#000000">ErrorModule</text>
</g>
<!-- ErrorModule&#45;&gt;SecureModule -->
<g id="edge7" class="edge">
<title>ErrorModule&#45;&gt;SecureModule</title>
<path fill="none" stroke="#000000" d="M1761,-122.0336C1761,-139.0597 1761,-162 1761,-162 1761,-162 1355.7791,-162 1355.7791,-162"/>
<polygon fill="#000000" stroke="#000000" points="1355.7792,-158.5001 1345.7791,-162 1355.7791,-165.5001 1355.7792,-158.5001"/>
</g>
<!-- HistoricModule -->
<g id="node8" class="node">
<title>HistoricModule</title>
<polygon fill="#8dd3c7" stroke="#000000" points="1698.1486,-122 1695.1486,-126 1674.1486,-126 1671.1486,-122 1593.8514,-122 1593.8514,-86 1698.1486,-86 1698.1486,-122"/>
<text text-anchor="middle" x="1646" y="-99.8" font-family="Times,serif" font-size="14.00" fill="#000000">HistoricModule</text>
</g>
<!-- HistoricModule&#45;&gt;SecureModule -->
<g id="edge8" class="edge">
<title>HistoricModule&#45;&gt;SecureModule</title>
<path fill="none" stroke="#000000" d="M1646,-122.0091C1646,-138.0494 1646,-159 1646,-159 1646,-159 1355.8944,-159 1355.8944,-159"/>
<polygon fill="#000000" stroke="#000000" points="1355.8945,-155.5001 1345.8944,-159 1355.8944,-162.5001 1355.8945,-155.5001"/>
</g>
<!-- InDevolutionModule -->
<g id="node9" class="node">
<title>InDevolutionModule</title>
<polygon fill="#8dd3c7" stroke="#000000" points="1576.2036,-122 1573.2036,-126 1552.2036,-126 1549.2036,-122 1441.7964,-122 1441.7964,-86 1576.2036,-86 1576.2036,-122"/>
<text text-anchor="middle" x="1509" y="-99.8" font-family="Times,serif" font-size="14.00" fill="#000000">InDevolutionModule</text>
</g>
<!-- InDevolutionModule&#45;&gt;SecureModule -->
<g id="edge9" class="edge">
<title>InDevolutionModule&#45;&gt;SecureModule</title>
<path fill="none" stroke="#000000" d="M1509,-122.1243C1509,-136.7832 1509,-155 1509,-155 1509,-155 1355.9033,-155 1355.9033,-155"/>
<polygon fill="#000000" stroke="#000000" points="1355.9033,-151.5001 1345.9033,-155 1355.9032,-158.5001 1355.9033,-151.5001"/>
</g>
<!-- InValidationModule -->
<g id="node10" class="node">
<title>InValidationModule</title>
<polygon fill="#8dd3c7" stroke="#000000" points="1424.309,-122 1421.309,-126 1400.309,-126 1397.309,-122 1293.691,-122 1293.691,-86 1424.309,-86 1424.309,-122"/>
<text text-anchor="middle" x="1359" y="-99.8" font-family="Times,serif" font-size="14.00" fill="#000000">InValidationModule</text>
</g>
<!-- InValidationModule&#45;&gt;SecureModule -->
<g id="edge10" class="edge">
<title>InValidationModule&#45;&gt;SecureModule</title>
<path fill="none" stroke="#000000" d="M1319.8321,-122.1061C1319.8321,-122.1061 1319.8321,-140.991 1319.8321,-140.991"/>
<polygon fill="#000000" stroke="#000000" points="1316.3321,-140.9909 1319.8321,-150.991 1323.3321,-140.991 1316.3321,-140.9909"/>
</g>
<!-- ListModule -->
<g id="node11" class="node">
<title>ListModule</title>
<polygon fill="#8dd3c7" stroke="#000000" points="1275.8289,-122 1272.8289,-126 1251.8289,-126 1248.8289,-122 1194.1711,-122 1194.1711,-86 1275.8289,-86 1275.8289,-122"/>
<text text-anchor="middle" x="1235" y="-99.8" font-family="Times,serif" font-size="14.00" fill="#000000">ListModule</text>
</g>
<!-- ListModule&#45;&gt;SecureModule -->
<g id="edge11" class="edge">
<title>ListModule&#45;&gt;SecureModule</title>
<path fill="none" stroke="#000000" d="M1261.9229,-122.1061C1261.9229,-122.1061 1261.9229,-140.991 1261.9229,-140.991"/>
<polygon fill="#000000" stroke="#000000" points="1258.4229,-140.9909 1261.9229,-150.991 1265.4229,-140.991 1258.4229,-140.9909"/>
</g>
<!-- LoadGuideModule -->
<g id="node12" class="node">
<title>LoadGuideModule</title>
<polygon fill="#8dd3c7" stroke="#000000" points="1176.0297,-122 1173.0297,-126 1152.0297,-126 1149.0297,-122 1053.9703,-122 1053.9703,-86 1176.0297,-86 1176.0297,-122"/>
<text text-anchor="middle" x="1115" y="-99.8" font-family="Times,serif" font-size="14.00" fill="#000000">LoadGuideModule</text>
</g>
<!-- LoadGuideModule&#45;&gt;SecureModule -->
<g id="edge12" class="edge">
<title>LoadGuideModule&#45;&gt;SecureModule</title>
<path fill="none" stroke="#000000" d="M1115,-122.1243C1115,-136.7832 1115,-155 1115,-155 1115,-155 1238.2273,-155 1238.2273,-155"/>
<polygon fill="#000000" stroke="#000000" points="1238.2274,-158.5001 1248.2273,-155 1238.2273,-151.5001 1238.2274,-158.5001"/>
</g>
<!-- ManageModule -->
<g id="node13" class="node">
<title>ManageModule</title>
<polygon fill="#8dd3c7" stroke="#000000" points="1035.1388,-122 1032.1388,-126 1011.1388,-126 1008.1388,-122 930.8612,-122 930.8612,-86 1035.1388,-86 1035.1388,-122"/>
<text text-anchor="middle" x="983" y="-99.8" font-family="Times,serif" font-size="14.00" fill="#000000">ManageModule</text>
</g>
<!-- ManageModule&#45;&gt;SecureModule -->
<g id="edge13" class="edge">
<title>ManageModule&#45;&gt;SecureModule</title>
<path fill="none" stroke="#000000" d="M983,-122.0091C983,-138.0494 983,-159 983,-159 983,-159 1238.282,-159 1238.282,-159"/>
<polygon fill="#000000" stroke="#000000" points="1238.2821,-162.5001 1248.282,-159 1238.282,-155.5001 1238.2821,-162.5001"/>
</g>
<!-- OrdersModule -->
<g id="node14" class="node">
<title>OrdersModule</title>
<polygon fill="#8dd3c7" stroke="#000000" points="912.6375,-122 909.6375,-126 888.6375,-126 885.6375,-122 815.3625,-122 815.3625,-86 912.6375,-86 912.6375,-122"/>
<text text-anchor="middle" x="864" y="-99.8" font-family="Times,serif" font-size="14.00" fill="#000000">OrdersModule</text>
</g>
<!-- OrdersModule&#45;&gt;SecureModule -->
<g id="edge14" class="edge">
<title>OrdersModule&#45;&gt;SecureModule</title>
<path fill="none" stroke="#000000" d="M864,-122.0336C864,-139.0597 864,-162 864,-162 864,-162 1238.1711,-162 1238.1711,-162"/>
<polygon fill="#000000" stroke="#000000" points="1238.1711,-165.5001 1248.1711,-162 1238.1711,-158.5001 1238.1711,-165.5001"/>
</g>
<!-- PendingDevolutionModule -->
<g id="node15" class="node">
<title>PendingDevolutionModule</title>
<polygon fill="#8dd3c7" stroke="#000000" points="797.4312,-122 794.4312,-126 773.4312,-126 770.4312,-122 628.5688,-122 628.5688,-86 797.4312,-86 797.4312,-122"/>
<text text-anchor="middle" x="713" y="-99.8" font-family="Times,serif" font-size="14.00" fill="#000000">PendingDevolutionModule</text>
</g>
<!-- PendingDevolutionModule&#45;&gt;SecureModule -->
<g id="edge15" class="edge">
<title>PendingDevolutionModule&#45;&gt;SecureModule</title>
<path fill="none" stroke="#000000" d="M713,-122.2667C713,-140.5552 713,-166 713,-166 713,-166 1238.213,-166 1238.213,-166"/>
<polygon fill="#000000" stroke="#000000" points="1238.213,-169.5001 1248.213,-166 1238.2129,-162.5001 1238.213,-169.5001"/>
</g>
<!-- PendingModule -->
<g id="node16" class="node">
<title>PendingModule</title>
<polygon fill="#8dd3c7" stroke="#000000" points="610.9385,-122 607.9385,-126 586.9385,-126 583.9385,-122 505.0615,-122 505.0615,-86 610.9385,-86 610.9385,-122"/>
<text text-anchor="middle" x="558" y="-99.8" font-family="Times,serif" font-size="14.00" fill="#000000">PendingModule</text>
</g>
<!-- PendingModule&#45;&gt;SecureModule -->
<g id="edge16" class="edge">
<title>PendingModule&#45;&gt;SecureModule</title>
<path fill="none" stroke="#000000" d="M558,-122.1061C558,-141.3391 558,-169 558,-169 558,-169 1238.2264,-169 1238.2264,-169"/>
<polygon fill="#000000" stroke="#000000" points="1238.2264,-172.5001 1248.2264,-169 1238.2263,-165.5001 1238.2264,-172.5001"/>
</g>
<!-- QuotingModule -->
<g id="node17" class="node">
<title>QuotingModule</title>
<polygon fill="#8dd3c7" stroke="#000000" points="487.9385,-122 484.9385,-126 463.9385,-126 460.9385,-122 382.0615,-122 382.0615,-86 487.9385,-86 487.9385,-122"/>
<text text-anchor="middle" x="435" y="-99.8" font-family="Times,serif" font-size="14.00" fill="#000000">QuotingModule</text>
</g>
<!-- QuotingModule&#45;&gt;SecureModule -->
<g id="edge17" class="edge">
<title>QuotingModule&#45;&gt;SecureModule</title>
<path fill="none" stroke="#000000" d="M435,-122.1289C435,-142.5724 435,-173 435,-173 435,-173 1238.1853,-173 1238.1853,-173"/>
<polygon fill="#000000" stroke="#000000" points="1238.1854,-176.5001 1248.1853,-173 1238.1853,-169.5001 1238.1854,-176.5001"/>
</g>
<!-- RegisterModule -->
<g id="node18" class="node">
<title>RegisterModule</title>
<polygon fill="#8dd3c7" stroke="#000000" points="364.2022,-122 361.2022,-126 340.2022,-126 337.2022,-122 257.7978,-122 257.7978,-86 364.2022,-86 364.2022,-122"/>
<text text-anchor="middle" x="311" y="-99.8" font-family="Times,serif" font-size="14.00" fill="#000000">RegisterModule</text>
</g>
<!-- RegisterModule&#45;&gt;SecureModule -->
<g id="edge18" class="edge">
<title>RegisterModule&#45;&gt;SecureModule</title>
<path fill="none" stroke="#000000" d="M311,-122.0449C311,-143.6623 311,-177 311,-177 311,-177 1238.1041,-177 1238.1041,-177"/>
<polygon fill="#000000" stroke="#000000" points="1238.1041,-180.5001 1248.1041,-177 1238.1041,-173.5001 1238.1041,-180.5001"/>
</g>
<!-- ReportsModule -->
<g id="node19" class="node">
<title>ReportsModule</title>
<polygon fill="#8dd3c7" stroke="#000000" points="239.5968,-122 236.5968,-126 215.5968,-126 212.5968,-122 136.4032,-122 136.4032,-86 239.5968,-86 239.5968,-122"/>
<text text-anchor="middle" x="188" y="-99.8" font-family="Times,serif" font-size="14.00" fill="#000000">ReportsModule</text>
</g>
<!-- ReportsModule&#45;&gt;SecureModule -->
<g id="edge19" class="edge">
<title>ReportsModule&#45;&gt;SecureModule</title>
<path fill="none" stroke="#000000" d="M188,-122.0109C188,-144.4852 188,-180 188,-180 188,-180 1238.2762,-180 1238.2762,-180"/>
<polygon fill="#000000" stroke="#000000" points="1238.2763,-183.5001 1248.2762,-180 1238.2762,-176.5001 1238.2763,-183.5001"/>
</g>
<!-- StoresModule -->
<g id="node20" class="node">
<title>StoresModule</title>
<polygon fill="#8dd3c7" stroke="#000000" points="118.0439,-122 115.0439,-126 94.0439,-126 91.0439,-122 23.9561,-122 23.9561,-86 118.0439,-86 118.0439,-122"/>
<text text-anchor="middle" x="71" y="-99.8" font-family="Times,serif" font-size="14.00" fill="#000000">StoresModule</text>
</g>
<!-- StoresModule&#45;&gt;SecureModule -->
<g id="edge20" class="edge">
<title>StoresModule&#45;&gt;SecureModule</title>
<path fill="none" stroke="#000000" d="M71,-122.1532C71,-145.7566 71,-184 71,-184 71,-184 1238.1828,-184 1238.1828,-184"/>
<polygon fill="#000000" stroke="#000000" points="1238.1828,-187.5001 1248.1828,-184 1238.1828,-180.5001 1238.1828,-187.5001"/>
</g>
</g>
</svg>
