<?xml version="1.0" encoding="UTF-8" standalone="no"?>
<!DOCTYPE svg PUBLIC "-//W3C//DTD SVG 1.1//EN"
 "http://www.w3.org/Graphics/SVG/1.1/DTD/svg11.dtd">
<!-- Generated by graphviz version 2.40.1 (20161225.0304)
 -->
<!-- Title: dependencies Pages: 1 -->
<svg width="649pt" height="284pt"
 viewBox="0.00 0.00 649.00 284.00" xmlns="http://www.w3.org/2000/svg" xmlns:xlink="http://www.w3.org/1999/xlink">
<g id="graph0" class="graph" transform="scale(1 1) rotate(0) translate(4 280)">
<title>dependencies</title>
<polygon fill="#ffffff" stroke="transparent" points="-4,4 -4,-280 645,-280 645,4 -4,4"/>
<text text-anchor="start" x="299.5091" y="-42.4" font-family="sans-serif" font-weight="bold" font-size="14.00" fill="#000000">Legend</text>
<polygon fill="#ffffb3" stroke="transparent" points="86.5,-10 86.5,-30 106.5,-30 106.5,-10 86.5,-10"/>
<text text-anchor="start" x="110.129" y="-15.4" font-family="sans-serif" font-size="14.00" fill="#000000"> &#160;Declarations</text>
<polygon fill="#8dd3c7" stroke="transparent" points="199.5,-10 199.5,-30 219.5,-30 219.5,-10 199.5,-10"/>
<text text-anchor="start" x="223.2251" y="-15.4" font-family="sans-serif" font-size="14.00" fill="#000000"> &#160;Module</text>
<polygon fill="#80b1d3" stroke="transparent" points="285.5,-10 285.5,-30 305.5,-30 305.5,-10 285.5,-10"/>
<text text-anchor="start" x="309.2812" y="-15.4" font-family="sans-serif" font-size="14.00" fill="#000000"> &#160;Bootstrap</text>
<polygon fill="#fdb462" stroke="transparent" points="382.5,-10 382.5,-30 402.5,-30 402.5,-10 382.5,-10"/>
<text text-anchor="start" x="406.1732" y="-15.4" font-family="sans-serif" font-size="14.00" fill="#000000"> &#160;Providers</text>
<polygon fill="#fb8072" stroke="transparent" points="478.5,-10 478.5,-30 498.5,-30 498.5,-10 478.5,-10"/>
<text text-anchor="start" x="502.2258" y="-15.4" font-family="sans-serif" font-size="14.00" fill="#000000"> &#160;Exports</text>
<g id="clust1" class="cluster">
<title>cluster_ReportsModule</title>
<polygon fill="none" stroke="#000000" stroke-dasharray="1,5" points="8,-70 8,-268 633,-268 633,-70 8,-70"/>
</g>
<g id="clust2" class="cluster">
<title>cluster_ReportsModule_declarations</title>
<polygon fill="none" stroke="#000000" points="485,-78 485,-130 625,-130 625,-78 485,-78"/>
</g>
<g id="clust4" class="cluster">
<title>cluster_ReportsModule_imports</title>
<polygon fill="none" stroke="#000000" points="202,-78 202,-130 477,-130 477,-78 202,-78"/>
</g>
<g id="clust5" class="cluster">
<title>cluster_ReportsModule_exports</title>
<polygon fill="none" stroke="#000000" points="256,-208 256,-260 400,-260 400,-208 256,-208"/>
</g>
<g id="clust7" class="cluster">
<title>cluster_ReportsModule_providers</title>
<polygon fill="none" stroke="#000000" points="16,-78 16,-130 194,-130 194,-78 16,-78"/>
</g>
<!-- ReportsComponent -->
<g id="node1" class="node">
<title>ReportsComponent</title>
<polygon fill="#ffffb3" stroke="#000000" points="617.3795,-122 492.6205,-122 492.6205,-86 617.3795,-86 617.3795,-122"/>
<text text-anchor="middle" x="555" y="-99.8" font-family="Times,serif" font-size="14.00" fill="#000000">ReportsComponent</text>
</g>
<!-- ReportsModule -->
<g id="node2" class="node">
<title>ReportsModule</title>
<polygon fill="#8dd3c7" stroke="#000000" points="379.5968,-187 376.5968,-191 355.5968,-191 352.5968,-187 276.4032,-187 276.4032,-151 379.5968,-151 379.5968,-187"/>
<text text-anchor="middle" x="328" y="-164.8" font-family="Times,serif" font-size="14.00" fill="#000000">ReportsModule</text>
</g>
<!-- ReportsComponent&#45;&gt;ReportsModule -->
<g id="edge1" class="edge">
<title>ReportsComponent&#45;&gt;ReportsModule</title>
<path fill="none" stroke="#000000" d="M555,-122.1061C555,-141.3391 555,-169 555,-169 555,-169 389.7939,-169 389.7939,-169"/>
<polygon fill="#000000" stroke="#000000" points="389.7939,-165.5001 379.7939,-169 389.7938,-172.5001 389.7939,-165.5001"/>
</g>
<!-- ReportsComponent  -->
<g id="node5" class="node">
<title>ReportsComponent </title>
<polygon fill="#fb8072" stroke="#000000" points="392.38,-252 263.62,-252 263.62,-216 392.38,-216 392.38,-252"/>
<text text-anchor="middle" x="328" y="-229.8" font-family="Times,serif" font-size="14.00" fill="#000000">ReportsComponent </text>
</g>
<!-- ReportsModule&#45;&gt;ReportsComponent  -->
<g id="edge4" class="edge">
<title>ReportsModule&#45;&gt;ReportsComponent </title>
<path fill="none" stroke="#000000" stroke-dasharray="5,2" d="M328,-187.1061C328,-187.1061 328,-205.991 328,-205.991"/>
<polygon fill="#000000" stroke="#000000" points="324.5001,-205.9909 328,-215.991 331.5001,-205.991 324.5001,-205.9909"/>
</g>
<!-- ReportRoutingModule -->
<g id="node3" class="node">
<title>ReportRoutingModule</title>
<polygon fill="#8dd3c7" stroke="#000000" points="469.2702,-122 466.2702,-126 445.2702,-126 442.2702,-122 326.7298,-122 326.7298,-86 469.2702,-86 469.2702,-122"/>
<text text-anchor="middle" x="398" y="-99.8" font-family="Times,serif" font-size="14.00" fill="#000000">ReportRoutingModule</text>
</g>
<!-- ReportRoutingModule&#45;&gt;ReportsModule -->
<g id="edge2" class="edge">
<title>ReportRoutingModule&#45;&gt;ReportsModule</title>
<path fill="none" stroke="#000000" d="M353.0817,-122.1061C353.0817,-122.1061 353.0817,-140.991 353.0817,-140.991"/>
<polygon fill="#000000" stroke="#000000" points="349.5818,-140.9909 353.0817,-150.991 356.5818,-140.991 349.5818,-140.9909"/>
</g>
<!-- SharedModule -->
<g id="node4" class="node">
<title>SharedModule</title>
<polygon fill="#8dd3c7" stroke="#000000" points="308.4231,-122 305.4231,-126 284.4231,-126 281.4231,-122 209.5769,-122 209.5769,-86 308.4231,-86 308.4231,-122"/>
<text text-anchor="middle" x="259" y="-99.8" font-family="Times,serif" font-size="14.00" fill="#000000">SharedModule</text>
</g>
<!-- SharedModule&#45;&gt;ReportsModule -->
<g id="edge3" class="edge">
<title>SharedModule&#45;&gt;ReportsModule</title>
<path fill="none" stroke="#000000" d="M292.3314,-122.1061C292.3314,-122.1061 292.3314,-140.991 292.3314,-140.991"/>
<polygon fill="#000000" stroke="#000000" points="288.8314,-140.9909 292.3314,-150.991 295.8314,-140.991 288.8314,-140.9909"/>
</g>
<!-- ShipmentsService -->
<g id="node6" class="node">
<title>ShipmentsService</title>
<ellipse fill="#fdb462" stroke="#000000" cx="105" cy="-104" rx="80.5354" ry="18"/>
<text text-anchor="middle" x="105" y="-99.8" font-family="Times,serif" font-size="14.00" fill="#000000">ShipmentsService</text>
</g>
<!-- ShipmentsService&#45;&gt;ReportsModule -->
<g id="edge5" class="edge">
<title>ShipmentsService&#45;&gt;ReportsModule</title>
<path fill="none" stroke="#000000" d="M105,-122.1061C105,-141.3391 105,-169 105,-169 105,-169 266.2788,-169 266.2788,-169"/>
<polygon fill="#000000" stroke="#000000" points="266.2788,-172.5001 276.2788,-169 266.2788,-165.5001 266.2788,-172.5001"/>
</g>
</g>
</svg>
