<?xml version="1.0" encoding="UTF-8" standalone="no"?>
<!DOCTYPE svg PUBLIC "-//W3C//DTD SVG 1.1//EN"
 "http://www.w3.org/Graphics/SVG/1.1/DTD/svg11.dtd">
<!-- Generated by graphviz version 2.40.1 (20161225.0304)
 -->
<!-- Title: dependencies Pages: 1 -->
<svg width="1106pt" height="284pt"
 viewBox="0.00 0.00 1106.00 284.00" xmlns="http://www.w3.org/2000/svg" xmlns:xlink="http://www.w3.org/1999/xlink">
<g id="graph0" class="graph" transform="scale(1 1) rotate(0) translate(4 280)">
<title>dependencies</title>
<polygon fill="#ffffff" stroke="transparent" points="-4,4 -4,-280 1102,-280 1102,4 -4,4"/>
<text text-anchor="start" x="528.0091" y="-42.4" font-family="sans-serif" font-weight="bold" font-size="14.00" fill="#000000">Legend</text>
<polygon fill="#ffffb3" stroke="transparent" points="315,-10 315,-30 335,-30 335,-10 315,-10"/>
<text text-anchor="start" x="338.629" y="-15.4" font-family="sans-serif" font-size="14.00" fill="#000000"> &#160;Declarations</text>
<polygon fill="#8dd3c7" stroke="transparent" points="428,-10 428,-30 448,-30 448,-10 428,-10"/>
<text text-anchor="start" x="451.7251" y="-15.4" font-family="sans-serif" font-size="14.00" fill="#000000"> &#160;Module</text>
<polygon fill="#80b1d3" stroke="transparent" points="514,-10 514,-30 534,-30 534,-10 514,-10"/>
<text text-anchor="start" x="537.7812" y="-15.4" font-family="sans-serif" font-size="14.00" fill="#000000"> &#160;Bootstrap</text>
<polygon fill="#fdb462" stroke="transparent" points="611,-10 611,-30 631,-30 631,-10 611,-10"/>
<text text-anchor="start" x="634.6732" y="-15.4" font-family="sans-serif" font-size="14.00" fill="#000000"> &#160;Providers</text>
<polygon fill="#fb8072" stroke="transparent" points="707,-10 707,-30 727,-30 727,-10 707,-10"/>
<text text-anchor="start" x="730.7258" y="-15.4" font-family="sans-serif" font-size="14.00" fill="#000000"> &#160;Exports</text>
<g id="clust1" class="cluster">
<title>cluster_ReportsModule</title>
<polygon fill="none" stroke="#000000" stroke-dasharray="1,5" points="8,-70 8,-268 1090,-268 1090,-70 8,-70"/>
</g>
<g id="clust2" class="cluster">
<title>cluster_ReportsModule_declarations</title>
<polygon fill="none" stroke="#000000" points="942,-78 942,-130 1082,-130 1082,-78 942,-78"/>
</g>
<g id="clust4" class="cluster">
<title>cluster_ReportsModule_imports</title>
<polygon fill="none" stroke="#000000" points="336,-78 336,-130 934,-130 934,-78 336,-78"/>
</g>
<g id="clust5" class="cluster">
<title>cluster_ReportsModule_exports</title>
<polygon fill="none" stroke="#000000" points="503,-208 503,-260 647,-260 647,-208 503,-208"/>
</g>
<g id="clust7" class="cluster">
<title>cluster_ReportsModule_providers</title>
<polygon fill="none" stroke="#000000" points="16,-78 16,-130 328,-130 328,-78 16,-78"/>
</g>
<!-- ReportsComponent -->
<g id="node1" class="node">
<title>ReportsComponent</title>
<polygon fill="#ffffb3" stroke="#000000" points="1074.3795,-122 949.6205,-122 949.6205,-86 1074.3795,-86 1074.3795,-122"/>
<text text-anchor="middle" x="1012" y="-99.8" font-family="Times,serif" font-size="14.00" fill="#000000">ReportsComponent</text>
</g>
<!-- ReportsModule -->
<g id="node2" class="node">
<title>ReportsModule</title>
<polygon fill="#8dd3c7" stroke="#000000" points="626.5968,-187 623.5968,-191 602.5968,-191 599.5968,-187 523.4032,-187 523.4032,-151 626.5968,-151 626.5968,-187"/>
<text text-anchor="middle" x="575" y="-164.8" font-family="Times,serif" font-size="14.00" fill="#000000">ReportsModule</text>
</g>
<!-- ReportsComponent&#45;&gt;ReportsModule -->
<g id="edge1" class="edge">
<title>ReportsComponent&#45;&gt;ReportsModule</title>
<path fill="none" stroke="#000000" d="M1012,-122.2921C1012,-144.2057 1012,-178 1012,-178 1012,-178 636.8457,-178 636.8457,-178"/>
<polygon fill="#000000" stroke="#000000" points="636.8457,-174.5001 626.8457,-178 636.8457,-181.5001 636.8457,-174.5001"/>
</g>
<!-- ReportsComponent  -->
<g id="node7" class="node">
<title>ReportsComponent </title>
<polygon fill="#fb8072" stroke="#000000" points="639.38,-252 510.62,-252 510.62,-216 639.38,-216 639.38,-252"/>
<text text-anchor="middle" x="575" y="-229.8" font-family="Times,serif" font-size="14.00" fill="#000000">ReportsComponent </text>
</g>
<!-- ReportsModule&#45;&gt;ReportsComponent  -->
<g id="edge6" class="edge">
<title>ReportsModule&#45;&gt;ReportsComponent </title>
<path fill="none" stroke="#000000" stroke-dasharray="5,2" d="M575,-187.1061C575,-187.1061 575,-205.991 575,-205.991"/>
<polygon fill="#000000" stroke="#000000" points="571.5001,-205.9909 575,-215.991 578.5001,-205.991 571.5001,-205.9909"/>
</g>
<!-- MaterialModule -->
<g id="node3" class="node">
<title>MaterialModule</title>
<polygon fill="#8dd3c7" stroke="#000000" points="926.4706,-122 923.4706,-126 902.4706,-126 899.4706,-122 819.5294,-122 819.5294,-86 926.4706,-86 926.4706,-122"/>
<text text-anchor="middle" x="873" y="-99.8" font-family="Times,serif" font-size="14.00" fill="#000000">MaterialModule</text>
</g>
<!-- MaterialModule&#45;&gt;ReportsModule -->
<g id="edge2" class="edge">
<title>MaterialModule&#45;&gt;ReportsModule</title>
<path fill="none" stroke="#000000" d="M873,-122.1061C873,-141.3391 873,-169 873,-169 873,-169 636.5674,-169 636.5674,-169"/>
<polygon fill="#000000" stroke="#000000" points="636.5675,-165.5001 626.5674,-169 636.5674,-172.5001 636.5675,-165.5001"/>
</g>
<!-- ReportRoutingModule -->
<g id="node4" class="node">
<title>ReportRoutingModule</title>
<polygon fill="#8dd3c7" stroke="#000000" points="801.2702,-122 798.2702,-126 777.2702,-126 774.2702,-122 658.7298,-122 658.7298,-86 801.2702,-86 801.2702,-122"/>
<text text-anchor="middle" x="730" y="-99.8" font-family="Times,serif" font-size="14.00" fill="#000000">ReportRoutingModule</text>
</g>
<!-- ReportRoutingModule&#45;&gt;ReportsModule -->
<g id="edge3" class="edge">
<title>ReportRoutingModule&#45;&gt;ReportsModule</title>
<path fill="none" stroke="#000000" d="M730,-122.027C730,-138.3976 730,-160 730,-160 730,-160 636.6128,-160 636.6128,-160"/>
<polygon fill="#000000" stroke="#000000" points="636.6128,-156.5001 626.6128,-160 636.6127,-163.5001 636.6128,-156.5001"/>
</g>
<!-- ToolbarLinkModule -->
<g id="node5" class="node">
<title>ToolbarLinkModule</title>
<polygon fill="#8dd3c7" stroke="#000000" points="640.3118,-122 637.3118,-126 616.3118,-126 613.3118,-122 509.6882,-122 509.6882,-86 640.3118,-86 640.3118,-122"/>
<text text-anchor="middle" x="575" y="-99.8" font-family="Times,serif" font-size="14.00" fill="#000000">ToolbarLinkModule</text>
</g>
<!-- ToolbarLinkModule&#45;&gt;ReportsModule -->
<g id="edge4" class="edge">
<title>ToolbarLinkModule&#45;&gt;ReportsModule</title>
<path fill="none" stroke="#000000" d="M575,-122.1061C575,-122.1061 575,-140.991 575,-140.991"/>
<polygon fill="#000000" stroke="#000000" points="571.5001,-140.9909 575,-150.991 578.5001,-140.991 571.5001,-140.9909"/>
</g>
<!-- ToolbarOptionsModule -->
<g id="node6" class="node">
<title>ToolbarOptionsModule</title>
<polygon fill="#8dd3c7" stroke="#000000" points="492.2007,-122 489.2007,-126 468.2007,-126 465.2007,-122 343.7993,-122 343.7993,-86 492.2007,-86 492.2007,-122"/>
<text text-anchor="middle" x="418" y="-99.8" font-family="Times,serif" font-size="14.00" fill="#000000">ToolbarOptionsModule</text>
</g>
<!-- ToolbarOptionsModule&#45;&gt;ReportsModule -->
<g id="edge5" class="edge">
<title>ToolbarOptionsModule&#45;&gt;ReportsModule</title>
<path fill="none" stroke="#000000" d="M418,-122.027C418,-138.3976 418,-160 418,-160 418,-160 513.1572,-160 513.1572,-160"/>
<polygon fill="#000000" stroke="#000000" points="513.1572,-163.5001 523.1572,-160 513.1572,-156.5001 513.1572,-163.5001"/>
</g>
<!-- ShipmentsService -->
<g id="node8" class="node">
<title>ShipmentsService</title>
<ellipse fill="#fdb462" stroke="#000000" cx="239" cy="-104" rx="80.5354" ry="18"/>
<text text-anchor="middle" x="239" y="-99.8" font-family="Times,serif" font-size="14.00" fill="#000000">ShipmentsService</text>
</g>
<!-- ShipmentsService&#45;&gt;ReportsModule -->
<g id="edge7" class="edge">
<title>ShipmentsService&#45;&gt;ReportsModule</title>
<path fill="none" stroke="#000000" d="M239,-122.1061C239,-141.3391 239,-169 239,-169 239,-169 513.2364,-169 513.2364,-169"/>
<polygon fill="#000000" stroke="#000000" points="513.2364,-172.5001 523.2364,-169 513.2363,-165.5001 513.2364,-172.5001"/>
</g>
<!-- UserService -->
<g id="node9" class="node">
<title>UserService</title>
<ellipse fill="#fdb462" stroke="#000000" cx="82" cy="-104" rx="58.4415" ry="18"/>
<text text-anchor="middle" x="82" y="-99.8" font-family="Times,serif" font-size="14.00" fill="#000000">UserService</text>
</g>
<!-- UserService&#45;&gt;ReportsModule -->
<g id="edge8" class="edge">
<title>UserService&#45;&gt;ReportsModule</title>
<path fill="none" stroke="#000000" d="M82,-122.2921C82,-144.2057 82,-178 82,-178 82,-178 513.1722,-178 513.1722,-178"/>
<polygon fill="#000000" stroke="#000000" points="513.1722,-181.5001 523.1722,-178 513.1721,-174.5001 513.1722,-181.5001"/>
</g>
</g>
</svg>
