<?xml version="1.0" encoding="UTF-8" standalone="no"?>
<!DOCTYPE svg PUBLIC "-//W3C//DTD SVG 1.1//EN"
 "http://www.w3.org/Graphics/SVG/1.1/DTD/svg11.dtd">
<!-- Generated by graphviz version 2.40.1 (20161225.0304)
 -->
<!-- Title: dependencies Pages: 1 -->
<svg width="716pt" height="284pt"
 viewBox="0.00 0.00 716.00 284.00" xmlns="http://www.w3.org/2000/svg" xmlns:xlink="http://www.w3.org/1999/xlink">
<g id="graph0" class="graph" transform="scale(1 1) rotate(0) translate(4 280)">
<title>dependencies</title>
<polygon fill="#ffffff" stroke="transparent" points="-4,4 -4,-280 712,-280 712,4 -4,4"/>
<text text-anchor="start" x="333.0091" y="-42.4" font-family="sans-serif" font-weight="bold" font-size="14.00" fill="#000000">Legend</text>
<polygon fill="#ffffb3" stroke="transparent" points="120,-10 120,-30 140,-30 140,-10 120,-10"/>
<text text-anchor="start" x="143.629" y="-15.4" font-family="sans-serif" font-size="14.00" fill="#000000"> &#160;Declarations</text>
<polygon fill="#8dd3c7" stroke="transparent" points="233,-10 233,-30 253,-30 253,-10 233,-10"/>
<text text-anchor="start" x="256.7251" y="-15.4" font-family="sans-serif" font-size="14.00" fill="#000000"> &#160;Module</text>
<polygon fill="#80b1d3" stroke="transparent" points="319,-10 319,-30 339,-30 339,-10 319,-10"/>
<text text-anchor="start" x="342.7812" y="-15.4" font-family="sans-serif" font-size="14.00" fill="#000000"> &#160;Bootstrap</text>
<polygon fill="#fdb462" stroke="transparent" points="416,-10 416,-30 436,-30 436,-10 416,-10"/>
<text text-anchor="start" x="439.6732" y="-15.4" font-family="sans-serif" font-size="14.00" fill="#000000"> &#160;Providers</text>
<polygon fill="#fb8072" stroke="transparent" points="512,-10 512,-30 532,-30 532,-10 512,-10"/>
<text text-anchor="start" x="535.7258" y="-15.4" font-family="sans-serif" font-size="14.00" fill="#000000"> &#160;Exports</text>
<g id="clust1" class="cluster">
<title>cluster_ToolbarLinkModule</title>
<polygon fill="none" stroke="#000000" stroke-dasharray="1,5" points="8,-70 8,-268 700,-268 700,-70 8,-70"/>
</g>
<g id="clust2" class="cluster">
<title>cluster_ToolbarLinkModule_declarations</title>
<polygon fill="none" stroke="#000000" points="524,-78 524,-130 692,-130 692,-78 524,-78"/>
</g>
<g id="clust4" class="cluster">
<title>cluster_ToolbarLinkModule_imports</title>
<polygon fill="none" stroke="#000000" points="394,-78 394,-130 516,-130 516,-78 394,-78"/>
</g>
<g id="clust5" class="cluster">
<title>cluster_ToolbarLinkModule_exports</title>
<polygon fill="none" stroke="#000000" points="287,-208 287,-260 459,-260 459,-208 287,-208"/>
</g>
<g id="clust7" class="cluster">
<title>cluster_ToolbarLinkModule_providers</title>
<polygon fill="none" stroke="#000000" points="16,-78 16,-130 386,-130 386,-78 16,-78"/>
</g>
<!-- ToolbarLinkComponent -->
<g id="node1" class="node">
<title>ToolbarLinkComponent</title>
<polygon fill="#ffffb3" stroke="#000000" points="684.094,-122 531.906,-122 531.906,-86 684.094,-86 684.094,-122"/>
<text text-anchor="middle" x="608" y="-99.8" font-family="Times,serif" font-size="14.00" fill="#000000">ToolbarLinkComponent</text>
</g>
<!-- ToolbarLinkModule -->
<g id="node2" class="node">
<title>ToolbarLinkModule</title>
<polygon fill="#8dd3c7" stroke="#000000" points="438.3118,-187 435.3118,-191 414.3118,-191 411.3118,-187 307.6882,-187 307.6882,-151 438.3118,-151 438.3118,-187"/>
<text text-anchor="middle" x="373" y="-164.8" font-family="Times,serif" font-size="14.00" fill="#000000">ToolbarLinkModule</text>
</g>
<!-- ToolbarLinkComponent&#45;&gt;ToolbarLinkModule -->
<g id="edge1" class="edge">
<title>ToolbarLinkComponent&#45;&gt;ToolbarLinkModule</title>
<path fill="none" stroke="#000000" d="M608,-122.1061C608,-141.3391 608,-169 608,-169 608,-169 448.4606,-169 448.4606,-169"/>
<polygon fill="#000000" stroke="#000000" points="448.4606,-165.5001 438.4606,-169 448.4606,-172.5001 448.4606,-165.5001"/>
</g>
<!-- ToolbarLinkComponent  -->
<g id="node4" class="node">
<title>ToolbarLinkComponent </title>
<polygon fill="#fb8072" stroke="#000000" points="450.5945,-252 295.4055,-252 295.4055,-216 450.5945,-216 450.5945,-252"/>
<text text-anchor="middle" x="373" y="-229.8" font-family="Times,serif" font-size="14.00" fill="#000000">ToolbarLinkComponent </text>
</g>
<!-- ToolbarLinkModule&#45;&gt;ToolbarLinkComponent  -->
<g id="edge3" class="edge">
<title>ToolbarLinkModule&#45;&gt;ToolbarLinkComponent </title>
<path fill="none" stroke="#000000" stroke-dasharray="5,2" d="M373,-187.1061C373,-187.1061 373,-205.991 373,-205.991"/>
<polygon fill="#000000" stroke="#000000" points="369.5001,-205.9909 373,-215.991 376.5001,-205.991 369.5001,-205.9909"/>
</g>
<!-- MaterialModule -->
<g id="node3" class="node">
<title>MaterialModule</title>
<polygon fill="#8dd3c7" stroke="#000000" points="508.4706,-122 505.4706,-126 484.4706,-126 481.4706,-122 401.5294,-122 401.5294,-86 508.4706,-86 508.4706,-122"/>
<text text-anchor="middle" x="455" y="-99.8" font-family="Times,serif" font-size="14.00" fill="#000000">MaterialModule</text>
</g>
<!-- MaterialModule&#45;&gt;ToolbarLinkModule -->
<g id="edge2" class="edge">
<title>MaterialModule&#45;&gt;ToolbarLinkModule</title>
<path fill="none" stroke="#000000" d="M419.8352,-122.1061C419.8352,-122.1061 419.8352,-140.991 419.8352,-140.991"/>
<polygon fill="#000000" stroke="#000000" points="416.3353,-140.9909 419.8352,-150.991 423.3353,-140.991 416.3353,-140.9909"/>
</g>
<!-- DynamoDBService -->
<g id="node5" class="node">
<title>DynamoDBService</title>
<ellipse fill="#fdb462" stroke="#000000" cx="291" cy="-104" rx="86.8184" ry="18"/>
<text text-anchor="middle" x="291" y="-99.8" font-family="Times,serif" font-size="14.00" fill="#000000">DynamoDBService</text>
</g>
<!-- DynamoDBService&#45;&gt;ToolbarLinkModule -->
<g id="edge4" class="edge">
<title>DynamoDBService&#45;&gt;ToolbarLinkModule</title>
<path fill="none" stroke="#000000" d="M342.7517,-118.7495C342.7517,-118.7495 342.7517,-140.5882 342.7517,-140.5882"/>
<polygon fill="#000000" stroke="#000000" points="339.2518,-140.5881 342.7517,-150.5882 346.2518,-140.5882 339.2518,-140.5881"/>
</g>
<!-- UserLoginService -->
<g id="node6" class="node">
<title>UserLoginService</title>
<ellipse fill="#fdb462" stroke="#000000" cx="105" cy="-104" rx="81.0782" ry="18"/>
<text text-anchor="middle" x="105" y="-99.8" font-family="Times,serif" font-size="14.00" fill="#000000">UserLoginService</text>
</g>
<!-- UserLoginService&#45;&gt;ToolbarLinkModule -->
<g id="edge5" class="edge">
<title>UserLoginService&#45;&gt;ToolbarLinkModule</title>
<path fill="none" stroke="#000000" d="M105,-122.1061C105,-141.3391 105,-169 105,-169 105,-169 297.7825,-169 297.7825,-169"/>
<polygon fill="#000000" stroke="#000000" points="297.7826,-172.5001 307.7825,-169 297.7825,-165.5001 297.7826,-172.5001"/>
</g>
</g>
</svg>
