<?xml version="1.0" encoding="UTF-8" standalone="no"?>
<!DOCTYPE svg PUBLIC "-//W3C//DTD SVG 1.1//EN"
 "http://www.w3.org/Graphics/SVG/1.1/DTD/svg11.dtd">
<!-- Generated by graphviz version 2.40.1 (20161225.0304)
 -->
<!-- Title: dependencies Pages: 1 -->
<svg width="505pt" height="284pt"
 viewBox="0.00 0.00 505.00 284.00" xmlns="http://www.w3.org/2000/svg" xmlns:xlink="http://www.w3.org/1999/xlink">
<g id="graph0" class="graph" transform="scale(1 1) rotate(0) translate(4 280)">
<title>dependencies</title>
<polygon fill="#ffffff" stroke="transparent" points="-4,4 -4,-280 501,-280 501,4 -4,4"/>
<text text-anchor="start" x="227.5091" y="-42.4" font-family="sans-serif" font-weight="bold" font-size="14.00" fill="#000000">Legend</text>
<polygon fill="#ffffb3" stroke="transparent" points="14.5,-10 14.5,-30 34.5,-30 34.5,-10 14.5,-10"/>
<text text-anchor="start" x="38.129" y="-15.4" font-family="sans-serif" font-size="14.00" fill="#000000"> &#160;Declarations</text>
<polygon fill="#8dd3c7" stroke="transparent" points="127.5,-10 127.5,-30 147.5,-30 147.5,-10 127.5,-10"/>
<text text-anchor="start" x="151.2251" y="-15.4" font-family="sans-serif" font-size="14.00" fill="#000000"> &#160;Module</text>
<polygon fill="#80b1d3" stroke="transparent" points="213.5,-10 213.5,-30 233.5,-30 233.5,-10 213.5,-10"/>
<text text-anchor="start" x="237.2812" y="-15.4" font-family="sans-serif" font-size="14.00" fill="#000000"> &#160;Bootstrap</text>
<polygon fill="#fdb462" stroke="transparent" points="310.5,-10 310.5,-30 330.5,-30 330.5,-10 310.5,-10"/>
<text text-anchor="start" x="334.1732" y="-15.4" font-family="sans-serif" font-size="14.00" fill="#000000"> &#160;Providers</text>
<polygon fill="#fb8072" stroke="transparent" points="406.5,-10 406.5,-30 426.5,-30 426.5,-10 406.5,-10"/>
<text text-anchor="start" x="430.2258" y="-15.4" font-family="sans-serif" font-size="14.00" fill="#000000"> &#160;Exports</text>
<g id="clust1" class="cluster">
<title>cluster_ToolbarLinkModule</title>
<polygon fill="none" stroke="#000000" stroke-dasharray="1,5" points="8,-70 8,-268 489,-268 489,-70 8,-70"/>
</g>
<g id="clust2" class="cluster">
<title>cluster_ToolbarLinkModule_declarations</title>
<polygon fill="none" stroke="#000000" points="313,-78 313,-130 481,-130 481,-78 313,-78"/>
</g>
<g id="clust4" class="cluster">
<title>cluster_ToolbarLinkModule_imports</title>
<polygon fill="none" stroke="#000000" points="16,-78 16,-130 305,-130 305,-78 16,-78"/>
</g>
<g id="clust5" class="cluster">
<title>cluster_ToolbarLinkModule_exports</title>
<polygon fill="none" stroke="#000000" points="158,-208 158,-260 330,-260 330,-208 158,-208"/>
</g>
<!-- ToolbarLinkComponent -->
<g id="node1" class="node">
<title>ToolbarLinkComponent</title>
<polygon fill="#ffffb3" stroke="#000000" points="473.094,-122 320.906,-122 320.906,-86 473.094,-86 473.094,-122"/>
<text text-anchor="middle" x="397" y="-99.8" font-family="Times,serif" font-size="14.00" fill="#000000">ToolbarLinkComponent</text>
</g>
<!-- ToolbarLinkModule -->
<g id="node2" class="node">
<title>ToolbarLinkModule</title>
<polygon fill="#8dd3c7" stroke="#000000" points="309.3118,-187 306.3118,-191 285.3118,-191 282.3118,-187 178.6882,-187 178.6882,-151 309.3118,-151 309.3118,-187"/>
<text text-anchor="middle" x="244" y="-164.8" font-family="Times,serif" font-size="14.00" fill="#000000">ToolbarLinkModule</text>
</g>
<!-- ToolbarLinkComponent&#45;&gt;ToolbarLinkModule -->
<g id="edge1" class="edge">
<title>ToolbarLinkComponent&#45;&gt;ToolbarLinkModule</title>
<path fill="none" stroke="#000000" d="M320.9409,-104C310.5263,-104 303.3205,-104 303.3205,-104 303.3205,-104 303.3205,-140.8939 303.3205,-140.8939"/>
<polygon fill="#000000" stroke="#000000" points="299.8206,-140.8938 303.3205,-150.8939 306.8206,-140.8939 299.8206,-140.8938"/>
</g>
<!-- ToolbarLinkComponent  -->
<g id="node5" class="node">
<title>ToolbarLinkComponent </title>
<polygon fill="#fb8072" stroke="#000000" points="321.5945,-252 166.4055,-252 166.4055,-216 321.5945,-216 321.5945,-252"/>
<text text-anchor="middle" x="244" y="-229.8" font-family="Times,serif" font-size="14.00" fill="#000000">ToolbarLinkComponent </text>
</g>
<!-- ToolbarLinkModule&#45;&gt;ToolbarLinkComponent  -->
<g id="edge4" class="edge">
<title>ToolbarLinkModule&#45;&gt;ToolbarLinkComponent </title>
<path fill="none" stroke="#000000" stroke-dasharray="5,2" d="M244,-187.1061C244,-187.1061 244,-205.991 244,-205.991"/>
<polygon fill="#000000" stroke="#000000" points="240.5001,-205.9909 244,-215.991 247.5001,-205.991 240.5001,-205.9909"/>
</g>
<!-- MaterialModule -->
<g id="node3" class="node">
<title>MaterialModule</title>
<polygon fill="#8dd3c7" stroke="#000000" points="297.4706,-122 294.4706,-126 273.4706,-126 270.4706,-122 190.5294,-122 190.5294,-86 297.4706,-86 297.4706,-122"/>
<text text-anchor="middle" x="244" y="-99.8" font-family="Times,serif" font-size="14.00" fill="#000000">MaterialModule</text>
</g>
<!-- MaterialModule&#45;&gt;ToolbarLinkModule -->
<g id="edge2" class="edge">
<title>MaterialModule&#45;&gt;ToolbarLinkModule</title>
<path fill="none" stroke="#000000" d="M244,-122.1061C244,-122.1061 244,-140.991 244,-140.991"/>
<polygon fill="#000000" stroke="#000000" points="240.5001,-140.9909 244,-150.991 247.5001,-140.991 240.5001,-140.9909"/>
</g>
<!-- ToolbarOptionsModule -->
<g id="node4" class="node">
<title>ToolbarOptionsModule</title>
<polygon fill="#8dd3c7" stroke="#000000" points="172.2007,-122 169.2007,-126 148.2007,-126 145.2007,-122 23.7993,-122 23.7993,-86 172.2007,-86 172.2007,-122"/>
<text text-anchor="middle" x="98" y="-99.8" font-family="Times,serif" font-size="14.00" fill="#000000">ToolbarOptionsModule</text>
</g>
<!-- ToolbarOptionsModule&#45;&gt;ToolbarLinkModule -->
<g id="edge3" class="edge">
<title>ToolbarOptionsModule&#45;&gt;ToolbarLinkModule</title>
<path fill="none" stroke="#000000" d="M172.2604,-104C179.758,-104 184.6795,-104 184.6795,-104 184.6795,-104 184.6795,-140.8939 184.6795,-140.8939"/>
<polygon fill="#000000" stroke="#000000" points="181.1796,-140.8938 184.6795,-150.8939 188.1796,-140.8939 181.1796,-140.8938"/>
</g>
</g>
</svg>
