<?xml version="1.0" encoding="UTF-8" standalone="no"?>
<!DOCTYPE svg PUBLIC "-//W3C//DTD SVG 1.1//EN"
 "http://www.w3.org/Graphics/SVG/1.1/DTD/svg11.dtd">
<!-- Generated by graphviz version 2.40.1 (20161225.0304)
 -->
<!-- Title: dependencies Pages: 1 -->
<svg width="504pt" height="284pt"
 viewBox="0.00 0.00 504.00 284.00" xmlns="http://www.w3.org/2000/svg" xmlns:xlink="http://www.w3.org/1999/xlink">
<g id="graph0" class="graph" transform="scale(1 1) rotate(0) translate(4 280)">
<title>dependencies</title>
<polygon fill="#ffffff" stroke="transparent" points="-4,4 -4,-280 500,-280 500,4 -4,4"/>
<text text-anchor="start" x="227.0091" y="-42.4" font-family="sans-serif" font-weight="bold" font-size="14.00" fill="#000000">Legend</text>
<polygon fill="#ffffb3" stroke="transparent" points="14,-10 14,-30 34,-30 34,-10 14,-10"/>
<text text-anchor="start" x="37.629" y="-15.4" font-family="sans-serif" font-size="14.00" fill="#000000"> &#160;Declarations</text>
<polygon fill="#8dd3c7" stroke="transparent" points="127,-10 127,-30 147,-30 147,-10 127,-10"/>
<text text-anchor="start" x="150.7251" y="-15.4" font-family="sans-serif" font-size="14.00" fill="#000000"> &#160;Module</text>
<polygon fill="#80b1d3" stroke="transparent" points="213,-10 213,-30 233,-30 233,-10 213,-10"/>
<text text-anchor="start" x="236.7812" y="-15.4" font-family="sans-serif" font-size="14.00" fill="#000000"> &#160;Bootstrap</text>
<polygon fill="#fdb462" stroke="transparent" points="310,-10 310,-30 330,-30 330,-10 310,-10"/>
<text text-anchor="start" x="333.6732" y="-15.4" font-family="sans-serif" font-size="14.00" fill="#000000"> &#160;Providers</text>
<polygon fill="#fb8072" stroke="transparent" points="406,-10 406,-30 426,-30 426,-10 406,-10"/>
<text text-anchor="start" x="429.7258" y="-15.4" font-family="sans-serif" font-size="14.00" fill="#000000"> &#160;Exports</text>
<g id="clust1" class="cluster">
<title>cluster_ClientInformationModule</title>
<polygon fill="none" stroke="#000000" stroke-dasharray="1,5" points="80,-70 80,-268 416,-268 416,-70 80,-70"/>
</g>
<g id="clust2" class="cluster">
<title>cluster_ClientInformationModule_declarations</title>
<polygon fill="none" stroke="#000000" points="210,-78 210,-130 408,-130 408,-78 210,-78"/>
</g>
<g id="clust4" class="cluster">
<title>cluster_ClientInformationModule_imports</title>
<polygon fill="none" stroke="#000000" points="88,-78 88,-130 202,-130 202,-78 88,-78"/>
</g>
<g id="clust5" class="cluster">
<title>cluster_ClientInformationModule_exports</title>
<polygon fill="none" stroke="#000000" points="147,-208 147,-260 349,-260 349,-208 147,-208"/>
</g>
<!-- ClientInformationComponent -->
<g id="node1" class="node">
<title>ClientInformationComponent</title>
<polygon fill="#ffffb3" stroke="#000000" points="400.4241,-122 217.5759,-122 217.5759,-86 400.4241,-86 400.4241,-122"/>
<text text-anchor="middle" x="309" y="-99.8" font-family="Times,serif" font-size="14.00" fill="#000000">ClientInformationComponent</text>
</g>
<!-- ClientInformationModule -->
<g id="node2" class="node">
<title>ClientInformationModule</title>
<polygon fill="#8dd3c7" stroke="#000000" points="328.1414,-187 325.1414,-191 304.1414,-191 301.1414,-187 167.8586,-187 167.8586,-151 328.1414,-151 328.1414,-187"/>
<text text-anchor="middle" x="248" y="-164.8" font-family="Times,serif" font-size="14.00" fill="#000000">ClientInformationModule</text>
</g>
<!-- ClientInformationComponent&#45;&gt;ClientInformationModule -->
<g id="edge1" class="edge">
<title>ClientInformationComponent&#45;&gt;ClientInformationModule</title>
<path fill="none" stroke="#000000" d="M273.0544,-122.1061C273.0544,-122.1061 273.0544,-140.991 273.0544,-140.991"/>
<polygon fill="#000000" stroke="#000000" points="269.5544,-140.9909 273.0544,-150.991 276.5544,-140.991 269.5544,-140.9909"/>
</g>
<!-- ClientInformationComponent  -->
<g id="node4" class="node">
<title>ClientInformationComponent </title>
<polygon fill="#fb8072" stroke="#000000" points="340.9236,-252 155.0764,-252 155.0764,-216 340.9236,-216 340.9236,-252"/>
<text text-anchor="middle" x="248" y="-229.8" font-family="Times,serif" font-size="14.00" fill="#000000">ClientInformationComponent </text>
</g>
<!-- ClientInformationModule&#45;&gt;ClientInformationComponent  -->
<g id="edge3" class="edge">
<title>ClientInformationModule&#45;&gt;ClientInformationComponent </title>
<path fill="none" stroke="#000000" stroke-dasharray="5,2" d="M248,-187.1061C248,-187.1061 248,-205.991 248,-205.991"/>
<polygon fill="#000000" stroke="#000000" points="244.5001,-205.9909 248,-215.991 251.5001,-205.991 244.5001,-205.9909"/>
</g>
<!-- SharedModule -->
<g id="node3" class="node">
<title>SharedModule</title>
<polygon fill="#8dd3c7" stroke="#000000" points="194.4231,-122 191.4231,-126 170.4231,-126 167.4231,-122 95.5769,-122 95.5769,-86 194.4231,-86 194.4231,-122"/>
<text text-anchor="middle" x="145" y="-99.8" font-family="Times,serif" font-size="14.00" fill="#000000">SharedModule</text>
</g>
<!-- SharedModule&#45;&gt;ClientInformationModule -->
<g id="edge2" class="edge">
<title>SharedModule&#45;&gt;ClientInformationModule</title>
<path fill="none" stroke="#000000" d="M180.9453,-122.1061C180.9453,-122.1061 180.9453,-140.991 180.9453,-140.991"/>
<polygon fill="#000000" stroke="#000000" points="177.4454,-140.9909 180.9453,-150.991 184.4454,-140.991 177.4454,-140.9909"/>
</g>
</g>
</svg>
