<?xml version="1.0" encoding="UTF-8" standalone="no"?>
<!DOCTYPE svg PUBLIC "-//W3C//DTD SVG 1.1//EN"
 "http://www.w3.org/Graphics/SVG/1.1/DTD/svg11.dtd">
<!-- Generated by graphviz version 2.40.1 (20161225.0304)
 -->
<!-- Title: dependencies Pages: 1 -->
<svg width="853pt" height="211pt"
 viewBox="0.00 0.00 853.00 211.00" xmlns="http://www.w3.org/2000/svg" xmlns:xlink="http://www.w3.org/1999/xlink">
<g id="graph0" class="graph" transform="scale(1 1) rotate(0) translate(4 207)">
<title>dependencies</title>
<polygon fill="#ffffff" stroke="transparent" points="-4,4 -4,-207 849,-207 849,4 -4,4"/>
<text text-anchor="start" x="401.5091" y="-42.4" font-family="sans-serif" font-weight="bold" font-size="14.00" fill="#000000">Legend</text>
<polygon fill="#ffffb3" stroke="transparent" points="188.5,-10 188.5,-30 208.5,-30 208.5,-10 188.5,-10"/>
<text text-anchor="start" x="212.129" y="-15.4" font-family="sans-serif" font-size="14.00" fill="#000000"> &#160;Declarations</text>
<polygon fill="#8dd3c7" stroke="transparent" points="301.5,-10 301.5,-30 321.5,-30 321.5,-10 301.5,-10"/>
<text text-anchor="start" x="325.2251" y="-15.4" font-family="sans-serif" font-size="14.00" fill="#000000"> &#160;Module</text>
<polygon fill="#80b1d3" stroke="transparent" points="387.5,-10 387.5,-30 407.5,-30 407.5,-10 387.5,-10"/>
<text text-anchor="start" x="411.2812" y="-15.4" font-family="sans-serif" font-size="14.00" fill="#000000"> &#160;Bootstrap</text>
<polygon fill="#fdb462" stroke="transparent" points="484.5,-10 484.5,-30 504.5,-30 504.5,-10 484.5,-10"/>
<text text-anchor="start" x="508.1732" y="-15.4" font-family="sans-serif" font-size="14.00" fill="#000000"> &#160;Providers</text>
<polygon fill="#fb8072" stroke="transparent" points="580.5,-10 580.5,-30 600.5,-30 600.5,-10 580.5,-10"/>
<text text-anchor="start" x="604.2258" y="-15.4" font-family="sans-serif" font-size="14.00" fill="#000000"> &#160;Exports</text>
<g id="clust1" class="cluster">
<title>cluster_AwsCognitoModule</title>
<polygon fill="none" stroke="#000000" stroke-dasharray="1,5" points="8,-70 8,-195 837,-195 837,-70 8,-70"/>
</g>
<g id="clust2" class="cluster">
<title>cluster_AwsCognitoModule_declarations</title>
<polygon fill="none" stroke="#000000" points="216,-78 216,-130 829,-130 829,-78 216,-78"/>
</g>
<g id="clust7" class="cluster">
<title>cluster_AwsCognitoModule_imports</title>
<polygon fill="none" stroke="#000000" points="16,-78 16,-130 208,-130 208,-78 16,-78"/>
</g>
<!-- JwtComponent -->
<g id="node1" class="node">
<title>JwtComponent</title>
<polygon fill="#ffffb3" stroke="#000000" points="821.2745,-122 720.7255,-122 720.7255,-86 821.2745,-86 821.2745,-122"/>
<text text-anchor="middle" x="771" y="-99.8" font-family="Times,serif" font-size="14.00" fill="#000000">JwtComponent</text>
</g>
<!-- AwsCognitoModule -->
<g id="node5" class="node">
<title>AwsCognitoModule</title>
<polygon fill="#8dd3c7" stroke="#000000" points="534.3258,-187 531.3258,-191 510.3258,-191 507.3258,-187 403.6742,-187 403.6742,-151 534.3258,-151 534.3258,-187"/>
<text text-anchor="middle" x="469" y="-164.8" font-family="Times,serif" font-size="14.00" fill="#000000">AwsCognitoModule</text>
</g>
<!-- JwtComponent&#45;&gt;AwsCognitoModule -->
<g id="edge1" class="edge">
<title>JwtComponent&#45;&gt;AwsCognitoModule</title>
<path fill="none" stroke="#000000" d="M771,-122.2843C771,-143.3211 771,-175 771,-175 771,-175 544.5295,-175 544.5295,-175"/>
<polygon fill="#000000" stroke="#000000" points="544.5295,-171.5001 534.5295,-175 544.5295,-178.5001 544.5295,-171.5001"/>
</g>
<!-- MyProfileComponent -->
<g id="node2" class="node">
<title>MyProfileComponent</title>
<polygon fill="#ffffb3" stroke="#000000" points="702.3767,-122 563.6233,-122 563.6233,-86 702.3767,-86 702.3767,-122"/>
<text text-anchor="middle" x="633" y="-99.8" font-family="Times,serif" font-size="14.00" fill="#000000">MyProfileComponent</text>
</g>
<!-- MyProfileComponent&#45;&gt;AwsCognitoModule -->
<g id="edge2" class="edge">
<title>MyProfileComponent&#45;&gt;AwsCognitoModule</title>
<path fill="none" stroke="#000000" d="M633,-122.0225C633,-139.3734 633,-163 633,-163 633,-163 544.2884,-163 544.2884,-163"/>
<polygon fill="#000000" stroke="#000000" points="544.2884,-159.5001 534.2884,-163 544.2883,-166.5001 544.2884,-159.5001"/>
</g>
<!-- SecureHomeComponent -->
<g id="node3" class="node">
<title>SecureHomeComponent</title>
<polygon fill="#ffffb3" stroke="#000000" points="545.6316,-122 392.3684,-122 392.3684,-86 545.6316,-86 545.6316,-122"/>
<text text-anchor="middle" x="469" y="-99.8" font-family="Times,serif" font-size="14.00" fill="#000000">SecureHomeComponent</text>
</g>
<!-- SecureHomeComponent&#45;&gt;AwsCognitoModule -->
<g id="edge3" class="edge">
<title>SecureHomeComponent&#45;&gt;AwsCognitoModule</title>
<path fill="none" stroke="#000000" d="M469,-122.1061C469,-122.1061 469,-140.991 469,-140.991"/>
<polygon fill="#000000" stroke="#000000" points="465.5001,-140.9909 469,-150.991 472.5001,-140.991 465.5001,-140.9909"/>
</g>
<!-- UseractivityComponent -->
<g id="node4" class="node">
<title>UseractivityComponent</title>
<polygon fill="#ffffb3" stroke="#000000" points="373.7506,-122 224.2494,-122 224.2494,-86 373.7506,-86 373.7506,-122"/>
<text text-anchor="middle" x="299" y="-99.8" font-family="Times,serif" font-size="14.00" fill="#000000">UseractivityComponent</text>
</g>
<!-- UseractivityComponent&#45;&gt;AwsCognitoModule -->
<g id="edge4" class="edge">
<title>UseractivityComponent&#45;&gt;AwsCognitoModule</title>
<path fill="none" stroke="#000000" d="M299,-122.0225C299,-139.3734 299,-163 299,-163 299,-163 393.7598,-163 393.7598,-163"/>
<polygon fill="#000000" stroke="#000000" points="393.7598,-166.5001 403.7598,-163 393.7597,-159.5001 393.7598,-166.5001"/>
</g>
<!-- AwsCognitoRoutingModule -->
<g id="node6" class="node">
<title>AwsCognitoRoutingModule</title>
<polygon fill="#8dd3c7" stroke="#000000" points="199.9438,-122 196.9438,-126 175.9438,-126 172.9438,-122 24.0562,-122 24.0562,-86 199.9438,-86 199.9438,-122"/>
<text text-anchor="middle" x="112" y="-99.8" font-family="Times,serif" font-size="14.00" fill="#000000">AwsCognitoRoutingModule</text>
</g>
<!-- AwsCognitoRoutingModule&#45;&gt;AwsCognitoModule -->
<g id="edge5" class="edge">
<title>AwsCognitoRoutingModule&#45;&gt;AwsCognitoModule</title>
<path fill="none" stroke="#000000" d="M112,-122.2843C112,-143.3211 112,-175 112,-175 112,-175 393.5207,-175 393.5207,-175"/>
<polygon fill="#000000" stroke="#000000" points="393.5207,-178.5001 403.5207,-175 393.5207,-171.5001 393.5207,-178.5001"/>
</g>
</g>
</svg>
