<?xml version="1.0" encoding="UTF-8" standalone="no"?>
<!DOCTYPE svg PUBLIC "-//W3C//DTD SVG 1.1//EN"
 "http://www.w3.org/Graphics/SVG/1.1/DTD/svg11.dtd">
<!-- Generated by graphviz version 2.40.1 (20161225.0304)
 -->
<!-- Title: dependencies Pages: 1 -->
<svg width="969pt" height="211pt"
 viewBox="0.00 0.00 969.00 211.00" xmlns="http://www.w3.org/2000/svg" xmlns:xlink="http://www.w3.org/1999/xlink">
<g id="graph0" class="graph" transform="scale(1 1) rotate(0) translate(4 207)">
<title>dependencies</title>
<polygon fill="#ffffff" stroke="transparent" points="-4,4 -4,-207 965,-207 965,4 -4,4"/>
<text text-anchor="start" x="459.5091" y="-42.4" font-family="sans-serif" font-weight="bold" font-size="14.00" fill="#000000">Legend</text>
<polygon fill="#ffffb3" stroke="transparent" points="246.5,-10 246.5,-30 266.5,-30 266.5,-10 246.5,-10"/>
<text text-anchor="start" x="270.129" y="-15.4" font-family="sans-serif" font-size="14.00" fill="#000000"> &#160;Declarations</text>
<polygon fill="#8dd3c7" stroke="transparent" points="359.5,-10 359.5,-30 379.5,-30 379.5,-10 359.5,-10"/>
<text text-anchor="start" x="383.2251" y="-15.4" font-family="sans-serif" font-size="14.00" fill="#000000"> &#160;Module</text>
<polygon fill="#80b1d3" stroke="transparent" points="445.5,-10 445.5,-30 465.5,-30 465.5,-10 445.5,-10"/>
<text text-anchor="start" x="469.2812" y="-15.4" font-family="sans-serif" font-size="14.00" fill="#000000"> &#160;Bootstrap</text>
<polygon fill="#fdb462" stroke="transparent" points="542.5,-10 542.5,-30 562.5,-30 562.5,-10 542.5,-10"/>
<text text-anchor="start" x="566.1732" y="-15.4" font-family="sans-serif" font-size="14.00" fill="#000000"> &#160;Providers</text>
<polygon fill="#fb8072" stroke="transparent" points="638.5,-10 638.5,-30 658.5,-30 658.5,-10 638.5,-10"/>
<text text-anchor="start" x="662.2258" y="-15.4" font-family="sans-serif" font-size="14.00" fill="#000000"> &#160;Exports</text>
<g id="clust1" class="cluster">
<title>cluster_AwsCognitoModule</title>
<polygon fill="none" stroke="#000000" stroke-dasharray="1,5" points="8,-70 8,-195 953,-195 953,-70 8,-70"/>
</g>
<g id="clust2" class="cluster">
<title>cluster_AwsCognitoModule_declarations</title>
<polygon fill="none" stroke="#000000" points="332,-78 332,-130 945,-130 945,-78 332,-78"/>
</g>
<g id="clust7" class="cluster">
<title>cluster_AwsCognitoModule_imports</title>
<polygon fill="none" stroke="#000000" points="16,-78 16,-130 324,-130 324,-78 16,-78"/>
</g>
<!-- JwtComponent -->
<g id="node1" class="node">
<title>JwtComponent</title>
<polygon fill="#ffffb3" stroke="#000000" points="937.2745,-122 836.7255,-122 836.7255,-86 937.2745,-86 937.2745,-122"/>
<text text-anchor="middle" x="887" y="-99.8" font-family="Times,serif" font-size="14.00" fill="#000000">JwtComponent</text>
</g>
<!-- AwsCognitoModule -->
<g id="node5" class="node">
<title>AwsCognitoModule</title>
<polygon fill="#8dd3c7" stroke="#000000" points="565.3258,-187 562.3258,-191 541.3258,-191 538.3258,-187 434.6742,-187 434.6742,-151 565.3258,-151 565.3258,-187"/>
<text text-anchor="middle" x="500" y="-164.8" font-family="Times,serif" font-size="14.00" fill="#000000">AwsCognitoModule</text>
</g>
<!-- JwtComponent&#45;&gt;AwsCognitoModule -->
<g id="edge1" class="edge">
<title>JwtComponent&#45;&gt;AwsCognitoModule</title>
<path fill="none" stroke="#000000" d="M887,-122.2843C887,-143.3211 887,-175 887,-175 887,-175 575.2117,-175 575.2117,-175"/>
<polygon fill="#000000" stroke="#000000" points="575.2117,-171.5001 565.2117,-175 575.2116,-178.5001 575.2117,-171.5001"/>
</g>
<!-- MyProfileComponent -->
<g id="node2" class="node">
<title>MyProfileComponent</title>
<polygon fill="#ffffb3" stroke="#000000" points="818.3767,-122 679.6233,-122 679.6233,-86 818.3767,-86 818.3767,-122"/>
<text text-anchor="middle" x="749" y="-99.8" font-family="Times,serif" font-size="14.00" fill="#000000">MyProfileComponent</text>
</g>
<!-- MyProfileComponent&#45;&gt;AwsCognitoModule -->
<g id="edge2" class="edge">
<title>MyProfileComponent&#45;&gt;AwsCognitoModule</title>
<path fill="none" stroke="#000000" d="M749,-122.0225C749,-139.3734 749,-163 749,-163 749,-163 575.4218,-163 575.4218,-163"/>
<polygon fill="#000000" stroke="#000000" points="575.4219,-159.5001 565.4218,-163 575.4218,-166.5001 575.4219,-159.5001"/>
</g>
<!-- SecureHomeComponent -->
<g id="node3" class="node">
<title>SecureHomeComponent</title>
<polygon fill="#ffffb3" stroke="#000000" points="661.6316,-122 508.3684,-122 508.3684,-86 661.6316,-86 661.6316,-122"/>
<text text-anchor="middle" x="585" y="-99.8" font-family="Times,serif" font-size="14.00" fill="#000000">SecureHomeComponent</text>
</g>
<!-- SecureHomeComponent&#45;&gt;AwsCognitoModule -->
<g id="edge3" class="edge">
<title>SecureHomeComponent&#45;&gt;AwsCognitoModule</title>
<path fill="none" stroke="#000000" d="M536.6736,-122.1061C536.6736,-122.1061 536.6736,-140.991 536.6736,-140.991"/>
<polygon fill="#000000" stroke="#000000" points="533.1736,-140.9909 536.6736,-150.991 540.1736,-140.991 533.1736,-140.9909"/>
</g>
<!-- UseractivityComponent -->
<g id="node4" class="node">
<title>UseractivityComponent</title>
<polygon fill="#ffffb3" stroke="#000000" points="489.7506,-122 340.2494,-122 340.2494,-86 489.7506,-86 489.7506,-122"/>
<text text-anchor="middle" x="415" y="-99.8" font-family="Times,serif" font-size="14.00" fill="#000000">UseractivityComponent</text>
</g>
<!-- UseractivityComponent&#45;&gt;AwsCognitoModule -->
<g id="edge4" class="edge">
<title>UseractivityComponent&#45;&gt;AwsCognitoModule</title>
<path fill="none" stroke="#000000" d="M462.3563,-122.1061C462.3563,-122.1061 462.3563,-140.991 462.3563,-140.991"/>
<polygon fill="#000000" stroke="#000000" points="458.8563,-140.9909 462.3563,-150.991 465.8563,-140.991 458.8563,-140.9909"/>
</g>
<!-- AwsCognitoRoutingModule -->
<g id="node6" class="node">
<title>AwsCognitoRoutingModule</title>
<polygon fill="#8dd3c7" stroke="#000000" points="315.9438,-122 312.9438,-126 291.9438,-126 288.9438,-122 140.0562,-122 140.0562,-86 315.9438,-86 315.9438,-122"/>
<text text-anchor="middle" x="228" y="-99.8" font-family="Times,serif" font-size="14.00" fill="#000000">AwsCognitoRoutingModule</text>
</g>
<!-- AwsCognitoRoutingModule&#45;&gt;AwsCognitoModule -->
<g id="edge5" class="edge">
<title>AwsCognitoRoutingModule&#45;&gt;AwsCognitoModule</title>
<path fill="none" stroke="#000000" d="M228,-122.0225C228,-139.3734 228,-163 228,-163 228,-163 424.5031,-163 424.5031,-163"/>
<polygon fill="#000000" stroke="#000000" points="424.5031,-166.5001 434.5031,-163 424.5031,-159.5001 424.5031,-166.5001"/>
</g>
<!-- SharedModule -->
<g id="node7" class="node">
<title>SharedModule</title>
<polygon fill="#8dd3c7" stroke="#000000" points="122.4231,-122 119.4231,-126 98.4231,-126 95.4231,-122 23.5769,-122 23.5769,-86 122.4231,-86 122.4231,-122"/>
<text text-anchor="middle" x="73" y="-99.8" font-family="Times,serif" font-size="14.00" fill="#000000">SharedModule</text>
</g>
<!-- SharedModule&#45;&gt;AwsCognitoModule -->
<g id="edge6" class="edge">
<title>SharedModule&#45;&gt;AwsCognitoModule</title>
<path fill="none" stroke="#000000" d="M73,-122.2843C73,-143.3211 73,-175 73,-175 73,-175 424.6831,-175 424.6831,-175"/>
<polygon fill="#000000" stroke="#000000" points="424.6831,-178.5001 434.6831,-175 424.683,-171.5001 424.6831,-178.5001"/>
</g>
</g>
</svg>
