<?xml version="1.0" encoding="UTF-8" standalone="no"?>
<!DOCTYPE svg PUBLIC "-//W3C//DTD SVG 1.1//EN"
 "http://www.w3.org/Graphics/SVG/1.1/DTD/svg11.dtd">
<!-- Generated by graphviz version 2.40.1 (20161225.0304)
 -->
<!-- Title: dependencies Pages: 1 -->
<svg width="578pt" height="284pt"
 viewBox="0.00 0.00 578.00 284.00" xmlns="http://www.w3.org/2000/svg" xmlns:xlink="http://www.w3.org/1999/xlink">
<g id="graph0" class="graph" transform="scale(1 1) rotate(0) translate(4 280)">
<title>dependencies</title>
<polygon fill="#ffffff" stroke="transparent" points="-4,4 -4,-280 574,-280 574,4 -4,4"/>
<text text-anchor="start" x="264.0091" y="-42.4" font-family="sans-serif" font-weight="bold" font-size="14.00" fill="#000000">Legend</text>
<polygon fill="#ffffb3" stroke="transparent" points="51,-10 51,-30 71,-30 71,-10 51,-10"/>
<text text-anchor="start" x="74.629" y="-15.4" font-family="sans-serif" font-size="14.00" fill="#000000"> &#160;Declarations</text>
<polygon fill="#8dd3c7" stroke="transparent" points="164,-10 164,-30 184,-30 184,-10 164,-10"/>
<text text-anchor="start" x="187.7251" y="-15.4" font-family="sans-serif" font-size="14.00" fill="#000000"> &#160;Module</text>
<polygon fill="#80b1d3" stroke="transparent" points="250,-10 250,-30 270,-30 270,-10 250,-10"/>
<text text-anchor="start" x="273.7812" y="-15.4" font-family="sans-serif" font-size="14.00" fill="#000000"> &#160;Bootstrap</text>
<polygon fill="#fdb462" stroke="transparent" points="347,-10 347,-30 367,-30 367,-10 347,-10"/>
<text text-anchor="start" x="370.6732" y="-15.4" font-family="sans-serif" font-size="14.00" fill="#000000"> &#160;Providers</text>
<polygon fill="#fb8072" stroke="transparent" points="443,-10 443,-30 463,-30 463,-10 443,-10"/>
<text text-anchor="start" x="466.7258" y="-15.4" font-family="sans-serif" font-size="14.00" fill="#000000"> &#160;Exports</text>
<g id="clust1" class="cluster">
<title>cluster_ListTransporterModule</title>
<polygon fill="none" stroke="#000000" stroke-dasharray="1,5" points="8,-70 8,-268 562,-268 562,-70 8,-70"/>
</g>
<g id="clust2" class="cluster">
<title>cluster_ListTransporterModule_declarations</title>
<polygon fill="none" stroke="#000000" points="370,-78 370,-130 554,-130 554,-78 370,-78"/>
</g>
<g id="clust4" class="cluster">
<title>cluster_ListTransporterModule_imports</title>
<polygon fill="none" stroke="#000000" points="240,-78 240,-130 362,-130 362,-78 240,-78"/>
</g>
<g id="clust5" class="cluster">
<title>cluster_ListTransporterModule_exports</title>
<polygon fill="none" stroke="#000000" points="207,-208 207,-260 395,-260 395,-208 207,-208"/>
</g>
<g id="clust7" class="cluster">
<title>cluster_ListTransporterModule_providers</title>
<polygon fill="none" stroke="#000000" points="16,-78 16,-130 232,-130 232,-78 16,-78"/>
</g>
<!-- ListTransporterComponent -->
<g id="node1" class="node">
<title>ListTransporterComponent</title>
<polygon fill="#ffffb3" stroke="#000000" points="546.4101,-122 377.5899,-122 377.5899,-86 546.4101,-86 546.4101,-122"/>
<text text-anchor="middle" x="462" y="-99.8" font-family="Times,serif" font-size="14.00" fill="#000000">ListTransporterComponent</text>
</g>
<!-- ListTransporterModule -->
<g id="node2" class="node">
<title>ListTransporterModule</title>
<polygon fill="#8dd3c7" stroke="#000000" points="374.1275,-187 371.1275,-191 350.1275,-191 347.1275,-187 227.8725,-187 227.8725,-151 374.1275,-151 374.1275,-187"/>
<text text-anchor="middle" x="301" y="-164.8" font-family="Times,serif" font-size="14.00" fill="#000000">ListTransporterModule</text>
</g>
<!-- ListTransporterComponent&#45;&gt;ListTransporterModule -->
<g id="edge1" class="edge">
<title>ListTransporterComponent&#45;&gt;ListTransporterModule</title>
<path fill="none" stroke="#000000" d="M382.375,-122.1061C382.375,-141.3391 382.375,-169 382.375,-169 382.375,-169 381.565,-169 381.565,-169"/>
<polygon fill="#000000" stroke="#000000" points="384.275,-165.5001 374.275,-169 384.2749,-172.5001 384.275,-165.5001"/>
</g>
<!-- ListTransporterComponent  -->
<g id="node4" class="node">
<title>ListTransporterComponent </title>
<polygon fill="#fb8072" stroke="#000000" points="386.9096,-252 215.0904,-252 215.0904,-216 386.9096,-216 386.9096,-252"/>
<text text-anchor="middle" x="301" y="-229.8" font-family="Times,serif" font-size="14.00" fill="#000000">ListTransporterComponent </text>
</g>
<!-- ListTransporterModule&#45;&gt;ListTransporterComponent  -->
<g id="edge3" class="edge">
<title>ListTransporterModule&#45;&gt;ListTransporterComponent </title>
<path fill="none" stroke="#000000" stroke-dasharray="5,2" d="M301,-187.1061C301,-187.1061 301,-205.991 301,-205.991"/>
<polygon fill="#000000" stroke="#000000" points="297.5001,-205.9909 301,-215.991 304.5001,-205.991 297.5001,-205.9909"/>
</g>
<!-- MaterialModule -->
<g id="node3" class="node">
<title>MaterialModule</title>
<polygon fill="#8dd3c7" stroke="#000000" points="354.4706,-122 351.4706,-126 330.4706,-126 327.4706,-122 247.5294,-122 247.5294,-86 354.4706,-86 354.4706,-122"/>
<text text-anchor="middle" x="301" y="-99.8" font-family="Times,serif" font-size="14.00" fill="#000000">MaterialModule</text>
</g>
<!-- MaterialModule&#45;&gt;ListTransporterModule -->
<g id="edge2" class="edge">
<title>MaterialModule&#45;&gt;ListTransporterModule</title>
<path fill="none" stroke="#000000" d="M301,-122.1061C301,-122.1061 301,-140.991 301,-140.991"/>
<polygon fill="#000000" stroke="#000000" points="297.5001,-140.9909 301,-150.991 304.5001,-140.991 297.5001,-140.9909"/>
</g>
<!-- ListTransporterService -->
<g id="node5" class="node">
<title>ListTransporterService</title>
<ellipse fill="#fdb462" stroke="#000000" cx="124" cy="-104" rx="100.1123" ry="18"/>
<text text-anchor="middle" x="124" y="-99.8" font-family="Times,serif" font-size="14.00" fill="#000000">ListTransporterService</text>
</g>
<!-- ListTransporterService&#45;&gt;ListTransporterModule -->
<g id="edge4" class="edge">
<title>ListTransporterService&#45;&gt;ListTransporterModule</title>
<path fill="none" stroke="#000000" d="M219.5507,-109.5419C219.5507,-125.2607 219.5507,-169 219.5507,-169 219.5507,-169 220.3614,-169 220.3614,-169"/>
<polygon fill="#000000" stroke="#000000" points="217.6582,-172.5001 227.6581,-169 217.6581,-165.5001 217.6582,-172.5001"/>
</g>
</g>
</svg>
