<?xml version="1.0" encoding="UTF-8" standalone="no"?>
<!DOCTYPE svg PUBLIC "-//W3C//DTD SVG 1.1//EN"
 "http://www.w3.org/Graphics/SVG/1.1/DTD/svg11.dtd">
<!-- Generated by graphviz version 2.40.1 (20161225.0304)
 -->
<!-- Title: dependencies Pages: 1 -->
<svg width="731pt" height="284pt"
 viewBox="0.00 0.00 731.00 284.00" xmlns="http://www.w3.org/2000/svg" xmlns:xlink="http://www.w3.org/1999/xlink">
<g id="graph0" class="graph" transform="scale(1 1) rotate(0) translate(4 280)">
<title>dependencies</title>
<polygon fill="#ffffff" stroke="transparent" points="-4,4 -4,-280 727,-280 727,4 -4,4"/>
<text text-anchor="start" x="340.5091" y="-42.4" font-family="sans-serif" font-weight="bold" font-size="14.00" fill="#000000">Legend</text>
<polygon fill="#ffffb3" stroke="transparent" points="127.5,-10 127.5,-30 147.5,-30 147.5,-10 127.5,-10"/>
<text text-anchor="start" x="151.129" y="-15.4" font-family="sans-serif" font-size="14.00" fill="#000000"> &#160;Declarations</text>
<polygon fill="#8dd3c7" stroke="transparent" points="240.5,-10 240.5,-30 260.5,-30 260.5,-10 240.5,-10"/>
<text text-anchor="start" x="264.2251" y="-15.4" font-family="sans-serif" font-size="14.00" fill="#000000"> &#160;Module</text>
<polygon fill="#80b1d3" stroke="transparent" points="326.5,-10 326.5,-30 346.5,-30 346.5,-10 326.5,-10"/>
<text text-anchor="start" x="350.2812" y="-15.4" font-family="sans-serif" font-size="14.00" fill="#000000"> &#160;Bootstrap</text>
<polygon fill="#fdb462" stroke="transparent" points="423.5,-10 423.5,-30 443.5,-30 443.5,-10 423.5,-10"/>
<text text-anchor="start" x="447.1732" y="-15.4" font-family="sans-serif" font-size="14.00" fill="#000000"> &#160;Providers</text>
<polygon fill="#fb8072" stroke="transparent" points="519.5,-10 519.5,-30 539.5,-30 539.5,-10 519.5,-10"/>
<text text-anchor="start" x="543.2258" y="-15.4" font-family="sans-serif" font-size="14.00" fill="#000000"> &#160;Exports</text>
<g id="clust1" class="cluster">
<title>cluster_ListTransporterModule</title>
<polygon fill="none" stroke="#000000" stroke-dasharray="1,5" points="8,-70 8,-268 715,-268 715,-70 8,-70"/>
</g>
<g id="clust2" class="cluster">
<title>cluster_ListTransporterModule_declarations</title>
<polygon fill="none" stroke="#000000" points="523,-78 523,-130 707,-130 707,-78 523,-78"/>
</g>
<g id="clust4" class="cluster">
<title>cluster_ListTransporterModule_imports</title>
<polygon fill="none" stroke="#000000" points="240,-78 240,-130 515,-130 515,-78 240,-78"/>
</g>
<g id="clust5" class="cluster">
<title>cluster_ListTransporterModule_exports</title>
<polygon fill="none" stroke="#000000" points="276,-208 276,-260 464,-260 464,-208 276,-208"/>
</g>
<g id="clust7" class="cluster">
<title>cluster_ListTransporterModule_providers</title>
<polygon fill="none" stroke="#000000" points="16,-78 16,-130 232,-130 232,-78 16,-78"/>
</g>
<!-- ListTransporterComponent -->
<g id="node1" class="node">
<title>ListTransporterComponent</title>
<polygon fill="#ffffb3" stroke="#000000" points="699.4101,-122 530.5899,-122 530.5899,-86 699.4101,-86 699.4101,-122"/>
<text text-anchor="middle" x="615" y="-99.8" font-family="Times,serif" font-size="14.00" fill="#000000">ListTransporterComponent</text>
</g>
<!-- ListTransporterModule -->
<g id="node2" class="node">
<title>ListTransporterModule</title>
<polygon fill="#8dd3c7" stroke="#000000" points="443.1275,-187 440.1275,-191 419.1275,-191 416.1275,-187 296.8725,-187 296.8725,-151 443.1275,-151 443.1275,-187"/>
<text text-anchor="middle" x="370" y="-164.8" font-family="Times,serif" font-size="14.00" fill="#000000">ListTransporterModule</text>
</g>
<!-- ListTransporterComponent&#45;&gt;ListTransporterModule -->
<g id="edge1" class="edge">
<title>ListTransporterComponent&#45;&gt;ListTransporterModule</title>
<path fill="none" stroke="#000000" d="M615,-122.1061C615,-141.3391 615,-169 615,-169 615,-169 453.1762,-169 453.1762,-169"/>
<polygon fill="#000000" stroke="#000000" points="453.1763,-165.5001 443.1762,-169 453.1762,-172.5001 453.1763,-165.5001"/>
</g>
<!-- ListTransporterComponent  -->
<g id="node5" class="node">
<title>ListTransporterComponent </title>
<polygon fill="#fb8072" stroke="#000000" points="455.9096,-252 284.0904,-252 284.0904,-216 455.9096,-216 455.9096,-252"/>
<text text-anchor="middle" x="370" y="-229.8" font-family="Times,serif" font-size="14.00" fill="#000000">ListTransporterComponent </text>
</g>
<!-- ListTransporterModule&#45;&gt;ListTransporterComponent  -->
<g id="edge4" class="edge">
<title>ListTransporterModule&#45;&gt;ListTransporterComponent </title>
<path fill="none" stroke="#000000" stroke-dasharray="5,2" d="M370,-187.1061C370,-187.1061 370,-205.991 370,-205.991"/>
<polygon fill="#000000" stroke="#000000" points="366.5001,-205.9909 370,-215.991 373.5001,-205.991 366.5001,-205.9909"/>
</g>
<!-- CreateDialogModule -->
<g id="node3" class="node">
<title>CreateDialogModule</title>
<polygon fill="#8dd3c7" stroke="#000000" points="507.1839,-122 504.1839,-126 483.1839,-126 480.1839,-122 372.8161,-122 372.8161,-86 507.1839,-86 507.1839,-122"/>
<text text-anchor="middle" x="440" y="-99.8" font-family="Times,serif" font-size="14.00" fill="#000000">CreateDialogModule</text>
</g>
<!-- CreateDialogModule&#45;&gt;ListTransporterModule -->
<g id="edge2" class="edge">
<title>CreateDialogModule&#45;&gt;ListTransporterModule</title>
<path fill="none" stroke="#000000" d="M408.1108,-122.1061C408.1108,-122.1061 408.1108,-140.991 408.1108,-140.991"/>
<polygon fill="#000000" stroke="#000000" points="404.6109,-140.9909 408.1108,-150.991 411.6109,-140.991 404.6109,-140.9909"/>
</g>
<!-- MaterialModule -->
<g id="node4" class="node">
<title>MaterialModule</title>
<polygon fill="#8dd3c7" stroke="#000000" points="354.4706,-122 351.4706,-126 330.4706,-126 327.4706,-122 247.5294,-122 247.5294,-86 354.4706,-86 354.4706,-122"/>
<text text-anchor="middle" x="301" y="-99.8" font-family="Times,serif" font-size="14.00" fill="#000000">MaterialModule</text>
</g>
<!-- MaterialModule&#45;&gt;ListTransporterModule -->
<g id="edge3" class="edge">
<title>MaterialModule&#45;&gt;ListTransporterModule</title>
<path fill="none" stroke="#000000" d="M325.5859,-122.1061C325.5859,-122.1061 325.5859,-140.991 325.5859,-140.991"/>
<polygon fill="#000000" stroke="#000000" points="322.086,-140.9909 325.5859,-150.991 329.086,-140.991 322.086,-140.9909"/>
</g>
<!-- ListTransporterService -->
<g id="node6" class="node">
<title>ListTransporterService</title>
<ellipse fill="#fdb462" stroke="#000000" cx="124" cy="-104" rx="100.1123" ry="18"/>
<text text-anchor="middle" x="124" y="-99.8" font-family="Times,serif" font-size="14.00" fill="#000000">ListTransporterService</text>
</g>
<!-- ListTransporterService&#45;&gt;ListTransporterModule -->
<g id="edge5" class="edge">
<title>ListTransporterService&#45;&gt;ListTransporterModule</title>
<path fill="none" stroke="#000000" d="M124,-122.1061C124,-141.3391 124,-169 124,-169 124,-169 286.8579,-169 286.8579,-169"/>
<polygon fill="#000000" stroke="#000000" points="286.858,-172.5001 296.8579,-169 286.8579,-165.5001 286.858,-172.5001"/>
</g>
</g>
</svg>
