<?xml version="1.0" encoding="UTF-8" standalone="no"?>
<!DOCTYPE svg PUBLIC "-//W3C//DTD SVG 1.1//EN"
 "http://www.w3.org/Graphics/SVG/1.1/DTD/svg11.dtd">
<!-- Generated by graphviz version 2.40.1 (20161225.0304)
 -->
<!-- Title: dependencies Pages: 1 -->
<svg width="883pt" height="284pt"
 viewBox="0.00 0.00 883.00 284.00" xmlns="http://www.w3.org/2000/svg" xmlns:xlink="http://www.w3.org/1999/xlink">
<g id="graph0" class="graph" transform="scale(1 1) rotate(0) translate(4 280)">
<title>dependencies</title>
<polygon fill="#ffffff" stroke="transparent" points="-4,4 -4,-280 879,-280 879,4 -4,4"/>
<text text-anchor="start" x="416.5091" y="-42.4" font-family="sans-serif" font-weight="bold" font-size="14.00" fill="#000000">Legend</text>
<polygon fill="#ffffb3" stroke="transparent" points="203.5,-10 203.5,-30 223.5,-30 223.5,-10 203.5,-10"/>
<text text-anchor="start" x="227.129" y="-15.4" font-family="sans-serif" font-size="14.00" fill="#000000"> &#160;Declarations</text>
<polygon fill="#8dd3c7" stroke="transparent" points="316.5,-10 316.5,-30 336.5,-30 336.5,-10 316.5,-10"/>
<text text-anchor="start" x="340.2251" y="-15.4" font-family="sans-serif" font-size="14.00" fill="#000000"> &#160;Module</text>
<polygon fill="#80b1d3" stroke="transparent" points="402.5,-10 402.5,-30 422.5,-30 422.5,-10 402.5,-10"/>
<text text-anchor="start" x="426.2812" y="-15.4" font-family="sans-serif" font-size="14.00" fill="#000000"> &#160;Bootstrap</text>
<polygon fill="#fdb462" stroke="transparent" points="499.5,-10 499.5,-30 519.5,-30 519.5,-10 499.5,-10"/>
<text text-anchor="start" x="523.1732" y="-15.4" font-family="sans-serif" font-size="14.00" fill="#000000"> &#160;Providers</text>
<polygon fill="#fb8072" stroke="transparent" points="595.5,-10 595.5,-30 615.5,-30 615.5,-10 595.5,-10"/>
<text text-anchor="start" x="619.2258" y="-15.4" font-family="sans-serif" font-size="14.00" fill="#000000"> &#160;Exports</text>
<g id="clust1" class="cluster">
<title>cluster_ListTransporterModule</title>
<polygon fill="none" stroke="#000000" stroke-dasharray="1,5" points="8,-70 8,-268 867,-268 867,-70 8,-70"/>
</g>
<g id="clust2" class="cluster">
<title>cluster_ListTransporterModule_declarations</title>
<polygon fill="none" stroke="#000000" points="675,-78 675,-130 859,-130 859,-78 675,-78"/>
</g>
<g id="clust4" class="cluster">
<title>cluster_ListTransporterModule_imports</title>
<polygon fill="none" stroke="#000000" points="240,-78 240,-130 667,-130 667,-78 240,-78"/>
</g>
<g id="clust5" class="cluster">
<title>cluster_ListTransporterModule_exports</title>
<polygon fill="none" stroke="#000000" points="346,-208 346,-260 534,-260 534,-208 346,-208"/>
</g>
<g id="clust7" class="cluster">
<title>cluster_ListTransporterModule_providers</title>
<polygon fill="none" stroke="#000000" points="16,-78 16,-130 232,-130 232,-78 16,-78"/>
</g>
<!-- ListTransporterComponent -->
<g id="node1" class="node">
<title>ListTransporterComponent</title>
<polygon fill="#ffffb3" stroke="#000000" points="851.4101,-122 682.5899,-122 682.5899,-86 851.4101,-86 851.4101,-122"/>
<text text-anchor="middle" x="767" y="-99.8" font-family="Times,serif" font-size="14.00" fill="#000000">ListTransporterComponent</text>
</g>
<!-- ListTransporterModule -->
<g id="node2" class="node">
<title>ListTransporterModule</title>
<polygon fill="#8dd3c7" stroke="#000000" points="513.1275,-187 510.1275,-191 489.1275,-191 486.1275,-187 366.8725,-187 366.8725,-151 513.1275,-151 513.1275,-187"/>
<text text-anchor="middle" x="440" y="-164.8" font-family="Times,serif" font-size="14.00" fill="#000000">ListTransporterModule</text>
</g>
<!-- ListTransporterComponent&#45;&gt;ListTransporterModule -->
<g id="edge1" class="edge">
<title>ListTransporterComponent&#45;&gt;ListTransporterModule</title>
<path fill="none" stroke="#000000" d="M767,-122.2843C767,-143.3211 767,-175 767,-175 767,-175 523.3852,-175 523.3852,-175"/>
<polygon fill="#000000" stroke="#000000" points="523.3852,-171.5001 513.3852,-175 523.3851,-178.5001 523.3852,-171.5001"/>
</g>
<!-- ListTransporterComponent  -->
<g id="node6" class="node">
<title>ListTransporterComponent </title>
<polygon fill="#fb8072" stroke="#000000" points="525.9096,-252 354.0904,-252 354.0904,-216 525.9096,-216 525.9096,-252"/>
<text text-anchor="middle" x="440" y="-229.8" font-family="Times,serif" font-size="14.00" fill="#000000">ListTransporterComponent </text>
</g>
<!-- ListTransporterModule&#45;&gt;ListTransporterComponent  -->
<g id="edge5" class="edge">
<title>ListTransporterModule&#45;&gt;ListTransporterComponent </title>
<path fill="none" stroke="#000000" stroke-dasharray="5,2" d="M440,-187.1061C440,-187.1061 440,-205.991 440,-205.991"/>
<polygon fill="#000000" stroke="#000000" points="436.5001,-205.9909 440,-215.991 443.5001,-205.991 436.5001,-205.9909"/>
</g>
<!-- CreateDialogModule -->
<g id="node3" class="node">
<title>CreateDialogModule</title>
<polygon fill="#8dd3c7" stroke="#000000" points="659.1839,-122 656.1839,-126 635.1839,-126 632.1839,-122 524.8161,-122 524.8161,-86 659.1839,-86 659.1839,-122"/>
<text text-anchor="middle" x="592" y="-99.8" font-family="Times,serif" font-size="14.00" fill="#000000">CreateDialogModule</text>
</g>
<!-- CreateDialogModule&#45;&gt;ListTransporterModule -->
<g id="edge2" class="edge">
<title>CreateDialogModule&#45;&gt;ListTransporterModule</title>
<path fill="none" stroke="#000000" d="M592.5233,-122.0225C592.5233,-139.3734 592.5233,-163 592.5233,-163 592.5233,-163 523.1345,-163 523.1345,-163"/>
<polygon fill="#000000" stroke="#000000" points="523.1346,-159.5001 513.1345,-163 523.1345,-166.5001 523.1346,-159.5001"/>
</g>
<!-- DeleteDialogModule -->
<g id="node4" class="node">
<title>DeleteDialogModule</title>
<polygon fill="#8dd3c7" stroke="#000000" points="507.1839,-122 504.1839,-126 483.1839,-126 480.1839,-122 372.8161,-122 372.8161,-86 507.1839,-86 507.1839,-122"/>
<text text-anchor="middle" x="440" y="-99.8" font-family="Times,serif" font-size="14.00" fill="#000000">DeleteDialogModule</text>
</g>
<!-- DeleteDialogModule&#45;&gt;ListTransporterModule -->
<g id="edge3" class="edge">
<title>DeleteDialogModule&#45;&gt;ListTransporterModule</title>
<path fill="none" stroke="#000000" d="M440,-122.1061C440,-122.1061 440,-140.991 440,-140.991"/>
<polygon fill="#000000" stroke="#000000" points="436.5001,-140.9909 440,-150.991 443.5001,-140.991 436.5001,-140.9909"/>
</g>
<!-- MaterialModule -->
<g id="node5" class="node">
<title>MaterialModule</title>
<polygon fill="#8dd3c7" stroke="#000000" points="354.4706,-122 351.4706,-126 330.4706,-126 327.4706,-122 247.5294,-122 247.5294,-86 354.4706,-86 354.4706,-122"/>
<text text-anchor="middle" x="301" y="-99.8" font-family="Times,serif" font-size="14.00" fill="#000000">MaterialModule</text>
</g>
<!-- MaterialModule&#45;&gt;ListTransporterModule -->
<g id="edge4" class="edge">
<title>MaterialModule&#45;&gt;ListTransporterModule</title>
<path fill="none" stroke="#000000" d="M300.78,-122.0225C300.78,-139.3734 300.78,-163 300.78,-163 300.78,-163 356.7206,-163 356.7206,-163"/>
<polygon fill="#000000" stroke="#000000" points="356.7207,-166.5001 366.7206,-163 356.7206,-159.5001 356.7207,-166.5001"/>
</g>
<!-- ListTransporterService -->
<g id="node7" class="node">
<title>ListTransporterService</title>
<ellipse fill="#fdb462" stroke="#000000" cx="124" cy="-104" rx="100.1123" ry="18"/>
<text text-anchor="middle" x="124" y="-99.8" font-family="Times,serif" font-size="14.00" fill="#000000">ListTransporterService</text>
</g>
<!-- ListTransporterService&#45;&gt;ListTransporterModule -->
<g id="edge6" class="edge">
<title>ListTransporterService&#45;&gt;ListTransporterModule</title>
<path fill="none" stroke="#000000" d="M124,-122.2843C124,-143.3211 124,-175 124,-175 124,-175 356.709,-175 356.709,-175"/>
<polygon fill="#000000" stroke="#000000" points="356.709,-178.5001 366.709,-175 356.7089,-171.5001 356.709,-178.5001"/>
</g>
</g>
</svg>
