<?xml version="1.0" encoding="UTF-8" standalone="no"?>
<!DOCTYPE svg PUBLIC "-//W3C//DTD SVG 1.1//EN"
 "http://www.w3.org/Graphics/SVG/1.1/DTD/svg11.dtd">
<!-- Generated by graphviz version 2.40.1 (20161225.0304)
 -->
<!-- Title: dependencies Pages: 1 -->
<svg width="504pt" height="284pt"
 viewBox="0.00 0.00 504.00 284.00" xmlns="http://www.w3.org/2000/svg" xmlns:xlink="http://www.w3.org/1999/xlink">
<g id="graph0" class="graph" transform="scale(1 1) rotate(0) translate(4 280)">
<title>dependencies</title>
<polygon fill="#ffffff" stroke="transparent" points="-4,4 -4,-280 500,-280 500,4 -4,4"/>
<text text-anchor="start" x="227.0091" y="-42.4" font-family="sans-serif" font-weight="bold" font-size="14.00" fill="#000000">Legend</text>
<polygon fill="#ffffb3" stroke="transparent" points="14,-10 14,-30 34,-30 34,-10 14,-10"/>
<text text-anchor="start" x="37.629" y="-15.4" font-family="sans-serif" font-size="14.00" fill="#000000"> &#160;Declarations</text>
<polygon fill="#8dd3c7" stroke="transparent" points="127,-10 127,-30 147,-30 147,-10 127,-10"/>
<text text-anchor="start" x="150.7251" y="-15.4" font-family="sans-serif" font-size="14.00" fill="#000000"> &#160;Module</text>
<polygon fill="#80b1d3" stroke="transparent" points="213,-10 213,-30 233,-30 233,-10 213,-10"/>
<text text-anchor="start" x="236.7812" y="-15.4" font-family="sans-serif" font-size="14.00" fill="#000000"> &#160;Bootstrap</text>
<polygon fill="#fdb462" stroke="transparent" points="310,-10 310,-30 330,-30 330,-10 310,-10"/>
<text text-anchor="start" x="333.6732" y="-15.4" font-family="sans-serif" font-size="14.00" fill="#000000"> &#160;Providers</text>
<polygon fill="#fb8072" stroke="transparent" points="406,-10 406,-30 426,-30 426,-10 406,-10"/>
<text text-anchor="start" x="429.7258" y="-15.4" font-family="sans-serif" font-size="14.00" fill="#000000"> &#160;Exports</text>
<g id="clust1" class="cluster">
<title>cluster_ListTransporterModule</title>
<polygon fill="none" stroke="#000000" stroke-dasharray="1,5" points="36,-70 36,-268 460,-268 460,-70 36,-70"/>
</g>
<g id="clust2" class="cluster">
<title>cluster_ListTransporterModule_declarations</title>
<polygon fill="none" stroke="#000000" points="268,-78 268,-130 452,-130 452,-78 268,-78"/>
</g>
<g id="clust5" class="cluster">
<title>cluster_ListTransporterModule_exports</title>
<polygon fill="none" stroke="#000000" points="161,-208 161,-260 349,-260 349,-208 161,-208"/>
</g>
<g id="clust7" class="cluster">
<title>cluster_ListTransporterModule_providers</title>
<polygon fill="none" stroke="#000000" points="44,-78 44,-130 260,-130 260,-78 44,-78"/>
</g>
<!-- ListTransporterComponent -->
<g id="node1" class="node">
<title>ListTransporterComponent</title>
<polygon fill="#ffffb3" stroke="#000000" points="444.4101,-122 275.5899,-122 275.5899,-86 444.4101,-86 444.4101,-122"/>
<text text-anchor="middle" x="360" y="-99.8" font-family="Times,serif" font-size="14.00" fill="#000000">ListTransporterComponent</text>
</g>
<!-- ListTransporterModule -->
<g id="node2" class="node">
<title>ListTransporterModule</title>
<polygon fill="#8dd3c7" stroke="#000000" points="328.1275,-187 325.1275,-191 304.1275,-191 301.1275,-187 181.8725,-187 181.8725,-151 328.1275,-151 328.1275,-187"/>
<text text-anchor="middle" x="255" y="-164.8" font-family="Times,serif" font-size="14.00" fill="#000000">ListTransporterModule</text>
</g>
<!-- ListTransporterComponent&#45;&gt;ListTransporterModule -->
<g id="edge1" class="edge">
<title>ListTransporterComponent&#45;&gt;ListTransporterModule</title>
<path fill="none" stroke="#000000" d="M302.0544,-122.1061C302.0544,-122.1061 302.0544,-140.991 302.0544,-140.991"/>
<polygon fill="#000000" stroke="#000000" points="298.5544,-140.9909 302.0544,-150.991 305.5544,-140.991 298.5544,-140.9909"/>
</g>
<!-- ListTransporterComponent  -->
<g id="node3" class="node">
<title>ListTransporterComponent </title>
<polygon fill="#fb8072" stroke="#000000" points="340.9096,-252 169.0904,-252 169.0904,-216 340.9096,-216 340.9096,-252"/>
<text text-anchor="middle" x="255" y="-229.8" font-family="Times,serif" font-size="14.00" fill="#000000">ListTransporterComponent </text>
</g>
<!-- ListTransporterModule&#45;&gt;ListTransporterComponent  -->
<g id="edge2" class="edge">
<title>ListTransporterModule&#45;&gt;ListTransporterComponent </title>
<path fill="none" stroke="#000000" stroke-dasharray="5,2" d="M255,-187.1061C255,-187.1061 255,-205.991 255,-205.991"/>
<polygon fill="#000000" stroke="#000000" points="251.5001,-205.9909 255,-215.991 258.5001,-205.991 251.5001,-205.9909"/>
</g>
<!-- ListTransporterService -->
<g id="node4" class="node">
<title>ListTransporterService</title>
<ellipse fill="#fdb462" stroke="#000000" cx="152" cy="-104" rx="100.1123" ry="18"/>
<text text-anchor="middle" x="152" y="-99.8" font-family="Times,serif" font-size="14.00" fill="#000000">ListTransporterService</text>
</g>
<!-- ListTransporterService&#45;&gt;ListTransporterModule -->
<g id="edge3" class="edge">
<title>ListTransporterService&#45;&gt;ListTransporterModule</title>
<path fill="none" stroke="#000000" d="M216.8713,-117.7848C216.8713,-117.7848 216.8713,-140.5475 216.8713,-140.5475"/>
<polygon fill="#000000" stroke="#000000" points="213.3714,-140.5474 216.8713,-150.5475 220.3714,-140.5475 213.3714,-140.5474"/>
</g>
</g>
</svg>
