<?xml version="1.0" encoding="UTF-8" standalone="no"?>
<!DOCTYPE svg PUBLIC "-//W3C//DTD SVG 1.1//EN"
 "http://www.w3.org/Graphics/SVG/1.1/DTD/svg11.dtd">
<!-- Generated by graphviz version 2.40.1 (20161225.0304)
 -->
<!-- Title: dependencies Pages: 1 -->
<svg width="608pt" height="284pt"
 viewBox="0.00 0.00 608.00 284.00" xmlns="http://www.w3.org/2000/svg" xmlns:xlink="http://www.w3.org/1999/xlink">
<g id="graph0" class="graph" transform="scale(1 1) rotate(0) translate(4 280)">
<title>dependencies</title>
<polygon fill="#ffffff" stroke="transparent" points="-4,4 -4,-280 604,-280 604,4 -4,4"/>
<text text-anchor="start" x="279.0091" y="-42.4" font-family="sans-serif" font-weight="bold" font-size="14.00" fill="#000000">Legend</text>
<polygon fill="#ffffb3" stroke="transparent" points="66,-10 66,-30 86,-30 86,-10 66,-10"/>
<text text-anchor="start" x="89.629" y="-15.4" font-family="sans-serif" font-size="14.00" fill="#000000"> &#160;Declarations</text>
<polygon fill="#8dd3c7" stroke="transparent" points="179,-10 179,-30 199,-30 199,-10 179,-10"/>
<text text-anchor="start" x="202.7251" y="-15.4" font-family="sans-serif" font-size="14.00" fill="#000000"> &#160;Module</text>
<polygon fill="#80b1d3" stroke="transparent" points="265,-10 265,-30 285,-30 285,-10 265,-10"/>
<text text-anchor="start" x="288.7812" y="-15.4" font-family="sans-serif" font-size="14.00" fill="#000000"> &#160;Bootstrap</text>
<polygon fill="#fdb462" stroke="transparent" points="362,-10 362,-30 382,-30 382,-10 362,-10"/>
<text text-anchor="start" x="385.6732" y="-15.4" font-family="sans-serif" font-size="14.00" fill="#000000"> &#160;Providers</text>
<polygon fill="#fb8072" stroke="transparent" points="458,-10 458,-30 478,-30 478,-10 458,-10"/>
<text text-anchor="start" x="481.7258" y="-15.4" font-family="sans-serif" font-size="14.00" fill="#000000"> &#160;Exports</text>
<g id="clust1" class="cluster">
<title>cluster_ShippingMethodsModule</title>
<polygon fill="none" stroke="#000000" stroke-dasharray="1,5" points="8,-70 8,-268 592,-268 592,-70 8,-70"/>
</g>
<g id="clust2" class="cluster">
<title>cluster_ShippingMethodsModule_declarations</title>
<polygon fill="none" stroke="#000000" points="388,-78 388,-130 584,-130 584,-78 388,-78"/>
</g>
<g id="clust4" class="cluster">
<title>cluster_ShippingMethodsModule_imports</title>
<polygon fill="none" stroke="#000000" points="258,-78 258,-130 380,-130 380,-78 258,-78"/>
</g>
<g id="clust5" class="cluster">
<title>cluster_ShippingMethodsModule_exports</title>
<polygon fill="none" stroke="#000000" points="219,-208 219,-260 419,-260 419,-208 219,-208"/>
</g>
<g id="clust7" class="cluster">
<title>cluster_ShippingMethodsModule_providers</title>
<polygon fill="none" stroke="#000000" points="16,-78 16,-130 250,-130 250,-78 16,-78"/>
</g>
<!-- ShippingMethodsComponent -->
<g id="node1" class="node">
<title>ShippingMethodsComponent</title>
<polygon fill="#ffffb3" stroke="#000000" points="576.3906,-122 395.6094,-122 395.6094,-86 576.3906,-86 576.3906,-122"/>
<text text-anchor="middle" x="486" y="-99.8" font-family="Times,serif" font-size="14.00" fill="#000000">ShippingMethodsComponent</text>
</g>
<!-- ShippingMethodsModule -->
<g id="node2" class="node">
<title>ShippingMethodsModule</title>
<polygon fill="#8dd3c7" stroke="#000000" points="398.608,-187 395.608,-191 374.608,-191 371.608,-187 239.392,-187 239.392,-151 398.608,-151 398.608,-187"/>
<text text-anchor="middle" x="319" y="-164.8" font-family="Times,serif" font-size="14.00" fill="#000000">ShippingMethodsModule</text>
</g>
<!-- ShippingMethodsComponent&#45;&gt;ShippingMethodsModule -->
<g id="edge1" class="edge">
<title>ShippingMethodsComponent&#45;&gt;ShippingMethodsModule</title>
<path fill="none" stroke="#000000" d="M404.8746,-122.1061C404.8746,-141.3391 404.8746,-169 404.8746,-169 404.8746,-169 404.2571,-169 404.2571,-169"/>
<polygon fill="#000000" stroke="#000000" points="408.6988,-165.5002 398.6988,-169 408.6987,-172.5002 408.6988,-165.5002"/>
</g>
<!-- ShippingMethodsComponent  -->
<g id="node4" class="node">
<title>ShippingMethodsComponent </title>
<polygon fill="#fb8072" stroke="#000000" points="411.391,-252 226.609,-252 226.609,-216 411.391,-216 411.391,-252"/>
<text text-anchor="middle" x="319" y="-229.8" font-family="Times,serif" font-size="14.00" fill="#000000">ShippingMethodsComponent </text>
</g>
<!-- ShippingMethodsModule&#45;&gt;ShippingMethodsComponent  -->
<g id="edge3" class="edge">
<title>ShippingMethodsModule&#45;&gt;ShippingMethodsComponent </title>
<path fill="none" stroke="#000000" stroke-dasharray="5,2" d="M319,-187.1061C319,-187.1061 319,-205.991 319,-205.991"/>
<polygon fill="#000000" stroke="#000000" points="315.5001,-205.9909 319,-215.991 322.5001,-205.991 315.5001,-205.9909"/>
</g>
<!-- MaterialModule -->
<g id="node3" class="node">
<title>MaterialModule</title>
<polygon fill="#8dd3c7" stroke="#000000" points="372.4706,-122 369.4706,-126 348.4706,-126 345.4706,-122 265.5294,-122 265.5294,-86 372.4706,-86 372.4706,-122"/>
<text text-anchor="middle" x="319" y="-99.8" font-family="Times,serif" font-size="14.00" fill="#000000">MaterialModule</text>
</g>
<!-- MaterialModule&#45;&gt;ShippingMethodsModule -->
<g id="edge2" class="edge">
<title>MaterialModule&#45;&gt;ShippingMethodsModule</title>
<path fill="none" stroke="#000000" d="M319,-122.1061C319,-122.1061 319,-140.991 319,-140.991"/>
<polygon fill="#000000" stroke="#000000" points="315.5001,-140.9909 319,-150.991 322.5001,-140.991 315.5001,-140.9909"/>
</g>
<!-- ShippingMethodsService -->
<g id="node5" class="node">
<title>ShippingMethodsService</title>
<ellipse fill="#fdb462" stroke="#000000" cx="133" cy="-104" rx="108.8309" ry="18"/>
<text text-anchor="middle" x="133" y="-99.8" font-family="Times,serif" font-size="14.00" fill="#000000">ShippingMethodsService</text>
</g>
<!-- ShippingMethodsService&#45;&gt;ShippingMethodsModule -->
<g id="edge4" class="edge">
<title>ShippingMethodsService&#45;&gt;ShippingMethodsModule</title>
<path fill="none" stroke="#000000" d="M233.1254,-111.2045C233.1254,-128.128 233.1254,-169 233.1254,-169 233.1254,-169 233.7429,-169 233.7429,-169"/>
<polygon fill="#000000" stroke="#000000" points="229.3013,-172.5002 239.3012,-169 229.3012,-165.5002 229.3013,-172.5002"/>
</g>
</g>
</svg>
