<?xml version="1.0" encoding="UTF-8" standalone="no"?>
<!DOCTYPE svg PUBLIC "-//W3C//DTD SVG 1.1//EN"
 "http://www.w3.org/Graphics/SVG/1.1/DTD/svg11.dtd">
<!-- Generated by graphviz version 2.40.1 (20161225.0304)
 -->
<!-- Title: dependencies Pages: 1 -->
<svg width="504pt" height="284pt"
 viewBox="0.00 0.00 504.00 284.00" xmlns="http://www.w3.org/2000/svg" xmlns:xlink="http://www.w3.org/1999/xlink">
<g id="graph0" class="graph" transform="scale(1 1) rotate(0) translate(4 280)">
<title>dependencies</title>
<polygon fill="#ffffff" stroke="transparent" points="-4,4 -4,-280 500,-280 500,4 -4,4"/>
<text text-anchor="start" x="227.0091" y="-42.4" font-family="sans-serif" font-weight="bold" font-size="14.00" fill="#000000">Legend</text>
<polygon fill="#ffffb3" stroke="transparent" points="14,-10 14,-30 34,-30 34,-10 14,-10"/>
<text text-anchor="start" x="37.629" y="-15.4" font-family="sans-serif" font-size="14.00" fill="#000000"> &#160;Declarations</text>
<polygon fill="#8dd3c7" stroke="transparent" points="127,-10 127,-30 147,-30 147,-10 127,-10"/>
<text text-anchor="start" x="150.7251" y="-15.4" font-family="sans-serif" font-size="14.00" fill="#000000"> &#160;Module</text>
<polygon fill="#80b1d3" stroke="transparent" points="213,-10 213,-30 233,-30 233,-10 213,-10"/>
<text text-anchor="start" x="236.7812" y="-15.4" font-family="sans-serif" font-size="14.00" fill="#000000"> &#160;Bootstrap</text>
<polygon fill="#fdb462" stroke="transparent" points="310,-10 310,-30 330,-30 330,-10 310,-10"/>
<text text-anchor="start" x="333.6732" y="-15.4" font-family="sans-serif" font-size="14.00" fill="#000000"> &#160;Providers</text>
<polygon fill="#fb8072" stroke="transparent" points="406,-10 406,-30 426,-30 426,-10 406,-10"/>
<text text-anchor="start" x="429.7258" y="-15.4" font-family="sans-serif" font-size="14.00" fill="#000000"> &#160;Exports</text>
<g id="clust1" class="cluster">
<title>cluster_ShippingMethodsModule</title>
<polygon fill="none" stroke="#000000" stroke-dasharray="1,5" points="77,-70 77,-268 419,-268 419,-70 77,-70"/>
</g>
<g id="clust2" class="cluster">
<title>cluster_ShippingMethodsModule_declarations</title>
<polygon fill="none" stroke="#000000" points="215,-78 215,-130 411,-130 411,-78 215,-78"/>
</g>
<g id="clust4" class="cluster">
<title>cluster_ShippingMethodsModule_imports</title>
<polygon fill="none" stroke="#000000" points="85,-78 85,-130 207,-130 207,-78 85,-78"/>
</g>
<g id="clust5" class="cluster">
<title>cluster_ShippingMethodsModule_exports</title>
<polygon fill="none" stroke="#000000" points="148,-208 148,-260 348,-260 348,-208 148,-208"/>
</g>
<!-- ShippingMethodsComponent -->
<g id="node1" class="node">
<title>ShippingMethodsComponent</title>
<polygon fill="#ffffb3" stroke="#000000" points="403.3906,-122 222.6094,-122 222.6094,-86 403.3906,-86 403.3906,-122"/>
<text text-anchor="middle" x="313" y="-99.8" font-family="Times,serif" font-size="14.00" fill="#000000">ShippingMethodsComponent</text>
</g>
<!-- ShippingMethodsModule -->
<g id="node2" class="node">
<title>ShippingMethodsModule</title>
<polygon fill="#8dd3c7" stroke="#000000" points="327.608,-187 324.608,-191 303.608,-191 300.608,-187 168.392,-187 168.392,-151 327.608,-151 327.608,-187"/>
<text text-anchor="middle" x="248" y="-164.8" font-family="Times,serif" font-size="14.00" fill="#000000">ShippingMethodsModule</text>
</g>
<!-- ShippingMethodsComponent&#45;&gt;ShippingMethodsModule -->
<g id="edge1" class="edge">
<title>ShippingMethodsComponent&#45;&gt;ShippingMethodsModule</title>
<path fill="none" stroke="#000000" d="M275.0544,-122.1061C275.0544,-122.1061 275.0544,-140.991 275.0544,-140.991"/>
<polygon fill="#000000" stroke="#000000" points="271.5544,-140.9909 275.0544,-150.991 278.5544,-140.991 271.5544,-140.9909"/>
</g>
<!-- ShippingMethodsComponent  -->
<g id="node4" class="node">
<title>ShippingMethodsComponent </title>
<polygon fill="#fb8072" stroke="#000000" points="340.391,-252 155.609,-252 155.609,-216 340.391,-216 340.391,-252"/>
<text text-anchor="middle" x="248" y="-229.8" font-family="Times,serif" font-size="14.00" fill="#000000">ShippingMethodsComponent </text>
</g>
<!-- ShippingMethodsModule&#45;&gt;ShippingMethodsComponent  -->
<g id="edge3" class="edge">
<title>ShippingMethodsModule&#45;&gt;ShippingMethodsComponent </title>
<path fill="none" stroke="#000000" stroke-dasharray="5,2" d="M248,-187.1061C248,-187.1061 248,-205.991 248,-205.991"/>
<polygon fill="#000000" stroke="#000000" points="244.5001,-205.9909 248,-215.991 251.5001,-205.991 244.5001,-205.9909"/>
</g>
<!-- MaterialModule -->
<g id="node3" class="node">
<title>MaterialModule</title>
<polygon fill="#8dd3c7" stroke="#000000" points="199.4706,-122 196.4706,-126 175.4706,-126 172.4706,-122 92.5294,-122 92.5294,-86 199.4706,-86 199.4706,-122"/>
<text text-anchor="middle" x="146" y="-99.8" font-family="Times,serif" font-size="14.00" fill="#000000">MaterialModule</text>
</g>
<!-- MaterialModule&#45;&gt;ShippingMethodsModule -->
<g id="edge2" class="edge">
<title>MaterialModule&#45;&gt;ShippingMethodsModule</title>
<path fill="none" stroke="#000000" d="M183.9657,-122.1061C183.9657,-122.1061 183.9657,-140.991 183.9657,-140.991"/>
<polygon fill="#000000" stroke="#000000" points="180.4657,-140.9909 183.9657,-150.991 187.4657,-140.991 180.4657,-140.9909"/>
</g>
</g>
</svg>
