<?xml version="1.0" encoding="UTF-8" standalone="no"?>
<!DOCTYPE svg PUBLIC "-//W3C//DTD SVG 1.1//EN"
 "http://www.w3.org/Graphics/SVG/1.1/DTD/svg11.dtd">
<!-- Generated by graphviz version 2.40.1 (20161225.0304)
 -->
<!-- Title: dependencies Pages: 1 -->
<svg width="504pt" height="284pt"
 viewBox="0.00 0.00 504.00 284.00" xmlns="http://www.w3.org/2000/svg" xmlns:xlink="http://www.w3.org/1999/xlink">
<g id="graph0" class="graph" transform="scale(1 1) rotate(0) translate(4 280)">
<title>dependencies</title>
<polygon fill="#ffffff" stroke="transparent" points="-4,4 -4,-280 500,-280 500,4 -4,4"/>
<text text-anchor="start" x="227.0091" y="-42.4" font-family="sans-serif" font-weight="bold" font-size="14.00" fill="#000000">Legend</text>
<polygon fill="#ffffb3" stroke="transparent" points="14,-10 14,-30 34,-30 34,-10 14,-10"/>
<text text-anchor="start" x="37.629" y="-15.4" font-family="sans-serif" font-size="14.00" fill="#000000"> &#160;Declarations</text>
<polygon fill="#8dd3c7" stroke="transparent" points="127,-10 127,-30 147,-30 147,-10 127,-10"/>
<text text-anchor="start" x="150.7251" y="-15.4" font-family="sans-serif" font-size="14.00" fill="#000000"> &#160;Module</text>
<polygon fill="#80b1d3" stroke="transparent" points="213,-10 213,-30 233,-30 233,-10 213,-10"/>
<text text-anchor="start" x="236.7812" y="-15.4" font-family="sans-serif" font-size="14.00" fill="#000000"> &#160;Bootstrap</text>
<polygon fill="#fdb462" stroke="transparent" points="310,-10 310,-30 330,-30 330,-10 310,-10"/>
<text text-anchor="start" x="333.6732" y="-15.4" font-family="sans-serif" font-size="14.00" fill="#000000"> &#160;Providers</text>
<polygon fill="#fb8072" stroke="transparent" points="406,-10 406,-30 426,-30 426,-10 406,-10"/>
<text text-anchor="start" x="429.7258" y="-15.4" font-family="sans-serif" font-size="14.00" fill="#000000"> &#160;Exports</text>
<g id="clust1" class="cluster">
<title>cluster_QuotingAdministratorModule</title>
<polygon fill="none" stroke="#000000" stroke-dasharray="1,5" points="37,-70 37,-268 459,-268 459,-70 37,-70"/>
</g>
<g id="clust2" class="cluster">
<title>cluster_QuotingAdministratorModule_declarations</title>
<polygon fill="none" stroke="#000000" points="229,-78 229,-130 451,-130 451,-78 229,-78"/>
</g>
<g id="clust4" class="cluster">
<title>cluster_QuotingAdministratorModule_imports</title>
<polygon fill="none" stroke="#000000" points="45,-78 45,-130 221,-130 221,-78 45,-78"/>
</g>
<g id="clust5" class="cluster">
<title>cluster_QuotingAdministratorModule_exports</title>
<polygon fill="none" stroke="#000000" points="135,-208 135,-260 361,-260 361,-208 135,-208"/>
</g>
<!-- QuotingAdministratorComponent -->
<g id="node1" class="node">
<title>QuotingAdministratorComponent</title>
<polygon fill="#ffffb3" stroke="#000000" points="442.7603,-122 237.2397,-122 237.2397,-86 442.7603,-86 442.7603,-122"/>
<text text-anchor="middle" x="340" y="-99.8" font-family="Times,serif" font-size="14.00" fill="#000000">QuotingAdministratorComponent</text>
</g>
<!-- QuotingAdministratorModule -->
<g id="node2" class="node">
<title>QuotingAdministratorModule</title>
<polygon fill="#8dd3c7" stroke="#000000" points="339.9776,-187 336.9776,-191 315.9776,-191 312.9776,-187 156.0224,-187 156.0224,-151 339.9776,-151 339.9776,-187"/>
<text text-anchor="middle" x="248" y="-164.8" font-family="Times,serif" font-size="14.00" fill="#000000">QuotingAdministratorModule</text>
</g>
<!-- QuotingAdministratorComponent&#45;&gt;QuotingAdministratorModule -->
<g id="edge1" class="edge">
<title>QuotingAdministratorComponent&#45;&gt;QuotingAdministratorModule</title>
<path fill="none" stroke="#000000" d="M288.5544,-122.1061C288.5544,-122.1061 288.5544,-140.991 288.5544,-140.991"/>
<polygon fill="#000000" stroke="#000000" points="285.0544,-140.9909 288.5544,-150.991 292.0544,-140.991 285.0544,-140.9909"/>
</g>
<!-- QuotingAdministratorComponent  -->
<g id="node4" class="node">
<title>QuotingAdministratorComponent </title>
<polygon fill="#fb8072" stroke="#000000" points="352.7604,-252 143.2396,-252 143.2396,-216 352.7604,-216 352.7604,-252"/>
<text text-anchor="middle" x="248" y="-229.8" font-family="Times,serif" font-size="14.00" fill="#000000">QuotingAdministratorComponent </text>
</g>
<!-- QuotingAdministratorModule&#45;&gt;QuotingAdministratorComponent  -->
<g id="edge3" class="edge">
<title>QuotingAdministratorModule&#45;&gt;QuotingAdministratorComponent </title>
<path fill="none" stroke="#000000" stroke-dasharray="5,2" d="M248,-187.1061C248,-187.1061 248,-205.991 248,-205.991"/>
<polygon fill="#000000" stroke="#000000" points="244.5001,-205.9909 248,-215.991 251.5001,-205.991 244.5001,-205.9909"/>
</g>
<!-- ShippingMethodsModule -->
<g id="node3" class="node">
<title>ShippingMethodsModule</title>
<polygon fill="#8dd3c7" stroke="#000000" points="212.608,-122 209.608,-126 188.608,-126 185.608,-122 53.392,-122 53.392,-86 212.608,-86 212.608,-122"/>
<text text-anchor="middle" x="133" y="-99.8" font-family="Times,serif" font-size="14.00" fill="#000000">ShippingMethodsModule</text>
</g>
<!-- ShippingMethodsModule&#45;&gt;QuotingAdministratorModule -->
<g id="edge2" class="edge">
<title>ShippingMethodsModule&#45;&gt;QuotingAdministratorModule</title>
<path fill="none" stroke="#000000" d="M184.2826,-122.1061C184.2826,-122.1061 184.2826,-140.991 184.2826,-140.991"/>
<polygon fill="#000000" stroke="#000000" points="180.7827,-140.9909 184.2826,-150.991 187.7827,-140.991 180.7827,-140.9909"/>
</g>
</g>
</svg>
