<?xml version="1.0" encoding="UTF-8" standalone="no"?>
<!DOCTYPE svg PUBLIC "-//W3C//DTD SVG 1.1//EN"
 "http://www.w3.org/Graphics/SVG/1.1/DTD/svg11.dtd">
<!-- Generated by graphviz version 2.40.1 (20161225.0304)
 -->
<!-- Title: dependencies Pages: 1 -->
<svg width="610pt" height="284pt"
 viewBox="0.00 0.00 610.00 284.00" xmlns="http://www.w3.org/2000/svg" xmlns:xlink="http://www.w3.org/1999/xlink">
<g id="graph0" class="graph" transform="scale(1 1) rotate(0) translate(4 280)">
<title>dependencies</title>
<polygon fill="#ffffff" stroke="transparent" points="-4,4 -4,-280 606,-280 606,4 -4,4"/>
<text text-anchor="start" x="280.0091" y="-42.4" font-family="sans-serif" font-weight="bold" font-size="14.00" fill="#000000">Legend</text>
<polygon fill="#ffffb3" stroke="transparent" points="67,-10 67,-30 87,-30 87,-10 67,-10"/>
<text text-anchor="start" x="90.629" y="-15.4" font-family="sans-serif" font-size="14.00" fill="#000000"> &#160;Declarations</text>
<polygon fill="#8dd3c7" stroke="transparent" points="180,-10 180,-30 200,-30 200,-10 180,-10"/>
<text text-anchor="start" x="203.7251" y="-15.4" font-family="sans-serif" font-size="14.00" fill="#000000"> &#160;Module</text>
<polygon fill="#80b1d3" stroke="transparent" points="266,-10 266,-30 286,-30 286,-10 266,-10"/>
<text text-anchor="start" x="289.7812" y="-15.4" font-family="sans-serif" font-size="14.00" fill="#000000"> &#160;Bootstrap</text>
<polygon fill="#fdb462" stroke="transparent" points="363,-10 363,-30 383,-30 383,-10 363,-10"/>
<text text-anchor="start" x="386.6732" y="-15.4" font-family="sans-serif" font-size="14.00" fill="#000000"> &#160;Providers</text>
<polygon fill="#fb8072" stroke="transparent" points="459,-10 459,-30 479,-30 479,-10 459,-10"/>
<text text-anchor="start" x="482.7258" y="-15.4" font-family="sans-serif" font-size="14.00" fill="#000000"> &#160;Exports</text>
<g id="clust1" class="cluster">
<title>cluster_QuotingAdministratorModule</title>
<polygon fill="none" stroke="#000000" stroke-dasharray="1,5" points="8,-70 8,-268 594,-268 594,-70 8,-70"/>
</g>
<g id="clust2" class="cluster">
<title>cluster_QuotingAdministratorModule_declarations</title>
<polygon fill="none" stroke="#000000" points="364,-78 364,-130 586,-130 586,-78 364,-78"/>
</g>
<g id="clust4" class="cluster">
<title>cluster_QuotingAdministratorModule_imports</title>
<polygon fill="none" stroke="#000000" points="16,-78 16,-130 356,-130 356,-78 16,-78"/>
</g>
<g id="clust5" class="cluster">
<title>cluster_QuotingAdministratorModule_exports</title>
<polygon fill="none" stroke="#000000" points="162,-208 162,-260 388,-260 388,-208 162,-208"/>
</g>
<!-- QuotingAdministratorComponent -->
<g id="node1" class="node">
<title>QuotingAdministratorComponent</title>
<polygon fill="#ffffb3" stroke="#000000" points="577.7603,-122 372.2397,-122 372.2397,-86 577.7603,-86 577.7603,-122"/>
<text text-anchor="middle" x="475" y="-99.8" font-family="Times,serif" font-size="14.00" fill="#000000">QuotingAdministratorComponent</text>
</g>
<!-- QuotingAdministratorModule -->
<g id="node2" class="node">
<title>QuotingAdministratorModule</title>
<polygon fill="#8dd3c7" stroke="#000000" points="366.9776,-187 363.9776,-191 342.9776,-191 339.9776,-187 183.0224,-187 183.0224,-151 366.9776,-151 366.9776,-187"/>
<text text-anchor="middle" x="275" y="-164.8" font-family="Times,serif" font-size="14.00" fill="#000000">QuotingAdministratorModule</text>
</g>
<!-- QuotingAdministratorComponent&#45;&gt;QuotingAdministratorModule -->
<g id="edge1" class="edge">
<title>QuotingAdministratorComponent&#45;&gt;QuotingAdministratorModule</title>
<path fill="none" stroke="#000000" d="M375.875,-122.1061C375.875,-141.3391 375.875,-169 375.875,-169 375.875,-169 375.0149,-169 375.0149,-169"/>
<polygon fill="#000000" stroke="#000000" points="377.2745,-165.5001 367.2745,-169 377.2744,-172.5001 377.2745,-165.5001"/>
</g>
<!-- QuotingAdministratorComponent  -->
<g id="node5" class="node">
<title>QuotingAdministratorComponent </title>
<polygon fill="#fb8072" stroke="#000000" points="379.7604,-252 170.2396,-252 170.2396,-216 379.7604,-216 379.7604,-252"/>
<text text-anchor="middle" x="275" y="-229.8" font-family="Times,serif" font-size="14.00" fill="#000000">QuotingAdministratorComponent </text>
</g>
<!-- QuotingAdministratorModule&#45;&gt;QuotingAdministratorComponent  -->
<g id="edge4" class="edge">
<title>QuotingAdministratorModule&#45;&gt;QuotingAdministratorComponent </title>
<path fill="none" stroke="#000000" stroke-dasharray="5,2" d="M275,-187.1061C275,-187.1061 275,-205.991 275,-205.991"/>
<polygon fill="#000000" stroke="#000000" points="271.5001,-205.9909 275,-215.991 278.5001,-205.991 271.5001,-205.9909"/>
</g>
<!-- ListTransporterModule -->
<g id="node3" class="node">
<title>ListTransporterModule</title>
<polygon fill="#8dd3c7" stroke="#000000" points="348.1275,-122 345.1275,-126 324.1275,-126 321.1275,-122 201.8725,-122 201.8725,-86 348.1275,-86 348.1275,-122"/>
<text text-anchor="middle" x="275" y="-99.8" font-family="Times,serif" font-size="14.00" fill="#000000">ListTransporterModule</text>
</g>
<!-- ListTransporterModule&#45;&gt;QuotingAdministratorModule -->
<g id="edge2" class="edge">
<title>ListTransporterModule&#45;&gt;QuotingAdministratorModule</title>
<path fill="none" stroke="#000000" d="M275,-122.1061C275,-122.1061 275,-140.991 275,-140.991"/>
<polygon fill="#000000" stroke="#000000" points="271.5001,-140.9909 275,-150.991 278.5001,-140.991 271.5001,-140.9909"/>
</g>
<!-- ShippingMethodsModule -->
<g id="node4" class="node">
<title>ShippingMethodsModule</title>
<polygon fill="#8dd3c7" stroke="#000000" points="183.608,-122 180.608,-126 159.608,-126 156.608,-122 24.392,-122 24.392,-86 183.608,-86 183.608,-122"/>
<text text-anchor="middle" x="104" y="-99.8" font-family="Times,serif" font-size="14.00" fill="#000000">ShippingMethodsModule</text>
</g>
<!-- ShippingMethodsModule&#45;&gt;QuotingAdministratorModule -->
<g id="edge3" class="edge">
<title>ShippingMethodsModule&#45;&gt;QuotingAdministratorModule</title>
<path fill="none" stroke="#000000" d="M176.6906,-122.1061C176.6906,-141.3391 176.6906,-169 176.6906,-169 176.6906,-169 177.3055,-169 177.3055,-169"/>
<polygon fill="#000000" stroke="#000000" points="172.8403,-172.5002 182.8402,-169 172.8402,-165.5002 172.8403,-172.5002"/>
</g>
</g>
</svg>
