<?xml version="1.0" encoding="UTF-8" standalone="no"?>
<!DOCTYPE svg PUBLIC "-//W3C//DTD SVG 1.1//EN"
 "http://www.w3.org/Graphics/SVG/1.1/DTD/svg11.dtd">
<!-- Generated by graphviz version 2.40.1 (20161225.0304)
 -->
<!-- Title: dependencies Pages: 1 -->
<svg width="743pt" height="284pt"
 viewBox="0.00 0.00 743.00 284.00" xmlns="http://www.w3.org/2000/svg" xmlns:xlink="http://www.w3.org/1999/xlink">
<g id="graph0" class="graph" transform="scale(1 1) rotate(0) translate(4 280)">
<title>dependencies</title>
<polygon fill="#ffffff" stroke="transparent" points="-4,4 -4,-280 739,-280 739,4 -4,4"/>
<text text-anchor="start" x="346.5091" y="-42.4" font-family="sans-serif" font-weight="bold" font-size="14.00" fill="#000000">Legend</text>
<polygon fill="#ffffb3" stroke="transparent" points="133.5,-10 133.5,-30 153.5,-30 153.5,-10 133.5,-10"/>
<text text-anchor="start" x="157.129" y="-15.4" font-family="sans-serif" font-size="14.00" fill="#000000"> &#160;Declarations</text>
<polygon fill="#8dd3c7" stroke="transparent" points="246.5,-10 246.5,-30 266.5,-30 266.5,-10 246.5,-10"/>
<text text-anchor="start" x="270.2251" y="-15.4" font-family="sans-serif" font-size="14.00" fill="#000000"> &#160;Module</text>
<polygon fill="#80b1d3" stroke="transparent" points="332.5,-10 332.5,-30 352.5,-30 352.5,-10 332.5,-10"/>
<text text-anchor="start" x="356.2812" y="-15.4" font-family="sans-serif" font-size="14.00" fill="#000000"> &#160;Bootstrap</text>
<polygon fill="#fdb462" stroke="transparent" points="429.5,-10 429.5,-30 449.5,-30 449.5,-10 429.5,-10"/>
<text text-anchor="start" x="453.1732" y="-15.4" font-family="sans-serif" font-size="14.00" fill="#000000"> &#160;Providers</text>
<polygon fill="#fb8072" stroke="transparent" points="525.5,-10 525.5,-30 545.5,-30 545.5,-10 525.5,-10"/>
<text text-anchor="start" x="549.2258" y="-15.4" font-family="sans-serif" font-size="14.00" fill="#000000"> &#160;Exports</text>
<g id="clust1" class="cluster">
<title>cluster_QuotingAdministratorModule</title>
<polygon fill="none" stroke="#000000" stroke-dasharray="1,5" points="8,-70 8,-268 727,-268 727,-70 8,-70"/>
</g>
<g id="clust2" class="cluster">
<title>cluster_QuotingAdministratorModule_declarations</title>
<polygon fill="none" stroke="#000000" points="497,-78 497,-130 719,-130 719,-78 497,-78"/>
</g>
<g id="clust4" class="cluster">
<title>cluster_QuotingAdministratorModule_imports</title>
<polygon fill="none" stroke="#000000" points="16,-78 16,-130 489,-130 489,-78 16,-78"/>
</g>
<g id="clust5" class="cluster">
<title>cluster_QuotingAdministratorModule_exports</title>
<polygon fill="none" stroke="#000000" points="220,-208 220,-260 446,-260 446,-208 220,-208"/>
</g>
<!-- QuotingAdministratorComponent -->
<g id="node1" class="node">
<title>QuotingAdministratorComponent</title>
<polygon fill="#ffffb3" stroke="#000000" points="710.7603,-122 505.2397,-122 505.2397,-86 710.7603,-86 710.7603,-122"/>
<text text-anchor="middle" x="608" y="-99.8" font-family="Times,serif" font-size="14.00" fill="#000000">QuotingAdministratorComponent</text>
</g>
<!-- QuotingAdministratorModule -->
<g id="node2" class="node">
<title>QuotingAdministratorModule</title>
<polygon fill="#8dd3c7" stroke="#000000" points="424.9776,-187 421.9776,-191 400.9776,-191 397.9776,-187 241.0224,-187 241.0224,-151 424.9776,-151 424.9776,-187"/>
<text text-anchor="middle" x="333" y="-164.8" font-family="Times,serif" font-size="14.00" fill="#000000">QuotingAdministratorModule</text>
</g>
<!-- QuotingAdministratorComponent&#45;&gt;QuotingAdministratorModule -->
<g id="edge1" class="edge">
<title>QuotingAdministratorComponent&#45;&gt;QuotingAdministratorModule</title>
<path fill="none" stroke="#000000" d="M608,-122.1061C608,-141.3391 608,-169 608,-169 608,-169 435.336,-169 435.336,-169"/>
<polygon fill="#000000" stroke="#000000" points="435.3361,-165.5001 425.336,-169 435.336,-172.5001 435.3361,-165.5001"/>
</g>
<!-- QuotingAdministratorComponent  -->
<g id="node6" class="node">
<title>QuotingAdministratorComponent </title>
<polygon fill="#fb8072" stroke="#000000" points="437.7604,-252 228.2396,-252 228.2396,-216 437.7604,-216 437.7604,-252"/>
<text text-anchor="middle" x="333" y="-229.8" font-family="Times,serif" font-size="14.00" fill="#000000">QuotingAdministratorComponent </text>
</g>
<!-- QuotingAdministratorModule&#45;&gt;QuotingAdministratorComponent  -->
<g id="edge5" class="edge">
<title>QuotingAdministratorModule&#45;&gt;QuotingAdministratorComponent </title>
<path fill="none" stroke="#000000" stroke-dasharray="5,2" d="M333,-187.1061C333,-187.1061 333,-205.991 333,-205.991"/>
<polygon fill="#000000" stroke="#000000" points="329.5001,-205.9909 333,-215.991 336.5001,-205.991 329.5001,-205.9909"/>
</g>
<!-- ListTransporterModule -->
<g id="node3" class="node">
<title>ListTransporterModule</title>
<polygon fill="#8dd3c7" stroke="#000000" points="481.1275,-122 478.1275,-126 457.1275,-126 454.1275,-122 334.8725,-122 334.8725,-86 481.1275,-86 481.1275,-122"/>
<text text-anchor="middle" x="408" y="-99.8" font-family="Times,serif" font-size="14.00" fill="#000000">ListTransporterModule</text>
</g>
<!-- ListTransporterModule&#45;&gt;QuotingAdministratorModule -->
<g id="edge2" class="edge">
<title>ListTransporterModule&#45;&gt;QuotingAdministratorModule</title>
<path fill="none" stroke="#000000" d="M379.8377,-122.1061C379.8377,-122.1061 379.8377,-140.991 379.8377,-140.991"/>
<polygon fill="#000000" stroke="#000000" points="376.3377,-140.9909 379.8377,-150.991 383.3377,-140.991 376.3377,-140.9909"/>
</g>
<!-- ListZonesModule -->
<g id="node4" class="node">
<title>ListZonesModule</title>
<polygon fill="#8dd3c7" stroke="#000000" points="316.5409,-122 313.5409,-126 292.5409,-126 289.5409,-122 201.4591,-122 201.4591,-86 316.5409,-86 316.5409,-122"/>
<text text-anchor="middle" x="259" y="-99.8" font-family="Times,serif" font-size="14.00" fill="#000000">ListZonesModule</text>
</g>
<!-- ListZonesModule&#45;&gt;QuotingAdministratorModule -->
<g id="edge3" class="edge">
<title>ListZonesModule&#45;&gt;QuotingAdministratorModule</title>
<path fill="none" stroke="#000000" d="M278.8906,-122.1061C278.8906,-122.1061 278.8906,-140.991 278.8906,-140.991"/>
<polygon fill="#000000" stroke="#000000" points="275.3907,-140.9909 278.8906,-150.991 282.3907,-140.991 275.3907,-140.9909"/>
</g>
<!-- ShippingMethodsModule -->
<g id="node5" class="node">
<title>ShippingMethodsModule</title>
<polygon fill="#8dd3c7" stroke="#000000" points="183.608,-122 180.608,-126 159.608,-126 156.608,-122 24.392,-122 24.392,-86 183.608,-86 183.608,-122"/>
<text text-anchor="middle" x="104" y="-99.8" font-family="Times,serif" font-size="14.00" fill="#000000">ShippingMethodsModule</text>
</g>
<!-- ShippingMethodsModule&#45;&gt;QuotingAdministratorModule -->
<g id="edge4" class="edge">
<title>ShippingMethodsModule&#45;&gt;QuotingAdministratorModule</title>
<path fill="none" stroke="#000000" d="M104,-122.1061C104,-141.3391 104,-169 104,-169 104,-169 230.8468,-169 230.8468,-169"/>
<polygon fill="#000000" stroke="#000000" points="230.8468,-172.5001 240.8468,-169 230.8468,-165.5001 230.8468,-172.5001"/>
</g>
</g>
</svg>
