<?xml version="1.0" encoding="UTF-8" standalone="no"?>
<!DOCTYPE svg PUBLIC "-//W3C//DTD SVG 1.1//EN"
 "http://www.w3.org/Graphics/SVG/1.1/DTD/svg11.dtd">
<!-- Generated by graphviz version 2.40.1 (20161225.0304)
 -->
<!-- Title: dependencies Pages: 1 -->
<svg width="953pt" height="284pt"
 viewBox="0.00 0.00 953.00 284.00" xmlns="http://www.w3.org/2000/svg" xmlns:xlink="http://www.w3.org/1999/xlink">
<g id="graph0" class="graph" transform="scale(1 1) rotate(0) translate(4 280)">
<title>dependencies</title>
<polygon fill="#ffffff" stroke="transparent" points="-4,4 -4,-280 949,-280 949,4 -4,4"/>
<text text-anchor="start" x="451.5091" y="-42.4" font-family="sans-serif" font-weight="bold" font-size="14.00" fill="#000000">Legend</text>
<polygon fill="#ffffb3" stroke="transparent" points="238.5,-10 238.5,-30 258.5,-30 258.5,-10 238.5,-10"/>
<text text-anchor="start" x="262.129" y="-15.4" font-family="sans-serif" font-size="14.00" fill="#000000"> &#160;Declarations</text>
<polygon fill="#8dd3c7" stroke="transparent" points="351.5,-10 351.5,-30 371.5,-30 371.5,-10 351.5,-10"/>
<text text-anchor="start" x="375.2251" y="-15.4" font-family="sans-serif" font-size="14.00" fill="#000000"> &#160;Module</text>
<polygon fill="#80b1d3" stroke="transparent" points="437.5,-10 437.5,-30 457.5,-30 457.5,-10 437.5,-10"/>
<text text-anchor="start" x="461.2812" y="-15.4" font-family="sans-serif" font-size="14.00" fill="#000000"> &#160;Bootstrap</text>
<polygon fill="#fdb462" stroke="transparent" points="534.5,-10 534.5,-30 554.5,-30 554.5,-10 534.5,-10"/>
<text text-anchor="start" x="558.1732" y="-15.4" font-family="sans-serif" font-size="14.00" fill="#000000"> &#160;Providers</text>
<polygon fill="#fb8072" stroke="transparent" points="630.5,-10 630.5,-30 650.5,-30 650.5,-10 630.5,-10"/>
<text text-anchor="start" x="654.2258" y="-15.4" font-family="sans-serif" font-size="14.00" fill="#000000"> &#160;Exports</text>
<g id="clust1" class="cluster">
<title>cluster_QuotingAdministratorModule</title>
<polygon fill="none" stroke="#000000" stroke-dasharray="1,5" points="8,-70 8,-268 937,-268 937,-70 8,-70"/>
</g>
<g id="clust2" class="cluster">
<title>cluster_QuotingAdministratorModule_declarations</title>
<polygon fill="none" stroke="#000000" points="707,-78 707,-130 929,-130 929,-78 707,-78"/>
</g>
<g id="clust4" class="cluster">
<title>cluster_QuotingAdministratorModule_imports</title>
<polygon fill="none" stroke="#000000" points="226,-78 226,-130 699,-130 699,-78 226,-78"/>
</g>
<g id="clust5" class="cluster">
<title>cluster_QuotingAdministratorModule_exports</title>
<polygon fill="none" stroke="#000000" points="356,-208 356,-260 582,-260 582,-208 356,-208"/>
</g>
<g id="clust7" class="cluster">
<title>cluster_QuotingAdministratorModule_providers</title>
<polygon fill="none" stroke="#000000" points="16,-78 16,-130 218,-130 218,-78 16,-78"/>
</g>
<!-- QuotingAdministratorComponent -->
<g id="node1" class="node">
<title>QuotingAdministratorComponent</title>
<polygon fill="#ffffb3" stroke="#000000" points="920.7603,-122 715.2397,-122 715.2397,-86 920.7603,-86 920.7603,-122"/>
<text text-anchor="middle" x="818" y="-99.8" font-family="Times,serif" font-size="14.00" fill="#000000">QuotingAdministratorComponent</text>
</g>
<!-- QuotingAdministratorModule -->
<g id="node2" class="node">
<title>QuotingAdministratorModule</title>
<polygon fill="#8dd3c7" stroke="#000000" points="560.9776,-187 557.9776,-191 536.9776,-191 533.9776,-187 377.0224,-187 377.0224,-151 560.9776,-151 560.9776,-187"/>
<text text-anchor="middle" x="469" y="-164.8" font-family="Times,serif" font-size="14.00" fill="#000000">QuotingAdministratorModule</text>
</g>
<!-- QuotingAdministratorComponent&#45;&gt;QuotingAdministratorModule -->
<g id="edge1" class="edge">
<title>QuotingAdministratorComponent&#45;&gt;QuotingAdministratorModule</title>
<path fill="none" stroke="#000000" d="M818,-122.1061C818,-141.3391 818,-169 818,-169 818,-169 571.1522,-169 571.1522,-169"/>
<polygon fill="#000000" stroke="#000000" points="571.1522,-165.5001 561.1522,-169 571.1521,-172.5001 571.1522,-165.5001"/>
</g>
<!-- QuotingAdministratorComponent  -->
<g id="node6" class="node">
<title>QuotingAdministratorComponent </title>
<polygon fill="#fb8072" stroke="#000000" points="573.7604,-252 364.2396,-252 364.2396,-216 573.7604,-216 573.7604,-252"/>
<text text-anchor="middle" x="469" y="-229.8" font-family="Times,serif" font-size="14.00" fill="#000000">QuotingAdministratorComponent </text>
</g>
<!-- QuotingAdministratorModule&#45;&gt;QuotingAdministratorComponent  -->
<g id="edge5" class="edge">
<title>QuotingAdministratorModule&#45;&gt;QuotingAdministratorComponent </title>
<path fill="none" stroke="#000000" stroke-dasharray="5,2" d="M469,-187.1061C469,-187.1061 469,-205.991 469,-205.991"/>
<polygon fill="#000000" stroke="#000000" points="465.5001,-205.9909 469,-215.991 472.5001,-205.991 465.5001,-205.9909"/>
</g>
<!-- ListTransporterModule -->
<g id="node3" class="node">
<title>ListTransporterModule</title>
<polygon fill="#8dd3c7" stroke="#000000" points="691.1275,-122 688.1275,-126 667.1275,-126 664.1275,-122 544.8725,-122 544.8725,-86 691.1275,-86 691.1275,-122"/>
<text text-anchor="middle" x="618" y="-99.8" font-family="Times,serif" font-size="14.00" fill="#000000">ListTransporterModule</text>
</g>
<!-- ListTransporterModule&#45;&gt;QuotingAdministratorModule -->
<g id="edge2" class="edge">
<title>ListTransporterModule&#45;&gt;QuotingAdministratorModule</title>
<path fill="none" stroke="#000000" d="M552.8376,-122.1061C552.8376,-122.1061 552.8376,-140.991 552.8376,-140.991"/>
<polygon fill="#000000" stroke="#000000" points="549.3377,-140.9909 552.8376,-150.991 556.3377,-140.991 549.3377,-140.9909"/>
</g>
<!-- ListZonesModule -->
<g id="node4" class="node">
<title>ListZonesModule</title>
<polygon fill="#8dd3c7" stroke="#000000" points="526.5409,-122 523.5409,-126 502.5409,-126 499.5409,-122 411.4591,-122 411.4591,-86 526.5409,-86 526.5409,-122"/>
<text text-anchor="middle" x="469" y="-99.8" font-family="Times,serif" font-size="14.00" fill="#000000">ListZonesModule</text>
</g>
<!-- ListZonesModule&#45;&gt;QuotingAdministratorModule -->
<g id="edge3" class="edge">
<title>ListZonesModule&#45;&gt;QuotingAdministratorModule</title>
<path fill="none" stroke="#000000" d="M469,-122.1061C469,-122.1061 469,-140.991 469,-140.991"/>
<polygon fill="#000000" stroke="#000000" points="465.5001,-140.9909 469,-150.991 472.5001,-140.991 465.5001,-140.9909"/>
</g>
<!-- ShippingMethodsModule -->
<g id="node5" class="node">
<title>ShippingMethodsModule</title>
<polygon fill="#8dd3c7" stroke="#000000" points="393.608,-122 390.608,-126 369.608,-126 366.608,-122 234.392,-122 234.392,-86 393.608,-86 393.608,-122"/>
<text text-anchor="middle" x="314" y="-99.8" font-family="Times,serif" font-size="14.00" fill="#000000">ShippingMethodsModule</text>
</g>
<!-- ShippingMethodsModule&#45;&gt;QuotingAdministratorModule -->
<g id="edge4" class="edge">
<title>ShippingMethodsModule&#45;&gt;QuotingAdministratorModule</title>
<path fill="none" stroke="#000000" d="M385.2826,-122.1061C385.2826,-122.1061 385.2826,-140.991 385.2826,-140.991"/>
<polygon fill="#000000" stroke="#000000" points="381.7827,-140.9909 385.2826,-150.991 388.7827,-140.991 381.7827,-140.9909"/>
</g>
<!-- EventEmitterDialogs -->
<g id="node7" class="node">
<title>EventEmitterDialogs</title>
<ellipse fill="#fdb462" stroke="#000000" cx="117" cy="-104" rx="92.6306" ry="18"/>
<text text-anchor="middle" x="117" y="-99.8" font-family="Times,serif" font-size="14.00" fill="#000000">EventEmitterDialogs</text>
</g>
<!-- EventEmitterDialogs&#45;&gt;QuotingAdministratorModule -->
<g id="edge6" class="edge">
<title>EventEmitterDialogs&#45;&gt;QuotingAdministratorModule</title>
<path fill="none" stroke="#000000" d="M117,-122.1061C117,-141.3391 117,-169 117,-169 117,-169 366.9759,-169 366.9759,-169"/>
<polygon fill="#000000" stroke="#000000" points="366.976,-172.5001 376.9759,-169 366.9759,-165.5001 366.976,-172.5001"/>
</g>
</g>
</svg>
