<?xml version="1.0" encoding="UTF-8" standalone="no"?>
<!DOCTYPE svg PUBLIC "-//W3C//DTD SVG 1.1//EN"
 "http://www.w3.org/Graphics/SVG/1.1/DTD/svg11.dtd">
<!-- Generated by graphviz version 2.40.1 (20161225.0304)
 -->
<!-- Title: dependencies Pages: 1 -->
<svg width="3068pt" height="284pt"
 viewBox="0.00 0.00 3068.00 284.00" xmlns="http://www.w3.org/2000/svg" xmlns:xlink="http://www.w3.org/1999/xlink">
<g id="graph0" class="graph" transform="scale(1 1) rotate(0) translate(4 280)">
<title>dependencies</title>
<polygon fill="#ffffff" stroke="transparent" points="-4,4 -4,-280 3064,-280 3064,4 -4,4"/>
<text text-anchor="start" x="1509.0091" y="-42.4" font-family="sans-serif" font-weight="bold" font-size="14.00" fill="#000000">Legend</text>
<polygon fill="#ffffb3" stroke="transparent" points="1296,-10 1296,-30 1316,-30 1316,-10 1296,-10"/>
<text text-anchor="start" x="1319.629" y="-15.4" font-family="sans-serif" font-size="14.00" fill="#000000"> &#160;Declarations</text>
<polygon fill="#8dd3c7" stroke="transparent" points="1409,-10 1409,-30 1429,-30 1429,-10 1409,-10"/>
<text text-anchor="start" x="1432.7251" y="-15.4" font-family="sans-serif" font-size="14.00" fill="#000000"> &#160;Module</text>
<polygon fill="#80b1d3" stroke="transparent" points="1495,-10 1495,-30 1515,-30 1515,-10 1495,-10"/>
<text text-anchor="start" x="1518.7812" y="-15.4" font-family="sans-serif" font-size="14.00" fill="#000000"> &#160;Bootstrap</text>
<polygon fill="#fdb462" stroke="transparent" points="1592,-10 1592,-30 1612,-30 1612,-10 1592,-10"/>
<text text-anchor="start" x="1615.6732" y="-15.4" font-family="sans-serif" font-size="14.00" fill="#000000"> &#160;Providers</text>
<polygon fill="#fb8072" stroke="transparent" points="1688,-10 1688,-30 1708,-30 1708,-10 1688,-10"/>
<text text-anchor="start" x="1711.7258" y="-15.4" font-family="sans-serif" font-size="14.00" fill="#000000"> &#160;Exports</text>
<g id="clust1" class="cluster">
<title>cluster_PendingDevolutionModule</title>
<polygon fill="none" stroke="#000000" stroke-dasharray="1,5" points="8,-70 8,-268 3052,-268 3052,-70 8,-70"/>
</g>
<g id="clust2" class="cluster">
<title>cluster_PendingDevolutionModule_declarations</title>
<polygon fill="none" stroke="#000000" points="1885,-78 1885,-130 3044,-130 3044,-78 1885,-78"/>
</g>
<g id="clust8" class="cluster">
<title>cluster_PendingDevolutionModule_imports</title>
<polygon fill="none" stroke="#000000" points="1209,-78 1209,-130 1877,-130 1877,-78 1209,-78"/>
</g>
<g id="clust9" class="cluster">
<title>cluster_PendingDevolutionModule_exports</title>
<polygon fill="none" stroke="#000000" points="863,-208 863,-260 2039,-260 2039,-208 863,-208"/>
</g>
<g id="clust11" class="cluster">
<title>cluster_PendingDevolutionModule_providers</title>
<polygon fill="none" stroke="#000000" points="16,-78 16,-130 1201,-130 1201,-78 16,-78"/>
</g>
<!-- ActionAcceptDevolutionComponent -->
<g id="node1" class="node">
<title>ActionAcceptDevolutionComponent</title>
<polygon fill="#ffffb3" stroke="#000000" points="3036.0688,-122 2813.9312,-122 2813.9312,-86 3036.0688,-86 3036.0688,-122"/>
<text text-anchor="middle" x="2925" y="-99.8" font-family="Times,serif" font-size="14.00" fill="#000000">ActionAcceptDevolutionComponent</text>
</g>
<!-- PendingDevolutionModule -->
<g id="node6" class="node">
<title>PendingDevolutionModule</title>
<polygon fill="#8dd3c7" stroke="#000000" points="1532.4312,-187 1529.4312,-191 1508.4312,-191 1505.4312,-187 1363.5688,-187 1363.5688,-151 1532.4312,-151 1532.4312,-187"/>
<text text-anchor="middle" x="1448" y="-164.8" font-family="Times,serif" font-size="14.00" fill="#000000">PendingDevolutionModule</text>
</g>
<!-- ActionAcceptDevolutionComponent&#45;&gt;PendingDevolutionModule -->
<g id="edge1" class="edge">
<title>ActionAcceptDevolutionComponent&#45;&gt;PendingDevolutionModule</title>
<path fill="none" stroke="#000000" d="M2925,-122.0449C2925,-143.6623 2925,-177 2925,-177 2925,-177 1542.446,-177 1542.446,-177"/>
<polygon fill="#000000" stroke="#000000" points="1542.4461,-173.5001 1532.446,-177 1542.446,-180.5001 1542.4461,-173.5001"/>
</g>
<!-- ActionRefuseDevolutionComponent -->
<g id="node2" class="node">
<title>ActionRefuseDevolutionComponent</title>
<polygon fill="#ffffb3" stroke="#000000" points="2795.799,-122 2574.201,-122 2574.201,-86 2795.799,-86 2795.799,-122"/>
<text text-anchor="middle" x="2685" y="-99.8" font-family="Times,serif" font-size="14.00" fill="#000000">ActionRefuseDevolutionComponent</text>
</g>
<!-- ActionRefuseDevolutionComponent&#45;&gt;PendingDevolutionModule -->
<g id="edge2" class="edge">
<title>ActionRefuseDevolutionComponent&#45;&gt;PendingDevolutionModule</title>
<path fill="none" stroke="#000000" d="M2685,-122.1289C2685,-142.5724 2685,-173 2685,-173 2685,-173 1542.5372,-173 1542.5372,-173"/>
<polygon fill="#000000" stroke="#000000" points="1542.5372,-169.5001 1532.5372,-173 1542.5371,-176.5001 1542.5372,-169.5001"/>
</g>
<!-- PendingDevolutionComponent -->
<g id="node3" class="node">
<title>PendingDevolutionComponent</title>
<polygon fill="#ffffb3" stroke="#000000" points="2556.2133,-122 2365.7867,-122 2365.7867,-86 2556.2133,-86 2556.2133,-122"/>
<text text-anchor="middle" x="2461" y="-99.8" font-family="Times,serif" font-size="14.00" fill="#000000">PendingDevolutionComponent</text>
</g>
<!-- PendingDevolutionComponent&#45;&gt;PendingDevolutionModule -->
<g id="edge3" class="edge">
<title>PendingDevolutionComponent&#45;&gt;PendingDevolutionModule</title>
<path fill="none" stroke="#000000" d="M2461,-122.1061C2461,-141.3391 2461,-169 2461,-169 2461,-169 1542.6255,-169 1542.6255,-169"/>
<polygon fill="#000000" stroke="#000000" points="1542.6255,-165.5001 1532.6255,-169 1542.6254,-172.5001 1542.6255,-165.5001"/>
</g>
<!-- ProductPendingDevolutionModalComponent -->
<g id="node4" class="node">
<title>ProductPendingDevolutionModalComponent</title>
<polygon fill="#ffffb3" stroke="#000000" points="2348.3116,-122 2077.6884,-122 2077.6884,-86 2348.3116,-86 2348.3116,-122"/>
<text text-anchor="middle" x="2213" y="-99.8" font-family="Times,serif" font-size="14.00" fill="#000000">ProductPendingDevolutionModalComponent</text>
</g>
<!-- ProductPendingDevolutionModalComponent&#45;&gt;PendingDevolutionModule -->
<g id="edge4" class="edge">
<title>ProductPendingDevolutionModalComponent&#45;&gt;PendingDevolutionModule</title>
<path fill="none" stroke="#000000" d="M2213,-122.2667C2213,-140.5552 2213,-166 2213,-166 2213,-166 1542.4237,-166 1542.4237,-166"/>
<polygon fill="#000000" stroke="#000000" points="1542.4237,-162.5001 1532.4237,-166 1542.4236,-169.5001 1542.4237,-162.5001"/>
</g>
<!-- ViewCommentComponent -->
<g id="node5" class="node">
<title>ViewCommentComponent</title>
<polygon fill="#ffffb3" stroke="#000000" points="2059.3738,-122 1892.6262,-122 1892.6262,-86 2059.3738,-86 2059.3738,-122"/>
<text text-anchor="middle" x="1976" y="-99.8" font-family="Times,serif" font-size="14.00" fill="#000000">ViewCommentComponent</text>
</g>
<!-- ViewCommentComponent&#45;&gt;PendingDevolutionModule -->
<g id="edge5" class="edge">
<title>ViewCommentComponent&#45;&gt;PendingDevolutionModule</title>
<path fill="none" stroke="#000000" d="M1961.6738,-122.0336C1961.6738,-139.0597 1961.6738,-162 1961.6738,-162 1961.6738,-162 1542.2476,-162 1542.2476,-162"/>
<polygon fill="#000000" stroke="#000000" points="1542.2476,-158.5001 1532.2476,-162 1542.2475,-165.5001 1542.2476,-158.5001"/>
</g>
<!-- ActionAcceptDevolutionComponent  -->
<g id="node11" class="node">
<title>ActionAcceptDevolutionComponent </title>
<polygon fill="#fb8072" stroke="#000000" points="2030.5692,-252 1805.4308,-252 1805.4308,-216 2030.5692,-216 2030.5692,-252"/>
<text text-anchor="middle" x="1918" y="-229.8" font-family="Times,serif" font-size="14.00" fill="#000000">ActionAcceptDevolutionComponent </text>
</g>
<!-- PendingDevolutionModule&#45;&gt;ActionAcceptDevolutionComponent  -->
<g id="edge10" class="edge">
<title>PendingDevolutionModule&#45;&gt;ActionAcceptDevolutionComponent </title>
<path fill="none" stroke="#000000" stroke-dasharray="5,2" d="M1532.4832,-180C1646.9943,-180 1837.3505,-180 1837.3505,-180 1837.3505,-180 1837.3505,-205.7181 1837.3505,-205.7181"/>
<polygon fill="#000000" stroke="#000000" points="1833.8505,-205.718 1837.3505,-215.7181 1840.8505,-205.7181 1833.8505,-205.718"/>
</g>
<!-- ActionRefuseDevolutionComponent  -->
<g id="node12" class="node">
<title>ActionRefuseDevolutionComponent </title>
<polygon fill="#fb8072" stroke="#000000" points="1787.2989,-252 1562.7011,-252 1562.7011,-216 1787.2989,-216 1787.2989,-252"/>
<text text-anchor="middle" x="1675" y="-229.8" font-family="Times,serif" font-size="14.00" fill="#000000">ActionRefuseDevolutionComponent </text>
</g>
<!-- PendingDevolutionModule&#45;&gt;ActionRefuseDevolutionComponent  -->
<g id="edge11" class="edge">
<title>PendingDevolutionModule&#45;&gt;ActionRefuseDevolutionComponent </title>
<path fill="none" stroke="#000000" stroke-dasharray="5,2" d="M1532.2544,-184C1589.0578,-184 1653.6874,-184 1653.6874,-184 1653.6874,-184 1653.6874,-205.9489 1653.6874,-205.9489"/>
<polygon fill="#000000" stroke="#000000" points="1650.1875,-205.9488 1653.6874,-215.9489 1657.1875,-205.9489 1650.1875,-205.9488"/>
</g>
<!-- PendingDevolutionComponent  -->
<g id="node13" class="node">
<title>PendingDevolutionComponent </title>
<polygon fill="#fb8072" stroke="#000000" points="1544.7134,-252 1351.2866,-252 1351.2866,-216 1544.7134,-216 1544.7134,-252"/>
<text text-anchor="middle" x="1448" y="-229.8" font-family="Times,serif" font-size="14.00" fill="#000000">PendingDevolutionComponent </text>
</g>
<!-- PendingDevolutionModule&#45;&gt;PendingDevolutionComponent  -->
<g id="edge12" class="edge">
<title>PendingDevolutionModule&#45;&gt;PendingDevolutionComponent </title>
<path fill="none" stroke="#000000" stroke-dasharray="5,2" d="M1448,-187.1061C1448,-187.1061 1448,-205.991 1448,-205.991"/>
<polygon fill="#000000" stroke="#000000" points="1444.5001,-205.9909 1448,-215.991 1451.5001,-205.991 1444.5001,-205.9909"/>
</g>
<!-- ProductPendingDevolutionModalComponent  -->
<g id="node14" class="node">
<title>ProductPendingDevolutionModalComponent </title>
<polygon fill="#fb8072" stroke="#000000" points="1332.8115,-252 1059.1885,-252 1059.1885,-216 1332.8115,-216 1332.8115,-252"/>
<text text-anchor="middle" x="1196" y="-229.8" font-family="Times,serif" font-size="14.00" fill="#000000">ProductPendingDevolutionModalComponent </text>
</g>
<!-- PendingDevolutionModule&#45;&gt;ProductPendingDevolutionModalComponent  -->
<g id="edge13" class="edge">
<title>PendingDevolutionModule&#45;&gt;ProductPendingDevolutionModalComponent </title>
<path fill="none" stroke="#000000" stroke-dasharray="5,2" d="M1363.7332,-180C1319.7118,-180 1274.9027,-180 1274.9027,-180 1274.9027,-180 1274.9027,-205.7181 1274.9027,-205.7181"/>
<polygon fill="#000000" stroke="#000000" points="1271.4028,-205.718 1274.9027,-215.7181 1278.4028,-205.7181 1271.4028,-205.718"/>
</g>
<!-- ViewCommentComponent  -->
<g id="node15" class="node">
<title>ViewCommentComponent </title>
<polygon fill="#fb8072" stroke="#000000" points="1041.3742,-252 870.6258,-252 870.6258,-216 1041.3742,-216 1041.3742,-252"/>
<text text-anchor="middle" x="956" y="-229.8" font-family="Times,serif" font-size="14.00" fill="#000000">ViewCommentComponent </text>
</g>
<!-- PendingDevolutionModule&#45;&gt;ViewCommentComponent  -->
<g id="edge14" class="edge">
<title>PendingDevolutionModule&#45;&gt;ViewCommentComponent </title>
<path fill="none" stroke="#000000" stroke-dasharray="5,2" d="M1363.5496,-177C1240.9574,-177 1028.1872,-177 1028.1872,-177 1028.1872,-177 1028.1872,-205.9648 1028.1872,-205.9648"/>
<polygon fill="#000000" stroke="#000000" points="1024.6873,-205.9648 1028.1872,-215.9648 1031.6873,-205.9649 1024.6873,-205.9648"/>
</g>
<!-- MaterialModule -->
<g id="node7" class="node">
<title>MaterialModule</title>
<polygon fill="#8dd3c7" stroke="#000000" points="1869.4706,-122 1866.4706,-126 1845.4706,-126 1842.4706,-122 1762.5294,-122 1762.5294,-86 1869.4706,-86 1869.4706,-122"/>
<text text-anchor="middle" x="1816" y="-99.8" font-family="Times,serif" font-size="14.00" fill="#000000">MaterialModule</text>
</g>
<!-- MaterialModule&#45;&gt;PendingDevolutionModule -->
<g id="edge6" class="edge">
<title>MaterialModule&#45;&gt;PendingDevolutionModule</title>
<path fill="none" stroke="#000000" d="M1774.9571,-122.0091C1774.9571,-138.0494 1774.9571,-159 1774.9571,-159 1774.9571,-159 1542.6248,-159 1542.6248,-159"/>
<polygon fill="#000000" stroke="#000000" points="1542.6248,-155.5001 1532.6248,-159 1542.6247,-162.5001 1542.6248,-155.5001"/>
</g>
<!-- PendingDevolutionRoutingModule -->
<g id="node8" class="node">
<title>PendingDevolutionRoutingModule</title>
<polygon fill="#8dd3c7" stroke="#000000" points="1744.5489,-122 1741.5489,-126 1720.5489,-126 1717.5489,-122 1531.4511,-122 1531.4511,-86 1744.5489,-86 1744.5489,-122"/>
<text text-anchor="middle" x="1638" y="-99.8" font-family="Times,serif" font-size="14.00" fill="#000000">PendingDevolutionRoutingModule</text>
</g>
<!-- PendingDevolutionRoutingModule&#45;&gt;PendingDevolutionModule -->
<g id="edge7" class="edge">
<title>PendingDevolutionRoutingModule&#45;&gt;PendingDevolutionModule</title>
<path fill="none" stroke="#000000" d="M1538.536,-122.1243C1538.536,-136.7832 1538.536,-155 1538.536,-155 1538.536,-155 1537.9137,-155 1537.9137,-155"/>
<polygon fill="#000000" stroke="#000000" points="1542.3131,-151.5002 1532.313,-155 1542.313,-158.5002 1542.3131,-151.5002"/>
</g>
<!-- ToolbarLinkModule -->
<g id="node9" class="node">
<title>ToolbarLinkModule</title>
<polygon fill="#8dd3c7" stroke="#000000" points="1513.3118,-122 1510.3118,-126 1489.3118,-126 1486.3118,-122 1382.6882,-122 1382.6882,-86 1513.3118,-86 1513.3118,-122"/>
<text text-anchor="middle" x="1448" y="-99.8" font-family="Times,serif" font-size="14.00" fill="#000000">ToolbarLinkModule</text>
</g>
<!-- ToolbarLinkModule&#45;&gt;PendingDevolutionModule -->
<g id="edge8" class="edge">
<title>ToolbarLinkModule&#45;&gt;PendingDevolutionModule</title>
<path fill="none" stroke="#000000" d="M1448,-122.1061C1448,-122.1061 1448,-140.991 1448,-140.991"/>
<polygon fill="#000000" stroke="#000000" points="1444.5001,-140.9909 1448,-150.991 1451.5001,-140.991 1444.5001,-140.9909"/>
</g>
<!-- ToolbarOptionsModule -->
<g id="node10" class="node">
<title>ToolbarOptionsModule</title>
<polygon fill="#8dd3c7" stroke="#000000" points="1365.2007,-122 1362.2007,-126 1341.2007,-126 1338.2007,-122 1216.7993,-122 1216.7993,-86 1365.2007,-86 1365.2007,-122"/>
<text text-anchor="middle" x="1291" y="-99.8" font-family="Times,serif" font-size="14.00" fill="#000000">ToolbarOptionsModule</text>
</g>
<!-- ToolbarOptionsModule&#45;&gt;PendingDevolutionModule -->
<g id="edge9" class="edge">
<title>ToolbarOptionsModule&#45;&gt;PendingDevolutionModule</title>
<path fill="none" stroke="#000000" d="M1357.4641,-122.1532C1357.4641,-145.7566 1357.4641,-184 1357.4641,-184 1357.4641,-184 1358.0863,-184 1358.0863,-184"/>
<polygon fill="#000000" stroke="#000000" points="1353.687,-187.5002 1363.687,-184 1353.6869,-180.5002 1353.687,-187.5002"/>
</g>
<!-- ComponentsService -->
<g id="node16" class="node">
<title>ComponentsService</title>
<ellipse fill="#fdb462" stroke="#000000" cx="1104" cy="-104" rx="88.6255" ry="18"/>
<text text-anchor="middle" x="1104" y="-99.8" font-family="Times,serif" font-size="14.00" fill="#000000">ComponentsService</text>
</g>
<!-- ComponentsService&#45;&gt;PendingDevolutionModule -->
<g id="edge15" class="edge">
<title>ComponentsService&#45;&gt;PendingDevolutionModule</title>
<path fill="none" stroke="#000000" d="M1125.9534,-121.5513C1125.9534,-136.3038 1125.9534,-155 1125.9534,-155 1125.9534,-155 1353.3861,-155 1353.3861,-155"/>
<polygon fill="#000000" stroke="#000000" points="1353.3861,-158.5001 1363.3861,-155 1353.386,-151.5001 1353.3861,-158.5001"/>
</g>
<!-- EndpointService -->
<g id="node17" class="node">
<title>EndpointService</title>
<ellipse fill="#fdb462" stroke="#000000" cx="922" cy="-104" rx="75.3021" ry="18"/>
<text text-anchor="middle" x="922" y="-99.8" font-family="Times,serif" font-size="14.00" fill="#000000">EndpointService</text>
</g>
<!-- EndpointService&#45;&gt;PendingDevolutionModule -->
<g id="edge16" class="edge">
<title>EndpointService&#45;&gt;PendingDevolutionModule</title>
<path fill="none" stroke="#000000" d="M934.1071,-122.0091C934.1071,-138.0494 934.1071,-159 934.1071,-159 934.1071,-159 1353.7165,-159 1353.7165,-159"/>
<polygon fill="#000000" stroke="#000000" points="1353.7165,-162.5001 1363.7165,-159 1353.7164,-155.5001 1353.7165,-162.5001"/>
</g>
<!-- EventEmitterOrders -->
<g id="node18" class="node">
<title>EventEmitterOrders</title>
<ellipse fill="#fdb462" stroke="#000000" cx="740" cy="-104" rx="88.5986" ry="18"/>
<text text-anchor="middle" x="740" y="-99.8" font-family="Times,serif" font-size="14.00" fill="#000000">EventEmitterOrders</text>
</g>
<!-- EventEmitterOrders&#45;&gt;PendingDevolutionModule -->
<g id="edge17" class="edge">
<title>EventEmitterOrders&#45;&gt;PendingDevolutionModule</title>
<path fill="none" stroke="#000000" d="M740,-122.0336C740,-139.0597 740,-162 740,-162 740,-162 1353.6527,-162 1353.6527,-162"/>
<polygon fill="#000000" stroke="#000000" points="1353.6527,-165.5001 1363.6527,-162 1353.6526,-158.5001 1353.6527,-165.5001"/>
</g>
<!-- HttpErrorHandlingService -->
<g id="node19" class="node">
<title>HttpErrorHandlingService</title>
<ellipse fill="#fdb462" stroke="#000000" cx="520" cy="-104" rx="113.4412" ry="18"/>
<text text-anchor="middle" x="520" y="-99.8" font-family="Times,serif" font-size="14.00" fill="#000000">HttpErrorHandlingService</text>
</g>
<!-- HttpErrorHandlingService&#45;&gt;PendingDevolutionModule -->
<g id="edge18" class="edge">
<title>HttpErrorHandlingService&#45;&gt;PendingDevolutionModule</title>
<path fill="none" stroke="#000000" d="M520,-122.2667C520,-140.5552 520,-166 520,-166 520,-166 1353.5982,-166 1353.5982,-166"/>
<polygon fill="#000000" stroke="#000000" points="1353.5982,-169.5001 1363.5982,-166 1353.5982,-162.5001 1353.5982,-169.5001"/>
</g>
<!-- PendingDevolutionService -->
<g id="node20" class="node">
<title>PendingDevolutionService</title>
<ellipse fill="#fdb462" stroke="#000000" cx="273" cy="-104" rx="115.1918" ry="18"/>
<text text-anchor="middle" x="273" y="-99.8" font-family="Times,serif" font-size="14.00" fill="#000000">PendingDevolutionService</text>
</g>
<!-- PendingDevolutionService&#45;&gt;PendingDevolutionModule -->
<g id="edge19" class="edge">
<title>PendingDevolutionService&#45;&gt;PendingDevolutionModule</title>
<path fill="none" stroke="#000000" d="M273,-122.1061C273,-141.3391 273,-169 273,-169 273,-169 1353.4969,-169 1353.4969,-169"/>
<polygon fill="#000000" stroke="#000000" points="1353.4969,-172.5001 1363.4969,-169 1353.4969,-165.5001 1353.4969,-172.5001"/>
</g>
<!-- UserService -->
<g id="node21" class="node">
<title>UserService</title>
<ellipse fill="#fdb462" stroke="#000000" cx="82" cy="-104" rx="58.4415" ry="18"/>
<text text-anchor="middle" x="82" y="-99.8" font-family="Times,serif" font-size="14.00" fill="#000000">UserService</text>
</g>
<!-- UserService&#45;&gt;PendingDevolutionModule -->
<g id="edge20" class="edge">
<title>UserService&#45;&gt;PendingDevolutionModule</title>
<path fill="none" stroke="#000000" d="M82,-122.1289C82,-142.5724 82,-173 82,-173 82,-173 1353.5814,-173 1353.5814,-173"/>
<polygon fill="#000000" stroke="#000000" points="1353.5815,-176.5001 1363.5814,-173 1353.5814,-169.5001 1353.5815,-176.5001"/>
</g>
</g>
</svg>
