<?xml version="1.0" encoding="UTF-8" standalone="no"?>
<!DOCTYPE svg PUBLIC "-//W3C//DTD SVG 1.1//EN"
 "http://www.w3.org/Graphics/SVG/1.1/DTD/svg11.dtd">
<!-- Generated by graphviz version 2.40.1 (20161225.0304)
 -->
<!-- Title: dependencies Pages: 1 -->
<svg width="2199pt" height="284pt"
 viewBox="0.00 0.00 2199.00 284.00" xmlns="http://www.w3.org/2000/svg" xmlns:xlink="http://www.w3.org/1999/xlink">
<g id="graph0" class="graph" transform="scale(1 1) rotate(0) translate(4 280)">
<title>dependencies</title>
<polygon fill="#ffffff" stroke="transparent" points="-4,4 -4,-280 2195,-280 2195,4 -4,4"/>
<text text-anchor="start" x="1074.5091" y="-42.4" font-family="sans-serif" font-weight="bold" font-size="14.00" fill="#000000">Legend</text>
<polygon fill="#ffffb3" stroke="transparent" points="861.5,-10 861.5,-30 881.5,-30 881.5,-10 861.5,-10"/>
<text text-anchor="start" x="885.129" y="-15.4" font-family="sans-serif" font-size="14.00" fill="#000000"> &#160;Declarations</text>
<polygon fill="#8dd3c7" stroke="transparent" points="974.5,-10 974.5,-30 994.5,-30 994.5,-10 974.5,-10"/>
<text text-anchor="start" x="998.2251" y="-15.4" font-family="sans-serif" font-size="14.00" fill="#000000"> &#160;Module</text>
<polygon fill="#80b1d3" stroke="transparent" points="1060.5,-10 1060.5,-30 1080.5,-30 1080.5,-10 1060.5,-10"/>
<text text-anchor="start" x="1084.2812" y="-15.4" font-family="sans-serif" font-size="14.00" fill="#000000"> &#160;Bootstrap</text>
<polygon fill="#fdb462" stroke="transparent" points="1157.5,-10 1157.5,-30 1177.5,-30 1177.5,-10 1157.5,-10"/>
<text text-anchor="start" x="1181.1732" y="-15.4" font-family="sans-serif" font-size="14.00" fill="#000000"> &#160;Providers</text>
<polygon fill="#fb8072" stroke="transparent" points="1253.5,-10 1253.5,-30 1273.5,-30 1273.5,-10 1253.5,-10"/>
<text text-anchor="start" x="1277.2258" y="-15.4" font-family="sans-serif" font-size="14.00" fill="#000000"> &#160;Exports</text>
<g id="clust1" class="cluster">
<title>cluster_PendingDevolutionModule</title>
<polygon fill="none" stroke="#000000" stroke-dasharray="1,5" points="8,-70 8,-268 2183,-268 2183,-70 8,-70"/>
</g>
<g id="clust2" class="cluster">
<title>cluster_PendingDevolutionModule_declarations</title>
<polygon fill="none" stroke="#000000" points="1016,-78 1016,-130 2175,-130 2175,-78 1016,-78"/>
</g>
<g id="clust8" class="cluster">
<title>cluster_PendingDevolutionModule_imports</title>
<polygon fill="none" stroke="#000000" points="662,-78 662,-130 1008,-130 1008,-78 662,-78"/>
</g>
<g id="clust9" class="cluster">
<title>cluster_PendingDevolutionModule_exports</title>
<polygon fill="none" stroke="#000000" points="415,-208 415,-260 1591,-260 1591,-208 415,-208"/>
</g>
<g id="clust11" class="cluster">
<title>cluster_PendingDevolutionModule_providers</title>
<polygon fill="none" stroke="#000000" points="16,-78 16,-130 654,-130 654,-78 16,-78"/>
</g>
<!-- ActionAcceptDevolutionComponent -->
<g id="node1" class="node">
<title>ActionAcceptDevolutionComponent</title>
<polygon fill="#ffffb3" stroke="#000000" points="2167.0688,-122 1944.9312,-122 1944.9312,-86 2167.0688,-86 2167.0688,-122"/>
<text text-anchor="middle" x="2056" y="-99.8" font-family="Times,serif" font-size="14.00" fill="#000000">ActionAcceptDevolutionComponent</text>
</g>
<!-- PendingDevolutionModule -->
<g id="node6" class="node">
<title>PendingDevolutionModule</title>
<polygon fill="#8dd3c7" stroke="#000000" points="1084.4312,-187 1081.4312,-191 1060.4312,-191 1057.4312,-187 915.5688,-187 915.5688,-151 1084.4312,-151 1084.4312,-187"/>
<text text-anchor="middle" x="1000" y="-164.8" font-family="Times,serif" font-size="14.00" fill="#000000">PendingDevolutionModule</text>
</g>
<!-- ActionAcceptDevolutionComponent&#45;&gt;PendingDevolutionModule -->
<g id="edge1" class="edge">
<title>ActionAcceptDevolutionComponent&#45;&gt;PendingDevolutionModule</title>
<path fill="none" stroke="#000000" d="M2056,-122.2228C2056,-142.3652 2056,-172 2056,-172 2056,-172 1094.6318,-172 1094.6318,-172"/>
<polygon fill="#000000" stroke="#000000" points="1094.6319,-168.5001 1084.6318,-172 1094.6318,-175.5001 1094.6319,-168.5001"/>
</g>
<!-- ActionRefuseDevolutionComponent -->
<g id="node2" class="node">
<title>ActionRefuseDevolutionComponent</title>
<polygon fill="#ffffb3" stroke="#000000" points="1926.799,-122 1705.201,-122 1705.201,-86 1926.799,-86 1926.799,-122"/>
<text text-anchor="middle" x="1816" y="-99.8" font-family="Times,serif" font-size="14.00" fill="#000000">ActionRefuseDevolutionComponent</text>
</g>
<!-- ActionRefuseDevolutionComponent&#45;&gt;PendingDevolutionModule -->
<g id="edge2" class="edge">
<title>ActionRefuseDevolutionComponent&#45;&gt;PendingDevolutionModule</title>
<path fill="none" stroke="#000000" d="M1816,-122.2222C1816,-140.8285 1816,-167 1816,-167 1816,-167 1094.2529,-167 1094.2529,-167"/>
<polygon fill="#000000" stroke="#000000" points="1094.2529,-163.5001 1084.2529,-167 1094.2529,-170.5001 1094.2529,-163.5001"/>
</g>
<!-- PendingDevolutionComponent -->
<g id="node3" class="node">
<title>PendingDevolutionComponent</title>
<polygon fill="#ffffb3" stroke="#000000" points="1687.2133,-122 1496.7867,-122 1496.7867,-86 1687.2133,-86 1687.2133,-122"/>
<text text-anchor="middle" x="1592" y="-99.8" font-family="Times,serif" font-size="14.00" fill="#000000">PendingDevolutionComponent</text>
</g>
<!-- PendingDevolutionComponent&#45;&gt;PendingDevolutionModule -->
<g id="edge3" class="edge">
<title>PendingDevolutionComponent&#45;&gt;PendingDevolutionModule</title>
<path fill="none" stroke="#000000" d="M1539.8389,-122.0336C1539.8389,-139.0597 1539.8389,-162 1539.8389,-162 1539.8389,-162 1094.3498,-162 1094.3498,-162"/>
<polygon fill="#000000" stroke="#000000" points="1094.3499,-158.5001 1084.3498,-162 1094.3498,-165.5001 1094.3499,-158.5001"/>
</g>
<!-- ProductPendingDevolutionModalComponent -->
<g id="node4" class="node">
<title>ProductPendingDevolutionModalComponent</title>
<polygon fill="#ffffb3" stroke="#000000" points="1479.3116,-122 1208.6884,-122 1208.6884,-86 1479.3116,-86 1479.3116,-122"/>
<text text-anchor="middle" x="1344" y="-99.8" font-family="Times,serif" font-size="14.00" fill="#000000">ProductPendingDevolutionModalComponent</text>
</g>
<!-- ProductPendingDevolutionModalComponent&#45;&gt;PendingDevolutionModule -->
<g id="edge4" class="edge">
<title>ProductPendingDevolutionModalComponent&#45;&gt;PendingDevolutionModule</title>
<path fill="none" stroke="#000000" d="M1274.1219,-122.2396C1274.1219,-137.5706 1274.1219,-157 1274.1219,-157 1274.1219,-157 1094.4823,-157 1094.4823,-157"/>
<polygon fill="#000000" stroke="#000000" points="1094.4824,-153.5001 1084.4823,-157 1094.4823,-160.5001 1094.4824,-153.5001"/>
</g>
<!-- ViewCommentComponent -->
<g id="node5" class="node">
<title>ViewCommentComponent</title>
<polygon fill="#ffffb3" stroke="#000000" points="1190.3738,-122 1023.6262,-122 1023.6262,-86 1190.3738,-86 1190.3738,-122"/>
<text text-anchor="middle" x="1107" y="-99.8" font-family="Times,serif" font-size="14.00" fill="#000000">ViewCommentComponent</text>
</g>
<!-- ViewCommentComponent&#45;&gt;PendingDevolutionModule -->
<g id="edge5" class="edge">
<title>ViewCommentComponent&#45;&gt;PendingDevolutionModule</title>
<path fill="none" stroke="#000000" d="M1053.8892,-122.1061C1053.8892,-122.1061 1053.8892,-140.991 1053.8892,-140.991"/>
<polygon fill="#000000" stroke="#000000" points="1050.3893,-140.9909 1053.8892,-150.991 1057.3893,-140.991 1050.3893,-140.9909"/>
</g>
<!-- ActionAcceptDevolutionComponent  -->
<g id="node9" class="node">
<title>ActionAcceptDevolutionComponent </title>
<polygon fill="#fb8072" stroke="#000000" points="1582.5692,-252 1357.4308,-252 1357.4308,-216 1582.5692,-216 1582.5692,-252"/>
<text text-anchor="middle" x="1470" y="-229.8" font-family="Times,serif" font-size="14.00" fill="#000000">ActionAcceptDevolutionComponent </text>
</g>
<!-- PendingDevolutionModule&#45;&gt;ActionAcceptDevolutionComponent  -->
<g id="edge8" class="edge">
<title>PendingDevolutionModule&#45;&gt;ActionAcceptDevolutionComponent </title>
<path fill="none" stroke="#000000" stroke-dasharray="5,2" d="M1084.3745,-177C1206.5308,-177 1418.1856,-177 1418.1856,-177 1418.1856,-177 1418.1856,-205.9648 1418.1856,-205.9648"/>
<polygon fill="#000000" stroke="#000000" points="1414.6857,-205.9648 1418.1856,-215.9648 1421.6857,-205.9649 1414.6857,-205.9648"/>
</g>
<!-- ActionRefuseDevolutionComponent  -->
<g id="node10" class="node">
<title>ActionRefuseDevolutionComponent </title>
<polygon fill="#fb8072" stroke="#000000" points="1339.2989,-252 1114.7011,-252 1114.7011,-216 1339.2989,-216 1339.2989,-252"/>
<text text-anchor="middle" x="1227" y="-229.8" font-family="Times,serif" font-size="14.00" fill="#000000">ActionRefuseDevolutionComponent </text>
</g>
<!-- PendingDevolutionModule&#45;&gt;ActionRefuseDevolutionComponent  -->
<g id="edge9" class="edge">
<title>PendingDevolutionModule&#45;&gt;ActionRefuseDevolutionComponent </title>
<path fill="none" stroke="#000000" stroke-dasharray="5,2" d="M1084.2891,-182C1119.5625,-182 1152.5188,-182 1152.5188,-182 1152.5188,-182 1152.5188,-205.8129 1152.5188,-205.8129"/>
<polygon fill="#000000" stroke="#000000" points="1149.0188,-205.8129 1152.5188,-215.8129 1156.0188,-205.813 1149.0188,-205.8129"/>
</g>
<!-- PendingDevolutionComponent  -->
<g id="node11" class="node">
<title>PendingDevolutionComponent </title>
<polygon fill="#fb8072" stroke="#000000" points="1096.7134,-252 903.2866,-252 903.2866,-216 1096.7134,-216 1096.7134,-252"/>
<text text-anchor="middle" x="1000" y="-229.8" font-family="Times,serif" font-size="14.00" fill="#000000">PendingDevolutionComponent </text>
</g>
<!-- PendingDevolutionModule&#45;&gt;PendingDevolutionComponent  -->
<g id="edge10" class="edge">
<title>PendingDevolutionModule&#45;&gt;PendingDevolutionComponent </title>
<path fill="none" stroke="#000000" stroke-dasharray="5,2" d="M1000,-187.1061C1000,-187.1061 1000,-205.991 1000,-205.991"/>
<polygon fill="#000000" stroke="#000000" points="996.5001,-205.9909 1000,-215.991 1003.5001,-205.991 996.5001,-205.9909"/>
</g>
<!-- ProductPendingDevolutionModalComponent  -->
<g id="node12" class="node">
<title>ProductPendingDevolutionModalComponent </title>
<polygon fill="#fb8072" stroke="#000000" points="884.8115,-252 611.1885,-252 611.1885,-216 884.8115,-216 884.8115,-252"/>
<text text-anchor="middle" x="748" y="-229.8" font-family="Times,serif" font-size="14.00" fill="#000000">ProductPendingDevolutionModalComponent </text>
</g>
<!-- PendingDevolutionModule&#45;&gt;ProductPendingDevolutionModalComponent  -->
<g id="edge11" class="edge">
<title>PendingDevolutionModule&#45;&gt;ProductPendingDevolutionModalComponent </title>
<path fill="none" stroke="#000000" stroke-dasharray="5,2" d="M915.3745,-182C875.0842,-182 835.5658,-182 835.5658,-182 835.5658,-182 835.5658,-205.8129 835.5658,-205.8129"/>
<polygon fill="#000000" stroke="#000000" points="832.0658,-205.8129 835.5658,-215.8129 839.0658,-205.813 832.0658,-205.8129"/>
</g>
<!-- ViewCommentComponent  -->
<g id="node13" class="node">
<title>ViewCommentComponent </title>
<polygon fill="#fb8072" stroke="#000000" points="593.3742,-252 422.6258,-252 422.6258,-216 593.3742,-216 593.3742,-252"/>
<text text-anchor="middle" x="508" y="-229.8" font-family="Times,serif" font-size="14.00" fill="#000000">ViewCommentComponent </text>
</g>
<!-- PendingDevolutionModule&#45;&gt;ViewCommentComponent  -->
<g id="edge12" class="edge">
<title>PendingDevolutionModule&#45;&gt;ViewCommentComponent </title>
<path fill="none" stroke="#000000" stroke-dasharray="5,2" d="M915.5542,-177C780.4361,-177 530.6872,-177 530.6872,-177 530.6872,-177 530.6872,-205.9648 530.6872,-205.9648"/>
<polygon fill="#000000" stroke="#000000" points="527.1873,-205.9648 530.6872,-215.9648 534.1873,-205.9649 527.1873,-205.9648"/>
</g>
<!-- PendingDevolutionRoutingModule -->
<g id="node7" class="node">
<title>PendingDevolutionRoutingModule</title>
<polygon fill="#8dd3c7" stroke="#000000" points="999.5489,-122 996.5489,-126 975.5489,-126 972.5489,-122 786.4511,-122 786.4511,-86 999.5489,-86 999.5489,-122"/>
<text text-anchor="middle" x="893" y="-99.8" font-family="Times,serif" font-size="14.00" fill="#000000">PendingDevolutionRoutingModule</text>
</g>
<!-- PendingDevolutionRoutingModule&#45;&gt;PendingDevolutionModule -->
<g id="edge6" class="edge">
<title>PendingDevolutionRoutingModule&#45;&gt;PendingDevolutionModule</title>
<path fill="none" stroke="#000000" d="M957.7795,-122.1061C957.7795,-122.1061 957.7795,-140.991 957.7795,-140.991"/>
<polygon fill="#000000" stroke="#000000" points="954.2795,-140.9909 957.7795,-150.991 961.2795,-140.991 954.2795,-140.9909"/>
</g>
<!-- SharedModule -->
<g id="node8" class="node">
<title>SharedModule</title>
<polygon fill="#8dd3c7" stroke="#000000" points="768.4231,-122 765.4231,-126 744.4231,-126 741.4231,-122 669.5769,-122 669.5769,-86 768.4231,-86 768.4231,-122"/>
<text text-anchor="middle" x="719" y="-99.8" font-family="Times,serif" font-size="14.00" fill="#000000">SharedModule</text>
</g>
<!-- SharedModule&#45;&gt;PendingDevolutionModule -->
<g id="edge7" class="edge">
<title>SharedModule&#45;&gt;PendingDevolutionModule</title>
<path fill="none" stroke="#000000" d="M719,-122.2396C719,-137.5706 719,-157 719,-157 719,-157 905.6907,-157 905.6907,-157"/>
<polygon fill="#000000" stroke="#000000" points="905.6908,-160.5001 915.6907,-157 905.6907,-153.5001 905.6908,-160.5001"/>
</g>
<!-- ComponentsService -->
<g id="node14" class="node">
<title>ComponentsService</title>
<ellipse fill="#fdb462" stroke="#000000" cx="557" cy="-104" rx="88.6255" ry="18"/>
<text text-anchor="middle" x="557" y="-99.8" font-family="Times,serif" font-size="14.00" fill="#000000">ComponentsService</text>
</g>
<!-- ComponentsService&#45;&gt;PendingDevolutionModule -->
<g id="edge13" class="edge">
<title>ComponentsService&#45;&gt;PendingDevolutionModule</title>
<path fill="none" stroke="#000000" d="M628.4534,-114.9094C628.4534,-131.7105 628.4534,-162 628.4534,-162 628.4534,-162 905.6903,-162 905.6903,-162"/>
<polygon fill="#000000" stroke="#000000" points="905.6904,-165.5001 915.6903,-162 905.6903,-158.5001 905.6904,-165.5001"/>
</g>
<!-- EventEmitterOrders -->
<g id="node15" class="node">
<title>EventEmitterOrders</title>
<ellipse fill="#fdb462" stroke="#000000" cx="361" cy="-104" rx="88.5986" ry="18"/>
<text text-anchor="middle" x="361" y="-99.8" font-family="Times,serif" font-size="14.00" fill="#000000">EventEmitterOrders</text>
</g>
<!-- EventEmitterOrders&#45;&gt;PendingDevolutionModule -->
<g id="edge14" class="edge">
<title>EventEmitterOrders&#45;&gt;PendingDevolutionModule</title>
<path fill="none" stroke="#000000" d="M436.3061,-113.5683C436.3061,-131.1924 436.3061,-167 436.3061,-167 436.3061,-167 905.6093,-167 905.6093,-167"/>
<polygon fill="#000000" stroke="#000000" points="905.6094,-170.5001 915.6093,-167 905.6093,-163.5001 905.6094,-170.5001"/>
</g>
<!-- PendingDevolutionService -->
<g id="node16" class="node">
<title>PendingDevolutionService</title>
<ellipse fill="#fdb462" stroke="#000000" cx="139" cy="-104" rx="115.1918" ry="18"/>
<text text-anchor="middle" x="139" y="-99.8" font-family="Times,serif" font-size="14.00" fill="#000000">PendingDevolutionService</text>
</g>
<!-- PendingDevolutionService&#45;&gt;PendingDevolutionModule -->
<g id="edge15" class="edge">
<title>PendingDevolutionService&#45;&gt;PendingDevolutionModule</title>
<path fill="none" stroke="#000000" d="M139,-122.2228C139,-142.3652 139,-172 139,-172 139,-172 905.4822,-172 905.4822,-172"/>
<polygon fill="#000000" stroke="#000000" points="905.4823,-175.5001 915.4822,-172 905.4822,-168.5001 905.4823,-175.5001"/>
</g>
</g>
</svg>
