<?xml version="1.0" encoding="UTF-8" standalone="no"?>
<!DOCTYPE svg PUBLIC "-//W3C//DTD SVG 1.1//EN"
 "http://www.w3.org/Graphics/SVG/1.1/DTD/svg11.dtd">
<!-- Generated by graphviz version 2.40.1 (20161225.0304)
 -->
<!-- Title: dependencies Pages: 1 -->
<svg width="2014pt" height="284pt"
 viewBox="0.00 0.00 2014.00 284.00" xmlns="http://www.w3.org/2000/svg" xmlns:xlink="http://www.w3.org/1999/xlink">
<g id="graph0" class="graph" transform="scale(1 1) rotate(0) translate(4 280)">
<title>dependencies</title>
<polygon fill="#ffffff" stroke="transparent" points="-4,4 -4,-280 2010,-280 2010,4 -4,4"/>
<text text-anchor="start" x="982.0091" y="-42.4" font-family="sans-serif" font-weight="bold" font-size="14.00" fill="#000000">Legend</text>
<polygon fill="#ffffb3" stroke="transparent" points="769,-10 769,-30 789,-30 789,-10 769,-10"/>
<text text-anchor="start" x="792.629" y="-15.4" font-family="sans-serif" font-size="14.00" fill="#000000"> &#160;Declarations</text>
<polygon fill="#8dd3c7" stroke="transparent" points="882,-10 882,-30 902,-30 902,-10 882,-10"/>
<text text-anchor="start" x="905.7251" y="-15.4" font-family="sans-serif" font-size="14.00" fill="#000000"> &#160;Module</text>
<polygon fill="#80b1d3" stroke="transparent" points="968,-10 968,-30 988,-30 988,-10 968,-10"/>
<text text-anchor="start" x="991.7812" y="-15.4" font-family="sans-serif" font-size="14.00" fill="#000000"> &#160;Bootstrap</text>
<polygon fill="#fdb462" stroke="transparent" points="1065,-10 1065,-30 1085,-30 1085,-10 1065,-10"/>
<text text-anchor="start" x="1088.6732" y="-15.4" font-family="sans-serif" font-size="14.00" fill="#000000"> &#160;Providers</text>
<polygon fill="#fb8072" stroke="transparent" points="1161,-10 1161,-30 1181,-30 1181,-10 1161,-10"/>
<text text-anchor="start" x="1184.7258" y="-15.4" font-family="sans-serif" font-size="14.00" fill="#000000"> &#160;Exports</text>
<g id="clust1" class="cluster">
<title>cluster_PendingDevolutionModule</title>
<polygon fill="none" stroke="#000000" stroke-dasharray="1,5" points="8,-70 8,-268 1998,-268 1998,-70 8,-70"/>
</g>
<g id="clust2" class="cluster">
<title>cluster_PendingDevolutionModule_declarations</title>
<polygon fill="none" stroke="#000000" points="1016,-78 1016,-130 1990,-130 1990,-78 1016,-78"/>
</g>
<g id="clust7" class="cluster">
<title>cluster_PendingDevolutionModule_imports</title>
<polygon fill="none" stroke="#000000" points="662,-78 662,-130 1008,-130 1008,-78 662,-78"/>
</g>
<g id="clust8" class="cluster">
<title>cluster_PendingDevolutionModule_exports</title>
<polygon fill="none" stroke="#000000" points="383,-208 383,-260 1371,-260 1371,-208 383,-208"/>
</g>
<g id="clust10" class="cluster">
<title>cluster_PendingDevolutionModule_providers</title>
<polygon fill="none" stroke="#000000" points="16,-78 16,-130 654,-130 654,-78 16,-78"/>
</g>
<!-- ActionAcceptDevolutionComponent -->
<g id="node1" class="node">
<title>ActionAcceptDevolutionComponent</title>
<polygon fill="#ffffb3" stroke="#000000" points="1982.0688,-122 1759.9312,-122 1759.9312,-86 1982.0688,-86 1982.0688,-122"/>
<text text-anchor="middle" x="1871" y="-99.8" font-family="Times,serif" font-size="14.00" fill="#000000">ActionAcceptDevolutionComponent</text>
</g>
<!-- PendingDevolutionModule -->
<g id="node5" class="node">
<title>PendingDevolutionModule</title>
<polygon fill="#8dd3c7" stroke="#000000" points="977.4312,-187 974.4312,-191 953.4312,-191 950.4312,-187 808.5688,-187 808.5688,-151 977.4312,-151 977.4312,-187"/>
<text text-anchor="middle" x="893" y="-164.8" font-family="Times,serif" font-size="14.00" fill="#000000">PendingDevolutionModule</text>
</g>
<!-- ActionAcceptDevolutionComponent&#45;&gt;PendingDevolutionModule -->
<g id="edge1" class="edge">
<title>ActionAcceptDevolutionComponent&#45;&gt;PendingDevolutionModule</title>
<path fill="none" stroke="#000000" d="M1871,-122.2843C1871,-143.3211 1871,-175 1871,-175 1871,-175 987.2302,-175 987.2302,-175"/>
<polygon fill="#000000" stroke="#000000" points="987.2302,-171.5001 977.2302,-175 987.2302,-178.5001 987.2302,-171.5001"/>
</g>
<!-- ActionRefuseDevolutionComponent -->
<g id="node2" class="node">
<title>ActionRefuseDevolutionComponent</title>
<polygon fill="#ffffb3" stroke="#000000" points="1741.799,-122 1520.201,-122 1520.201,-86 1741.799,-86 1741.799,-122"/>
<text text-anchor="middle" x="1631" y="-99.8" font-family="Times,serif" font-size="14.00" fill="#000000">ActionRefuseDevolutionComponent</text>
</g>
<!-- ActionRefuseDevolutionComponent&#45;&gt;PendingDevolutionModule -->
<g id="edge2" class="edge">
<title>ActionRefuseDevolutionComponent&#45;&gt;PendingDevolutionModule</title>
<path fill="none" stroke="#000000" d="M1631,-122.1061C1631,-141.3391 1631,-169 1631,-169 1631,-169 987.2984,-169 987.2984,-169"/>
<polygon fill="#000000" stroke="#000000" points="987.2985,-165.5001 977.2984,-169 987.2984,-172.5001 987.2985,-165.5001"/>
</g>
<!-- PendingDevolutionComponent -->
<g id="node3" class="node">
<title>PendingDevolutionComponent</title>
<polygon fill="#ffffb3" stroke="#000000" points="1502.2133,-122 1311.7867,-122 1311.7867,-86 1502.2133,-86 1502.2133,-122"/>
<text text-anchor="middle" x="1407" y="-99.8" font-family="Times,serif" font-size="14.00" fill="#000000">PendingDevolutionComponent</text>
</g>
<!-- PendingDevolutionComponent&#45;&gt;PendingDevolutionModule -->
<g id="edge3" class="edge">
<title>PendingDevolutionComponent&#45;&gt;PendingDevolutionModule</title>
<path fill="none" stroke="#000000" d="M1337.3389,-122.0225C1337.3389,-139.3734 1337.3389,-163 1337.3389,-163 1337.3389,-163 987.3607,-163 987.3607,-163"/>
<polygon fill="#000000" stroke="#000000" points="987.3608,-159.5001 977.3607,-163 987.3607,-166.5001 987.3608,-159.5001"/>
</g>
<!-- ProductPendingDevolutionModalComponent -->
<g id="node4" class="node">
<title>ProductPendingDevolutionModalComponent</title>
<polygon fill="#ffffb3" stroke="#000000" points="1294.3116,-122 1023.6884,-122 1023.6884,-86 1294.3116,-86 1294.3116,-122"/>
<text text-anchor="middle" x="1159" y="-99.8" font-family="Times,serif" font-size="14.00" fill="#000000">ProductPendingDevolutionModalComponent</text>
</g>
<!-- ProductPendingDevolutionModalComponent&#45;&gt;PendingDevolutionModule -->
<g id="edge4" class="edge">
<title>ProductPendingDevolutionModalComponent&#45;&gt;PendingDevolutionModule</title>
<path fill="none" stroke="#000000" d="M1071.6219,-122.2396C1071.6219,-137.5706 1071.6219,-157 1071.6219,-157 1071.6219,-157 987.3418,-157 987.3418,-157"/>
<polygon fill="#000000" stroke="#000000" points="987.3418,-153.5001 977.3418,-157 987.3418,-160.5001 987.3418,-153.5001"/>
</g>
<!-- ActionAcceptDevolutionComponent  -->
<g id="node8" class="node">
<title>ActionAcceptDevolutionComponent </title>
<polygon fill="#fb8072" stroke="#000000" points="1362.5692,-252 1137.4308,-252 1137.4308,-216 1362.5692,-216 1362.5692,-252"/>
<text text-anchor="middle" x="1250" y="-229.8" font-family="Times,serif" font-size="14.00" fill="#000000">ActionAcceptDevolutionComponent </text>
</g>
<!-- PendingDevolutionModule&#45;&gt;ActionAcceptDevolutionComponent  -->
<g id="edge7" class="edge">
<title>PendingDevolutionModule&#45;&gt;ActionAcceptDevolutionComponent </title>
<path fill="none" stroke="#000000" stroke-dasharray="5,2" d="M977.3604,-181C1072.9692,-181 1215.6856,-181 1215.6856,-181 1215.6856,-181 1215.6856,-205.7604 1215.6856,-205.7604"/>
<polygon fill="#000000" stroke="#000000" points="1212.1857,-205.7604 1215.6856,-215.7604 1219.1857,-205.7604 1212.1857,-205.7604"/>
</g>
<!-- ActionRefuseDevolutionComponent  -->
<g id="node9" class="node">
<title>ActionRefuseDevolutionComponent </title>
<polygon fill="#fb8072" stroke="#000000" points="1119.2989,-252 894.7011,-252 894.7011,-216 1119.2989,-216 1119.2989,-252"/>
<text text-anchor="middle" x="1007" y="-229.8" font-family="Times,serif" font-size="14.00" fill="#000000">ActionRefuseDevolutionComponent </text>
</g>
<!-- PendingDevolutionModule&#45;&gt;ActionRefuseDevolutionComponent  -->
<g id="edge8" class="edge">
<title>PendingDevolutionModule&#45;&gt;ActionRefuseDevolutionComponent </title>
<path fill="none" stroke="#000000" stroke-dasharray="5,2" d="M935.908,-187.1061C935.908,-187.1061 935.908,-205.991 935.908,-205.991"/>
<polygon fill="#000000" stroke="#000000" points="932.408,-205.9909 935.908,-215.991 939.408,-205.991 932.408,-205.9909"/>
</g>
<!-- PendingDevolutionComponent  -->
<g id="node10" class="node">
<title>PendingDevolutionComponent </title>
<polygon fill="#fb8072" stroke="#000000" points="876.7134,-252 683.2866,-252 683.2866,-216 876.7134,-216 876.7134,-252"/>
<text text-anchor="middle" x="780" y="-229.8" font-family="Times,serif" font-size="14.00" fill="#000000">PendingDevolutionComponent </text>
</g>
<!-- PendingDevolutionModule&#45;&gt;PendingDevolutionComponent  -->
<g id="edge9" class="edge">
<title>PendingDevolutionModule&#45;&gt;PendingDevolutionComponent </title>
<path fill="none" stroke="#000000" stroke-dasharray="5,2" d="M842.8207,-187.1061C842.8207,-187.1061 842.8207,-205.991 842.8207,-205.991"/>
<polygon fill="#000000" stroke="#000000" points="839.3207,-205.9909 842.8207,-215.991 846.3207,-205.991 839.3207,-205.9909"/>
</g>
<!-- ProductPendingDevolutionModalComponent  -->
<g id="node11" class="node">
<title>ProductPendingDevolutionModalComponent </title>
<polygon fill="#fb8072" stroke="#000000" points="664.8115,-252 391.1885,-252 391.1885,-216 664.8115,-216 664.8115,-252"/>
<text text-anchor="middle" x="528" y="-229.8" font-family="Times,serif" font-size="14.00" fill="#000000">ProductPendingDevolutionModalComponent </text>
</g>
<!-- PendingDevolutionModule&#45;&gt;ProductPendingDevolutionModalComponent  -->
<g id="edge10" class="edge">
<title>PendingDevolutionModule&#45;&gt;ProductPendingDevolutionModalComponent </title>
<path fill="none" stroke="#000000" stroke-dasharray="5,2" d="M808.5476,-181C740.2428,-181 655.3591,-181 655.3591,-181 655.3591,-181 655.3591,-205.7604 655.3591,-205.7604"/>
<polygon fill="#000000" stroke="#000000" points="651.8592,-205.7604 655.3591,-215.7604 658.8592,-205.7604 651.8592,-205.7604"/>
</g>
<!-- PendingDevolutionRoutingModule -->
<g id="node6" class="node">
<title>PendingDevolutionRoutingModule</title>
<polygon fill="#8dd3c7" stroke="#000000" points="999.5489,-122 996.5489,-126 975.5489,-126 972.5489,-122 786.4511,-122 786.4511,-86 999.5489,-86 999.5489,-122"/>
<text text-anchor="middle" x="893" y="-99.8" font-family="Times,serif" font-size="14.00" fill="#000000">PendingDevolutionRoutingModule</text>
</g>
<!-- PendingDevolutionRoutingModule&#45;&gt;PendingDevolutionModule -->
<g id="edge5" class="edge">
<title>PendingDevolutionRoutingModule&#45;&gt;PendingDevolutionModule</title>
<path fill="none" stroke="#000000" d="M893,-122.1061C893,-122.1061 893,-140.991 893,-140.991"/>
<polygon fill="#000000" stroke="#000000" points="889.5001,-140.9909 893,-150.991 896.5001,-140.991 889.5001,-140.9909"/>
</g>
<!-- SharedModule -->
<g id="node7" class="node">
<title>SharedModule</title>
<polygon fill="#8dd3c7" stroke="#000000" points="768.4231,-122 765.4231,-126 744.4231,-126 741.4231,-122 669.5769,-122 669.5769,-86 768.4231,-86 768.4231,-122"/>
<text text-anchor="middle" x="719" y="-99.8" font-family="Times,serif" font-size="14.00" fill="#000000">SharedModule</text>
</g>
<!-- SharedModule&#45;&gt;PendingDevolutionModule -->
<g id="edge6" class="edge">
<title>SharedModule&#45;&gt;PendingDevolutionModule</title>
<path fill="none" stroke="#000000" d="M725.6773,-122.2396C725.6773,-137.5706 725.6773,-157 725.6773,-157 725.6773,-157 798.3582,-157 798.3582,-157"/>
<polygon fill="#000000" stroke="#000000" points="798.3583,-160.5001 808.3582,-157 798.3582,-153.5001 798.3583,-160.5001"/>
</g>
<!-- ComponentsService -->
<g id="node12" class="node">
<title>ComponentsService</title>
<ellipse fill="#fdb462" stroke="#000000" cx="557" cy="-104" rx="88.6255" ry="18"/>
<text text-anchor="middle" x="557" y="-99.8" font-family="Times,serif" font-size="14.00" fill="#000000">ComponentsService</text>
</g>
<!-- ComponentsService&#45;&gt;PendingDevolutionModule -->
<g id="edge11" class="edge">
<title>ComponentsService&#45;&gt;PendingDevolutionModule</title>
<path fill="none" stroke="#000000" d="M557,-122.0225C557,-139.3734 557,-163 557,-163 557,-163 798.6467,-163 798.6467,-163"/>
<polygon fill="#000000" stroke="#000000" points="798.6467,-166.5001 808.6467,-163 798.6467,-159.5001 798.6467,-166.5001"/>
</g>
<!-- EventEmitterOrders -->
<g id="node13" class="node">
<title>EventEmitterOrders</title>
<ellipse fill="#fdb462" stroke="#000000" cx="361" cy="-104" rx="88.5986" ry="18"/>
<text text-anchor="middle" x="361" y="-99.8" font-family="Times,serif" font-size="14.00" fill="#000000">EventEmitterOrders</text>
</g>
<!-- EventEmitterOrders&#45;&gt;PendingDevolutionModule -->
<g id="edge12" class="edge">
<title>EventEmitterOrders&#45;&gt;PendingDevolutionModule</title>
<path fill="none" stroke="#000000" d="M420.4467,-117.468C420.4467,-136.5069 420.4467,-169 420.4467,-169 420.4467,-169 798.5169,-169 798.5169,-169"/>
<polygon fill="#000000" stroke="#000000" points="798.517,-172.5001 808.5169,-169 798.5169,-165.5001 798.517,-172.5001"/>
</g>
<!-- PendingDevolutionService -->
<g id="node14" class="node">
<title>PendingDevolutionService</title>
<ellipse fill="#fdb462" stroke="#000000" cx="139" cy="-104" rx="115.1918" ry="18"/>
<text text-anchor="middle" x="139" y="-99.8" font-family="Times,serif" font-size="14.00" fill="#000000">PendingDevolutionService</text>
</g>
<!-- PendingDevolutionService&#45;&gt;PendingDevolutionModule -->
<g id="edge13" class="edge">
<title>PendingDevolutionService&#45;&gt;PendingDevolutionModule</title>
<path fill="none" stroke="#000000" d="M139,-122.2843C139,-143.3211 139,-175 139,-175 139,-175 798.7014,-175 798.7014,-175"/>
<polygon fill="#000000" stroke="#000000" points="798.7014,-178.5001 808.7014,-175 798.7013,-171.5001 798.7014,-178.5001"/>
</g>
</g>
</svg>
