<?xml version="1.0" encoding="UTF-8" standalone="no"?>
<!DOCTYPE svg PUBLIC "-//W3C//DTD SVG 1.1//EN"
 "http://www.w3.org/Graphics/SVG/1.1/DTD/svg11.dtd">
<!-- Generated by graphviz version 2.40.1 (20161225.0304)
 -->
<!-- Title: dependencies Pages: 1 -->
<svg width="504pt" height="349pt"
 viewBox="0.00 0.00 504.00 349.00" xmlns="http://www.w3.org/2000/svg" xmlns:xlink="http://www.w3.org/1999/xlink">
<g id="graph0" class="graph" transform="scale(1 1) rotate(0) translate(4 345)">
<title>dependencies</title>
<polygon fill="#ffffff" stroke="transparent" points="-4,4 -4,-345 500,-345 500,4 -4,4"/>
<text text-anchor="start" x="227.0091" y="-42.4" font-family="sans-serif" font-weight="bold" font-size="14.00" fill="#000000">Legend</text>
<polygon fill="#ffffb3" stroke="transparent" points="14,-10 14,-30 34,-30 34,-10 14,-10"/>
<text text-anchor="start" x="37.629" y="-15.4" font-family="sans-serif" font-size="14.00" fill="#000000"> &#160;Declarations</text>
<polygon fill="#8dd3c7" stroke="transparent" points="127,-10 127,-30 147,-30 147,-10 127,-10"/>
<text text-anchor="start" x="150.7251" y="-15.4" font-family="sans-serif" font-size="14.00" fill="#000000"> &#160;Module</text>
<polygon fill="#80b1d3" stroke="transparent" points="213,-10 213,-30 233,-30 233,-10 213,-10"/>
<text text-anchor="start" x="236.7812" y="-15.4" font-family="sans-serif" font-size="14.00" fill="#000000"> &#160;Bootstrap</text>
<polygon fill="#fdb462" stroke="transparent" points="310,-10 310,-30 330,-30 330,-10 310,-10"/>
<text text-anchor="start" x="333.6732" y="-15.4" font-family="sans-serif" font-size="14.00" fill="#000000"> &#160;Providers</text>
<polygon fill="#fb8072" stroke="transparent" points="406,-10 406,-30 426,-30 426,-10 406,-10"/>
<text text-anchor="start" x="429.7258" y="-15.4" font-family="sans-serif" font-size="14.00" fill="#000000"> &#160;Exports</text>
<g id="clust1" class="cluster">
<title>cluster_SupportModule</title>
<polygon fill="none" stroke="#000000" stroke-dasharray="1,5" points="63.5,-70 63.5,-333 432.5,-333 432.5,-70 63.5,-70"/>
</g>
<g id="clust2" class="cluster">
<title>cluster_SupportModule_declarations</title>
<polygon fill="none" stroke="#000000" points="193.5,-143 193.5,-195 371.5,-195 371.5,-143 193.5,-143"/>
</g>
<g id="clust3" class="cluster">
<title>cluster_SupportModule_SupportModalComponent_providers</title>
<polygon fill="none" stroke="#000000" points="71.5,-78 71.5,-130 424.5,-130 424.5,-78 71.5,-78"/>
</g>
<g id="clust4" class="cluster">
<title>cluster_SupportModule_imports</title>
<polygon fill="none" stroke="#000000" points="71.5,-143 71.5,-195 185.5,-195 185.5,-143 71.5,-143"/>
</g>
<g id="clust5" class="cluster">
<title>cluster_SupportModule_exports</title>
<polygon fill="none" stroke="#000000" points="191.5,-273 191.5,-325 373.5,-325 373.5,-273 191.5,-273"/>
</g>
<!-- SupportModalComponent -->
<g id="node1" class="node">
<title>SupportModalComponent</title>
<polygon fill="#ffffb3" stroke="#000000" points="363.7161,-187 201.2839,-187 201.2839,-151 363.7161,-151 363.7161,-187"/>
<text text-anchor="middle" x="282.5" y="-164.8" font-family="Times,serif" font-size="14.00" fill="#000000">SupportModalComponent</text>
</g>
<!-- SupportModule -->
<g id="node2" class="node">
<title>SupportModule</title>
<polygon fill="#8dd3c7" stroke="#000000" points="334.3837,-252 331.3837,-256 310.3837,-256 307.3837,-252 230.6163,-252 230.6163,-216 334.3837,-216 334.3837,-252"/>
<text text-anchor="middle" x="282.5" y="-229.8" font-family="Times,serif" font-size="14.00" fill="#000000">SupportModule</text>
</g>
<!-- SupportModalComponent&#45;&gt;SupportModule -->
<g id="edge1" class="edge">
<title>SupportModalComponent&#45;&gt;SupportModule</title>
<path fill="none" stroke="#000000" d="M282.5,-187.1061C282.5,-187.1061 282.5,-205.991 282.5,-205.991"/>
<polygon fill="#000000" stroke="#000000" points="279.0001,-205.9909 282.5,-215.991 286.0001,-205.991 279.0001,-205.9909"/>
</g>
<!-- SupportModalComponent  -->
<g id="node6" class="node">
<title>SupportModalComponent </title>
<polygon fill="#fb8072" stroke="#000000" points="365.2162,-317 199.7838,-317 199.7838,-281 365.2162,-281 365.2162,-317"/>
<text text-anchor="middle" x="282.5" y="-294.8" font-family="Times,serif" font-size="14.00" fill="#000000">SupportModalComponent </text>
</g>
<!-- SupportModule&#45;&gt;SupportModalComponent  -->
<g id="edge5" class="edge">
<title>SupportModule&#45;&gt;SupportModalComponent </title>
<path fill="none" stroke="#000000" stroke-dasharray="5,2" d="M282.5,-252.1061C282.5,-252.1061 282.5,-270.991 282.5,-270.991"/>
<polygon fill="#000000" stroke="#000000" points="279.0001,-270.9909 282.5,-280.991 286.0001,-270.991 279.0001,-270.9909"/>
</g>
<!-- SupportService -->
<g id="node3" class="node">
<title>SupportService</title>
<ellipse fill="#fdb462" stroke="#000000" cx="345.5" cy="-104" rx="70.6451" ry="18"/>
<text text-anchor="middle" x="345.5" y="-99.8" font-family="Times,serif" font-size="14.00" fill="#000000">SupportService</text>
</g>
<!-- SupportService&#45;&gt;SupportModalComponent -->
<g id="edge2" class="edge">
<title>SupportService&#45;&gt;SupportModalComponent</title>
<path fill="none" stroke="#000000" d="M319.2677,-120.7391C319.2677,-120.7391 319.2677,-140.7182 319.2677,-140.7182"/>
<polygon fill="#000000" stroke="#000000" points="315.7678,-140.7182 319.2677,-150.7182 322.7678,-140.7182 315.7678,-140.7182"/>
</g>
<!-- SupportService&#45;&gt;SupportModule -->
<g id="edge6" class="edge">
<title>SupportService&#45;&gt;SupportModule</title>
<path fill="none" stroke="#000000" d="M390.7153,-117.9123C390.7153,-151.4487 390.7153,-234 390.7153,-234 390.7153,-234 344.3889,-234 344.3889,-234"/>
<polygon fill="#000000" stroke="#000000" points="344.389,-230.5001 334.3889,-234 344.3889,-237.5001 344.389,-230.5001"/>
</g>
<!-- ComponentsService -->
<g id="node4" class="node">
<title>ComponentsService</title>
<ellipse fill="#fdb462" stroke="#000000" cx="168.5" cy="-104" rx="88.6255" ry="18"/>
<text text-anchor="middle" x="168.5" y="-99.8" font-family="Times,serif" font-size="14.00" fill="#000000">ComponentsService</text>
</g>
<!-- ComponentsService&#45;&gt;SupportModalComponent -->
<g id="edge3" class="edge">
<title>ComponentsService&#45;&gt;SupportModalComponent</title>
<path fill="none" stroke="#000000" d="M229.3523,-117.1537C229.3523,-117.1537 229.3523,-140.6938 229.3523,-140.6938"/>
<polygon fill="#000000" stroke="#000000" points="225.8524,-140.6938 229.3523,-150.6938 232.8524,-140.6939 225.8524,-140.6938"/>
</g>
<!-- SharedModule -->
<g id="node5" class="node">
<title>SharedModule</title>
<polygon fill="#8dd3c7" stroke="#000000" points="177.9231,-187 174.9231,-191 153.9231,-191 150.9231,-187 79.0769,-187 79.0769,-151 177.9231,-151 177.9231,-187"/>
<text text-anchor="middle" x="128.5" y="-164.8" font-family="Times,serif" font-size="14.00" fill="#000000">SharedModule</text>
</g>
<!-- SharedModule&#45;&gt;SupportModule -->
<g id="edge4" class="edge">
<title>SharedModule&#45;&gt;SupportModule</title>
<path fill="none" stroke="#000000" d="M128.5,-187.1061C128.5,-206.3391 128.5,-234 128.5,-234 128.5,-234 220.3626,-234 220.3626,-234"/>
<polygon fill="#000000" stroke="#000000" points="220.3627,-237.5001 230.3626,-234 220.3626,-230.5001 220.3627,-237.5001"/>
</g>
</g>
</svg>
