<?xml version="1.0" encoding="UTF-8" standalone="no"?>
<!DOCTYPE svg PUBLIC "-//W3C//DTD SVG 1.1//EN"
 "http://www.w3.org/Graphics/SVG/1.1/DTD/svg11.dtd">
<!-- Generated by graphviz version 2.40.1 (20161225.0304)
 -->
<!-- Title: dependencies Pages: 1 -->
<svg width="914pt" height="349pt"
 viewBox="0.00 0.00 914.00 349.00" xmlns="http://www.w3.org/2000/svg" xmlns:xlink="http://www.w3.org/1999/xlink">
<g id="graph0" class="graph" transform="scale(1 1) rotate(0) translate(4 345)">
<title>dependencies</title>
<polygon fill="#ffffff" stroke="transparent" points="-4,4 -4,-345 910,-345 910,4 -4,4"/>
<text text-anchor="start" x="432.0091" y="-42.4" font-family="sans-serif" font-weight="bold" font-size="14.00" fill="#000000">Legend</text>
<polygon fill="#ffffb3" stroke="transparent" points="219,-10 219,-30 239,-30 239,-10 219,-10"/>
<text text-anchor="start" x="242.629" y="-15.4" font-family="sans-serif" font-size="14.00" fill="#000000"> &#160;Declarations</text>
<polygon fill="#8dd3c7" stroke="transparent" points="332,-10 332,-30 352,-30 352,-10 332,-10"/>
<text text-anchor="start" x="355.7251" y="-15.4" font-family="sans-serif" font-size="14.00" fill="#000000"> &#160;Module</text>
<polygon fill="#80b1d3" stroke="transparent" points="418,-10 418,-30 438,-30 438,-10 418,-10"/>
<text text-anchor="start" x="441.7812" y="-15.4" font-family="sans-serif" font-size="14.00" fill="#000000"> &#160;Bootstrap</text>
<polygon fill="#fdb462" stroke="transparent" points="515,-10 515,-30 535,-30 535,-10 515,-10"/>
<text text-anchor="start" x="538.6732" y="-15.4" font-family="sans-serif" font-size="14.00" fill="#000000"> &#160;Providers</text>
<polygon fill="#fb8072" stroke="transparent" points="611,-10 611,-30 631,-30 631,-10 611,-10"/>
<text text-anchor="start" x="634.7258" y="-15.4" font-family="sans-serif" font-size="14.00" fill="#000000"> &#160;Exports</text>
<g id="clust1" class="cluster">
<title>cluster_SupportModule</title>
<polygon fill="none" stroke="#000000" stroke-dasharray="1,5" points="8,-70 8,-333 898,-333 898,-70 8,-70"/>
</g>
<g id="clust2" class="cluster">
<title>cluster_SupportModule_declarations</title>
<polygon fill="none" stroke="#000000" points="700,-143 700,-195 878,-195 878,-143 700,-143"/>
</g>
<g id="clust3" class="cluster">
<title>cluster_SupportModule_SupportModalComponent_providers</title>
<polygon fill="none" stroke="#000000" points="537,-78 537,-130 890,-130 890,-78 537,-78"/>
</g>
<g id="clust4" class="cluster">
<title>cluster_SupportModule_imports</title>
<polygon fill="none" stroke="#000000" points="570,-143 570,-195 692,-195 692,-143 570,-143"/>
</g>
<g id="clust5" class="cluster">
<title>cluster_SupportModule_exports</title>
<polygon fill="none" stroke="#000000" points="464,-273 464,-325 646,-325 646,-273 464,-273"/>
</g>
<g id="clust7" class="cluster">
<title>cluster_SupportModule_providers</title>
<polygon fill="none" stroke="#000000" points="16,-143 16,-195 562,-195 562,-143 16,-143"/>
</g>
<!-- SupportModalComponent -->
<g id="node1" class="node">
<title>SupportModalComponent</title>
<polygon fill="#ffffb3" stroke="#000000" points="870.2161,-187 707.7839,-187 707.7839,-151 870.2161,-151 870.2161,-187"/>
<text text-anchor="middle" x="789" y="-164.8" font-family="Times,serif" font-size="14.00" fill="#000000">SupportModalComponent</text>
</g>
<!-- SupportModule -->
<g id="node2" class="node">
<title>SupportModule</title>
<polygon fill="#8dd3c7" stroke="#000000" points="606.8837,-252 603.8837,-256 582.8837,-256 579.8837,-252 503.1163,-252 503.1163,-216 606.8837,-216 606.8837,-252"/>
<text text-anchor="middle" x="555" y="-229.8" font-family="Times,serif" font-size="14.00" fill="#000000">SupportModule</text>
</g>
<!-- SupportModalComponent&#45;&gt;SupportModule -->
<g id="edge1" class="edge">
<title>SupportModalComponent&#45;&gt;SupportModule</title>
<path fill="none" stroke="#000000" d="M789,-187.0225C789,-204.3734 789,-228 789,-228 789,-228 616.9322,-228 616.9322,-228"/>
<polygon fill="#000000" stroke="#000000" points="616.9322,-224.5001 606.9322,-228 616.9321,-231.5001 616.9322,-224.5001"/>
</g>
<!-- SupportModalComponent  -->
<g id="node6" class="node">
<title>SupportModalComponent </title>
<polygon fill="#fb8072" stroke="#000000" points="637.7162,-317 472.2838,-317 472.2838,-281 637.7162,-281 637.7162,-317"/>
<text text-anchor="middle" x="555" y="-294.8" font-family="Times,serif" font-size="14.00" fill="#000000">SupportModalComponent </text>
</g>
<!-- SupportModule&#45;&gt;SupportModalComponent  -->
<g id="edge5" class="edge">
<title>SupportModule&#45;&gt;SupportModalComponent </title>
<path fill="none" stroke="#000000" stroke-dasharray="5,2" d="M555,-252.1061C555,-252.1061 555,-270.991 555,-270.991"/>
<polygon fill="#000000" stroke="#000000" points="551.5001,-270.9909 555,-280.991 558.5001,-270.991 551.5001,-270.9909"/>
</g>
<!-- SupportService -->
<g id="node3" class="node">
<title>SupportService</title>
<ellipse fill="#fdb462" stroke="#000000" cx="811" cy="-104" rx="70.6451" ry="18"/>
<text text-anchor="middle" x="811" y="-99.8" font-family="Times,serif" font-size="14.00" fill="#000000">SupportService</text>
</g>
<!-- SupportService&#45;&gt;SupportModalComponent -->
<g id="edge2" class="edge">
<title>SupportService&#45;&gt;SupportModalComponent</title>
<path fill="none" stroke="#000000" d="M805.2677,-122.1061C805.2677,-122.1061 805.2677,-140.991 805.2677,-140.991"/>
<polygon fill="#000000" stroke="#000000" points="801.7678,-140.9909 805.2677,-150.991 808.7678,-140.991 801.7678,-140.9909"/>
</g>
<!-- SupportService&#45;&gt;SupportModule -->
<g id="edge8" class="edge">
<title>SupportService&#45;&gt;SupportModule</title>
<path fill="none" stroke="#000000" d="M875.8403,-111.312C875.8403,-139.5605 875.8403,-240 875.8403,-240 875.8403,-240 616.9051,-240 616.9051,-240"/>
<polygon fill="#000000" stroke="#000000" points="616.9052,-236.5001 606.9051,-240 616.9051,-243.5001 616.9052,-236.5001"/>
</g>
<!-- ComponentsService -->
<g id="node4" class="node">
<title>ComponentsService</title>
<ellipse fill="#fdb462" stroke="#000000" cx="634" cy="-104" rx="88.6255" ry="18"/>
<text text-anchor="middle" x="634" y="-99.8" font-family="Times,serif" font-size="14.00" fill="#000000">ComponentsService</text>
</g>
<!-- ComponentsService&#45;&gt;SupportModalComponent -->
<g id="edge3" class="edge">
<title>ComponentsService&#45;&gt;SupportModalComponent</title>
<path fill="none" stroke="#000000" d="M715.3523,-111.4563C715.3523,-111.4563 715.3523,-140.8372 715.3523,-140.8372"/>
<polygon fill="#000000" stroke="#000000" points="711.8524,-140.8371 715.3523,-150.8372 718.8524,-140.8372 711.8524,-140.8371"/>
</g>
<!-- MaterialModule -->
<g id="node5" class="node">
<title>MaterialModule</title>
<polygon fill="#8dd3c7" stroke="#000000" points="684.4706,-187 681.4706,-191 660.4706,-191 657.4706,-187 577.5294,-187 577.5294,-151 684.4706,-151 684.4706,-187"/>
<text text-anchor="middle" x="631" y="-164.8" font-family="Times,serif" font-size="14.00" fill="#000000">MaterialModule</text>
</g>
<!-- MaterialModule&#45;&gt;SupportModule -->
<g id="edge4" class="edge">
<title>MaterialModule&#45;&gt;SupportModule</title>
<path fill="none" stroke="#000000" d="M592.2283,-187.1061C592.2283,-187.1061 592.2283,-205.991 592.2283,-205.991"/>
<polygon fill="#000000" stroke="#000000" points="588.7283,-205.9909 592.2283,-215.991 595.7283,-205.991 588.7283,-205.9909"/>
</g>
<!-- EndpointService -->
<g id="node7" class="node">
<title>EndpointService</title>
<ellipse fill="#fdb462" stroke="#000000" cx="479" cy="-169" rx="75.3021" ry="18"/>
<text text-anchor="middle" x="479" y="-164.8" font-family="Times,serif" font-size="14.00" fill="#000000">EndpointService</text>
</g>
<!-- EndpointService&#45;&gt;SupportModule -->
<g id="edge6" class="edge">
<title>EndpointService&#45;&gt;SupportModule</title>
<path fill="none" stroke="#000000" d="M528.7296,-182.7848C528.7296,-182.7848 528.7296,-205.5475 528.7296,-205.5475"/>
<polygon fill="#000000" stroke="#000000" points="525.2297,-205.5474 528.7296,-215.5475 532.2297,-205.5475 525.2297,-205.5474"/>
</g>
<!-- HttpErrorHandlingService -->
<g id="node8" class="node">
<title>HttpErrorHandlingService</title>
<ellipse fill="#fdb462" stroke="#000000" cx="272" cy="-169" rx="113.4412" ry="18"/>
<text text-anchor="middle" x="272" y="-164.8" font-family="Times,serif" font-size="14.00" fill="#000000">HttpErrorHandlingService</text>
</g>
<!-- HttpErrorHandlingService&#45;&gt;SupportModule -->
<g id="edge7" class="edge">
<title>HttpErrorHandlingService&#45;&gt;SupportModule</title>
<path fill="none" stroke="#000000" d="M272,-187.0225C272,-204.3734 272,-228 272,-228 272,-228 493.0934,-228 493.0934,-228"/>
<polygon fill="#000000" stroke="#000000" points="493.0935,-231.5001 503.0934,-228 493.0934,-224.5001 493.0935,-231.5001"/>
</g>
<!-- UserService -->
<g id="node9" class="node">
<title>UserService</title>
<ellipse fill="#fdb462" stroke="#000000" cx="82" cy="-169" rx="58.4415" ry="18"/>
<text text-anchor="middle" x="82" y="-164.8" font-family="Times,serif" font-size="14.00" fill="#000000">UserService</text>
</g>
<!-- UserService&#45;&gt;SupportModule -->
<g id="edge9" class="edge">
<title>UserService&#45;&gt;SupportModule</title>
<path fill="none" stroke="#000000" d="M82,-187.2843C82,-208.3211 82,-240 82,-240 82,-240 493.0277,-240 493.0277,-240"/>
<polygon fill="#000000" stroke="#000000" points="493.0277,-243.5001 503.0277,-240 493.0277,-236.5001 493.0277,-243.5001"/>
</g>
</g>
</svg>
