<?xml version="1.0" encoding="UTF-8" standalone="no"?>
<!DOCTYPE svg PUBLIC "-//W3C//DTD SVG 1.1//EN"
 "http://www.w3.org/Graphics/SVG/1.1/DTD/svg11.dtd">
<!-- Generated by graphviz version 2.40.1 (20161225.0304)
 -->
<!-- Title: dependencies Pages: 1 -->
<svg width="981pt" height="276pt"
 viewBox="0.00 0.00 981.00 276.00" xmlns="http://www.w3.org/2000/svg" xmlns:xlink="http://www.w3.org/1999/xlink">
<g id="graph0" class="graph" transform="scale(1 1) rotate(0) translate(4 272)">
<title>dependencies</title>
<polygon fill="#ffffff" stroke="transparent" points="-4,4 -4,-272 977,-272 977,4 -4,4"/>
<text text-anchor="start" x="465.5091" y="-42.4" font-family="sans-serif" font-weight="bold" font-size="14.00" fill="#000000">Legend</text>
<polygon fill="#ffffb3" stroke="transparent" points="252.5,-10 252.5,-30 272.5,-30 272.5,-10 252.5,-10"/>
<text text-anchor="start" x="276.129" y="-15.4" font-family="sans-serif" font-size="14.00" fill="#000000"> &#160;Declarations</text>
<polygon fill="#8dd3c7" stroke="transparent" points="365.5,-10 365.5,-30 385.5,-30 385.5,-10 365.5,-10"/>
<text text-anchor="start" x="389.2251" y="-15.4" font-family="sans-serif" font-size="14.00" fill="#000000"> &#160;Module</text>
<polygon fill="#80b1d3" stroke="transparent" points="451.5,-10 451.5,-30 471.5,-30 471.5,-10 451.5,-10"/>
<text text-anchor="start" x="475.2812" y="-15.4" font-family="sans-serif" font-size="14.00" fill="#000000"> &#160;Bootstrap</text>
<polygon fill="#fdb462" stroke="transparent" points="548.5,-10 548.5,-30 568.5,-30 568.5,-10 548.5,-10"/>
<text text-anchor="start" x="572.1732" y="-15.4" font-family="sans-serif" font-size="14.00" fill="#000000"> &#160;Providers</text>
<polygon fill="#fb8072" stroke="transparent" points="644.5,-10 644.5,-30 664.5,-30 664.5,-10 644.5,-10"/>
<text text-anchor="start" x="668.2258" y="-15.4" font-family="sans-serif" font-size="14.00" fill="#000000"> &#160;Exports</text>
<g id="clust1" class="cluster">
<title>cluster_DownloadHistoricalModalAdminModule</title>
<polygon fill="none" stroke="#000000" stroke-dasharray="1,5" points="8,-70 8,-260 965,-260 965,-70 8,-70"/>
</g>
<g id="clust2" class="cluster">
<title>cluster_DownloadHistoricalModalAdminModule_declarations</title>
<polygon fill="none" stroke="#000000" points="697,-143 697,-195 945,-195 945,-143 697,-143"/>
</g>
<g id="clust3" class="cluster">
<title>cluster_DownloadHistoricalModalAdminModule_DownloadHistoricalModalComponent_providers</title>
<polygon fill="none" stroke="#000000" points="700,-78 700,-130 952,-130 952,-78 700,-78"/>
</g>
<g id="clust4" class="cluster">
<title>cluster_DownloadHistoricalModalAdminModule_imports</title>
<polygon fill="none" stroke="#000000" points="567,-143 567,-195 689,-195 689,-143 567,-143"/>
</g>
<g id="clust7" class="cluster">
<title>cluster_DownloadHistoricalModalAdminModule_providers</title>
<polygon fill="none" stroke="#000000" points="16,-143 16,-195 559,-195 559,-143 16,-143"/>
</g>
<!-- DownloadHistoricalModalComponent -->
<g id="node1" class="node">
<title>DownloadHistoricalModalComponent</title>
<polygon fill="#ffffb3" stroke="#000000" points="936.9044,-187 705.0956,-187 705.0956,-151 936.9044,-151 936.9044,-187"/>
<text text-anchor="middle" x="821" y="-164.8" font-family="Times,serif" font-size="14.00" fill="#000000">DownloadHistoricalModalComponent</text>
</g>
<!-- DownloadHistoricalModalAdminModule -->
<g id="node2" class="node">
<title>DownloadHistoricalModalAdminModule</title>
<polygon fill="#8dd3c7" stroke="#000000" points="669.0097,-252 666.0097,-256 645.0097,-256 642.0097,-252 420.9903,-252 420.9903,-216 669.0097,-216 669.0097,-252"/>
<text text-anchor="middle" x="545" y="-229.8" font-family="Times,serif" font-size="14.00" fill="#000000">DownloadHistoricalModalAdminModule</text>
</g>
<!-- DownloadHistoricalModalComponent&#45;&gt;DownloadHistoricalModalAdminModule -->
<g id="edge1" class="edge">
<title>DownloadHistoricalModalComponent&#45;&gt;DownloadHistoricalModalAdminModule</title>
<path fill="none" stroke="#000000" d="M821,-187.1061C821,-206.3391 821,-234 821,-234 821,-234 679.2741,-234 679.2741,-234"/>
<polygon fill="#000000" stroke="#000000" points="679.2741,-230.5001 669.2741,-234 679.2741,-237.5001 679.2741,-230.5001"/>
</g>
<!-- DownloadHistoricalService -->
<g id="node3" class="node">
<title>DownloadHistoricalService</title>
<ellipse fill="#fdb462" stroke="#000000" cx="826" cy="-104" rx="118.0947" ry="18"/>
<text text-anchor="middle" x="826" y="-99.8" font-family="Times,serif" font-size="14.00" fill="#000000">DownloadHistoricalService</text>
</g>
<!-- DownloadHistoricalService&#45;&gt;DownloadHistoricalModalComponent -->
<g id="edge2" class="edge">
<title>DownloadHistoricalService&#45;&gt;DownloadHistoricalModalComponent</title>
<path fill="none" stroke="#000000" d="M822.2024,-122.1061C822.2024,-122.1061 822.2024,-140.991 822.2024,-140.991"/>
<polygon fill="#000000" stroke="#000000" points="818.7025,-140.9909 822.2024,-150.991 825.7025,-140.991 818.7025,-140.9909"/>
</g>
<!-- DownloadHistoricalService&#45;&gt;DownloadHistoricalModalAdminModule -->
<g id="edge5" class="edge">
<title>DownloadHistoricalService&#45;&gt;DownloadHistoricalModalAdminModule</title>
<path fill="none" stroke="#000000" d="M707.4279,-104C637.5316,-104 562.6636,-104 562.6636,-104 562.6636,-104 562.6636,-205.9241 562.6636,-205.9241"/>
<polygon fill="#000000" stroke="#000000" points="559.1637,-205.924 562.6636,-215.9241 566.1637,-205.9241 559.1637,-205.924"/>
</g>
<!-- MaterialModule -->
<g id="node4" class="node">
<title>MaterialModule</title>
<polygon fill="#8dd3c7" stroke="#000000" points="681.4706,-187 678.4706,-191 657.4706,-191 654.4706,-187 574.5294,-187 574.5294,-151 681.4706,-151 681.4706,-187"/>
<text text-anchor="middle" x="628" y="-164.8" font-family="Times,serif" font-size="14.00" fill="#000000">MaterialModule</text>
</g>
<!-- MaterialModule&#45;&gt;DownloadHistoricalModalAdminModule -->
<g id="edge3" class="edge">
<title>MaterialModule&#45;&gt;DownloadHistoricalModalAdminModule</title>
<path fill="none" stroke="#000000" d="M621.8847,-187.1061C621.8847,-187.1061 621.8847,-205.991 621.8847,-205.991"/>
<polygon fill="#000000" stroke="#000000" points="618.3847,-205.9909 621.8847,-215.991 625.3847,-205.991 618.3847,-205.9909"/>
</g>
<!-- ComponentsService -->
<g id="node5" class="node">
<title>ComponentsService</title>
<ellipse fill="#fdb462" stroke="#000000" cx="462" cy="-169" rx="88.6255" ry="18"/>
<text text-anchor="middle" x="462" y="-164.8" font-family="Times,serif" font-size="14.00" fill="#000000">ComponentsService</text>
</g>
<!-- ComponentsService&#45;&gt;DownloadHistoricalModalAdminModule -->
<g id="edge4" class="edge">
<title>ComponentsService&#45;&gt;DownloadHistoricalModalAdminModule</title>
<path fill="none" stroke="#000000" d="M485.779,-186.4188C485.779,-186.4188 485.779,-205.6234 485.779,-205.6234"/>
<polygon fill="#000000" stroke="#000000" points="482.2791,-205.6234 485.779,-215.6234 489.2791,-205.6234 482.2791,-205.6234"/>
</g>
<!-- EndpointService -->
<g id="node6" class="node">
<title>EndpointService</title>
<ellipse fill="#fdb462" stroke="#000000" cx="280" cy="-169" rx="75.3021" ry="18"/>
<text text-anchor="middle" x="280" y="-164.8" font-family="Times,serif" font-size="14.00" fill="#000000">EndpointService</text>
</g>
<!-- EndpointService&#45;&gt;DownloadHistoricalModalAdminModule -->
<g id="edge6" class="edge">
<title>EndpointService&#45;&gt;DownloadHistoricalModalAdminModule</title>
<path fill="none" stroke="#000000" d="M280,-187.0225C280,-204.3734 280,-228 280,-228 280,-228 410.6473,-228 410.6473,-228"/>
<polygon fill="#000000" stroke="#000000" points="410.6473,-231.5001 420.6473,-228 410.6472,-224.5001 410.6473,-231.5001"/>
</g>
<!-- UserLoginService -->
<g id="node7" class="node">
<title>UserLoginService</title>
<ellipse fill="#fdb462" stroke="#000000" cx="105" cy="-169" rx="81.0782" ry="18"/>
<text text-anchor="middle" x="105" y="-164.8" font-family="Times,serif" font-size="14.00" fill="#000000">UserLoginService</text>
</g>
<!-- UserLoginService&#45;&gt;DownloadHistoricalModalAdminModule -->
<g id="edge7" class="edge">
<title>UserLoginService&#45;&gt;DownloadHistoricalModalAdminModule</title>
<path fill="none" stroke="#000000" d="M105,-187.2843C105,-208.3211 105,-240 105,-240 105,-240 410.9713,-240 410.9713,-240"/>
<polygon fill="#000000" stroke="#000000" points="410.9714,-243.5001 420.9713,-240 410.9713,-236.5001 410.9714,-243.5001"/>
</g>
</g>
</svg>
