<?xml version="1.0" encoding="UTF-8" standalone="no"?>
<!DOCTYPE svg PUBLIC "-//W3C//DTD SVG 1.1//EN"
 "http://www.w3.org/Graphics/SVG/1.1/DTD/svg11.dtd">
<!-- Generated by graphviz version 2.40.1 (20161225.0304)
 -->
<!-- Title: dependencies Pages: 1 -->
<svg width="2630pt" height="284pt"
 viewBox="0.00 0.00 2630.00 284.00" xmlns="http://www.w3.org/2000/svg" xmlns:xlink="http://www.w3.org/1999/xlink">
<g id="graph0" class="graph" transform="scale(1 1) rotate(0) translate(4 280)">
<title>dependencies</title>
<polygon fill="#ffffff" stroke="transparent" points="-4,4 -4,-280 2626,-280 2626,4 -4,4"/>
<text text-anchor="start" x="1290.0091" y="-42.4" font-family="sans-serif" font-weight="bold" font-size="14.00" fill="#000000">Legend</text>
<polygon fill="#ffffb3" stroke="transparent" points="1077,-10 1077,-30 1097,-30 1097,-10 1077,-10"/>
<text text-anchor="start" x="1100.629" y="-15.4" font-family="sans-serif" font-size="14.00" fill="#000000"> &#160;Declarations</text>
<polygon fill="#8dd3c7" stroke="transparent" points="1190,-10 1190,-30 1210,-30 1210,-10 1190,-10"/>
<text text-anchor="start" x="1213.7251" y="-15.4" font-family="sans-serif" font-size="14.00" fill="#000000"> &#160;Module</text>
<polygon fill="#80b1d3" stroke="transparent" points="1276,-10 1276,-30 1296,-30 1296,-10 1276,-10"/>
<text text-anchor="start" x="1299.7812" y="-15.4" font-family="sans-serif" font-size="14.00" fill="#000000"> &#160;Bootstrap</text>
<polygon fill="#fdb462" stroke="transparent" points="1373,-10 1373,-30 1393,-30 1393,-10 1373,-10"/>
<text text-anchor="start" x="1396.6732" y="-15.4" font-family="sans-serif" font-size="14.00" fill="#000000"> &#160;Providers</text>
<polygon fill="#fb8072" stroke="transparent" points="1469,-10 1469,-30 1489,-30 1489,-10 1469,-10"/>
<text text-anchor="start" x="1492.7258" y="-15.4" font-family="sans-serif" font-size="14.00" fill="#000000"> &#160;Exports</text>
<g id="clust1" class="cluster">
<title>cluster_SearchOrderMenuModule</title>
<polygon fill="none" stroke="#000000" stroke-dasharray="1,5" points="8,-70 8,-268 2614,-268 2614,-70 8,-70"/>
</g>
<g id="clust2" class="cluster">
<title>cluster_SearchOrderMenuModule_declarations</title>
<polygon fill="none" stroke="#000000" points="1484,-78 1484,-130 2606,-130 2606,-78 1484,-78"/>
</g>
<g id="clust8" class="cluster">
<title>cluster_SearchOrderMenuModule_imports</title>
<polygon fill="none" stroke="#000000" points="1354,-78 1354,-130 1476,-130 1476,-78 1354,-78"/>
</g>
<g id="clust9" class="cluster">
<title>cluster_SearchOrderMenuModule_exports</title>
<polygon fill="none" stroke="#000000" points="1169,-208 1169,-260 1373,-260 1373,-208 1169,-208"/>
</g>
<g id="clust11" class="cluster">
<title>cluster_SearchOrderMenuModule_providers</title>
<polygon fill="none" stroke="#000000" points="16,-78 16,-130 1346,-130 1346,-78 16,-78"/>
</g>
<!-- SearchBillingFormComponent -->
<g id="node1" class="node">
<title>SearchBillingFormComponent</title>
<polygon fill="#ffffb3" stroke="#000000" points="2598.1525,-122 2409.8475,-122 2409.8475,-86 2598.1525,-86 2598.1525,-122"/>
<text text-anchor="middle" x="2504" y="-99.8" font-family="Times,serif" font-size="14.00" fill="#000000">SearchBillingFormComponent</text>
</g>
<!-- SearchOrderMenuModule -->
<g id="node6" class="node">
<title>SearchOrderMenuModule</title>
<polygon fill="#8dd3c7" stroke="#000000" points="1352.4384,-187 1349.4384,-191 1328.4384,-191 1325.4384,-187 1189.5616,-187 1189.5616,-151 1352.4384,-151 1352.4384,-187"/>
<text text-anchor="middle" x="1271" y="-164.8" font-family="Times,serif" font-size="14.00" fill="#000000">SearchOrderMenuModule</text>
</g>
<!-- SearchBillingFormComponent&#45;&gt;SearchOrderMenuModule -->
<g id="edge1" class="edge">
<title>SearchBillingFormComponent&#45;&gt;SearchOrderMenuModule</title>
<path fill="none" stroke="#000000" d="M2504,-122.2479C2504,-145.0179 2504,-181 2504,-181 2504,-181 1362.8555,-181 1362.8555,-181"/>
<polygon fill="#000000" stroke="#000000" points="1362.8555,-177.5001 1352.8555,-181 1362.8554,-184.5001 1362.8555,-177.5001"/>
</g>
<!-- SearchEnviosExitoFormComponent -->
<g id="node2" class="node">
<title>SearchEnviosExitoFormComponent</title>
<polygon fill="#ffffb3" stroke="#000000" points="2391.4748,-122 2172.5252,-122 2172.5252,-86 2391.4748,-86 2391.4748,-122"/>
<text text-anchor="middle" x="2282" y="-99.8" font-family="Times,serif" font-size="14.00" fill="#000000">SearchEnviosExitoFormComponent</text>
</g>
<!-- SearchEnviosExitoFormComponent&#45;&gt;SearchOrderMenuModule -->
<g id="edge2" class="edge">
<title>SearchEnviosExitoFormComponent&#45;&gt;SearchOrderMenuModule</title>
<path fill="none" stroke="#000000" d="M2282,-122.2843C2282,-143.3211 2282,-175 2282,-175 2282,-175 1362.4512,-175 1362.4512,-175"/>
<polygon fill="#000000" stroke="#000000" points="1362.4512,-171.5001 1352.4512,-175 1362.4512,-178.5001 1362.4512,-171.5001"/>
</g>
<!-- SearchOrderFormComponent -->
<g id="node3" class="node">
<title>SearchOrderFormComponent</title>
<polygon fill="#ffffb3" stroke="#000000" points="2154.396,-122 1971.604,-122 1971.604,-86 2154.396,-86 2154.396,-122"/>
<text text-anchor="middle" x="2063" y="-99.8" font-family="Times,serif" font-size="14.00" fill="#000000">SearchOrderFormComponent</text>
</g>
<!-- SearchOrderFormComponent&#45;&gt;SearchOrderMenuModule -->
<g id="edge3" class="edge">
<title>SearchOrderFormComponent&#45;&gt;SearchOrderMenuModule</title>
<path fill="none" stroke="#000000" d="M2063,-122.1061C2063,-141.3391 2063,-169 2063,-169 2063,-169 1362.7749,-169 1362.7749,-169"/>
<polygon fill="#000000" stroke="#000000" points="1362.7749,-165.5001 1352.7749,-169 1362.7748,-172.5001 1362.7749,-165.5001"/>
</g>
<!-- SearchOrderMenuComponent -->
<g id="node4" class="node">
<title>SearchOrderMenuComponent</title>
<polygon fill="#ffffb3" stroke="#000000" points="1953.2212,-122 1768.7788,-122 1768.7788,-86 1953.2212,-86 1953.2212,-122"/>
<text text-anchor="middle" x="1861" y="-99.8" font-family="Times,serif" font-size="14.00" fill="#000000">SearchOrderMenuComponent</text>
</g>
<!-- SearchOrderMenuComponent&#45;&gt;SearchOrderMenuModule -->
<g id="edge4" class="edge">
<title>SearchOrderMenuComponent&#45;&gt;SearchOrderMenuModule</title>
<path fill="none" stroke="#000000" d="M1861,-122.0225C1861,-139.3734 1861,-163 1861,-163 1861,-163 1362.727,-163 1362.727,-163"/>
<polygon fill="#000000" stroke="#000000" points="1362.7271,-159.5001 1352.727,-163 1362.727,-166.5001 1362.7271,-159.5001"/>
</g>
<!-- SearchPendingDevolutionFormComponent -->
<g id="node5" class="node">
<title>SearchPendingDevolutionFormComponent</title>
<polygon fill="#ffffb3" stroke="#000000" points="1750.1343,-122 1491.8657,-122 1491.8657,-86 1750.1343,-86 1750.1343,-122"/>
<text text-anchor="middle" x="1621" y="-99.8" font-family="Times,serif" font-size="14.00" fill="#000000">SearchPendingDevolutionFormComponent</text>
</g>
<!-- SearchPendingDevolutionFormComponent&#45;&gt;SearchOrderMenuModule -->
<g id="edge5" class="edge">
<title>SearchPendingDevolutionFormComponent&#45;&gt;SearchOrderMenuModule</title>
<path fill="none" stroke="#000000" d="M1621,-122.2396C1621,-137.5706 1621,-157 1621,-157 1621,-157 1362.6177,-157 1362.6177,-157"/>
<polygon fill="#000000" stroke="#000000" points="1362.6178,-153.5001 1352.6177,-157 1362.6177,-160.5001 1362.6178,-153.5001"/>
</g>
<!-- SearchOrderMenuComponent  -->
<g id="node8" class="node">
<title>SearchOrderMenuComponent </title>
<polygon fill="#fb8072" stroke="#000000" points="1365.2211,-252 1176.7789,-252 1176.7789,-216 1365.2211,-216 1365.2211,-252"/>
<text text-anchor="middle" x="1271" y="-229.8" font-family="Times,serif" font-size="14.00" fill="#000000">SearchOrderMenuComponent </text>
</g>
<!-- SearchOrderMenuModule&#45;&gt;SearchOrderMenuComponent  -->
<g id="edge7" class="edge">
<title>SearchOrderMenuModule&#45;&gt;SearchOrderMenuComponent </title>
<path fill="none" stroke="#000000" stroke-dasharray="5,2" d="M1271,-187.1061C1271,-187.1061 1271,-205.991 1271,-205.991"/>
<polygon fill="#000000" stroke="#000000" points="1267.5001,-205.9909 1271,-215.991 1274.5001,-205.991 1267.5001,-205.9909"/>
</g>
<!-- MaterialModule -->
<g id="node7" class="node">
<title>MaterialModule</title>
<polygon fill="#8dd3c7" stroke="#000000" points="1468.4706,-122 1465.4706,-126 1444.4706,-126 1441.4706,-122 1361.5294,-122 1361.5294,-86 1468.4706,-86 1468.4706,-122"/>
<text text-anchor="middle" x="1415" y="-99.8" font-family="Times,serif" font-size="14.00" fill="#000000">MaterialModule</text>
</g>
<!-- MaterialModule&#45;&gt;SearchOrderMenuModule -->
<g id="edge6" class="edge">
<title>MaterialModule&#45;&gt;SearchOrderMenuModule</title>
<path fill="none" stroke="#000000" d="M1361.3478,-104C1351.9681,-104 1345.1465,-104 1345.1465,-104 1345.1465,-104 1345.1465,-140.8939 1345.1465,-140.8939"/>
<polygon fill="#000000" stroke="#000000" points="1341.6466,-140.8938 1345.1465,-150.8939 1348.6466,-140.8939 1341.6466,-140.8938"/>
</g>
<!-- BillingService -->
<g id="node9" class="node">
<title>BillingService</title>
<ellipse fill="#fdb462" stroke="#000000" cx="1271" cy="-104" rx="66.6479" ry="18"/>
<text text-anchor="middle" x="1271" y="-99.8" font-family="Times,serif" font-size="14.00" fill="#000000">BillingService</text>
</g>
<!-- BillingService&#45;&gt;SearchOrderMenuModule -->
<g id="edge8" class="edge">
<title>BillingService&#45;&gt;SearchOrderMenuModule</title>
<path fill="none" stroke="#000000" d="M1271,-122.1061C1271,-122.1061 1271,-140.991 1271,-140.991"/>
<polygon fill="#000000" stroke="#000000" points="1267.5001,-140.9909 1271,-150.991 1274.5001,-140.991 1267.5001,-140.9909"/>
</g>
<!-- ComponentsService -->
<g id="node10" class="node">
<title>ComponentsService</title>
<ellipse fill="#fdb462" stroke="#000000" cx="1097" cy="-104" rx="88.6255" ry="18"/>
<text text-anchor="middle" x="1097" y="-99.8" font-family="Times,serif" font-size="14.00" fill="#000000">ComponentsService</text>
</g>
<!-- ComponentsService&#45;&gt;SearchOrderMenuModule -->
<g id="edge9" class="edge">
<title>ComponentsService&#45;&gt;SearchOrderMenuModule</title>
<path fill="none" stroke="#000000" d="M1181.351,-109.6719C1181.351,-123.3445 1181.351,-157 1181.351,-157 1181.351,-157 1182.1466,-157 1182.1466,-157"/>
<polygon fill="#000000" stroke="#000000" points="1179.3068,-160.5001 1189.3068,-157 1179.3067,-153.5001 1179.3068,-160.5001"/>
</g>
<!-- EndpointService -->
<g id="node11" class="node">
<title>EndpointService</title>
<ellipse fill="#fdb462" stroke="#000000" cx="915" cy="-104" rx="75.3021" ry="18"/>
<text text-anchor="middle" x="915" y="-99.8" font-family="Times,serif" font-size="14.00" fill="#000000">EndpointService</text>
</g>
<!-- EndpointService&#45;&gt;SearchOrderMenuModule -->
<g id="edge10" class="edge">
<title>EndpointService&#45;&gt;SearchOrderMenuModule</title>
<path fill="none" stroke="#000000" d="M915,-122.0336C915,-139.0597 915,-162 915,-162 915,-162 1179.3264,-162 1179.3264,-162"/>
<polygon fill="#000000" stroke="#000000" points="1179.3264,-165.5001 1189.3264,-162 1179.3264,-158.5001 1179.3264,-165.5001"/>
</g>
<!-- EventEmitterOrders -->
<g id="node12" class="node">
<title>EventEmitterOrders</title>
<ellipse fill="#fdb462" stroke="#000000" cx="733" cy="-104" rx="88.5986" ry="18"/>
<text text-anchor="middle" x="733" y="-99.8" font-family="Times,serif" font-size="14.00" fill="#000000">EventEmitterOrders</text>
</g>
<!-- EventEmitterOrders&#45;&gt;SearchOrderMenuModule -->
<g id="edge11" class="edge">
<title>EventEmitterOrders&#45;&gt;SearchOrderMenuModule</title>
<path fill="none" stroke="#000000" d="M733,-122.2222C733,-140.8285 733,-167 733,-167 733,-167 1179.2894,-167 1179.2894,-167"/>
<polygon fill="#000000" stroke="#000000" points="1179.2894,-170.5001 1189.2894,-167 1179.2893,-163.5001 1179.2894,-170.5001"/>
</g>
<!-- HttpErrorHandlingService -->
<g id="node13" class="node">
<title>HttpErrorHandlingService</title>
<ellipse fill="#fdb462" stroke="#000000" cx="513" cy="-104" rx="113.4412" ry="18"/>
<text text-anchor="middle" x="513" y="-99.8" font-family="Times,serif" font-size="14.00" fill="#000000">HttpErrorHandlingService</text>
</g>
<!-- HttpErrorHandlingService&#45;&gt;SearchOrderMenuModule -->
<g id="edge12" class="edge">
<title>HttpErrorHandlingService&#45;&gt;SearchOrderMenuModule</title>
<path fill="none" stroke="#000000" d="M513,-122.2228C513,-142.3652 513,-172 513,-172 513,-172 1179.5209,-172 1179.5209,-172"/>
<polygon fill="#000000" stroke="#000000" points="1179.521,-175.5001 1189.5209,-172 1179.5209,-168.5001 1179.521,-175.5001"/>
</g>
<!-- SearchOrderMenuService -->
<g id="node14" class="node">
<title>SearchOrderMenuService</title>
<ellipse fill="#fdb462" stroke="#000000" cx="270" cy="-104" rx="111.1153" ry="18"/>
<text text-anchor="middle" x="270" y="-99.8" font-family="Times,serif" font-size="14.00" fill="#000000">SearchOrderMenuService</text>
</g>
<!-- SearchOrderMenuService&#45;&gt;SearchOrderMenuModule -->
<g id="edge13" class="edge">
<title>SearchOrderMenuService&#45;&gt;SearchOrderMenuModule</title>
<path fill="none" stroke="#000000" d="M270,-122.0449C270,-143.6623 270,-177 270,-177 270,-177 1179.5084,-177 1179.5084,-177"/>
<polygon fill="#000000" stroke="#000000" points="1179.5084,-180.5001 1189.5084,-177 1179.5084,-173.5001 1179.5084,-180.5001"/>
</g>
<!-- UserService -->
<g id="node15" class="node">
<title>UserService</title>
<ellipse fill="#fdb462" stroke="#000000" cx="82" cy="-104" rx="58.4415" ry="18"/>
<text text-anchor="middle" x="82" y="-99.8" font-family="Times,serif" font-size="14.00" fill="#000000">UserService</text>
</g>
<!-- UserService&#45;&gt;SearchOrderMenuModule -->
<g id="edge14" class="edge">
<title>UserService&#45;&gt;SearchOrderMenuModule</title>
<path fill="none" stroke="#000000" d="M82,-122.0908C82,-145.1328 82,-182 82,-182 82,-182 1179.2752,-182 1179.2752,-182"/>
<polygon fill="#000000" stroke="#000000" points="1179.2752,-185.5001 1189.2752,-182 1179.2752,-178.5001 1179.2752,-185.5001"/>
</g>
</g>
</svg>
