<?xml version="1.0" encoding="UTF-8" standalone="no"?>
<!DOCTYPE svg PUBLIC "-//W3C//DTD SVG 1.1//EN"
 "http://www.w3.org/Graphics/SVG/1.1/DTD/svg11.dtd">
<!-- Generated by graphviz version 2.40.1 (20161225.0304)
 -->
<!-- Title: dependencies Pages: 1 -->
<svg width="1530pt" height="284pt"
 viewBox="0.00 0.00 1530.00 284.00" xmlns="http://www.w3.org/2000/svg" xmlns:xlink="http://www.w3.org/1999/xlink">
<g id="graph0" class="graph" transform="scale(1 1) rotate(0) translate(4 280)">
<title>dependencies</title>
<polygon fill="#ffffff" stroke="transparent" points="-4,4 -4,-280 1526,-280 1526,4 -4,4"/>
<text text-anchor="start" x="740.0091" y="-42.4" font-family="sans-serif" font-weight="bold" font-size="14.00" fill="#000000">Legend</text>
<polygon fill="#ffffb3" stroke="transparent" points="527,-10 527,-30 547,-30 547,-10 527,-10"/>
<text text-anchor="start" x="550.629" y="-15.4" font-family="sans-serif" font-size="14.00" fill="#000000"> &#160;Declarations</text>
<polygon fill="#8dd3c7" stroke="transparent" points="640,-10 640,-30 660,-30 660,-10 640,-10"/>
<text text-anchor="start" x="663.7251" y="-15.4" font-family="sans-serif" font-size="14.00" fill="#000000"> &#160;Module</text>
<polygon fill="#80b1d3" stroke="transparent" points="726,-10 726,-30 746,-30 746,-10 726,-10"/>
<text text-anchor="start" x="749.7812" y="-15.4" font-family="sans-serif" font-size="14.00" fill="#000000"> &#160;Bootstrap</text>
<polygon fill="#fdb462" stroke="transparent" points="823,-10 823,-30 843,-30 843,-10 823,-10"/>
<text text-anchor="start" x="846.6732" y="-15.4" font-family="sans-serif" font-size="14.00" fill="#000000"> &#160;Providers</text>
<polygon fill="#fb8072" stroke="transparent" points="919,-10 919,-30 939,-30 939,-10 919,-10"/>
<text text-anchor="start" x="942.7258" y="-15.4" font-family="sans-serif" font-size="14.00" fill="#000000"> &#160;Exports</text>
<g id="clust1" class="cluster">
<title>cluster_SearchOrderMenuModule</title>
<polygon fill="none" stroke="#000000" stroke-dasharray="1,5" points="8,-70 8,-268 1514,-268 1514,-70 8,-70"/>
</g>
<g id="clust2" class="cluster">
<title>cluster_SearchOrderMenuModule_declarations</title>
<polygon fill="none" stroke="#000000" points="384,-78 384,-130 1506,-130 1506,-78 384,-78"/>
</g>
<g id="clust8" class="cluster">
<title>cluster_SearchOrderMenuModule_imports</title>
<polygon fill="none" stroke="#000000" points="262,-78 262,-130 376,-130 376,-78 262,-78"/>
</g>
<g id="clust9" class="cluster">
<title>cluster_SearchOrderMenuModule_exports</title>
<polygon fill="none" stroke="#000000" points="659,-208 659,-260 863,-260 863,-208 659,-208"/>
</g>
<g id="clust11" class="cluster">
<title>cluster_SearchOrderMenuModule_providers</title>
<polygon fill="none" stroke="#000000" points="16,-78 16,-130 254,-130 254,-78 16,-78"/>
</g>
<!-- SearchBillingFormComponent -->
<g id="node1" class="node">
<title>SearchBillingFormComponent</title>
<polygon fill="#ffffb3" stroke="#000000" points="1498.1525,-122 1309.8475,-122 1309.8475,-86 1498.1525,-86 1498.1525,-122"/>
<text text-anchor="middle" x="1404" y="-99.8" font-family="Times,serif" font-size="14.00" fill="#000000">SearchBillingFormComponent</text>
</g>
<!-- SearchOrderMenuModule -->
<g id="node6" class="node">
<title>SearchOrderMenuModule</title>
<polygon fill="#8dd3c7" stroke="#000000" points="842.4384,-187 839.4384,-191 818.4384,-191 815.4384,-187 679.5616,-187 679.5616,-151 842.4384,-151 842.4384,-187"/>
<text text-anchor="middle" x="761" y="-164.8" font-family="Times,serif" font-size="14.00" fill="#000000">SearchOrderMenuModule</text>
</g>
<!-- SearchBillingFormComponent&#45;&gt;SearchOrderMenuModule -->
<g id="edge1" class="edge">
<title>SearchBillingFormComponent&#45;&gt;SearchOrderMenuModule</title>
<path fill="none" stroke="#000000" d="M1404,-122.2921C1404,-144.2057 1404,-178 1404,-178 1404,-178 852.7627,-178 852.7627,-178"/>
<polygon fill="#000000" stroke="#000000" points="852.7627,-174.5001 842.7627,-178 852.7627,-181.5001 852.7627,-174.5001"/>
</g>
<!-- SearchEnviosExitoFormComponent -->
<g id="node2" class="node">
<title>SearchEnviosExitoFormComponent</title>
<polygon fill="#ffffb3" stroke="#000000" points="1291.4748,-122 1072.5252,-122 1072.5252,-86 1291.4748,-86 1291.4748,-122"/>
<text text-anchor="middle" x="1182" y="-99.8" font-family="Times,serif" font-size="14.00" fill="#000000">SearchEnviosExitoFormComponent</text>
</g>
<!-- SearchEnviosExitoFormComponent&#45;&gt;SearchOrderMenuModule -->
<g id="edge2" class="edge">
<title>SearchEnviosExitoFormComponent&#45;&gt;SearchOrderMenuModule</title>
<path fill="none" stroke="#000000" d="M1182,-122.1061C1182,-141.3391 1182,-169 1182,-169 1182,-169 852.6722,-169 852.6722,-169"/>
<polygon fill="#000000" stroke="#000000" points="852.6723,-165.5001 842.6722,-169 852.6722,-172.5001 852.6723,-165.5001"/>
</g>
<!-- SearchOrderFormComponent -->
<g id="node3" class="node">
<title>SearchOrderFormComponent</title>
<polygon fill="#ffffb3" stroke="#000000" points="1054.396,-122 871.604,-122 871.604,-86 1054.396,-86 1054.396,-122"/>
<text text-anchor="middle" x="963" y="-99.8" font-family="Times,serif" font-size="14.00" fill="#000000">SearchOrderFormComponent</text>
</g>
<!-- SearchOrderFormComponent&#45;&gt;SearchOrderMenuModule -->
<g id="edge3" class="edge">
<title>SearchOrderFormComponent&#45;&gt;SearchOrderMenuModule</title>
<path fill="none" stroke="#000000" d="M963,-122.027C963,-138.3976 963,-160 963,-160 963,-160 852.5789,-160 852.5789,-160"/>
<polygon fill="#000000" stroke="#000000" points="852.5789,-156.5001 842.5789,-160 852.5788,-163.5001 852.5789,-156.5001"/>
</g>
<!-- SearchOrderMenuComponent -->
<g id="node4" class="node">
<title>SearchOrderMenuComponent</title>
<polygon fill="#ffffb3" stroke="#000000" points="853.2212,-122 668.7788,-122 668.7788,-86 853.2212,-86 853.2212,-122"/>
<text text-anchor="middle" x="761" y="-99.8" font-family="Times,serif" font-size="14.00" fill="#000000">SearchOrderMenuComponent</text>
</g>
<!-- SearchOrderMenuComponent&#45;&gt;SearchOrderMenuModule -->
<g id="edge4" class="edge">
<title>SearchOrderMenuComponent&#45;&gt;SearchOrderMenuModule</title>
<path fill="none" stroke="#000000" d="M761,-122.1061C761,-122.1061 761,-140.991 761,-140.991"/>
<polygon fill="#000000" stroke="#000000" points="757.5001,-140.9909 761,-150.991 764.5001,-140.991 757.5001,-140.9909"/>
</g>
<!-- SearchPendingDevolutionFormComponent -->
<g id="node5" class="node">
<title>SearchPendingDevolutionFormComponent</title>
<polygon fill="#ffffb3" stroke="#000000" points="650.1343,-122 391.8657,-122 391.8657,-86 650.1343,-86 650.1343,-122"/>
<text text-anchor="middle" x="521" y="-99.8" font-family="Times,serif" font-size="14.00" fill="#000000">SearchPendingDevolutionFormComponent</text>
</g>
<!-- SearchPendingDevolutionFormComponent&#45;&gt;SearchOrderMenuModule -->
<g id="edge5" class="edge">
<title>SearchPendingDevolutionFormComponent&#45;&gt;SearchOrderMenuModule</title>
<path fill="none" stroke="#000000" d="M521,-122.027C521,-138.3976 521,-160 521,-160 521,-160 669.4121,-160 669.4121,-160"/>
<polygon fill="#000000" stroke="#000000" points="669.4121,-163.5001 679.4121,-160 669.412,-156.5001 669.4121,-163.5001"/>
</g>
<!-- SearchOrderMenuComponent  -->
<g id="node8" class="node">
<title>SearchOrderMenuComponent </title>
<polygon fill="#fb8072" stroke="#000000" points="855.2211,-252 666.7789,-252 666.7789,-216 855.2211,-216 855.2211,-252"/>
<text text-anchor="middle" x="761" y="-229.8" font-family="Times,serif" font-size="14.00" fill="#000000">SearchOrderMenuComponent </text>
</g>
<!-- SearchOrderMenuModule&#45;&gt;SearchOrderMenuComponent  -->
<g id="edge7" class="edge">
<title>SearchOrderMenuModule&#45;&gt;SearchOrderMenuComponent </title>
<path fill="none" stroke="#000000" stroke-dasharray="5,2" d="M761,-187.1061C761,-187.1061 761,-205.991 761,-205.991"/>
<polygon fill="#000000" stroke="#000000" points="757.5001,-205.9909 761,-215.991 764.5001,-205.991 757.5001,-205.9909"/>
</g>
<!-- SharedModule -->
<g id="node7" class="node">
<title>SharedModule</title>
<polygon fill="#8dd3c7" stroke="#000000" points="368.4231,-122 365.4231,-126 344.4231,-126 341.4231,-122 269.5769,-122 269.5769,-86 368.4231,-86 368.4231,-122"/>
<text text-anchor="middle" x="319" y="-99.8" font-family="Times,serif" font-size="14.00" fill="#000000">SharedModule</text>
</g>
<!-- SharedModule&#45;&gt;SearchOrderMenuModule -->
<g id="edge6" class="edge">
<title>SharedModule&#45;&gt;SearchOrderMenuModule</title>
<path fill="none" stroke="#000000" d="M319,-122.1061C319,-141.3391 319,-169 319,-169 319,-169 669.4153,-169 669.4153,-169"/>
<polygon fill="#000000" stroke="#000000" points="669.4153,-172.5001 679.4153,-169 669.4153,-165.5001 669.4153,-172.5001"/>
</g>
<!-- SearchOrderMenuService -->
<g id="node9" class="node">
<title>SearchOrderMenuService</title>
<ellipse fill="#fdb462" stroke="#000000" cx="135" cy="-104" rx="111.1153" ry="18"/>
<text text-anchor="middle" x="135" y="-99.8" font-family="Times,serif" font-size="14.00" fill="#000000">SearchOrderMenuService</text>
</g>
<!-- SearchOrderMenuService&#45;&gt;SearchOrderMenuModule -->
<g id="edge8" class="edge">
<title>SearchOrderMenuService&#45;&gt;SearchOrderMenuModule</title>
<path fill="none" stroke="#000000" d="M135,-122.2921C135,-144.2057 135,-178 135,-178 135,-178 669.4826,-178 669.4826,-178"/>
<polygon fill="#000000" stroke="#000000" points="669.4826,-181.5001 679.4826,-178 669.4825,-174.5001 669.4826,-181.5001"/>
</g>
</g>
</svg>
