<?xml version="1.0" encoding="UTF-8" standalone="no"?>
<!DOCTYPE svg PUBLIC "-//W3C//DTD SVG 1.1//EN"
 "http://www.w3.org/Graphics/SVG/1.1/DTD/svg11.dtd">
<!-- Generated by graphviz version 2.40.1 (20161225.0304)
 -->
<!-- Title: dependencies Pages: 1 -->
<svg width="2378pt" height="284pt"
 viewBox="0.00 0.00 2378.00 284.00" xmlns="http://www.w3.org/2000/svg" xmlns:xlink="http://www.w3.org/1999/xlink">
<g id="graph0" class="graph" transform="scale(1 1) rotate(0) translate(4 280)">
<title>dependencies</title>
<polygon fill="#ffffff" stroke="transparent" points="-4,4 -4,-280 2374,-280 2374,4 -4,4"/>
<text text-anchor="start" x="1164.0091" y="-42.4" font-family="sans-serif" font-weight="bold" font-size="14.00" fill="#000000">Legend</text>
<polygon fill="#ffffb3" stroke="transparent" points="951,-10 951,-30 971,-30 971,-10 951,-10"/>
<text text-anchor="start" x="974.629" y="-15.4" font-family="sans-serif" font-size="14.00" fill="#000000"> &#160;Declarations</text>
<polygon fill="#8dd3c7" stroke="transparent" points="1064,-10 1064,-30 1084,-30 1084,-10 1064,-10"/>
<text text-anchor="start" x="1087.7251" y="-15.4" font-family="sans-serif" font-size="14.00" fill="#000000"> &#160;Module</text>
<polygon fill="#80b1d3" stroke="transparent" points="1150,-10 1150,-30 1170,-30 1170,-10 1150,-10"/>
<text text-anchor="start" x="1173.7812" y="-15.4" font-family="sans-serif" font-size="14.00" fill="#000000"> &#160;Bootstrap</text>
<polygon fill="#fdb462" stroke="transparent" points="1247,-10 1247,-30 1267,-30 1267,-10 1247,-10"/>
<text text-anchor="start" x="1270.6732" y="-15.4" font-family="sans-serif" font-size="14.00" fill="#000000"> &#160;Providers</text>
<polygon fill="#fb8072" stroke="transparent" points="1343,-10 1343,-30 1363,-30 1363,-10 1343,-10"/>
<text text-anchor="start" x="1366.7258" y="-15.4" font-family="sans-serif" font-size="14.00" fill="#000000"> &#160;Exports</text>
<g id="clust1" class="cluster">
<title>cluster_InValidationModule</title>
<polygon fill="none" stroke="#000000" stroke-dasharray="1,5" points="8,-70 8,-268 2362,-268 2362,-70 8,-70"/>
</g>
<g id="clust2" class="cluster">
<title>cluster_InValidationModule_declarations</title>
<polygon fill="none" stroke="#000000" points="1795,-78 1795,-130 2354,-130 2354,-78 1795,-78"/>
</g>
<g id="clust6" class="cluster">
<title>cluster_InValidationModule_imports</title>
<polygon fill="none" stroke="#000000" points="1156,-78 1156,-130 1787,-130 1787,-78 1156,-78"/>
</g>
<g id="clust7" class="cluster">
<title>cluster_InValidationModule_exports</title>
<polygon fill="none" stroke="#000000" points="946,-208 946,-260 1516,-260 1516,-208 946,-208"/>
</g>
<g id="clust9" class="cluster">
<title>cluster_InValidationModule_providers</title>
<polygon fill="none" stroke="#000000" points="16,-78 16,-130 1148,-130 1148,-78 16,-78"/>
</g>
<!-- InValidationComponent -->
<g id="node1" class="node">
<title>InValidationComponent</title>
<polygon fill="#ffffb3" stroke="#000000" points="2346.0912,-122 2193.9088,-122 2193.9088,-86 2346.0912,-86 2346.0912,-122"/>
<text text-anchor="middle" x="2270" y="-99.8" font-family="Times,serif" font-size="14.00" fill="#000000">InValidationComponent</text>
</g>
<!-- InValidationModule -->
<g id="node4" class="node">
<title>InValidationModule</title>
<polygon fill="#8dd3c7" stroke="#000000" points="1303.309,-187 1300.309,-191 1279.309,-191 1276.309,-187 1172.691,-187 1172.691,-151 1303.309,-151 1303.309,-187"/>
<text text-anchor="middle" x="1238" y="-164.8" font-family="Times,serif" font-size="14.00" fill="#000000">InValidationModule</text>
</g>
<!-- InValidationComponent&#45;&gt;InValidationModule -->
<g id="edge1" class="edge">
<title>InValidationComponent&#45;&gt;InValidationModule</title>
<path fill="none" stroke="#000000" d="M2270,-122.2921C2270,-144.2057 2270,-178 2270,-178 2270,-178 1313.3391,-178 1313.3391,-178"/>
<polygon fill="#000000" stroke="#000000" points="1313.3392,-174.5001 1303.3391,-178 1313.3391,-181.5001 1313.3392,-174.5001"/>
</g>
<!-- InValidationModalComponent -->
<g id="node2" class="node">
<title>InValidationModalComponent</title>
<polygon fill="#ffffb3" stroke="#000000" points="2176.1413,-122 1987.8587,-122 1987.8587,-86 2176.1413,-86 2176.1413,-122"/>
<text text-anchor="middle" x="2082" y="-99.8" font-family="Times,serif" font-size="14.00" fill="#000000">InValidationModalComponent</text>
</g>
<!-- InValidationModalComponent&#45;&gt;InValidationModule -->
<g id="edge2" class="edge">
<title>InValidationModalComponent&#45;&gt;InValidationModule</title>
<path fill="none" stroke="#000000" d="M2082,-122.0267C2082,-142.7672 2082,-174 2082,-174 2082,-174 1313.175,-174 1313.175,-174"/>
<polygon fill="#000000" stroke="#000000" points="1313.175,-170.5001 1303.175,-174 1313.175,-177.5001 1313.175,-170.5001"/>
</g>
<!-- ViewCommentComponent -->
<g id="node3" class="node">
<title>ViewCommentComponent</title>
<polygon fill="#ffffb3" stroke="#000000" points="1969.3738,-122 1802.6262,-122 1802.6262,-86 1969.3738,-86 1969.3738,-122"/>
<text text-anchor="middle" x="1886" y="-99.8" font-family="Times,serif" font-size="14.00" fill="#000000">ViewCommentComponent</text>
</g>
<!-- ViewCommentComponent&#45;&gt;InValidationModule -->
<g id="edge3" class="edge">
<title>ViewCommentComponent&#45;&gt;InValidationModule</title>
<path fill="none" stroke="#000000" d="M1886,-122.1061C1886,-141.3391 1886,-169 1886,-169 1886,-169 1313.3994,-169 1313.3994,-169"/>
<polygon fill="#000000" stroke="#000000" points="1313.3994,-165.5001 1303.3994,-169 1313.3994,-172.5001 1313.3994,-165.5001"/>
</g>
<!-- InValidationComponent  -->
<g id="node9" class="node">
<title>InValidationComponent </title>
<polygon fill="#fb8072" stroke="#000000" points="1507.5917,-252 1352.4083,-252 1352.4083,-216 1507.5917,-216 1507.5917,-252"/>
<text text-anchor="middle" x="1430" y="-229.8" font-family="Times,serif" font-size="14.00" fill="#000000">InValidationComponent </text>
</g>
<!-- InValidationModule&#45;&gt;InValidationComponent  -->
<g id="edge8" class="edge">
<title>InValidationModule&#45;&gt;InValidationComponent </title>
<path fill="none" stroke="#000000" stroke-dasharray="5,2" d="M1303.5044,-183C1350.7265,-183 1406.1801,-183 1406.1801,-183 1406.1801,-183 1406.1801,-205.8757 1406.1801,-205.8757"/>
<polygon fill="#000000" stroke="#000000" points="1402.6801,-205.8757 1406.1801,-215.8757 1409.6801,-205.8757 1402.6801,-205.8757"/>
</g>
<!-- InValidationModalComponent  -->
<g id="node10" class="node">
<title>InValidationModalComponent </title>
<polygon fill="#fb8072" stroke="#000000" points="1334.1411,-252 1141.8589,-252 1141.8589,-216 1334.1411,-216 1334.1411,-252"/>
<text text-anchor="middle" x="1238" y="-229.8" font-family="Times,serif" font-size="14.00" fill="#000000">InValidationModalComponent </text>
</g>
<!-- InValidationModule&#45;&gt;InValidationModalComponent  -->
<g id="edge9" class="edge">
<title>InValidationModule&#45;&gt;InValidationModalComponent </title>
<path fill="none" stroke="#000000" stroke-dasharray="5,2" d="M1238,-187.1061C1238,-187.1061 1238,-205.991 1238,-205.991"/>
<polygon fill="#000000" stroke="#000000" points="1234.5001,-205.9909 1238,-215.991 1241.5001,-205.991 1234.5001,-205.9909"/>
</g>
<!-- ViewCommentComponent  -->
<g id="node11" class="node">
<title>ViewCommentComponent </title>
<polygon fill="#fb8072" stroke="#000000" points="1124.3742,-252 953.6258,-252 953.6258,-216 1124.3742,-216 1124.3742,-252"/>
<text text-anchor="middle" x="1039" y="-229.8" font-family="Times,serif" font-size="14.00" fill="#000000">ViewCommentComponent </text>
</g>
<!-- InValidationModule&#45;&gt;ViewCommentComponent  -->
<g id="edge10" class="edge">
<title>InValidationModule&#45;&gt;ViewCommentComponent </title>
<path fill="none" stroke="#000000" stroke-dasharray="5,2" d="M1172.5882,-183C1115.993,-183 1043.1872,-183 1043.1872,-183 1043.1872,-183 1043.1872,-205.8757 1043.1872,-205.8757"/>
<polygon fill="#000000" stroke="#000000" points="1039.6873,-205.8757 1043.1872,-215.8757 1046.6873,-205.8757 1039.6873,-205.8757"/>
</g>
<!-- InValidationRoutingModule -->
<g id="node5" class="node">
<title>InValidationRoutingModule</title>
<polygon fill="#8dd3c7" stroke="#000000" points="1778.9269,-122 1775.9269,-126 1754.9269,-126 1751.9269,-122 1603.0731,-122 1603.0731,-86 1778.9269,-86 1778.9269,-122"/>
<text text-anchor="middle" x="1691" y="-99.8" font-family="Times,serif" font-size="14.00" fill="#000000">InValidationRoutingModule</text>
</g>
<!-- InValidationRoutingModule&#45;&gt;InValidationModule -->
<g id="edge4" class="edge">
<title>InValidationRoutingModule&#45;&gt;InValidationModule</title>
<path fill="none" stroke="#000000" d="M1691,-122.302C1691,-140.2699 1691,-165 1691,-165 1691,-165 1313.3863,-165 1313.3863,-165"/>
<polygon fill="#000000" stroke="#000000" points="1313.3863,-161.5001 1303.3863,-165 1313.3863,-168.5001 1313.3863,-161.5001"/>
</g>
<!-- MaterialModule -->
<g id="node6" class="node">
<title>MaterialModule</title>
<polygon fill="#8dd3c7" stroke="#000000" points="1585.4706,-122 1582.4706,-126 1561.4706,-126 1558.4706,-122 1478.5294,-122 1478.5294,-86 1585.4706,-86 1585.4706,-122"/>
<text text-anchor="middle" x="1532" y="-99.8" font-family="Times,serif" font-size="14.00" fill="#000000">MaterialModule</text>
</g>
<!-- MaterialModule&#45;&gt;InValidationModule -->
<g id="edge5" class="edge">
<title>MaterialModule&#45;&gt;InValidationModule</title>
<path fill="none" stroke="#000000" d="M1493.1552,-122.027C1493.1552,-138.3976 1493.1552,-160 1493.1552,-160 1493.1552,-160 1313.3775,-160 1313.3775,-160"/>
<polygon fill="#000000" stroke="#000000" points="1313.3775,-156.5001 1303.3775,-160 1313.3774,-163.5001 1313.3775,-156.5001"/>
</g>
<!-- ToolbarLinkModule -->
<g id="node7" class="node">
<title>ToolbarLinkModule</title>
<polygon fill="#8dd3c7" stroke="#000000" points="1460.3118,-122 1457.3118,-126 1436.3118,-126 1433.3118,-122 1329.6882,-122 1329.6882,-86 1460.3118,-86 1460.3118,-122"/>
<text text-anchor="middle" x="1395" y="-99.8" font-family="Times,serif" font-size="14.00" fill="#000000">ToolbarLinkModule</text>
</g>
<!-- ToolbarLinkModule&#45;&gt;InValidationModule -->
<g id="edge6" class="edge">
<title>ToolbarLinkModule&#45;&gt;InValidationModule</title>
<path fill="none" stroke="#000000" d="M1343.1375,-122.1871C1343.1375,-137.1824 1343.1375,-156 1343.1375,-156 1343.1375,-156 1313.3895,-156 1313.3895,-156"/>
<polygon fill="#000000" stroke="#000000" points="1313.3895,-152.5001 1303.3895,-156 1313.3895,-159.5001 1313.3895,-152.5001"/>
</g>
<!-- ToolbarOptionsModule -->
<g id="node8" class="node">
<title>ToolbarOptionsModule</title>
<polygon fill="#8dd3c7" stroke="#000000" points="1312.2007,-122 1309.2007,-126 1288.2007,-126 1285.2007,-122 1163.7993,-122 1163.7993,-86 1312.2007,-86 1312.2007,-122"/>
<text text-anchor="middle" x="1238" y="-99.8" font-family="Times,serif" font-size="14.00" fill="#000000">ToolbarOptionsModule</text>
</g>
<!-- ToolbarOptionsModule&#45;&gt;InValidationModule -->
<g id="edge7" class="edge">
<title>ToolbarOptionsModule&#45;&gt;InValidationModule</title>
<path fill="none" stroke="#000000" d="M1238,-122.1061C1238,-122.1061 1238,-140.991 1238,-140.991"/>
<polygon fill="#000000" stroke="#000000" points="1234.5001,-140.9909 1238,-150.991 1241.5001,-140.991 1234.5001,-140.9909"/>
</g>
<!-- ComponentsService -->
<g id="node12" class="node">
<title>ComponentsService</title>
<ellipse fill="#fdb462" stroke="#000000" cx="1051" cy="-104" rx="88.6255" ry="18"/>
<text text-anchor="middle" x="1051" y="-99.8" font-family="Times,serif" font-size="14.00" fill="#000000">ComponentsService</text>
</g>
<!-- ComponentsService&#45;&gt;InValidationModule -->
<g id="edge11" class="edge">
<title>ComponentsService&#45;&gt;InValidationModule</title>
<path fill="none" stroke="#000000" d="M1131.9997,-111.6728C1131.9997,-126.1375 1131.9997,-156 1131.9997,-156 1131.9997,-156 1162.6791,-156 1162.6791,-156"/>
<polygon fill="#000000" stroke="#000000" points="1162.6791,-159.5001 1172.6791,-156 1162.679,-152.5001 1162.6791,-159.5001"/>
</g>
<!-- EndpointService -->
<g id="node13" class="node">
<title>EndpointService</title>
<ellipse fill="#fdb462" stroke="#000000" cx="869" cy="-104" rx="75.3021" ry="18"/>
<text text-anchor="middle" x="869" y="-99.8" font-family="Times,serif" font-size="14.00" fill="#000000">EndpointService</text>
</g>
<!-- EndpointService&#45;&gt;InValidationModule -->
<g id="edge12" class="edge">
<title>EndpointService&#45;&gt;InValidationModule</title>
<path fill="none" stroke="#000000" d="M869,-122.027C869,-138.3976 869,-160 869,-160 869,-160 1162.4554,-160 1162.4554,-160"/>
<polygon fill="#000000" stroke="#000000" points="1162.4554,-163.5001 1172.4554,-160 1162.4554,-156.5001 1162.4554,-163.5001"/>
</g>
<!-- EventEmitterOrders -->
<g id="node14" class="node">
<title>EventEmitterOrders</title>
<ellipse fill="#fdb462" stroke="#000000" cx="687" cy="-104" rx="88.5986" ry="18"/>
<text text-anchor="middle" x="687" y="-99.8" font-family="Times,serif" font-size="14.00" fill="#000000">EventEmitterOrders</text>
</g>
<!-- EventEmitterOrders&#45;&gt;InValidationModule -->
<g id="edge13" class="edge">
<title>EventEmitterOrders&#45;&gt;InValidationModule</title>
<path fill="none" stroke="#000000" d="M687,-122.302C687,-140.2699 687,-165 687,-165 687,-165 1162.6293,-165 1162.6293,-165"/>
<polygon fill="#000000" stroke="#000000" points="1162.6294,-168.5001 1172.6293,-165 1162.6293,-161.5001 1162.6294,-168.5001"/>
</g>
<!-- HttpErrorHandlingService -->
<g id="node15" class="node">
<title>HttpErrorHandlingService</title>
<ellipse fill="#fdb462" stroke="#000000" cx="467" cy="-104" rx="113.4412" ry="18"/>
<text text-anchor="middle" x="467" y="-99.8" font-family="Times,serif" font-size="14.00" fill="#000000">HttpErrorHandlingService</text>
</g>
<!-- HttpErrorHandlingService&#45;&gt;InValidationModule -->
<g id="edge14" class="edge">
<title>HttpErrorHandlingService&#45;&gt;InValidationModule</title>
<path fill="none" stroke="#000000" d="M467,-122.1061C467,-141.3391 467,-169 467,-169 467,-169 1162.5976,-169 1162.5976,-169"/>
<polygon fill="#000000" stroke="#000000" points="1162.5976,-172.5001 1172.5976,-169 1162.5975,-165.5001 1162.5976,-172.5001"/>
</g>
<!-- InValidationService -->
<g id="node16" class="node">
<title>InValidationService</title>
<ellipse fill="#fdb462" stroke="#000000" cx="247" cy="-104" rx="88.6005" ry="18"/>
<text text-anchor="middle" x="247" y="-99.8" font-family="Times,serif" font-size="14.00" fill="#000000">InValidationService</text>
</g>
<!-- InValidationService&#45;&gt;InValidationModule -->
<g id="edge15" class="edge">
<title>InValidationService&#45;&gt;InValidationModule</title>
<path fill="none" stroke="#000000" d="M247,-122.0267C247,-142.7672 247,-174 247,-174 247,-174 1162.5945,-174 1162.5945,-174"/>
<polygon fill="#000000" stroke="#000000" points="1162.5945,-177.5001 1172.5945,-174 1162.5944,-170.5001 1162.5945,-177.5001"/>
</g>
<!-- UserService -->
<g id="node17" class="node">
<title>UserService</title>
<ellipse fill="#fdb462" stroke="#000000" cx="82" cy="-104" rx="58.4415" ry="18"/>
<text text-anchor="middle" x="82" y="-99.8" font-family="Times,serif" font-size="14.00" fill="#000000">UserService</text>
</g>
<!-- UserService&#45;&gt;InValidationModule -->
<g id="edge16" class="edge">
<title>UserService&#45;&gt;InValidationModule</title>
<path fill="none" stroke="#000000" d="M82,-122.2921C82,-144.2057 82,-178 82,-178 82,-178 1162.5363,-178 1162.5363,-178"/>
<polygon fill="#000000" stroke="#000000" points="1162.5363,-181.5001 1172.5363,-178 1162.5362,-174.5001 1162.5363,-181.5001"/>
</g>
</g>
</svg>
