<?xml version="1.0" encoding="UTF-8" standalone="no"?>
<!DOCTYPE svg PUBLIC "-//W3C//DTD SVG 1.1//EN"
 "http://www.w3.org/Graphics/SVG/1.1/DTD/svg11.dtd">
<!-- Generated by graphviz version 2.40.1 (20161225.0304)
 -->
<!-- Title: dependencies Pages: 1 -->
<svg width="915pt" height="284pt"
 viewBox="0.00 0.00 915.00 284.00" xmlns="http://www.w3.org/2000/svg" xmlns:xlink="http://www.w3.org/1999/xlink">
<g id="graph0" class="graph" transform="scale(1 1) rotate(0) translate(4 280)">
<title>dependencies</title>
<polygon fill="#ffffff" stroke="transparent" points="-4,4 -4,-280 911,-280 911,4 -4,4"/>
<text text-anchor="start" x="432.5091" y="-42.4" font-family="sans-serif" font-weight="bold" font-size="14.00" fill="#000000">Legend</text>
<polygon fill="#ffffb3" stroke="transparent" points="219.5,-10 219.5,-30 239.5,-30 239.5,-10 219.5,-10"/>
<text text-anchor="start" x="243.129" y="-15.4" font-family="sans-serif" font-size="14.00" fill="#000000"> &#160;Declarations</text>
<polygon fill="#8dd3c7" stroke="transparent" points="332.5,-10 332.5,-30 352.5,-30 352.5,-10 332.5,-10"/>
<text text-anchor="start" x="356.2251" y="-15.4" font-family="sans-serif" font-size="14.00" fill="#000000"> &#160;Module</text>
<polygon fill="#80b1d3" stroke="transparent" points="418.5,-10 418.5,-30 438.5,-30 438.5,-10 418.5,-10"/>
<text text-anchor="start" x="442.2812" y="-15.4" font-family="sans-serif" font-size="14.00" fill="#000000"> &#160;Bootstrap</text>
<polygon fill="#fdb462" stroke="transparent" points="515.5,-10 515.5,-30 535.5,-30 535.5,-10 515.5,-10"/>
<text text-anchor="start" x="539.1732" y="-15.4" font-family="sans-serif" font-size="14.00" fill="#000000"> &#160;Providers</text>
<polygon fill="#fb8072" stroke="transparent" points="611.5,-10 611.5,-30 631.5,-30 631.5,-10 611.5,-10"/>
<text text-anchor="start" x="635.2258" y="-15.4" font-family="sans-serif" font-size="14.00" fill="#000000"> &#160;Exports</text>
<g id="clust1" class="cluster">
<title>cluster_InValidationModule</title>
<polygon fill="none" stroke="#000000" stroke-dasharray="1,5" points="8,-70 8,-268 899,-268 899,-70 8,-70"/>
</g>
<g id="clust2" class="cluster">
<title>cluster_InValidationModule_declarations</title>
<polygon fill="none" stroke="#000000" points="332,-78 332,-130 891,-130 891,-78 332,-78"/>
</g>
<g id="clust6" class="cluster">
<title>cluster_InValidationModule_imports</title>
<polygon fill="none" stroke="#000000" points="16,-78 16,-130 324,-130 324,-78 16,-78"/>
</g>
<g id="clust7" class="cluster">
<title>cluster_InValidationModule_exports</title>
<polygon fill="none" stroke="#000000" points="131,-208 131,-260 701,-260 701,-208 131,-208"/>
</g>
<!-- InValidationComponent -->
<g id="node1" class="node">
<title>InValidationComponent</title>
<polygon fill="#ffffb3" stroke="#000000" points="883.0912,-122 730.9088,-122 730.9088,-86 883.0912,-86 883.0912,-122"/>
<text text-anchor="middle" x="807" y="-99.8" font-family="Times,serif" font-size="14.00" fill="#000000">InValidationComponent</text>
</g>
<!-- InValidationModule -->
<g id="node4" class="node">
<title>InValidationModule</title>
<polygon fill="#8dd3c7" stroke="#000000" points="488.309,-187 485.309,-191 464.309,-191 461.309,-187 357.691,-187 357.691,-151 488.309,-151 488.309,-187"/>
<text text-anchor="middle" x="423" y="-164.8" font-family="Times,serif" font-size="14.00" fill="#000000">InValidationModule</text>
</g>
<!-- InValidationComponent&#45;&gt;InValidationModule -->
<g id="edge1" class="edge">
<title>InValidationComponent&#45;&gt;InValidationModule</title>
<path fill="none" stroke="#000000" d="M807,-122.1061C807,-141.3391 807,-169 807,-169 807,-169 498.5756,-169 498.5756,-169"/>
<polygon fill="#000000" stroke="#000000" points="498.5757,-165.5001 488.5756,-169 498.5756,-172.5001 498.5757,-165.5001"/>
</g>
<!-- InValidationModalComponent -->
<g id="node2" class="node">
<title>InValidationModalComponent</title>
<polygon fill="#ffffb3" stroke="#000000" points="713.1413,-122 524.8587,-122 524.8587,-86 713.1413,-86 713.1413,-122"/>
<text text-anchor="middle" x="619" y="-99.8" font-family="Times,serif" font-size="14.00" fill="#000000">InValidationModalComponent</text>
</g>
<!-- InValidationModalComponent&#45;&gt;InValidationModule -->
<g id="edge2" class="edge">
<title>InValidationModalComponent&#45;&gt;InValidationModule</title>
<path fill="none" stroke="#000000" d="M530.942,-122.027C530.942,-138.3976 530.942,-160 530.942,-160 530.942,-160 498.2804,-160 498.2804,-160"/>
<polygon fill="#000000" stroke="#000000" points="498.2805,-156.5001 488.2804,-160 498.2804,-163.5001 498.2805,-156.5001"/>
</g>
<!-- ViewCommentComponent -->
<g id="node3" class="node">
<title>ViewCommentComponent</title>
<polygon fill="#ffffb3" stroke="#000000" points="506.3738,-122 339.6262,-122 339.6262,-86 506.3738,-86 506.3738,-122"/>
<text text-anchor="middle" x="423" y="-99.8" font-family="Times,serif" font-size="14.00" fill="#000000">ViewCommentComponent</text>
</g>
<!-- ViewCommentComponent&#45;&gt;InValidationModule -->
<g id="edge3" class="edge">
<title>ViewCommentComponent&#45;&gt;InValidationModule</title>
<path fill="none" stroke="#000000" d="M423,-122.1061C423,-122.1061 423,-140.991 423,-140.991"/>
<polygon fill="#000000" stroke="#000000" points="419.5001,-140.9909 423,-150.991 426.5001,-140.991 419.5001,-140.9909"/>
</g>
<!-- InValidationComponent  -->
<g id="node7" class="node">
<title>InValidationComponent </title>
<polygon fill="#fb8072" stroke="#000000" points="692.5917,-252 537.4083,-252 537.4083,-216 692.5917,-216 692.5917,-252"/>
<text text-anchor="middle" x="615" y="-229.8" font-family="Times,serif" font-size="14.00" fill="#000000">InValidationComponent </text>
</g>
<!-- InValidationModule&#45;&gt;InValidationComponent  -->
<g id="edge6" class="edge">
<title>InValidationModule&#45;&gt;InValidationComponent </title>
<path fill="none" stroke="#000000" stroke-dasharray="5,2" d="M488.2704,-178C543.9315,-178 615,-178 615,-178 615,-178 615,-205.973 615,-205.973"/>
<polygon fill="#000000" stroke="#000000" points="611.5001,-205.973 615,-215.973 618.5001,-205.973 611.5001,-205.973"/>
</g>
<!-- InValidationModalComponent  -->
<g id="node8" class="node">
<title>InValidationModalComponent </title>
<polygon fill="#fb8072" stroke="#000000" points="519.1411,-252 326.8589,-252 326.8589,-216 519.1411,-216 519.1411,-252"/>
<text text-anchor="middle" x="423" y="-229.8" font-family="Times,serif" font-size="14.00" fill="#000000">InValidationModalComponent </text>
</g>
<!-- InValidationModule&#45;&gt;InValidationModalComponent  -->
<g id="edge7" class="edge">
<title>InValidationModule&#45;&gt;InValidationModalComponent </title>
<path fill="none" stroke="#000000" stroke-dasharray="5,2" d="M423,-187.1061C423,-187.1061 423,-205.991 423,-205.991"/>
<polygon fill="#000000" stroke="#000000" points="419.5001,-205.9909 423,-215.991 426.5001,-205.991 419.5001,-205.9909"/>
</g>
<!-- ViewCommentComponent  -->
<g id="node9" class="node">
<title>ViewCommentComponent </title>
<polygon fill="#fb8072" stroke="#000000" points="309.3742,-252 138.6258,-252 138.6258,-216 309.3742,-216 309.3742,-252"/>
<text text-anchor="middle" x="224" y="-229.8" font-family="Times,serif" font-size="14.00" fill="#000000">ViewCommentComponent </text>
</g>
<!-- InValidationModule&#45;&gt;ViewCommentComponent  -->
<g id="edge8" class="edge">
<title>InValidationModule&#45;&gt;ViewCommentComponent </title>
<path fill="none" stroke="#000000" stroke-dasharray="5,2" d="M357.8157,-178C290.9287,-178 196.5868,-178 196.5868,-178 196.5868,-178 196.5868,-205.973 196.5868,-205.973"/>
<polygon fill="#000000" stroke="#000000" points="193.0869,-205.973 196.5868,-215.973 200.0869,-205.973 193.0869,-205.973"/>
</g>
<!-- InValidationRoutingModule -->
<g id="node5" class="node">
<title>InValidationRoutingModule</title>
<polygon fill="#8dd3c7" stroke="#000000" points="315.9269,-122 312.9269,-126 291.9269,-126 288.9269,-122 140.0731,-122 140.0731,-86 315.9269,-86 315.9269,-122"/>
<text text-anchor="middle" x="228" y="-99.8" font-family="Times,serif" font-size="14.00" fill="#000000">InValidationRoutingModule</text>
</g>
<!-- InValidationRoutingModule&#45;&gt;InValidationModule -->
<g id="edge4" class="edge">
<title>InValidationRoutingModule&#45;&gt;InValidationModule</title>
<path fill="none" stroke="#000000" d="M252.8869,-122.027C252.8869,-138.3976 252.8869,-160 252.8869,-160 252.8869,-160 347.7163,-160 347.7163,-160"/>
<polygon fill="#000000" stroke="#000000" points="347.7164,-163.5001 357.7163,-160 347.7163,-156.5001 347.7164,-163.5001"/>
</g>
<!-- SharedModule -->
<g id="node6" class="node">
<title>SharedModule</title>
<polygon fill="#8dd3c7" stroke="#000000" points="122.4231,-122 119.4231,-126 98.4231,-126 95.4231,-122 23.5769,-122 23.5769,-86 122.4231,-86 122.4231,-122"/>
<text text-anchor="middle" x="73" y="-99.8" font-family="Times,serif" font-size="14.00" fill="#000000">SharedModule</text>
</g>
<!-- SharedModule&#45;&gt;InValidationModule -->
<g id="edge5" class="edge">
<title>SharedModule&#45;&gt;InValidationModule</title>
<path fill="none" stroke="#000000" d="M73,-122.1061C73,-141.3391 73,-169 73,-169 73,-169 347.5783,-169 347.5783,-169"/>
<polygon fill="#000000" stroke="#000000" points="347.5783,-172.5001 357.5783,-169 347.5782,-165.5001 347.5783,-172.5001"/>
</g>
</g>
</svg>
