<?xml version="1.0" encoding="UTF-8" standalone="no"?>
<!DOCTYPE svg PUBLIC "-//W3C//DTD SVG 1.1//EN"
 "http://www.w3.org/Graphics/SVG/1.1/DTD/svg11.dtd">
<!-- Generated by graphviz version 2.40.1 (20161225.0304)
 -->
<!-- Title: dependencies Pages: 1 -->
<svg width="782pt" height="284pt"
 viewBox="0.00 0.00 782.00 284.00" xmlns="http://www.w3.org/2000/svg" xmlns:xlink="http://www.w3.org/1999/xlink">
<g id="graph0" class="graph" transform="scale(1 1) rotate(0) translate(4 280)">
<title>dependencies</title>
<polygon fill="#ffffff" stroke="transparent" points="-4,4 -4,-280 778,-280 778,4 -4,4"/>
<text text-anchor="start" x="366.0091" y="-42.4" font-family="sans-serif" font-weight="bold" font-size="14.00" fill="#000000">Legend</text>
<polygon fill="#ffffb3" stroke="transparent" points="153,-10 153,-30 173,-30 173,-10 153,-10"/>
<text text-anchor="start" x="176.629" y="-15.4" font-family="sans-serif" font-size="14.00" fill="#000000"> &#160;Declarations</text>
<polygon fill="#8dd3c7" stroke="transparent" points="266,-10 266,-30 286,-30 286,-10 266,-10"/>
<text text-anchor="start" x="289.7251" y="-15.4" font-family="sans-serif" font-size="14.00" fill="#000000"> &#160;Module</text>
<polygon fill="#80b1d3" stroke="transparent" points="352,-10 352,-30 372,-30 372,-10 352,-10"/>
<text text-anchor="start" x="375.7812" y="-15.4" font-family="sans-serif" font-size="14.00" fill="#000000"> &#160;Bootstrap</text>
<polygon fill="#fdb462" stroke="transparent" points="449,-10 449,-30 469,-30 469,-10 449,-10"/>
<text text-anchor="start" x="472.6732" y="-15.4" font-family="sans-serif" font-size="14.00" fill="#000000"> &#160;Providers</text>
<polygon fill="#fb8072" stroke="transparent" points="545,-10 545,-30 565,-30 565,-10 545,-10"/>
<text text-anchor="start" x="568.7258" y="-15.4" font-family="sans-serif" font-size="14.00" fill="#000000"> &#160;Exports</text>
<g id="clust1" class="cluster">
<title>cluster_DetailModule</title>
<polygon fill="none" stroke="#000000" stroke-dasharray="1,5" points="8,-70 8,-268 766,-268 766,-70 8,-70"/>
</g>
<g id="clust2" class="cluster">
<title>cluster_DetailModule_declarations</title>
<polygon fill="none" stroke="#000000" points="626,-78 626,-130 758,-130 758,-78 626,-78"/>
</g>
<g id="clust4" class="cluster">
<title>cluster_DetailModule_imports</title>
<polygon fill="none" stroke="#000000" points="347,-78 347,-130 618,-130 618,-78 347,-78"/>
</g>
<g id="clust5" class="cluster">
<title>cluster_DetailModule_exports</title>
<polygon fill="none" stroke="#000000" points="336,-208 336,-260 472,-260 472,-208 336,-208"/>
</g>
<g id="clust7" class="cluster">
<title>cluster_DetailModule_providers</title>
<polygon fill="none" stroke="#000000" points="16,-78 16,-130 339,-130 339,-78 16,-78"/>
</g>
<!-- DetailComponent -->
<g id="node1" class="node">
<title>DetailComponent</title>
<polygon fill="#ffffb3" stroke="#000000" points="749.5409,-122 634.4591,-122 634.4591,-86 749.5409,-86 749.5409,-122"/>
<text text-anchor="middle" x="692" y="-99.8" font-family="Times,serif" font-size="14.00" fill="#000000">DetailComponent</text>
</g>
<!-- DetailModule -->
<g id="node2" class="node">
<title>DetailModule</title>
<polygon fill="#8dd3c7" stroke="#000000" points="450.7577,-187 447.7577,-191 426.7577,-191 423.7577,-187 357.2423,-187 357.2423,-151 450.7577,-151 450.7577,-187"/>
<text text-anchor="middle" x="404" y="-164.8" font-family="Times,serif" font-size="14.00" fill="#000000">DetailModule</text>
</g>
<!-- DetailComponent&#45;&gt;DetailModule -->
<g id="edge1" class="edge">
<title>DetailComponent&#45;&gt;DetailModule</title>
<path fill="none" stroke="#000000" d="M692,-122.2843C692,-143.3211 692,-175 692,-175 692,-175 460.9132,-175 460.9132,-175"/>
<polygon fill="#000000" stroke="#000000" points="460.9132,-171.5001 450.9132,-175 460.9131,-178.5001 460.9132,-171.5001"/>
</g>
<!-- DetailComponent  -->
<g id="node5" class="node">
<title>DetailComponent </title>
<polygon fill="#fb8072" stroke="#000000" points="463.54,-252 344.46,-252 344.46,-216 463.54,-216 463.54,-252"/>
<text text-anchor="middle" x="404" y="-229.8" font-family="Times,serif" font-size="14.00" fill="#000000">DetailComponent </text>
</g>
<!-- DetailModule&#45;&gt;DetailComponent  -->
<g id="edge4" class="edge">
<title>DetailModule&#45;&gt;DetailComponent </title>
<path fill="none" stroke="#000000" stroke-dasharray="5,2" d="M404,-187.1061C404,-187.1061 404,-205.991 404,-205.991"/>
<polygon fill="#000000" stroke="#000000" points="400.5001,-205.9909 404,-215.991 407.5001,-205.991 400.5001,-205.9909"/>
</g>
<!-- DetailRoutingModule -->
<g id="node3" class="node">
<title>DetailRoutingModule</title>
<polygon fill="#8dd3c7" stroke="#000000" points="610.3753,-122 607.3753,-126 586.3753,-126 583.3753,-122 471.6247,-122 471.6247,-86 610.3753,-86 610.3753,-122"/>
<text text-anchor="middle" x="541" y="-99.8" font-family="Times,serif" font-size="14.00" fill="#000000">DetailRoutingModule</text>
</g>
<!-- DetailRoutingModule&#45;&gt;DetailModule -->
<g id="edge2" class="edge">
<title>DetailRoutingModule&#45;&gt;DetailModule</title>
<path fill="none" stroke="#000000" d="M541,-122.0225C541,-139.3734 541,-163 541,-163 541,-163 460.7645,-163 460.7645,-163"/>
<polygon fill="#000000" stroke="#000000" points="460.7645,-159.5001 450.7645,-163 460.7644,-166.5001 460.7645,-159.5001"/>
</g>
<!-- SharedModule -->
<g id="node4" class="node">
<title>SharedModule</title>
<polygon fill="#8dd3c7" stroke="#000000" points="453.4231,-122 450.4231,-126 429.4231,-126 426.4231,-122 354.5769,-122 354.5769,-86 453.4231,-86 453.4231,-122"/>
<text text-anchor="middle" x="404" y="-99.8" font-family="Times,serif" font-size="14.00" fill="#000000">SharedModule</text>
</g>
<!-- SharedModule&#45;&gt;DetailModule -->
<g id="edge3" class="edge">
<title>SharedModule&#45;&gt;DetailModule</title>
<path fill="none" stroke="#000000" d="M404,-122.1061C404,-122.1061 404,-140.991 404,-140.991"/>
<polygon fill="#000000" stroke="#000000" points="400.5001,-140.9909 404,-150.991 407.5001,-140.991 400.5001,-140.9909"/>
</g>
<!-- DetailService -->
<g id="node6" class="node">
<title>DetailService</title>
<ellipse fill="#fdb462" stroke="#000000" cx="267" cy="-104" rx="63.6755" ry="18"/>
<text text-anchor="middle" x="267" y="-99.8" font-family="Times,serif" font-size="14.00" fill="#000000">DetailService</text>
</g>
<!-- DetailService&#45;&gt;DetailModule -->
<g id="edge5" class="edge">
<title>DetailService&#45;&gt;DetailModule</title>
<path fill="none" stroke="#000000" d="M267,-122.0225C267,-139.3734 267,-163 267,-163 267,-163 347.2355,-163 347.2355,-163"/>
<polygon fill="#000000" stroke="#000000" points="347.2356,-166.5001 357.2355,-163 347.2355,-159.5001 347.2356,-166.5001"/>
</g>
<!-- ShipmentsService -->
<g id="node7" class="node">
<title>ShipmentsService</title>
<ellipse fill="#fdb462" stroke="#000000" cx="105" cy="-104" rx="80.5354" ry="18"/>
<text text-anchor="middle" x="105" y="-99.8" font-family="Times,serif" font-size="14.00" fill="#000000">ShipmentsService</text>
</g>
<!-- ShipmentsService&#45;&gt;DetailModule -->
<g id="edge6" class="edge">
<title>ShipmentsService&#45;&gt;DetailModule</title>
<path fill="none" stroke="#000000" d="M105,-122.2843C105,-143.3211 105,-175 105,-175 105,-175 346.9523,-175 346.9523,-175"/>
<polygon fill="#000000" stroke="#000000" points="346.9524,-178.5001 356.9523,-175 346.9523,-171.5001 346.9524,-178.5001"/>
</g>
</g>
</svg>
