<?xml version="1.0" encoding="UTF-8" standalone="no"?>
<!DOCTYPE svg PUBLIC "-//W3C//DTD SVG 1.1//EN"
 "http://www.w3.org/Graphics/SVG/1.1/DTD/svg11.dtd">
<!-- Generated by graphviz version 2.40.1 (20161225.0304)
 -->
<!-- Title: dependencies Pages: 1 -->
<svg width="1105pt" height="284pt"
 viewBox="0.00 0.00 1105.00 284.00" xmlns="http://www.w3.org/2000/svg" xmlns:xlink="http://www.w3.org/1999/xlink">
<g id="graph0" class="graph" transform="scale(1 1) rotate(0) translate(4 280)">
<title>dependencies</title>
<polygon fill="#ffffff" stroke="transparent" points="-4,4 -4,-280 1101,-280 1101,4 -4,4"/>
<text text-anchor="start" x="527.5091" y="-42.4" font-family="sans-serif" font-weight="bold" font-size="14.00" fill="#000000">Legend</text>
<polygon fill="#ffffb3" stroke="transparent" points="314.5,-10 314.5,-30 334.5,-30 334.5,-10 314.5,-10"/>
<text text-anchor="start" x="338.129" y="-15.4" font-family="sans-serif" font-size="14.00" fill="#000000"> &#160;Declarations</text>
<polygon fill="#8dd3c7" stroke="transparent" points="427.5,-10 427.5,-30 447.5,-30 447.5,-10 427.5,-10"/>
<text text-anchor="start" x="451.2251" y="-15.4" font-family="sans-serif" font-size="14.00" fill="#000000"> &#160;Module</text>
<polygon fill="#80b1d3" stroke="transparent" points="513.5,-10 513.5,-30 533.5,-30 533.5,-10 513.5,-10"/>
<text text-anchor="start" x="537.2812" y="-15.4" font-family="sans-serif" font-size="14.00" fill="#000000"> &#160;Bootstrap</text>
<polygon fill="#fdb462" stroke="transparent" points="610.5,-10 610.5,-30 630.5,-30 630.5,-10 610.5,-10"/>
<text text-anchor="start" x="634.1732" y="-15.4" font-family="sans-serif" font-size="14.00" fill="#000000"> &#160;Providers</text>
<polygon fill="#fb8072" stroke="transparent" points="706.5,-10 706.5,-30 726.5,-30 726.5,-10 706.5,-10"/>
<text text-anchor="start" x="730.2258" y="-15.4" font-family="sans-serif" font-size="14.00" fill="#000000"> &#160;Exports</text>
<g id="clust1" class="cluster">
<title>cluster_DetailModule</title>
<polygon fill="none" stroke="#000000" stroke-dasharray="1,5" points="8,-70 8,-268 1089,-268 1089,-70 8,-70"/>
</g>
<g id="clust2" class="cluster">
<title>cluster_DetailModule_declarations</title>
<polygon fill="none" stroke="#000000" points="949,-78 949,-130 1081,-130 1081,-78 949,-78"/>
</g>
<g id="clust4" class="cluster">
<title>cluster_DetailModule_imports</title>
<polygon fill="none" stroke="#000000" points="347,-78 347,-130 941,-130 941,-78 347,-78"/>
</g>
<g id="clust5" class="cluster">
<title>cluster_DetailModule_exports</title>
<polygon fill="none" stroke="#000000" points="518,-208 518,-260 654,-260 654,-208 518,-208"/>
</g>
<g id="clust7" class="cluster">
<title>cluster_DetailModule_providers</title>
<polygon fill="none" stroke="#000000" points="16,-78 16,-130 339,-130 339,-78 16,-78"/>
</g>
<!-- DetailComponent -->
<g id="node1" class="node">
<title>DetailComponent</title>
<polygon fill="#ffffb3" stroke="#000000" points="1072.5409,-122 957.4591,-122 957.4591,-86 1072.5409,-86 1072.5409,-122"/>
<text text-anchor="middle" x="1015" y="-99.8" font-family="Times,serif" font-size="14.00" fill="#000000">DetailComponent</text>
</g>
<!-- DetailModule -->
<g id="node2" class="node">
<title>DetailModule</title>
<polygon fill="#8dd3c7" stroke="#000000" points="632.7577,-187 629.7577,-191 608.7577,-191 605.7577,-187 539.2423,-187 539.2423,-151 632.7577,-151 632.7577,-187"/>
<text text-anchor="middle" x="586" y="-164.8" font-family="Times,serif" font-size="14.00" fill="#000000">DetailModule</text>
</g>
<!-- DetailComponent&#45;&gt;DetailModule -->
<g id="edge1" class="edge">
<title>DetailComponent&#45;&gt;DetailModule</title>
<path fill="none" stroke="#000000" d="M1015,-122.2921C1015,-144.2057 1015,-178 1015,-178 1015,-178 643.1377,-178 643.1377,-178"/>
<polygon fill="#000000" stroke="#000000" points="643.1377,-174.5001 633.1377,-178 643.1376,-181.5001 643.1377,-174.5001"/>
</g>
<!-- DetailComponent  -->
<g id="node7" class="node">
<title>DetailComponent </title>
<polygon fill="#fb8072" stroke="#000000" points="645.54,-252 526.46,-252 526.46,-216 645.54,-216 645.54,-252"/>
<text text-anchor="middle" x="586" y="-229.8" font-family="Times,serif" font-size="14.00" fill="#000000">DetailComponent </text>
</g>
<!-- DetailModule&#45;&gt;DetailComponent  -->
<g id="edge6" class="edge">
<title>DetailModule&#45;&gt;DetailComponent </title>
<path fill="none" stroke="#000000" stroke-dasharray="5,2" d="M586,-187.1061C586,-187.1061 586,-205.991 586,-205.991"/>
<polygon fill="#000000" stroke="#000000" points="582.5001,-205.9909 586,-215.991 589.5001,-205.991 582.5001,-205.9909"/>
</g>
<!-- DetailRoutingModule -->
<g id="node3" class="node">
<title>DetailRoutingModule</title>
<polygon fill="#8dd3c7" stroke="#000000" points="933.3753,-122 930.3753,-126 909.3753,-126 906.3753,-122 794.6247,-122 794.6247,-86 933.3753,-86 933.3753,-122"/>
<text text-anchor="middle" x="864" y="-99.8" font-family="Times,serif" font-size="14.00" fill="#000000">DetailRoutingModule</text>
</g>
<!-- DetailRoutingModule&#45;&gt;DetailModule -->
<g id="edge2" class="edge">
<title>DetailRoutingModule&#45;&gt;DetailModule</title>
<path fill="none" stroke="#000000" d="M864,-122.1061C864,-141.3391 864,-169 864,-169 864,-169 642.8445,-169 642.8445,-169"/>
<polygon fill="#000000" stroke="#000000" points="642.8446,-165.5001 632.8445,-169 642.8445,-172.5001 642.8446,-165.5001"/>
</g>
<!-- MaterialModule -->
<g id="node4" class="node">
<title>MaterialModule</title>
<polygon fill="#8dd3c7" stroke="#000000" points="776.4706,-122 773.4706,-126 752.4706,-126 749.4706,-122 669.5294,-122 669.5294,-86 776.4706,-86 776.4706,-122"/>
<text text-anchor="middle" x="723" y="-99.8" font-family="Times,serif" font-size="14.00" fill="#000000">MaterialModule</text>
</g>
<!-- MaterialModule&#45;&gt;DetailModule -->
<g id="edge3" class="edge">
<title>MaterialModule&#45;&gt;DetailModule</title>
<path fill="none" stroke="#000000" d="M723,-122.027C723,-138.3976 723,-160 723,-160 723,-160 642.7645,-160 642.7645,-160"/>
<polygon fill="#000000" stroke="#000000" points="642.7645,-156.5001 632.7645,-160 642.7644,-163.5001 642.7645,-156.5001"/>
</g>
<!-- ToolbarLinkModule -->
<g id="node5" class="node">
<title>ToolbarLinkModule</title>
<polygon fill="#8dd3c7" stroke="#000000" points="651.3118,-122 648.3118,-126 627.3118,-126 624.3118,-122 520.6882,-122 520.6882,-86 651.3118,-86 651.3118,-122"/>
<text text-anchor="middle" x="586" y="-99.8" font-family="Times,serif" font-size="14.00" fill="#000000">ToolbarLinkModule</text>
</g>
<!-- ToolbarLinkModule&#45;&gt;DetailModule -->
<g id="edge4" class="edge">
<title>ToolbarLinkModule&#45;&gt;DetailModule</title>
<path fill="none" stroke="#000000" d="M586,-122.1061C586,-122.1061 586,-140.991 586,-140.991"/>
<polygon fill="#000000" stroke="#000000" points="582.5001,-140.9909 586,-150.991 589.5001,-140.991 582.5001,-140.9909"/>
</g>
<!-- ToolbarOptionsModule -->
<g id="node6" class="node">
<title>ToolbarOptionsModule</title>
<polygon fill="#8dd3c7" stroke="#000000" points="503.2007,-122 500.2007,-126 479.2007,-126 476.2007,-122 354.7993,-122 354.7993,-86 503.2007,-86 503.2007,-122"/>
<text text-anchor="middle" x="429" y="-99.8" font-family="Times,serif" font-size="14.00" fill="#000000">ToolbarOptionsModule</text>
</g>
<!-- ToolbarOptionsModule&#45;&gt;DetailModule -->
<g id="edge5" class="edge">
<title>ToolbarOptionsModule&#45;&gt;DetailModule</title>
<path fill="none" stroke="#000000" d="M429,-122.027C429,-138.3976 429,-160 429,-160 429,-160 528.8948,-160 528.8948,-160"/>
<polygon fill="#000000" stroke="#000000" points="528.8949,-163.5001 538.8948,-160 528.8948,-156.5001 528.8949,-163.5001"/>
</g>
<!-- DetailService -->
<g id="node8" class="node">
<title>DetailService</title>
<ellipse fill="#fdb462" stroke="#000000" cx="267" cy="-104" rx="63.6755" ry="18"/>
<text text-anchor="middle" x="267" y="-99.8" font-family="Times,serif" font-size="14.00" fill="#000000">DetailService</text>
</g>
<!-- DetailService&#45;&gt;DetailModule -->
<g id="edge7" class="edge">
<title>DetailService&#45;&gt;DetailModule</title>
<path fill="none" stroke="#000000" d="M267,-122.1061C267,-141.3391 267,-169 267,-169 267,-169 528.9305,-169 528.9305,-169"/>
<polygon fill="#000000" stroke="#000000" points="528.9305,-172.5001 538.9305,-169 528.9304,-165.5001 528.9305,-172.5001"/>
</g>
<!-- ShipmentsService -->
<g id="node9" class="node">
<title>ShipmentsService</title>
<ellipse fill="#fdb462" stroke="#000000" cx="105" cy="-104" rx="80.5354" ry="18"/>
<text text-anchor="middle" x="105" y="-99.8" font-family="Times,serif" font-size="14.00" fill="#000000">ShipmentsService</text>
</g>
<!-- ShipmentsService&#45;&gt;DetailModule -->
<g id="edge8" class="edge">
<title>ShipmentsService&#45;&gt;DetailModule</title>
<path fill="none" stroke="#000000" d="M105,-122.2921C105,-144.2057 105,-178 105,-178 105,-178 529.0039,-178 529.0039,-178"/>
<polygon fill="#000000" stroke="#000000" points="529.0039,-181.5001 539.0039,-178 529.0039,-174.5001 529.0039,-181.5001"/>
</g>
</g>
</svg>
