<?xml version="1.0" encoding="UTF-8" standalone="no"?>
<!DOCTYPE svg PUBLIC "-//W3C//DTD SVG 1.1//EN"
 "http://www.w3.org/Graphics/SVG/1.1/DTD/svg11.dtd">
<!-- Generated by graphviz version 2.40.1 (20161225.0304)
 -->
<!-- Title: dependencies Pages: 1 -->
<svg width="504pt" height="349pt"
 viewBox="0.00 0.00 504.00 349.00" xmlns="http://www.w3.org/2000/svg" xmlns:xlink="http://www.w3.org/1999/xlink">
<g id="graph0" class="graph" transform="scale(1 1) rotate(0) translate(4 345)">
<title>dependencies</title>
<polygon fill="#ffffff" stroke="transparent" points="-4,4 -4,-345 500,-345 500,4 -4,4"/>
<text text-anchor="start" x="227.0091" y="-42.4" font-family="sans-serif" font-weight="bold" font-size="14.00" fill="#000000">Legend</text>
<polygon fill="#ffffb3" stroke="transparent" points="14,-10 14,-30 34,-30 34,-10 14,-10"/>
<text text-anchor="start" x="37.629" y="-15.4" font-family="sans-serif" font-size="14.00" fill="#000000"> &#160;Declarations</text>
<polygon fill="#8dd3c7" stroke="transparent" points="127,-10 127,-30 147,-30 147,-10 127,-10"/>
<text text-anchor="start" x="150.7251" y="-15.4" font-family="sans-serif" font-size="14.00" fill="#000000"> &#160;Module</text>
<polygon fill="#80b1d3" stroke="transparent" points="213,-10 213,-30 233,-30 233,-10 213,-10"/>
<text text-anchor="start" x="236.7812" y="-15.4" font-family="sans-serif" font-size="14.00" fill="#000000"> &#160;Bootstrap</text>
<polygon fill="#fdb462" stroke="transparent" points="310,-10 310,-30 330,-30 330,-10 310,-10"/>
<text text-anchor="start" x="333.6732" y="-15.4" font-family="sans-serif" font-size="14.00" fill="#000000"> &#160;Providers</text>
<polygon fill="#fb8072" stroke="transparent" points="406,-10 406,-30 426,-30 426,-10 406,-10"/>
<text text-anchor="start" x="429.7258" y="-15.4" font-family="sans-serif" font-size="14.00" fill="#000000"> &#160;Exports</text>
<g id="clust1" class="cluster">
<title>cluster_StatesModule</title>
<polygon fill="none" stroke="#000000" stroke-dasharray="1,5" points="26.5,-70 26.5,-333 469.5,-333 469.5,-70 26.5,-70"/>
</g>
<g id="clust2" class="cluster">
<title>cluster_StatesModule_declarations</title>
<polygon fill="none" stroke="#000000" points="331.5,-143 331.5,-195 461.5,-195 461.5,-143 331.5,-143"/>
</g>
<g id="clust3" class="cluster">
<title>cluster_StatesModule_StatesComponent_providers</title>
<polygon fill="none" stroke="#000000" points="319.5,-78 319.5,-130 461.5,-130 461.5,-78 319.5,-78"/>
</g>
<g id="clust4" class="cluster">
<title>cluster_StatesModule_imports</title>
<polygon fill="none" stroke="#000000" points="34.5,-143 34.5,-195 323.5,-195 323.5,-143 34.5,-143"/>
</g>
<g id="clust5" class="cluster">
<title>cluster_StatesModule_exports</title>
<polygon fill="none" stroke="#000000" points="195.5,-273 195.5,-325 329.5,-325 329.5,-273 195.5,-273"/>
</g>
<!-- StatesComponent -->
<g id="node1" class="node">
<title>StatesComponent</title>
<polygon fill="#ffffb3" stroke="#000000" points="453.7702,-187 339.2298,-187 339.2298,-151 453.7702,-151 453.7702,-187"/>
<text text-anchor="middle" x="396.5" y="-164.8" font-family="Times,serif" font-size="14.00" fill="#000000">StatesComponent</text>
</g>
<!-- StatesModule -->
<g id="node2" class="node">
<title>StatesModule</title>
<polygon fill="#8dd3c7" stroke="#000000" points="308.9874,-252 305.9874,-256 284.9874,-256 281.9874,-252 216.0126,-252 216.0126,-216 308.9874,-216 308.9874,-252"/>
<text text-anchor="middle" x="262.5" y="-229.8" font-family="Times,serif" font-size="14.00" fill="#000000">StatesModule</text>
</g>
<!-- StatesComponent&#45;&gt;StatesModule -->
<g id="edge1" class="edge">
<title>StatesComponent&#45;&gt;StatesModule</title>
<path fill="none" stroke="#000000" d="M396.5,-187.1061C396.5,-206.3391 396.5,-234 396.5,-234 396.5,-234 318.9906,-234 318.9906,-234"/>
<polygon fill="#000000" stroke="#000000" points="318.9907,-230.5001 308.9906,-234 318.9906,-237.5001 318.9907,-230.5001"/>
</g>
<!-- StatesComponent  -->
<g id="node6" class="node">
<title>StatesComponent </title>
<polygon fill="#fb8072" stroke="#000000" points="321.7703,-317 203.2297,-317 203.2297,-281 321.7703,-281 321.7703,-317"/>
<text text-anchor="middle" x="262.5" y="-294.8" font-family="Times,serif" font-size="14.00" fill="#000000">StatesComponent </text>
</g>
<!-- StatesModule&#45;&gt;StatesComponent  -->
<g id="edge5" class="edge">
<title>StatesModule&#45;&gt;StatesComponent </title>
<path fill="none" stroke="#000000" stroke-dasharray="5,2" d="M262.5,-252.1061C262.5,-252.1061 262.5,-270.991 262.5,-270.991"/>
<polygon fill="#000000" stroke="#000000" points="259.0001,-270.9909 262.5,-280.991 266.0001,-270.991 259.0001,-270.9909"/>
</g>
<!-- StatesService -->
<g id="node3" class="node">
<title>StatesService</title>
<ellipse fill="#fdb462" stroke="#000000" cx="390.5" cy="-104" rx="63.1131" ry="18"/>
<text text-anchor="middle" x="390.5" y="-99.8" font-family="Times,serif" font-size="14.00" fill="#000000">StatesService</text>
</g>
<!-- StatesService&#45;&gt;StatesComponent -->
<g id="edge2" class="edge">
<title>StatesService&#45;&gt;StatesComponent</title>
<path fill="none" stroke="#000000" d="M396.3358,-122.1061C396.3358,-122.1061 396.3358,-140.991 396.3358,-140.991"/>
<polygon fill="#000000" stroke="#000000" points="392.8359,-140.9909 396.3358,-150.991 399.8359,-140.991 392.8359,-140.9909"/>
</g>
<!-- MaterialModule -->
<g id="node4" class="node">
<title>MaterialModule</title>
<polygon fill="#8dd3c7" stroke="#000000" points="315.9706,-187 312.9706,-191 291.9706,-191 288.9706,-187 209.0294,-187 209.0294,-151 315.9706,-151 315.9706,-187"/>
<text text-anchor="middle" x="262.5" y="-164.8" font-family="Times,serif" font-size="14.00" fill="#000000">MaterialModule</text>
</g>
<!-- MaterialModule&#45;&gt;StatesModule -->
<g id="edge3" class="edge">
<title>MaterialModule&#45;&gt;StatesModule</title>
<path fill="none" stroke="#000000" d="M262.5,-187.1061C262.5,-187.1061 262.5,-205.991 262.5,-205.991"/>
<polygon fill="#000000" stroke="#000000" points="259.0001,-205.9909 262.5,-215.991 266.0001,-205.991 259.0001,-205.9909"/>
</g>
<!-- ToolbarOptionsModule -->
<g id="node5" class="node">
<title>ToolbarOptionsModule</title>
<polygon fill="#8dd3c7" stroke="#000000" points="190.7007,-187 187.7007,-191 166.7007,-191 163.7007,-187 42.2993,-187 42.2993,-151 190.7007,-151 190.7007,-187"/>
<text text-anchor="middle" x="116.5" y="-164.8" font-family="Times,serif" font-size="14.00" fill="#000000">ToolbarOptionsModule</text>
</g>
<!-- ToolbarOptionsModule&#45;&gt;StatesModule -->
<g id="edge4" class="edge">
<title>ToolbarOptionsModule&#45;&gt;StatesModule</title>
<path fill="none" stroke="#000000" d="M116.5,-187.1061C116.5,-206.3391 116.5,-234 116.5,-234 116.5,-234 205.9033,-234 205.9033,-234"/>
<polygon fill="#000000" stroke="#000000" points="205.9033,-237.5001 215.9033,-234 205.9032,-230.5001 205.9033,-237.5001"/>
</g>
</g>
</svg>
