<?xml version="1.0" encoding="UTF-8" standalone="no"?>
<!DOCTYPE svg PUBLIC "-//W3C//DTD SVG 1.1//EN"
 "http://www.w3.org/Graphics/SVG/1.1/DTD/svg11.dtd">
<!-- Generated by graphviz version 2.40.1 (20161225.0304)
 -->
<!-- Title: dependencies Pages: 1 -->
<svg width="1858pt" height="211pt"
 viewBox="0.00 0.00 1858.00 211.00" xmlns="http://www.w3.org/2000/svg" xmlns:xlink="http://www.w3.org/1999/xlink">
<g id="graph0" class="graph" transform="scale(1 1) rotate(0) translate(4 207)">
<title>dependencies</title>
<polygon fill="#ffffff" stroke="transparent" points="-4,4 -4,-207 1854,-207 1854,4 -4,4"/>
<text text-anchor="start" x="904.0091" y="-42.4" font-family="sans-serif" font-weight="bold" font-size="14.00" fill="#000000">Legend</text>
<polygon fill="#ffffb3" stroke="transparent" points="691,-10 691,-30 711,-30 711,-10 691,-10"/>
<text text-anchor="start" x="714.629" y="-15.4" font-family="sans-serif" font-size="14.00" fill="#000000"> &#160;Declarations</text>
<polygon fill="#8dd3c7" stroke="transparent" points="804,-10 804,-30 824,-30 824,-10 804,-10"/>
<text text-anchor="start" x="827.7251" y="-15.4" font-family="sans-serif" font-size="14.00" fill="#000000"> &#160;Module</text>
<polygon fill="#80b1d3" stroke="transparent" points="890,-10 890,-30 910,-30 910,-10 890,-10"/>
<text text-anchor="start" x="913.7812" y="-15.4" font-family="sans-serif" font-size="14.00" fill="#000000"> &#160;Bootstrap</text>
<polygon fill="#fdb462" stroke="transparent" points="987,-10 987,-30 1007,-30 1007,-10 987,-10"/>
<text text-anchor="start" x="1010.6732" y="-15.4" font-family="sans-serif" font-size="14.00" fill="#000000"> &#160;Providers</text>
<polygon fill="#fb8072" stroke="transparent" points="1083,-10 1083,-30 1103,-30 1103,-10 1083,-10"/>
<text text-anchor="start" x="1106.7258" y="-15.4" font-family="sans-serif" font-size="14.00" fill="#000000"> &#160;Exports</text>
<g id="clust1" class="cluster">
<title>cluster_StoresModule</title>
<polygon fill="none" stroke="#000000" stroke-dasharray="1,5" points="8,-70 8,-195 1842,-195 1842,-70 8,-70"/>
</g>
<g id="clust2" class="cluster">
<title>cluster_StoresModule_declarations</title>
<polygon fill="none" stroke="#000000" points="640,-78 640,-130 1834,-130 1834,-78 640,-78"/>
</g>
<g id="clust10" class="cluster">
<title>cluster_StoresModule_imports</title>
<polygon fill="none" stroke="#000000" points="352,-78 352,-130 632,-130 632,-78 352,-78"/>
</g>
<g id="clust13" class="cluster">
<title>cluster_StoresModule_providers</title>
<polygon fill="none" stroke="#000000" points="16,-78 16,-130 344,-130 344,-78 16,-78"/>
</g>
<!-- InputCommisionComponent -->
<g id="node1" class="node">
<title>InputCommisionComponent</title>
<polygon fill="#ffffb3" stroke="#000000" points="1826.2273,-122 1649.7727,-122 1649.7727,-86 1826.2273,-86 1826.2273,-122"/>
<text text-anchor="middle" x="1738" y="-99.8" font-family="Times,serif" font-size="14.00" fill="#000000">InputCommisionComponent</text>
</g>
<!-- StoresModule -->
<g id="node8" class="node">
<title>StoresModule</title>
<polygon fill="#8dd3c7" stroke="#000000" points="951.0439,-187 948.0439,-191 927.0439,-191 924.0439,-187 856.9561,-187 856.9561,-151 951.0439,-151 951.0439,-187"/>
<text text-anchor="middle" x="904" y="-164.8" font-family="Times,serif" font-size="14.00" fill="#000000">StoresModule</text>
</g>
<!-- InputCommisionComponent&#45;&gt;StoresModule -->
<g id="edge1" class="edge">
<title>InputCommisionComponent&#45;&gt;StoresModule</title>
<path fill="none" stroke="#000000" d="M1738,-122.0908C1738,-145.1328 1738,-182 1738,-182 1738,-182 961.229,-182 961.229,-182"/>
<polygon fill="#000000" stroke="#000000" points="961.2291,-178.5001 951.229,-182 961.229,-185.5001 961.2291,-178.5001"/>
</g>
<!-- NoContentComponent -->
<g id="node2" class="node">
<title>NoContentComponent</title>
<polygon fill="#ffffb3" stroke="#000000" points="1632.2716,-122 1489.7284,-122 1489.7284,-86 1632.2716,-86 1632.2716,-122"/>
<text text-anchor="middle" x="1561" y="-99.8" font-family="Times,serif" font-size="14.00" fill="#000000">NoContentComponent</text>
</g>
<!-- NoContentComponent&#45;&gt;StoresModule -->
<g id="edge2" class="edge">
<title>NoContentComponent&#45;&gt;StoresModule</title>
<path fill="none" stroke="#000000" d="M1561,-122.2843C1561,-143.3211 1561,-175 1561,-175 1561,-175 961.2498,-175 961.2498,-175"/>
<polygon fill="#000000" stroke="#000000" points="961.2499,-171.5001 951.2498,-175 961.2498,-178.5001 961.2499,-171.5001"/>
</g>
<!-- SearchStoreComponent -->
<g id="node3" class="node">
<title>SearchStoreComponent</title>
<polygon fill="#ffffb3" stroke="#000000" points="1471.4678,-122 1322.5322,-122 1322.5322,-86 1471.4678,-86 1471.4678,-122"/>
<text text-anchor="middle" x="1397" y="-99.8" font-family="Times,serif" font-size="14.00" fill="#000000">SearchStoreComponent</text>
</g>
<!-- SearchStoreComponent&#45;&gt;StoresModule -->
<g id="edge3" class="edge">
<title>SearchStoreComponent&#45;&gt;StoresModule</title>
<path fill="none" stroke="#000000" d="M1397,-122.1061C1397,-141.3391 1397,-169 1397,-169 1397,-169 961.2709,-169 961.2709,-169"/>
<polygon fill="#000000" stroke="#000000" points="961.2709,-165.5001 951.2709,-169 961.2709,-172.5001 961.2709,-165.5001"/>
</g>
<!-- StoreComponent -->
<g id="node4" class="node">
<title>StoreComponent</title>
<polygon fill="#ffffb3" stroke="#000000" points="1304.3809,-122 1193.6191,-122 1193.6191,-86 1304.3809,-86 1304.3809,-122"/>
<text text-anchor="middle" x="1249" y="-99.8" font-family="Times,serif" font-size="14.00" fill="#000000">StoreComponent</text>
</g>
<!-- StoreComponent&#45;&gt;StoresModule -->
<g id="edge4" class="edge">
<title>StoreComponent&#45;&gt;StoresModule</title>
<path fill="none" stroke="#000000" d="M1249,-122.0225C1249,-139.3734 1249,-163 1249,-163 1249,-163 961.2474,-163 961.2474,-163"/>
<polygon fill="#000000" stroke="#000000" points="961.2474,-159.5001 951.2474,-163 961.2474,-166.5001 961.2474,-159.5001"/>
</g>
<!-- TreeCategoriesComponent -->
<g id="node5" class="node">
<title>TreeCategoriesComponent</title>
<polygon fill="#ffffb3" stroke="#000000" points="1175.3417,-122 1008.6583,-122 1008.6583,-86 1175.3417,-86 1175.3417,-122"/>
<text text-anchor="middle" x="1092" y="-99.8" font-family="Times,serif" font-size="14.00" fill="#000000">TreeCategoriesComponent</text>
</g>
<!-- TreeCategoriesComponent&#45;&gt;StoresModule -->
<g id="edge5" class="edge">
<title>TreeCategoriesComponent&#45;&gt;StoresModule</title>
<path fill="none" stroke="#000000" d="M1092,-122.2396C1092,-137.5706 1092,-157 1092,-157 1092,-157 961.4403,-157 961.4403,-157"/>
<polygon fill="#000000" stroke="#000000" points="961.4404,-153.5001 951.4403,-157 961.4403,-160.5001 961.4404,-153.5001"/>
</g>
<!-- TreeComponentComponent -->
<g id="node6" class="node">
<title>TreeComponentComponent</title>
<polygon fill="#ffffb3" stroke="#000000" points="990.3075,-122 817.6925,-122 817.6925,-86 990.3075,-86 990.3075,-122"/>
<text text-anchor="middle" x="904" y="-99.8" font-family="Times,serif" font-size="14.00" fill="#000000">TreeComponentComponent</text>
</g>
<!-- TreeComponentComponent&#45;&gt;StoresModule -->
<g id="edge6" class="edge">
<title>TreeComponentComponent&#45;&gt;StoresModule</title>
<path fill="none" stroke="#000000" d="M904,-122.1061C904,-122.1061 904,-140.991 904,-140.991"/>
<polygon fill="#000000" stroke="#000000" points="900.5001,-140.9909 904,-150.991 907.5001,-140.991 900.5001,-140.9909"/>
</g>
<!-- TreeToolbarComponent -->
<g id="node7" class="node">
<title>TreeToolbarComponent</title>
<polygon fill="#ffffb3" stroke="#000000" points="799.7935,-122 648.2065,-122 648.2065,-86 799.7935,-86 799.7935,-122"/>
<text text-anchor="middle" x="724" y="-99.8" font-family="Times,serif" font-size="14.00" fill="#000000">TreeToolbarComponent</text>
</g>
<!-- TreeToolbarComponent&#45;&gt;StoresModule -->
<g id="edge7" class="edge">
<title>TreeToolbarComponent&#45;&gt;StoresModule</title>
<path fill="none" stroke="#000000" d="M724,-122.2396C724,-137.5706 724,-157 724,-157 724,-157 846.7071,-157 846.7071,-157"/>
<polygon fill="#000000" stroke="#000000" points="846.7072,-160.5001 856.7071,-157 846.7071,-153.5001 846.7072,-160.5001"/>
</g>
<!-- MaterialModule -->
<g id="node9" class="node">
<title>MaterialModule</title>
<polygon fill="#8dd3c7" stroke="#000000" points="624.4706,-122 621.4706,-126 600.4706,-126 597.4706,-122 517.5294,-122 517.5294,-86 624.4706,-86 624.4706,-122"/>
<text text-anchor="middle" x="571" y="-99.8" font-family="Times,serif" font-size="14.00" fill="#000000">MaterialModule</text>
</g>
<!-- MaterialModule&#45;&gt;StoresModule -->
<g id="edge8" class="edge">
<title>MaterialModule&#45;&gt;StoresModule</title>
<path fill="none" stroke="#000000" d="M571,-122.0225C571,-139.3734 571,-163 571,-163 571,-163 846.6429,-163 846.6429,-163"/>
<polygon fill="#000000" stroke="#000000" points="846.6429,-166.5001 856.6429,-163 846.6428,-159.5001 846.6429,-166.5001"/>
</g>
<!-- StoresRoutingModule -->
<g id="node10" class="node">
<title>StoresRoutingModule</title>
<polygon fill="#8dd3c7" stroke="#000000" points="499.661,-122 496.661,-126 475.661,-126 472.661,-122 360.339,-122 360.339,-86 499.661,-86 499.661,-122"/>
<text text-anchor="middle" x="430" y="-99.8" font-family="Times,serif" font-size="14.00" fill="#000000">StoresRoutingModule</text>
</g>
<!-- StoresRoutingModule&#45;&gt;StoresModule -->
<g id="edge9" class="edge">
<title>StoresRoutingModule&#45;&gt;StoresModule</title>
<path fill="none" stroke="#000000" d="M430,-122.1061C430,-141.3391 430,-169 430,-169 430,-169 846.8182,-169 846.8182,-169"/>
<polygon fill="#000000" stroke="#000000" points="846.8182,-172.5001 856.8182,-169 846.8181,-165.5001 846.8182,-172.5001"/>
</g>
<!-- EventEmitterStore -->
<g id="node11" class="node">
<title>EventEmitterStore</title>
<ellipse fill="#fdb462" stroke="#000000" cx="253" cy="-104" rx="82.8187" ry="18"/>
<text text-anchor="middle" x="253" y="-99.8" font-family="Times,serif" font-size="14.00" fill="#000000">EventEmitterStore</text>
</g>
<!-- EventEmitterStore&#45;&gt;StoresModule -->
<g id="edge10" class="edge">
<title>EventEmitterStore&#45;&gt;StoresModule</title>
<path fill="none" stroke="#000000" d="M253,-122.2843C253,-143.3211 253,-175 253,-175 253,-175 846.9198,-175 846.9198,-175"/>
<polygon fill="#000000" stroke="#000000" points="846.9198,-178.5001 856.9198,-175 846.9198,-171.5001 846.9198,-178.5001"/>
</g>
<!-- StoresService -->
<g id="node12" class="node">
<title>StoresService</title>
<ellipse fill="#fdb462" stroke="#000000" cx="88" cy="-104" rx="64.2591" ry="18"/>
<text text-anchor="middle" x="88" y="-99.8" font-family="Times,serif" font-size="14.00" fill="#000000">StoresService</text>
</g>
<!-- StoresService&#45;&gt;StoresModule -->
<g id="edge11" class="edge">
<title>StoresService&#45;&gt;StoresModule</title>
<path fill="none" stroke="#000000" d="M88,-122.0908C88,-145.1328 88,-182 88,-182 88,-182 846.8998,-182 846.8998,-182"/>
<polygon fill="#000000" stroke="#000000" points="846.8999,-185.5001 856.8998,-182 846.8998,-178.5001 846.8999,-185.5001"/>
</g>
</g>
</svg>
