<?xml version="1.0" encoding="UTF-8" standalone="no"?>
<!DOCTYPE svg PUBLIC "-//W3C//DTD SVG 1.1//EN"
 "http://www.w3.org/Graphics/SVG/1.1/DTD/svg11.dtd">
<!-- Generated by graphviz version 2.40.1 (20161225.0304)
 -->
<!-- Title: dependencies Pages: 1 -->
<svg width="1850pt" height="211pt"
 viewBox="0.00 0.00 1850.00 211.00" xmlns="http://www.w3.org/2000/svg" xmlns:xlink="http://www.w3.org/1999/xlink">
<g id="graph0" class="graph" transform="scale(1 1) rotate(0) translate(4 207)">
<title>dependencies</title>
<polygon fill="#ffffff" stroke="transparent" points="-4,4 -4,-207 1846,-207 1846,4 -4,4"/>
<text text-anchor="start" x="900.0091" y="-42.4" font-family="sans-serif" font-weight="bold" font-size="14.00" fill="#000000">Legend</text>
<polygon fill="#ffffb3" stroke="transparent" points="687,-10 687,-30 707,-30 707,-10 687,-10"/>
<text text-anchor="start" x="710.629" y="-15.4" font-family="sans-serif" font-size="14.00" fill="#000000"> &#160;Declarations</text>
<polygon fill="#8dd3c7" stroke="transparent" points="800,-10 800,-30 820,-30 820,-10 800,-10"/>
<text text-anchor="start" x="823.7251" y="-15.4" font-family="sans-serif" font-size="14.00" fill="#000000"> &#160;Module</text>
<polygon fill="#80b1d3" stroke="transparent" points="886,-10 886,-30 906,-30 906,-10 886,-10"/>
<text text-anchor="start" x="909.7812" y="-15.4" font-family="sans-serif" font-size="14.00" fill="#000000"> &#160;Bootstrap</text>
<polygon fill="#fdb462" stroke="transparent" points="983,-10 983,-30 1003,-30 1003,-10 983,-10"/>
<text text-anchor="start" x="1006.6732" y="-15.4" font-family="sans-serif" font-size="14.00" fill="#000000"> &#160;Providers</text>
<polygon fill="#fb8072" stroke="transparent" points="1079,-10 1079,-30 1099,-30 1099,-10 1079,-10"/>
<text text-anchor="start" x="1102.7258" y="-15.4" font-family="sans-serif" font-size="14.00" fill="#000000"> &#160;Exports</text>
<g id="clust1" class="cluster">
<title>cluster_StoresModule</title>
<polygon fill="none" stroke="#000000" stroke-dasharray="1,5" points="8,-70 8,-195 1834,-195 1834,-70 8,-70"/>
</g>
<g id="clust2" class="cluster">
<title>cluster_StoresModule_declarations</title>
<polygon fill="none" stroke="#000000" points="632,-78 632,-130 1826,-130 1826,-78 632,-78"/>
</g>
<g id="clust10" class="cluster">
<title>cluster_StoresModule_imports</title>
<polygon fill="none" stroke="#000000" points="352,-78 352,-130 624,-130 624,-78 352,-78"/>
</g>
<g id="clust13" class="cluster">
<title>cluster_StoresModule_providers</title>
<polygon fill="none" stroke="#000000" points="16,-78 16,-130 344,-130 344,-78 16,-78"/>
</g>
<!-- InputCommisionComponent -->
<g id="node1" class="node">
<title>InputCommisionComponent</title>
<polygon fill="#ffffb3" stroke="#000000" points="1818.2273,-122 1641.7727,-122 1641.7727,-86 1818.2273,-86 1818.2273,-122"/>
<text text-anchor="middle" x="1730" y="-99.8" font-family="Times,serif" font-size="14.00" fill="#000000">InputCommisionComponent</text>
</g>
<!-- StoresModule -->
<g id="node8" class="node">
<title>StoresModule</title>
<polygon fill="#8dd3c7" stroke="#000000" points="943.0439,-187 940.0439,-191 919.0439,-191 916.0439,-187 848.9561,-187 848.9561,-151 943.0439,-151 943.0439,-187"/>
<text text-anchor="middle" x="896" y="-164.8" font-family="Times,serif" font-size="14.00" fill="#000000">StoresModule</text>
</g>
<!-- InputCommisionComponent&#45;&gt;StoresModule -->
<g id="edge1" class="edge">
<title>InputCommisionComponent&#45;&gt;StoresModule</title>
<path fill="none" stroke="#000000" d="M1730,-122.0908C1730,-145.1328 1730,-182 1730,-182 1730,-182 953.229,-182 953.229,-182"/>
<polygon fill="#000000" stroke="#000000" points="953.2291,-178.5001 943.229,-182 953.229,-185.5001 953.2291,-178.5001"/>
</g>
<!-- NoContentComponent -->
<g id="node2" class="node">
<title>NoContentComponent</title>
<polygon fill="#ffffb3" stroke="#000000" points="1624.2716,-122 1481.7284,-122 1481.7284,-86 1624.2716,-86 1624.2716,-122"/>
<text text-anchor="middle" x="1553" y="-99.8" font-family="Times,serif" font-size="14.00" fill="#000000">NoContentComponent</text>
</g>
<!-- NoContentComponent&#45;&gt;StoresModule -->
<g id="edge2" class="edge">
<title>NoContentComponent&#45;&gt;StoresModule</title>
<path fill="none" stroke="#000000" d="M1553,-122.2843C1553,-143.3211 1553,-175 1553,-175 1553,-175 953.2498,-175 953.2498,-175"/>
<polygon fill="#000000" stroke="#000000" points="953.2499,-171.5001 943.2498,-175 953.2498,-178.5001 953.2499,-171.5001"/>
</g>
<!-- SearchStoreComponent -->
<g id="node3" class="node">
<title>SearchStoreComponent</title>
<polygon fill="#ffffb3" stroke="#000000" points="1463.4678,-122 1314.5322,-122 1314.5322,-86 1463.4678,-86 1463.4678,-122"/>
<text text-anchor="middle" x="1389" y="-99.8" font-family="Times,serif" font-size="14.00" fill="#000000">SearchStoreComponent</text>
</g>
<!-- SearchStoreComponent&#45;&gt;StoresModule -->
<g id="edge3" class="edge">
<title>SearchStoreComponent&#45;&gt;StoresModule</title>
<path fill="none" stroke="#000000" d="M1389,-122.1061C1389,-141.3391 1389,-169 1389,-169 1389,-169 953.2709,-169 953.2709,-169"/>
<polygon fill="#000000" stroke="#000000" points="953.2709,-165.5001 943.2709,-169 953.2709,-172.5001 953.2709,-165.5001"/>
</g>
<!-- StoreComponent -->
<g id="node4" class="node">
<title>StoreComponent</title>
<polygon fill="#ffffb3" stroke="#000000" points="1296.3809,-122 1185.6191,-122 1185.6191,-86 1296.3809,-86 1296.3809,-122"/>
<text text-anchor="middle" x="1241" y="-99.8" font-family="Times,serif" font-size="14.00" fill="#000000">StoreComponent</text>
</g>
<!-- StoreComponent&#45;&gt;StoresModule -->
<g id="edge4" class="edge">
<title>StoreComponent&#45;&gt;StoresModule</title>
<path fill="none" stroke="#000000" d="M1241,-122.0225C1241,-139.3734 1241,-163 1241,-163 1241,-163 953.2474,-163 953.2474,-163"/>
<polygon fill="#000000" stroke="#000000" points="953.2474,-159.5001 943.2474,-163 953.2474,-166.5001 953.2474,-159.5001"/>
</g>
<!-- TreeCategoriesComponent -->
<g id="node5" class="node">
<title>TreeCategoriesComponent</title>
<polygon fill="#ffffb3" stroke="#000000" points="1167.3417,-122 1000.6583,-122 1000.6583,-86 1167.3417,-86 1167.3417,-122"/>
<text text-anchor="middle" x="1084" y="-99.8" font-family="Times,serif" font-size="14.00" fill="#000000">TreeCategoriesComponent</text>
</g>
<!-- TreeCategoriesComponent&#45;&gt;StoresModule -->
<g id="edge5" class="edge">
<title>TreeCategoriesComponent&#45;&gt;StoresModule</title>
<path fill="none" stroke="#000000" d="M1084,-122.2396C1084,-137.5706 1084,-157 1084,-157 1084,-157 953.4403,-157 953.4403,-157"/>
<polygon fill="#000000" stroke="#000000" points="953.4404,-153.5001 943.4403,-157 953.4403,-160.5001 953.4404,-153.5001"/>
</g>
<!-- TreeComponentComponent -->
<g id="node6" class="node">
<title>TreeComponentComponent</title>
<polygon fill="#ffffb3" stroke="#000000" points="982.3075,-122 809.6925,-122 809.6925,-86 982.3075,-86 982.3075,-122"/>
<text text-anchor="middle" x="896" y="-99.8" font-family="Times,serif" font-size="14.00" fill="#000000">TreeComponentComponent</text>
</g>
<!-- TreeComponentComponent&#45;&gt;StoresModule -->
<g id="edge6" class="edge">
<title>TreeComponentComponent&#45;&gt;StoresModule</title>
<path fill="none" stroke="#000000" d="M896,-122.1061C896,-122.1061 896,-140.991 896,-140.991"/>
<polygon fill="#000000" stroke="#000000" points="892.5001,-140.9909 896,-150.991 899.5001,-140.991 892.5001,-140.9909"/>
</g>
<!-- TreeToolbarComponent -->
<g id="node7" class="node">
<title>TreeToolbarComponent</title>
<polygon fill="#ffffb3" stroke="#000000" points="791.7935,-122 640.2065,-122 640.2065,-86 791.7935,-86 791.7935,-122"/>
<text text-anchor="middle" x="716" y="-99.8" font-family="Times,serif" font-size="14.00" fill="#000000">TreeToolbarComponent</text>
</g>
<!-- TreeToolbarComponent&#45;&gt;StoresModule -->
<g id="edge7" class="edge">
<title>TreeToolbarComponent&#45;&gt;StoresModule</title>
<path fill="none" stroke="#000000" d="M716,-122.2396C716,-137.5706 716,-157 716,-157 716,-157 838.7071,-157 838.7071,-157"/>
<polygon fill="#000000" stroke="#000000" points="838.7072,-160.5001 848.7071,-157 838.7071,-153.5001 838.7072,-160.5001"/>
</g>
<!-- SharedModule -->
<g id="node9" class="node">
<title>SharedModule</title>
<polygon fill="#8dd3c7" stroke="#000000" points="616.4231,-122 613.4231,-126 592.4231,-126 589.4231,-122 517.5769,-122 517.5769,-86 616.4231,-86 616.4231,-122"/>
<text text-anchor="middle" x="567" y="-99.8" font-family="Times,serif" font-size="14.00" fill="#000000">SharedModule</text>
</g>
<!-- SharedModule&#45;&gt;StoresModule -->
<g id="edge8" class="edge">
<title>SharedModule&#45;&gt;StoresModule</title>
<path fill="none" stroke="#000000" d="M567,-122.0225C567,-139.3734 567,-163 567,-163 567,-163 838.8623,-163 838.8623,-163"/>
<polygon fill="#000000" stroke="#000000" points="838.8624,-166.5001 848.8623,-163 838.8623,-159.5001 838.8624,-166.5001"/>
</g>
<!-- StoresRoutingModule -->
<g id="node10" class="node">
<title>StoresRoutingModule</title>
<polygon fill="#8dd3c7" stroke="#000000" points="499.661,-122 496.661,-126 475.661,-126 472.661,-122 360.339,-122 360.339,-86 499.661,-86 499.661,-122"/>
<text text-anchor="middle" x="430" y="-99.8" font-family="Times,serif" font-size="14.00" fill="#000000">StoresRoutingModule</text>
</g>
<!-- StoresRoutingModule&#45;&gt;StoresModule -->
<g id="edge9" class="edge">
<title>StoresRoutingModule&#45;&gt;StoresModule</title>
<path fill="none" stroke="#000000" d="M430,-122.1061C430,-141.3391 430,-169 430,-169 430,-169 838.753,-169 838.753,-169"/>
<polygon fill="#000000" stroke="#000000" points="838.753,-172.5001 848.753,-169 838.7529,-165.5001 838.753,-172.5001"/>
</g>
<!-- EventEmitterStore -->
<g id="node11" class="node">
<title>EventEmitterStore</title>
<ellipse fill="#fdb462" stroke="#000000" cx="253" cy="-104" rx="82.8187" ry="18"/>
<text text-anchor="middle" x="253" y="-99.8" font-family="Times,serif" font-size="14.00" fill="#000000">EventEmitterStore</text>
</g>
<!-- EventEmitterStore&#45;&gt;StoresModule -->
<g id="edge10" class="edge">
<title>EventEmitterStore&#45;&gt;StoresModule</title>
<path fill="none" stroke="#000000" d="M253,-122.2843C253,-143.3211 253,-175 253,-175 253,-175 838.7187,-175 838.7187,-175"/>
<polygon fill="#000000" stroke="#000000" points="838.7187,-178.5001 848.7187,-175 838.7186,-171.5001 838.7187,-178.5001"/>
</g>
<!-- StoresService -->
<g id="node12" class="node">
<title>StoresService</title>
<ellipse fill="#fdb462" stroke="#000000" cx="88" cy="-104" rx="64.2591" ry="18"/>
<text text-anchor="middle" x="88" y="-99.8" font-family="Times,serif" font-size="14.00" fill="#000000">StoresService</text>
</g>
<!-- StoresService&#45;&gt;StoresModule -->
<g id="edge11" class="edge">
<title>StoresService&#45;&gt;StoresModule</title>
<path fill="none" stroke="#000000" d="M88,-122.0908C88,-145.1328 88,-182 88,-182 88,-182 838.7697,-182 838.7697,-182"/>
<polygon fill="#000000" stroke="#000000" points="838.7697,-185.5001 848.7697,-182 838.7696,-178.5001 838.7697,-185.5001"/>
</g>
</g>
</svg>
