<?xml version="1.0" encoding="UTF-8" standalone="no"?>
<!DOCTYPE svg PUBLIC "-//W3C//DTD SVG 1.1//EN"
 "http://www.w3.org/Graphics/SVG/1.1/DTD/svg11.dtd">
<!-- Generated by graphviz version 2.40.1 (20161225.0304)
 -->
<!-- Title: dependencies Pages: 1 -->
<svg width="815pt" height="284pt"
 viewBox="0.00 0.00 815.00 284.00" xmlns="http://www.w3.org/2000/svg" xmlns:xlink="http://www.w3.org/1999/xlink">
<g id="graph0" class="graph" transform="scale(1 1) rotate(0) translate(4 280)">
<title>dependencies</title>
<polygon fill="#ffffff" stroke="transparent" points="-4,4 -4,-280 811,-280 811,4 -4,4"/>
<text text-anchor="start" x="382.5091" y="-42.4" font-family="sans-serif" font-weight="bold" font-size="14.00" fill="#000000">Legend</text>
<polygon fill="#ffffb3" stroke="transparent" points="169.5,-10 169.5,-30 189.5,-30 189.5,-10 169.5,-10"/>
<text text-anchor="start" x="193.129" y="-15.4" font-family="sans-serif" font-size="14.00" fill="#000000"> &#160;Declarations</text>
<polygon fill="#8dd3c7" stroke="transparent" points="282.5,-10 282.5,-30 302.5,-30 302.5,-10 282.5,-10"/>
<text text-anchor="start" x="306.2251" y="-15.4" font-family="sans-serif" font-size="14.00" fill="#000000"> &#160;Module</text>
<polygon fill="#80b1d3" stroke="transparent" points="368.5,-10 368.5,-30 388.5,-30 388.5,-10 368.5,-10"/>
<text text-anchor="start" x="392.2812" y="-15.4" font-family="sans-serif" font-size="14.00" fill="#000000"> &#160;Bootstrap</text>
<polygon fill="#fdb462" stroke="transparent" points="465.5,-10 465.5,-30 485.5,-30 485.5,-10 465.5,-10"/>
<text text-anchor="start" x="489.1732" y="-15.4" font-family="sans-serif" font-size="14.00" fill="#000000"> &#160;Providers</text>
<polygon fill="#fb8072" stroke="transparent" points="561.5,-10 561.5,-30 581.5,-30 581.5,-10 561.5,-10"/>
<text text-anchor="start" x="585.2258" y="-15.4" font-family="sans-serif" font-size="14.00" fill="#000000"> &#160;Exports</text>
<g id="clust1" class="cluster">
<title>cluster_PendingModule</title>
<polygon fill="none" stroke="#000000" stroke-dasharray="1,5" points="8,-70 8,-268 799,-268 799,-70 8,-70"/>
</g>
<g id="clust2" class="cluster">
<title>cluster_PendingModule_declarations</title>
<polygon fill="none" stroke="#000000" points="647,-78 647,-130 791,-130 791,-78 647,-78"/>
</g>
<g id="clust4" class="cluster">
<title>cluster_PendingModule_imports</title>
<polygon fill="none" stroke="#000000" points="363,-78 363,-130 639,-130 639,-78 363,-78"/>
</g>
<g id="clust5" class="cluster">
<title>cluster_PendingModule_exports</title>
<polygon fill="none" stroke="#000000" points="347,-208 347,-260 493,-260 493,-208 347,-208"/>
</g>
<g id="clust7" class="cluster">
<title>cluster_PendingModule_providers</title>
<polygon fill="none" stroke="#000000" points="16,-78 16,-130 355,-130 355,-78 16,-78"/>
</g>
<!-- PendingComponent -->
<g id="node1" class="node">
<title>PendingComponent</title>
<polygon fill="#ffffb3" stroke="#000000" points="782.7204,-122 655.2796,-122 655.2796,-86 782.7204,-86 782.7204,-122"/>
<text text-anchor="middle" x="719" y="-99.8" font-family="Times,serif" font-size="14.00" fill="#000000">PendingComponent</text>
</g>
<!-- PendingModule -->
<g id="node2" class="node">
<title>PendingModule</title>
<polygon fill="#8dd3c7" stroke="#000000" points="472.9385,-187 469.9385,-191 448.9385,-191 445.9385,-187 367.0615,-187 367.0615,-151 472.9385,-151 472.9385,-187"/>
<text text-anchor="middle" x="420" y="-164.8" font-family="Times,serif" font-size="14.00" fill="#000000">PendingModule</text>
</g>
<!-- PendingComponent&#45;&gt;PendingModule -->
<g id="edge1" class="edge">
<title>PendingComponent&#45;&gt;PendingModule</title>
<path fill="none" stroke="#000000" d="M719,-122.2843C719,-143.3211 719,-175 719,-175 719,-175 482.7669,-175 482.7669,-175"/>
<polygon fill="#000000" stroke="#000000" points="482.767,-171.5001 472.7669,-175 482.7669,-178.5001 482.767,-171.5001"/>
</g>
<!-- PendingComponent  -->
<g id="node5" class="node">
<title>PendingComponent </title>
<polygon fill="#fb8072" stroke="#000000" points="485.2205,-252 354.7795,-252 354.7795,-216 485.2205,-216 485.2205,-252"/>
<text text-anchor="middle" x="420" y="-229.8" font-family="Times,serif" font-size="14.00" fill="#000000">PendingComponent </text>
</g>
<!-- PendingModule&#45;&gt;PendingComponent  -->
<g id="edge4" class="edge">
<title>PendingModule&#45;&gt;PendingComponent </title>
<path fill="none" stroke="#000000" stroke-dasharray="5,2" d="M420,-187.1061C420,-187.1061 420,-205.991 420,-205.991"/>
<polygon fill="#000000" stroke="#000000" points="416.5001,-205.9909 420,-215.991 423.5001,-205.991 416.5001,-205.9909"/>
</g>
<!-- PendingRoutinModule -->
<g id="node3" class="node">
<title>PendingRoutinModule</title>
<polygon fill="#8dd3c7" stroke="#000000" points="630.5561,-122 627.5561,-126 606.5561,-126 603.5561,-122 487.4439,-122 487.4439,-86 630.5561,-86 630.5561,-122"/>
<text text-anchor="middle" x="559" y="-99.8" font-family="Times,serif" font-size="14.00" fill="#000000">PendingRoutinModule</text>
</g>
<!-- PendingRoutinModule&#45;&gt;PendingModule -->
<g id="edge2" class="edge">
<title>PendingRoutinModule&#45;&gt;PendingModule</title>
<path fill="none" stroke="#000000" d="M559,-122.0225C559,-139.3734 559,-163 559,-163 559,-163 482.9465,-163 482.9465,-163"/>
<polygon fill="#000000" stroke="#000000" points="482.9465,-159.5001 472.9465,-163 482.9464,-166.5001 482.9465,-159.5001"/>
</g>
<!-- SharedModule -->
<g id="node4" class="node">
<title>SharedModule</title>
<polygon fill="#8dd3c7" stroke="#000000" points="469.4231,-122 466.4231,-126 445.4231,-126 442.4231,-122 370.5769,-122 370.5769,-86 469.4231,-86 469.4231,-122"/>
<text text-anchor="middle" x="420" y="-99.8" font-family="Times,serif" font-size="14.00" fill="#000000">SharedModule</text>
</g>
<!-- SharedModule&#45;&gt;PendingModule -->
<g id="edge3" class="edge">
<title>SharedModule&#45;&gt;PendingModule</title>
<path fill="none" stroke="#000000" d="M420,-122.1061C420,-122.1061 420,-140.991 420,-140.991"/>
<polygon fill="#000000" stroke="#000000" points="416.5001,-140.9909 420,-150.991 423.5001,-140.991 416.5001,-140.9909"/>
</g>
<!-- PendingService -->
<g id="node6" class="node">
<title>PendingService</title>
<ellipse fill="#fdb462" stroke="#000000" cx="275" cy="-104" rx="71.7892" ry="18"/>
<text text-anchor="middle" x="275" y="-99.8" font-family="Times,serif" font-size="14.00" fill="#000000">PendingService</text>
</g>
<!-- PendingService&#45;&gt;PendingModule -->
<g id="edge5" class="edge">
<title>PendingService&#45;&gt;PendingModule</title>
<path fill="none" stroke="#000000" d="M275,-122.0225C275,-139.3734 275,-163 275,-163 275,-163 357.2415,-163 357.2415,-163"/>
<polygon fill="#000000" stroke="#000000" points="357.2415,-166.5001 367.2415,-163 357.2415,-159.5001 357.2415,-166.5001"/>
</g>
<!-- ShipmentsService -->
<g id="node7" class="node">
<title>ShipmentsService</title>
<ellipse fill="#fdb462" stroke="#000000" cx="105" cy="-104" rx="80.5354" ry="18"/>
<text text-anchor="middle" x="105" y="-99.8" font-family="Times,serif" font-size="14.00" fill="#000000">ShipmentsService</text>
</g>
<!-- ShipmentsService&#45;&gt;PendingModule -->
<g id="edge6" class="edge">
<title>ShipmentsService&#45;&gt;PendingModule</title>
<path fill="none" stroke="#000000" d="M105,-122.2843C105,-143.3211 105,-175 105,-175 105,-175 357.2761,-175 357.2761,-175"/>
<polygon fill="#000000" stroke="#000000" points="357.2761,-178.5001 367.2761,-175 357.276,-171.5001 357.2761,-178.5001"/>
</g>
</g>
</svg>
