<?xml version="1.0" encoding="UTF-8" standalone="no"?>
<!DOCTYPE svg PUBLIC "-//W3C//DTD SVG 1.1//EN"
 "http://www.w3.org/Graphics/SVG/1.1/DTD/svg11.dtd">
<!-- Generated by graphviz version 2.40.1 (20161225.0304)
 -->
<!-- Title: dependencies Pages: 1 -->
<svg width="1137pt" height="284pt"
 viewBox="0.00 0.00 1137.00 284.00" xmlns="http://www.w3.org/2000/svg" xmlns:xlink="http://www.w3.org/1999/xlink">
<g id="graph0" class="graph" transform="scale(1 1) rotate(0) translate(4 280)">
<title>dependencies</title>
<polygon fill="#ffffff" stroke="transparent" points="-4,4 -4,-280 1133,-280 1133,4 -4,4"/>
<text text-anchor="start" x="543.5091" y="-42.4" font-family="sans-serif" font-weight="bold" font-size="14.00" fill="#000000">Legend</text>
<polygon fill="#ffffb3" stroke="transparent" points="330.5,-10 330.5,-30 350.5,-30 350.5,-10 330.5,-10"/>
<text text-anchor="start" x="354.129" y="-15.4" font-family="sans-serif" font-size="14.00" fill="#000000"> &#160;Declarations</text>
<polygon fill="#8dd3c7" stroke="transparent" points="443.5,-10 443.5,-30 463.5,-30 463.5,-10 443.5,-10"/>
<text text-anchor="start" x="467.2251" y="-15.4" font-family="sans-serif" font-size="14.00" fill="#000000"> &#160;Module</text>
<polygon fill="#80b1d3" stroke="transparent" points="529.5,-10 529.5,-30 549.5,-30 549.5,-10 529.5,-10"/>
<text text-anchor="start" x="553.2812" y="-15.4" font-family="sans-serif" font-size="14.00" fill="#000000"> &#160;Bootstrap</text>
<polygon fill="#fdb462" stroke="transparent" points="626.5,-10 626.5,-30 646.5,-30 646.5,-10 626.5,-10"/>
<text text-anchor="start" x="650.1732" y="-15.4" font-family="sans-serif" font-size="14.00" fill="#000000"> &#160;Providers</text>
<polygon fill="#fb8072" stroke="transparent" points="722.5,-10 722.5,-30 742.5,-30 742.5,-10 722.5,-10"/>
<text text-anchor="start" x="746.2258" y="-15.4" font-family="sans-serif" font-size="14.00" fill="#000000"> &#160;Exports</text>
<g id="clust1" class="cluster">
<title>cluster_PendingModule</title>
<polygon fill="none" stroke="#000000" stroke-dasharray="1,5" points="8,-70 8,-268 1121,-268 1121,-70 8,-70"/>
</g>
<g id="clust2" class="cluster">
<title>cluster_PendingModule_declarations</title>
<polygon fill="none" stroke="#000000" points="969,-78 969,-130 1113,-130 1113,-78 969,-78"/>
</g>
<g id="clust4" class="cluster">
<title>cluster_PendingModule_imports</title>
<polygon fill="none" stroke="#000000" points="363,-78 363,-130 961,-130 961,-78 363,-78"/>
</g>
<g id="clust5" class="cluster">
<title>cluster_PendingModule_exports</title>
<polygon fill="none" stroke="#000000" points="529,-208 529,-260 675,-260 675,-208 529,-208"/>
</g>
<g id="clust7" class="cluster">
<title>cluster_PendingModule_providers</title>
<polygon fill="none" stroke="#000000" points="16,-78 16,-130 355,-130 355,-78 16,-78"/>
</g>
<!-- PendingComponent -->
<g id="node1" class="node">
<title>PendingComponent</title>
<polygon fill="#ffffb3" stroke="#000000" points="1104.7204,-122 977.2796,-122 977.2796,-86 1104.7204,-86 1104.7204,-122"/>
<text text-anchor="middle" x="1041" y="-99.8" font-family="Times,serif" font-size="14.00" fill="#000000">PendingComponent</text>
</g>
<!-- PendingModule -->
<g id="node2" class="node">
<title>PendingModule</title>
<polygon fill="#8dd3c7" stroke="#000000" points="654.9385,-187 651.9385,-191 630.9385,-191 627.9385,-187 549.0615,-187 549.0615,-151 654.9385,-151 654.9385,-187"/>
<text text-anchor="middle" x="602" y="-164.8" font-family="Times,serif" font-size="14.00" fill="#000000">PendingModule</text>
</g>
<!-- PendingComponent&#45;&gt;PendingModule -->
<g id="edge1" class="edge">
<title>PendingComponent&#45;&gt;PendingModule</title>
<path fill="none" stroke="#000000" d="M1041,-122.2921C1041,-144.2057 1041,-178 1041,-178 1041,-178 664.9537,-178 664.9537,-178"/>
<polygon fill="#000000" stroke="#000000" points="664.9537,-174.5001 654.9537,-178 664.9536,-181.5001 664.9537,-174.5001"/>
</g>
<!-- PendingComponent  -->
<g id="node7" class="node">
<title>PendingComponent </title>
<polygon fill="#fb8072" stroke="#000000" points="667.2205,-252 536.7795,-252 536.7795,-216 667.2205,-216 667.2205,-252"/>
<text text-anchor="middle" x="602" y="-229.8" font-family="Times,serif" font-size="14.00" fill="#000000">PendingComponent </text>
</g>
<!-- PendingModule&#45;&gt;PendingComponent  -->
<g id="edge6" class="edge">
<title>PendingModule&#45;&gt;PendingComponent </title>
<path fill="none" stroke="#000000" stroke-dasharray="5,2" d="M602,-187.1061C602,-187.1061 602,-205.991 602,-205.991"/>
<polygon fill="#000000" stroke="#000000" points="598.5001,-205.9909 602,-215.991 605.5001,-205.991 598.5001,-205.9909"/>
</g>
<!-- MaterialModule -->
<g id="node3" class="node">
<title>MaterialModule</title>
<polygon fill="#8dd3c7" stroke="#000000" points="953.4706,-122 950.4706,-126 929.4706,-126 926.4706,-122 846.5294,-122 846.5294,-86 953.4706,-86 953.4706,-122"/>
<text text-anchor="middle" x="900" y="-99.8" font-family="Times,serif" font-size="14.00" fill="#000000">MaterialModule</text>
</g>
<!-- MaterialModule&#45;&gt;PendingModule -->
<g id="edge2" class="edge">
<title>MaterialModule&#45;&gt;PendingModule</title>
<path fill="none" stroke="#000000" d="M900,-122.1061C900,-141.3391 900,-169 900,-169 900,-169 664.933,-169 664.933,-169"/>
<polygon fill="#000000" stroke="#000000" points="664.9331,-165.5001 654.933,-169 664.933,-172.5001 664.9331,-165.5001"/>
</g>
<!-- PendingRoutinModule -->
<g id="node4" class="node">
<title>PendingRoutinModule</title>
<polygon fill="#8dd3c7" stroke="#000000" points="828.5561,-122 825.5561,-126 804.5561,-126 801.5561,-122 685.4439,-122 685.4439,-86 828.5561,-86 828.5561,-122"/>
<text text-anchor="middle" x="757" y="-99.8" font-family="Times,serif" font-size="14.00" fill="#000000">PendingRoutinModule</text>
</g>
<!-- PendingRoutinModule&#45;&gt;PendingModule -->
<g id="edge3" class="edge">
<title>PendingRoutinModule&#45;&gt;PendingModule</title>
<path fill="none" stroke="#000000" d="M757,-122.027C757,-138.3976 757,-160 757,-160 757,-160 664.9087,-160 664.9087,-160"/>
<polygon fill="#000000" stroke="#000000" points="664.9087,-156.5001 654.9087,-160 664.9087,-163.5001 664.9087,-156.5001"/>
</g>
<!-- ToolbarLinkModule -->
<g id="node5" class="node">
<title>ToolbarLinkModule</title>
<polygon fill="#8dd3c7" stroke="#000000" points="667.3118,-122 664.3118,-126 643.3118,-126 640.3118,-122 536.6882,-122 536.6882,-86 667.3118,-86 667.3118,-122"/>
<text text-anchor="middle" x="602" y="-99.8" font-family="Times,serif" font-size="14.00" fill="#000000">ToolbarLinkModule</text>
</g>
<!-- ToolbarLinkModule&#45;&gt;PendingModule -->
<g id="edge4" class="edge">
<title>ToolbarLinkModule&#45;&gt;PendingModule</title>
<path fill="none" stroke="#000000" d="M602,-122.1061C602,-122.1061 602,-140.991 602,-140.991"/>
<polygon fill="#000000" stroke="#000000" points="598.5001,-140.9909 602,-150.991 605.5001,-140.991 598.5001,-140.9909"/>
</g>
<!-- ToolbarOptionsModule -->
<g id="node6" class="node">
<title>ToolbarOptionsModule</title>
<polygon fill="#8dd3c7" stroke="#000000" points="519.2007,-122 516.2007,-126 495.2007,-126 492.2007,-122 370.7993,-122 370.7993,-86 519.2007,-86 519.2007,-122"/>
<text text-anchor="middle" x="445" y="-99.8" font-family="Times,serif" font-size="14.00" fill="#000000">ToolbarOptionsModule</text>
</g>
<!-- ToolbarOptionsModule&#45;&gt;PendingModule -->
<g id="edge5" class="edge">
<title>ToolbarOptionsModule&#45;&gt;PendingModule</title>
<path fill="none" stroke="#000000" d="M445,-122.027C445,-138.3976 445,-160 445,-160 445,-160 538.847,-160 538.847,-160"/>
<polygon fill="#000000" stroke="#000000" points="538.847,-163.5001 548.847,-160 538.8469,-156.5001 538.847,-163.5001"/>
</g>
<!-- PendingService -->
<g id="node8" class="node">
<title>PendingService</title>
<ellipse fill="#fdb462" stroke="#000000" cx="275" cy="-104" rx="71.7892" ry="18"/>
<text text-anchor="middle" x="275" y="-99.8" font-family="Times,serif" font-size="14.00" fill="#000000">PendingService</text>
</g>
<!-- PendingService&#45;&gt;PendingModule -->
<g id="edge7" class="edge">
<title>PendingService&#45;&gt;PendingModule</title>
<path fill="none" stroke="#000000" d="M275,-122.1061C275,-141.3391 275,-169 275,-169 275,-169 539.0984,-169 539.0984,-169"/>
<polygon fill="#000000" stroke="#000000" points="539.0984,-172.5001 549.0984,-169 539.0983,-165.5001 539.0984,-172.5001"/>
</g>
<!-- ShipmentsService -->
<g id="node9" class="node">
<title>ShipmentsService</title>
<ellipse fill="#fdb462" stroke="#000000" cx="105" cy="-104" rx="80.5354" ry="18"/>
<text text-anchor="middle" x="105" y="-99.8" font-family="Times,serif" font-size="14.00" fill="#000000">ShipmentsService</text>
</g>
<!-- ShipmentsService&#45;&gt;PendingModule -->
<g id="edge8" class="edge">
<title>ShipmentsService&#45;&gt;PendingModule</title>
<path fill="none" stroke="#000000" d="M105,-122.2921C105,-144.2057 105,-178 105,-178 105,-178 538.8123,-178 538.8123,-178"/>
<polygon fill="#000000" stroke="#000000" points="538.8123,-181.5001 548.8123,-178 538.8123,-174.5001 538.8123,-181.5001"/>
</g>
</g>
</svg>
