<?xml version="1.0" encoding="UTF-8" standalone="no"?>
<!DOCTYPE svg PUBLIC "-//W3C//DTD SVG 1.1//EN"
 "http://www.w3.org/Graphics/SVG/1.1/DTD/svg11.dtd">
<!-- Generated by graphviz version 2.40.1 (20161225.0304)
 -->
<!-- Title: dependencies Pages: 1 -->
<svg width="832pt" height="211pt"
 viewBox="0.00 0.00 832.00 211.00" xmlns="http://www.w3.org/2000/svg" xmlns:xlink="http://www.w3.org/1999/xlink">
<g id="graph0" class="graph" transform="scale(1 1) rotate(0) translate(4 207)">
<title>dependencies</title>
<polygon fill="#ffffff" stroke="transparent" points="-4,4 -4,-207 828,-207 828,4 -4,4"/>
<text text-anchor="start" x="391.0091" y="-42.4" font-family="sans-serif" font-weight="bold" font-size="14.00" fill="#000000">Legend</text>
<polygon fill="#ffffb3" stroke="transparent" points="178,-10 178,-30 198,-30 198,-10 178,-10"/>
<text text-anchor="start" x="201.629" y="-15.4" font-family="sans-serif" font-size="14.00" fill="#000000"> &#160;Declarations</text>
<polygon fill="#8dd3c7" stroke="transparent" points="291,-10 291,-30 311,-30 311,-10 291,-10"/>
<text text-anchor="start" x="314.7251" y="-15.4" font-family="sans-serif" font-size="14.00" fill="#000000"> &#160;Module</text>
<polygon fill="#80b1d3" stroke="transparent" points="377,-10 377,-30 397,-30 397,-10 377,-10"/>
<text text-anchor="start" x="400.7812" y="-15.4" font-family="sans-serif" font-size="14.00" fill="#000000"> &#160;Bootstrap</text>
<polygon fill="#fdb462" stroke="transparent" points="474,-10 474,-30 494,-30 494,-10 474,-10"/>
<text text-anchor="start" x="497.6732" y="-15.4" font-family="sans-serif" font-size="14.00" fill="#000000"> &#160;Providers</text>
<polygon fill="#fb8072" stroke="transparent" points="570,-10 570,-30 590,-30 590,-10 570,-10"/>
<text text-anchor="start" x="593.7258" y="-15.4" font-family="sans-serif" font-size="14.00" fill="#000000"> &#160;Exports</text>
<g id="clust1" class="cluster">
<title>cluster_QuotingModule</title>
<polygon fill="none" stroke="#000000" stroke-dasharray="1,5" points="8,-70 8,-195 816,-195 816,-70 8,-70"/>
</g>
<g id="clust2" class="cluster">
<title>cluster_QuotingModule_declarations</title>
<polygon fill="none" stroke="#000000" points="664,-78 664,-130 808,-130 808,-78 664,-78"/>
</g>
<g id="clust4" class="cluster">
<title>cluster_QuotingModule_imports</title>
<polygon fill="none" stroke="#000000" points="16,-78 16,-130 656,-130 656,-78 16,-78"/>
</g>
<!-- QuotingComponent -->
<g id="node1" class="node">
<title>QuotingComponent</title>
<polygon fill="#ffffb3" stroke="#000000" points="799.7204,-122 672.2796,-122 672.2796,-86 799.7204,-86 799.7204,-122"/>
<text text-anchor="middle" x="736" y="-99.8" font-family="Times,serif" font-size="14.00" fill="#000000">QuotingComponent</text>
</g>
<!-- QuotingModule -->
<g id="node2" class="node">
<title>QuotingModule</title>
<polygon fill="#8dd3c7" stroke="#000000" points="423.9385,-187 420.9385,-191 399.9385,-191 396.9385,-187 318.0615,-187 318.0615,-151 423.9385,-151 423.9385,-187"/>
<text text-anchor="middle" x="371" y="-164.8" font-family="Times,serif" font-size="14.00" fill="#000000">QuotingModule</text>
</g>
<!-- QuotingComponent&#45;&gt;QuotingModule -->
<g id="edge1" class="edge">
<title>QuotingComponent&#45;&gt;QuotingModule</title>
<path fill="none" stroke="#000000" d="M736,-122.2843C736,-143.3211 736,-175 736,-175 736,-175 434.0741,-175 434.0741,-175"/>
<polygon fill="#000000" stroke="#000000" points="434.0742,-171.5001 424.0741,-175 434.0741,-178.5001 434.0742,-171.5001"/>
</g>
<!-- QuotingAdministratorModule -->
<g id="node3" class="node">
<title>QuotingAdministratorModule</title>
<polygon fill="#8dd3c7" stroke="#000000" points="647.9776,-122 644.9776,-126 623.9776,-126 620.9776,-122 464.0224,-122 464.0224,-86 647.9776,-86 647.9776,-122"/>
<text text-anchor="middle" x="556" y="-99.8" font-family="Times,serif" font-size="14.00" fill="#000000">QuotingAdministratorModule</text>
</g>
<!-- QuotingAdministratorModule&#45;&gt;QuotingModule -->
<g id="edge2" class="edge">
<title>QuotingAdministratorModule&#45;&gt;QuotingModule</title>
<path fill="none" stroke="#000000" d="M556,-122.0225C556,-139.3734 556,-163 556,-163 556,-163 434.0136,-163 434.0136,-163"/>
<polygon fill="#000000" stroke="#000000" points="434.0136,-159.5001 424.0136,-163 434.0135,-166.5001 434.0136,-159.5001"/>
</g>
<!-- QuotingRoutingModule -->
<g id="node4" class="node">
<title>QuotingRoutingModule</title>
<polygon fill="#8dd3c7" stroke="#000000" points="446.0561,-122 443.0561,-126 422.0561,-126 419.0561,-122 295.9439,-122 295.9439,-86 446.0561,-86 446.0561,-122"/>
<text text-anchor="middle" x="371" y="-99.8" font-family="Times,serif" font-size="14.00" fill="#000000">QuotingRoutingModule</text>
</g>
<!-- QuotingRoutingModule&#45;&gt;QuotingModule -->
<g id="edge3" class="edge">
<title>QuotingRoutingModule&#45;&gt;QuotingModule</title>
<path fill="none" stroke="#000000" d="M371,-122.1061C371,-122.1061 371,-140.991 371,-140.991"/>
<polygon fill="#000000" stroke="#000000" points="367.5001,-140.9909 371,-150.991 374.5001,-140.991 367.5001,-140.9909"/>
</g>
<!-- QuotingSellerModule -->
<g id="node5" class="node">
<title>QuotingSellerModule</title>
<polygon fill="#8dd3c7" stroke="#000000" points="278.0912,-122 275.0912,-126 254.0912,-126 251.0912,-122 139.9088,-122 139.9088,-86 278.0912,-86 278.0912,-122"/>
<text text-anchor="middle" x="209" y="-99.8" font-family="Times,serif" font-size="14.00" fill="#000000">QuotingSellerModule</text>
</g>
<!-- QuotingSellerModule&#45;&gt;QuotingModule -->
<g id="edge4" class="edge">
<title>QuotingSellerModule&#45;&gt;QuotingModule</title>
<path fill="none" stroke="#000000" d="M209,-122.0225C209,-139.3734 209,-163 209,-163 209,-163 307.9551,-163 307.9551,-163"/>
<polygon fill="#000000" stroke="#000000" points="307.9552,-166.5001 317.9551,-163 307.9551,-159.5001 307.9552,-166.5001"/>
</g>
<!-- SharedModule -->
<g id="node6" class="node">
<title>SharedModule</title>
<polygon fill="#8dd3c7" stroke="#000000" points="122.4231,-122 119.4231,-126 98.4231,-126 95.4231,-122 23.5769,-122 23.5769,-86 122.4231,-86 122.4231,-122"/>
<text text-anchor="middle" x="73" y="-99.8" font-family="Times,serif" font-size="14.00" fill="#000000">SharedModule</text>
</g>
<!-- SharedModule&#45;&gt;QuotingModule -->
<g id="edge5" class="edge">
<title>SharedModule&#45;&gt;QuotingModule</title>
<path fill="none" stroke="#000000" d="M73,-122.2843C73,-143.3211 73,-175 73,-175 73,-175 308.067,-175 308.067,-175"/>
<polygon fill="#000000" stroke="#000000" points="308.067,-178.5001 318.067,-175 308.0669,-171.5001 308.067,-178.5001"/>
</g>
</g>
</svg>
