<svg id="sc-icon-outlined-notifications_notificacionesv" data-name="sc-icon-outlined-notifications notificacionesv" xmlns="http://www.w3.org/2000/svg" xmlns:xlink="http://www.w3.org/1999/xlink" width="24" height="24" viewBox="0 0 24 24">
  <defs>
    <clipPath id="clip-path">
      <path id="Path_35020" data-name="Path 35020" d="M2,0H22a2,2,0,0,1,2,2V22a2,2,0,0,1-2,2H2a2,2,0,0,1-2-2V2A2,2,0,0,1,2,0Z" transform="translate(1386.5 483)" fill="#f8f8f8" stroke="#3dcfea" stroke-width="2"/>
    </clipPath>
  </defs>
  <g id="Mask_Group_25849" data-name="Mask Group 25849" transform="translate(-1386.5 -483)" clip-path="url(#clip-path)">
    <g id="noun-notification-1594276" transform="translate(1388.705 485.139)">
      <path id="Union_49" data-name="Union 49" d="M21288.641,24112.516h-4.568a1.762,1.762,0,0,1-1.779-1.742v-.369a2.86,2.86,0,0,1,2.238-2.766v-4.184a7.737,7.737,0,0,1,15.471,0v4.184a2.86,2.86,0,0,1,2.238,2.766v.369a1.762,1.762,0,0,1-1.779,1.742h-4.568a3.643,3.643,0,0,1-7.252,0Zm3.627,1.266a1.568,1.568,0,0,0,1.549-1.266h-3.1A1.57,1.57,0,0,0,21292.268,24113.781Zm-5.678-10.326v4.758a1.4,1.4,0,0,1-1.4,1.381.826.826,0,0,0-.836.811v.084h15.822v-.084a.826.826,0,0,0-.836-.811,1.4,1.4,0,0,1-1.4-1.381v-4.758a5.678,5.678,0,0,0-11.354,0Z" transform="translate(-21282.395 -24095.961)" fill="#676767"/>
    </g>
    <g id="notification" transform="translate(1399.486 485.201)">
      <circle id="Ellipse_1" data-name="Ellipse 1" cx="5" cy="5" r="5" transform="translate(0.514 -2.201)" fill="#6e6ef0"/>
    </g>
  </g>
</svg>
