<svg xmlns="http://www.w3.org/2000/svg" xmlns:xlink="http://www.w3.org/1999/xlink" width="24" height="24" viewBox="0 0 24 24">
  <defs>
    <clipPath id="clip-path">
      <path id="path3453" d="M0-682.665H24v24H0Z" transform="translate(0 682.665)" fill="#000"/>
    </clipPath>
  </defs>
  <g id="set_icons" data-name="set icons" transform="translate(-59 -187)">
    <g id="sc-icon-outline-help_claim" data-name="sc-icon-outline-help claim" transform="translate(59 187)">
      <g id="g3449">
        <g id="g3451" clip-path="url(#clip-path)">
          <g id="g3457" transform="translate(9.627 9.628)">
            <path id="path3459" d="M12.613-223.476l-3.646-1.009a6.761,6.761,0,0,1-3.294.852,6.8,6.8,0,0,1-6.653-5.457l1.962-.389a4.792,4.792,0,0,0,4.692,3.846,4.764,4.764,0,0,0,2.6-.769l.377-.245,1.092.3-.3-1.092.245-.378a4.764,4.764,0,0,0,.769-2.6,4.792,4.792,0,0,0-3.846-4.692L7-237.07a6.8,6.8,0,0,1,5.457,6.654,6.762,6.762,0,0,1-.852,3.294Z" transform="translate(0 236.089)" fill="#000"/>
          </g>
          <g id="g3461" transform="translate(0.703 0.703)">
            <path id="path3463" d="M-233.729-1a7.946,7.946,0,0,1,7.937,7.937,7.946,7.946,0,0,1-7.937,7.937,7.915,7.915,0,0,1-3.877-1.01l-4.216,1.166,1.166-4.216a7.915,7.915,0,0,1-1.01-3.877A7.946,7.946,0,0,1-233.729-1Zm0,13.873a5.943,5.943,0,0,0,5.937-5.937A5.943,5.943,0,0,0-233.729,1a5.943,5.943,0,0,0-5.937,5.937,5.916,5.916,0,0,0,.93,3.192l.24.376-.458,1.657,1.656-.458.376.24A5.915,5.915,0,0,0-233.729,12.873Z" transform="translate(242.523 1.857)" fill="#000"/>
          </g>
          <path id="path3465" d="M242.755-319.65h-2.089v-1.683h2.089Z" transform="translate(-232.192 333.731)" fill="#000"/>
          <g id="g3467" transform="translate(7.768 6.019)">
            <path id="path3469" d="M2.729-54.773h-2v-1.593l1.492-1.365a.722.722,0,0,0,.238-.539A.73.73,0,0,0,1.729-59,.73.73,0,0,0,1-58.27H-1A2.732,2.732,0,0,1,1.729-61,2.732,2.732,0,0,1,4.459-58.27a2.736,2.736,0,0,1-.888,2.014l-.842.771Z" transform="translate(0 60)" fill="#000"/>
          </g>
        </g>
      </g>
    </g>
  </g>
</svg>
