<svg xmlns="http://www.w3.org/2000/svg" xmlns:xlink="http://www.w3.org/1999/xlink" width="24" height="24" viewBox="0 0 24 24">
  <defs>
    <clipPath id="clip-path">
      <rect id="Rectangle_13836" data-name="Rectangle 13836" width="24" height="24" transform="translate(617 1619)" fill="#000" stroke="#5dffc7" stroke-width="2"/>
    </clipPath>
  </defs>
  <g id="set_icons" data-name="set icons" transform="translate(-59 -187)">
    <g id="sc-icon-outlined-settings" transform="translate(59 187)">
      <g id="Mask_Group_25850" data-name="Mask Group 25850" transform="translate(-617 -1619)" clip-path="url(#clip-path)">
        <g id="noun-setting-6741820" transform="translate(613.055 1615.055)">
          <g id="Group_24339" data-name="Group 24339" transform="translate(5.951 5.951)">
            <path id="Union_119" data-name="Union 119" d="M8.952,19.986a1.687,1.687,0,0,1-1.68-1.676v-.9c-.2-.075-.4-.158-.6-.247l-.636.634a1.67,1.67,0,0,1-2.373,0L2.19,16.32a1.679,1.679,0,0,1,0-2.373l.64-.636c-.092-.193-.175-.4-.252-.6h-.9A1.678,1.678,0,0,1,0,11.034V8.954a1.686,1.686,0,0,1,1.674-1.68h.9c.077-.206.16-.406.252-.6l-.64-.634A1.7,1.7,0,0,1,1.7,4.853,1.66,1.66,0,0,1,2.19,3.666L3.664,2.192a1.674,1.674,0,0,1,2.373,0l.636.64c.2-.092.4-.177.6-.252V1.674A1.688,1.688,0,0,1,8.952,0h2.081a1.686,1.686,0,0,1,1.68,1.674v.905c.2.075.4.16.6.252l.64-.64a1.667,1.667,0,0,1,2.368,0l1.476,1.474a1.674,1.674,0,0,1,0,2.373l-.636.634c.091.195.171.395.247.6h.905a1.688,1.688,0,0,1,1.676,1.68v2.081a1.679,1.679,0,0,1-1.676,1.674H17.4c-.075.2-.156.41-.247.6l.636.636a1.716,1.716,0,0,1,.493,1.187,1.677,1.677,0,0,1-.493,1.187l-1.476,1.474a1.662,1.662,0,0,1-2.277.085h-.006l-.091-.085-.634-.634c-.2.089-.4.171-.6.247v.9a1.685,1.685,0,0,1-1.68,1.676ZM6.977,15.111l.012,0a5.232,5.232,0,0,0,1.512.63l.015.006a1.048,1.048,0,0,1,.73.934v1.335h1.491V16.69a1.045,1.045,0,0,1,.734-.94l.013-.006a5.254,5.254,0,0,0,1.508-.63l.012,0a1.044,1.044,0,0,1,.5-.125,1.031,1.031,0,0,1,.694.268l.092.087v.012l.848.846L16.2,15.134l-.938-.94a1.028,1.028,0,0,1-.143-1.187L15.122,13a5.407,5.407,0,0,0,.62-1.508l.006-.019.006-.023a2.17,2.17,0,0,1,.1-.2l.006-.006a1,1,0,0,1,.832-.5h1.323V9.249H16.69a1.022,1.022,0,0,1-.942-.736L15.742,8.5a5.443,5.443,0,0,0-.62-1.51l-.008-.012a1.022,1.022,0,0,1,.064-1.092V5.87l.085-.089.932-.929L15.134,3.789l-.93.934a.993.993,0,0,1-.7.287,1.023,1.023,0,0,1-.51-.141,5.236,5.236,0,0,0-1.508-.628l-.013-.006a1.045,1.045,0,0,1-.734-.938V1.969H9.247V3.3a1.043,1.043,0,0,1-.73.938L8.5,4.242a5.35,5.35,0,0,0-1.512.628.939.939,0,0,1-.51.141.966.966,0,0,1-.668-.264L5.8,4.741l-.952-.952L3.787,4.853l.942.942a1.038,1.038,0,0,1,.146,1.185l-.006.012A5.467,5.467,0,0,0,4.24,8.5l-.006.012a1.019,1.019,0,0,1-.938.736H1.969V10.74H3.3a1.047,1.047,0,0,1,.938.728l.006.019A5.431,5.431,0,0,0,4.87,13l.006.012a1.019,1.019,0,0,1-.146,1.187l-.006.012-.936.929L4.853,16.2l.94-.944a1.037,1.037,0,0,1,.692-.268A1.025,1.025,0,0,1,6.977,15.111Zm-.622-1.481a5.143,5.143,0,1,1,7.274-7.272,5.09,5.09,0,0,1,1.5,3.635,5.167,5.167,0,0,1-1.5,3.637,5.148,5.148,0,0,1-7.274,0ZM7.748,7.75a3.176,3.176,0,1,0,2.244-.929A3.15,3.15,0,0,0,7.748,7.75Z" transform="translate(0 0)" fill="#000"/>
          </g>
        </g>
      </g>
    </g>
  </g>
</svg>
