<svg xmlns="http://www.w3.org/2000/svg" xmlns:xlink="http://www.w3.org/1999/xlink" width="24" height="24" viewBox="0 0 24 24"><defs><clipPath id="a"><path d="M2,0H22a2,2,0,0,1,2,2V22a2,2,0,0,1-2,2H2a2,2,0,0,1-2-2V2A2,2,0,0,1,2,0Z" transform="translate(687 491)" fill="#f2f2ff" stroke="#3dcfea" stroke-width="2"/></clipPath></defs><g transform="translate(-687 -491)" clip-path="url(#a)"><path d="M85.882-817.286a2.161,2.161,0,0,1-.834-.8,2.132,2.132,0,0,1-.3-1.113v-4.376l-2.143-1.178a1.044,1.044,0,0,1-.429-.4,1.084,1.084,0,0,1-.134-.536,1.108,1.108,0,0,1,.135-.541,1.026,1.026,0,0,1,.429-.405l7.812-4.255a2.035,2.035,0,0,1,.5-.2,2.138,2.138,0,0,1,.525-.065,2.131,2.131,0,0,1,.525.065,2.037,2.037,0,0,1,.5.2l8.969,4.895a.976.976,0,0,1,.416.394,1.092,1.092,0,0,1,.148.552v5.966a1,1,0,0,1-.3.733,1,1,0,0,1-.733.3,1.006,1.006,0,0,1-.735-.3.989.989,0,0,1-.3-.733v-5.477l-1.8.988v4.376a2.132,2.132,0,0,1-.3,1.113,2.161,2.161,0,0,1-.834.8l-4.542,2.443a2.031,2.031,0,0,1-.5.2,2.1,2.1,0,0,1-.52.065,2.1,2.1,0,0,1-.52-.065,2.032,2.032,0,0,1-.5-.2Zm5.558-5.025,6.261-3.382-6.261-3.382-6.261,3.382Zm0,5.685,4.627-2.5v-3.351L92.48-820.5a2,2,0,0,1-.505.2,2.236,2.236,0,0,1-.534.065,2.236,2.236,0,0,1-.534-.065,2,2,0,0,1-.505-.2l-3.587-1.977v3.351ZM91.44-822.312ZM91.44-819.2ZM91.44-819.2Z" transform="translate(606.977 1326.152)" fill="#676767"/></g></svg>