<svg xmlns="http://www.w3.org/2000/svg" xmlns:xlink="http://www.w3.org/1999/xlink" width="24" height="24" viewBox="0 0 24 24">
  <defs>
    <clipPath id="clip-path">
      <rect id="Rectangle_11765" data-name="Rectangle 11765" width="24" height="24" rx="2" fill="none" stroke="#15c3b5" stroke-width="2"/>
    </clipPath>
  </defs>
  <g id="set_icons" data-name="set icons" transform="translate(-93 -187)">
    <g id="icon-outlined_pay_pago_dinero_cash_peso_finance_finanzas" data-name="icon-outlined pay pago dinero cash peso finance finanzas" transform="translate(93 187)">
      <g id="Mask_Group_1370" data-name="Mask Group 1370" clip-path="url(#clip-path)">
        <path id="Path_14465" data-name="Path 14465" d="M498.657,385.926a4.676,4.676,0,0,0-4.676-4.676,2.668,2.668,0,1,1,2.663-2.673,1,1,0,1,0,2,0v-.01a4.672,4.672,0,0,0-3.667-4.549v-.777a1,1,0,1,0-2,0v.769a4.674,4.674,0,0,0,1,9.243,2.668,2.668,0,1,1-2.673,2.673,1,1,0,0,0-2,0,4.68,4.68,0,0,0,3.672,4.561v.777a1,1,0,1,0,2,0v-.774A4.673,4.673,0,0,0,498.657,385.926Z" transform="translate(-482.292 -370.253)" fill="#000"/>
      </g>
    </g>
  </g>
</svg>
