<svg id="sc-icon-logo-grupo_exito" data-name="sc-icon-logo-grupo exito" xmlns="http://www.w3.org/2000/svg" width="72.784" height="42.258" viewBox="0 0 72.784 42.258">
  <path id="Path_35078" data-name="Path 35078" d="M223.4,31.948a1.078,1.078,0,0,0-.431-.281,1.918,1.918,0,0,0-.653-.1,1.766,1.766,0,0,0-.807.16,1.547,1.547,0,0,0-.508.4,1.486,1.486,0,0,0-.267.5c-.03.105-.049.2-.066.294h3.194a2.24,2.24,0,0,0-.463-.978" transform="translate(-184.155 -12.809)" fill="#9A9AB5"/>
  <path id="Path_35079" data-name="Path 35079" d="M265.628,32.342a1.566,1.566,0,0,0-.542-.525,1.652,1.652,0,0,0-.845-.2,1.507,1.507,0,0,0-1.372.722,2.223,2.223,0,0,0-.3.764,4.835,4.835,0,0,0-.089.926,4.663,4.663,0,0,0,.089.913,2.372,2.372,0,0,0,.3.77,1.533,1.533,0,0,0,.533.519,1.637,1.637,0,0,0,.838.191,1.675,1.675,0,0,0,.849-.194,1.5,1.5,0,0,0,.538-.516,2.354,2.354,0,0,0,.294-.77,4.528,4.528,0,0,0,.092-.913,4.7,4.7,0,0,0-.092-.926,2.207,2.207,0,0,0-.294-.764" transform="translate(-199.065 -12.827)" fill="#9A9AB5"/>
  <path id="Path_35080" data-name="Path 35080" d="M273.907,28.789a.872.872,0,0,0-.646-.271.886.886,0,0,0-.648.271.9.9,0,0,0-.265.651.906.906,0,0,0,.264.654.881.881,0,0,0,.65.269.868.868,0,0,0,.646-.269.9.9,0,0,0,.266-.654.888.888,0,0,0-.266-.651m-.359,1.232,0-.01c0-.005,0-.01,0-.014l0-.04v-.091a.286.286,0,0,0-.11-.268.476.476,0,0,0-.23-.038h-.161v.461h-.207V28.848h.41a.861.861,0,0,1,.318.043.286.286,0,0,1,.18.3.254.254,0,0,1-.113.231.407.407,0,0,1-.167.056.281.281,0,0,1,.2.115.329.329,0,0,1,.064.183v.086c0,.028,0,.055,0,.084a.22.22,0,0,0,.012.063l.006.015Z" transform="translate(-202.585 -11.731)" fill="#9A9AB5"/>
  <path id="Path_35081" data-name="Path 35081" d="M232.684,2.536a21.129,21.129,0,1,0,21.037,21.13,21.084,21.084,0,0,0-21.037-21.13M218.228,18.582l1.261-1.588a.181.181,0,0,1,.154-.064h2.377c.1,0,.022.064.022.064l-2.116,1.617a.276.276,0,0,1-.185.062h-1.49c-.1,0-.023-.09-.023-.09m3.415,9a4.463,4.463,0,0,1-2.482.667,4.847,4.847,0,0,1-1.812-.326,3.783,3.783,0,0,1-1.385-.93,4.139,4.139,0,0,1-.871-1.436,5.159,5.159,0,0,1-.306-1.818,4.992,4.992,0,0,1,.313-1.786,4.166,4.166,0,0,1,2.282-2.406,4.457,4.457,0,0,1,1.779-.348,4.113,4.113,0,0,1,1.915.426,3.845,3.845,0,0,1,1.342,1.147,4.7,4.7,0,0,1,.754,1.626,5.913,5.913,0,0,1,.177,1.456q0,.217-.014.433l-.006.078s0,.1-.1.1H217.44a2.873,2.873,0,0,0,.138.686,1.412,1.412,0,0,0,.345.571,1.375,1.375,0,0,0,.541.322,2.4,2.4,0,0,0,.778.112,1.814,1.814,0,0,0,1.064-.3,1.653,1.653,0,0,0,.356-.312.846.846,0,0,0,.169-.3l.019-.073s.013-.065.125-.065h2.2c.093,0,.062.076.062.076l-.057.178a4.974,4.974,0,0,1-.627,1.317,3.258,3.258,0,0,1-.913.9m9.869.478h-2.891a.213.213,0,0,1-.162-.1l-1.527-2.317L225.4,27.964a.176.176,0,0,1-.158.1H222.39c-.1,0-.043-.083-.043-.083l3.037-4.461-2.608-3.774-.194-.285s-.044-.056.039-.056h2.919a.176.176,0,0,1,.137.058l1.284,1.915,1.276-1.922s.024-.05.114-.05H231.2c.1,0,.062.049.062.049l-2.81,4.017,3.111,4.5s.064.094-.046.094m2,3.677a1.615,1.615,0,1,1,1.607-1.613,1.61,1.61,0,0,1-1.607,1.613m1.257-3.786s0,.109-.1.109h-2.322c-.089,0-.1-.107-.1-.107l-.473-8.48s-.017-.078.1-.078h3.281c.086,0,.083.1.083.1Zm6.723-6.712a.1.1,0,0,1-.088.1H239.84V25.2a1.614,1.614,0,0,0,.043.425.358.358,0,0,0,.086.184.375.375,0,0,0,.183.086,1.931,1.931,0,0,0,.422.041c.12,0,.237-.006.345-.015a2.794,2.794,0,0,0,.31-.045l.17-.036s.088-.034.088.072v2.023c0,.107-.083.109-.083.109l-.1.014a5.608,5.608,0,0,1-.659.066c-.236.01-.463.015-.69.015a6.97,6.97,0,0,1-1.022-.073,2.53,2.53,0,0,1-.9-.306,1.708,1.708,0,0,1-.645-.674,2.336,2.336,0,0,1-.231-1.106V21.345h-1.278a.083.083,0,0,1-.086-.1V19.476s-.014-.073.1-.073h1.262V17.028a.085.085,0,0,1,.089-.1h2.5a.092.092,0,0,1,.094.1V19.4H241.4a.081.081,0,0,1,.091.084Zm8.751,4.352a3.987,3.987,0,0,1-.9,1.429,3.885,3.885,0,0,1-1.408.915,5.4,5.4,0,0,1-3.633,0,3.891,3.891,0,0,1-1.4-.915,3.967,3.967,0,0,1-.9-1.429,5.126,5.126,0,0,1-.315-1.85A5.183,5.183,0,0,1,242,21.887a4,4,0,0,1,.9-1.44,4.063,4.063,0,0,1,1.4-.921,4.869,4.869,0,0,1,1.814-.323,4.924,4.924,0,0,1,1.821.323,4.073,4.073,0,0,1,1.406.921,3.989,3.989,0,0,1,.9,1.44,5.2,5.2,0,0,1,.315,1.856,5.141,5.141,0,0,1-.315,1.85m1.376-4.276a1.016,1.016,0,0,1-.751-.313,1.076,1.076,0,0,1,0-1.514,1.065,1.065,0,1,1,.749,1.827" transform="translate(-180.936 -2.536)" fill="#9A9AB5"/>
  <path id="Path_35082" data-name="Path 35082" d="M273.922,29.464a.177.177,0,0,0-.078-.171.543.543,0,0,0-.25-.043h-.176v.424h.187a.534.534,0,0,0,.194-.026.179.179,0,0,0,.122-.183" transform="translate(-202.966 -11.987)" fill="#9A9AB5"/>
  <path id="Path_35083" data-name="Path 35083" d="M168.985,32.88h-.031a1.854,1.854,0,0,0-.319-.51,2.554,2.554,0,0,0-.474-.428,2.25,2.25,0,0,0-.594-.288,2.146,2.146,0,0,0-.69-.1,2.94,2.94,0,0,0-1.266.26,2.686,2.686,0,0,0-.93.715,3.3,3.3,0,0,0-.571,1.056,4.2,4.2,0,0,0-.2,1.285,5.122,5.122,0,0,0,.167,1.322,2.948,2.948,0,0,0,.522,1.081,2.538,2.538,0,0,0,.926.722,3.176,3.176,0,0,0,1.349.258,2.173,2.173,0,0,0,1.266-.371,2.307,2.307,0,0,0,.812-.982h.031v.892a2.952,2.952,0,0,1-.493,1.84,1.921,1.921,0,0,1-1.615.641,2.865,2.865,0,0,1-.65-.074,1.9,1.9,0,0,1-.582-.224,1.419,1.419,0,0,1-.441-.4,1.4,1.4,0,0,1-.248-.618h-.8a1.862,1.862,0,0,0,.289.9,1.948,1.948,0,0,0,.623.618,2.612,2.612,0,0,0,.846.359,3.953,3.953,0,0,0,.966.118,3.771,3.771,0,0,0,1.354-.219,2.2,2.2,0,0,0,.893-.624,2.542,2.542,0,0,0,.5-1,5.056,5.056,0,0,0,.159-1.318V31.744h-.8Zm-.134,3.049a2.516,2.516,0,0,1-.4.835,2.167,2.167,0,0,1-.663.591,1.891,1.891,0,0,1-.914.222,2.013,2.013,0,0,1-.966-.222,2.06,2.06,0,0,1-.677-.591,2.432,2.432,0,0,1-.391-.835,3.515,3.515,0,0,1-.125-.967,4.21,4.21,0,0,1,.116-1,2.574,2.574,0,0,1,.388-.874,2.067,2.067,0,0,1,.677-.62,1.891,1.891,0,0,1,.979-.237,1.809,1.809,0,0,1,.969.244,2.01,2.01,0,0,1,.658.636,2.844,2.844,0,0,1,.367.884,4.056,4.056,0,0,1,.115.97,3.572,3.572,0,0,1-.134.967" transform="translate(-163.913 -12.806)" fill="#9A9AB5"/>
  <path id="Path_35084" data-name="Path 35084" d="M174.877,33.342h-.026V31.8h-.739v6.589h.8V34.878a2.557,2.557,0,0,1,.176-.965,2.255,2.255,0,0,1,2.263-1.4v-.805a2.467,2.467,0,0,0-1.53.395,2.524,2.524,0,0,0-.948,1.237" transform="translate(-167.55 -12.86)" fill="#9A9AB5"/>
  <path id="Path_35085" data-name="Path 35085" d="M184.3,35.305a3.968,3.968,0,0,1-.112.977,2.713,2.713,0,0,1-.353.852,1.934,1.934,0,0,1-.612.6,1.7,1.7,0,0,1-.888.22A1.673,1.673,0,0,1,181,37.489a2.1,2.1,0,0,1-.41-1.353V31.849h-.806v4.276a3.835,3.835,0,0,0,.132,1.047,2.014,2.014,0,0,0,.4.779,1.711,1.711,0,0,0,.71.49,2.923,2.923,0,0,0,1.062.173,2.626,2.626,0,0,0,1.342-.35,2.254,2.254,0,0,0,.917-1.014h.028v1.188h.74V31.849H184.3Z" transform="translate(-169.573 -12.907)" fill="#9A9AB5"/>
  <path id="Path_35086" data-name="Path 35086" d="M194.479,32.593a2.8,2.8,0,0,0-.917-.763,2.9,2.9,0,0,0-1.307-.277,2.735,2.735,0,0,0-1.432.376A2.121,2.121,0,0,0,189.916,33h-.026V31.744h-.737V40.76h.8V37.08h.024a1.939,1.939,0,0,0,.359.624,2.214,2.214,0,0,0,.54.447,2.427,2.427,0,0,0,.664.271,3.133,3.133,0,0,0,.712.086,2.953,2.953,0,0,0,1.307-.271,2.725,2.725,0,0,0,.917-.754,3.24,3.24,0,0,0,.548-1.111,5.121,5.121,0,0,0,0-2.669,3.248,3.248,0,0,0-.548-1.109m-.2,3.458a2.809,2.809,0,0,1-.382.9,2.04,2.04,0,0,1-.671.644,1.8,1.8,0,0,1-.975.251,2.108,2.108,0,0,1-1.073-.251,2.069,2.069,0,0,1-.712-.644,2.628,2.628,0,0,1-.394-.9,4.281,4.281,0,0,1-.122-1.013,5.318,5.318,0,0,1,.107-1.077,2.617,2.617,0,0,1,.371-.892,1.953,1.953,0,0,1,.717-.609,2.371,2.371,0,0,1,1.106-.233,1.827,1.827,0,0,1,.975.252,2.031,2.031,0,0,1,.671.64,2.836,2.836,0,0,1,.382.9,4.385,4.385,0,0,1,0,2.03" transform="translate(-172.913 -12.806)" fill="#9A9AB5"/>
  <path id="Path_35087" data-name="Path 35087" d="M204.871,32.587a2.957,2.957,0,0,0-.98-.756,3.3,3.3,0,0,0-2.651,0,2.882,2.882,0,0,0-.975.756,3.248,3.248,0,0,0-.6,1.1,4.561,4.561,0,0,0,0,2.693,3.2,3.2,0,0,0,.6,1.1,2.856,2.856,0,0,0,.975.749,3.374,3.374,0,0,0,2.651,0,2.93,2.93,0,0,0,.98-.749,3.232,3.232,0,0,0,.593-1.1,4.561,4.561,0,0,0,0-2.693,3.284,3.284,0,0,0-.593-1.1m-.151,3.48a2.881,2.881,0,0,1-.431.9,2.2,2.2,0,0,1-.719.64,2.213,2.213,0,0,1-2.009,0,2.163,2.163,0,0,1-.719-.64,2.972,2.972,0,0,1-.434-.9,3.72,3.72,0,0,1,0-2.055,3.028,3.028,0,0,1,.434-.9,2.2,2.2,0,0,1,.719-.635,2.187,2.187,0,0,1,2.009,0,2.24,2.24,0,0,1,.719.635,2.934,2.934,0,0,1,.431.9,3.583,3.583,0,0,1,0,2.055" transform="translate(-176.591 -12.806)" fill="#9A9AB5"/>
</svg>
