<svg id="header-side-menu" xmlns="http://www.w3.org/2000/svg" xmlns:xlink="http://www.w3.org/1999/xlink" width="218.307" height="44" viewBox="0 0 218.307 44">
  <defs>
    <clipPath id="clip-path">
      <rect id="Rectangle_13827" data-name="Rectangle 13827" width="160.631" height="18.708" fill="#fff"/>
    </clipPath>
    <clipPath id="clip-path-2">
      <rect id="Rectangle_13842" data-name="Rectangle 13842" width="145.794" height="14.587" fill="#fff"/>
    </clipPath>
  </defs>
  <g id="sc-icon-logo-seller_center" data-name="sc-icon-logo-seller center">
    <g id="text" transform="translate(57.676 0.002)">
      <g id="Group_17420" data-name="Group 17420" transform="translate(0 0)" clip-path="url(#clip-path)">
        <path id="Path_35039" data-name="Path 35039" d="M9.025,9.938A20.936,20.936,0,0,0,6.275,9a21.478,21.478,0,0,1-2.338-.75A3.677,3.677,0,0,1,2.5,7.225a2.641,2.641,0,0,1-.575-1.774,2.768,2.768,0,0,1,1.05-2.288A4.079,4.079,0,0,1,5.6,2.326a4.075,4.075,0,0,1,2.7.837A3.145,3.145,0,0,1,9.475,5.076h1.9A4.466,4.466,0,0,0,9.663,2.013,6.084,6.084,0,0,0,5.75.826a6.809,6.809,0,0,0-2.925.6A4.688,4.688,0,0,0,.85,3.088,4.282,4.282,0,0,0,.15,5.5,4.143,4.143,0,0,0,.875,8.076a4.41,4.41,0,0,0,1.75,1.4A20.4,20.4,0,0,0,5.4,10.4a22,22,0,0,1,2.35.737,3.525,3.525,0,0,1,1.425,1.025,2.734,2.734,0,0,1,.575,1.812,2.947,2.947,0,0,1-1.037,2.313A4.106,4.106,0,0,1,5.9,17.2a4.061,4.061,0,0,1-2.925-.963A3.513,3.513,0,0,1,1.85,14H0a4.4,4.4,0,0,0,.8,2.4,4.974,4.974,0,0,0,2.063,1.675,7.251,7.251,0,0,0,3.037.6A6.436,6.436,0,0,0,8.95,18a4.753,4.753,0,0,0,1.925-1.776,4.5,4.5,0,0,0,.65-2.324A4.106,4.106,0,0,0,10.8,11.35,4.492,4.492,0,0,0,9.025,9.938" transform="translate(0 0)" fill="#fff"/>
        <path id="Path_35040" data-name="Path 35040" d="M24.713,5.5A6.677,6.677,0,0,0,21.3,4.651a7.023,7.023,0,0,0-3.475.849A5.92,5.92,0,0,0,15.45,7.95a7.835,7.835,0,0,0-.849,3.725,7.661,7.661,0,0,0,.862,3.713,6.085,6.085,0,0,0,2.388,2.45A6.887,6.887,0,0,0,21.3,18.7a6.542,6.542,0,0,0,4.113-1.262,5.781,5.781,0,0,0,2.137-3.263H25.7A3.876,3.876,0,0,1,24.163,16.4a4.826,4.826,0,0,1-2.863.824,5.2,5.2,0,0,1-2.4-.563A4.412,4.412,0,0,1,17.125,15a5.491,5.491,0,0,1-.75-2.65H27.7q.049-.476.05-1.375a6.54,6.54,0,0,0-.787-3.188A5.877,5.877,0,0,0,24.713,5.5m-8.338,5.425A4.992,4.992,0,0,1,17.9,7.4a4.764,4.764,0,0,1,3.326-1.25,5.3,5.3,0,0,1,2.4.549,4.135,4.135,0,0,1,1.737,1.625,4.856,4.856,0,0,1,.614,2.6Z" transform="translate(0 0)" fill="#fff"/>
        <rect id="Rectangle_13825" data-name="Rectangle 13825" width="1.75" height="18.5" transform="translate(31.45)" fill="#fff"/>
        <rect id="Rectangle_13826" data-name="Rectangle 13826" width="1.75" height="18.5" transform="translate(37.675)" fill="#fff"/>
        <path id="Path_35041" data-name="Path 35041" d="M53.212,5.5A6.677,6.677,0,0,0,49.8,4.651a7.023,7.023,0,0,0-3.475.849,5.92,5.92,0,0,0-2.375,2.45,7.835,7.835,0,0,0-.849,3.725,7.661,7.661,0,0,0,.862,3.713,6.085,6.085,0,0,0,2.388,2.45A6.887,6.887,0,0,0,49.8,18.7a6.542,6.542,0,0,0,4.113-1.262,5.781,5.781,0,0,0,2.137-3.263H54.2A3.876,3.876,0,0,1,52.662,16.4a4.826,4.826,0,0,1-2.863.824,5.2,5.2,0,0,1-2.4-.563A4.412,4.412,0,0,1,45.624,15a5.491,5.491,0,0,1-.75-2.65H56.2q.049-.476.05-1.375a6.54,6.54,0,0,0-.787-3.188A5.878,5.878,0,0,0,53.212,5.5m-8.338,5.425A4.992,4.992,0,0,1,46.4,7.4a4.764,4.764,0,0,1,3.326-1.25,5.3,5.3,0,0,1,2.4.549,4.135,4.135,0,0,1,1.737,1.625,4.856,4.856,0,0,1,.614,2.6Z" transform="translate(0 0)" fill="#fff"/>
        <path id="Path_35042" data-name="Path 35042" d="M61.7,7.275V4.849h-1.75V18.5H61.7V10.875a4.4,4.4,0,0,1,1.15-3.425A4.412,4.412,0,0,1,65.9,6.424h.475V4.6a5.659,5.659,0,0,0-2.912.7A4.279,4.279,0,0,0,61.7,7.275" transform="translate(0 0)" fill="#fff"/>
        <path id="Path_35043" data-name="Path 35043" d="M77.483,4.1a4.019,4.019,0,0,1,3.822,2.34h4.889a8.476,8.476,0,0,0-8.659-6.4c-5.382,0-9.178,3.849-9.178,9.309a8.846,8.846,0,0,0,9.178,9.282c4.343,0,7.619-2.418,8.659-6.37H81.305a4.019,4.019,0,0,1-3.822,2.34c-2.729,0-4.6-2.027-4.6-5.252S74.754,4.1,77.483,4.1" transform="translate(0 0)" fill="#fff"/>
        <path id="Path_35044" data-name="Path 35044" d="M95.892,3.783c-4.317,0-7.332,2.861-7.332,7.463s3.067,7.462,7.332,7.462a6.78,6.78,0,0,0,6.89-5.018H98.05a2.364,2.364,0,0,1-2.315,1.4,2.689,2.689,0,0,1-2.755-2.782h10.062a11.235,11.235,0,0,0,.078-1.3,6.837,6.837,0,0,0-7.228-7.229M93.006,9.842a2.75,2.75,0,0,1,2.834-2.5,2.508,2.508,0,0,1,2.729,2.5Z" transform="translate(0 0)" fill="#fff"/>
        <path id="Path_35045" data-name="Path 35045" d="M114.819,3.836a5.32,5.32,0,0,0-4.395,2.08V3.991h-4.446V18.5h4.446V10.622c0-1.976,1.093-3.068,2.783-3.068s2.782,1.092,2.782,3.068V18.5h4.42V10.023c0-3.9-2.236-6.187-5.59-6.187" transform="translate(0 0)" fill="#fff"/>
        <path id="Path_35046" data-name="Path 35046" d="M129.171,13.508V7.684h2.912V3.991h-2.912V.455h-4.446V3.991h-1.768V7.684h1.768v5.772c0,3.77,2.106,5.044,5.122,5.044h2.262V14.73h-1.585c-.989,0-1.353-.364-1.353-1.222" transform="translate(0 0)" fill="#fff"/>
        <path id="Path_35047" data-name="Path 35047" d="M141.547,3.783c-4.317,0-7.332,2.861-7.332,7.463s3.067,7.462,7.332,7.462a6.78,6.78,0,0,0,6.89-5.018h-4.732a2.364,2.364,0,0,1-2.315,1.4,2.689,2.689,0,0,1-2.755-2.782H148.7a11.238,11.238,0,0,0,.078-1.3,6.837,6.837,0,0,0-7.228-7.229m-2.886,6.059a2.75,2.75,0,0,1,2.834-2.5,2.508,2.508,0,0,1,2.729,2.5Z" transform="translate(0 0)" fill="#fff"/>
        <path id="Path_35048" data-name="Path 35048" d="M156.081,6.409V3.991h-4.446V18.5h4.446V11.765c0-2.5,1.222-3.223,3.328-3.223h1.222V3.836a5.407,5.407,0,0,0-4.55,2.573" transform="translate(0 0)" fill="#fff"/>
      </g>
      <g id="marketplace" transform="translate(0.631 28.998)">
        <g id="Group_36838" data-name="Group 36838" transform="translate(0 0)" clip-path="url(#clip-path-2)">
          <path id="Path_35089" data-name="Path 35089" d="M13.246,4.57a2.8,2.8,0,0,1,2.291,1.08V4.679h1.379v6.68H15.537v-.994a2.836,2.836,0,0,1-2.315,1.1,3.217,3.217,0,0,1-3.094-3.481A3.165,3.165,0,0,1,13.246,4.57m.288,1.2a2.04,2.04,0,0,0-2,2.219,2.1,2.1,0,0,0,2,2.28,2.067,2.067,0,0,0,2-2.255,2.063,2.063,0,0,0-2-2.243" transform="translate(0 0.05)" fill="#fff"/>
          <path id="Path_35090" data-name="Path 35090" d="M20.087,11.36H18.72V4.679h1.367V5.65a2.146,2.146,0,0,1,1.979-1.081V6h-.348c-1.007,0-1.631.425-1.631,1.842Z" transform="translate(0 0.05)" fill="#fff"/>
          <path id="Path_35091" data-name="Path 35091" d="M23.327,2.411h1.367V7.625l2.4-2.922h1.894L25.942,8.049l3.046,3.334H27.141L24.694,8.509v2.874H23.327Z" transform="translate(0 0.027)" fill="#fff"/>
          <path id="Path_35092" data-name="Path 35092" d="M32.818,11.47a3.226,3.226,0,0,1-3.3-3.456,3.184,3.184,0,0,1,3.3-3.443,3.1,3.1,0,0,1,3.214,3.287,4.308,4.308,0,0,1-.048.678h-5.05a1.827,1.827,0,0,0,1.884,1.77,1.6,1.6,0,0,0,1.559-.933h1.475a3.023,3.023,0,0,1-3.034,2.1M30.947,7.42H34.6a1.722,1.722,0,0,0-1.846-1.685A1.807,1.807,0,0,0,30.947,7.42" transform="translate(0 0.05)" fill="#fff"/>
          <path id="Path_35093" data-name="Path 35093" d="M37.6,5.823h-.779V4.7H37.6V3.034h1.38V4.7h1.606V5.823H38.975v3.7c0,.5.191.7.767.7h.839v1.151H39.5c-1.175,0-1.907-.5-1.907-1.855Z" transform="translate(0 0.034)" fill="#fff"/>
          <path id="Path_35094" data-name="Path 35094" d="M45.513,4.57a3.156,3.156,0,0,1,3.106,3.419,3.211,3.211,0,0,1-3.106,3.481,2.978,2.978,0,0,1-2.3-1.08v4.147H41.843V4.679H43.21v.983a2.873,2.873,0,0,1,2.3-1.092m-.3,1.2a2.069,2.069,0,0,0-2,2.243,2.073,2.073,0,0,0,2,2.255,2.1,2.1,0,0,0,2.016-2.28A2.043,2.043,0,0,0,45.213,5.77" transform="translate(0 0.05)" fill="#fff"/>
          <rect id="Rectangle_13841" data-name="Rectangle 13841" width="1.367" height="8.972" transform="translate(49.979 2.437)" fill="#fff"/>
          <path id="Path_35095" data-name="Path 35095" d="M55.81,4.57A2.8,2.8,0,0,1,58.1,5.65V4.679H59.48v6.68H58.1v-.994a2.837,2.837,0,0,1-2.315,1.1,3.216,3.216,0,0,1-3.094-3.481A3.165,3.165,0,0,1,55.81,4.57m.288,1.2a2.04,2.04,0,0,0-2,2.219,2.1,2.1,0,0,0,2,2.28,2.067,2.067,0,0,0,2-2.255,2.063,2.063,0,0,0-2-2.243" transform="translate(0 0.05)" fill="#fff"/>
          <path id="Path_35096" data-name="Path 35096" d="M64.065,4.569a2.88,2.88,0,0,1,3.047,2.219H65.636a1.545,1.545,0,0,0-1.571-1.054c-1.1,0-1.835.825-1.835,2.279s.731,2.293,1.835,2.293A1.511,1.511,0,0,0,65.636,9.25h1.476a2.974,2.974,0,0,1-3.047,2.219,3.18,3.18,0,0,1-3.238-3.456,3.176,3.176,0,0,1,3.238-3.443" transform="translate(0 0.05)" fill="#fff"/>
          <path id="Path_35097" data-name="Path 35097" d="M71.325,11.47a3.226,3.226,0,0,1-3.3-3.456,3.183,3.183,0,0,1,3.3-3.443,3.1,3.1,0,0,1,3.214,3.287,4.308,4.308,0,0,1-.048.678H69.442a1.826,1.826,0,0,0,1.883,1.77,1.6,1.6,0,0,0,1.56-.933h1.474a3.022,3.022,0,0,1-3.034,2.1M69.454,7.42h3.658a1.722,1.722,0,0,0-1.846-1.685A1.808,1.808,0,0,0,69.454,7.42" transform="translate(0 0.05)" fill="#fff"/>
          <path id="Path_35098" data-name="Path 35098" d="M86.683,5.377H85.039A2.363,2.363,0,0,0,82.809,4.1a2.806,2.806,0,0,0-2.855,3.044A2.816,2.816,0,0,0,82.809,10.2a2.533,2.533,0,0,0,2.662-2.34h-3.13v-1.1h4.594v1.08a4.126,4.126,0,0,1-4.126,3.613,4.185,4.185,0,0,1-4.258-4.3,4.192,4.192,0,0,1,4.258-4.3,3.973,3.973,0,0,1,3.874,2.534" transform="translate(0 0.031)" fill="#fff"/>
          <path id="Path_35099" data-name="Path 35099" d="M89.649,11.36H88.282V4.679h1.367V5.65a2.147,2.147,0,0,1,1.979-1.081V6h-.347c-1.008,0-1.632.425-1.632,1.842Z" transform="translate(0 0.05)" fill="#fff"/>
          <path id="Path_35100" data-name="Path 35100" d="M98.875,11.358H97.508v-.8a2.448,2.448,0,0,1-1.955.9,2.6,2.6,0,0,1-2.723-2.85V4.678h1.356V8.4c0,1.225.66,1.855,1.655,1.855s1.667-.63,1.667-1.855V4.678h1.367Z" transform="translate(0 0.052)" fill="#fff"/>
          <path id="Path_35101" data-name="Path 35101" d="M104.348,4.57a3.156,3.156,0,0,1,3.106,3.419,3.211,3.211,0,0,1-3.106,3.481,2.978,2.978,0,0,1-2.3-1.08v4.147h-1.367V4.679h1.367v.983a2.873,2.873,0,0,1,2.3-1.092m-.3,1.2a2.069,2.069,0,0,0-2,2.243,2.073,2.073,0,0,0,2,2.255,2.1,2.1,0,0,0,2.016-2.28,2.043,2.043,0,0,0-2.016-2.219" transform="translate(0 0.05)" fill="#fff"/>
          <path id="Path_35102" data-name="Path 35102" d="M111.681,11.469a3.241,3.241,0,0,1-3.311-3.455,3.372,3.372,0,1,1,6.742,0,3.328,3.328,0,0,1-3.431,3.455m0-1.2a2.048,2.048,0,0,0,2.027-2.255,2.012,2.012,0,0,0-1.991-2.243,1.982,1.982,0,0,0-1.955,2.243c0,1.516.888,2.255,1.919,2.255" transform="translate(0 0.05)" fill="#fff"/>
          <path id="Path_35103" data-name="Path 35103" d="M124.195,4.1h-3.238V6.572h2.878V7.7h-2.878v2.583h3.238V11.41h-4.606V2.97h4.606ZM123.067,0V1.177L120.417,2.5V1.48Z" transform="translate(0 0)" fill="#fff"/>
          <path id="Path_35104" data-name="Path 35104" d="M127.869,9.091l-1.344,2.268H125.1l2.135-3.286L125.1,4.678h1.547l1.427,2.268,1.344-2.268h1.427l-2.135,3.3,2.135,3.383H129.3Z" transform="translate(0 0.052)" fill="#fff"/>
          <path id="Path_35105" data-name="Path 35105" d="M131.686,2.937a.87.87,0,1,1,1.739,0,.87.87,0,1,1-1.739,0m.179,1.77h1.367v6.68h-1.367Z" transform="translate(0 0.023)" fill="#fff"/>
          <path id="Path_35106" data-name="Path 35106" d="M135.249,5.823h-.779V4.7h.779V3.034h1.38V4.7h1.606V5.823h-1.606v3.7c0,.5.191.7.767.7h.839v1.151h-1.079c-1.175,0-1.907-.5-1.907-1.855Z" transform="translate(0 0.034)" fill="#fff"/>
          <path id="Path_35107" data-name="Path 35107" d="M142.364,11.469a3.24,3.24,0,0,1-3.311-3.455,3.371,3.371,0,1,1,6.741,0,3.328,3.328,0,0,1-3.43,3.455m0-1.2a2.047,2.047,0,0,0,2.026-2.255A2.012,2.012,0,0,0,142.4,5.77a1.981,1.981,0,0,0-1.954,2.243c0,1.516.887,2.255,1.919,2.255" transform="translate(0 0.05)" fill="#fff"/>
          <path id="Path_35108" data-name="Path 35108" d="M7.315,2.951,4.4,9.612,1.474,2.951H0v8.493H1.367V5.627l2.555,5.817h.947L7.412,5.627v5.817H8.779V2.951Z" transform="translate(0 0)" fill="#fff"/>
        </g>
      </g>
    </g>
    <g id="sll-icon-logo_symbol-seller_center" data-name="sll-icon-logo symbol-seller center">
      <path id="Union_48" data-name="Union 48" d="M20.519,44h-.266C9.02,43.862,0,35.027,0,24.19A19.393,19.393,0,0,1,5.85,10.311a3.252,3.252,0,0,1,4.5-.04,3.022,3.022,0,0,1,.041,4.366A13.347,13.347,0,0,0,6.365,24.19a13.977,13.977,0,0,0,27.946,0,13.347,13.347,0,0,0-4.027-9.553,3.023,3.023,0,0,1,.041-4.366,3.254,3.254,0,0,1,4.5.04A19.4,19.4,0,0,1,40.676,24.19c0,10.837-9.018,19.67-20.158,19.809ZM14.257,6.118a6.267,6.267,0,0,1,12.528-.084,6.267,6.267,0,0,1-12.528.084Z" fill="#fff"/>
    </g>
  </g>
</svg>
