<svg xmlns="http://www.w3.org/2000/svg" xmlns:xlink="http://www.w3.org/1999/xlink" width="24" height="24" viewBox="0 0 24 24">
  <defs>
    <clipPath id="clip-path">
      <path id="Path_35007" data-name="Path 35007" d="M2,0H22a2,2,0,0,1,2,2V22a2,2,0,0,1-2,2H2a2,2,0,0,1-2-2V2A2,2,0,0,1,2,0Z" transform="translate(-22707 -24369)" fill="#000" stroke="#3dcfea" stroke-width="2"/>
    </clipPath>
  </defs>
  <g id="sc-icon-outlined-home" style="mix-blend-mode: overlay;isolation: isolate">
    <g id="Mask_Group_1324" data-name="Mask Group 1324" transform="translate(22707 24369)" clip-path="url(#clip-path)" style="mix-blend-mode: normal;isolation: isolate">
      <g id="noun-home-6680443" transform="translate(-22715.852 -24378.342)" style="mix-blend-mode: normal;isolation: isolate">
        <path id="Path_35006" data-name="Path 35006" d="M19.454,11.823a2.272,2.272,0,0,1,2.8,0l7.578,5.914a2.273,2.273,0,0,1,.875,1.792v9.536a2.274,2.274,0,0,1-2.274,2.274H24.225a1.351,1.351,0,0,1-1.352-1.352V27.43a2.029,2.029,0,0,0-4.058,0v2.556a1.351,1.351,0,0,1-1.352,1.352h-4.19A2.274,2.274,0,0,1,11,29.064V19.528a2.273,2.273,0,0,1,.875-1.792Zm1.553,1.594a.252.252,0,0,0-.31,0L13.119,19.33a.248.248,0,0,0-.1.2v9.536a.253.253,0,0,0,.253.253h3.521V27.43a4.05,4.05,0,1,1,8.1,0v1.887H28.43a.253.253,0,0,0,.253-.253V19.528a.248.248,0,0,0-.1-.2Z" transform="translate(0)" fill="#000" fill-rule="evenodd"/>
      </g>
    </g>
  </g>
</svg>
