<svg xmlns="http://www.w3.org/2000/svg" xmlns:xlink="http://www.w3.org/1999/xlink" width="24" height="24" viewBox="0 0 24 24">
  <defs>
    <clipPath id="clip-path">
      <rect id="Rectangle_13837" data-name="Rectangle 13837" width="24" height="24" transform="translate(617 1679)" fill="#000" stroke="#5dffc7" stroke-width="2"/>
    </clipPath>
  </defs>
  <g id="set_icons" data-name="set icons" transform="translate(-59 -187)">
    <g id="sc-icon-outlined-orders_box" data-name="sc-icon-outlined-orders box" transform="translate(59 187)">
      <g id="Mask_Group_25851" data-name="Mask Group 25851" transform="translate(-617 -1679)" clip-path="url(#clip-path)">
        <g id="noun-box-4222518" transform="translate(618.158 1680.102)">
          <path id="Union_51" data-name="Union 51" d="M24023.822,22917.561a1.079,1.079,0,0,1-.193-.018l-.1-.029-.029-.014-8.98-3.143a1,1,0,0,1-.676-.939l.012-10.479a1.252,1.252,0,0,1,.078-.264l.066-.121.031-.049c.006-.006.012-.012.012-.018l.055-.066.078-.078a1.215,1.215,0,0,1,.186-.133l.08-.043h.012l.066-.029,8.98-3.143a.987.987,0,0,1,.332-.055.862.862,0,0,1,.326.061l9.047,3.166h.012l.084.043a1.255,1.255,0,0,1,.188.139l.121.133.006.012a.081.081,0,0,1,.018.023l.055.092.037.066a1.38,1.38,0,0,1,.078.264l.012.146v10.332a1,1,0,0,1-.676.939l-9.1,3.18-.018.006a1.032,1.032,0,0,1-.193.018Zm1-11.031v8.619l6.98-2.443v-8.27Zm-8.975,6.176,6.979,2.443v-8.619l-2.49-.748v2.7a1,1,0,1,1-2,0v-3.3l-2.486-.742Zm9.814-10.193a1.006,1.006,0,0,1-.586,1.291l-1.941.725.693.211,5.736-1.725-5.736-2.01-5.742,2.01,1.881.566,4.4-1.652a1,1,0,0,1,1.291.584Z" transform="translate(-24012.977 -22897.043)" fill="#000"/>
        </g>
      </g>
    </g>
  </g>
</svg>
