<svg xmlns="http://www.w3.org/2000/svg" xmlns:xlink="http://www.w3.org/1999/xlink" width="24" height="24" viewBox="0 0 24 24">
  <defs>
    <clipPath id="clip-path">
      <rect id="Rectangle_13697" data-name="Rectangle 13697" width="24" height="24" transform="translate(175 788)" fill="#000" stroke="#5dffc7" stroke-width="2"/>
    </clipPath>
    <clipPath id="clip-path-2">
      <rect id="Rectangle_10441" data-name="Rectangle 10441" width="18.445" height="19.903" fill="#000"/>
    </clipPath>
  </defs>
  <g id="set_icons" data-name="set icons" transform="translate(-59 -187)">
    <g id="sc-icono-outlined-user_usuario_seller_user_profile" data-name="sc-icono-outlined-user usuario seller user profile" transform="translate(59 187)">
      <g id="Mask_Group_1174" data-name="Mask Group 1174" transform="translate(-175 -788)" clip-path="url(#clip-path)">
        <g id="Group_17037" data-name="Group 17037" transform="translate(178 790.068)">
          <g id="Group_17018" data-name="Group 17018" transform="translate(0 0)" clip-path="url(#clip-path-2)">
            <path id="Path_8641" data-name="Path 8641" d="M17.883,16.6a9.649,9.649,0,0,0-2.388-3.561l-.018-.016a.98.98,0,0,0-.561-.208.529.529,0,0,0-.163.024l-.5.157c-.763.239-1.552.485-2.3.791a7.517,7.517,0,0,1-2.834.6,6.023,6.023,0,0,1-1.681-.24c-.964-.278-1.905-.64-2.815-.991l-.634-.242a1.254,1.254,0,0,0-.447-.092.934.934,0,0,0-.7.339,9.285,9.285,0,0,0-2.8,7.6v.005c.06.6.32.832.926.832H17.5c.56,0,.838-.227.9-.734v-.009a9.575,9.575,0,0,0-.515-4.251m-1.2,3.275v0H9.25c-2.417,0-4.916,0-7.371.023l-.06,0c0-.01,0-.022,0-.036v-.006a6.839,6.839,0,0,1,2.106-5.207.145.145,0,0,1,.024-.021.336.336,0,0,1,.08.016c.258.092.52.189.775.283.7.259,1.421.526,2.151.729a8.081,8.081,0,0,0,2.191.307,8.963,8.963,0,0,0,3.233-.636c.538-.208,1.1-.381,1.652-.548l.5-.155a.078.078,0,0,1,.03.007,6.786,6.786,0,0,1,2.011,3.8v.007a5.939,5.939,0,0,1,.078.88c.008.181.015.368.032.552" transform="translate(0 -1.687)" fill="#000"/>
            <path id="Path_8642" data-name="Path 8642" d="M9.646,11.544A5.772,5.772,0,1,0,3.874,5.772a5.779,5.779,0,0,0,5.772,5.772m0-9.875a4.1,4.1,0,1,1-4.1,4.1,4.108,4.108,0,0,1,4.1-4.1" transform="translate(-0.51 0)" fill="#000"/>
          </g>
        </g>
      </g>
    </g>
  </g>
</svg>
