<?xml version="1.0" encoding="UTF-8" standalone="no"?>
<!DOCTYPE svg PUBLIC "-//W3C//DTD SVG 1.1//EN"
 "http://www.w3.org/Graphics/SVG/1.1/DTD/svg11.dtd">
<!-- Generated by graphviz version 2.40.1 (20161225.0304)
 -->
<!-- Title: dependencies Pages: 1 -->
<svg width="1368pt" height="211pt"
 viewBox="0.00 0.00 1368.00 211.00" xmlns="http://www.w3.org/2000/svg" xmlns:xlink="http://www.w3.org/1999/xlink">
<g id="graph0" class="graph" transform="scale(1 1) rotate(0) translate(4 207)">
<title>dependencies</title>
<polygon fill="#ffffff" stroke="transparent" points="-4,4 -4,-207 1364,-207 1364,4 -4,4"/>
<text text-anchor="start" x="659.0091" y="-42.4" font-family="sans-serif" font-weight="bold" font-size="14.00" fill="#000000">Legend</text>
<polygon fill="#ffffb3" stroke="transparent" points="446,-10 446,-30 466,-30 466,-10 446,-10"/>
<text text-anchor="start" x="469.629" y="-15.4" font-family="sans-serif" font-size="14.00" fill="#000000"> &#160;Declarations</text>
<polygon fill="#8dd3c7" stroke="transparent" points="559,-10 559,-30 579,-30 579,-10 559,-10"/>
<text text-anchor="start" x="582.7251" y="-15.4" font-family="sans-serif" font-size="14.00" fill="#000000"> &#160;Module</text>
<polygon fill="#80b1d3" stroke="transparent" points="645,-10 645,-30 665,-30 665,-10 645,-10"/>
<text text-anchor="start" x="668.7812" y="-15.4" font-family="sans-serif" font-size="14.00" fill="#000000"> &#160;Bootstrap</text>
<polygon fill="#fdb462" stroke="transparent" points="742,-10 742,-30 762,-30 762,-10 742,-10"/>
<text text-anchor="start" x="765.6732" y="-15.4" font-family="sans-serif" font-size="14.00" fill="#000000"> &#160;Providers</text>
<polygon fill="#fb8072" stroke="transparent" points="838,-10 838,-30 858,-30 858,-10 838,-10"/>
<text text-anchor="start" x="861.7258" y="-15.4" font-family="sans-serif" font-size="14.00" fill="#000000"> &#160;Exports</text>
<g id="clust1" class="cluster">
<title>cluster_DownloadOrderModalModule</title>
<polygon fill="none" stroke="#000000" stroke-dasharray="1,5" points="8,-70 8,-195 1352,-195 1352,-70 8,-70"/>
</g>
<g id="clust2" class="cluster">
<title>cluster_DownloadOrderModalModule_declarations</title>
<polygon fill="none" stroke="#000000" points="1120,-78 1120,-130 1344,-130 1344,-78 1120,-78"/>
</g>
<g id="clust4" class="cluster">
<title>cluster_DownloadOrderModalModule_imports</title>
<polygon fill="none" stroke="#000000" points="990,-78 990,-130 1112,-130 1112,-78 990,-78"/>
</g>
<g id="clust7" class="cluster">
<title>cluster_DownloadOrderModalModule_providers</title>
<polygon fill="none" stroke="#000000" points="16,-78 16,-130 982,-130 982,-78 16,-78"/>
</g>
<!-- DownloadOrderModalComponent -->
<g id="node1" class="node">
<title>DownloadOrderModalComponent</title>
<polygon fill="#ffffb3" stroke="#000000" points="1336.3431,-122 1127.6569,-122 1127.6569,-86 1336.3431,-86 1336.3431,-122"/>
<text text-anchor="middle" x="1232" y="-99.8" font-family="Times,serif" font-size="14.00" fill="#000000">DownloadOrderModalComponent</text>
</g>
<!-- DownloadOrderModalModule -->
<g id="node2" class="node">
<title>DownloadOrderModalModule</title>
<polygon fill="#8dd3c7" stroke="#000000" points="768.5604,-187 765.5604,-191 744.5604,-191 741.5604,-187 581.4396,-187 581.4396,-151 768.5604,-151 768.5604,-187"/>
<text text-anchor="middle" x="675" y="-164.8" font-family="Times,serif" font-size="14.00" fill="#000000">DownloadOrderModalModule</text>
</g>
<!-- DownloadOrderModalComponent&#45;&gt;DownloadOrderModalModule -->
<g id="edge1" class="edge">
<title>DownloadOrderModalComponent&#45;&gt;DownloadOrderModalModule</title>
<path fill="none" stroke="#000000" d="M1232,-122.2921C1232,-144.2057 1232,-178 1232,-178 1232,-178 778.5432,-178 778.5432,-178"/>
<polygon fill="#000000" stroke="#000000" points="778.5433,-174.5001 768.5432,-178 778.5432,-181.5001 778.5433,-174.5001"/>
</g>
<!-- MaterialModule -->
<g id="node3" class="node">
<title>MaterialModule</title>
<polygon fill="#8dd3c7" stroke="#000000" points="1104.4706,-122 1101.4706,-126 1080.4706,-126 1077.4706,-122 997.5294,-122 997.5294,-86 1104.4706,-86 1104.4706,-122"/>
<text text-anchor="middle" x="1051" y="-99.8" font-family="Times,serif" font-size="14.00" fill="#000000">MaterialModule</text>
</g>
<!-- MaterialModule&#45;&gt;DownloadOrderModalModule -->
<g id="edge2" class="edge">
<title>MaterialModule&#45;&gt;DownloadOrderModalModule</title>
<path fill="none" stroke="#000000" d="M1051,-122.1061C1051,-141.3391 1051,-169 1051,-169 1051,-169 778.9108,-169 778.9108,-169"/>
<polygon fill="#000000" stroke="#000000" points="778.9108,-165.5001 768.9108,-169 778.9107,-172.5001 778.9108,-165.5001"/>
</g>
<!-- ComponentsService -->
<g id="node4" class="node">
<title>ComponentsService</title>
<ellipse fill="#fdb462" stroke="#000000" cx="885" cy="-104" rx="88.6255" ry="18"/>
<text text-anchor="middle" x="885" y="-99.8" font-family="Times,serif" font-size="14.00" fill="#000000">ComponentsService</text>
</g>
<!-- ComponentsService&#45;&gt;DownloadOrderModalModule -->
<g id="edge3" class="edge">
<title>ComponentsService&#45;&gt;DownloadOrderModalModule</title>
<path fill="none" stroke="#000000" d="M885,-122.027C885,-138.3976 885,-160 885,-160 885,-160 778.638,-160 778.638,-160"/>
<polygon fill="#000000" stroke="#000000" points="778.638,-156.5001 768.638,-160 778.6379,-163.5001 778.638,-156.5001"/>
</g>
<!-- DownloadOrderService -->
<g id="node5" class="node">
<title>DownloadOrderService</title>
<ellipse fill="#fdb462" stroke="#000000" cx="675" cy="-104" rx="102.9705" ry="18"/>
<text text-anchor="middle" x="675" y="-99.8" font-family="Times,serif" font-size="14.00" fill="#000000">DownloadOrderService</text>
</g>
<!-- DownloadOrderService&#45;&gt;DownloadOrderModalModule -->
<g id="edge4" class="edge">
<title>DownloadOrderService&#45;&gt;DownloadOrderModalModule</title>
<path fill="none" stroke="#000000" d="M675,-122.1061C675,-122.1061 675,-140.991 675,-140.991"/>
<polygon fill="#000000" stroke="#000000" points="671.5001,-140.9909 675,-150.991 678.5001,-140.991 671.5001,-140.9909"/>
</g>
<!-- EndpointService -->
<g id="node6" class="node">
<title>EndpointService</title>
<ellipse fill="#fdb462" stroke="#000000" cx="479" cy="-104" rx="75.3021" ry="18"/>
<text text-anchor="middle" x="479" y="-99.8" font-family="Times,serif" font-size="14.00" fill="#000000">EndpointService</text>
</g>
<!-- EndpointService&#45;&gt;DownloadOrderModalModule -->
<g id="edge5" class="edge">
<title>EndpointService&#45;&gt;DownloadOrderModalModule</title>
<path fill="none" stroke="#000000" d="M479,-122.027C479,-138.3976 479,-160 479,-160 479,-160 571.3054,-160 571.3054,-160"/>
<polygon fill="#000000" stroke="#000000" points="571.3054,-163.5001 581.3054,-160 571.3054,-156.5001 571.3054,-163.5001"/>
</g>
<!-- HttpErrorHandlingService -->
<g id="node7" class="node">
<title>HttpErrorHandlingService</title>
<ellipse fill="#fdb462" stroke="#000000" cx="272" cy="-104" rx="113.4412" ry="18"/>
<text text-anchor="middle" x="272" y="-99.8" font-family="Times,serif" font-size="14.00" fill="#000000">HttpErrorHandlingService</text>
</g>
<!-- HttpErrorHandlingService&#45;&gt;DownloadOrderModalModule -->
<g id="edge6" class="edge">
<title>HttpErrorHandlingService&#45;&gt;DownloadOrderModalModule</title>
<path fill="none" stroke="#000000" d="M272,-122.1061C272,-141.3391 272,-169 272,-169 272,-169 571.277,-169 571.277,-169"/>
<polygon fill="#000000" stroke="#000000" points="571.277,-172.5001 581.277,-169 571.277,-165.5001 571.277,-172.5001"/>
</g>
<!-- UserService -->
<g id="node8" class="node">
<title>UserService</title>
<ellipse fill="#fdb462" stroke="#000000" cx="82" cy="-104" rx="58.4415" ry="18"/>
<text text-anchor="middle" x="82" y="-99.8" font-family="Times,serif" font-size="14.00" fill="#000000">UserService</text>
</g>
<!-- UserService&#45;&gt;DownloadOrderModalModule -->
<g id="edge7" class="edge">
<title>UserService&#45;&gt;DownloadOrderModalModule</title>
<path fill="none" stroke="#000000" d="M82,-122.2921C82,-144.2057 82,-178 82,-178 82,-178 571.3646,-178 571.3646,-178"/>
<polygon fill="#000000" stroke="#000000" points="571.3646,-181.5001 581.3646,-178 571.3646,-174.5001 571.3646,-181.5001"/>
</g>
</g>
</svg>
