<?xml version="1.0" encoding="UTF-8" standalone="no"?>
<!DOCTYPE svg PUBLIC "-//W3C//DTD SVG 1.1//EN"
 "http://www.w3.org/Graphics/SVG/1.1/DTD/svg11.dtd">
<!-- Generated by graphviz version 2.40.1 (20161225.0304)
 -->
<!-- Title: dependencies Pages: 1 -->
<svg width="624pt" height="211pt"
 viewBox="0.00 0.00 624.00 211.00" xmlns="http://www.w3.org/2000/svg" xmlns:xlink="http://www.w3.org/1999/xlink">
<g id="graph0" class="graph" transform="scale(1 1) rotate(0) translate(4 207)">
<title>dependencies</title>
<polygon fill="#ffffff" stroke="transparent" points="-4,4 -4,-207 620,-207 620,4 -4,4"/>
<text text-anchor="start" x="287.0091" y="-42.4" font-family="sans-serif" font-weight="bold" font-size="14.00" fill="#000000">Legend</text>
<polygon fill="#ffffb3" stroke="transparent" points="74,-10 74,-30 94,-30 94,-10 74,-10"/>
<text text-anchor="start" x="97.629" y="-15.4" font-family="sans-serif" font-size="14.00" fill="#000000"> &#160;Declarations</text>
<polygon fill="#8dd3c7" stroke="transparent" points="187,-10 187,-30 207,-30 207,-10 187,-10"/>
<text text-anchor="start" x="210.7251" y="-15.4" font-family="sans-serif" font-size="14.00" fill="#000000"> &#160;Module</text>
<polygon fill="#80b1d3" stroke="transparent" points="273,-10 273,-30 293,-30 293,-10 273,-10"/>
<text text-anchor="start" x="296.7812" y="-15.4" font-family="sans-serif" font-size="14.00" fill="#000000"> &#160;Bootstrap</text>
<polygon fill="#fdb462" stroke="transparent" points="370,-10 370,-30 390,-30 390,-10 370,-10"/>
<text text-anchor="start" x="393.6732" y="-15.4" font-family="sans-serif" font-size="14.00" fill="#000000"> &#160;Providers</text>
<polygon fill="#fb8072" stroke="transparent" points="466,-10 466,-30 486,-30 486,-10 466,-10"/>
<text text-anchor="start" x="489.7258" y="-15.4" font-family="sans-serif" font-size="14.00" fill="#000000"> &#160;Exports</text>
<g id="clust1" class="cluster">
<title>cluster_DownloadOrderModalModule</title>
<polygon fill="none" stroke="#000000" stroke-dasharray="1,5" points="8,-70 8,-195 608,-195 608,-70 8,-70"/>
</g>
<g id="clust2" class="cluster">
<title>cluster_DownloadOrderModalModule_declarations</title>
<polygon fill="none" stroke="#000000" points="376,-78 376,-130 600,-130 600,-78 376,-78"/>
</g>
<g id="clust4" class="cluster">
<title>cluster_DownloadOrderModalModule_imports</title>
<polygon fill="none" stroke="#000000" points="246,-78 246,-130 368,-130 368,-78 246,-78"/>
</g>
<g id="clust7" class="cluster">
<title>cluster_DownloadOrderModalModule_providers</title>
<polygon fill="none" stroke="#000000" points="16,-78 16,-130 238,-130 238,-78 16,-78"/>
</g>
<!-- DownloadOrderModalComponent -->
<g id="node1" class="node">
<title>DownloadOrderModalComponent</title>
<polygon fill="#ffffb3" stroke="#000000" points="592.3431,-122 383.6569,-122 383.6569,-86 592.3431,-86 592.3431,-122"/>
<text text-anchor="middle" x="488" y="-99.8" font-family="Times,serif" font-size="14.00" fill="#000000">DownloadOrderModalComponent</text>
</g>
<!-- DownloadOrderModalModule -->
<g id="node2" class="node">
<title>DownloadOrderModalModule</title>
<polygon fill="#8dd3c7" stroke="#000000" points="400.5604,-187 397.5604,-191 376.5604,-191 373.5604,-187 213.4396,-187 213.4396,-151 400.5604,-151 400.5604,-187"/>
<text text-anchor="middle" x="307" y="-164.8" font-family="Times,serif" font-size="14.00" fill="#000000">DownloadOrderModalModule</text>
</g>
<!-- DownloadOrderModalComponent&#45;&gt;DownloadOrderModalModule -->
<g id="edge1" class="edge">
<title>DownloadOrderModalComponent&#45;&gt;DownloadOrderModalModule</title>
<path fill="none" stroke="#000000" d="M392.0544,-122.1061C392.0544,-122.1061 392.0544,-140.991 392.0544,-140.991"/>
<polygon fill="#000000" stroke="#000000" points="388.5544,-140.9909 392.0544,-150.991 395.5544,-140.991 388.5544,-140.9909"/>
</g>
<!-- MaterialModule -->
<g id="node3" class="node">
<title>MaterialModule</title>
<polygon fill="#8dd3c7" stroke="#000000" points="360.4706,-122 357.4706,-126 336.4706,-126 333.4706,-122 253.5294,-122 253.5294,-86 360.4706,-86 360.4706,-122"/>
<text text-anchor="middle" x="307" y="-99.8" font-family="Times,serif" font-size="14.00" fill="#000000">MaterialModule</text>
</g>
<!-- MaterialModule&#45;&gt;DownloadOrderModalModule -->
<g id="edge2" class="edge">
<title>MaterialModule&#45;&gt;DownloadOrderModalModule</title>
<path fill="none" stroke="#000000" d="M307,-122.1061C307,-122.1061 307,-140.991 307,-140.991"/>
<polygon fill="#000000" stroke="#000000" points="303.5001,-140.9909 307,-150.991 310.5001,-140.991 303.5001,-140.9909"/>
</g>
<!-- DownloadOrderService -->
<g id="node4" class="node">
<title>DownloadOrderService</title>
<ellipse fill="#fdb462" stroke="#000000" cx="127" cy="-104" rx="102.9705" ry="18"/>
<text text-anchor="middle" x="127" y="-99.8" font-family="Times,serif" font-size="14.00" fill="#000000">DownloadOrderService</text>
</g>
<!-- DownloadOrderService&#45;&gt;DownloadOrderModalModule -->
<g id="edge3" class="edge">
<title>DownloadOrderService&#45;&gt;DownloadOrderModalModule</title>
<path fill="none" stroke="#000000" d="M221.6024,-111.2045C221.6024,-111.2045 221.6024,-140.9586 221.6024,-140.9586"/>
<polygon fill="#000000" stroke="#000000" points="218.1025,-140.9586 221.6024,-150.9586 225.1025,-140.9587 218.1025,-140.9586"/>
</g>
</g>
</svg>
