<?xml version="1.0" encoding="UTF-8" standalone="no"?>
<!DOCTYPE svg PUBLIC "-//W3C//DTD SVG 1.1//EN"
 "http://www.w3.org/Graphics/SVG/1.1/DTD/svg11.dtd">
<!-- Generated by graphviz version 2.40.1 (20161225.0304)
 -->
<!-- Title: dependencies Pages: 1 -->
<svg width="1377pt" height="211pt"
 viewBox="0.00 0.00 1377.00 211.00" xmlns="http://www.w3.org/2000/svg" xmlns:xlink="http://www.w3.org/1999/xlink">
<g id="graph0" class="graph" transform="scale(1 1) rotate(0) translate(4 207)">
<title>dependencies</title>
<polygon fill="#ffffff" stroke="transparent" points="-4,4 -4,-207 1373,-207 1373,4 -4,4"/>
<text text-anchor="start" x="663.5091" y="-42.4" font-family="sans-serif" font-weight="bold" font-size="14.00" fill="#000000">Legend</text>
<polygon fill="#ffffb3" stroke="transparent" points="450.5,-10 450.5,-30 470.5,-30 470.5,-10 450.5,-10"/>
<text text-anchor="start" x="474.129" y="-15.4" font-family="sans-serif" font-size="14.00" fill="#000000"> &#160;Declarations</text>
<polygon fill="#8dd3c7" stroke="transparent" points="563.5,-10 563.5,-30 583.5,-30 583.5,-10 563.5,-10"/>
<text text-anchor="start" x="587.2251" y="-15.4" font-family="sans-serif" font-size="14.00" fill="#000000"> &#160;Module</text>
<polygon fill="#80b1d3" stroke="transparent" points="649.5,-10 649.5,-30 669.5,-30 669.5,-10 649.5,-10"/>
<text text-anchor="start" x="673.2812" y="-15.4" font-family="sans-serif" font-size="14.00" fill="#000000"> &#160;Bootstrap</text>
<polygon fill="#fdb462" stroke="transparent" points="746.5,-10 746.5,-30 766.5,-30 766.5,-10 746.5,-10"/>
<text text-anchor="start" x="770.1732" y="-15.4" font-family="sans-serif" font-size="14.00" fill="#000000"> &#160;Providers</text>
<polygon fill="#fb8072" stroke="transparent" points="842.5,-10 842.5,-30 862.5,-30 862.5,-10 842.5,-10"/>
<text text-anchor="start" x="866.2258" y="-15.4" font-family="sans-serif" font-size="14.00" fill="#000000"> &#160;Exports</text>
<g id="clust1" class="cluster">
<title>cluster_HistoricalModuleAdmin</title>
<polygon fill="none" stroke="#000000" stroke-dasharray="1,5" points="8,-70 8,-195 1361,-195 1361,-70 8,-70"/>
</g>
<g id="clust2" class="cluster">
<title>cluster_HistoricalModuleAdmin_declarations</title>
<polygon fill="none" stroke="#000000" points="887,-78 887,-130 1353,-130 1353,-78 887,-78"/>
</g>
<g id="clust6" class="cluster">
<title>cluster_HistoricalModuleAdmin_imports</title>
<polygon fill="none" stroke="#000000" points="196,-78 196,-130 879,-130 879,-78 196,-78"/>
</g>
<g id="clust9" class="cluster">
<title>cluster_HistoricalModuleAdmin_providers</title>
<polygon fill="none" stroke="#000000" points="16,-78 16,-130 188,-130 188,-78 16,-78"/>
</g>
<!-- FilterComponent -->
<g id="node1" class="node">
<title>FilterComponent</title>
<polygon fill="#ffffb3" stroke="#000000" points="1344.6625,-122 1233.3375,-122 1233.3375,-86 1344.6625,-86 1344.6625,-122"/>
<text text-anchor="middle" x="1289" y="-99.8" font-family="Times,serif" font-size="14.00" fill="#000000">FilterComponent</text>
</g>
<!-- HistoricalModuleAdmin -->
<g id="node4" class="node">
<title>HistoricalModuleAdmin</title>
<polygon fill="#8dd3c7" stroke="#000000" points="712.6414,-187 709.6414,-191 688.6414,-191 685.6414,-187 559.3586,-187 559.3586,-151 712.6414,-151 712.6414,-187"/>
<text text-anchor="middle" x="636" y="-164.8" font-family="Times,serif" font-size="14.00" fill="#000000">HistoricalModuleAdmin</text>
</g>
<!-- FilterComponent&#45;&gt;HistoricalModuleAdmin -->
<g id="edge1" class="edge">
<title>FilterComponent&#45;&gt;HistoricalModuleAdmin</title>
<path fill="none" stroke="#000000" d="M1289,-122.2921C1289,-144.2057 1289,-178 1289,-178 1289,-178 722.8276,-178 722.8276,-178"/>
<polygon fill="#000000" stroke="#000000" points="722.8276,-174.5001 712.8276,-178 722.8276,-181.5001 722.8276,-174.5001"/>
</g>
<!-- HistoricalAdminComponent -->
<g id="node2" class="node">
<title>HistoricalAdminComponent</title>
<polygon fill="#ffffb3" stroke="#000000" points="1214.9241,-122 1039.0759,-122 1039.0759,-86 1214.9241,-86 1214.9241,-122"/>
<text text-anchor="middle" x="1127" y="-99.8" font-family="Times,serif" font-size="14.00" fill="#000000">HistoricalAdminComponent</text>
</g>
<!-- HistoricalAdminComponent&#45;&gt;HistoricalModuleAdmin -->
<g id="edge2" class="edge">
<title>HistoricalAdminComponent&#45;&gt;HistoricalModuleAdmin</title>
<path fill="none" stroke="#000000" d="M1127,-122.1061C1127,-141.3391 1127,-169 1127,-169 1127,-169 722.7188,-169 722.7188,-169"/>
<polygon fill="#000000" stroke="#000000" points="722.7188,-165.5001 712.7188,-169 722.7187,-172.5001 722.7188,-165.5001"/>
</g>
<!-- ToolbarComponent -->
<g id="node3" class="node">
<title>ToolbarComponent</title>
<polygon fill="#ffffb3" stroke="#000000" points="1020.6513,-122 895.3487,-122 895.3487,-86 1020.6513,-86 1020.6513,-122"/>
<text text-anchor="middle" x="958" y="-99.8" font-family="Times,serif" font-size="14.00" fill="#000000">ToolbarComponent</text>
</g>
<!-- ToolbarComponent&#45;&gt;HistoricalModuleAdmin -->
<g id="edge3" class="edge">
<title>ToolbarComponent&#45;&gt;HistoricalModuleAdmin</title>
<path fill="none" stroke="#000000" d="M958,-122.027C958,-138.3976 958,-160 958,-160 958,-160 722.7179,-160 722.7179,-160"/>
<polygon fill="#000000" stroke="#000000" points="722.718,-156.5001 712.7179,-160 722.7179,-163.5001 722.718,-156.5001"/>
</g>
<!-- DownloadHistoricalModalAdminModule -->
<g id="node5" class="node">
<title>DownloadHistoricalModalAdminModule</title>
<polygon fill="#8dd3c7" stroke="#000000" points="871.0097,-122 868.0097,-126 847.0097,-126 844.0097,-122 622.9903,-122 622.9903,-86 871.0097,-86 871.0097,-122"/>
<text text-anchor="middle" x="747" y="-99.8" font-family="Times,serif" font-size="14.00" fill="#000000">DownloadHistoricalModalAdminModule</text>
</g>
<!-- DownloadHistoricalModalAdminModule&#45;&gt;HistoricalModuleAdmin -->
<g id="edge4" class="edge">
<title>DownloadHistoricalModalAdminModule&#45;&gt;HistoricalModuleAdmin</title>
<path fill="none" stroke="#000000" d="M667.783,-122.1061C667.783,-122.1061 667.783,-140.991 667.783,-140.991"/>
<polygon fill="#000000" stroke="#000000" points="664.283,-140.9909 667.783,-150.991 671.283,-140.991 664.283,-140.9909"/>
</g>
<!-- HistoricalRoutingModule -->
<g id="node6" class="node">
<title>HistoricalRoutingModule</title>
<polygon fill="#8dd3c7" stroke="#000000" points="604.8711,-122 601.8711,-126 580.8711,-126 577.8711,-122 445.1289,-122 445.1289,-86 604.8711,-86 604.8711,-122"/>
<text text-anchor="middle" x="525" y="-99.8" font-family="Times,serif" font-size="14.00" fill="#000000">HistoricalRoutingModule</text>
</g>
<!-- HistoricalRoutingModule&#45;&gt;HistoricalModuleAdmin -->
<g id="edge5" class="edge">
<title>HistoricalRoutingModule&#45;&gt;HistoricalModuleAdmin</title>
<path fill="none" stroke="#000000" d="M582.0575,-122.1061C582.0575,-122.1061 582.0575,-140.991 582.0575,-140.991"/>
<polygon fill="#000000" stroke="#000000" points="578.5576,-140.9909 582.0575,-150.991 585.5576,-140.991 578.5576,-140.9909"/>
</g>
<!-- MaterialModule -->
<g id="node7" class="node">
<title>MaterialModule</title>
<polygon fill="#8dd3c7" stroke="#000000" points="427.4706,-122 424.4706,-126 403.4706,-126 400.4706,-122 320.5294,-122 320.5294,-86 427.4706,-86 427.4706,-122"/>
<text text-anchor="middle" x="374" y="-99.8" font-family="Times,serif" font-size="14.00" fill="#000000">MaterialModule</text>
</g>
<!-- MaterialModule&#45;&gt;HistoricalModuleAdmin -->
<g id="edge6" class="edge">
<title>MaterialModule&#45;&gt;HistoricalModuleAdmin</title>
<path fill="none" stroke="#000000" d="M374,-122.027C374,-138.3976 374,-160 374,-160 374,-160 549.1616,-160 549.1616,-160"/>
<polygon fill="#000000" stroke="#000000" points="549.1617,-163.5001 559.1616,-160 549.1616,-156.5001 549.1617,-163.5001"/>
</g>
<!-- SharedModule -->
<g id="node8" class="node">
<title>SharedModule</title>
<polygon fill="#8dd3c7" stroke="#000000" points="302.4231,-122 299.4231,-126 278.4231,-126 275.4231,-122 203.5769,-122 203.5769,-86 302.4231,-86 302.4231,-122"/>
<text text-anchor="middle" x="253" y="-99.8" font-family="Times,serif" font-size="14.00" fill="#000000">SharedModule</text>
</g>
<!-- SharedModule&#45;&gt;HistoricalModuleAdmin -->
<g id="edge7" class="edge">
<title>SharedModule&#45;&gt;HistoricalModuleAdmin</title>
<path fill="none" stroke="#000000" d="M253,-122.1061C253,-141.3391 253,-169 253,-169 253,-169 548.955,-169 548.955,-169"/>
<polygon fill="#000000" stroke="#000000" points="548.955,-172.5001 558.955,-169 548.9549,-165.5001 548.955,-172.5001"/>
</g>
<!-- HistoricalService -->
<g id="node9" class="node">
<title>HistoricalService</title>
<ellipse fill="#fdb462" stroke="#000000" cx="102" cy="-104" rx="78.1404" ry="18"/>
<text text-anchor="middle" x="102" y="-99.8" font-family="Times,serif" font-size="14.00" fill="#000000">HistoricalService</text>
</g>
<!-- HistoricalService&#45;&gt;HistoricalModuleAdmin -->
<g id="edge8" class="edge">
<title>HistoricalService&#45;&gt;HistoricalModuleAdmin</title>
<path fill="none" stroke="#000000" d="M102,-122.2921C102,-144.2057 102,-178 102,-178 102,-178 549.2067,-178 549.2067,-178"/>
<polygon fill="#000000" stroke="#000000" points="549.2067,-181.5001 559.2067,-178 549.2066,-174.5001 549.2067,-181.5001"/>
</g>
</g>
</svg>
