<?xml version="1.0" encoding="UTF-8" standalone="no"?>
<!DOCTYPE svg PUBLIC "-//W3C//DTD SVG 1.1//EN"
 "http://www.w3.org/Graphics/SVG/1.1/DTD/svg11.dtd">
<!-- Generated by graphviz version 2.40.1 (20161225.0304)
 -->
<!-- Title: dependencies Pages: 1 -->
<svg width="1103pt" height="211pt"
 viewBox="0.00 0.00 1103.00 211.00" xmlns="http://www.w3.org/2000/svg" xmlns:xlink="http://www.w3.org/1999/xlink">
<g id="graph0" class="graph" transform="scale(1 1) rotate(0) translate(4 207)">
<title>dependencies</title>
<polygon fill="#ffffff" stroke="transparent" points="-4,4 -4,-207 1099,-207 1099,4 -4,4"/>
<text text-anchor="start" x="526.5091" y="-42.4" font-family="sans-serif" font-weight="bold" font-size="14.00" fill="#000000">Legend</text>
<polygon fill="#ffffb3" stroke="transparent" points="313.5,-10 313.5,-30 333.5,-30 333.5,-10 313.5,-10"/>
<text text-anchor="start" x="337.129" y="-15.4" font-family="sans-serif" font-size="14.00" fill="#000000"> &#160;Declarations</text>
<polygon fill="#8dd3c7" stroke="transparent" points="426.5,-10 426.5,-30 446.5,-30 446.5,-10 426.5,-10"/>
<text text-anchor="start" x="450.2251" y="-15.4" font-family="sans-serif" font-size="14.00" fill="#000000"> &#160;Module</text>
<polygon fill="#80b1d3" stroke="transparent" points="512.5,-10 512.5,-30 532.5,-30 532.5,-10 512.5,-10"/>
<text text-anchor="start" x="536.2812" y="-15.4" font-family="sans-serif" font-size="14.00" fill="#000000"> &#160;Bootstrap</text>
<polygon fill="#fdb462" stroke="transparent" points="609.5,-10 609.5,-30 629.5,-30 629.5,-10 609.5,-10"/>
<text text-anchor="start" x="633.1732" y="-15.4" font-family="sans-serif" font-size="14.00" fill="#000000"> &#160;Providers</text>
<polygon fill="#fb8072" stroke="transparent" points="705.5,-10 705.5,-30 725.5,-30 725.5,-10 705.5,-10"/>
<text text-anchor="start" x="729.2258" y="-15.4" font-family="sans-serif" font-size="14.00" fill="#000000"> &#160;Exports</text>
<g id="clust1" class="cluster">
<title>cluster_HistoricalModuleAdmin</title>
<polygon fill="none" stroke="#000000" stroke-dasharray="1,5" points="8,-70 8,-195 1087,-195 1087,-70 8,-70"/>
</g>
<g id="clust2" class="cluster">
<title>cluster_HistoricalModuleAdmin_declarations</title>
<polygon fill="none" stroke="#000000" points="887,-78 887,-130 1079,-130 1079,-78 887,-78"/>
</g>
<g id="clust4" class="cluster">
<title>cluster_HistoricalModuleAdmin_imports</title>
<polygon fill="none" stroke="#000000" points="196,-78 196,-130 879,-130 879,-78 196,-78"/>
</g>
<g id="clust7" class="cluster">
<title>cluster_HistoricalModuleAdmin_providers</title>
<polygon fill="none" stroke="#000000" points="16,-78 16,-130 188,-130 188,-78 16,-78"/>
</g>
<!-- HistoricalAdminComponent -->
<g id="node1" class="node">
<title>HistoricalAdminComponent</title>
<polygon fill="#ffffb3" stroke="#000000" points="1070.9241,-122 895.0759,-122 895.0759,-86 1070.9241,-86 1070.9241,-122"/>
<text text-anchor="middle" x="983" y="-99.8" font-family="Times,serif" font-size="14.00" fill="#000000">HistoricalAdminComponent</text>
</g>
<!-- HistoricalModuleAdmin -->
<g id="node2" class="node">
<title>HistoricalModuleAdmin</title>
<polygon fill="#8dd3c7" stroke="#000000" points="525.6414,-187 522.6414,-191 501.6414,-191 498.6414,-187 372.3586,-187 372.3586,-151 525.6414,-151 525.6414,-187"/>
<text text-anchor="middle" x="449" y="-164.8" font-family="Times,serif" font-size="14.00" fill="#000000">HistoricalModuleAdmin</text>
</g>
<!-- HistoricalAdminComponent&#45;&gt;HistoricalModuleAdmin -->
<g id="edge1" class="edge">
<title>HistoricalAdminComponent&#45;&gt;HistoricalModuleAdmin</title>
<path fill="none" stroke="#000000" d="M983,-122.2843C983,-143.3211 983,-175 983,-175 983,-175 535.7933,-175 535.7933,-175"/>
<polygon fill="#000000" stroke="#000000" points="535.7934,-171.5001 525.7933,-175 535.7933,-178.5001 535.7934,-171.5001"/>
</g>
<!-- DownloadHistoricalModalAdminModule -->
<g id="node3" class="node">
<title>DownloadHistoricalModalAdminModule</title>
<polygon fill="#8dd3c7" stroke="#000000" points="871.0097,-122 868.0097,-126 847.0097,-126 844.0097,-122 622.9903,-122 622.9903,-86 871.0097,-86 871.0097,-122"/>
<text text-anchor="middle" x="747" y="-99.8" font-family="Times,serif" font-size="14.00" fill="#000000">DownloadHistoricalModalAdminModule</text>
</g>
<!-- DownloadHistoricalModalAdminModule&#45;&gt;HistoricalModuleAdmin -->
<g id="edge2" class="edge">
<title>DownloadHistoricalModalAdminModule&#45;&gt;HistoricalModuleAdmin</title>
<path fill="none" stroke="#000000" d="M747,-122.0225C747,-139.3734 747,-163 747,-163 747,-163 535.7424,-163 535.7424,-163"/>
<polygon fill="#000000" stroke="#000000" points="535.7424,-159.5001 525.7424,-163 535.7424,-166.5001 535.7424,-159.5001"/>
</g>
<!-- HistoricalRoutingModule -->
<g id="node4" class="node">
<title>HistoricalRoutingModule</title>
<polygon fill="#8dd3c7" stroke="#000000" points="604.8711,-122 601.8711,-126 580.8711,-126 577.8711,-122 445.1289,-122 445.1289,-86 604.8711,-86 604.8711,-122"/>
<text text-anchor="middle" x="525" y="-99.8" font-family="Times,serif" font-size="14.00" fill="#000000">HistoricalRoutingModule</text>
</g>
<!-- HistoricalRoutingModule&#45;&gt;HistoricalModuleAdmin -->
<g id="edge3" class="edge">
<title>HistoricalRoutingModule&#45;&gt;HistoricalModuleAdmin</title>
<path fill="none" stroke="#000000" d="M485.4425,-122.1061C485.4425,-122.1061 485.4425,-140.991 485.4425,-140.991"/>
<polygon fill="#000000" stroke="#000000" points="481.9426,-140.9909 485.4425,-150.991 488.9426,-140.991 481.9426,-140.9909"/>
</g>
<!-- MaterialModule -->
<g id="node5" class="node">
<title>MaterialModule</title>
<polygon fill="#8dd3c7" stroke="#000000" points="427.4706,-122 424.4706,-126 403.4706,-126 400.4706,-122 320.5294,-122 320.5294,-86 427.4706,-86 427.4706,-122"/>
<text text-anchor="middle" x="374" y="-99.8" font-family="Times,serif" font-size="14.00" fill="#000000">MaterialModule</text>
</g>
<!-- MaterialModule&#45;&gt;HistoricalModuleAdmin -->
<g id="edge4" class="edge">
<title>MaterialModule&#45;&gt;HistoricalModuleAdmin</title>
<path fill="none" stroke="#000000" d="M399.8324,-122.1061C399.8324,-122.1061 399.8324,-140.991 399.8324,-140.991"/>
<polygon fill="#000000" stroke="#000000" points="396.3325,-140.9909 399.8324,-150.991 403.3325,-140.991 396.3325,-140.9909"/>
</g>
<!-- SharedModule -->
<g id="node6" class="node">
<title>SharedModule</title>
<polygon fill="#8dd3c7" stroke="#000000" points="302.4231,-122 299.4231,-126 278.4231,-126 275.4231,-122 203.5769,-122 203.5769,-86 302.4231,-86 302.4231,-122"/>
<text text-anchor="middle" x="253" y="-99.8" font-family="Times,serif" font-size="14.00" fill="#000000">SharedModule</text>
</g>
<!-- SharedModule&#45;&gt;HistoricalModuleAdmin -->
<g id="edge5" class="edge">
<title>SharedModule&#45;&gt;HistoricalModuleAdmin</title>
<path fill="none" stroke="#000000" d="M253,-122.0225C253,-139.3734 253,-163 253,-163 253,-163 362.0982,-163 362.0982,-163"/>
<polygon fill="#000000" stroke="#000000" points="362.0982,-166.5001 372.0982,-163 362.0981,-159.5001 362.0982,-166.5001"/>
</g>
<!-- HistoricalService -->
<g id="node7" class="node">
<title>HistoricalService</title>
<ellipse fill="#fdb462" stroke="#000000" cx="102" cy="-104" rx="78.1404" ry="18"/>
<text text-anchor="middle" x="102" y="-99.8" font-family="Times,serif" font-size="14.00" fill="#000000">HistoricalService</text>
</g>
<!-- HistoricalService&#45;&gt;HistoricalModuleAdmin -->
<g id="edge6" class="edge">
<title>HistoricalService&#45;&gt;HistoricalModuleAdmin</title>
<path fill="none" stroke="#000000" d="M102,-122.2843C102,-143.3211 102,-175 102,-175 102,-175 361.9895,-175 361.9895,-175"/>
<polygon fill="#000000" stroke="#000000" points="361.9895,-178.5001 371.9895,-175 361.9894,-171.5001 361.9895,-178.5001"/>
</g>
</g>
</svg>
