<?xml version="1.0" encoding="utf-8"?>
<!-- Generator: Adobe Illustrator 18.1.0, SVG Export Plug-In . SVG Version: 6.00 Build 0)  -->
<svg version="1.1" id="Capa_1" xmlns="http://www.w3.org/2000/svg" xmlns:xlink="http://www.w3.org/1999/xlink" x="0px" y="0px"
	 viewBox="0 0 156 66" enable-background="new 0 0 156 66" xml:space="preserve">
<g>
	<g>
		<path fill="#030104" d="M48.6,35.5l1.4-0.1c0.1,0.6,0.2,1,0.5,1.4c0.2,0.4,0.6,0.7,1.2,0.9c0.5,0.2,1.1,0.3,1.8,0.3
			c0.6,0,1.1-0.1,1.5-0.3c0.4-0.2,0.8-0.4,1-0.7c0.2-0.3,0.3-0.6,0.3-1c0-0.4-0.1-0.7-0.3-0.9c-0.2-0.3-0.6-0.5-1-0.7
			c-0.3-0.1-1-0.3-2-0.6c-1.1-0.3-1.8-0.5-2.2-0.7c-0.5-0.3-1-0.6-1.2-1.1c-0.3-0.4-0.4-0.9-0.4-1.4c0-0.6,0.2-1.1,0.5-1.6
			s0.8-0.9,1.4-1.1c0.6-0.3,1.3-0.4,2.1-0.4c0.8,0,1.6,0.1,2.2,0.4s1.1,0.7,1.5,1.2c0.3,0.5,0.5,1.1,0.6,1.8L55.9,31
			c-0.1-0.7-0.3-1.3-0.8-1.6c-0.5-0.4-1.1-0.6-2-0.6c-0.9,0-1.6,0.2-2,0.5c-0.4,0.3-0.6,0.7-0.6,1.2c0,0.4,0.1,0.8,0.4,1
			c0.3,0.3,1.1,0.5,2.3,0.8c1.2,0.3,2.1,0.5,2.5,0.7c0.7,0.3,1.2,0.7,1.5,1.2c0.3,0.5,0.5,1,0.5,1.6c0,0.6-0.2,1.2-0.5,1.7
			c-0.3,0.5-0.9,1-1.5,1.3c-0.7,0.3-1.4,0.4-2.2,0.4c-1,0-1.9-0.2-2.6-0.5c-0.7-0.3-1.2-0.8-1.6-1.4S48.6,36.3,48.6,35.5z"/>
		<path fill="#030104" d="M64.8,36.5l1.5,0.2c-0.2,0.8-0.7,1.5-1.3,2c-0.6,0.5-1.4,0.7-2.4,0.7c-1.2,0-2.2-0.4-2.9-1.1
			s-1.1-1.8-1.1-3.1c0-1.4,0.4-2.5,1.1-3.3c0.7-0.8,1.7-1.2,2.8-1.2c1.1,0,2,0.4,2.7,1.1c0.7,0.8,1.1,1.8,1.1,3.2c0,0.1,0,0.2,0,0.4
			h-6.2c0.1,0.9,0.3,1.6,0.8,2.1c0.5,0.5,1,0.7,1.7,0.7c0.5,0,1-0.1,1.3-0.4C64.3,37.5,64.6,37.1,64.8,36.5z M60.2,34.2h4.6
			c-0.1-0.7-0.2-1.2-0.5-1.6c-0.4-0.5-1-0.8-1.7-0.8c-0.6,0-1.2,0.2-1.6,0.6C60.5,32.9,60.3,33.5,60.2,34.2z"/>
		<path fill="#030104" d="M67.6,39.2V27.7H69v11.5H67.6z"/>
		<path fill="#030104" d="M70.8,39.2V27.7h1.4v11.5H70.8z"/>
		<path fill="#030104" d="M79.6,36.5l1.5,0.2c-0.2,0.8-0.7,1.5-1.3,2s-1.4,0.7-2.4,0.7c-1.2,0-2.2-0.4-2.9-1.1s-1.1-1.8-1.1-3.1
			c0-1.4,0.4-2.5,1.1-3.3c0.7-0.8,1.7-1.2,2.8-1.2c1.1,0,2,0.4,2.7,1.1c0.7,0.8,1.1,1.8,1.1,3.2c0,0.1,0,0.2,0,0.4H75
			c0.1,0.9,0.3,1.6,0.8,2.1c0.5,0.5,1,0.7,1.7,0.7c0.5,0,1-0.1,1.3-0.4C79.1,37.5,79.4,37.1,79.6,36.5z M75,34.2h4.6
			c-0.1-0.7-0.2-1.2-0.5-1.6c-0.4-0.5-1-0.8-1.7-0.8c-0.6,0-1.2,0.2-1.6,0.6C75.3,32.9,75.1,33.5,75,34.2z"/>
		<path fill="#030104" d="M82.5,39.2v-8.3h1.3v1.3c0.3-0.6,0.6-1,0.9-1.2s0.6-0.3,0.9-0.3c0.5,0,1,0.2,1.4,0.5l-0.5,1.3
			c-0.3-0.2-0.7-0.3-1-0.3c-0.3,0-0.6,0.1-0.8,0.3s-0.4,0.4-0.5,0.8c-0.2,0.5-0.2,1-0.2,1.6v4.3H82.5z"/>
		<path fill="#787777" d="M98.9,35l2.2,0.7c-0.3,1.2-0.9,2.2-1.7,2.8s-1.8,0.9-3,0.9c-1.5,0-2.8-0.5-3.8-1.6s-1.5-2.5-1.5-4.3
			c0-1.9,0.5-3.4,1.5-4.4s2.3-1.6,3.9-1.6c1.4,0,2.5,0.4,3.4,1.2c0.5,0.5,0.9,1.2,1.2,2.1l-2.3,0.5c-0.1-0.6-0.4-1.1-0.8-1.4
			s-1-0.5-1.6-0.5c-0.8,0-1.5,0.3-2.1,0.9s-0.8,1.6-0.8,3c0,1.4,0.3,2.5,0.8,3.1s1.2,0.9,2,0.9c0.6,0,1.1-0.2,1.6-0.6
			S98.7,35.8,98.9,35z"/>
		<path fill="#787777" d="M107.1,36.5l2.2,0.4c-0.3,0.8-0.7,1.4-1.3,1.8s-1.4,0.6-2.3,0.6c-1.4,0-2.5-0.5-3.2-1.4
			c-0.5-0.8-0.8-1.7-0.8-2.9c0-1.4,0.4-2.5,1.1-3.2c0.7-0.8,1.6-1.2,2.7-1.2c1.2,0,2.2,0.4,2.9,1.2c0.7,0.8,1.1,2.1,1,3.7h-5.5
			c0,0.7,0.2,1.2,0.5,1.5s0.8,0.5,1.3,0.5c0.3,0,0.6-0.1,0.9-0.3S107,36.9,107.1,36.5z M107.2,34.3c0-0.6-0.2-1.1-0.5-1.4
			s-0.7-0.5-1.1-0.5c-0.5,0-0.9,0.2-1.2,0.5s-0.5,0.8-0.5,1.4H107.2z"/>
		<path fill="#787777" d="M117.9,39.2h-2.2v-4.2c0-0.9,0-1.5-0.1-1.7s-0.2-0.5-0.5-0.6s-0.5-0.2-0.8-0.2c-0.4,0-0.7,0.1-1,0.3
			s-0.5,0.5-0.6,0.8s-0.2,1-0.2,1.9v3.8h-2.2v-8.3h2v1.2c0.7-0.9,1.6-1.4,2.7-1.4c0.5,0,0.9,0.1,1.3,0.3s0.7,0.4,0.9,0.7
			s0.3,0.6,0.4,0.9s0.1,0.8,0.1,1.5V39.2z"/>
		<path fill="#787777" d="M123.2,30.9v1.8h-1.5V36c0,0.7,0,1.1,0,1.2s0.1,0.2,0.2,0.3s0.2,0.1,0.4,0.1c0.2,0,0.5-0.1,0.9-0.2
			l0.2,1.7c-0.5,0.2-1.1,0.3-1.7,0.3c-0.4,0-0.8-0.1-1.1-0.2s-0.6-0.3-0.7-0.5s-0.3-0.5-0.3-0.9c0-0.3-0.1-0.8-0.1-1.5v-3.6h-1v-1.8
			h1v-1.6l2.2-1.3v2.9H123.2z"/>
		<path fill="#787777" d="M128.7,36.5l2.2,0.4c-0.3,0.8-0.7,1.4-1.3,1.8s-1.4,0.6-2.3,0.6c-1.4,0-2.5-0.5-3.2-1.4
			c-0.5-0.8-0.8-1.7-0.8-2.9c0-1.4,0.4-2.5,1.1-3.2c0.7-0.8,1.6-1.2,2.7-1.2c1.2,0,2.2,0.4,2.9,1.2c0.7,0.8,1.1,2.1,1,3.7h-5.5
			c0,0.7,0.2,1.2,0.5,1.5s0.8,0.5,1.3,0.5c0.3,0,0.6-0.1,0.9-0.3C128.4,37.2,128.6,36.9,128.7,36.5z M128.8,34.3
			c0-0.6-0.2-1.1-0.5-1.4s-0.7-0.5-1.1-0.5c-0.5,0-0.9,0.2-1.2,0.5s-0.5,0.8-0.5,1.4H128.8z"/>
		<path fill="#787777" d="M134.1,39.2h-2.2v-8.3h2V32c0.3-0.6,0.7-0.9,0.9-1.1c0.3-0.2,0.6-0.3,0.9-0.3c0.5,0,1,0.1,1.4,0.4
			l-0.7,1.9c-0.4-0.2-0.7-0.4-1-0.4c-0.3,0-0.6,0.1-0.8,0.3s-0.4,0.5-0.5,0.9s-0.2,1.4-0.2,2.8V39.2z"/>
	</g>
	<circle fill="#A61C1B" cx="140.3" cy="37.7" r="1.9"/>
	<path fill="none" d="M16.9,23.2h16.5v16.5H16.9V23.2z"/>
	<circle fill="#F3DE2C" cx="28.7" cy="33.3" r="14.8"/>
	<path fill="#030104" d="M25.7,37.8c-0.7,0-1.3,0.6-1.3,1.3c0,0.7,0.6,1.3,1.3,1.3S27,39.7,27,39C27,38.3,26.4,37.8,25.7,37.8z
		 M21.9,27.7v1.3h1.3l2.3,4.8l-0.9,1.5c-0.1,0.2-0.2,0.4-0.2,0.6c0,0.7,0.6,1.3,1.3,1.3h7.6v-1.3H26c-0.1,0-0.2-0.1-0.2-0.2l0-0.1
		l0.6-1h4.7c0.5,0,0.9-0.3,1.1-0.6l2.3-4.1c0.1-0.1,0.1-0.2,0.1-0.3c0-0.3-0.3-0.6-0.6-0.6h-9.3L24,27.7H21.9z M32,37.8
		c-0.7,0-1.3,0.6-1.3,1.3c0,0.7,0.6,1.3,1.3,1.3c0.7,0,1.3-0.6,1.3-1.3C33.3,38.3,32.7,37.8,32,37.8z"/>
</g>
</svg>
