<?xml version="1.0" encoding="utf-8"?>
<!-- Generator: Adobe Illustrator 16.0.0, SVG Export Plug-In . SVG Version: 6.00 Build 0)  -->
<!DOCTYPE svg PUBLIC "-//W3C//DTD SVG 1.1//EN" "http://www.w3.org/Graphics/SVG/1.1/DTD/svg11.dtd">
<svg version="1.1" id="Capa_1" xmlns="http://www.w3.org/2000/svg" xmlns:xlink="http://www.w3.org/1999/xlink" x="0px" y="0px"
	 width="637.708px" height="143.536px" viewBox="0 0 637.708 143.536" enable-background="new 0 0 637.708 143.536"
	 xml:space="preserve">
<g>
	<g>
		<path fill="#E2231A" d="M518.143,111.084c0-6.069-4.942-10.989-10.969-10.989c-6.049,0-10.968,4.92-10.968,10.989
			c0,6.027,4.919,10.969,10.968,10.969C513.201,122.053,518.143,117.111,518.143,111.084"/>
		<path fill="#231F20" d="M191.73,84.949c-1.75,8.672-7.987,13.388-16.81,13.388c-12.551,0-18.484-8.672-18.864-20.689
			c0-11.79,7.758-20.462,18.483-20.462c13.92,0,18.18,13.008,17.8,22.516h-29.438c-0.227,6.846,3.652,12.931,12.247,12.931
			c5.324,0,9.052-2.586,10.193-7.683H191.73z M185.494,73.996c-0.305-6.161-4.944-11.105-11.334-11.105
			c-6.77,0-10.801,5.097-11.258,11.105H185.494z"/>
		<path fill="#231F20" d="M197.659,58.099h6.085v6.237h0.152c2.739-4.868,7.151-7.15,12.78-7.15
			c10.344,0,13.539,5.934,13.539,14.376v25.862h-6.466V70.802c0-4.792-3.042-7.911-7.986-7.911c-7.835,0-11.638,5.249-11.638,12.322
			v22.211h-6.466V58.099z"/>
		<polygon fill="#231F20" points="256.301,97.424 249.378,97.424 234.774,58.099 242,58.099 253.03,90.883 253.182,90.883 
			263.907,58.099 270.677,58.099 		"/>
		<path fill="#231F20" d="M280.714,41.82h8.291l-9.964,10.879h-4.868L280.714,41.82z M275.617,58.099h6.467v39.325h-6.467V58.099z"
			/>
		<path fill="#231F20" d="M307.715,57.186c12.475,0,19.092,9.053,19.092,20.613c0,11.486-6.617,20.538-19.092,20.538
			c-12.476,0-19.093-9.052-19.093-20.538C288.623,66.238,295.24,57.186,307.715,57.186 M307.715,92.632
			c6.771,0,12.246-5.324,12.246-14.833c0-9.584-5.476-14.908-12.246-14.908s-12.247,5.324-12.247,14.908
			C295.468,87.308,300.945,92.632,307.715,92.632"/>
		<path fill="#231F20" d="M336.995,85.025c0.229,5.781,5.249,7.606,10.573,7.606c4.03,0,9.508-0.913,9.508-5.856
			c0-5.021-6.389-5.857-12.854-7.303c-6.39-1.445-12.855-3.575-12.855-11.105c0-7.91,7.835-11.181,14.681-11.181
			c8.672,0,15.594,2.737,16.126,12.321h-6.466c-0.456-5.02-4.868-6.617-9.127-6.617c-3.88,0-8.367,1.064-8.367,5.021
			c0,4.641,6.846,5.4,12.854,6.846c6.466,1.445,12.855,3.575,12.855,11.182c0,9.355-8.748,12.398-16.734,12.398
			c-8.824,0-16.278-3.575-16.658-13.312H336.995z"/>
	</g>
	<path fill="#231F20" d="M436.755,58.653c-1.085-4.132-2.789-7.817-5.196-11.033c-2.364-3.278-5.431-5.856-9.137-7.795
		c-3.77-1.938-8.114-2.918-13.014-2.918c-4.431,0-8.519,0.788-12.141,2.364c-3.662,1.576-6.836,3.77-9.456,6.561
		c-2.641,2.725-4.706,5.984-6.111,9.775c-1.448,3.748-2.174,7.816-2.174,12.14c0,4.451,0.726,8.583,2.088,12.332
		c1.385,3.748,3.366,7.007,5.964,9.754c2.577,2.748,5.75,4.856,9.456,6.305c3.686,1.49,7.815,2.215,12.374,2.215
		c6.518,0,12.226-1.47,16.891-4.515c2.406-1.513,4.493-3.578,6.218-6.113c1.726-2.492,3.194-5.474,4.261-8.944l0.404-1.215
		c0,0,0.212-0.554-0.404-0.554h-14.995c-0.809,0-0.895,0.49-0.895,0.49l-0.147,0.468c-0.192,0.683-0.576,1.364-1.15,2.066
		c-0.554,0.703-1.385,1.363-2.449,2.108c-1.981,1.363-4.324,2.065-7.222,2.065c-2.023,0-3.812-0.255-5.302-0.787
		c-1.448-0.469-2.686-1.214-3.728-2.173c-0.959-0.979-1.725-2.215-2.321-3.876c-0.447-1.32-0.767-2.854-0.96-4.643h39.51
		c0.66,0,0.681-0.745,0.681-0.745l0.021-0.512c0.065-0.98,0.086-1.959,0.086-2.939C437.906,65.127,437.501,61.826,436.755,58.653
		 M399.996,54.926c0.83-1.021,1.979-1.938,3.492-2.684c1.343-0.745,3.152-1.107,5.453-1.107c1.746,0,3.259,0.213,4.45,0.682
		c1.258,0.426,2.195,1.044,2.96,1.896c1.344,1.51,2.451,3.684,3.196,6.644h-21.853c0.128-0.64,0.298-1.3,0.469-1.959
		C398.546,57.162,399.142,56.033,399.996,54.926"/>
	<path fill="#231F20" d="M493.888,96.444L472.695,65.86l19.169-27.241c0,0,0.191-0.361-0.427-0.361h-19.402
		c-0.639,0-0.809,0.361-0.809,0.361l-8.668,13.035l-8.754-12.949c0,0-0.299-0.447-0.958-0.447H432.91
		c-0.553,0-0.233,0.404-0.233,0.404l1.342,1.939l17.741,25.621l-20.682,30.265c0,0-0.36,0.575,0.299,0.575h19.402
		c0.811,0,1.131-0.661,1.131-0.661l10.413-15.76l10.438,15.76c0,0,0.425,0.661,1.106,0.661h19.722
		C494.313,97.063,493.888,96.444,493.888,96.444"/>
	<path fill="#231F20" d="M518.391,38.248h-22.342c-0.81,0-0.66,0.555-0.66,0.555l3.216,57.548c0,0,0.063,0.724,0.66,0.724h15.824
		c0.682,0,0.682-0.767,0.682-0.767l3.216-57.419C518.987,38.889,518.987,38.248,518.391,38.248"/>
	<path fill="#231F20" d="M560.973,51.481c0,0,0.639-0.042,0.639-0.724V38.83c0,0,0.021-0.554-0.639-0.554h-10.607v-16.08
		c0,0,0.063-0.702-0.617-0.702H532.69c-0.661,0-0.619,0.66-0.619,0.66v16.122h-8.582c-0.789,0-0.683,0.533-0.683,0.533v12.012
		c0,0-0.106,0.66,0.554,0.66h8.711v31.479c0,2.938,0.533,5.451,1.598,7.475c1.044,1.938,2.514,3.515,4.387,4.579
		c1.769,1.044,3.856,1.726,6.114,2.066c2.235,0.362,4.535,0.511,7.007,0.511c1.469,0,3.066-0.042,4.685-0.106
		c1.641-0.063,3.109-0.213,4.516-0.426l0.639-0.128c0,0,0.597,0,0.597-0.745V82.471c0-0.746-0.639-0.49-0.639-0.49l-1.15,0.255
		c-0.661,0.129-1.384,0.235-2.108,0.277c-0.724,0.086-1.534,0.128-2.344,0.128c-1.192,0-2.193-0.128-2.875-0.276
		c-0.702-0.192-1.106-0.426-1.256-0.64c-0.191-0.128-0.404-0.532-0.597-1.214c-0.171-0.702-0.277-1.661-0.277-2.875V51.481H560.973z
		"/>
	<path fill="#231F20" d="M621.293,55.07c-1.47-3.813-3.493-7.113-6.177-9.818c-2.705-2.704-5.898-4.792-9.648-6.283
		c-3.748-1.49-7.943-2.193-12.459-2.193c-4.536,0-8.731,0.703-12.459,2.193c-3.686,1.491-6.879,3.579-9.563,6.283
		c-2.683,2.705-4.728,6.006-6.155,9.818c-1.469,3.834-2.193,8.051-2.193,12.65c0,4.622,0.725,8.861,2.193,12.651
		c1.428,3.771,3.473,7.03,6.155,9.755c2.685,2.684,5.878,4.813,9.563,6.198c3.748,1.448,7.923,2.172,12.459,2.172
		c4.516,0,8.689-0.724,12.459-2.172c3.75-1.385,6.943-3.515,9.648-6.198c2.684-2.725,4.707-5.984,6.177-9.755
		c1.384-3.79,2.108-8.029,2.108-12.651C623.402,63.121,622.677,58.904,621.293,55.07 M598.782,82.758
		c-1.513,0.853-3.388,1.299-5.772,1.299c-2.427,0-4.324-0.446-5.771-1.299c-1.513-0.895-2.704-2.064-3.643-3.557
		c-0.937-1.533-1.617-3.258-2.044-5.239c-0.404-2.023-0.597-4.11-0.597-6.241c0-2.13,0.192-4.238,0.597-6.303
		c0.427-2.002,1.107-3.749,2.044-5.197c0.938-1.49,2.13-2.662,3.643-3.599c1.447-0.874,3.386-1.321,5.771-1.321
		c2.385,0,4.26,0.447,5.729,1.321c1.619,0.937,2.811,2.13,3.748,3.599c0.916,1.448,1.62,3.195,2.002,5.197
		c0.427,2.064,0.64,4.173,0.64,6.303c0,2.131-0.213,4.218-0.64,6.241c-0.382,1.981-1.086,3.706-2.002,5.239
		C601.549,80.671,600.358,81.863,598.782,82.758"/>
	<path fill="#231F20" d="M411.618,21.931l-8.627,10.798c0,0-0.511,0.598,0.171,0.598h10.159c0.787,0,1.257-0.426,1.257-0.426
		l14.439-10.97c0,0,0.47-0.446-0.191-0.446h-16.188C411.893,21.484,411.618,21.931,411.618,21.931"/>
	<path fill="#231F20" d="M637.708,43.991c0,1.3-0.341,2.513-0.958,3.599c-0.661,1.172-1.469,2.023-2.641,2.662
		c-1.107,0.661-2.301,0.98-3.578,0.98c-1.321,0-2.514-0.319-3.6-0.98c-1.129-0.639-1.981-1.49-2.62-2.662
		c-0.64-1.086-0.979-2.299-0.979-3.599c0-1.278,0.34-2.429,0.979-3.578c0.639-1.129,1.491-2.002,2.62-2.62
		c1.086-0.639,2.278-0.938,3.6-0.938c1.277,0,2.471,0.299,3.578,0.938c1.172,0.618,1.979,1.491,2.641,2.62
		C637.367,41.563,637.708,42.713,637.708,43.991 M636.324,43.991c0-1.554-0.575-2.962-1.683-4.111
		c-1.108-1.106-2.534-1.661-4.11-1.661c-1.619,0-2.982,0.555-4.153,1.661c-1.086,1.149-1.683,2.558-1.683,4.111
		c0,1.618,0.597,2.981,1.683,4.11c1.171,1.149,2.534,1.703,4.153,1.703c1.576,0,3.002-0.554,4.11-1.703
		C635.749,46.973,636.324,45.609,636.324,43.991 M627.25,40.178h3.45c0.958,0,1.661,0.172,2.131,0.575
		c0.404,0.384,0.617,0.896,0.617,1.577c0,0.531-0.17,0.979-0.47,1.32c-0.361,0.404-0.872,0.682-1.598,0.852
		c0.277,0.128,0.513,0.234,0.661,0.341c0.17,0.191,0.405,0.448,0.617,0.788c0,0,0.404,0.788,1.236,2.236h-2.279
		c-0.703-1.491-1.193-2.321-1.47-2.641c-0.234-0.256-0.49-0.404-0.745-0.404c0,0-0.17,0-0.233,0.021v3.024h-1.918V40.178z
		 M629.168,43.458h0.829c0.533,0,0.938-0.127,1.172-0.276c0.212-0.191,0.319-0.427,0.319-0.703c0-0.256-0.107-0.533-0.319-0.682
		c-0.192-0.191-0.597-0.275-1.107-0.275h-0.894V43.458z"/>
</g>
<g>
	<polygon fill="#E2231A" points="39.07,42.828 68.43,42.828 68.43,33.925 48.606,33.925 	"/>
	<path fill="#E2231A" d="M71.768,0C32.132,0,0,32.132,0,71.768c0,39.637,32.132,71.769,71.768,71.769
		c39.637,0,71.768-32.132,71.768-71.769C143.535,32.132,111.404,0,71.768,0z M116.283,112.939c0,1.844-1.494,3.338-3.338,3.338
		H43.947c-0.033,0.001-0.063,0.001-0.096,0c-1.844-0.025-3.318-1.542-3.291-3.386c0.025-1.844,1.542-3.317,3.387-3.291h65.658
		V49.505H33.93v63.435c0.001,0.031,0.001,0.063,0,0.094c-0.025,1.844-1.542,3.317-3.385,3.293c-1.844-0.027-3.318-1.543-3.293-3.387
		V46.166c-0.002-0.92,0.375-1.801,1.045-2.435L44.99,28.152c0.531-0.509,1.215-0.826,1.946-0.904c0.116-0.006,0.231-0.006,0.349,0
		h35.611c0.032-0.002,0.063-0.002,0.096,0c1.844,0.025,3.316,1.541,3.291,3.386c-0.026,1.843-1.543,3.317-3.387,3.291h-7.79v8.903
		h29.357l-10.509-9.808c-0.672-0.61-1.065-1.471-1.09-2.38c-0.051-1.843,1.403-3.378,3.248-3.428
		c0.904-0.03,1.783,0.309,2.434,0.939l16.693,15.579c0.668,0.634,1.045,1.515,1.043,2.435V112.939z M60.952,78.385
		c-1.2,1.402-3.31,1.565-4.712,0.365c-1.402-1.201-1.566-3.311-0.365-4.713l13.354-15.58c0.607-0.697,1.476-1.113,2.4-1.148
		c1.021-0.047,2.008,0.375,2.678,1.148l13.354,15.58c1.201,1.402,1.037,3.512-0.365,4.713c-1.401,1.2-3.512,1.037-4.712-0.365
		l-7.477-8.728v28.829c0,0.032,0,0.063,0,0.094c-0.027,1.844-1.543,3.317-3.387,3.292c-1.844-0.026-3.317-1.542-3.291-3.386V69.657
		L60.952,78.385z"/>
</g>
</svg>
