<?xml version="1.0" encoding="UTF-8" standalone="no"?>
<!DOCTYPE svg PUBLIC "-//W3C//DTD SVG 1.1//EN"
 "http://www.w3.org/Graphics/SVG/1.1/DTD/svg11.dtd">
<!-- Generated by graphviz version 2.40.1 (20161225.0304)
 -->
<!-- Title: dependencies Pages: 1 -->
<svg width="2976pt" height="284pt"
 viewBox="0.00 0.00 2976.00 284.00" xmlns="http://www.w3.org/2000/svg" xmlns:xlink="http://www.w3.org/1999/xlink">
<g id="graph0" class="graph" transform="scale(1 1) rotate(0) translate(4 280)">
<title>dependencies</title>
<polygon fill="#ffffff" stroke="transparent" points="-4,4 -4,-280 2972,-280 2972,4 -4,4"/>
<text text-anchor="start" x="1463.0091" y="-42.4" font-family="sans-serif" font-weight="bold" font-size="14.00" fill="#000000">Legend</text>
<polygon fill="#ffffb3" stroke="transparent" points="1250,-10 1250,-30 1270,-30 1270,-10 1250,-10"/>
<text text-anchor="start" x="1273.629" y="-15.4" font-family="sans-serif" font-size="14.00" fill="#000000"> &#160;Declarations</text>
<polygon fill="#8dd3c7" stroke="transparent" points="1363,-10 1363,-30 1383,-30 1383,-10 1363,-10"/>
<text text-anchor="start" x="1386.7251" y="-15.4" font-family="sans-serif" font-size="14.00" fill="#000000"> &#160;Module</text>
<polygon fill="#80b1d3" stroke="transparent" points="1449,-10 1449,-30 1469,-30 1469,-10 1449,-10"/>
<text text-anchor="start" x="1472.7812" y="-15.4" font-family="sans-serif" font-size="14.00" fill="#000000"> &#160;Bootstrap</text>
<polygon fill="#fdb462" stroke="transparent" points="1546,-10 1546,-30 1566,-30 1566,-10 1546,-10"/>
<text text-anchor="start" x="1569.6732" y="-15.4" font-family="sans-serif" font-size="14.00" fill="#000000"> &#160;Providers</text>
<polygon fill="#fb8072" stroke="transparent" points="1642,-10 1642,-30 1662,-30 1662,-10 1642,-10"/>
<text text-anchor="start" x="1665.7258" y="-15.4" font-family="sans-serif" font-size="14.00" fill="#000000"> &#160;Exports</text>
<g id="clust1" class="cluster">
<title>cluster_OrdersModule</title>
<polygon fill="none" stroke="#000000" stroke-dasharray="1,5" points="8,-70 8,-268 2960,-268 2960,-70 8,-70"/>
</g>
<g id="clust2" class="cluster">
<title>cluster_OrdersModule_declarations</title>
<polygon fill="none" stroke="#000000" points="1690,-78 1690,-130 2952,-130 2952,-78 1690,-78"/>
</g>
<g id="clust10" class="cluster">
<title>cluster_OrdersModule_imports</title>
<polygon fill="none" stroke="#000000" points="691,-78 691,-130 1682,-130 1682,-78 691,-78"/>
</g>
<g id="clust11" class="cluster">
<title>cluster_OrdersModule_exports</title>
<polygon fill="none" stroke="#000000" points="829,-208 829,-260 1937,-260 1937,-208 829,-208"/>
</g>
<g id="clust13" class="cluster">
<title>cluster_OrdersModule_providers</title>
<polygon fill="none" stroke="#000000" points="16,-78 16,-130 683,-130 683,-78 16,-78"/>
</g>
<!-- ConfirmAlertComponent -->
<g id="node1" class="node">
<title>ConfirmAlertComponent</title>
<polygon fill="#ffffb3" stroke="#000000" points="2943.5351,-122 2786.4649,-122 2786.4649,-86 2943.5351,-86 2943.5351,-122"/>
<text text-anchor="middle" x="2865" y="-99.8" font-family="Times,serif" font-size="14.00" fill="#000000">ConfirmAlertComponent</text>
</g>
<!-- OrdersModule -->
<g id="node8" class="node">
<title>OrdersModule</title>
<polygon fill="#8dd3c7" stroke="#000000" points="1428.6375,-187 1425.6375,-191 1404.6375,-191 1401.6375,-187 1331.3625,-187 1331.3625,-151 1428.6375,-151 1428.6375,-187"/>
<text text-anchor="middle" x="1380" y="-164.8" font-family="Times,serif" font-size="14.00" fill="#000000">OrdersModule</text>
</g>
<!-- ConfirmAlertComponent&#45;&gt;OrdersModule -->
<g id="edge1" class="edge">
<title>ConfirmAlertComponent&#45;&gt;OrdersModule</title>
<path fill="none" stroke="#000000" d="M2865,-122.2921C2865,-144.2057 2865,-178 2865,-178 2865,-178 1438.9856,-178 1438.9856,-178"/>
<polygon fill="#000000" stroke="#000000" points="1438.9857,-174.5001 1428.9856,-178 1438.9856,-181.5001 1438.9857,-174.5001"/>
</g>
<!-- FormProductComponent -->
<g id="node2" class="node">
<title>FormProductComponent</title>
<polygon fill="#ffffb3" stroke="#000000" points="2768.7147,-122 2613.2853,-122 2613.2853,-86 2768.7147,-86 2768.7147,-122"/>
<text text-anchor="middle" x="2691" y="-99.8" font-family="Times,serif" font-size="14.00" fill="#000000">FormProductComponent</text>
</g>
<!-- FormProductComponent&#45;&gt;OrdersModule -->
<g id="edge2" class="edge">
<title>FormProductComponent&#45;&gt;OrdersModule</title>
<path fill="none" stroke="#000000" d="M2691,-122.0267C2691,-142.7672 2691,-174 2691,-174 2691,-174 1439.0001,-174 1439.0001,-174"/>
<polygon fill="#000000" stroke="#000000" points="1439.0001,-170.5001 1429.0001,-174 1439,-177.5001 1439.0001,-170.5001"/>
</g>
<!-- OrderDetailModalComponent -->
<g id="node3" class="node">
<title>OrderDetailModalComponent</title>
<polygon fill="#ffffb3" stroke="#000000" points="2595.2324,-122 2410.7676,-122 2410.7676,-86 2595.2324,-86 2595.2324,-122"/>
<text text-anchor="middle" x="2503" y="-99.8" font-family="Times,serif" font-size="14.00" fill="#000000">OrderDetailModalComponent</text>
</g>
<!-- OrderDetailModalComponent&#45;&gt;OrdersModule -->
<g id="edge3" class="edge">
<title>OrderDetailModalComponent&#45;&gt;OrdersModule</title>
<path fill="none" stroke="#000000" d="M2503,-122.308C2503,-142.1455 2503,-171 2503,-171 2503,-171 1438.976,-171 1438.976,-171"/>
<polygon fill="#000000" stroke="#000000" points="1438.976,-167.5001 1428.976,-171 1438.976,-174.5001 1438.976,-167.5001"/>
</g>
<!-- OrdersListComponent -->
<g id="node4" class="node">
<title>OrdersListComponent</title>
<polygon fill="#ffffb3" stroke="#000000" points="2392.6979,-122 2251.3021,-122 2251.3021,-86 2392.6979,-86 2392.6979,-122"/>
<text text-anchor="middle" x="2322" y="-99.8" font-family="Times,serif" font-size="14.00" fill="#000000">OrdersListComponent</text>
</g>
<!-- OrdersListComponent&#45;&gt;OrdersModule -->
<g id="edge4" class="edge">
<title>OrdersListComponent&#45;&gt;OrdersModule</title>
<path fill="none" stroke="#000000" d="M2322,-122.1686C2322,-141.0898 2322,-168 2322,-168 2322,-168 1438.6624,-168 1438.6624,-168"/>
<polygon fill="#000000" stroke="#000000" points="1438.6624,-164.5001 1428.6624,-168 1438.6624,-171.5001 1438.6624,-164.5001"/>
</g>
<!-- ProductDetailModalComponent -->
<g id="node5" class="node">
<title>ProductDetailModalComponent</title>
<polygon fill="#ffffb3" stroke="#000000" points="2233.6385,-122 2038.3615,-122 2038.3615,-86 2233.6385,-86 2233.6385,-122"/>
<text text-anchor="middle" x="2136" y="-99.8" font-family="Times,serif" font-size="14.00" fill="#000000">ProductDetailModalComponent</text>
</g>
<!-- ProductDetailModalComponent&#45;&gt;OrdersModule -->
<g id="edge5" class="edge">
<title>ProductDetailModalComponent&#45;&gt;OrdersModule</title>
<path fill="none" stroke="#000000" d="M2136,-122.302C2136,-140.2699 2136,-165 2136,-165 2136,-165 1438.7306,-165 1438.7306,-165"/>
<polygon fill="#000000" stroke="#000000" points="1438.7307,-161.5001 1428.7306,-165 1438.7306,-168.5001 1438.7307,-161.5001"/>
</g>
<!-- ProductsOrderComponent -->
<g id="node6" class="node">
<title>ProductsOrderComponent</title>
<polygon fill="#ffffb3" stroke="#000000" points="2020.4678,-122 1857.5322,-122 1857.5322,-86 2020.4678,-86 2020.4678,-122"/>
<text text-anchor="middle" x="1939" y="-99.8" font-family="Times,serif" font-size="14.00" fill="#000000">ProductsOrderComponent</text>
</g>
<!-- ProductsOrderComponent&#45;&gt;OrdersModule -->
<g id="edge6" class="edge">
<title>ProductsOrderComponent&#45;&gt;OrdersModule</title>
<path fill="none" stroke="#000000" d="M1893.4367,-122.0352C1893.4367,-138.7344 1893.4367,-161 1893.4367,-161 1893.4367,-161 1438.7658,-161 1438.7658,-161"/>
<polygon fill="#000000" stroke="#000000" points="1438.7658,-157.5001 1428.7658,-161 1438.7657,-164.5001 1438.7658,-157.5001"/>
</g>
<!-- SendOrderComponent -->
<g id="node7" class="node">
<title>SendOrderComponent</title>
<polygon fill="#ffffb3" stroke="#000000" points="1839.972,-122 1698.028,-122 1698.028,-86 1839.972,-86 1839.972,-122"/>
<text text-anchor="middle" x="1769" y="-99.8" font-family="Times,serif" font-size="14.00" fill="#000000">SendOrderComponent</text>
</g>
<!-- SendOrderComponent&#45;&gt;OrdersModule -->
<g id="edge7" class="edge">
<title>SendOrderComponent&#45;&gt;OrdersModule</title>
<path fill="none" stroke="#000000" d="M1725.5651,-122.2819C1725.5651,-137.9478 1725.5651,-158 1725.5651,-158 1725.5651,-158 1438.7781,-158 1438.7781,-158"/>
<polygon fill="#000000" stroke="#000000" points="1438.7781,-154.5001 1428.7781,-158 1438.7781,-161.5001 1438.7781,-154.5001"/>
</g>
<!-- FormProductComponent  -->
<g id="node15" class="node">
<title>FormProductComponent </title>
<polygon fill="#fb8072" stroke="#000000" points="1929.2149,-252 1770.7851,-252 1770.7851,-216 1929.2149,-216 1929.2149,-252"/>
<text text-anchor="middle" x="1850" y="-229.8" font-family="Times,serif" font-size="14.00" fill="#000000">FormProductComponent </text>
</g>
<!-- OrdersModule&#45;&gt;FormProductComponent  -->
<g id="edge14" class="edge">
<title>OrdersModule&#45;&gt;FormProductComponent </title>
<path fill="none" stroke="#000000" stroke-dasharray="5,2" d="M1428.789,-181C1540.5053,-181 1805.3144,-181 1805.3144,-181 1805.3144,-181 1805.3144,-205.7604 1805.3144,-205.7604"/>
<polygon fill="#000000" stroke="#000000" points="1801.8144,-205.7604 1805.3144,-215.7604 1808.8144,-205.7604 1801.8144,-205.7604"/>
</g>
<!-- OrderDetailModalComponent  -->
<g id="node16" class="node">
<title>OrderDetailModalComponent </title>
<polygon fill="#fb8072" stroke="#000000" points="1753.2323,-252 1564.7677,-252 1564.7677,-216 1753.2323,-216 1753.2323,-252"/>
<text text-anchor="middle" x="1659" y="-229.8" font-family="Times,serif" font-size="14.00" fill="#000000">OrderDetailModalComponent </text>
</g>
<!-- OrdersModule&#45;&gt;OrderDetailModalComponent  -->
<g id="edge15" class="edge">
<title>OrdersModule&#45;&gt;OrderDetailModalComponent </title>
<path fill="none" stroke="#000000" stroke-dasharray="5,2" d="M1428.7239,-184C1498.7054,-184 1619.347,-184 1619.347,-184 1619.347,-184 1619.347,-205.9489 1619.347,-205.9489"/>
<polygon fill="#000000" stroke="#000000" points="1615.847,-205.9488 1619.347,-215.9489 1622.847,-205.9489 1615.847,-205.9488"/>
</g>
<!-- OrdersListComponent  -->
<g id="node17" class="node">
<title>OrdersListComponent </title>
<polygon fill="#fb8072" stroke="#000000" points="1547.1981,-252 1402.8019,-252 1402.8019,-216 1547.1981,-216 1547.1981,-252"/>
<text text-anchor="middle" x="1475" y="-229.8" font-family="Times,serif" font-size="14.00" fill="#000000">OrdersListComponent </text>
</g>
<!-- OrdersModule&#45;&gt;OrdersListComponent  -->
<g id="edge16" class="edge">
<title>OrdersModule&#45;&gt;OrdersListComponent </title>
<path fill="none" stroke="#000000" stroke-dasharray="5,2" d="M1415.7348,-187.1061C1415.7348,-187.1061 1415.7348,-205.991 1415.7348,-205.991"/>
<polygon fill="#000000" stroke="#000000" points="1412.2348,-205.9909 1415.7348,-215.991 1419.2348,-205.991 1412.2348,-205.9909"/>
</g>
<!-- ProductDetailModalComponent  -->
<g id="node18" class="node">
<title>ProductDetailModalComponent </title>
<polygon fill="#fb8072" stroke="#000000" points="1384.6382,-252 1185.3618,-252 1185.3618,-216 1384.6382,-216 1384.6382,-252"/>
<text text-anchor="middle" x="1285" y="-229.8" font-family="Times,serif" font-size="14.00" fill="#000000">ProductDetailModalComponent </text>
</g>
<!-- OrdersModule&#45;&gt;ProductDetailModalComponent  -->
<g id="edge17" class="edge">
<title>OrdersModule&#45;&gt;ProductDetailModalComponent </title>
<path fill="none" stroke="#000000" stroke-dasharray="5,2" d="M1357.8753,-187.1061C1357.8753,-187.1061 1357.8753,-205.991 1357.8753,-205.991"/>
<polygon fill="#000000" stroke="#000000" points="1354.3754,-205.9909 1357.8753,-215.991 1361.3754,-205.991 1354.3754,-205.9909"/>
</g>
<!-- ProductsOrderComponent  -->
<g id="node19" class="node">
<title>ProductsOrderComponent </title>
<polygon fill="#fb8072" stroke="#000000" points="1167.4685,-252 1000.5315,-252 1000.5315,-216 1167.4685,-216 1167.4685,-252"/>
<text text-anchor="middle" x="1084" y="-229.8" font-family="Times,serif" font-size="14.00" fill="#000000">ProductsOrderComponent </text>
</g>
<!-- OrdersModule&#45;&gt;ProductsOrderComponent  -->
<g id="edge18" class="edge">
<title>OrdersModule&#45;&gt;ProductsOrderComponent </title>
<path fill="none" stroke="#000000" stroke-dasharray="5,2" d="M1331.3045,-184C1266.9976,-184 1161.8056,-184 1161.8056,-184 1161.8056,-184 1161.8056,-205.9489 1161.8056,-205.9489"/>
<polygon fill="#000000" stroke="#000000" points="1158.3057,-205.9488 1161.8056,-215.9489 1165.3057,-205.9489 1158.3057,-205.9488"/>
</g>
<!-- SendOrderComponent  -->
<g id="node20" class="node">
<title>SendOrderComponent </title>
<polygon fill="#fb8072" stroke="#000000" points="982.9728,-252 837.0272,-252 837.0272,-216 982.9728,-216 982.9728,-252"/>
<text text-anchor="middle" x="910" y="-229.8" font-family="Times,serif" font-size="14.00" fill="#000000">SendOrderComponent </text>
</g>
<!-- OrdersModule&#45;&gt;SendOrderComponent  -->
<g id="edge19" class="edge">
<title>OrdersModule&#45;&gt;SendOrderComponent </title>
<path fill="none" stroke="#000000" stroke-dasharray="5,2" d="M1331.1776,-181C1213.4879,-181 923.7902,-181 923.7902,-181 923.7902,-181 923.7902,-205.7604 923.7902,-205.7604"/>
<polygon fill="#000000" stroke="#000000" points="920.2902,-205.7604 923.7902,-215.7604 927.2902,-205.7604 920.2902,-205.7604"/>
</g>
<!-- CdkDetailRowDirectiveModule -->
<g id="node9" class="node">
<title>CdkDetailRowDirectiveModule</title>
<polygon fill="#8dd3c7" stroke="#000000" points="1673.6204,-122 1670.6204,-126 1649.6204,-126 1646.6204,-122 1478.3796,-122 1478.3796,-86 1673.6204,-86 1673.6204,-122"/>
<text text-anchor="middle" x="1576" y="-99.8" font-family="Times,serif" font-size="14.00" fill="#000000">CdkDetailRowDirectiveModule</text>
</g>
<!-- CdkDetailRowDirectiveModule&#45;&gt;OrdersModule -->
<g id="edge8" class="edge">
<title>CdkDetailRowDirectiveModule&#45;&gt;OrdersModule</title>
<path fill="none" stroke="#000000" d="M1512.7695,-122.1243C1512.7695,-136.7832 1512.7695,-155 1512.7695,-155 1512.7695,-155 1438.6845,-155 1438.6845,-155"/>
<polygon fill="#000000" stroke="#000000" points="1438.6846,-151.5001 1428.6845,-155 1438.6845,-158.5001 1438.6846,-151.5001"/>
</g>
<!-- ClientInformationModule -->
<g id="node10" class="node">
<title>ClientInformationModule</title>
<polygon fill="#8dd3c7" stroke="#000000" points="1460.1414,-122 1457.1414,-126 1436.1414,-126 1433.1414,-122 1299.8586,-122 1299.8586,-86 1460.1414,-86 1460.1414,-122"/>
<text text-anchor="middle" x="1380" y="-99.8" font-family="Times,serif" font-size="14.00" fill="#000000">ClientInformationModule</text>
</g>
<!-- ClientInformationModule&#45;&gt;OrdersModule -->
<g id="edge9" class="edge">
<title>ClientInformationModule&#45;&gt;OrdersModule</title>
<path fill="none" stroke="#000000" d="M1380,-122.1061C1380,-122.1061 1380,-140.991 1380,-140.991"/>
<polygon fill="#000000" stroke="#000000" points="1376.5001,-140.9909 1380,-150.991 1383.5001,-140.991 1376.5001,-140.9909"/>
</g>
<!-- MaterialModule -->
<g id="node11" class="node">
<title>MaterialModule</title>
<polygon fill="#8dd3c7" stroke="#000000" points="1281.4706,-122 1278.4706,-126 1257.4706,-126 1254.4706,-122 1174.5294,-122 1174.5294,-86 1281.4706,-86 1281.4706,-122"/>
<text text-anchor="middle" x="1228" y="-99.8" font-family="Times,serif" font-size="14.00" fill="#000000">MaterialModule</text>
</g>
<!-- MaterialModule&#45;&gt;OrdersModule -->
<g id="edge10" class="edge">
<title>MaterialModule&#45;&gt;OrdersModule</title>
<path fill="none" stroke="#000000" d="M1233.4581,-122.1243C1233.4581,-136.7832 1233.4581,-155 1233.4581,-155 1233.4581,-155 1321.2037,-155 1321.2037,-155"/>
<polygon fill="#000000" stroke="#000000" points="1321.2037,-158.5001 1331.2037,-155 1321.2036,-151.5001 1321.2037,-158.5001"/>
</g>
<!-- OrdersRoutingModule -->
<g id="node12" class="node">
<title>OrdersRoutingModule</title>
<polygon fill="#8dd3c7" stroke="#000000" points="1156.2548,-122 1153.2548,-126 1132.2548,-126 1129.2548,-122 1013.7452,-122 1013.7452,-86 1156.2548,-86 1156.2548,-122"/>
<text text-anchor="middle" x="1085" y="-99.8" font-family="Times,serif" font-size="14.00" fill="#000000">OrdersRoutingModule</text>
</g>
<!-- OrdersRoutingModule&#45;&gt;OrdersModule -->
<g id="edge11" class="edge">
<title>OrdersRoutingModule&#45;&gt;OrdersModule</title>
<path fill="none" stroke="#000000" d="M1085,-122.2819C1085,-137.9478 1085,-158 1085,-158 1085,-158 1321.2867,-158 1321.2867,-158"/>
<polygon fill="#000000" stroke="#000000" points="1321.2868,-161.5001 1331.2867,-158 1321.2867,-154.5001 1321.2868,-161.5001"/>
</g>
<!-- ToolbarLinkModule -->
<g id="node13" class="node">
<title>ToolbarLinkModule</title>
<polygon fill="#8dd3c7" stroke="#000000" points="995.3118,-122 992.3118,-126 971.3118,-126 968.3118,-122 864.6882,-122 864.6882,-86 995.3118,-86 995.3118,-122"/>
<text text-anchor="middle" x="930" y="-99.8" font-family="Times,serif" font-size="14.00" fill="#000000">ToolbarLinkModule</text>
</g>
<!-- ToolbarLinkModule&#45;&gt;OrdersModule -->
<g id="edge12" class="edge">
<title>ToolbarLinkModule&#45;&gt;OrdersModule</title>
<path fill="none" stroke="#000000" d="M988.9459,-122.0352C988.9459,-138.7344 988.9459,-161 988.9459,-161 988.9459,-161 1321.2634,-161 1321.2634,-161"/>
<polygon fill="#000000" stroke="#000000" points="1321.2634,-164.5001 1331.2634,-161 1321.2634,-157.5001 1321.2634,-164.5001"/>
</g>
<!-- ToolbarOptionsModule -->
<g id="node14" class="node">
<title>ToolbarOptionsModule</title>
<polygon fill="#8dd3c7" stroke="#000000" points="847.2007,-122 844.2007,-126 823.2007,-126 820.2007,-122 698.7993,-122 698.7993,-86 847.2007,-86 847.2007,-122"/>
<text text-anchor="middle" x="773" y="-99.8" font-family="Times,serif" font-size="14.00" fill="#000000">ToolbarOptionsModule</text>
</g>
<!-- ToolbarOptionsModule&#45;&gt;OrdersModule -->
<g id="edge13" class="edge">
<title>ToolbarOptionsModule&#45;&gt;OrdersModule</title>
<path fill="none" stroke="#000000" d="M842.1822,-122.302C842.1822,-140.2699 842.1822,-165 842.1822,-165 842.1822,-165 1321.3237,-165 1321.3237,-165"/>
<polygon fill="#000000" stroke="#000000" points="1321.3237,-168.5001 1331.3237,-165 1321.3237,-161.5001 1321.3237,-168.5001"/>
</g>
<!-- ComponentsService -->
<g id="node21" class="node">
<title>ComponentsService</title>
<ellipse fill="#fdb462" stroke="#000000" cx="586" cy="-104" rx="88.6255" ry="18"/>
<text text-anchor="middle" x="586" y="-99.8" font-family="Times,serif" font-size="14.00" fill="#000000">ComponentsService</text>
</g>
<!-- ComponentsService&#45;&gt;OrdersModule -->
<g id="edge20" class="edge">
<title>ComponentsService&#45;&gt;OrdersModule</title>
<path fill="none" stroke="#000000" d="M586,-122.1686C586,-141.0898 586,-168 586,-168 586,-168 1321.2294,-168 1321.2294,-168"/>
<polygon fill="#000000" stroke="#000000" points="1321.2294,-171.5001 1331.2294,-168 1321.2293,-164.5001 1321.2294,-171.5001"/>
</g>
<!-- EventEmitterOrders -->
<g id="node22" class="node">
<title>EventEmitterOrders</title>
<ellipse fill="#fdb462" stroke="#000000" cx="390" cy="-104" rx="88.5986" ry="18"/>
<text text-anchor="middle" x="390" y="-99.8" font-family="Times,serif" font-size="14.00" fill="#000000">EventEmitterOrders</text>
</g>
<!-- EventEmitterOrders&#45;&gt;OrdersModule -->
<g id="edge21" class="edge">
<title>EventEmitterOrders&#45;&gt;OrdersModule</title>
<path fill="none" stroke="#000000" d="M390,-122.308C390,-142.1455 390,-171 390,-171 390,-171 1321.2434,-171 1321.2434,-171"/>
<polygon fill="#000000" stroke="#000000" points="1321.2435,-174.5001 1331.2434,-171 1321.2434,-167.5001 1321.2435,-174.5001"/>
</g>
<!-- OrderService -->
<g id="node23" class="node">
<title>OrderService</title>
<ellipse fill="#fdb462" stroke="#000000" cx="221" cy="-104" rx="62.516" ry="18"/>
<text text-anchor="middle" x="221" y="-99.8" font-family="Times,serif" font-size="14.00" fill="#000000">OrderService</text>
</g>
<!-- OrderService&#45;&gt;OrdersModule -->
<g id="edge22" class="edge">
<title>OrderService&#45;&gt;OrdersModule</title>
<path fill="none" stroke="#000000" d="M221,-122.0267C221,-142.7672 221,-174 221,-174 221,-174 1321.3078,-174 1321.3078,-174"/>
<polygon fill="#000000" stroke="#000000" points="1321.3078,-177.5001 1331.3078,-174 1321.3077,-170.5001 1321.3078,-177.5001"/>
</g>
<!-- UserService -->
<g id="node24" class="node">
<title>UserService</title>
<ellipse fill="#fdb462" stroke="#000000" cx="82" cy="-104" rx="58.4415" ry="18"/>
<text text-anchor="middle" x="82" y="-99.8" font-family="Times,serif" font-size="14.00" fill="#000000">UserService</text>
</g>
<!-- UserService&#45;&gt;OrdersModule -->
<g id="edge23" class="edge">
<title>UserService&#45;&gt;OrdersModule</title>
<path fill="none" stroke="#000000" d="M82,-122.2921C82,-144.2057 82,-178 82,-178 82,-178 1321.0946,-178 1321.0946,-178"/>
<polygon fill="#000000" stroke="#000000" points="1321.0946,-181.5001 1331.0946,-178 1321.0945,-174.5001 1321.0946,-181.5001"/>
</g>
</g>
</svg>
