<?xml version="1.0" encoding="UTF-8" standalone="no"?>
<!DOCTYPE svg PUBLIC "-//W3C//DTD SVG 1.1//EN"
 "http://www.w3.org/Graphics/SVG/1.1/DTD/svg11.dtd">
<!-- Generated by graphviz version 2.40.1 (20161225.0304)
 -->
<!-- Title: dependencies Pages: 1 -->
<svg width="1371pt" height="284pt"
 viewBox="0.00 0.00 1371.00 284.00" xmlns="http://www.w3.org/2000/svg" xmlns:xlink="http://www.w3.org/1999/xlink">
<g id="graph0" class="graph" transform="scale(1 1) rotate(0) translate(4 280)">
<title>dependencies</title>
<polygon fill="#ffffff" stroke="transparent" points="-4,4 -4,-280 1367,-280 1367,4 -4,4"/>
<text text-anchor="start" x="660.5091" y="-42.4" font-family="sans-serif" font-weight="bold" font-size="14.00" fill="#000000">Legend</text>
<polygon fill="#ffffb3" stroke="transparent" points="447.5,-10 447.5,-30 467.5,-30 467.5,-10 447.5,-10"/>
<text text-anchor="start" x="471.129" y="-15.4" font-family="sans-serif" font-size="14.00" fill="#000000"> &#160;Declarations</text>
<polygon fill="#8dd3c7" stroke="transparent" points="560.5,-10 560.5,-30 580.5,-30 580.5,-10 560.5,-10"/>
<text text-anchor="start" x="584.2251" y="-15.4" font-family="sans-serif" font-size="14.00" fill="#000000"> &#160;Module</text>
<polygon fill="#80b1d3" stroke="transparent" points="646.5,-10 646.5,-30 666.5,-30 666.5,-10 646.5,-10"/>
<text text-anchor="start" x="670.2812" y="-15.4" font-family="sans-serif" font-size="14.00" fill="#000000"> &#160;Bootstrap</text>
<polygon fill="#fdb462" stroke="transparent" points="743.5,-10 743.5,-30 763.5,-30 763.5,-10 743.5,-10"/>
<text text-anchor="start" x="767.1732" y="-15.4" font-family="sans-serif" font-size="14.00" fill="#000000"> &#160;Providers</text>
<polygon fill="#fb8072" stroke="transparent" points="839.5,-10 839.5,-30 859.5,-30 859.5,-10 839.5,-10"/>
<text text-anchor="start" x="863.2258" y="-15.4" font-family="sans-serif" font-size="14.00" fill="#000000"> &#160;Exports</text>
<g id="clust1" class="cluster">
<title>cluster_InDevolutionModule</title>
<polygon fill="none" stroke="#000000" stroke-dasharray="1,5" points="8,-70 8,-268 1355,-268 1355,-70 8,-70"/>
</g>
<g id="clust2" class="cluster">
<title>cluster_InDevolutionModule_declarations</title>
<polygon fill="none" stroke="#000000" points="300,-78 300,-130 1347,-130 1347,-78 300,-78"/>
</g>
<g id="clust8" class="cluster">
<title>cluster_InDevolutionModule_imports</title>
<polygon fill="none" stroke="#000000" points="16,-78 16,-130 292,-130 292,-78 16,-78"/>
</g>
<g id="clust9" class="cluster">
<title>cluster_InDevolutionModule_exports</title>
<polygon fill="none" stroke="#000000" points="83,-208 83,-260 1149,-260 1149,-208 83,-208"/>
</g>
<!-- ActionConfirmReceiptComponent -->
<g id="node1" class="node">
<title>ActionConfirmReceiptComponent</title>
<polygon fill="#ffffb3" stroke="#000000" points="1338.6357,-122 1129.3643,-122 1129.3643,-86 1338.6357,-86 1338.6357,-122"/>
<text text-anchor="middle" x="1234" y="-99.8" font-family="Times,serif" font-size="14.00" fill="#000000">ActionConfirmReceiptComponent</text>
</g>
<!-- InDevolutionModule -->
<g id="node6" class="node">
<title>InDevolutionModule</title>
<polygon fill="#8dd3c7" stroke="#000000" points="672.2036,-187 669.2036,-191 648.2036,-191 645.2036,-187 537.7964,-187 537.7964,-151 672.2036,-151 672.2036,-187"/>
<text text-anchor="middle" x="605" y="-164.8" font-family="Times,serif" font-size="14.00" fill="#000000">InDevolutionModule</text>
</g>
<!-- ActionConfirmReceiptComponent&#45;&gt;InDevolutionModule -->
<g id="edge1" class="edge">
<title>ActionConfirmReceiptComponent&#45;&gt;InDevolutionModule</title>
<path fill="none" stroke="#000000" d="M1134.875,-122.1061C1134.875,-141.3391 1134.875,-169 1134.875,-169 1134.875,-169 682.109,-169 682.109,-169"/>
<polygon fill="#000000" stroke="#000000" points="682.1091,-165.5001 672.109,-169 682.109,-172.5001 682.1091,-165.5001"/>
</g>
<!-- ActionReportNoveltyComponent -->
<g id="node2" class="node">
<title>ActionReportNoveltyComponent</title>
<polygon fill="#ffffb3" stroke="#000000" points="1111.1399,-122 908.8601,-122 908.8601,-86 1111.1399,-86 1111.1399,-122"/>
<text text-anchor="middle" x="1010" y="-99.8" font-family="Times,serif" font-size="14.00" fill="#000000">ActionReportNoveltyComponent</text>
</g>
<!-- ActionReportNoveltyComponent&#45;&gt;InDevolutionModule -->
<g id="edge2" class="edge">
<title>ActionReportNoveltyComponent&#45;&gt;InDevolutionModule</title>
<path fill="none" stroke="#000000" d="M918.2511,-122.0225C918.2511,-139.3734 918.2511,-163 918.2511,-163 918.2511,-163 682.2002,-163 682.2002,-163"/>
<polygon fill="#000000" stroke="#000000" points="682.2002,-159.5001 672.2002,-163 682.2002,-166.5001 682.2002,-159.5001"/>
</g>
<!-- InDevolutionComponent -->
<g id="node3" class="node">
<title>InDevolutionComponent</title>
<polygon fill="#ffffb3" stroke="#000000" points="890.986,-122 735.014,-122 735.014,-86 890.986,-86 890.986,-122"/>
<text text-anchor="middle" x="813" y="-99.8" font-family="Times,serif" font-size="14.00" fill="#000000">InDevolutionComponent</text>
</g>
<!-- InDevolutionComponent&#45;&gt;InDevolutionModule -->
<g id="edge3" class="edge">
<title>InDevolutionComponent&#45;&gt;InDevolutionModule</title>
<path fill="none" stroke="#000000" d="M813,-122.2396C813,-137.5706 813,-157 813,-157 813,-157 682.2444,-157 682.2444,-157"/>
<polygon fill="#000000" stroke="#000000" points="682.2444,-153.5001 672.2444,-157 682.2444,-160.5001 682.2444,-153.5001"/>
</g>
<!-- ProductDevolutionModalComponent -->
<g id="node4" class="node">
<title>ProductDevolutionModalComponent</title>
<polygon fill="#ffffb3" stroke="#000000" points="717.424,-122 492.576,-122 492.576,-86 717.424,-86 717.424,-122"/>
<text text-anchor="middle" x="605" y="-99.8" font-family="Times,serif" font-size="14.00" fill="#000000">ProductDevolutionModalComponent</text>
</g>
<!-- ProductDevolutionModalComponent&#45;&gt;InDevolutionModule -->
<g id="edge4" class="edge">
<title>ProductDevolutionModalComponent&#45;&gt;InDevolutionModule</title>
<path fill="none" stroke="#000000" d="M605,-122.1061C605,-122.1061 605,-140.991 605,-140.991"/>
<polygon fill="#000000" stroke="#000000" points="601.5001,-140.9909 605,-150.991 608.5001,-140.991 601.5001,-140.9909"/>
</g>
<!-- ViewCommentComponent -->
<g id="node5" class="node">
<title>ViewCommentComponent</title>
<polygon fill="#ffffb3" stroke="#000000" points="474.3738,-122 307.6262,-122 307.6262,-86 474.3738,-86 474.3738,-122"/>
<text text-anchor="middle" x="391" y="-99.8" font-family="Times,serif" font-size="14.00" fill="#000000">ViewCommentComponent</text>
</g>
<!-- ViewCommentComponent&#45;&gt;InDevolutionModule -->
<g id="edge5" class="edge">
<title>ViewCommentComponent&#45;&gt;InDevolutionModule</title>
<path fill="none" stroke="#000000" d="M391,-122.2396C391,-137.5706 391,-157 391,-157 391,-157 527.8762,-157 527.8762,-157"/>
<polygon fill="#000000" stroke="#000000" points="527.8763,-160.5001 537.8762,-157 527.8762,-153.5001 527.8763,-160.5001"/>
</g>
<!-- ActionConfirmReceiptComponent  -->
<g id="node9" class="node">
<title>ActionConfirmReceiptComponent </title>
<polygon fill="#fb8072" stroke="#000000" points="1140.6354,-252 927.3646,-252 927.3646,-216 1140.6354,-216 1140.6354,-252"/>
<text text-anchor="middle" x="1034" y="-229.8" font-family="Times,serif" font-size="14.00" fill="#000000">ActionConfirmReceiptComponent </text>
</g>
<!-- InDevolutionModule&#45;&gt;ActionConfirmReceiptComponent  -->
<g id="edge8" class="edge">
<title>InDevolutionModule&#45;&gt;ActionConfirmReceiptComponent </title>
<path fill="none" stroke="#000000" stroke-dasharray="5,2" d="M672.4989,-175C789.9173,-175 1019.3761,-175 1019.3761,-175 1019.3761,-175 1019.3761,-205.9775 1019.3761,-205.9775"/>
<polygon fill="#000000" stroke="#000000" points="1015.8761,-205.9774 1019.3761,-215.9775 1022.8761,-205.9775 1015.8761,-205.9774"/>
</g>
<!-- ActionReportNoveltyComponent  -->
<g id="node10" class="node">
<title>ActionReportNoveltyComponent </title>
<polygon fill="#fb8072" stroke="#000000" points="909.1396,-252 702.8604,-252 702.8604,-216 909.1396,-216 909.1396,-252"/>
<text text-anchor="middle" x="806" y="-229.8" font-family="Times,serif" font-size="14.00" fill="#000000">ActionReportNoveltyComponent </text>
</g>
<!-- InDevolutionModule&#45;&gt;ActionReportNoveltyComponent  -->
<g id="edge9" class="edge">
<title>InDevolutionModule&#45;&gt;ActionReportNoveltyComponent </title>
<path fill="none" stroke="#000000" stroke-dasharray="5,2" d="M672.138,-181C692.7302,-181 710.071,-181 710.071,-181 710.071,-181 710.071,-205.7604 710.071,-205.7604"/>
<polygon fill="#000000" stroke="#000000" points="706.5711,-205.7604 710.071,-215.7604 713.5711,-205.7604 706.5711,-205.7604"/>
</g>
<!-- InDevolutionComponent  -->
<g id="node11" class="node">
<title>InDevolutionComponent </title>
<polygon fill="#fb8072" stroke="#000000" points="684.9867,-252 525.0133,-252 525.0133,-216 684.9867,-216 684.9867,-252"/>
<text text-anchor="middle" x="605" y="-229.8" font-family="Times,serif" font-size="14.00" fill="#000000">InDevolutionComponent </text>
</g>
<!-- InDevolutionModule&#45;&gt;InDevolutionComponent  -->
<g id="edge10" class="edge">
<title>InDevolutionModule&#45;&gt;InDevolutionComponent </title>
<path fill="none" stroke="#000000" stroke-dasharray="5,2" d="M605,-187.1061C605,-187.1061 605,-205.991 605,-205.991"/>
<polygon fill="#000000" stroke="#000000" points="601.5001,-205.9909 605,-215.991 608.5001,-205.991 601.5001,-205.9909"/>
</g>
<!-- ProductDevolutionModalComponent  -->
<g id="node12" class="node">
<title>ProductDevolutionModalComponent </title>
<polygon fill="#fb8072" stroke="#000000" points="506.9236,-252 279.0764,-252 279.0764,-216 506.9236,-216 506.9236,-252"/>
<text text-anchor="middle" x="393" y="-229.8" font-family="Times,serif" font-size="14.00" fill="#000000">ProductDevolutionModalComponent </text>
</g>
<!-- InDevolutionModule&#45;&gt;ProductDevolutionModalComponent  -->
<g id="edge11" class="edge">
<title>InDevolutionModule&#45;&gt;ProductDevolutionModalComponent </title>
<path fill="none" stroke="#000000" stroke-dasharray="5,2" d="M537.8275,-181C517.2247,-181 499.875,-181 499.875,-181 499.875,-181 499.875,-205.7604 499.875,-205.7604"/>
<polygon fill="#000000" stroke="#000000" points="496.3751,-205.7604 499.875,-215.7604 503.3751,-205.7604 496.3751,-205.7604"/>
</g>
<!-- ViewCommentComponent  -->
<g id="node13" class="node">
<title>ViewCommentComponent </title>
<polygon fill="#fb8072" stroke="#000000" points="261.3742,-252 90.6258,-252 90.6258,-216 261.3742,-216 261.3742,-252"/>
<text text-anchor="middle" x="176" y="-229.8" font-family="Times,serif" font-size="14.00" fill="#000000">ViewCommentComponent </text>
</g>
<!-- InDevolutionModule&#45;&gt;ViewCommentComponent  -->
<g id="edge12" class="edge">
<title>InDevolutionModule&#45;&gt;ViewCommentComponent </title>
<path fill="none" stroke="#000000" stroke-dasharray="5,2" d="M537.7845,-175C422.8207,-175 200.7018,-175 200.7018,-175 200.7018,-175 200.7018,-205.9775 200.7018,-205.9775"/>
<polygon fill="#000000" stroke="#000000" points="197.2019,-205.9774 200.7018,-215.9775 204.2019,-205.9775 197.2019,-205.9774"/>
</g>
<!-- BillingRoutingModule -->
<g id="node7" class="node">
<title>BillingRoutingModule</title>
<polygon fill="#8dd3c7" stroke="#000000" points="283.5673,-122 280.5673,-126 259.5673,-126 256.5673,-122 140.4327,-122 140.4327,-86 283.5673,-86 283.5673,-122"/>
<text text-anchor="middle" x="212" y="-99.8" font-family="Times,serif" font-size="14.00" fill="#000000">BillingRoutingModule</text>
</g>
<!-- BillingRoutingModule&#45;&gt;InDevolutionModule -->
<g id="edge6" class="edge">
<title>BillingRoutingModule&#45;&gt;InDevolutionModule</title>
<path fill="none" stroke="#000000" d="M270.1126,-122.0225C270.1126,-139.3734 270.1126,-163 270.1126,-163 270.1126,-163 527.6334,-163 527.6334,-163"/>
<polygon fill="#000000" stroke="#000000" points="527.6334,-166.5001 537.6334,-163 527.6333,-159.5001 527.6334,-166.5001"/>
</g>
<!-- SharedModule -->
<g id="node8" class="node">
<title>SharedModule</title>
<polygon fill="#8dd3c7" stroke="#000000" points="122.4231,-122 119.4231,-126 98.4231,-126 95.4231,-122 23.5769,-122 23.5769,-86 122.4231,-86 122.4231,-122"/>
<text text-anchor="middle" x="73" y="-99.8" font-family="Times,serif" font-size="14.00" fill="#000000">SharedModule</text>
</g>
<!-- SharedModule&#45;&gt;InDevolutionModule -->
<g id="edge7" class="edge">
<title>SharedModule&#45;&gt;InDevolutionModule</title>
<path fill="none" stroke="#000000" d="M106.5121,-122.1061C106.5121,-141.3391 106.5121,-169 106.5121,-169 106.5121,-169 527.7717,-169 527.7717,-169"/>
<polygon fill="#000000" stroke="#000000" points="527.7717,-172.5001 537.7717,-169 527.7717,-165.5001 527.7717,-172.5001"/>
</g>
</g>
</svg>
