<?xml version="1.0" encoding="UTF-8" standalone="no"?>
<!DOCTYPE svg PUBLIC "-//W3C//DTD SVG 1.1//EN"
 "http://www.w3.org/Graphics/SVG/1.1/DTD/svg11.dtd">
<!-- Generated by graphviz version 2.40.1 (20161225.0304)
 -->
<!-- Title: dependencies Pages: 1 -->
<svg width="2509pt" height="284pt"
 viewBox="0.00 0.00 2509.00 284.00" xmlns="http://www.w3.org/2000/svg" xmlns:xlink="http://www.w3.org/1999/xlink">
<g id="graph0" class="graph" transform="scale(1 1) rotate(0) translate(4 280)">
<title>dependencies</title>
<polygon fill="#ffffff" stroke="transparent" points="-4,4 -4,-280 2505,-280 2505,4 -4,4"/>
<text text-anchor="start" x="1229.5091" y="-42.4" font-family="sans-serif" font-weight="bold" font-size="14.00" fill="#000000">Legend</text>
<polygon fill="#ffffb3" stroke="transparent" points="1016.5,-10 1016.5,-30 1036.5,-30 1036.5,-10 1016.5,-10"/>
<text text-anchor="start" x="1040.129" y="-15.4" font-family="sans-serif" font-size="14.00" fill="#000000"> &#160;Declarations</text>
<polygon fill="#8dd3c7" stroke="transparent" points="1129.5,-10 1129.5,-30 1149.5,-30 1149.5,-10 1129.5,-10"/>
<text text-anchor="start" x="1153.2251" y="-15.4" font-family="sans-serif" font-size="14.00" fill="#000000"> &#160;Module</text>
<polygon fill="#80b1d3" stroke="transparent" points="1215.5,-10 1215.5,-30 1235.5,-30 1235.5,-10 1215.5,-10"/>
<text text-anchor="start" x="1239.2812" y="-15.4" font-family="sans-serif" font-size="14.00" fill="#000000"> &#160;Bootstrap</text>
<polygon fill="#fdb462" stroke="transparent" points="1312.5,-10 1312.5,-30 1332.5,-30 1332.5,-10 1312.5,-10"/>
<text text-anchor="start" x="1336.1732" y="-15.4" font-family="sans-serif" font-size="14.00" fill="#000000"> &#160;Providers</text>
<polygon fill="#fb8072" stroke="transparent" points="1408.5,-10 1408.5,-30 1428.5,-30 1428.5,-10 1408.5,-10"/>
<text text-anchor="start" x="1432.2258" y="-15.4" font-family="sans-serif" font-size="14.00" fill="#000000"> &#160;Exports</text>
<g id="clust1" class="cluster">
<title>cluster_InDevolutionModule</title>
<polygon fill="none" stroke="#000000" stroke-dasharray="1,5" points="8,-70 8,-268 2493,-268 2493,-70 8,-70"/>
</g>
<g id="clust2" class="cluster">
<title>cluster_InDevolutionModule_declarations</title>
<polygon fill="none" stroke="#000000" points="1438,-78 1438,-130 2485,-130 2485,-78 1438,-78"/>
</g>
<g id="clust8" class="cluster">
<title>cluster_InDevolutionModule_imports</title>
<polygon fill="none" stroke="#000000" points="831,-78 831,-130 1430,-130 1430,-78 831,-78"/>
</g>
<g id="clust9" class="cluster">
<title>cluster_InDevolutionModule_exports</title>
<polygon fill="none" stroke="#000000" points="685,-208 685,-260 1751,-260 1751,-208 685,-208"/>
</g>
<g id="clust11" class="cluster">
<title>cluster_InDevolutionModule_providers</title>
<polygon fill="none" stroke="#000000" points="16,-78 16,-130 823,-130 823,-78 16,-78"/>
</g>
<!-- ActionConfirmReceiptComponent -->
<g id="node1" class="node">
<title>ActionConfirmReceiptComponent</title>
<polygon fill="#ffffb3" stroke="#000000" points="2476.6357,-122 2267.3643,-122 2267.3643,-86 2476.6357,-86 2476.6357,-122"/>
<text text-anchor="middle" x="2372" y="-99.8" font-family="Times,serif" font-size="14.00" fill="#000000">ActionConfirmReceiptComponent</text>
</g>
<!-- InDevolutionModule -->
<g id="node6" class="node">
<title>InDevolutionModule</title>
<polygon fill="#8dd3c7" stroke="#000000" points="1274.2036,-187 1271.2036,-191 1250.2036,-191 1247.2036,-187 1139.7964,-187 1139.7964,-151 1274.2036,-151 1274.2036,-187"/>
<text text-anchor="middle" x="1207" y="-164.8" font-family="Times,serif" font-size="14.00" fill="#000000">InDevolutionModule</text>
</g>
<!-- ActionConfirmReceiptComponent&#45;&gt;InDevolutionModule -->
<g id="edge1" class="edge">
<title>ActionConfirmReceiptComponent&#45;&gt;InDevolutionModule</title>
<path fill="none" stroke="#000000" d="M2372,-122.2843C2372,-143.3211 2372,-175 2372,-175 2372,-175 1284.2447,-175 1284.2447,-175"/>
<polygon fill="#000000" stroke="#000000" points="1284.2448,-171.5001 1274.2447,-175 1284.2447,-178.5001 1284.2448,-171.5001"/>
</g>
<!-- ActionReportNoveltyComponent -->
<g id="node2" class="node">
<title>ActionReportNoveltyComponent</title>
<polygon fill="#ffffb3" stroke="#000000" points="2249.1399,-122 2046.8601,-122 2046.8601,-86 2249.1399,-86 2249.1399,-122"/>
<text text-anchor="middle" x="2148" y="-99.8" font-family="Times,serif" font-size="14.00" fill="#000000">ActionReportNoveltyComponent</text>
</g>
<!-- ActionReportNoveltyComponent&#45;&gt;InDevolutionModule -->
<g id="edge2" class="edge">
<title>ActionReportNoveltyComponent&#45;&gt;InDevolutionModule</title>
<path fill="none" stroke="#000000" d="M2148,-122.308C2148,-142.1455 2148,-171 2148,-171 2148,-171 1284.2968,-171 1284.2968,-171"/>
<polygon fill="#000000" stroke="#000000" points="1284.2968,-167.5001 1274.2968,-171 1284.2967,-174.5001 1284.2968,-167.5001"/>
</g>
<!-- InDevolutionComponent -->
<g id="node3" class="node">
<title>InDevolutionComponent</title>
<polygon fill="#ffffb3" stroke="#000000" points="2028.986,-122 1873.014,-122 1873.014,-86 2028.986,-86 2028.986,-122"/>
<text text-anchor="middle" x="1951" y="-99.8" font-family="Times,serif" font-size="14.00" fill="#000000">InDevolutionComponent</text>
</g>
<!-- InDevolutionComponent&#45;&gt;InDevolutionModule -->
<g id="edge3" class="edge">
<title>InDevolutionComponent&#45;&gt;InDevolutionModule</title>
<path fill="none" stroke="#000000" d="M1951,-122.2222C1951,-140.8285 1951,-167 1951,-167 1951,-167 1284.3372,-167 1284.3372,-167"/>
<polygon fill="#000000" stroke="#000000" points="1284.3373,-163.5001 1274.3372,-167 1284.3372,-170.5001 1284.3373,-163.5001"/>
</g>
<!-- ProductDevolutionModalComponent -->
<g id="node4" class="node">
<title>ProductDevolutionModalComponent</title>
<polygon fill="#ffffb3" stroke="#000000" points="1855.424,-122 1630.576,-122 1630.576,-86 1855.424,-86 1855.424,-122"/>
<text text-anchor="middle" x="1743" y="-99.8" font-family="Times,serif" font-size="14.00" fill="#000000">ProductDevolutionModalComponent</text>
</g>
<!-- ProductDevolutionModalComponent&#45;&gt;InDevolutionModule -->
<g id="edge4" class="edge">
<title>ProductDevolutionModalComponent&#45;&gt;InDevolutionModule</title>
<path fill="none" stroke="#000000" d="M1686.678,-122.0225C1686.678,-139.3734 1686.678,-163 1686.678,-163 1686.678,-163 1284.2022,-163 1284.2022,-163"/>
<polygon fill="#000000" stroke="#000000" points="1284.2023,-159.5001 1274.2022,-163 1284.2022,-166.5001 1284.2023,-159.5001"/>
</g>
<!-- ViewCommentComponent -->
<g id="node5" class="node">
<title>ViewCommentComponent</title>
<polygon fill="#ffffb3" stroke="#000000" points="1612.3738,-122 1445.6262,-122 1445.6262,-86 1612.3738,-86 1612.3738,-122"/>
<text text-anchor="middle" x="1529" y="-99.8" font-family="Times,serif" font-size="14.00" fill="#000000">ViewCommentComponent</text>
</g>
<!-- ViewCommentComponent&#45;&gt;InDevolutionModule -->
<g id="edge5" class="edge">
<title>ViewCommentComponent&#45;&gt;InDevolutionModule</title>
<path fill="none" stroke="#000000" d="M1478.3165,-122.0091C1478.3165,-138.0494 1478.3165,-159 1478.3165,-159 1478.3165,-159 1284.4156,-159 1284.4156,-159"/>
<polygon fill="#000000" stroke="#000000" points="1284.4156,-155.5001 1274.4156,-159 1284.4156,-162.5001 1284.4156,-155.5001"/>
</g>
<!-- ActionConfirmReceiptComponent  -->
<g id="node11" class="node">
<title>ActionConfirmReceiptComponent </title>
<polygon fill="#fb8072" stroke="#000000" points="1742.6354,-252 1529.3646,-252 1529.3646,-216 1742.6354,-216 1742.6354,-252"/>
<text text-anchor="middle" x="1636" y="-229.8" font-family="Times,serif" font-size="14.00" fill="#000000">ActionConfirmReceiptComponent </text>
</g>
<!-- InDevolutionModule&#45;&gt;ActionConfirmReceiptComponent  -->
<g id="edge10" class="edge">
<title>InDevolutionModule&#45;&gt;ActionConfirmReceiptComponent </title>
<path fill="none" stroke="#000000" stroke-dasharray="5,2" d="M1274.1753,-179C1379.3321,-179 1570.9346,-179 1570.9346,-179 1570.9346,-179 1570.9346,-205.9909 1570.9346,-205.9909"/>
<polygon fill="#000000" stroke="#000000" points="1567.4347,-205.9909 1570.9346,-215.9909 1574.4347,-205.991 1567.4347,-205.9909"/>
</g>
<!-- ActionReportNoveltyComponent  -->
<g id="node12" class="node">
<title>ActionReportNoveltyComponent </title>
<polygon fill="#fb8072" stroke="#000000" points="1511.1396,-252 1304.8604,-252 1304.8604,-216 1511.1396,-216 1511.1396,-252"/>
<text text-anchor="middle" x="1408" y="-229.8" font-family="Times,serif" font-size="14.00" fill="#000000">ActionReportNoveltyComponent </text>
</g>
<!-- InDevolutionModule&#45;&gt;ActionReportNoveltyComponent  -->
<g id="edge11" class="edge">
<title>InDevolutionModule&#45;&gt;ActionReportNoveltyComponent </title>
<path fill="none" stroke="#000000" stroke-dasharray="5,2" d="M1274.2167,-183C1316.5948,-183 1363.3568,-183 1363.3568,-183 1363.3568,-183 1363.3568,-205.8757 1363.3568,-205.8757"/>
<polygon fill="#000000" stroke="#000000" points="1359.8568,-205.8757 1363.3568,-215.8757 1366.8568,-205.8757 1359.8568,-205.8757"/>
</g>
<!-- InDevolutionComponent  -->
<g id="node13" class="node">
<title>InDevolutionComponent </title>
<polygon fill="#fb8072" stroke="#000000" points="1286.9867,-252 1127.0133,-252 1127.0133,-216 1286.9867,-216 1286.9867,-252"/>
<text text-anchor="middle" x="1207" y="-229.8" font-family="Times,serif" font-size="14.00" fill="#000000">InDevolutionComponent </text>
</g>
<!-- InDevolutionModule&#45;&gt;InDevolutionComponent  -->
<g id="edge12" class="edge">
<title>InDevolutionModule&#45;&gt;InDevolutionComponent </title>
<path fill="none" stroke="#000000" stroke-dasharray="5,2" d="M1207,-187.1061C1207,-187.1061 1207,-205.991 1207,-205.991"/>
<polygon fill="#000000" stroke="#000000" points="1203.5001,-205.9909 1207,-215.991 1210.5001,-205.991 1203.5001,-205.9909"/>
</g>
<!-- ProductDevolutionModalComponent  -->
<g id="node14" class="node">
<title>ProductDevolutionModalComponent </title>
<polygon fill="#fb8072" stroke="#000000" points="1108.9236,-252 881.0764,-252 881.0764,-216 1108.9236,-216 1108.9236,-252"/>
<text text-anchor="middle" x="995" y="-229.8" font-family="Times,serif" font-size="14.00" fill="#000000">ProductDevolutionModalComponent </text>
</g>
<!-- InDevolutionModule&#45;&gt;ProductDevolutionModalComponent  -->
<g id="edge13" class="edge">
<title>InDevolutionModule&#45;&gt;ProductDevolutionModalComponent </title>
<path fill="none" stroke="#000000" stroke-dasharray="5,2" d="M1139.8537,-183C1099.8896,-183 1056.903,-183 1056.903,-183 1056.903,-183 1056.903,-205.8757 1056.903,-205.8757"/>
<polygon fill="#000000" stroke="#000000" points="1053.4031,-205.8757 1056.903,-215.8757 1060.4031,-205.8757 1053.4031,-205.8757"/>
</g>
<!-- ViewCommentComponent  -->
<g id="node15" class="node">
<title>ViewCommentComponent </title>
<polygon fill="#fb8072" stroke="#000000" points="863.3742,-252 692.6258,-252 692.6258,-216 863.3742,-216 863.3742,-252"/>
<text text-anchor="middle" x="778" y="-229.8" font-family="Times,serif" font-size="14.00" fill="#000000">ViewCommentComponent </text>
</g>
<!-- InDevolutionModule&#45;&gt;ViewCommentComponent  -->
<g id="edge14" class="edge">
<title>InDevolutionModule&#45;&gt;ViewCommentComponent </title>
<path fill="none" stroke="#000000" stroke-dasharray="5,2" d="M1139.6288,-179C1036.4332,-179 851.0433,-179 851.0433,-179 851.0433,-179 851.0433,-205.9909 851.0433,-205.9909"/>
<polygon fill="#000000" stroke="#000000" points="847.5434,-205.9909 851.0433,-215.9909 854.5434,-205.991 847.5434,-205.9909"/>
</g>
<!-- BillingRoutingModule -->
<g id="node7" class="node">
<title>BillingRoutingModule</title>
<polygon fill="#8dd3c7" stroke="#000000" points="1421.5673,-122 1418.5673,-126 1397.5673,-126 1394.5673,-122 1278.4327,-122 1278.4327,-86 1421.5673,-86 1421.5673,-122"/>
<text text-anchor="middle" x="1350" y="-99.8" font-family="Times,serif" font-size="14.00" fill="#000000">BillingRoutingModule</text>
</g>
<!-- BillingRoutingModule&#45;&gt;InDevolutionModule -->
<g id="edge6" class="edge">
<title>BillingRoutingModule&#45;&gt;InDevolutionModule</title>
<path fill="none" stroke="#000000" d="M1282.4799,-122.1243C1282.4799,-136.7832 1282.4799,-155 1282.4799,-155 1282.4799,-155 1281.6432,-155 1281.6432,-155"/>
<polygon fill="#000000" stroke="#000000" points="1284.1138,-151.5001 1274.1138,-155 1284.1137,-158.5001 1284.1138,-151.5001"/>
</g>
<!-- MaterialModule -->
<g id="node8" class="node">
<title>MaterialModule</title>
<polygon fill="#8dd3c7" stroke="#000000" points="1260.4706,-122 1257.4706,-126 1236.4706,-126 1233.4706,-122 1153.5294,-122 1153.5294,-86 1260.4706,-86 1260.4706,-122"/>
<text text-anchor="middle" x="1207" y="-99.8" font-family="Times,serif" font-size="14.00" fill="#000000">MaterialModule</text>
</g>
<!-- MaterialModule&#45;&gt;InDevolutionModule -->
<g id="edge7" class="edge">
<title>MaterialModule&#45;&gt;InDevolutionModule</title>
<path fill="none" stroke="#000000" d="M1207,-122.1061C1207,-122.1061 1207,-140.991 1207,-140.991"/>
<polygon fill="#000000" stroke="#000000" points="1203.5001,-140.9909 1207,-150.991 1210.5001,-140.991 1203.5001,-140.9909"/>
</g>
<!-- ToolbarLinkModule -->
<g id="node9" class="node">
<title>ToolbarLinkModule</title>
<polygon fill="#8dd3c7" stroke="#000000" points="1135.3118,-122 1132.3118,-126 1111.3118,-126 1108.3118,-122 1004.6882,-122 1004.6882,-86 1135.3118,-86 1135.3118,-122"/>
<text text-anchor="middle" x="1070" y="-99.8" font-family="Times,serif" font-size="14.00" fill="#000000">ToolbarLinkModule</text>
</g>
<!-- ToolbarLinkModule&#45;&gt;InDevolutionModule -->
<g id="edge8" class="edge">
<title>ToolbarLinkModule&#45;&gt;InDevolutionModule</title>
<path fill="none" stroke="#000000" d="M1131.2064,-122.1243C1131.2064,-136.7832 1131.2064,-155 1131.2064,-155 1131.2064,-155 1132.0464,-155 1132.0464,-155"/>
<polygon fill="#000000" stroke="#000000" points="1129.6072,-158.5001 1139.6072,-155 1129.6071,-151.5001 1129.6072,-158.5001"/>
</g>
<!-- ToolbarOptionsModule -->
<g id="node10" class="node">
<title>ToolbarOptionsModule</title>
<polygon fill="#8dd3c7" stroke="#000000" points="987.2007,-122 984.2007,-126 963.2007,-126 960.2007,-122 838.7993,-122 838.7993,-86 987.2007,-86 987.2007,-122"/>
<text text-anchor="middle" x="913" y="-99.8" font-family="Times,serif" font-size="14.00" fill="#000000">ToolbarOptionsModule</text>
</g>
<!-- ToolbarOptionsModule&#45;&gt;InDevolutionModule -->
<g id="edge9" class="edge">
<title>ToolbarOptionsModule&#45;&gt;InDevolutionModule</title>
<path fill="none" stroke="#000000" d="M934.0693,-122.0091C934.0693,-138.0494 934.0693,-159 934.0693,-159 934.0693,-159 1129.8841,-159 1129.8841,-159"/>
<polygon fill="#000000" stroke="#000000" points="1129.8841,-162.5001 1139.8841,-159 1129.884,-155.5001 1129.8841,-162.5001"/>
</g>
<!-- EndpointService -->
<g id="node16" class="node">
<title>EndpointService</title>
<ellipse fill="#fdb462" stroke="#000000" cx="740" cy="-104" rx="75.3021" ry="18"/>
<text text-anchor="middle" x="740" y="-99.8" font-family="Times,serif" font-size="14.00" fill="#000000">EndpointService</text>
</g>
<!-- EndpointService&#45;&gt;InDevolutionModule -->
<g id="edge15" class="edge">
<title>EndpointService&#45;&gt;InDevolutionModule</title>
<path fill="none" stroke="#000000" d="M754.1071,-121.7019C754.1071,-139.0808 754.1071,-163 754.1071,-163 754.1071,-163 1129.6864,-163 1129.6864,-163"/>
<polygon fill="#000000" stroke="#000000" points="1129.6864,-166.5001 1139.6864,-163 1129.6863,-159.5001 1129.6864,-166.5001"/>
</g>
<!-- EventEmitterOrders -->
<g id="node17" class="node">
<title>EventEmitterOrders</title>
<ellipse fill="#fdb462" stroke="#000000" cx="558" cy="-104" rx="88.5986" ry="18"/>
<text text-anchor="middle" x="558" y="-99.8" font-family="Times,serif" font-size="14.00" fill="#000000">EventEmitterOrders</text>
</g>
<!-- EventEmitterOrders&#45;&gt;InDevolutionModule -->
<g id="edge16" class="edge">
<title>EventEmitterOrders&#45;&gt;InDevolutionModule</title>
<path fill="none" stroke="#000000" d="M558,-122.2222C558,-140.8285 558,-167 558,-167 558,-167 1129.6864,-167 1129.6864,-167"/>
<polygon fill="#000000" stroke="#000000" points="1129.6865,-170.5001 1139.6864,-167 1129.6864,-163.5001 1129.6865,-170.5001"/>
</g>
<!-- HttpErrorHandlingService -->
<g id="node18" class="node">
<title>HttpErrorHandlingService</title>
<ellipse fill="#fdb462" stroke="#000000" cx="338" cy="-104" rx="113.4412" ry="18"/>
<text text-anchor="middle" x="338" y="-99.8" font-family="Times,serif" font-size="14.00" fill="#000000">HttpErrorHandlingService</text>
</g>
<!-- HttpErrorHandlingService&#45;&gt;InDevolutionModule -->
<g id="edge17" class="edge">
<title>HttpErrorHandlingService&#45;&gt;InDevolutionModule</title>
<path fill="none" stroke="#000000" d="M338,-122.308C338,-142.1455 338,-171 338,-171 338,-171 1129.8945,-171 1129.8945,-171"/>
<polygon fill="#000000" stroke="#000000" points="1129.8945,-174.5001 1139.8945,-171 1129.8944,-167.5001 1129.8945,-174.5001"/>
</g>
<!-- InDevolutionService -->
<g id="node19" class="node">
<title>InDevolutionService</title>
<ellipse fill="#fdb462" stroke="#000000" cx="115" cy="-104" rx="91.4732" ry="18"/>
<text text-anchor="middle" x="115" y="-99.8" font-family="Times,serif" font-size="14.00" fill="#000000">InDevolutionService</text>
</g>
<!-- InDevolutionService&#45;&gt;InDevolutionModule -->
<g id="edge18" class="edge">
<title>InDevolutionService&#45;&gt;InDevolutionModule</title>
<path fill="none" stroke="#000000" d="M115,-122.2843C115,-143.3211 115,-175 115,-175 115,-175 1129.5146,-175 1129.5146,-175"/>
<polygon fill="#000000" stroke="#000000" points="1129.5146,-178.5001 1139.5146,-175 1129.5146,-171.5001 1129.5146,-178.5001"/>
</g>
</g>
</svg>
