<?xml version="1.0" encoding="UTF-8" standalone="no"?>
<!DOCTYPE svg PUBLIC "-//W3C//DTD SVG 1.1//EN"
 "http://www.w3.org/Graphics/SVG/1.1/DTD/svg11.dtd">
<!-- Generated by graphviz version 2.40.1 (20161225.0304)
 -->
<!-- Title: dependencies Pages: 1 -->
<svg width="2440pt" height="284pt"
 viewBox="0.00 0.00 2440.00 284.00" xmlns="http://www.w3.org/2000/svg" xmlns:xlink="http://www.w3.org/1999/xlink">
<g id="graph0" class="graph" transform="scale(1 1) rotate(0) translate(4 280)">
<title>dependencies</title>
<polygon fill="#ffffff" stroke="transparent" points="-4,4 -4,-280 2436,-280 2436,4 -4,4"/>
<text text-anchor="start" x="1195.0091" y="-42.4" font-family="sans-serif" font-weight="bold" font-size="14.00" fill="#000000">Legend</text>
<polygon fill="#ffffb3" stroke="transparent" points="982,-10 982,-30 1002,-30 1002,-10 982,-10"/>
<text text-anchor="start" x="1005.629" y="-15.4" font-family="sans-serif" font-size="14.00" fill="#000000"> &#160;Declarations</text>
<polygon fill="#8dd3c7" stroke="transparent" points="1095,-10 1095,-30 1115,-30 1115,-10 1095,-10"/>
<text text-anchor="start" x="1118.7251" y="-15.4" font-family="sans-serif" font-size="14.00" fill="#000000"> &#160;Module</text>
<polygon fill="#80b1d3" stroke="transparent" points="1181,-10 1181,-30 1201,-30 1201,-10 1181,-10"/>
<text text-anchor="start" x="1204.7812" y="-15.4" font-family="sans-serif" font-size="14.00" fill="#000000"> &#160;Bootstrap</text>
<polygon fill="#fdb462" stroke="transparent" points="1278,-10 1278,-30 1298,-30 1298,-10 1278,-10"/>
<text text-anchor="start" x="1301.6732" y="-15.4" font-family="sans-serif" font-size="14.00" fill="#000000"> &#160;Providers</text>
<polygon fill="#fb8072" stroke="transparent" points="1374,-10 1374,-30 1394,-30 1394,-10 1374,-10"/>
<text text-anchor="start" x="1397.7258" y="-15.4" font-family="sans-serif" font-size="14.00" fill="#000000"> &#160;Exports</text>
<g id="clust1" class="cluster">
<title>cluster_LoadGuideModule</title>
<polygon fill="none" stroke="#000000" stroke-dasharray="1,5" points="8,-70 8,-268 2424,-268 2424,-70 8,-70"/>
</g>
<g id="clust2" class="cluster">
<title>cluster_LoadGuideModule_declarations</title>
<polygon fill="none" stroke="#000000" points="1462,-78 1462,-130 2416,-130 2416,-78 1462,-78"/>
</g>
<g id="clust8" class="cluster">
<title>cluster_LoadGuideModule_imports</title>
<polygon fill="none" stroke="#000000" points="1146,-78 1146,-130 1454,-130 1454,-78 1146,-78"/>
</g>
<g id="clust9" class="cluster">
<title>cluster_LoadGuideModule_exports</title>
<polygon fill="none" stroke="#000000" points="778,-208 778,-260 1750,-260 1750,-208 778,-208"/>
</g>
<g id="clust11" class="cluster">
<title>cluster_LoadGuideModule_providers</title>
<polygon fill="none" stroke="#000000" points="16,-78 16,-130 1138,-130 1138,-78 16,-78"/>
</g>
<!-- DownloadFormatComponent -->
<g id="node1" class="node">
<title>DownloadFormatComponent</title>
<polygon fill="#ffffb3" stroke="#000000" points="2408.0898,-122 2227.9102,-122 2227.9102,-86 2408.0898,-86 2408.0898,-122"/>
<text text-anchor="middle" x="2318" y="-99.8" font-family="Times,serif" font-size="14.00" fill="#000000">DownloadFormatComponent</text>
</g>
<!-- LoadGuideModule -->
<g id="node6" class="node">
<title>LoadGuideModule</title>
<polygon fill="#8dd3c7" stroke="#000000" points="1268.0297,-187 1265.0297,-191 1244.0297,-191 1241.0297,-187 1145.9703,-187 1145.9703,-151 1268.0297,-151 1268.0297,-187"/>
<text text-anchor="middle" x="1207" y="-164.8" font-family="Times,serif" font-size="14.00" fill="#000000">LoadGuideModule</text>
</g>
<!-- DownloadFormatComponent&#45;&gt;LoadGuideModule -->
<g id="edge1" class="edge">
<title>DownloadFormatComponent&#45;&gt;LoadGuideModule</title>
<path fill="none" stroke="#000000" d="M2318,-122.0267C2318,-142.7672 2318,-174 2318,-174 2318,-174 1278.3147,-174 1278.3147,-174"/>
<polygon fill="#000000" stroke="#000000" points="1278.3147,-170.5001 1268.3147,-174 1278.3147,-177.5001 1278.3147,-170.5001"/>
</g>
<!-- FinishUploadInformationComponent -->
<g id="node2" class="node">
<title>FinishUploadInformationComponent</title>
<polygon fill="#ffffb3" stroke="#000000" points="2210.4212,-122 1985.5788,-122 1985.5788,-86 2210.4212,-86 2210.4212,-122"/>
<text text-anchor="middle" x="2098" y="-99.8" font-family="Times,serif" font-size="14.00" fill="#000000">FinishUploadInformationComponent</text>
</g>
<!-- FinishUploadInformationComponent&#45;&gt;LoadGuideModule -->
<g id="edge2" class="edge">
<title>FinishUploadInformationComponent&#45;&gt;LoadGuideModule</title>
<path fill="none" stroke="#000000" d="M2098,-122.1061C2098,-141.3391 2098,-169 2098,-169 2098,-169 1278.242,-169 1278.242,-169"/>
<polygon fill="#000000" stroke="#000000" points="1278.2421,-165.5001 1268.242,-169 1278.242,-172.5001 1278.2421,-165.5001"/>
</g>
<!-- LoadGuidePageComponent -->
<g id="node3" class="node">
<title>LoadGuidePageComponent</title>
<polygon fill="#ffffb3" stroke="#000000" points="1967.5239,-122 1796.4761,-122 1796.4761,-86 1967.5239,-86 1967.5239,-122"/>
<text text-anchor="middle" x="1882" y="-99.8" font-family="Times,serif" font-size="14.00" fill="#000000">LoadGuidePageComponent</text>
</g>
<!-- LoadGuidePageComponent&#45;&gt;LoadGuideModule -->
<g id="edge3" class="edge">
<title>LoadGuidePageComponent&#45;&gt;LoadGuideModule</title>
<path fill="none" stroke="#000000" d="M1882,-122.302C1882,-140.2699 1882,-165 1882,-165 1882,-165 1278.0923,-165 1278.0923,-165"/>
<polygon fill="#000000" stroke="#000000" points="1278.0923,-161.5001 1268.0923,-165 1278.0922,-168.5001 1278.0923,-161.5001"/>
</g>
<!-- TableErrorsComponent -->
<g id="node4" class="node">
<title>TableErrorsComponent</title>
<polygon fill="#ffffb3" stroke="#000000" points="1778.1839,-122 1629.8161,-122 1629.8161,-86 1778.1839,-86 1778.1839,-122"/>
<text text-anchor="middle" x="1704" y="-99.8" font-family="Times,serif" font-size="14.00" fill="#000000">TableErrorsComponent</text>
</g>
<!-- TableErrorsComponent&#45;&gt;LoadGuideModule -->
<g id="edge4" class="edge">
<title>TableErrorsComponent&#45;&gt;LoadGuideModule</title>
<path fill="none" stroke="#000000" d="M1685.8515,-122.027C1685.8515,-138.3976 1685.8515,-160 1685.8515,-160 1685.8515,-160 1278.1333,-160 1278.1333,-160"/>
<polygon fill="#000000" stroke="#000000" points="1278.1333,-156.5001 1268.1333,-160 1278.1332,-163.5001 1278.1333,-156.5001"/>
</g>
<!-- TableLoadComponent -->
<g id="node5" class="node">
<title>TableLoadComponent</title>
<polygon fill="#ffffb3" stroke="#000000" points="1611.972,-122 1470.028,-122 1470.028,-86 1611.972,-86 1611.972,-122"/>
<text text-anchor="middle" x="1541" y="-99.8" font-family="Times,serif" font-size="14.00" fill="#000000">TableLoadComponent</text>
</g>
<!-- TableLoadComponent&#45;&gt;LoadGuideModule -->
<g id="edge5" class="edge">
<title>TableLoadComponent&#45;&gt;LoadGuideModule</title>
<path fill="none" stroke="#000000" d="M1504.9872,-122.1871C1504.9872,-137.1824 1504.9872,-156 1504.9872,-156 1504.9872,-156 1278.3818,-156 1278.3818,-156"/>
<polygon fill="#000000" stroke="#000000" points="1278.3819,-152.5001 1268.3818,-156 1278.3818,-159.5001 1278.3819,-152.5001"/>
</g>
<!-- DownloadFormatComponent  -->
<g id="node9" class="node">
<title>DownloadFormatComponent </title>
<polygon fill="#fb8072" stroke="#000000" points="1741.5903,-252 1558.4097,-252 1558.4097,-216 1741.5903,-216 1741.5903,-252"/>
<text text-anchor="middle" x="1650" y="-229.8" font-family="Times,serif" font-size="14.00" fill="#000000">DownloadFormatComponent </text>
</g>
<!-- LoadGuideModule&#45;&gt;DownloadFormatComponent  -->
<g id="edge8" class="edge">
<title>LoadGuideModule&#45;&gt;DownloadFormatComponent </title>
<path fill="none" stroke="#000000" stroke-dasharray="5,2" d="M1268.1678,-178C1375.177,-178 1585.0956,-178 1585.0956,-178 1585.0956,-178 1585.0956,-205.973 1585.0956,-205.973"/>
<polygon fill="#000000" stroke="#000000" points="1581.5956,-205.973 1585.0956,-215.973 1588.5956,-205.973 1581.5956,-205.973"/>
</g>
<!-- FinishUploadInformationComponent  -->
<g id="node10" class="node">
<title>FinishUploadInformationComponent </title>
<polygon fill="#fb8072" stroke="#000000" points="1539.9208,-252 1312.0792,-252 1312.0792,-216 1539.9208,-216 1539.9208,-252"/>
<text text-anchor="middle" x="1426" y="-229.8" font-family="Times,serif" font-size="14.00" fill="#000000">FinishUploadInformationComponent </text>
</g>
<!-- LoadGuideModule&#45;&gt;FinishUploadInformationComponent  -->
<g id="edge9" class="edge">
<title>LoadGuideModule&#45;&gt;FinishUploadInformationComponent </title>
<path fill="none" stroke="#000000" stroke-dasharray="5,2" d="M1268.1007,-183C1317.5187,-183 1378.9315,-183 1378.9315,-183 1378.9315,-183 1378.9315,-205.8757 1378.9315,-205.8757"/>
<polygon fill="#000000" stroke="#000000" points="1375.4315,-205.8757 1378.9315,-215.8757 1382.4315,-205.8757 1375.4315,-205.8757"/>
</g>
<!-- LoadGuidePageComponent  -->
<g id="node11" class="node">
<title>LoadGuidePageComponent </title>
<polygon fill="#fb8072" stroke="#000000" points="1294.5232,-252 1119.4768,-252 1119.4768,-216 1294.5232,-216 1294.5232,-252"/>
<text text-anchor="middle" x="1207" y="-229.8" font-family="Times,serif" font-size="14.00" fill="#000000">LoadGuidePageComponent </text>
</g>
<!-- LoadGuideModule&#45;&gt;LoadGuidePageComponent  -->
<g id="edge10" class="edge">
<title>LoadGuideModule&#45;&gt;LoadGuidePageComponent </title>
<path fill="none" stroke="#000000" stroke-dasharray="5,2" d="M1207,-187.1061C1207,-187.1061 1207,-205.991 1207,-205.991"/>
<polygon fill="#000000" stroke="#000000" points="1203.5001,-205.9909 1207,-215.991 1210.5001,-205.991 1203.5001,-205.9909"/>
</g>
<!-- TableErrorsComponent  -->
<g id="node12" class="node">
<title>TableErrorsComponent </title>
<polygon fill="#fb8072" stroke="#000000" points="1101.6841,-252 950.3159,-252 950.3159,-216 1101.6841,-216 1101.6841,-252"/>
<text text-anchor="middle" x="1026" y="-229.8" font-family="Times,serif" font-size="14.00" fill="#000000">TableErrorsComponent </text>
</g>
<!-- LoadGuideModule&#45;&gt;TableErrorsComponent  -->
<g id="edge11" class="edge">
<title>LoadGuideModule&#45;&gt;TableErrorsComponent </title>
<path fill="none" stroke="#000000" stroke-dasharray="5,2" d="M1145.814,-183C1093.636,-183 1027.0147,-183 1027.0147,-183 1027.0147,-183 1027.0147,-205.8757 1027.0147,-205.8757"/>
<polygon fill="#000000" stroke="#000000" points="1023.5148,-205.8757 1027.0147,-215.8757 1030.5148,-205.8757 1023.5148,-205.8757"/>
</g>
<!-- TableLoadComponent  -->
<g id="node13" class="node">
<title>TableLoadComponent </title>
<polygon fill="#fb8072" stroke="#000000" points="931.9728,-252 786.0272,-252 786.0272,-216 931.9728,-216 931.9728,-252"/>
<text text-anchor="middle" x="859" y="-229.8" font-family="Times,serif" font-size="14.00" fill="#000000">TableLoadComponent </text>
</g>
<!-- LoadGuideModule&#45;&gt;TableLoadComponent  -->
<g id="edge12" class="edge">
<title>LoadGuideModule&#45;&gt;TableLoadComponent </title>
<path fill="none" stroke="#000000" stroke-dasharray="5,2" d="M1145.7236,-178C1051.8637,-178 883.2453,-178 883.2453,-178 883.2453,-178 883.2453,-205.973 883.2453,-205.973"/>
<polygon fill="#000000" stroke="#000000" points="879.7454,-205.973 883.2453,-215.973 886.7454,-205.973 879.7454,-205.973"/>
</g>
<!-- LoadGuideRoutingModule -->
<g id="node7" class="node">
<title>LoadGuideRoutingModule</title>
<polygon fill="#8dd3c7" stroke="#000000" points="1445.647,-122 1442.647,-126 1421.647,-126 1418.647,-122 1278.353,-122 1278.353,-86 1445.647,-86 1445.647,-122"/>
<text text-anchor="middle" x="1362" y="-99.8" font-family="Times,serif" font-size="14.00" fill="#000000">LoadGuideRoutingModule</text>
</g>
<!-- LoadGuideRoutingModule&#45;&gt;LoadGuideModule -->
<g id="edge6" class="edge">
<title>LoadGuideRoutingModule&#45;&gt;LoadGuideModule</title>
<path fill="none" stroke="#000000" d="M1277.9492,-104C1269.7376,-104 1264.3749,-104 1264.3749,-104 1264.3749,-104 1264.3749,-140.8939 1264.3749,-140.8939"/>
<polygon fill="#000000" stroke="#000000" points="1260.8749,-140.8938 1264.3749,-150.8939 1267.8749,-140.8939 1260.8749,-140.8938"/>
</g>
<!-- MaterialModule -->
<g id="node8" class="node">
<title>MaterialModule</title>
<polygon fill="#8dd3c7" stroke="#000000" points="1260.4706,-122 1257.4706,-126 1236.4706,-126 1233.4706,-122 1153.5294,-122 1153.5294,-86 1260.4706,-86 1260.4706,-122"/>
<text text-anchor="middle" x="1207" y="-99.8" font-family="Times,serif" font-size="14.00" fill="#000000">MaterialModule</text>
</g>
<!-- MaterialModule&#45;&gt;LoadGuideModule -->
<g id="edge7" class="edge">
<title>MaterialModule&#45;&gt;LoadGuideModule</title>
<path fill="none" stroke="#000000" d="M1207,-122.1061C1207,-122.1061 1207,-140.991 1207,-140.991"/>
<polygon fill="#000000" stroke="#000000" points="1203.5001,-140.9909 1207,-150.991 1210.5001,-140.991 1203.5001,-140.9909"/>
</g>
<!-- ComponentsService -->
<g id="node14" class="node">
<title>ComponentsService</title>
<ellipse fill="#fdb462" stroke="#000000" cx="1041" cy="-104" rx="88.6255" ry="18"/>
<text text-anchor="middle" x="1041" y="-99.8" font-family="Times,serif" font-size="14.00" fill="#000000">ComponentsService</text>
</g>
<!-- ComponentsService&#45;&gt;LoadGuideModule -->
<g id="edge13" class="edge">
<title>ComponentsService&#45;&gt;LoadGuideModule</title>
<path fill="none" stroke="#000000" d="M1129.954,-104C1141.6191,-104 1149.6251,-104 1149.6251,-104 1149.6251,-104 1149.6251,-140.8939 1149.6251,-140.8939"/>
<polygon fill="#000000" stroke="#000000" points="1146.1252,-140.8938 1149.6251,-150.8939 1153.1252,-140.8939 1146.1252,-140.8938"/>
</g>
<!-- EndpointService -->
<g id="node15" class="node">
<title>EndpointService</title>
<ellipse fill="#fdb462" stroke="#000000" cx="859" cy="-104" rx="75.3021" ry="18"/>
<text text-anchor="middle" x="859" y="-99.8" font-family="Times,serif" font-size="14.00" fill="#000000">EndpointService</text>
</g>
<!-- EndpointService&#45;&gt;LoadGuideModule -->
<g id="edge14" class="edge">
<title>EndpointService&#45;&gt;LoadGuideModule</title>
<path fill="none" stroke="#000000" d="M834.7547,-121.3152C834.7547,-136.4421 834.7547,-156 834.7547,-156 834.7547,-156 1135.9481,-156 1135.9481,-156"/>
<polygon fill="#000000" stroke="#000000" points="1135.9481,-159.5001 1145.9481,-156 1135.9481,-152.5001 1135.9481,-159.5001"/>
</g>
<!-- EventEmitterOrders -->
<g id="node16" class="node">
<title>EventEmitterOrders</title>
<ellipse fill="#fdb462" stroke="#000000" cx="677" cy="-104" rx="88.5986" ry="18"/>
<text text-anchor="middle" x="677" y="-99.8" font-family="Times,serif" font-size="14.00" fill="#000000">EventEmitterOrders</text>
</g>
<!-- EventEmitterOrders&#45;&gt;LoadGuideModule -->
<g id="edge15" class="edge">
<title>EventEmitterOrders&#45;&gt;LoadGuideModule</title>
<path fill="none" stroke="#000000" d="M677,-122.027C677,-138.3976 677,-160 677,-160 677,-160 1135.9436,-160 1135.9436,-160"/>
<polygon fill="#000000" stroke="#000000" points="1135.9436,-163.5001 1145.9436,-160 1135.9436,-156.5001 1135.9436,-163.5001"/>
</g>
<!-- HttpErrorHandlingService -->
<g id="node17" class="node">
<title>HttpErrorHandlingService</title>
<ellipse fill="#fdb462" stroke="#000000" cx="457" cy="-104" rx="113.4412" ry="18"/>
<text text-anchor="middle" x="457" y="-99.8" font-family="Times,serif" font-size="14.00" fill="#000000">HttpErrorHandlingService</text>
</g>
<!-- HttpErrorHandlingService&#45;&gt;LoadGuideModule -->
<g id="edge16" class="edge">
<title>HttpErrorHandlingService&#45;&gt;LoadGuideModule</title>
<path fill="none" stroke="#000000" d="M457,-122.302C457,-140.2699 457,-165 457,-165 457,-165 1135.9423,-165 1135.9423,-165"/>
<polygon fill="#000000" stroke="#000000" points="1135.9424,-168.5001 1145.9423,-165 1135.9423,-161.5001 1135.9424,-168.5001"/>
</g>
<!-- LoadGuideService -->
<g id="node18" class="node">
<title>LoadGuideService</title>
<ellipse fill="#fdb462" stroke="#000000" cx="242" cy="-104" rx="83.3674" ry="18"/>
<text text-anchor="middle" x="242" y="-99.8" font-family="Times,serif" font-size="14.00" fill="#000000">LoadGuideService</text>
</g>
<!-- LoadGuideService&#45;&gt;LoadGuideModule -->
<g id="edge17" class="edge">
<title>LoadGuideService&#45;&gt;LoadGuideModule</title>
<path fill="none" stroke="#000000" d="M242,-122.1061C242,-141.3391 242,-169 242,-169 242,-169 1135.9028,-169 1135.9028,-169"/>
<polygon fill="#000000" stroke="#000000" points="1135.9029,-172.5001 1145.9028,-169 1135.9028,-165.5001 1135.9029,-172.5001"/>
</g>
<!-- UserService -->
<g id="node19" class="node">
<title>UserService</title>
<ellipse fill="#fdb462" stroke="#000000" cx="82" cy="-104" rx="58.4415" ry="18"/>
<text text-anchor="middle" x="82" y="-99.8" font-family="Times,serif" font-size="14.00" fill="#000000">UserService</text>
</g>
<!-- UserService&#45;&gt;LoadGuideModule -->
<g id="edge18" class="edge">
<title>UserService&#45;&gt;LoadGuideModule</title>
<path fill="none" stroke="#000000" d="M82,-122.0267C82,-142.7672 82,-174 82,-174 82,-174 1135.7162,-174 1135.7162,-174"/>
<polygon fill="#000000" stroke="#000000" points="1135.7162,-177.5001 1145.7162,-174 1135.7162,-170.5001 1135.7162,-177.5001"/>
</g>
</g>
</svg>
