<?xml version="1.0" encoding="UTF-8" standalone="no"?>
<!DOCTYPE svg PUBLIC "-//W3C//DTD SVG 1.1//EN"
 "http://www.w3.org/Graphics/SVG/1.1/DTD/svg11.dtd">
<!-- Generated by graphviz version 2.40.1 (20161225.0304)
 -->
<!-- Title: dependencies Pages: 1 -->
<svg width="1884pt" height="284pt"
 viewBox="0.00 0.00 1884.00 284.00" xmlns="http://www.w3.org/2000/svg" xmlns:xlink="http://www.w3.org/1999/xlink">
<g id="graph0" class="graph" transform="scale(1 1) rotate(0) translate(4 280)">
<title>dependencies</title>
<polygon fill="#ffffff" stroke="transparent" points="-4,4 -4,-280 1880,-280 1880,4 -4,4"/>
<text text-anchor="start" x="917.0091" y="-42.4" font-family="sans-serif" font-weight="bold" font-size="14.00" fill="#000000">Legend</text>
<polygon fill="#ffffb3" stroke="transparent" points="704,-10 704,-30 724,-30 724,-10 704,-10"/>
<text text-anchor="start" x="727.629" y="-15.4" font-family="sans-serif" font-size="14.00" fill="#000000"> &#160;Declarations</text>
<polygon fill="#8dd3c7" stroke="transparent" points="817,-10 817,-30 837,-30 837,-10 817,-10"/>
<text text-anchor="start" x="840.7251" y="-15.4" font-family="sans-serif" font-size="14.00" fill="#000000"> &#160;Module</text>
<polygon fill="#80b1d3" stroke="transparent" points="903,-10 903,-30 923,-30 923,-10 903,-10"/>
<text text-anchor="start" x="926.7812" y="-15.4" font-family="sans-serif" font-size="14.00" fill="#000000"> &#160;Bootstrap</text>
<polygon fill="#fdb462" stroke="transparent" points="1000,-10 1000,-30 1020,-30 1020,-10 1000,-10"/>
<text text-anchor="start" x="1023.6732" y="-15.4" font-family="sans-serif" font-size="14.00" fill="#000000"> &#160;Providers</text>
<polygon fill="#fb8072" stroke="transparent" points="1096,-10 1096,-30 1116,-30 1116,-10 1096,-10"/>
<text text-anchor="start" x="1119.7258" y="-15.4" font-family="sans-serif" font-size="14.00" fill="#000000"> &#160;Exports</text>
<g id="clust1" class="cluster">
<title>cluster_LoadGuideModule</title>
<polygon fill="none" stroke="#000000" stroke-dasharray="1,5" points="8,-70 8,-268 1868,-268 1868,-70 8,-70"/>
</g>
<g id="clust2" class="cluster">
<title>cluster_LoadGuideModule_declarations</title>
<polygon fill="none" stroke="#000000" points="906,-78 906,-130 1860,-130 1860,-78 906,-78"/>
</g>
<g id="clust8" class="cluster">
<title>cluster_LoadGuideModule_imports</title>
<polygon fill="none" stroke="#000000" points="598,-78 598,-130 898,-130 898,-78 598,-78"/>
</g>
<g id="clust9" class="cluster">
<title>cluster_LoadGuideModule_exports</title>
<polygon fill="none" stroke="#000000" points="466,-208 466,-260 1438,-260 1438,-208 466,-208"/>
</g>
<g id="clust11" class="cluster">
<title>cluster_LoadGuideModule_providers</title>
<polygon fill="none" stroke="#000000" points="16,-78 16,-130 590,-130 590,-78 16,-78"/>
</g>
<!-- DownloadFormatComponent -->
<g id="node1" class="node">
<title>DownloadFormatComponent</title>
<polygon fill="#ffffb3" stroke="#000000" points="1852.0898,-122 1671.9102,-122 1671.9102,-86 1852.0898,-86 1852.0898,-122"/>
<text text-anchor="middle" x="1762" y="-99.8" font-family="Times,serif" font-size="14.00" fill="#000000">DownloadFormatComponent</text>
</g>
<!-- LoadGuideModule -->
<g id="node6" class="node">
<title>LoadGuideModule</title>
<polygon fill="#8dd3c7" stroke="#000000" points="956.0297,-187 953.0297,-191 932.0297,-191 929.0297,-187 833.9703,-187 833.9703,-151 956.0297,-151 956.0297,-187"/>
<text text-anchor="middle" x="895" y="-164.8" font-family="Times,serif" font-size="14.00" fill="#000000">LoadGuideModule</text>
</g>
<!-- DownloadFormatComponent&#45;&gt;LoadGuideModule -->
<g id="edge1" class="edge">
<title>DownloadFormatComponent&#45;&gt;LoadGuideModule</title>
<path fill="none" stroke="#000000" d="M1762,-122.2228C1762,-142.3652 1762,-172 1762,-172 1762,-172 966.3112,-172 966.3112,-172"/>
<polygon fill="#000000" stroke="#000000" points="966.3112,-168.5001 956.3112,-172 966.3112,-175.5001 966.3112,-168.5001"/>
</g>
<!-- FinishUploadInformationComponent -->
<g id="node2" class="node">
<title>FinishUploadInformationComponent</title>
<polygon fill="#ffffb3" stroke="#000000" points="1654.4212,-122 1429.5788,-122 1429.5788,-86 1654.4212,-86 1654.4212,-122"/>
<text text-anchor="middle" x="1542" y="-99.8" font-family="Times,serif" font-size="14.00" fill="#000000">FinishUploadInformationComponent</text>
</g>
<!-- FinishUploadInformationComponent&#45;&gt;LoadGuideModule -->
<g id="edge2" class="edge">
<title>FinishUploadInformationComponent&#45;&gt;LoadGuideModule</title>
<path fill="none" stroke="#000000" d="M1542.0026,-122.2222C1542.0026,-140.8285 1542.0026,-167 1542.0026,-167 1542.0026,-167 966.1598,-167 966.1598,-167"/>
<polygon fill="#000000" stroke="#000000" points="966.1598,-163.5001 956.1598,-167 966.1598,-170.5001 966.1598,-163.5001"/>
</g>
<!-- LoadGuidePageComponent -->
<g id="node3" class="node">
<title>LoadGuidePageComponent</title>
<polygon fill="#ffffb3" stroke="#000000" points="1411.5239,-122 1240.4761,-122 1240.4761,-86 1411.5239,-86 1411.5239,-122"/>
<text text-anchor="middle" x="1326" y="-99.8" font-family="Times,serif" font-size="14.00" fill="#000000">LoadGuidePageComponent</text>
</g>
<!-- LoadGuidePageComponent&#45;&gt;LoadGuideModule -->
<g id="edge3" class="edge">
<title>LoadGuidePageComponent&#45;&gt;LoadGuideModule</title>
<path fill="none" stroke="#000000" d="M1356.5761,-122.0336C1356.5761,-139.0597 1356.5761,-162 1356.5761,-162 1356.5761,-162 966.2937,-162 966.2937,-162"/>
<polygon fill="#000000" stroke="#000000" points="966.2938,-158.5001 956.2937,-162 966.2937,-165.5001 966.2938,-158.5001"/>
</g>
<!-- TableErrorsComponent -->
<g id="node4" class="node">
<title>TableErrorsComponent</title>
<polygon fill="#ffffb3" stroke="#000000" points="1222.1839,-122 1073.8161,-122 1073.8161,-86 1222.1839,-86 1222.1839,-122"/>
<text text-anchor="middle" x="1148" y="-99.8" font-family="Times,serif" font-size="14.00" fill="#000000">TableErrorsComponent</text>
</g>
<!-- TableErrorsComponent&#45;&gt;LoadGuideModule -->
<g id="edge4" class="edge">
<title>TableErrorsComponent&#45;&gt;LoadGuideModule</title>
<path fill="none" stroke="#000000" d="M1148,-122.2396C1148,-137.5706 1148,-157 1148,-157 1148,-157 966.2442,-157 966.2442,-157"/>
<polygon fill="#000000" stroke="#000000" points="966.2443,-153.5001 956.2442,-157 966.2442,-160.5001 966.2443,-153.5001"/>
</g>
<!-- TableLoadComponent -->
<g id="node5" class="node">
<title>TableLoadComponent</title>
<polygon fill="#ffffb3" stroke="#000000" points="1055.972,-122 914.028,-122 914.028,-86 1055.972,-86 1055.972,-122"/>
<text text-anchor="middle" x="985" y="-99.8" font-family="Times,serif" font-size="14.00" fill="#000000">TableLoadComponent</text>
</g>
<!-- TableLoadComponent&#45;&gt;LoadGuideModule -->
<g id="edge5" class="edge">
<title>TableLoadComponent&#45;&gt;LoadGuideModule</title>
<path fill="none" stroke="#000000" d="M935.1392,-122.1061C935.1392,-122.1061 935.1392,-140.991 935.1392,-140.991"/>
<polygon fill="#000000" stroke="#000000" points="931.6393,-140.9909 935.1392,-150.991 938.6393,-140.991 931.6393,-140.9909"/>
</g>
<!-- DownloadFormatComponent  -->
<g id="node9" class="node">
<title>DownloadFormatComponent </title>
<polygon fill="#fb8072" stroke="#000000" points="1429.5903,-252 1246.4097,-252 1246.4097,-216 1429.5903,-216 1429.5903,-252"/>
<text text-anchor="middle" x="1338" y="-229.8" font-family="Times,serif" font-size="14.00" fill="#000000">DownloadFormatComponent </text>
</g>
<!-- LoadGuideModule&#45;&gt;DownloadFormatComponent  -->
<g id="edge8" class="edge">
<title>LoadGuideModule&#45;&gt;DownloadFormatComponent </title>
<path fill="none" stroke="#000000" stroke-dasharray="5,2" d="M956.2808,-177C1069.8097,-177 1301.3906,-177 1301.3906,-177 1301.3906,-177 1301.3906,-205.9648 1301.3906,-205.9648"/>
<polygon fill="#000000" stroke="#000000" points="1297.8907,-205.9648 1301.3906,-215.9648 1304.8907,-205.9649 1297.8907,-205.9648"/>
</g>
<!-- FinishUploadInformationComponent  -->
<g id="node10" class="node">
<title>FinishUploadInformationComponent </title>
<polygon fill="#fb8072" stroke="#000000" points="1227.9208,-252 1000.0792,-252 1000.0792,-216 1227.9208,-216 1227.9208,-252"/>
<text text-anchor="middle" x="1114" y="-229.8" font-family="Times,serif" font-size="14.00" fill="#000000">FinishUploadInformationComponent </text>
</g>
<!-- LoadGuideModule&#45;&gt;FinishUploadInformationComponent  -->
<g id="edge9" class="edge">
<title>LoadGuideModule&#45;&gt;FinishUploadInformationComponent </title>
<path fill="none" stroke="#000000" stroke-dasharray="5,2" d="M956.0562,-182C991.0231,-182 1028.0128,-182 1028.0128,-182 1028.0128,-182 1028.0128,-205.8129 1028.0128,-205.8129"/>
<polygon fill="#000000" stroke="#000000" points="1024.5129,-205.8129 1028.0128,-215.8129 1031.5129,-205.813 1024.5129,-205.8129"/>
</g>
<!-- LoadGuidePageComponent  -->
<g id="node11" class="node">
<title>LoadGuidePageComponent </title>
<polygon fill="#fb8072" stroke="#000000" points="982.5232,-252 807.4768,-252 807.4768,-216 982.5232,-216 982.5232,-252"/>
<text text-anchor="middle" x="895" y="-229.8" font-family="Times,serif" font-size="14.00" fill="#000000">LoadGuidePageComponent </text>
</g>
<!-- LoadGuideModule&#45;&gt;LoadGuidePageComponent  -->
<g id="edge10" class="edge">
<title>LoadGuideModule&#45;&gt;LoadGuidePageComponent </title>
<path fill="none" stroke="#000000" stroke-dasharray="5,2" d="M895,-187.1061C895,-187.1061 895,-205.991 895,-205.991"/>
<polygon fill="#000000" stroke="#000000" points="891.5001,-205.9909 895,-215.991 898.5001,-205.991 891.5001,-205.9909"/>
</g>
<!-- TableErrorsComponent  -->
<g id="node12" class="node">
<title>TableErrorsComponent </title>
<polygon fill="#fb8072" stroke="#000000" points="789.6841,-252 638.3159,-252 638.3159,-216 789.6841,-216 789.6841,-252"/>
<text text-anchor="middle" x="714" y="-229.8" font-family="Times,serif" font-size="14.00" fill="#000000">TableErrorsComponent </text>
</g>
<!-- LoadGuideModule&#45;&gt;TableErrorsComponent  -->
<g id="edge11" class="edge">
<title>LoadGuideModule&#45;&gt;TableErrorsComponent </title>
<path fill="none" stroke="#000000" stroke-dasharray="5,2" d="M833.6321,-182C796.3984,-182 756.0093,-182 756.0093,-182 756.0093,-182 756.0093,-205.8129 756.0093,-205.8129"/>
<polygon fill="#000000" stroke="#000000" points="752.5094,-205.8129 756.0093,-215.8129 759.5094,-205.813 752.5094,-205.8129"/>
</g>
<!-- TableLoadComponent  -->
<g id="node13" class="node">
<title>TableLoadComponent </title>
<polygon fill="#fb8072" stroke="#000000" points="619.9728,-252 474.0272,-252 474.0272,-216 619.9728,-216 619.9728,-252"/>
<text text-anchor="middle" x="547" y="-229.8" font-family="Times,serif" font-size="14.00" fill="#000000">TableLoadComponent </text>
</g>
<!-- LoadGuideModule&#45;&gt;TableLoadComponent  -->
<g id="edge12" class="edge">
<title>LoadGuideModule&#45;&gt;TableLoadComponent </title>
<path fill="none" stroke="#000000" stroke-dasharray="5,2" d="M833.7587,-177C750.7503,-177 612.7624,-177 612.7624,-177 612.7624,-177 612.7624,-205.9648 612.7624,-205.9648"/>
<polygon fill="#000000" stroke="#000000" points="609.2625,-205.9648 612.7624,-215.9648 616.2625,-205.9649 609.2625,-205.9648"/>
</g>
<!-- LoadGuideRoutingModule -->
<g id="node7" class="node">
<title>LoadGuideRoutingModule</title>
<polygon fill="#8dd3c7" stroke="#000000" points="889.647,-122 886.647,-126 865.647,-126 862.647,-122 722.353,-122 722.353,-86 889.647,-86 889.647,-122"/>
<text text-anchor="middle" x="806" y="-99.8" font-family="Times,serif" font-size="14.00" fill="#000000">LoadGuideRoutingModule</text>
</g>
<!-- LoadGuideRoutingModule&#45;&gt;LoadGuideModule -->
<g id="edge6" class="edge">
<title>LoadGuideRoutingModule&#45;&gt;LoadGuideModule</title>
<path fill="none" stroke="#000000" d="M861.7795,-122.1061C861.7795,-122.1061 861.7795,-140.991 861.7795,-140.991"/>
<polygon fill="#000000" stroke="#000000" points="858.2795,-140.9909 861.7795,-150.991 865.2795,-140.991 858.2795,-140.9909"/>
</g>
<!-- SharedModule -->
<g id="node8" class="node">
<title>SharedModule</title>
<polygon fill="#8dd3c7" stroke="#000000" points="704.4231,-122 701.4231,-126 680.4231,-126 677.4231,-122 605.5769,-122 605.5769,-86 704.4231,-86 704.4231,-122"/>
<text text-anchor="middle" x="655" y="-99.8" font-family="Times,serif" font-size="14.00" fill="#000000">SharedModule</text>
</g>
<!-- SharedModule&#45;&gt;LoadGuideModule -->
<g id="edge7" class="edge">
<title>SharedModule&#45;&gt;LoadGuideModule</title>
<path fill="none" stroke="#000000" d="M671.1846,-122.2396C671.1846,-137.5706 671.1846,-157 671.1846,-157 671.1846,-157 823.8415,-157 823.8415,-157"/>
<polygon fill="#000000" stroke="#000000" points="823.8415,-160.5001 833.8415,-157 823.8414,-153.5001 823.8415,-160.5001"/>
</g>
<!-- ComponentsService -->
<g id="node14" class="node">
<title>ComponentsService</title>
<ellipse fill="#fdb462" stroke="#000000" cx="493" cy="-104" rx="88.6255" ry="18"/>
<text text-anchor="middle" x="493" y="-99.8" font-family="Times,serif" font-size="14.00" fill="#000000">ComponentsService</text>
</g>
<!-- ComponentsService&#45;&gt;LoadGuideModule -->
<g id="edge13" class="edge">
<title>ComponentsService&#45;&gt;LoadGuideModule</title>
<path fill="none" stroke="#000000" d="M528.0383,-120.776C528.0383,-137.9056 528.0383,-162 528.0383,-162 528.0383,-162 823.5789,-162 823.5789,-162"/>
<polygon fill="#000000" stroke="#000000" points="823.5789,-165.5001 833.5789,-162 823.5788,-158.5001 823.5789,-165.5001"/>
</g>
<!-- EventEmitterOrders -->
<g id="node15" class="node">
<title>EventEmitterOrders</title>
<ellipse fill="#fdb462" stroke="#000000" cx="297" cy="-104" rx="88.5986" ry="18"/>
<text text-anchor="middle" x="297" y="-99.8" font-family="Times,serif" font-size="14.00" fill="#000000">EventEmitterOrders</text>
</g>
<!-- EventEmitterOrders&#45;&gt;LoadGuideModule -->
<g id="edge14" class="edge">
<title>EventEmitterOrders&#45;&gt;LoadGuideModule</title>
<path fill="none" stroke="#000000" d="M297,-122.2222C297,-140.8285 297,-167 297,-167 297,-167 823.8138,-167 823.8138,-167"/>
<polygon fill="#000000" stroke="#000000" points="823.8138,-170.5001 833.8138,-167 823.8138,-163.5001 823.8138,-170.5001"/>
</g>
<!-- LoadGuideService -->
<g id="node16" class="node">
<title>LoadGuideService</title>
<ellipse fill="#fdb462" stroke="#000000" cx="107" cy="-104" rx="83.3674" ry="18"/>
<text text-anchor="middle" x="107" y="-99.8" font-family="Times,serif" font-size="14.00" fill="#000000">LoadGuideService</text>
</g>
<!-- LoadGuideService&#45;&gt;LoadGuideModule -->
<g id="edge15" class="edge">
<title>LoadGuideService&#45;&gt;LoadGuideModule</title>
<path fill="none" stroke="#000000" d="M107,-122.2228C107,-142.3652 107,-172 107,-172 107,-172 823.8227,-172 823.8227,-172"/>
<polygon fill="#000000" stroke="#000000" points="823.8227,-175.5001 833.8227,-172 823.8226,-168.5001 823.8227,-175.5001"/>
</g>
</g>
</svg>
