<?xml version="1.0" encoding="UTF-8" standalone="no"?>
<!DOCTYPE svg PUBLIC "-//W3C//DTD SVG 1.1//EN"
 "http://www.w3.org/Graphics/SVG/1.1/DTD/svg11.dtd">
<!-- Generated by graphviz version 2.40.1 (20161225.0304)
 -->
<!-- Title: dependencies Pages: 1 -->
<svg width="1913pt" height="284pt"
 viewBox="0.00 0.00 1913.00 284.00" xmlns="http://www.w3.org/2000/svg" xmlns:xlink="http://www.w3.org/1999/xlink">
<g id="graph0" class="graph" transform="scale(1 1) rotate(0) translate(4 280)">
<title>dependencies</title>
<polygon fill="#ffffff" stroke="transparent" points="-4,4 -4,-280 1909,-280 1909,4 -4,4"/>
<text text-anchor="start" x="931.5091" y="-42.4" font-family="sans-serif" font-weight="bold" font-size="14.00" fill="#000000">Legend</text>
<polygon fill="#ffffb3" stroke="transparent" points="718.5,-10 718.5,-30 738.5,-30 738.5,-10 718.5,-10"/>
<text text-anchor="start" x="742.129" y="-15.4" font-family="sans-serif" font-size="14.00" fill="#000000"> &#160;Declarations</text>
<polygon fill="#8dd3c7" stroke="transparent" points="831.5,-10 831.5,-30 851.5,-30 851.5,-10 831.5,-10"/>
<text text-anchor="start" x="855.2251" y="-15.4" font-family="sans-serif" font-size="14.00" fill="#000000"> &#160;Module</text>
<polygon fill="#80b1d3" stroke="transparent" points="917.5,-10 917.5,-30 937.5,-30 937.5,-10 917.5,-10"/>
<text text-anchor="start" x="941.2812" y="-15.4" font-family="sans-serif" font-size="14.00" fill="#000000"> &#160;Bootstrap</text>
<polygon fill="#fdb462" stroke="transparent" points="1014.5,-10 1014.5,-30 1034.5,-30 1034.5,-10 1014.5,-10"/>
<text text-anchor="start" x="1038.1732" y="-15.4" font-family="sans-serif" font-size="14.00" fill="#000000"> &#160;Providers</text>
<polygon fill="#fb8072" stroke="transparent" points="1110.5,-10 1110.5,-30 1130.5,-30 1130.5,-10 1110.5,-10"/>
<text text-anchor="start" x="1134.2258" y="-15.4" font-family="sans-serif" font-size="14.00" fill="#000000"> &#160;Exports</text>
<g id="clust1" class="cluster">
<title>cluster_BulkLoadProductModule</title>
<polygon fill="none" stroke="#000000" stroke-dasharray="1,5" points="8,-70 8,-268 1897,-268 1897,-70 8,-70"/>
</g>
<g id="clust2" class="cluster">
<title>cluster_BulkLoadProductModule_declarations</title>
<polygon fill="none" stroke="#000000" points="993,-78 993,-130 1889,-130 1889,-78 993,-78"/>
</g>
<g id="clust7" class="cluster">
<title>cluster_BulkLoadProductModule_imports</title>
<polygon fill="none" stroke="#000000" points="649,-78 649,-130 985,-130 985,-78 649,-78"/>
</g>
<g id="clust8" class="cluster">
<title>cluster_BulkLoadProductModule_exports</title>
<polygon fill="none" stroke="#000000" points="420,-208 420,-260 1330,-260 1330,-208 420,-208"/>
</g>
<g id="clust10" class="cluster">
<title>cluster_BulkLoadProductModule_providers</title>
<polygon fill="none" stroke="#000000" points="16,-78 16,-130 641,-130 641,-78 16,-78"/>
</g>
<!-- BulkLoadProductComponent -->
<g id="node1" class="node">
<title>BulkLoadProductComponent</title>
<polygon fill="#ffffb3" stroke="#000000" points="1881.3752,-122 1700.6248,-122 1700.6248,-86 1881.3752,-86 1881.3752,-122"/>
<text text-anchor="middle" x="1791" y="-99.8" font-family="Times,serif" font-size="14.00" fill="#000000">BulkLoadProductComponent</text>
</g>
<!-- BulkLoadProductModule -->
<g id="node5" class="node">
<title>BulkLoadProductModule</title>
<polygon fill="#8dd3c7" stroke="#000000" points="1063.5926,-187 1060.5926,-191 1039.5926,-191 1036.5926,-187 904.4074,-187 904.4074,-151 1063.5926,-151 1063.5926,-187"/>
<text text-anchor="middle" x="984" y="-164.8" font-family="Times,serif" font-size="14.00" fill="#000000">BulkLoadProductModule</text>
</g>
<!-- BulkLoadProductComponent&#45;&gt;BulkLoadProductModule -->
<g id="edge1" class="edge">
<title>BulkLoadProductComponent&#45;&gt;BulkLoadProductModule</title>
<path fill="none" stroke="#000000" d="M1821.1459,-122.2228C1821.1459,-142.3652 1821.1459,-172 1821.1459,-172 1821.1459,-172 1073.8898,-172 1073.8898,-172"/>
<polygon fill="#000000" stroke="#000000" points="1073.8899,-168.5001 1063.8898,-172 1073.8898,-175.5001 1073.8899,-168.5001"/>
</g>
<!-- BulkLoadProductComponent&#45;&gt;BulkLoadProductModule -->
<g id="edge2" class="edge">
<title>BulkLoadProductComponent&#45;&gt;BulkLoadProductModule</title>
<path fill="none" stroke="#000000" d="M1760.8541,-122.2222C1760.8541,-140.8285 1760.8541,-167 1760.8541,-167 1760.8541,-167 1073.8483,-167 1073.8483,-167"/>
<polygon fill="#000000" stroke="#000000" points="1073.8483,-163.5001 1063.8483,-167 1073.8483,-170.5001 1073.8483,-163.5001"/>
</g>
<!-- FinishUploadProductInformationComponent -->
<g id="node2" class="node">
<title>FinishUploadProductInformationComponent</title>
<polygon fill="#ffffb3" stroke="#000000" points="1682.9692,-122 1415.0308,-122 1415.0308,-86 1682.9692,-86 1682.9692,-122"/>
<text text-anchor="middle" x="1549" y="-99.8" font-family="Times,serif" font-size="14.00" fill="#000000">FinishUploadProductInformationComponent</text>
</g>
<!-- FinishUploadProductInformationComponent&#45;&gt;BulkLoadProductModule -->
<g id="edge3" class="edge">
<title>FinishUploadProductInformationComponent&#45;&gt;BulkLoadProductModule</title>
<path fill="none" stroke="#000000" d="M1549,-122.0336C1549,-139.0597 1549,-162 1549,-162 1549,-162 1073.7524,-162 1073.7524,-162"/>
<polygon fill="#000000" stroke="#000000" points="1073.7524,-158.5001 1063.7524,-162 1073.7523,-165.5001 1073.7524,-158.5001"/>
</g>
<!-- TableErrorsProductComponent -->
<g id="node3" class="node">
<title>TableErrorsProductComponent</title>
<polygon fill="#ffffb3" stroke="#000000" points="1396.7324,-122 1205.2676,-122 1205.2676,-86 1396.7324,-86 1396.7324,-122"/>
<text text-anchor="middle" x="1301" y="-99.8" font-family="Times,serif" font-size="14.00" fill="#000000">TableErrorsProductComponent</text>
</g>
<!-- TableErrorsProductComponent&#45;&gt;BulkLoadProductModule -->
<g id="edge4" class="edge">
<title>TableErrorsProductComponent&#45;&gt;BulkLoadProductModule</title>
<path fill="none" stroke="#000000" d="M1263.6608,-122.2396C1263.6608,-137.5706 1263.6608,-157 1263.6608,-157 1263.6608,-157 1073.7653,-157 1073.7653,-157"/>
<polygon fill="#000000" stroke="#000000" points="1073.7653,-153.5001 1063.7653,-157 1073.7652,-160.5001 1073.7653,-153.5001"/>
</g>
<!-- TableLoadProductComponent -->
<g id="node4" class="node">
<title>TableLoadProductComponent</title>
<polygon fill="#ffffb3" stroke="#000000" points="1186.521,-122 1001.479,-122 1001.479,-86 1186.521,-86 1186.521,-122"/>
<text text-anchor="middle" x="1094" y="-99.8" font-family="Times,serif" font-size="14.00" fill="#000000">TableLoadProductComponent</text>
</g>
<!-- TableLoadProductComponent&#45;&gt;BulkLoadProductModule -->
<g id="edge5" class="edge">
<title>TableLoadProductComponent&#45;&gt;BulkLoadProductModule</title>
<path fill="none" stroke="#000000" d="M1032.3931,-122.1061C1032.3931,-122.1061 1032.3931,-140.991 1032.3931,-140.991"/>
<polygon fill="#000000" stroke="#000000" points="1028.8931,-140.9909 1032.3931,-150.991 1035.8931,-140.991 1028.8931,-140.9909"/>
</g>
<!-- BulkLoadProductComponent  -->
<g id="node8" class="node">
<title>BulkLoadProductComponent </title>
<polygon fill="#fb8072" stroke="#000000" points="1322.3756,-252 1137.6244,-252 1137.6244,-216 1322.3756,-216 1322.3756,-252"/>
<text text-anchor="middle" x="1230" y="-229.8" font-family="Times,serif" font-size="14.00" fill="#000000">BulkLoadProductComponent </text>
</g>
<!-- BulkLoadProductModule&#45;&gt;BulkLoadProductComponent  -->
<g id="edge8" class="edge">
<title>BulkLoadProductModule&#45;&gt;BulkLoadProductComponent </title>
<path fill="none" stroke="#000000" stroke-dasharray="5,2" d="M1063.61,-177C1114.285,-177 1170.4443,-177 1170.4443,-177 1170.4443,-177 1170.4443,-205.9648 1170.4443,-205.9648"/>
<polygon fill="#000000" stroke="#000000" points="1166.9444,-205.9648 1170.4443,-215.9648 1173.9444,-205.9649 1166.9444,-205.9648"/>
</g>
<!-- BulkLoadProductModule&#45;&gt;BulkLoadProductComponent  -->
<g id="edge9" class="edge">
<title>BulkLoadProductModule&#45;&gt;BulkLoadProductComponent </title>
<path fill="none" stroke="#000000" stroke-dasharray="5,2" d="M1063.5849,-182C1107.8626,-182 1154.1283,-182 1154.1283,-182 1154.1283,-182 1154.1283,-205.8129 1154.1283,-205.8129"/>
<polygon fill="#000000" stroke="#000000" points="1150.6284,-205.8129 1154.1283,-215.8129 1157.6284,-205.813 1150.6284,-205.8129"/>
</g>
<!-- FinishUploadProductInformationComponent  -->
<g id="node9" class="node">
<title>FinishUploadProductInformationComponent </title>
<polygon fill="#fb8072" stroke="#000000" points="1119.9696,-252 848.0304,-252 848.0304,-216 1119.9696,-216 1119.9696,-252"/>
<text text-anchor="middle" x="984" y="-229.8" font-family="Times,serif" font-size="14.00" fill="#000000">FinishUploadProductInformationComponent </text>
</g>
<!-- BulkLoadProductModule&#45;&gt;FinishUploadProductInformationComponent  -->
<g id="edge10" class="edge">
<title>BulkLoadProductModule&#45;&gt;FinishUploadProductInformationComponent </title>
<path fill="none" stroke="#000000" stroke-dasharray="5,2" d="M984,-187.1061C984,-187.1061 984,-205.991 984,-205.991"/>
<polygon fill="#000000" stroke="#000000" points="980.5001,-205.9909 984,-215.991 987.5001,-205.991 980.5001,-205.9909"/>
</g>
<!-- TableErrorsProductComponent  -->
<g id="node10" class="node">
<title>TableErrorsProductComponent </title>
<polygon fill="#fb8072" stroke="#000000" points="830.7323,-252 635.2677,-252 635.2677,-216 830.7323,-216 830.7323,-252"/>
<text text-anchor="middle" x="733" y="-229.8" font-family="Times,serif" font-size="14.00" fill="#000000">TableErrorsProductComponent </text>
</g>
<!-- BulkLoadProductModule&#45;&gt;TableErrorsProductComponent  -->
<g id="edge11" class="edge">
<title>BulkLoadProductModule&#45;&gt;TableErrorsProductComponent </title>
<path fill="none" stroke="#000000" stroke-dasharray="5,2" d="M904.33,-182C855.2908,-182 801.7555,-182 801.7555,-182 801.7555,-182 801.7555,-205.8129 801.7555,-205.8129"/>
<polygon fill="#000000" stroke="#000000" points="798.2555,-205.8129 801.7555,-215.8129 805.2555,-205.813 798.2555,-205.8129"/>
</g>
<!-- TableLoadProductComponent  -->
<g id="node11" class="node">
<title>TableLoadProductComponent </title>
<polygon fill="#fb8072" stroke="#000000" points="617.5204,-252 428.4796,-252 428.4796,-216 617.5204,-216 617.5204,-252"/>
<text text-anchor="middle" x="523" y="-229.8" font-family="Times,serif" font-size="14.00" fill="#000000">TableLoadProductComponent </text>
</g>
<!-- BulkLoadProductModule&#45;&gt;TableLoadProductComponent  -->
<g id="edge12" class="edge">
<title>BulkLoadProductModule&#45;&gt;TableLoadProductComponent </title>
<path fill="none" stroke="#000000" stroke-dasharray="5,2" d="M904.2262,-177C772.282,-177 523,-177 523,-177 523,-177 523,-205.9648 523,-205.9648"/>
<polygon fill="#000000" stroke="#000000" points="519.5001,-205.9648 523,-215.9648 526.5001,-205.9649 519.5001,-205.9648"/>
</g>
<!-- BulkLoadProductRoutingModule -->
<g id="node6" class="node">
<title>BulkLoadProductRoutingModule</title>
<polygon fill="#8dd3c7" stroke="#000000" points="977.2105,-122 974.2105,-126 953.2105,-126 950.2105,-122 772.7895,-122 772.7895,-86 977.2105,-86 977.2105,-122"/>
<text text-anchor="middle" x="875" y="-99.8" font-family="Times,serif" font-size="14.00" fill="#000000">BulkLoadProductRoutingModule</text>
</g>
<!-- BulkLoadProductRoutingModule&#45;&gt;BulkLoadProductModule -->
<g id="edge6" class="edge">
<title>BulkLoadProductRoutingModule&#45;&gt;BulkLoadProductModule</title>
<path fill="none" stroke="#000000" d="M940.7795,-122.1061C940.7795,-122.1061 940.7795,-140.991 940.7795,-140.991"/>
<polygon fill="#000000" stroke="#000000" points="937.2795,-140.9909 940.7795,-150.991 944.2795,-140.991 937.2795,-140.9909"/>
</g>
<!-- SharedModule -->
<g id="node7" class="node">
<title>SharedModule</title>
<polygon fill="#8dd3c7" stroke="#000000" points="755.4231,-122 752.4231,-126 731.4231,-126 728.4231,-122 656.5769,-122 656.5769,-86 755.4231,-86 755.4231,-122"/>
<text text-anchor="middle" x="706" y="-99.8" font-family="Times,serif" font-size="14.00" fill="#000000">SharedModule</text>
</g>
<!-- SharedModule&#45;&gt;BulkLoadProductModule -->
<g id="edge7" class="edge">
<title>SharedModule&#45;&gt;BulkLoadProductModule</title>
<path fill="none" stroke="#000000" d="M706,-122.2396C706,-137.5706 706,-157 706,-157 706,-157 894.3364,-157 894.3364,-157"/>
<polygon fill="#000000" stroke="#000000" points="894.3364,-160.5001 904.3364,-157 894.3363,-153.5001 894.3364,-160.5001"/>
</g>
<!-- BulkLoadProductService -->
<g id="node12" class="node">
<title>BulkLoadProductService</title>
<ellipse fill="#fdb462" stroke="#000000" cx="524" cy="-104" rx="108.8096" ry="18"/>
<text text-anchor="middle" x="524" y="-99.8" font-family="Times,serif" font-size="14.00" fill="#000000">BulkLoadProductService</text>
</g>
<!-- BulkLoadProductService&#45;&gt;BulkLoadProductModule -->
<g id="edge13" class="edge">
<title>BulkLoadProductService&#45;&gt;BulkLoadProductModule</title>
<path fill="none" stroke="#000000" d="M625.0824,-110.6533C625.0824,-125.8881 625.0824,-162 625.0824,-162 625.0824,-162 894.3446,-162 894.3446,-162"/>
<polygon fill="#000000" stroke="#000000" points="894.3446,-165.5001 904.3446,-162 894.3445,-158.5001 894.3446,-165.5001"/>
</g>
<!-- ComponentsService -->
<g id="node13" class="node">
<title>ComponentsService</title>
<ellipse fill="#fdb462" stroke="#000000" cx="309" cy="-104" rx="88.6255" ry="18"/>
<text text-anchor="middle" x="309" y="-99.8" font-family="Times,serif" font-size="14.00" fill="#000000">ComponentsService</text>
</g>
<!-- ComponentsService&#45;&gt;BulkLoadProductModule -->
<g id="edge14" class="edge">
<title>ComponentsService&#45;&gt;BulkLoadProductModule</title>
<path fill="none" stroke="#000000" d="M309,-122.2222C309,-140.8285 309,-167 309,-167 309,-167 894.2513,-167 894.2513,-167"/>
<polygon fill="#000000" stroke="#000000" points="894.2513,-170.5001 904.2513,-167 894.2512,-163.5001 894.2513,-170.5001"/>
</g>
<!-- EventEmitterOrders -->
<g id="node14" class="node">
<title>EventEmitterOrders</title>
<ellipse fill="#fdb462" stroke="#000000" cx="113" cy="-104" rx="88.5986" ry="18"/>
<text text-anchor="middle" x="113" y="-99.8" font-family="Times,serif" font-size="14.00" fill="#000000">EventEmitterOrders</text>
</g>
<!-- EventEmitterOrders&#45;&gt;BulkLoadProductModule -->
<g id="edge15" class="edge">
<title>EventEmitterOrders&#45;&gt;BulkLoadProductModule</title>
<path fill="none" stroke="#000000" d="M113,-122.2228C113,-142.3652 113,-172 113,-172 113,-172 894.3956,-172 894.3956,-172"/>
<polygon fill="#000000" stroke="#000000" points="894.3956,-175.5001 904.3956,-172 894.3955,-168.5001 894.3956,-175.5001"/>
</g>
</g>
</svg>
