<?xml version="1.0" encoding="UTF-8" standalone="no"?>
<!DOCTYPE svg PUBLIC "-//W3C//DTD SVG 1.1//EN"
 "http://www.w3.org/Graphics/SVG/1.1/DTD/svg11.dtd">
<!-- Generated by graphviz version 2.40.1 (20161225.0304)
 -->
<!-- Title: dependencies Pages: 1 -->
<svg width="2469pt" height="284pt"
 viewBox="0.00 0.00 2469.00 284.00" xmlns="http://www.w3.org/2000/svg" xmlns:xlink="http://www.w3.org/1999/xlink">
<g id="graph0" class="graph" transform="scale(1 1) rotate(0) translate(4 280)">
<title>dependencies</title>
<polygon fill="#ffffff" stroke="transparent" points="-4,4 -4,-280 2465,-280 2465,4 -4,4"/>
<text text-anchor="start" x="1209.5091" y="-42.4" font-family="sans-serif" font-weight="bold" font-size="14.00" fill="#000000">Legend</text>
<polygon fill="#ffffb3" stroke="transparent" points="996.5,-10 996.5,-30 1016.5,-30 1016.5,-10 996.5,-10"/>
<text text-anchor="start" x="1020.129" y="-15.4" font-family="sans-serif" font-size="14.00" fill="#000000"> &#160;Declarations</text>
<polygon fill="#8dd3c7" stroke="transparent" points="1109.5,-10 1109.5,-30 1129.5,-30 1129.5,-10 1109.5,-10"/>
<text text-anchor="start" x="1133.2251" y="-15.4" font-family="sans-serif" font-size="14.00" fill="#000000"> &#160;Module</text>
<polygon fill="#80b1d3" stroke="transparent" points="1195.5,-10 1195.5,-30 1215.5,-30 1215.5,-10 1195.5,-10"/>
<text text-anchor="start" x="1219.2812" y="-15.4" font-family="sans-serif" font-size="14.00" fill="#000000"> &#160;Bootstrap</text>
<polygon fill="#fdb462" stroke="transparent" points="1292.5,-10 1292.5,-30 1312.5,-30 1312.5,-10 1292.5,-10"/>
<text text-anchor="start" x="1316.1732" y="-15.4" font-family="sans-serif" font-size="14.00" fill="#000000"> &#160;Providers</text>
<polygon fill="#fb8072" stroke="transparent" points="1388.5,-10 1388.5,-30 1408.5,-30 1408.5,-10 1388.5,-10"/>
<text text-anchor="start" x="1412.2258" y="-15.4" font-family="sans-serif" font-size="14.00" fill="#000000"> &#160;Exports</text>
<g id="clust1" class="cluster">
<title>cluster_BulkLoadProductModule</title>
<polygon fill="none" stroke="#000000" stroke-dasharray="1,5" points="8,-70 8,-268 2453,-268 2453,-70 8,-70"/>
</g>
<g id="clust2" class="cluster">
<title>cluster_BulkLoadProductModule_declarations</title>
<polygon fill="none" stroke="#000000" points="1549,-78 1549,-130 2445,-130 2445,-78 1549,-78"/>
</g>
<g id="clust7" class="cluster">
<title>cluster_BulkLoadProductModule_imports</title>
<polygon fill="none" stroke="#000000" points="1196,-78 1196,-130 1541,-130 1541,-78 1196,-78"/>
</g>
<g id="clust8" class="cluster">
<title>cluster_BulkLoadProductModule_exports</title>
<polygon fill="none" stroke="#000000" points="693,-208 693,-260 1603,-260 1603,-208 693,-208"/>
</g>
<g id="clust10" class="cluster">
<title>cluster_BulkLoadProductModule_providers</title>
<polygon fill="none" stroke="#000000" points="16,-78 16,-130 1188,-130 1188,-78 16,-78"/>
</g>
<!-- BulkLoadProductComponent -->
<g id="node1" class="node">
<title>BulkLoadProductComponent</title>
<polygon fill="#ffffb3" stroke="#000000" points="2437.3752,-122 2256.6248,-122 2256.6248,-86 2437.3752,-86 2437.3752,-122"/>
<text text-anchor="middle" x="2347" y="-99.8" font-family="Times,serif" font-size="14.00" fill="#000000">BulkLoadProductComponent</text>
</g>
<!-- BulkLoadProductModule -->
<g id="node5" class="node">
<title>BulkLoadProductModule</title>
<polygon fill="#8dd3c7" stroke="#000000" points="1336.5926,-187 1333.5926,-191 1312.5926,-191 1309.5926,-187 1177.4074,-187 1177.4074,-151 1336.5926,-151 1336.5926,-187"/>
<text text-anchor="middle" x="1257" y="-164.8" font-family="Times,serif" font-size="14.00" fill="#000000">BulkLoadProductModule</text>
</g>
<!-- BulkLoadProductComponent&#45;&gt;BulkLoadProductModule -->
<g id="edge1" class="edge">
<title>BulkLoadProductComponent&#45;&gt;BulkLoadProductModule</title>
<path fill="none" stroke="#000000" d="M2377.1459,-122.0267C2377.1459,-142.7672 2377.1459,-174 2377.1459,-174 2377.1459,-174 1346.6601,-174 1346.6601,-174"/>
<polygon fill="#000000" stroke="#000000" points="1346.6602,-170.5001 1336.6601,-174 1346.6601,-177.5001 1346.6602,-170.5001"/>
</g>
<!-- BulkLoadProductComponent&#45;&gt;BulkLoadProductModule -->
<g id="edge2" class="edge">
<title>BulkLoadProductComponent&#45;&gt;BulkLoadProductModule</title>
<path fill="none" stroke="#000000" d="M2316.8541,-122.1061C2316.8541,-141.3391 2316.8541,-169 2316.8541,-169 2316.8541,-169 1346.6613,-169 1346.6613,-169"/>
<polygon fill="#000000" stroke="#000000" points="1346.6614,-165.5001 1336.6613,-169 1346.6613,-172.5001 1346.6614,-165.5001"/>
</g>
<!-- FinishUploadProductInformationComponent -->
<g id="node2" class="node">
<title>FinishUploadProductInformationComponent</title>
<polygon fill="#ffffb3" stroke="#000000" points="2238.9692,-122 1971.0308,-122 1971.0308,-86 2238.9692,-86 2238.9692,-122"/>
<text text-anchor="middle" x="2105" y="-99.8" font-family="Times,serif" font-size="14.00" fill="#000000">FinishUploadProductInformationComponent</text>
</g>
<!-- FinishUploadProductInformationComponent&#45;&gt;BulkLoadProductModule -->
<g id="edge3" class="edge">
<title>FinishUploadProductInformationComponent&#45;&gt;BulkLoadProductModule</title>
<path fill="none" stroke="#000000" d="M2105,-122.302C2105,-140.2699 2105,-165 2105,-165 2105,-165 1346.7778,-165 1346.7778,-165"/>
<polygon fill="#000000" stroke="#000000" points="1346.7778,-161.5001 1336.7778,-165 1346.7777,-168.5001 1346.7778,-161.5001"/>
</g>
<!-- TableErrorsProductComponent -->
<g id="node3" class="node">
<title>TableErrorsProductComponent</title>
<polygon fill="#ffffb3" stroke="#000000" points="1952.7324,-122 1761.2676,-122 1761.2676,-86 1952.7324,-86 1952.7324,-122"/>
<text text-anchor="middle" x="1857" y="-99.8" font-family="Times,serif" font-size="14.00" fill="#000000">TableErrorsProductComponent</text>
</g>
<!-- TableErrorsProductComponent&#45;&gt;BulkLoadProductModule -->
<g id="edge4" class="edge">
<title>TableErrorsProductComponent&#45;&gt;BulkLoadProductModule</title>
<path fill="none" stroke="#000000" d="M1857,-122.027C1857,-138.3976 1857,-160 1857,-160 1857,-160 1346.6754,-160 1346.6754,-160"/>
<polygon fill="#000000" stroke="#000000" points="1346.6754,-156.5001 1336.6754,-160 1346.6753,-163.5001 1346.6754,-156.5001"/>
</g>
<!-- TableLoadProductComponent -->
<g id="node4" class="node">
<title>TableLoadProductComponent</title>
<polygon fill="#ffffb3" stroke="#000000" points="1742.521,-122 1557.479,-122 1557.479,-86 1742.521,-86 1742.521,-122"/>
<text text-anchor="middle" x="1650" y="-99.8" font-family="Times,serif" font-size="14.00" fill="#000000">TableLoadProductComponent</text>
</g>
<!-- TableLoadProductComponent&#45;&gt;BulkLoadProductModule -->
<g id="edge5" class="edge">
<title>TableLoadProductComponent&#45;&gt;BulkLoadProductModule</title>
<path fill="none" stroke="#000000" d="M1576.2137,-122.1871C1576.2137,-137.1824 1576.2137,-156 1576.2137,-156 1576.2137,-156 1346.7277,-156 1346.7277,-156"/>
<polygon fill="#000000" stroke="#000000" points="1346.7277,-152.5001 1336.7277,-156 1346.7276,-159.5001 1346.7277,-152.5001"/>
</g>
<!-- BulkLoadProductComponent  -->
<g id="node8" class="node">
<title>BulkLoadProductComponent </title>
<polygon fill="#fb8072" stroke="#000000" points="1595.3756,-252 1410.6244,-252 1410.6244,-216 1595.3756,-216 1595.3756,-252"/>
<text text-anchor="middle" x="1503" y="-229.8" font-family="Times,serif" font-size="14.00" fill="#000000">BulkLoadProductComponent </text>
</g>
<!-- BulkLoadProductModule&#45;&gt;BulkLoadProductComponent  -->
<g id="edge8" class="edge">
<title>BulkLoadProductModule&#45;&gt;BulkLoadProductComponent </title>
<path fill="none" stroke="#000000" stroke-dasharray="5,2" d="M1336.6757,-178C1404.9499,-178 1492.3409,-178 1492.3409,-178 1492.3409,-178 1492.3409,-205.973 1492.3409,-205.973"/>
<polygon fill="#000000" stroke="#000000" points="1488.841,-205.973 1492.3409,-215.973 1495.841,-205.973 1488.841,-205.973"/>
</g>
<!-- BulkLoadProductModule&#45;&gt;BulkLoadProductComponent  -->
<g id="edge9" class="edge">
<title>BulkLoadProductModule&#45;&gt;BulkLoadProductComponent </title>
<path fill="none" stroke="#000000" stroke-dasharray="5,2" d="M1336.7032,-183C1390.4382,-183 1451.5767,-183 1451.5767,-183 1451.5767,-183 1451.5767,-205.8757 1451.5767,-205.8757"/>
<polygon fill="#000000" stroke="#000000" points="1448.0768,-205.8757 1451.5767,-215.8757 1455.0768,-205.8757 1448.0768,-205.8757"/>
</g>
<!-- FinishUploadProductInformationComponent  -->
<g id="node9" class="node">
<title>FinishUploadProductInformationComponent </title>
<polygon fill="#fb8072" stroke="#000000" points="1392.9696,-252 1121.0304,-252 1121.0304,-216 1392.9696,-216 1392.9696,-252"/>
<text text-anchor="middle" x="1257" y="-229.8" font-family="Times,serif" font-size="14.00" fill="#000000">FinishUploadProductInformationComponent </text>
</g>
<!-- BulkLoadProductModule&#45;&gt;FinishUploadProductInformationComponent  -->
<g id="edge10" class="edge">
<title>BulkLoadProductModule&#45;&gt;FinishUploadProductInformationComponent </title>
<path fill="none" stroke="#000000" stroke-dasharray="5,2" d="M1257,-187.1061C1257,-187.1061 1257,-205.991 1257,-205.991"/>
<polygon fill="#000000" stroke="#000000" points="1253.5001,-205.9909 1257,-215.991 1260.5001,-205.991 1253.5001,-205.9909"/>
</g>
<!-- TableErrorsProductComponent  -->
<g id="node10" class="node">
<title>TableErrorsProductComponent </title>
<polygon fill="#fb8072" stroke="#000000" points="1103.7323,-252 908.2677,-252 908.2677,-216 1103.7323,-216 1103.7323,-252"/>
<text text-anchor="middle" x="1006" y="-229.8" font-family="Times,serif" font-size="14.00" fill="#000000">TableErrorsProductComponent </text>
</g>
<!-- BulkLoadProductModule&#45;&gt;TableErrorsProductComponent  -->
<g id="edge11" class="edge">
<title>BulkLoadProductModule&#45;&gt;TableErrorsProductComponent </title>
<path fill="none" stroke="#000000" stroke-dasharray="5,2" d="M1177.3884,-183C1112.9988,-183 1032.9807,-183 1032.9807,-183 1032.9807,-183 1032.9807,-205.8757 1032.9807,-205.8757"/>
<polygon fill="#000000" stroke="#000000" points="1029.4808,-205.8757 1032.9807,-215.8757 1036.4808,-205.8757 1029.4808,-205.8757"/>
</g>
<!-- TableLoadProductComponent  -->
<g id="node11" class="node">
<title>TableLoadProductComponent </title>
<polygon fill="#fb8072" stroke="#000000" points="890.5204,-252 701.4796,-252 701.4796,-216 890.5204,-216 890.5204,-252"/>
<text text-anchor="middle" x="796" y="-229.8" font-family="Times,serif" font-size="14.00" fill="#000000">TableLoadProductComponent </text>
</g>
<!-- BulkLoadProductModule&#45;&gt;TableLoadProductComponent  -->
<g id="edge12" class="edge">
<title>BulkLoadProductModule&#45;&gt;TableLoadProductComponent </title>
<path fill="none" stroke="#000000" stroke-dasharray="5,2" d="M1177.221,-178C1053.3505,-178 828.8488,-178 828.8488,-178 828.8488,-178 828.8488,-205.973 828.8488,-205.973"/>
<polygon fill="#000000" stroke="#000000" points="825.3489,-205.973 828.8488,-215.973 832.3489,-205.973 825.3489,-205.973"/>
</g>
<!-- BulkLoadProductRoutingModule -->
<g id="node6" class="node">
<title>BulkLoadProductRoutingModule</title>
<polygon fill="#8dd3c7" stroke="#000000" points="1533.2105,-122 1530.2105,-126 1509.2105,-126 1506.2105,-122 1328.7895,-122 1328.7895,-86 1533.2105,-86 1533.2105,-122"/>
<text text-anchor="middle" x="1431" y="-99.8" font-family="Times,serif" font-size="14.00" fill="#000000">BulkLoadProductRoutingModule</text>
</g>
<!-- BulkLoadProductRoutingModule&#45;&gt;BulkLoadProductModule -->
<g id="edge6" class="edge">
<title>BulkLoadProductRoutingModule&#45;&gt;BulkLoadProductModule</title>
<path fill="none" stroke="#000000" d="M1332.7206,-122.1061C1332.7206,-122.1061 1332.7206,-140.991 1332.7206,-140.991"/>
<polygon fill="#000000" stroke="#000000" points="1329.2206,-140.9909 1332.7206,-150.991 1336.2206,-140.991 1329.2206,-140.9909"/>
</g>
<!-- MaterialModule -->
<g id="node7" class="node">
<title>MaterialModule</title>
<polygon fill="#8dd3c7" stroke="#000000" points="1310.4706,-122 1307.4706,-126 1286.4706,-126 1283.4706,-122 1203.5294,-122 1203.5294,-86 1310.4706,-86 1310.4706,-122"/>
<text text-anchor="middle" x="1257" y="-99.8" font-family="Times,serif" font-size="14.00" fill="#000000">MaterialModule</text>
</g>
<!-- MaterialModule&#45;&gt;BulkLoadProductModule -->
<g id="edge7" class="edge">
<title>MaterialModule&#45;&gt;BulkLoadProductModule</title>
<path fill="none" stroke="#000000" d="M1257,-122.1061C1257,-122.1061 1257,-140.991 1257,-140.991"/>
<polygon fill="#000000" stroke="#000000" points="1253.5001,-140.9909 1257,-150.991 1260.5001,-140.991 1253.5001,-140.9909"/>
</g>
<!-- BulkLoadProductService -->
<g id="node12" class="node">
<title>BulkLoadProductService</title>
<ellipse fill="#fdb462" stroke="#000000" cx="1071" cy="-104" rx="108.8096" ry="18"/>
<text text-anchor="middle" x="1071" y="-99.8" font-family="Times,serif" font-size="14.00" fill="#000000">BulkLoadProductService</text>
</g>
<!-- BulkLoadProductService&#45;&gt;BulkLoadProductModule -->
<g id="edge13" class="edge">
<title>BulkLoadProductService&#45;&gt;BulkLoadProductModule</title>
<path fill="none" stroke="#000000" d="M1180.0225,-104C1187.1669,-104 1191.5847,-104 1191.5847,-104 1191.5847,-104 1191.5847,-140.8939 1191.5847,-140.8939"/>
<polygon fill="#000000" stroke="#000000" points="1188.0848,-140.8938 1191.5847,-150.8939 1195.0848,-140.8939 1188.0848,-140.8938"/>
</g>
<!-- ComponentsService -->
<g id="node13" class="node">
<title>ComponentsService</title>
<ellipse fill="#fdb462" stroke="#000000" cx="856" cy="-104" rx="88.6255" ry="18"/>
<text text-anchor="middle" x="856" y="-99.8" font-family="Times,serif" font-size="14.00" fill="#000000">ComponentsService</text>
</g>
<!-- ComponentsService&#45;&gt;BulkLoadProductModule -->
<g id="edge14" class="edge">
<title>ComponentsService&#45;&gt;BulkLoadProductModule</title>
<path fill="none" stroke="#000000" d="M926.5982,-115.0279C926.5982,-130.292 926.5982,-156 926.5982,-156 926.5982,-156 1167.4401,-156 1167.4401,-156"/>
<polygon fill="#000000" stroke="#000000" points="1167.4401,-159.5001 1177.4401,-156 1167.4401,-152.5001 1167.4401,-159.5001"/>
</g>
<!-- EndpointService -->
<g id="node14" class="node">
<title>EndpointService</title>
<ellipse fill="#fdb462" stroke="#000000" cx="674" cy="-104" rx="75.3021" ry="18"/>
<text text-anchor="middle" x="674" y="-99.8" font-family="Times,serif" font-size="14.00" fill="#000000">EndpointService</text>
</g>
<!-- EndpointService&#45;&gt;BulkLoadProductModule -->
<g id="edge15" class="edge">
<title>EndpointService&#45;&gt;BulkLoadProductModule</title>
<path fill="none" stroke="#000000" d="M725.4454,-117.2712C725.4454,-133.8312 725.4454,-160 725.4454,-160 725.4454,-160 1167.4209,-160 1167.4209,-160"/>
<polygon fill="#000000" stroke="#000000" points="1167.4209,-163.5001 1177.4209,-160 1167.4209,-156.5001 1167.4209,-163.5001"/>
</g>
<!-- EventEmitterOrders -->
<g id="node15" class="node">
<title>EventEmitterOrders</title>
<ellipse fill="#fdb462" stroke="#000000" cx="492" cy="-104" rx="88.5986" ry="18"/>
<text text-anchor="middle" x="492" y="-99.8" font-family="Times,serif" font-size="14.00" fill="#000000">EventEmitterOrders</text>
</g>
<!-- EventEmitterOrders&#45;&gt;BulkLoadProductModule -->
<g id="edge16" class="edge">
<title>EventEmitterOrders&#45;&gt;BulkLoadProductModule</title>
<path fill="none" stroke="#000000" d="M492,-122.302C492,-140.2699 492,-165 492,-165 492,-165 1167.2965,-165 1167.2965,-165"/>
<polygon fill="#000000" stroke="#000000" points="1167.2965,-168.5001 1177.2965,-165 1167.2965,-161.5001 1167.2965,-168.5001"/>
</g>
<!-- HttpErrorHandlingService -->
<g id="node16" class="node">
<title>HttpErrorHandlingService</title>
<ellipse fill="#fdb462" stroke="#000000" cx="272" cy="-104" rx="113.4412" ry="18"/>
<text text-anchor="middle" x="272" y="-99.8" font-family="Times,serif" font-size="14.00" fill="#000000">HttpErrorHandlingService</text>
</g>
<!-- HttpErrorHandlingService&#45;&gt;BulkLoadProductModule -->
<g id="edge17" class="edge">
<title>HttpErrorHandlingService&#45;&gt;BulkLoadProductModule</title>
<path fill="none" stroke="#000000" d="M272,-122.1061C272,-141.3391 272,-169 272,-169 272,-169 1167.2277,-169 1167.2277,-169"/>
<polygon fill="#000000" stroke="#000000" points="1167.2277,-172.5001 1177.2277,-169 1167.2276,-165.5001 1167.2277,-172.5001"/>
</g>
<!-- UserService -->
<g id="node17" class="node">
<title>UserService</title>
<ellipse fill="#fdb462" stroke="#000000" cx="82" cy="-104" rx="58.4415" ry="18"/>
<text text-anchor="middle" x="82" y="-99.8" font-family="Times,serif" font-size="14.00" fill="#000000">UserService</text>
</g>
<!-- UserService&#45;&gt;BulkLoadProductModule -->
<g id="edge18" class="edge">
<title>UserService&#45;&gt;BulkLoadProductModule</title>
<path fill="none" stroke="#000000" d="M82,-122.0267C82,-142.7672 82,-174 82,-174 82,-174 1167.1612,-174 1167.1612,-174"/>
<polygon fill="#000000" stroke="#000000" points="1167.1613,-177.5001 1177.1612,-174 1167.1612,-170.5001 1167.1613,-177.5001"/>
</g>
</g>
</svg>
