<?xml version="1.0" encoding="UTF-8" standalone="no"?>
<!DOCTYPE svg PUBLIC "-//W3C//DTD SVG 1.1//EN"
 "http://www.w3.org/Graphics/SVG/1.1/DTD/svg11.dtd">
<!-- Generated by graphviz version 2.40.1 (20161225.0304)
 -->
<!-- Title: dependencies Pages: 1 -->
<svg width="1269pt" height="211pt"
 viewBox="0.00 0.00 1269.00 211.00" xmlns="http://www.w3.org/2000/svg" xmlns:xlink="http://www.w3.org/1999/xlink">
<g id="graph0" class="graph" transform="scale(1 1) rotate(0) translate(4 207)">
<title>dependencies</title>
<polygon fill="#ffffff" stroke="transparent" points="-4,4 -4,-207 1265,-207 1265,4 -4,4"/>
<text text-anchor="start" x="609.5091" y="-42.4" font-family="sans-serif" font-weight="bold" font-size="14.00" fill="#000000">Legend</text>
<polygon fill="#ffffb3" stroke="transparent" points="396.5,-10 396.5,-30 416.5,-30 416.5,-10 396.5,-10"/>
<text text-anchor="start" x="420.129" y="-15.4" font-family="sans-serif" font-size="14.00" fill="#000000"> &#160;Declarations</text>
<polygon fill="#8dd3c7" stroke="transparent" points="509.5,-10 509.5,-30 529.5,-30 529.5,-10 509.5,-10"/>
<text text-anchor="start" x="533.2251" y="-15.4" font-family="sans-serif" font-size="14.00" fill="#000000"> &#160;Module</text>
<polygon fill="#80b1d3" stroke="transparent" points="595.5,-10 595.5,-30 615.5,-30 615.5,-10 595.5,-10"/>
<text text-anchor="start" x="619.2812" y="-15.4" font-family="sans-serif" font-size="14.00" fill="#000000"> &#160;Bootstrap</text>
<polygon fill="#fdb462" stroke="transparent" points="692.5,-10 692.5,-30 712.5,-30 712.5,-10 692.5,-10"/>
<text text-anchor="start" x="716.1732" y="-15.4" font-family="sans-serif" font-size="14.00" fill="#000000"> &#160;Providers</text>
<polygon fill="#fb8072" stroke="transparent" points="788.5,-10 788.5,-30 808.5,-30 808.5,-10 788.5,-10"/>
<text text-anchor="start" x="812.2258" y="-15.4" font-family="sans-serif" font-size="14.00" fill="#000000"> &#160;Exports</text>
<g id="clust1" class="cluster">
<title>cluster_ErrroModule</title>
<polygon fill="none" stroke="#000000" stroke-dasharray="1,5" points="8,-70 8,-195 1253,-195 1253,-70 8,-70"/>
</g>
<g id="clust2" class="cluster">
<title>cluster_ErrroModule_declarations</title>
<polygon fill="none" stroke="#000000" points="1091,-78 1091,-130 1245,-130 1245,-78 1091,-78"/>
</g>
<g id="clust4" class="cluster">
<title>cluster_ErrroModule_imports</title>
<polygon fill="none" stroke="#000000" points="961,-78 961,-130 1083,-130 1083,-78 961,-78"/>
</g>
<g id="clust7" class="cluster">
<title>cluster_ErrroModule_providers</title>
<polygon fill="none" stroke="#000000" points="16,-78 16,-130 953,-130 953,-78 16,-78"/>
</g>
<!-- ErrorPageComponent -->
<g id="node1" class="node">
<title>ErrorPageComponent</title>
<polygon fill="#ffffb3" stroke="#000000" points="1237.0786,-122 1098.9214,-122 1098.9214,-86 1237.0786,-86 1237.0786,-122"/>
<text text-anchor="middle" x="1168" y="-99.8" font-family="Times,serif" font-size="14.00" fill="#000000">ErrorPageComponent</text>
</g>
<!-- ErrroModule -->
<g id="node2" class="node">
<title>ErrroModule</title>
<polygon fill="#8dd3c7" stroke="#000000" points="718.5842,-187 715.5842,-191 694.5842,-191 691.5842,-187 629.4158,-187 629.4158,-151 718.5842,-151 718.5842,-187"/>
<text text-anchor="middle" x="674" y="-164.8" font-family="Times,serif" font-size="14.00" fill="#000000">ErrroModule</text>
</g>
<!-- ErrorPageComponent&#45;&gt;ErrroModule -->
<g id="edge1" class="edge">
<title>ErrorPageComponent&#45;&gt;ErrroModule</title>
<path fill="none" stroke="#000000" d="M1168,-122.2921C1168,-144.2057 1168,-178 1168,-178 1168,-178 728.7105,-178 728.7105,-178"/>
<polygon fill="#000000" stroke="#000000" points="728.7105,-174.5001 718.7105,-178 728.7104,-181.5001 728.7105,-174.5001"/>
</g>
<!-- MaterialModule -->
<g id="node3" class="node">
<title>MaterialModule</title>
<polygon fill="#8dd3c7" stroke="#000000" points="1075.4706,-122 1072.4706,-126 1051.4706,-126 1048.4706,-122 968.5294,-122 968.5294,-86 1075.4706,-86 1075.4706,-122"/>
<text text-anchor="middle" x="1022" y="-99.8" font-family="Times,serif" font-size="14.00" fill="#000000">MaterialModule</text>
</g>
<!-- MaterialModule&#45;&gt;ErrroModule -->
<g id="edge2" class="edge">
<title>MaterialModule&#45;&gt;ErrroModule</title>
<path fill="none" stroke="#000000" d="M1022,-122.1061C1022,-141.3391 1022,-169 1022,-169 1022,-169 728.7825,-169 728.7825,-169"/>
<polygon fill="#000000" stroke="#000000" points="728.7825,-165.5001 718.7825,-169 728.7825,-172.5001 728.7825,-165.5001"/>
</g>
<!-- ComponentsService -->
<g id="node4" class="node">
<title>ComponentsService</title>
<ellipse fill="#fdb462" stroke="#000000" cx="856" cy="-104" rx="88.6255" ry="18"/>
<text text-anchor="middle" x="856" y="-99.8" font-family="Times,serif" font-size="14.00" fill="#000000">ComponentsService</text>
</g>
<!-- ComponentsService&#45;&gt;ErrroModule -->
<g id="edge3" class="edge">
<title>ComponentsService&#45;&gt;ErrroModule</title>
<path fill="none" stroke="#000000" d="M856,-122.027C856,-138.3976 856,-160 856,-160 856,-160 728.9888,-160 728.9888,-160"/>
<polygon fill="#000000" stroke="#000000" points="728.9888,-156.5001 718.9888,-160 728.9887,-163.5001 728.9888,-156.5001"/>
</g>
<!-- EndpointService -->
<g id="node5" class="node">
<title>EndpointService</title>
<ellipse fill="#fdb462" stroke="#000000" cx="674" cy="-104" rx="75.3021" ry="18"/>
<text text-anchor="middle" x="674" y="-99.8" font-family="Times,serif" font-size="14.00" fill="#000000">EndpointService</text>
</g>
<!-- EndpointService&#45;&gt;ErrroModule -->
<g id="edge4" class="edge">
<title>EndpointService&#45;&gt;ErrroModule</title>
<path fill="none" stroke="#000000" d="M674,-122.1061C674,-122.1061 674,-140.991 674,-140.991"/>
<polygon fill="#000000" stroke="#000000" points="670.5001,-140.9909 674,-150.991 677.5001,-140.991 670.5001,-140.9909"/>
</g>
<!-- EventEmitterOrders -->
<g id="node6" class="node">
<title>EventEmitterOrders</title>
<ellipse fill="#fdb462" stroke="#000000" cx="492" cy="-104" rx="88.5986" ry="18"/>
<text text-anchor="middle" x="492" y="-99.8" font-family="Times,serif" font-size="14.00" fill="#000000">EventEmitterOrders</text>
</g>
<!-- EventEmitterOrders&#45;&gt;ErrroModule -->
<g id="edge5" class="edge">
<title>EventEmitterOrders&#45;&gt;ErrroModule</title>
<path fill="none" stroke="#000000" d="M492,-122.027C492,-138.3976 492,-160 492,-160 492,-160 619.0112,-160 619.0112,-160"/>
<polygon fill="#000000" stroke="#000000" points="619.0113,-163.5001 629.0112,-160 619.0112,-156.5001 619.0113,-163.5001"/>
</g>
<!-- HttpErrorHandlingService -->
<g id="node7" class="node">
<title>HttpErrorHandlingService</title>
<ellipse fill="#fdb462" stroke="#000000" cx="272" cy="-104" rx="113.4412" ry="18"/>
<text text-anchor="middle" x="272" y="-99.8" font-family="Times,serif" font-size="14.00" fill="#000000">HttpErrorHandlingService</text>
</g>
<!-- HttpErrorHandlingService&#45;&gt;ErrroModule -->
<g id="edge6" class="edge">
<title>HttpErrorHandlingService&#45;&gt;ErrroModule</title>
<path fill="none" stroke="#000000" d="M272,-122.1061C272,-141.3391 272,-169 272,-169 272,-169 619.443,-169 619.443,-169"/>
<polygon fill="#000000" stroke="#000000" points="619.443,-172.5001 629.443,-169 619.443,-165.5001 619.443,-172.5001"/>
</g>
<!-- UserService -->
<g id="node8" class="node">
<title>UserService</title>
<ellipse fill="#fdb462" stroke="#000000" cx="82" cy="-104" rx="58.4415" ry="18"/>
<text text-anchor="middle" x="82" y="-99.8" font-family="Times,serif" font-size="14.00" fill="#000000">UserService</text>
</g>
<!-- UserService&#45;&gt;ErrroModule -->
<g id="edge7" class="edge">
<title>UserService&#45;&gt;ErrroModule</title>
<path fill="none" stroke="#000000" d="M82,-122.2921C82,-144.2057 82,-178 82,-178 82,-178 619.0179,-178 619.0179,-178"/>
<polygon fill="#000000" stroke="#000000" points="619.0179,-181.5001 629.0179,-178 619.0178,-174.5001 619.0179,-181.5001"/>
</g>
</g>
</svg>
