<?xml version="1.0" encoding="UTF-8" standalone="no"?>
<!DOCTYPE svg PUBLIC "-//W3C//DTD SVG 1.1//EN"
 "http://www.w3.org/Graphics/SVG/1.1/DTD/svg11.dtd">
<!-- Generated by graphviz version 2.40.1 (20161225.0304)
 -->
<!-- Title: dependencies Pages: 1 -->
<svg width="1004pt" height="284pt"
 viewBox="0.00 0.00 1004.00 284.00" xmlns="http://www.w3.org/2000/svg" xmlns:xlink="http://www.w3.org/1999/xlink">
<g id="graph0" class="graph" transform="scale(1 1) rotate(0) translate(4 280)">
<title>dependencies</title>
<polygon fill="#ffffff" stroke="transparent" points="-4,4 -4,-280 1000,-280 1000,4 -4,4"/>
<text text-anchor="start" x="477.0091" y="-42.4" font-family="sans-serif" font-weight="bold" font-size="14.00" fill="#000000">Legend</text>
<polygon fill="#ffffb3" stroke="transparent" points="264,-10 264,-30 284,-30 284,-10 264,-10"/>
<text text-anchor="start" x="287.629" y="-15.4" font-family="sans-serif" font-size="14.00" fill="#000000"> &#160;Declarations</text>
<polygon fill="#8dd3c7" stroke="transparent" points="377,-10 377,-30 397,-30 397,-10 377,-10"/>
<text text-anchor="start" x="400.7251" y="-15.4" font-family="sans-serif" font-size="14.00" fill="#000000"> &#160;Module</text>
<polygon fill="#80b1d3" stroke="transparent" points="463,-10 463,-30 483,-30 483,-10 463,-10"/>
<text text-anchor="start" x="486.7812" y="-15.4" font-family="sans-serif" font-size="14.00" fill="#000000"> &#160;Bootstrap</text>
<polygon fill="#fdb462" stroke="transparent" points="560,-10 560,-30 580,-30 580,-10 560,-10"/>
<text text-anchor="start" x="583.6732" y="-15.4" font-family="sans-serif" font-size="14.00" fill="#000000"> &#160;Providers</text>
<polygon fill="#fb8072" stroke="transparent" points="656,-10 656,-30 676,-30 676,-10 656,-10"/>
<text text-anchor="start" x="679.7258" y="-15.4" font-family="sans-serif" font-size="14.00" fill="#000000"> &#160;Exports</text>
<g id="clust1" class="cluster">
<title>cluster_DispatchModule</title>
<polygon fill="none" stroke="#000000" stroke-dasharray="1,5" points="8,-70 8,-268 988,-268 988,-70 8,-70"/>
</g>
<g id="clust2" class="cluster">
<title>cluster_DispatchModule_declarations</title>
<polygon fill="none" stroke="#000000" points="820,-78 820,-130 980,-130 980,-78 820,-78"/>
</g>
<g id="clust4" class="cluster">
<title>cluster_DispatchModule_imports</title>
<polygon fill="none" stroke="#000000" points="202,-78 202,-130 812,-130 812,-78 202,-78"/>
</g>
<g id="clust5" class="cluster">
<title>cluster_DispatchModule_exports</title>
<polygon fill="none" stroke="#000000" points="427,-208 427,-260 591,-260 591,-208 427,-208"/>
</g>
<g id="clust7" class="cluster">
<title>cluster_DispatchModule_providers</title>
<polygon fill="none" stroke="#000000" points="16,-78 16,-130 194,-130 194,-78 16,-78"/>
</g>
<!-- DispatchedComponent -->
<g id="node1" class="node">
<title>DispatchedComponent</title>
<polygon fill="#ffffb3" stroke="#000000" points="972.3089,-122 827.6911,-122 827.6911,-86 972.3089,-86 972.3089,-122"/>
<text text-anchor="middle" x="900" y="-99.8" font-family="Times,serif" font-size="14.00" fill="#000000">DispatchedComponent</text>
</g>
<!-- DispatchModule -->
<g id="node2" class="node">
<title>DispatchModule</title>
<polygon fill="#8dd3c7" stroke="#000000" points="563.8118,-187 560.8118,-191 539.8118,-191 536.8118,-187 454.1882,-187 454.1882,-151 563.8118,-151 563.8118,-187"/>
<text text-anchor="middle" x="509" y="-164.8" font-family="Times,serif" font-size="14.00" fill="#000000">DispatchModule</text>
</g>
<!-- DispatchedComponent&#45;&gt;DispatchModule -->
<g id="edge1" class="edge">
<title>DispatchedComponent&#45;&gt;DispatchModule</title>
<path fill="none" stroke="#000000" d="M900,-122.2843C900,-143.3211 900,-175 900,-175 900,-175 573.7786,-175 573.7786,-175"/>
<polygon fill="#000000" stroke="#000000" points="573.7786,-171.5001 563.7786,-175 573.7785,-178.5001 573.7786,-171.5001"/>
</g>
<!-- DispatchedComponent  -->
<g id="node7" class="node">
<title>DispatchedComponent </title>
<polygon fill="#fb8072" stroke="#000000" points="582.8087,-252 435.1913,-252 435.1913,-216 582.8087,-216 582.8087,-252"/>
<text text-anchor="middle" x="509" y="-229.8" font-family="Times,serif" font-size="14.00" fill="#000000">DispatchedComponent </text>
</g>
<!-- DispatchModule&#45;&gt;DispatchedComponent  -->
<g id="edge6" class="edge">
<title>DispatchModule&#45;&gt;DispatchedComponent </title>
<path fill="none" stroke="#000000" stroke-dasharray="5,2" d="M509,-187.1061C509,-187.1061 509,-205.991 509,-205.991"/>
<polygon fill="#000000" stroke="#000000" points="505.5001,-205.9909 509,-215.991 512.5001,-205.991 505.5001,-205.9909"/>
</g>
<!-- DispatchRoutingModule -->
<g id="node3" class="node">
<title>DispatchRoutingModule</title>
<polygon fill="#8dd3c7" stroke="#000000" points="804.4298,-122 801.4298,-126 780.4298,-126 777.4298,-122 649.5702,-122 649.5702,-86 804.4298,-86 804.4298,-122"/>
<text text-anchor="middle" x="727" y="-99.8" font-family="Times,serif" font-size="14.00" fill="#000000">DispatchRoutingModule</text>
</g>
<!-- DispatchRoutingModule&#45;&gt;DispatchModule -->
<g id="edge2" class="edge">
<title>DispatchRoutingModule&#45;&gt;DispatchModule</title>
<path fill="none" stroke="#000000" d="M727,-122.0225C727,-139.3734 727,-163 727,-163 727,-163 573.7292,-163 573.7292,-163"/>
<polygon fill="#000000" stroke="#000000" points="573.7293,-159.5001 563.7292,-163 573.7292,-166.5001 573.7293,-159.5001"/>
</g>
<!-- MaterialModule -->
<g id="node4" class="node">
<title>MaterialModule</title>
<polygon fill="#8dd3c7" stroke="#000000" points="631.4706,-122 628.4706,-126 607.4706,-126 604.4706,-122 524.5294,-122 524.5294,-86 631.4706,-86 631.4706,-122"/>
<text text-anchor="middle" x="578" y="-99.8" font-family="Times,serif" font-size="14.00" fill="#000000">MaterialModule</text>
</g>
<!-- MaterialModule&#45;&gt;DispatchModule -->
<g id="edge3" class="edge">
<title>MaterialModule&#45;&gt;DispatchModule</title>
<path fill="none" stroke="#000000" d="M544.0852,-122.1061C544.0852,-122.1061 544.0852,-140.991 544.0852,-140.991"/>
<polygon fill="#000000" stroke="#000000" points="540.5853,-140.9909 544.0852,-150.991 547.5853,-140.991 540.5853,-140.9909"/>
</g>
<!-- ToolbarLinkModule -->
<g id="node5" class="node">
<title>ToolbarLinkModule</title>
<polygon fill="#8dd3c7" stroke="#000000" points="506.3118,-122 503.3118,-126 482.3118,-126 479.3118,-122 375.6882,-122 375.6882,-86 506.3118,-86 506.3118,-122"/>
<text text-anchor="middle" x="441" y="-99.8" font-family="Times,serif" font-size="14.00" fill="#000000">ToolbarLinkModule</text>
</g>
<!-- ToolbarLinkModule&#45;&gt;DispatchModule -->
<g id="edge4" class="edge">
<title>ToolbarLinkModule&#45;&gt;DispatchModule</title>
<path fill="none" stroke="#000000" d="M480.25,-122.1061C480.25,-122.1061 480.25,-140.991 480.25,-140.991"/>
<polygon fill="#000000" stroke="#000000" points="476.7501,-140.9909 480.25,-150.991 483.7501,-140.991 476.7501,-140.9909"/>
</g>
<!-- ToolbarOptionsModule -->
<g id="node6" class="node">
<title>ToolbarOptionsModule</title>
<polygon fill="#8dd3c7" stroke="#000000" points="358.2007,-122 355.2007,-126 334.2007,-126 331.2007,-122 209.7993,-122 209.7993,-86 358.2007,-86 358.2007,-122"/>
<text text-anchor="middle" x="284" y="-99.8" font-family="Times,serif" font-size="14.00" fill="#000000">ToolbarOptionsModule</text>
</g>
<!-- ToolbarOptionsModule&#45;&gt;DispatchModule -->
<g id="edge5" class="edge">
<title>ToolbarOptionsModule&#45;&gt;DispatchModule</title>
<path fill="none" stroke="#000000" d="M284,-122.0225C284,-139.3734 284,-163 284,-163 284,-163 444.2465,-163 444.2465,-163"/>
<polygon fill="#000000" stroke="#000000" points="444.2466,-166.5001 454.2465,-163 444.2465,-159.5001 444.2466,-166.5001"/>
</g>
<!-- ShipmentsService -->
<g id="node8" class="node">
<title>ShipmentsService</title>
<ellipse fill="#fdb462" stroke="#000000" cx="105" cy="-104" rx="80.5354" ry="18"/>
<text text-anchor="middle" x="105" y="-99.8" font-family="Times,serif" font-size="14.00" fill="#000000">ShipmentsService</text>
</g>
<!-- ShipmentsService&#45;&gt;DispatchModule -->
<g id="edge7" class="edge">
<title>ShipmentsService&#45;&gt;DispatchModule</title>
<path fill="none" stroke="#000000" d="M105,-122.2843C105,-143.3211 105,-175 105,-175 105,-175 444.0943,-175 444.0943,-175"/>
<polygon fill="#000000" stroke="#000000" points="444.0943,-178.5001 454.0943,-175 444.0943,-171.5001 444.0943,-178.5001"/>
</g>
</g>
</svg>
