<?xml version="1.0" encoding="UTF-8" standalone="no"?>
<!DOCTYPE svg PUBLIC "-//W3C//DTD SVG 1.1//EN"
 "http://www.w3.org/Graphics/SVG/1.1/DTD/svg11.dtd">
<!-- Generated by graphviz version 2.40.1 (20161225.0304)
 -->
<!-- Title: dependencies Pages: 1 -->
<svg width="680pt" height="284pt"
 viewBox="0.00 0.00 680.00 284.00" xmlns="http://www.w3.org/2000/svg" xmlns:xlink="http://www.w3.org/1999/xlink">
<g id="graph0" class="graph" transform="scale(1 1) rotate(0) translate(4 280)">
<title>dependencies</title>
<polygon fill="#ffffff" stroke="transparent" points="-4,4 -4,-280 676,-280 676,4 -4,4"/>
<text text-anchor="start" x="315.0091" y="-42.4" font-family="sans-serif" font-weight="bold" font-size="14.00" fill="#000000">Legend</text>
<polygon fill="#ffffb3" stroke="transparent" points="102,-10 102,-30 122,-30 122,-10 102,-10"/>
<text text-anchor="start" x="125.629" y="-15.4" font-family="sans-serif" font-size="14.00" fill="#000000"> &#160;Declarations</text>
<polygon fill="#8dd3c7" stroke="transparent" points="215,-10 215,-30 235,-30 235,-10 215,-10"/>
<text text-anchor="start" x="238.7251" y="-15.4" font-family="sans-serif" font-size="14.00" fill="#000000"> &#160;Module</text>
<polygon fill="#80b1d3" stroke="transparent" points="301,-10 301,-30 321,-30 321,-10 301,-10"/>
<text text-anchor="start" x="324.7812" y="-15.4" font-family="sans-serif" font-size="14.00" fill="#000000"> &#160;Bootstrap</text>
<polygon fill="#fdb462" stroke="transparent" points="398,-10 398,-30 418,-30 418,-10 398,-10"/>
<text text-anchor="start" x="421.6732" y="-15.4" font-family="sans-serif" font-size="14.00" fill="#000000"> &#160;Providers</text>
<polygon fill="#fb8072" stroke="transparent" points="494,-10 494,-30 514,-30 514,-10 494,-10"/>
<text text-anchor="start" x="517.7258" y="-15.4" font-family="sans-serif" font-size="14.00" fill="#000000"> &#160;Exports</text>
<g id="clust1" class="cluster">
<title>cluster_DispatchModule</title>
<polygon fill="none" stroke="#000000" stroke-dasharray="1,5" points="8,-70 8,-268 664,-268 664,-70 8,-70"/>
</g>
<g id="clust2" class="cluster">
<title>cluster_DispatchModule_declarations</title>
<polygon fill="none" stroke="#000000" points="496,-78 496,-130 656,-130 656,-78 496,-78"/>
</g>
<g id="clust4" class="cluster">
<title>cluster_DispatchModule_imports</title>
<polygon fill="none" stroke="#000000" points="202,-78 202,-130 488,-130 488,-78 202,-78"/>
</g>
<g id="clust5" class="cluster">
<title>cluster_DispatchModule_exports</title>
<polygon fill="none" stroke="#000000" points="249,-208 249,-260 413,-260 413,-208 249,-208"/>
</g>
<g id="clust7" class="cluster">
<title>cluster_DispatchModule_providers</title>
<polygon fill="none" stroke="#000000" points="16,-78 16,-130 194,-130 194,-78 16,-78"/>
</g>
<!-- DispatchedComponent -->
<g id="node1" class="node">
<title>DispatchedComponent</title>
<polygon fill="#ffffb3" stroke="#000000" points="648.3089,-122 503.6911,-122 503.6911,-86 648.3089,-86 648.3089,-122"/>
<text text-anchor="middle" x="576" y="-99.8" font-family="Times,serif" font-size="14.00" fill="#000000">DispatchedComponent</text>
</g>
<!-- DispatchModule -->
<g id="node2" class="node">
<title>DispatchModule</title>
<polygon fill="#8dd3c7" stroke="#000000" points="385.8118,-187 382.8118,-191 361.8118,-191 358.8118,-187 276.1882,-187 276.1882,-151 385.8118,-151 385.8118,-187"/>
<text text-anchor="middle" x="331" y="-164.8" font-family="Times,serif" font-size="14.00" fill="#000000">DispatchModule</text>
</g>
<!-- DispatchedComponent&#45;&gt;DispatchModule -->
<g id="edge1" class="edge">
<title>DispatchedComponent&#45;&gt;DispatchModule</title>
<path fill="none" stroke="#000000" d="M576,-122.1061C576,-141.3391 576,-169 576,-169 576,-169 395.6778,-169 395.6778,-169"/>
<polygon fill="#000000" stroke="#000000" points="395.6779,-165.5001 385.6778,-169 395.6778,-172.5001 395.6779,-165.5001"/>
</g>
<!-- DispatchedComponent  -->
<g id="node5" class="node">
<title>DispatchedComponent </title>
<polygon fill="#fb8072" stroke="#000000" points="404.8087,-252 257.1913,-252 257.1913,-216 404.8087,-216 404.8087,-252"/>
<text text-anchor="middle" x="331" y="-229.8" font-family="Times,serif" font-size="14.00" fill="#000000">DispatchedComponent </text>
</g>
<!-- DispatchModule&#45;&gt;DispatchedComponent  -->
<g id="edge4" class="edge">
<title>DispatchModule&#45;&gt;DispatchedComponent </title>
<path fill="none" stroke="#000000" stroke-dasharray="5,2" d="M331,-187.1061C331,-187.1061 331,-205.991 331,-205.991"/>
<polygon fill="#000000" stroke="#000000" points="327.5001,-205.9909 331,-215.991 334.5001,-205.991 327.5001,-205.9909"/>
</g>
<!-- DispatchRoutingModule -->
<g id="node3" class="node">
<title>DispatchRoutingModule</title>
<polygon fill="#8dd3c7" stroke="#000000" points="480.4298,-122 477.4298,-126 456.4298,-126 453.4298,-122 325.5702,-122 325.5702,-86 480.4298,-86 480.4298,-122"/>
<text text-anchor="middle" x="403" y="-99.8" font-family="Times,serif" font-size="14.00" fill="#000000">DispatchRoutingModule</text>
</g>
<!-- DispatchRoutingModule&#45;&gt;DispatchModule -->
<g id="edge2" class="edge">
<title>DispatchRoutingModule&#45;&gt;DispatchModule</title>
<path fill="none" stroke="#000000" d="M355.7206,-122.1061C355.7206,-122.1061 355.7206,-140.991 355.7206,-140.991"/>
<polygon fill="#000000" stroke="#000000" points="352.2206,-140.9909 355.7206,-150.991 359.2206,-140.991 352.2206,-140.9909"/>
</g>
<!-- SharedModule -->
<g id="node4" class="node">
<title>SharedModule</title>
<polygon fill="#8dd3c7" stroke="#000000" points="308.4231,-122 305.4231,-126 284.4231,-126 281.4231,-122 209.5769,-122 209.5769,-86 308.4231,-86 308.4231,-122"/>
<text text-anchor="middle" x="259" y="-99.8" font-family="Times,serif" font-size="14.00" fill="#000000">SharedModule</text>
</g>
<!-- SharedModule&#45;&gt;DispatchModule -->
<g id="edge3" class="edge">
<title>SharedModule&#45;&gt;DispatchModule</title>
<path fill="none" stroke="#000000" d="M292.2777,-122.1061C292.2777,-122.1061 292.2777,-140.991 292.2777,-140.991"/>
<polygon fill="#000000" stroke="#000000" points="288.7778,-140.9909 292.2777,-150.991 295.7778,-140.991 288.7778,-140.9909"/>
</g>
<!-- ShipmentsService -->
<g id="node6" class="node">
<title>ShipmentsService</title>
<ellipse fill="#fdb462" stroke="#000000" cx="105" cy="-104" rx="80.5354" ry="18"/>
<text text-anchor="middle" x="105" y="-99.8" font-family="Times,serif" font-size="14.00" fill="#000000">ShipmentsService</text>
</g>
<!-- ShipmentsService&#45;&gt;DispatchModule -->
<g id="edge5" class="edge">
<title>ShipmentsService&#45;&gt;DispatchModule</title>
<path fill="none" stroke="#000000" d="M105,-122.1061C105,-141.3391 105,-169 105,-169 105,-169 266.2917,-169 266.2917,-169"/>
<polygon fill="#000000" stroke="#000000" points="266.2917,-172.5001 276.2917,-169 266.2917,-165.5001 266.2917,-172.5001"/>
</g>
</g>
</svg>
