<?xml version="1.0" encoding="UTF-8" standalone="no"?>
<!DOCTYPE svg PUBLIC "-//W3C//DTD SVG 1.1//EN"
 "http://www.w3.org/Graphics/SVG/1.1/DTD/svg11.dtd">
<!-- Generated by graphviz version 2.40.1 (20161225.0304)
 -->
<!-- Title: dependencies Pages: 1 -->
<svg width="811pt" height="284pt"
 viewBox="0.00 0.00 811.00 284.00" xmlns="http://www.w3.org/2000/svg" xmlns:xlink="http://www.w3.org/1999/xlink">
<g id="graph0" class="graph" transform="scale(1 1) rotate(0) translate(4 280)">
<title>dependencies</title>
<polygon fill="#ffffff" stroke="transparent" points="-4,4 -4,-280 807,-280 807,4 -4,4"/>
<text text-anchor="start" x="380.5091" y="-42.4" font-family="sans-serif" font-weight="bold" font-size="14.00" fill="#000000">Legend</text>
<polygon fill="#ffffb3" stroke="transparent" points="167.5,-10 167.5,-30 187.5,-30 187.5,-10 167.5,-10"/>
<text text-anchor="start" x="191.129" y="-15.4" font-family="sans-serif" font-size="14.00" fill="#000000"> &#160;Declarations</text>
<polygon fill="#8dd3c7" stroke="transparent" points="280.5,-10 280.5,-30 300.5,-30 300.5,-10 280.5,-10"/>
<text text-anchor="start" x="304.2251" y="-15.4" font-family="sans-serif" font-size="14.00" fill="#000000"> &#160;Module</text>
<polygon fill="#80b1d3" stroke="transparent" points="366.5,-10 366.5,-30 386.5,-30 386.5,-10 366.5,-10"/>
<text text-anchor="start" x="390.2812" y="-15.4" font-family="sans-serif" font-size="14.00" fill="#000000"> &#160;Bootstrap</text>
<polygon fill="#fdb462" stroke="transparent" points="463.5,-10 463.5,-30 483.5,-30 483.5,-10 463.5,-10"/>
<text text-anchor="start" x="487.1732" y="-15.4" font-family="sans-serif" font-size="14.00" fill="#000000"> &#160;Providers</text>
<polygon fill="#fb8072" stroke="transparent" points="559.5,-10 559.5,-30 579.5,-30 579.5,-10 559.5,-10"/>
<text text-anchor="start" x="583.2258" y="-15.4" font-family="sans-serif" font-size="14.00" fill="#000000"> &#160;Exports</text>
<g id="clust1" class="cluster">
<title>cluster_ListZonesModule</title>
<polygon fill="none" stroke="#000000" stroke-dasharray="1,5" points="8,-70 8,-268 795,-268 795,-70 8,-70"/>
</g>
<g id="clust2" class="cluster">
<title>cluster_ListZonesModule_declarations</title>
<polygon fill="none" stroke="#000000" points="633,-78 633,-130 787,-130 787,-78 633,-78"/>
</g>
<g id="clust4" class="cluster">
<title>cluster_ListZonesModule_imports</title>
<polygon fill="none" stroke="#000000" points="198,-78 198,-130 625,-130 625,-78 198,-78"/>
</g>
<g id="clust5" class="cluster">
<title>cluster_ListZonesModule_exports</title>
<polygon fill="none" stroke="#000000" points="320,-208 320,-260 476,-260 476,-208 320,-208"/>
</g>
<g id="clust7" class="cluster">
<title>cluster_ListZonesModule_providers</title>
<polygon fill="none" stroke="#000000" points="16,-78 16,-130 190,-130 190,-78 16,-78"/>
</g>
<!-- ListZonesComponent -->
<g id="node1" class="node">
<title>ListZonesComponent</title>
<polygon fill="#ffffb3" stroke="#000000" points="778.823,-122 641.177,-122 641.177,-86 778.823,-86 778.823,-122"/>
<text text-anchor="middle" x="710" y="-99.8" font-family="Times,serif" font-size="14.00" fill="#000000">ListZonesComponent</text>
</g>
<!-- ListZonesModule -->
<g id="node2" class="node">
<title>ListZonesModule</title>
<polygon fill="#8dd3c7" stroke="#000000" points="455.5409,-187 452.5409,-191 431.5409,-191 428.5409,-187 340.4591,-187 340.4591,-151 455.5409,-151 455.5409,-187"/>
<text text-anchor="middle" x="398" y="-164.8" font-family="Times,serif" font-size="14.00" fill="#000000">ListZonesModule</text>
</g>
<!-- ListZonesComponent&#45;&gt;ListZonesModule -->
<g id="edge1" class="edge">
<title>ListZonesComponent&#45;&gt;ListZonesModule</title>
<path fill="none" stroke="#000000" d="M710,-122.2843C710,-143.3211 710,-175 710,-175 710,-175 465.5892,-175 465.5892,-175"/>
<polygon fill="#000000" stroke="#000000" points="465.5892,-171.5001 455.5892,-175 465.5892,-178.5001 465.5892,-171.5001"/>
</g>
<!-- ListZonesComponent  -->
<g id="node6" class="node">
<title>ListZonesComponent </title>
<polygon fill="#fb8072" stroke="#000000" points="468.3227,-252 327.6773,-252 327.6773,-216 468.3227,-216 468.3227,-252"/>
<text text-anchor="middle" x="398" y="-229.8" font-family="Times,serif" font-size="14.00" fill="#000000">ListZonesComponent </text>
</g>
<!-- ListZonesModule&#45;&gt;ListZonesComponent  -->
<g id="edge5" class="edge">
<title>ListZonesModule&#45;&gt;ListZonesComponent </title>
<path fill="none" stroke="#000000" stroke-dasharray="5,2" d="M398,-187.1061C398,-187.1061 398,-205.991 398,-205.991"/>
<polygon fill="#000000" stroke="#000000" points="394.5001,-205.9909 398,-215.991 401.5001,-205.991 394.5001,-205.9909"/>
</g>
<!-- CreateDialogModule -->
<g id="node3" class="node">
<title>CreateDialogModule</title>
<polygon fill="#8dd3c7" stroke="#000000" points="617.1839,-122 614.1839,-126 593.1839,-126 590.1839,-122 482.8161,-122 482.8161,-86 617.1839,-86 617.1839,-122"/>
<text text-anchor="middle" x="550" y="-99.8" font-family="Times,serif" font-size="14.00" fill="#000000">CreateDialogModule</text>
</g>
<!-- CreateDialogModule&#45;&gt;ListZonesModule -->
<g id="edge2" class="edge">
<title>CreateDialogModule&#45;&gt;ListZonesModule</title>
<path fill="none" stroke="#000000" d="M550,-122.0225C550,-139.3734 550,-163 550,-163 550,-163 465.8983,-163 465.8983,-163"/>
<polygon fill="#000000" stroke="#000000" points="465.8983,-159.5001 455.8983,-163 465.8983,-166.5001 465.8983,-159.5001"/>
</g>
<!-- DeleteDialogModule -->
<g id="node4" class="node">
<title>DeleteDialogModule</title>
<polygon fill="#8dd3c7" stroke="#000000" points="465.1839,-122 462.1839,-126 441.1839,-126 438.1839,-122 330.8161,-122 330.8161,-86 465.1839,-86 465.1839,-122"/>
<text text-anchor="middle" x="398" y="-99.8" font-family="Times,serif" font-size="14.00" fill="#000000">DeleteDialogModule</text>
</g>
<!-- DeleteDialogModule&#45;&gt;ListZonesModule -->
<g id="edge3" class="edge">
<title>DeleteDialogModule&#45;&gt;ListZonesModule</title>
<path fill="none" stroke="#000000" d="M398,-122.1061C398,-122.1061 398,-140.991 398,-140.991"/>
<polygon fill="#000000" stroke="#000000" points="394.5001,-140.9909 398,-150.991 401.5001,-140.991 394.5001,-140.9909"/>
</g>
<!-- MaterialModule -->
<g id="node5" class="node">
<title>MaterialModule</title>
<polygon fill="#8dd3c7" stroke="#000000" points="312.4706,-122 309.4706,-126 288.4706,-126 285.4706,-122 205.5294,-122 205.5294,-86 312.4706,-86 312.4706,-122"/>
<text text-anchor="middle" x="259" y="-99.8" font-family="Times,serif" font-size="14.00" fill="#000000">MaterialModule</text>
</g>
<!-- MaterialModule&#45;&gt;ListZonesModule -->
<g id="edge4" class="edge">
<title>MaterialModule&#45;&gt;ListZonesModule</title>
<path fill="none" stroke="#000000" d="M259,-122.0225C259,-139.3734 259,-163 259,-163 259,-163 330.2591,-163 330.2591,-163"/>
<polygon fill="#000000" stroke="#000000" points="330.2591,-166.5001 340.2591,-163 330.259,-159.5001 330.2591,-166.5001"/>
</g>
<!-- ListZonesService -->
<g id="node7" class="node">
<title>ListZonesService</title>
<ellipse fill="#fdb462" stroke="#000000" cx="103" cy="-104" rx="78.726" ry="18"/>
<text text-anchor="middle" x="103" y="-99.8" font-family="Times,serif" font-size="14.00" fill="#000000">ListZonesService</text>
</g>
<!-- ListZonesService&#45;&gt;ListZonesModule -->
<g id="edge6" class="edge">
<title>ListZonesService&#45;&gt;ListZonesModule</title>
<path fill="none" stroke="#000000" d="M103,-122.2843C103,-143.3211 103,-175 103,-175 103,-175 330.4207,-175 330.4207,-175"/>
<polygon fill="#000000" stroke="#000000" points="330.4208,-178.5001 340.4207,-175 330.4207,-171.5001 330.4208,-178.5001"/>
</g>
</g>
</svg>
