<?xml version="1.0" encoding="UTF-8" standalone="no"?>
<!DOCTYPE svg PUBLIC "-//W3C//DTD SVG 1.1//EN"
 "http://www.w3.org/Graphics/SVG/1.1/DTD/svg11.dtd">
<!-- Generated by graphviz version 2.40.1 (20161225.0304)
 -->
<!-- Title: dependencies Pages: 1 -->
<svg width="506pt" height="284pt"
 viewBox="0.00 0.00 506.00 284.00" xmlns="http://www.w3.org/2000/svg" xmlns:xlink="http://www.w3.org/1999/xlink">
<g id="graph0" class="graph" transform="scale(1 1) rotate(0) translate(4 280)">
<title>dependencies</title>
<polygon fill="#ffffff" stroke="transparent" points="-4,4 -4,-280 502,-280 502,4 -4,4"/>
<text text-anchor="start" x="228.0091" y="-42.4" font-family="sans-serif" font-weight="bold" font-size="14.00" fill="#000000">Legend</text>
<polygon fill="#ffffb3" stroke="transparent" points="15,-10 15,-30 35,-30 35,-10 15,-10"/>
<text text-anchor="start" x="38.629" y="-15.4" font-family="sans-serif" font-size="14.00" fill="#000000"> &#160;Declarations</text>
<polygon fill="#8dd3c7" stroke="transparent" points="128,-10 128,-30 148,-30 148,-10 128,-10"/>
<text text-anchor="start" x="151.7251" y="-15.4" font-family="sans-serif" font-size="14.00" fill="#000000"> &#160;Module</text>
<polygon fill="#80b1d3" stroke="transparent" points="214,-10 214,-30 234,-30 234,-10 214,-10"/>
<text text-anchor="start" x="237.7812" y="-15.4" font-family="sans-serif" font-size="14.00" fill="#000000"> &#160;Bootstrap</text>
<polygon fill="#fdb462" stroke="transparent" points="311,-10 311,-30 331,-30 331,-10 311,-10"/>
<text text-anchor="start" x="334.6732" y="-15.4" font-family="sans-serif" font-size="14.00" fill="#000000"> &#160;Providers</text>
<polygon fill="#fb8072" stroke="transparent" points="407,-10 407,-30 427,-30 427,-10 407,-10"/>
<text text-anchor="start" x="430.7258" y="-15.4" font-family="sans-serif" font-size="14.00" fill="#000000"> &#160;Exports</text>
<g id="clust1" class="cluster">
<title>cluster_ListZonesModule</title>
<polygon fill="none" stroke="#000000" stroke-dasharray="1,5" points="8,-70 8,-268 490,-268 490,-70 8,-70"/>
</g>
<g id="clust2" class="cluster">
<title>cluster_ListZonesModule_declarations</title>
<polygon fill="none" stroke="#000000" points="328,-78 328,-130 482,-130 482,-78 328,-78"/>
</g>
<g id="clust4" class="cluster">
<title>cluster_ListZonesModule_imports</title>
<polygon fill="none" stroke="#000000" points="198,-78 198,-130 320,-130 320,-78 198,-78"/>
</g>
<g id="clust5" class="cluster">
<title>cluster_ListZonesModule_exports</title>
<polygon fill="none" stroke="#000000" points="181,-208 181,-260 337,-260 337,-208 181,-208"/>
</g>
<g id="clust7" class="cluster">
<title>cluster_ListZonesModule_providers</title>
<polygon fill="none" stroke="#000000" points="16,-78 16,-130 190,-130 190,-78 16,-78"/>
</g>
<!-- ListZonesComponent -->
<g id="node1" class="node">
<title>ListZonesComponent</title>
<polygon fill="#ffffb3" stroke="#000000" points="473.823,-122 336.177,-122 336.177,-86 473.823,-86 473.823,-122"/>
<text text-anchor="middle" x="405" y="-99.8" font-family="Times,serif" font-size="14.00" fill="#000000">ListZonesComponent</text>
</g>
<!-- ListZonesModule -->
<g id="node2" class="node">
<title>ListZonesModule</title>
<polygon fill="#8dd3c7" stroke="#000000" points="316.5409,-187 313.5409,-191 292.5409,-191 289.5409,-187 201.4591,-187 201.4591,-151 316.5409,-151 316.5409,-187"/>
<text text-anchor="middle" x="259" y="-164.8" font-family="Times,serif" font-size="14.00" fill="#000000">ListZonesModule</text>
</g>
<!-- ListZonesComponent&#45;&gt;ListZonesModule -->
<g id="edge1" class="edge">
<title>ListZonesComponent&#45;&gt;ListZonesModule</title>
<path fill="none" stroke="#000000" d="M405,-122.1061C405,-141.3391 405,-169 405,-169 405,-169 326.7031,-169 326.7031,-169"/>
<polygon fill="#000000" stroke="#000000" points="326.7031,-165.5001 316.7031,-169 326.703,-172.5001 326.7031,-165.5001"/>
</g>
<!-- ListZonesComponent  -->
<g id="node4" class="node">
<title>ListZonesComponent </title>
<polygon fill="#fb8072" stroke="#000000" points="329.3227,-252 188.6773,-252 188.6773,-216 329.3227,-216 329.3227,-252"/>
<text text-anchor="middle" x="259" y="-229.8" font-family="Times,serif" font-size="14.00" fill="#000000">ListZonesComponent </text>
</g>
<!-- ListZonesModule&#45;&gt;ListZonesComponent  -->
<g id="edge3" class="edge">
<title>ListZonesModule&#45;&gt;ListZonesComponent </title>
<path fill="none" stroke="#000000" stroke-dasharray="5,2" d="M259,-187.1061C259,-187.1061 259,-205.991 259,-205.991"/>
<polygon fill="#000000" stroke="#000000" points="255.5001,-205.9909 259,-215.991 262.5001,-205.991 255.5001,-205.9909"/>
</g>
<!-- MaterialModule -->
<g id="node3" class="node">
<title>MaterialModule</title>
<polygon fill="#8dd3c7" stroke="#000000" points="312.4706,-122 309.4706,-126 288.4706,-126 285.4706,-122 205.5294,-122 205.5294,-86 312.4706,-86 312.4706,-122"/>
<text text-anchor="middle" x="259" y="-99.8" font-family="Times,serif" font-size="14.00" fill="#000000">MaterialModule</text>
</g>
<!-- MaterialModule&#45;&gt;ListZonesModule -->
<g id="edge2" class="edge">
<title>MaterialModule&#45;&gt;ListZonesModule</title>
<path fill="none" stroke="#000000" d="M259,-122.1061C259,-122.1061 259,-140.991 259,-140.991"/>
<polygon fill="#000000" stroke="#000000" points="255.5001,-140.9909 259,-150.991 262.5001,-140.991 255.5001,-140.9909"/>
</g>
<!-- ListZonesService -->
<g id="node5" class="node">
<title>ListZonesService</title>
<ellipse fill="#fdb462" stroke="#000000" cx="103" cy="-104" rx="78.726" ry="18"/>
<text text-anchor="middle" x="103" y="-99.8" font-family="Times,serif" font-size="14.00" fill="#000000">ListZonesService</text>
</g>
<!-- ListZonesService&#45;&gt;ListZonesModule -->
<g id="edge4" class="edge">
<title>ListZonesService&#45;&gt;ListZonesModule</title>
<path fill="none" stroke="#000000" d="M103,-122.1061C103,-141.3391 103,-169 103,-169 103,-169 191.3546,-169 191.3546,-169"/>
<polygon fill="#000000" stroke="#000000" points="191.3546,-172.5001 201.3546,-169 191.3545,-165.5001 191.3546,-172.5001"/>
</g>
</g>
</svg>
