<?xml version="1.0" encoding="UTF-8" standalone="no"?>
<!DOCTYPE svg PUBLIC "-//W3C//DTD SVG 1.1//EN"
 "http://www.w3.org/Graphics/SVG/1.1/DTD/svg11.dtd">
<!-- Generated by graphviz version 2.40.1 (20161225.0304)
 -->
<!-- Title: dependencies Pages: 1 -->
<svg width="2327pt" height="211pt"
 viewBox="0.00 0.00 2327.00 211.00" xmlns="http://www.w3.org/2000/svg" xmlns:xlink="http://www.w3.org/1999/xlink">
<g id="graph0" class="graph" transform="scale(1 1) rotate(0) translate(4 207)">
<title>dependencies</title>
<polygon fill="#ffffff" stroke="transparent" points="-4,4 -4,-207 2323,-207 2323,4 -4,4"/>
<text text-anchor="start" x="1138.5091" y="-42.4" font-family="sans-serif" font-weight="bold" font-size="14.00" fill="#000000">Legend</text>
<polygon fill="#ffffb3" stroke="transparent" points="925.5,-10 925.5,-30 945.5,-30 945.5,-10 925.5,-10"/>
<text text-anchor="start" x="949.129" y="-15.4" font-family="sans-serif" font-size="14.00" fill="#000000"> &#160;Declarations</text>
<polygon fill="#8dd3c7" stroke="transparent" points="1038.5,-10 1038.5,-30 1058.5,-30 1058.5,-10 1038.5,-10"/>
<text text-anchor="start" x="1062.2251" y="-15.4" font-family="sans-serif" font-size="14.00" fill="#000000"> &#160;Module</text>
<polygon fill="#80b1d3" stroke="transparent" points="1124.5,-10 1124.5,-30 1144.5,-30 1144.5,-10 1124.5,-10"/>
<text text-anchor="start" x="1148.2812" y="-15.4" font-family="sans-serif" font-size="14.00" fill="#000000"> &#160;Bootstrap</text>
<polygon fill="#fdb462" stroke="transparent" points="1221.5,-10 1221.5,-30 1241.5,-30 1241.5,-10 1221.5,-10"/>
<text text-anchor="start" x="1245.1732" y="-15.4" font-family="sans-serif" font-size="14.00" fill="#000000"> &#160;Providers</text>
<polygon fill="#fb8072" stroke="transparent" points="1317.5,-10 1317.5,-30 1337.5,-30 1337.5,-10 1317.5,-10"/>
<text text-anchor="start" x="1341.2258" y="-15.4" font-family="sans-serif" font-size="14.00" fill="#000000"> &#160;Exports</text>
<g id="clust1" class="cluster">
<title>cluster_HomeModule</title>
<polygon fill="none" stroke="#000000" stroke-dasharray="1,5" points="8,-70 8,-195 2311,-195 2311,-70 8,-70"/>
</g>
<g id="clust2" class="cluster">
<title>cluster_HomeModule_declarations</title>
<polygon fill="none" stroke="#000000" points="295,-78 295,-130 2303,-130 2303,-78 295,-78"/>
</g>
<g id="clust15" class="cluster">
<title>cluster_HomeModule_imports</title>
<polygon fill="none" stroke="#000000" points="16,-78 16,-130 287,-130 287,-78 16,-78"/>
</g>
<!-- AboutComponent -->
<g id="node1" class="node">
<title>AboutComponent</title>
<polygon fill="#ffffb3" stroke="#000000" points="2295.3301,-122 2178.6699,-122 2178.6699,-86 2295.3301,-86 2295.3301,-122"/>
<text text-anchor="middle" x="2237" y="-99.8" font-family="Times,serif" font-size="14.00" fill="#000000">AboutComponent</text>
</g>
<!-- HomeModule -->
<g id="node13" class="node">
<title>HomeModule</title>
<polygon fill="#8dd3c7" stroke="#000000" points="1212.7619,-187 1209.7619,-191 1188.7619,-191 1185.7619,-187 1119.2381,-187 1119.2381,-151 1212.7619,-151 1212.7619,-187"/>
<text text-anchor="middle" x="1166" y="-164.8" font-family="Times,serif" font-size="14.00" fill="#000000">HomeModule</text>
</g>
<!-- AboutComponent&#45;&gt;HomeModule -->
<g id="edge1" class="edge">
<title>AboutComponent&#45;&gt;HomeModule</title>
<path fill="none" stroke="#000000" d="M2237,-122.0908C2237,-145.1328 2237,-182 2237,-182 2237,-182 1223.0543,-182 1223.0543,-182"/>
<polygon fill="#000000" stroke="#000000" points="1223.0543,-178.5001 1213.0543,-182 1223.0542,-185.5001 1223.0543,-178.5001"/>
</g>
<!-- ForgotPassword2Component -->
<g id="node2" class="node">
<title>ForgotPassword2Component</title>
<polygon fill="#ffffb3" stroke="#000000" points="2160.8201,-122 1981.1799,-122 1981.1799,-86 2160.8201,-86 2160.8201,-122"/>
<text text-anchor="middle" x="2071" y="-99.8" font-family="Times,serif" font-size="14.00" fill="#000000">ForgotPassword2Component</text>
</g>
<!-- ForgotPassword2Component&#45;&gt;HomeModule -->
<g id="edge2" class="edge">
<title>ForgotPassword2Component&#45;&gt;HomeModule</title>
<path fill="none" stroke="#000000" d="M2071,-122.0449C2071,-143.6623 2071,-177 2071,-177 2071,-177 1223.0663,-177 1223.0663,-177"/>
<polygon fill="#000000" stroke="#000000" points="1223.0663,-173.5001 1213.0663,-177 1223.0663,-180.5001 1223.0663,-173.5001"/>
</g>
<!-- ForgotPasswordStep1Component -->
<g id="node3" class="node">
<title>ForgotPasswordStep1Component</title>
<polygon fill="#ffffb3" stroke="#000000" points="1963.2077,-122 1758.7923,-122 1758.7923,-86 1963.2077,-86 1963.2077,-122"/>
<text text-anchor="middle" x="1861" y="-99.8" font-family="Times,serif" font-size="14.00" fill="#000000">ForgotPasswordStep1Component</text>
</g>
<!-- ForgotPasswordStep1Component&#45;&gt;HomeModule -->
<g id="edge3" class="edge">
<title>ForgotPasswordStep1Component&#45;&gt;HomeModule</title>
<path fill="none" stroke="#000000" d="M1861,-122.2228C1861,-142.3652 1861,-172 1861,-172 1861,-172 1222.9516,-172 1222.9516,-172"/>
<polygon fill="#000000" stroke="#000000" points="1222.9516,-168.5001 1212.9516,-172 1222.9516,-175.5001 1222.9516,-168.5001"/>
</g>
<!-- HomeComponent -->
<g id="node4" class="node">
<title>HomeComponent</title>
<polygon fill="#ffffb3" stroke="#000000" points="1740.5451,-122 1625.4549,-122 1625.4549,-86 1740.5451,-86 1740.5451,-122"/>
<text text-anchor="middle" x="1683" y="-99.8" font-family="Times,serif" font-size="14.00" fill="#000000">HomeComponent</text>
</g>
<!-- HomeComponent&#45;&gt;HomeModule -->
<g id="edge4" class="edge">
<title>HomeComponent&#45;&gt;HomeModule</title>
<path fill="none" stroke="#000000" d="M1683,-122.2222C1683,-140.8285 1683,-167 1683,-167 1683,-167 1222.7921,-167 1222.7921,-167"/>
<polygon fill="#000000" stroke="#000000" points="1222.7922,-163.5001 1212.7921,-167 1222.7921,-170.5001 1222.7922,-163.5001"/>
</g>
<!-- HomeLandingComponent -->
<g id="node5" class="node">
<title>HomeLandingComponent</title>
<polygon fill="#ffffb3" stroke="#000000" points="1607.2021,-122 1444.7979,-122 1444.7979,-86 1607.2021,-86 1607.2021,-122"/>
<text text-anchor="middle" x="1526" y="-99.8" font-family="Times,serif" font-size="14.00" fill="#000000">HomeLandingComponent</text>
</g>
<!-- HomeLandingComponent&#45;&gt;HomeModule -->
<g id="edge5" class="edge">
<title>HomeLandingComponent&#45;&gt;HomeModule</title>
<path fill="none" stroke="#000000" d="M1526,-122.0336C1526,-139.0597 1526,-162 1526,-162 1526,-162 1223.0637,-162 1223.0637,-162"/>
<polygon fill="#000000" stroke="#000000" points="1223.0637,-158.5001 1213.0637,-162 1223.0637,-165.5001 1223.0637,-158.5001"/>
</g>
<!-- LoginComponent -->
<g id="node6" class="node">
<title>LoginComponent</title>
<polygon fill="#ffffb3" stroke="#000000" points="1427.2758,-122 1312.7242,-122 1312.7242,-86 1427.2758,-86 1427.2758,-122"/>
<text text-anchor="middle" x="1370" y="-99.8" font-family="Times,serif" font-size="14.00" fill="#000000">LoginComponent</text>
</g>
<!-- LoginComponent&#45;&gt;HomeModule -->
<g id="edge6" class="edge">
<title>LoginComponent&#45;&gt;HomeModule</title>
<path fill="none" stroke="#000000" d="M1370,-122.2396C1370,-137.5706 1370,-157 1370,-157 1370,-157 1222.8017,-157 1222.8017,-157"/>
<polygon fill="#000000" stroke="#000000" points="1222.8018,-153.5001 1212.8017,-157 1222.8017,-160.5001 1222.8018,-153.5001"/>
</g>
<!-- LogoutComponent -->
<g id="node7" class="node">
<title>LogoutComponent</title>
<polygon fill="#ffffb3" stroke="#000000" points="1294.7758,-122 1173.2242,-122 1173.2242,-86 1294.7758,-86 1294.7758,-122"/>
<text text-anchor="middle" x="1234" y="-99.8" font-family="Times,serif" font-size="14.00" fill="#000000">LogoutComponent</text>
</g>
<!-- LogoutComponent&#45;&gt;HomeModule -->
<g id="edge7" class="edge">
<title>LogoutComponent&#45;&gt;HomeModule</title>
<path fill="none" stroke="#000000" d="M1192.9965,-122.1061C1192.9965,-122.1061 1192.9965,-140.991 1192.9965,-140.991"/>
<polygon fill="#000000" stroke="#000000" points="1189.4966,-140.9909 1192.9965,-150.991 1196.4966,-140.991 1189.4966,-140.9909"/>
</g>
<!-- MFAComponent -->
<g id="node8" class="node">
<title>MFAComponent</title>
<polygon fill="#ffffb3" stroke="#000000" points="1154.6667,-122 1043.3333,-122 1043.3333,-86 1154.6667,-86 1154.6667,-122"/>
<text text-anchor="middle" x="1099" y="-99.8" font-family="Times,serif" font-size="14.00" fill="#000000">MFAComponent</text>
</g>
<!-- MFAComponent&#45;&gt;HomeModule -->
<g id="edge8" class="edge">
<title>MFAComponent&#45;&gt;HomeModule</title>
<path fill="none" stroke="#000000" d="M1136.9762,-122.1061C1136.9762,-122.1061 1136.9762,-140.991 1136.9762,-140.991"/>
<polygon fill="#000000" stroke="#000000" points="1133.4762,-140.9909 1136.9762,-150.991 1140.4762,-140.991 1133.4762,-140.9909"/>
</g>
<!-- NewPasswordComponent -->
<g id="node9" class="node">
<title>NewPasswordComponent</title>
<polygon fill="#ffffb3" stroke="#000000" points="1024.9143,-122 863.0857,-122 863.0857,-86 1024.9143,-86 1024.9143,-122"/>
<text text-anchor="middle" x="944" y="-99.8" font-family="Times,serif" font-size="14.00" fill="#000000">NewPasswordComponent</text>
</g>
<!-- NewPasswordComponent&#45;&gt;HomeModule -->
<g id="edge9" class="edge">
<title>NewPasswordComponent&#45;&gt;HomeModule</title>
<path fill="none" stroke="#000000" d="M944,-122.2396C944,-137.5706 944,-157 944,-157 944,-157 1109.1908,-157 1109.1908,-157"/>
<polygon fill="#000000" stroke="#000000" points="1109.1908,-160.5001 1119.1908,-157 1109.1907,-153.5001 1109.1908,-160.5001"/>
</g>
<!-- RegisterComponent -->
<g id="node10" class="node">
<title>RegisterComponent</title>
<polygon fill="#ffffb3" stroke="#000000" points="844.9846,-122 717.0154,-122 717.0154,-86 844.9846,-86 844.9846,-122"/>
<text text-anchor="middle" x="781" y="-99.8" font-family="Times,serif" font-size="14.00" fill="#000000">RegisterComponent</text>
</g>
<!-- RegisterComponent&#45;&gt;HomeModule -->
<g id="edge10" class="edge">
<title>RegisterComponent&#45;&gt;HomeModule</title>
<path fill="none" stroke="#000000" d="M781,-122.0336C781,-139.0597 781,-162 781,-162 781,-162 1109.1763,-162 1109.1763,-162"/>
<polygon fill="#000000" stroke="#000000" points="1109.1764,-165.5001 1119.1763,-162 1109.1763,-158.5001 1109.1764,-165.5001"/>
</g>
<!-- RegistrationConfirmationComponent -->
<g id="node11" class="node">
<title>RegistrationConfirmationComponent</title>
<polygon fill="#ffffb3" stroke="#000000" points="698.7007,-122 473.2993,-122 473.2993,-86 698.7007,-86 698.7007,-122"/>
<text text-anchor="middle" x="586" y="-99.8" font-family="Times,serif" font-size="14.00" fill="#000000">RegistrationConfirmationComponent</text>
</g>
<!-- RegistrationConfirmationComponent&#45;&gt;HomeModule -->
<g id="edge11" class="edge">
<title>RegistrationConfirmationComponent&#45;&gt;HomeModule</title>
<path fill="none" stroke="#000000" d="M586,-122.2222C586,-140.8285 586,-167 586,-167 586,-167 1109.0275,-167 1109.0275,-167"/>
<polygon fill="#000000" stroke="#000000" points="1109.0275,-170.5001 1119.0275,-167 1109.0274,-163.5001 1109.0275,-170.5001"/>
</g>
<!-- ResendCodeComponent -->
<g id="node12" class="node">
<title>ResendCodeComponent</title>
<polygon fill="#ffffb3" stroke="#000000" points="455.094,-122 302.906,-122 302.906,-86 455.094,-86 455.094,-122"/>
<text text-anchor="middle" x="379" y="-99.8" font-family="Times,serif" font-size="14.00" fill="#000000">ResendCodeComponent</text>
</g>
<!-- ResendCodeComponent&#45;&gt;HomeModule -->
<g id="edge12" class="edge">
<title>ResendCodeComponent&#45;&gt;HomeModule</title>
<path fill="none" stroke="#000000" d="M379,-122.2228C379,-142.3652 379,-172 379,-172 379,-172 1109.1264,-172 1109.1264,-172"/>
<polygon fill="#000000" stroke="#000000" points="1109.1265,-175.5001 1119.1264,-172 1109.1264,-168.5001 1109.1265,-175.5001"/>
</g>
<!-- HomeRoutingModule -->
<g id="node14" class="node">
<title>HomeRoutingModule</title>
<polygon fill="#8dd3c7" stroke="#000000" points="279.3795,-122 276.3795,-126 255.3795,-126 252.3795,-122 140.6205,-122 140.6205,-86 279.3795,-86 279.3795,-122"/>
<text text-anchor="middle" x="210" y="-99.8" font-family="Times,serif" font-size="14.00" fill="#000000">HomeRoutingModule</text>
</g>
<!-- HomeRoutingModule&#45;&gt;HomeModule -->
<g id="edge13" class="edge">
<title>HomeRoutingModule&#45;&gt;HomeModule</title>
<path fill="none" stroke="#000000" d="M210,-122.0449C210,-143.6623 210,-177 210,-177 210,-177 1108.9179,-177 1108.9179,-177"/>
<polygon fill="#000000" stroke="#000000" points="1108.9179,-180.5001 1118.9179,-177 1108.9179,-173.5001 1108.9179,-180.5001"/>
</g>
<!-- SharedModule -->
<g id="node15" class="node">
<title>SharedModule</title>
<polygon fill="#8dd3c7" stroke="#000000" points="122.4231,-122 119.4231,-126 98.4231,-126 95.4231,-122 23.5769,-122 23.5769,-86 122.4231,-86 122.4231,-122"/>
<text text-anchor="middle" x="73" y="-99.8" font-family="Times,serif" font-size="14.00" fill="#000000">SharedModule</text>
</g>
<!-- SharedModule&#45;&gt;HomeModule -->
<g id="edge14" class="edge">
<title>SharedModule&#45;&gt;HomeModule</title>
<path fill="none" stroke="#000000" d="M73,-122.0908C73,-145.1328 73,-182 73,-182 73,-182 1109.0352,-182 1109.0352,-182"/>
<polygon fill="#000000" stroke="#000000" points="1109.0352,-185.5001 1119.0352,-182 1109.0351,-178.5001 1109.0352,-185.5001"/>
</g>
</g>
</svg>
