<?xml version="1.0" encoding="UTF-8" standalone="no"?>
<!DOCTYPE svg PUBLIC "-//W3C//DTD SVG 1.1//EN"
 "http://www.w3.org/Graphics/SVG/1.1/DTD/svg11.dtd">
<!-- Generated by graphviz version 2.40.1 (20161225.0304)
 -->
<!-- Title: dependencies Pages: 1 -->
<svg width="2335pt" height="211pt"
 viewBox="0.00 0.00 2335.00 211.00" xmlns="http://www.w3.org/2000/svg" xmlns:xlink="http://www.w3.org/1999/xlink">
<g id="graph0" class="graph" transform="scale(1 1) rotate(0) translate(4 207)">
<title>dependencies</title>
<polygon fill="#ffffff" stroke="transparent" points="-4,4 -4,-207 2331,-207 2331,4 -4,4"/>
<text text-anchor="start" x="1142.5091" y="-42.4" font-family="sans-serif" font-weight="bold" font-size="14.00" fill="#000000">Legend</text>
<polygon fill="#ffffb3" stroke="transparent" points="929.5,-10 929.5,-30 949.5,-30 949.5,-10 929.5,-10"/>
<text text-anchor="start" x="953.129" y="-15.4" font-family="sans-serif" font-size="14.00" fill="#000000"> &#160;Declarations</text>
<polygon fill="#8dd3c7" stroke="transparent" points="1042.5,-10 1042.5,-30 1062.5,-30 1062.5,-10 1042.5,-10"/>
<text text-anchor="start" x="1066.2251" y="-15.4" font-family="sans-serif" font-size="14.00" fill="#000000"> &#160;Module</text>
<polygon fill="#80b1d3" stroke="transparent" points="1128.5,-10 1128.5,-30 1148.5,-30 1148.5,-10 1128.5,-10"/>
<text text-anchor="start" x="1152.2812" y="-15.4" font-family="sans-serif" font-size="14.00" fill="#000000"> &#160;Bootstrap</text>
<polygon fill="#fdb462" stroke="transparent" points="1225.5,-10 1225.5,-30 1245.5,-30 1245.5,-10 1225.5,-10"/>
<text text-anchor="start" x="1249.1732" y="-15.4" font-family="sans-serif" font-size="14.00" fill="#000000"> &#160;Providers</text>
<polygon fill="#fb8072" stroke="transparent" points="1321.5,-10 1321.5,-30 1341.5,-30 1341.5,-10 1321.5,-10"/>
<text text-anchor="start" x="1345.2258" y="-15.4" font-family="sans-serif" font-size="14.00" fill="#000000"> &#160;Exports</text>
<g id="clust1" class="cluster">
<title>cluster_HomeModule</title>
<polygon fill="none" stroke="#000000" stroke-dasharray="1,5" points="8,-70 8,-195 2319,-195 2319,-70 8,-70"/>
</g>
<g id="clust2" class="cluster">
<title>cluster_HomeModule_declarations</title>
<polygon fill="none" stroke="#000000" points="303,-78 303,-130 2311,-130 2311,-78 303,-78"/>
</g>
<g id="clust15" class="cluster">
<title>cluster_HomeModule_imports</title>
<polygon fill="none" stroke="#000000" points="16,-78 16,-130 295,-130 295,-78 16,-78"/>
</g>
<!-- AboutComponent -->
<g id="node1" class="node">
<title>AboutComponent</title>
<polygon fill="#ffffb3" stroke="#000000" points="2303.3301,-122 2186.6699,-122 2186.6699,-86 2303.3301,-86 2303.3301,-122"/>
<text text-anchor="middle" x="2245" y="-99.8" font-family="Times,serif" font-size="14.00" fill="#000000">AboutComponent</text>
</g>
<!-- HomeModule -->
<g id="node13" class="node">
<title>HomeModule</title>
<polygon fill="#8dd3c7" stroke="#000000" points="1220.7619,-187 1217.7619,-191 1196.7619,-191 1193.7619,-187 1127.2381,-187 1127.2381,-151 1220.7619,-151 1220.7619,-187"/>
<text text-anchor="middle" x="1174" y="-164.8" font-family="Times,serif" font-size="14.00" fill="#000000">HomeModule</text>
</g>
<!-- AboutComponent&#45;&gt;HomeModule -->
<g id="edge1" class="edge">
<title>AboutComponent&#45;&gt;HomeModule</title>
<path fill="none" stroke="#000000" d="M2245,-122.0908C2245,-145.1328 2245,-182 2245,-182 2245,-182 1231.0543,-182 1231.0543,-182"/>
<polygon fill="#000000" stroke="#000000" points="1231.0543,-178.5001 1221.0543,-182 1231.0542,-185.5001 1231.0543,-178.5001"/>
</g>
<!-- ForgotPassword2Component -->
<g id="node2" class="node">
<title>ForgotPassword2Component</title>
<polygon fill="#ffffb3" stroke="#000000" points="2168.8201,-122 1989.1799,-122 1989.1799,-86 2168.8201,-86 2168.8201,-122"/>
<text text-anchor="middle" x="2079" y="-99.8" font-family="Times,serif" font-size="14.00" fill="#000000">ForgotPassword2Component</text>
</g>
<!-- ForgotPassword2Component&#45;&gt;HomeModule -->
<g id="edge2" class="edge">
<title>ForgotPassword2Component&#45;&gt;HomeModule</title>
<path fill="none" stroke="#000000" d="M2079,-122.0449C2079,-143.6623 2079,-177 2079,-177 2079,-177 1231.0663,-177 1231.0663,-177"/>
<polygon fill="#000000" stroke="#000000" points="1231.0663,-173.5001 1221.0663,-177 1231.0663,-180.5001 1231.0663,-173.5001"/>
</g>
<!-- ForgotPasswordStep1Component -->
<g id="node3" class="node">
<title>ForgotPasswordStep1Component</title>
<polygon fill="#ffffb3" stroke="#000000" points="1971.2077,-122 1766.7923,-122 1766.7923,-86 1971.2077,-86 1971.2077,-122"/>
<text text-anchor="middle" x="1869" y="-99.8" font-family="Times,serif" font-size="14.00" fill="#000000">ForgotPasswordStep1Component</text>
</g>
<!-- ForgotPasswordStep1Component&#45;&gt;HomeModule -->
<g id="edge3" class="edge">
<title>ForgotPasswordStep1Component&#45;&gt;HomeModule</title>
<path fill="none" stroke="#000000" d="M1869,-122.2228C1869,-142.3652 1869,-172 1869,-172 1869,-172 1230.9516,-172 1230.9516,-172"/>
<polygon fill="#000000" stroke="#000000" points="1230.9516,-168.5001 1220.9516,-172 1230.9516,-175.5001 1230.9516,-168.5001"/>
</g>
<!-- HomeComponent -->
<g id="node4" class="node">
<title>HomeComponent</title>
<polygon fill="#ffffb3" stroke="#000000" points="1748.5451,-122 1633.4549,-122 1633.4549,-86 1748.5451,-86 1748.5451,-122"/>
<text text-anchor="middle" x="1691" y="-99.8" font-family="Times,serif" font-size="14.00" fill="#000000">HomeComponent</text>
</g>
<!-- HomeComponent&#45;&gt;HomeModule -->
<g id="edge4" class="edge">
<title>HomeComponent&#45;&gt;HomeModule</title>
<path fill="none" stroke="#000000" d="M1691,-122.2222C1691,-140.8285 1691,-167 1691,-167 1691,-167 1230.7921,-167 1230.7921,-167"/>
<polygon fill="#000000" stroke="#000000" points="1230.7922,-163.5001 1220.7921,-167 1230.7921,-170.5001 1230.7922,-163.5001"/>
</g>
<!-- HomeLandingComponent -->
<g id="node5" class="node">
<title>HomeLandingComponent</title>
<polygon fill="#ffffb3" stroke="#000000" points="1615.2021,-122 1452.7979,-122 1452.7979,-86 1615.2021,-86 1615.2021,-122"/>
<text text-anchor="middle" x="1534" y="-99.8" font-family="Times,serif" font-size="14.00" fill="#000000">HomeLandingComponent</text>
</g>
<!-- HomeLandingComponent&#45;&gt;HomeModule -->
<g id="edge5" class="edge">
<title>HomeLandingComponent&#45;&gt;HomeModule</title>
<path fill="none" stroke="#000000" d="M1534,-122.0336C1534,-139.0597 1534,-162 1534,-162 1534,-162 1231.0637,-162 1231.0637,-162"/>
<polygon fill="#000000" stroke="#000000" points="1231.0637,-158.5001 1221.0637,-162 1231.0637,-165.5001 1231.0637,-158.5001"/>
</g>
<!-- LoginComponent -->
<g id="node6" class="node">
<title>LoginComponent</title>
<polygon fill="#ffffb3" stroke="#000000" points="1435.2758,-122 1320.7242,-122 1320.7242,-86 1435.2758,-86 1435.2758,-122"/>
<text text-anchor="middle" x="1378" y="-99.8" font-family="Times,serif" font-size="14.00" fill="#000000">LoginComponent</text>
</g>
<!-- LoginComponent&#45;&gt;HomeModule -->
<g id="edge6" class="edge">
<title>LoginComponent&#45;&gt;HomeModule</title>
<path fill="none" stroke="#000000" d="M1378,-122.2396C1378,-137.5706 1378,-157 1378,-157 1378,-157 1230.8017,-157 1230.8017,-157"/>
<polygon fill="#000000" stroke="#000000" points="1230.8018,-153.5001 1220.8017,-157 1230.8017,-160.5001 1230.8018,-153.5001"/>
</g>
<!-- LogoutComponent -->
<g id="node7" class="node">
<title>LogoutComponent</title>
<polygon fill="#ffffb3" stroke="#000000" points="1302.7758,-122 1181.2242,-122 1181.2242,-86 1302.7758,-86 1302.7758,-122"/>
<text text-anchor="middle" x="1242" y="-99.8" font-family="Times,serif" font-size="14.00" fill="#000000">LogoutComponent</text>
</g>
<!-- LogoutComponent&#45;&gt;HomeModule -->
<g id="edge7" class="edge">
<title>LogoutComponent&#45;&gt;HomeModule</title>
<path fill="none" stroke="#000000" d="M1200.9965,-122.1061C1200.9965,-122.1061 1200.9965,-140.991 1200.9965,-140.991"/>
<polygon fill="#000000" stroke="#000000" points="1197.4966,-140.9909 1200.9965,-150.991 1204.4966,-140.991 1197.4966,-140.9909"/>
</g>
<!-- MFAComponent -->
<g id="node8" class="node">
<title>MFAComponent</title>
<polygon fill="#ffffb3" stroke="#000000" points="1162.6667,-122 1051.3333,-122 1051.3333,-86 1162.6667,-86 1162.6667,-122"/>
<text text-anchor="middle" x="1107" y="-99.8" font-family="Times,serif" font-size="14.00" fill="#000000">MFAComponent</text>
</g>
<!-- MFAComponent&#45;&gt;HomeModule -->
<g id="edge8" class="edge">
<title>MFAComponent&#45;&gt;HomeModule</title>
<path fill="none" stroke="#000000" d="M1144.9762,-122.1061C1144.9762,-122.1061 1144.9762,-140.991 1144.9762,-140.991"/>
<polygon fill="#000000" stroke="#000000" points="1141.4762,-140.9909 1144.9762,-150.991 1148.4762,-140.991 1141.4762,-140.9909"/>
</g>
<!-- NewPasswordComponent -->
<g id="node9" class="node">
<title>NewPasswordComponent</title>
<polygon fill="#ffffb3" stroke="#000000" points="1032.9143,-122 871.0857,-122 871.0857,-86 1032.9143,-86 1032.9143,-122"/>
<text text-anchor="middle" x="952" y="-99.8" font-family="Times,serif" font-size="14.00" fill="#000000">NewPasswordComponent</text>
</g>
<!-- NewPasswordComponent&#45;&gt;HomeModule -->
<g id="edge9" class="edge">
<title>NewPasswordComponent&#45;&gt;HomeModule</title>
<path fill="none" stroke="#000000" d="M952,-122.2396C952,-137.5706 952,-157 952,-157 952,-157 1117.1908,-157 1117.1908,-157"/>
<polygon fill="#000000" stroke="#000000" points="1117.1908,-160.5001 1127.1908,-157 1117.1907,-153.5001 1117.1908,-160.5001"/>
</g>
<!-- RegisterComponent -->
<g id="node10" class="node">
<title>RegisterComponent</title>
<polygon fill="#ffffb3" stroke="#000000" points="852.9846,-122 725.0154,-122 725.0154,-86 852.9846,-86 852.9846,-122"/>
<text text-anchor="middle" x="789" y="-99.8" font-family="Times,serif" font-size="14.00" fill="#000000">RegisterComponent</text>
</g>
<!-- RegisterComponent&#45;&gt;HomeModule -->
<g id="edge10" class="edge">
<title>RegisterComponent&#45;&gt;HomeModule</title>
<path fill="none" stroke="#000000" d="M789,-122.0336C789,-139.0597 789,-162 789,-162 789,-162 1117.1763,-162 1117.1763,-162"/>
<polygon fill="#000000" stroke="#000000" points="1117.1764,-165.5001 1127.1763,-162 1117.1763,-158.5001 1117.1764,-165.5001"/>
</g>
<!-- RegistrationConfirmationComponent -->
<g id="node11" class="node">
<title>RegistrationConfirmationComponent</title>
<polygon fill="#ffffb3" stroke="#000000" points="706.7007,-122 481.2993,-122 481.2993,-86 706.7007,-86 706.7007,-122"/>
<text text-anchor="middle" x="594" y="-99.8" font-family="Times,serif" font-size="14.00" fill="#000000">RegistrationConfirmationComponent</text>
</g>
<!-- RegistrationConfirmationComponent&#45;&gt;HomeModule -->
<g id="edge11" class="edge">
<title>RegistrationConfirmationComponent&#45;&gt;HomeModule</title>
<path fill="none" stroke="#000000" d="M594,-122.2222C594,-140.8285 594,-167 594,-167 594,-167 1117.0275,-167 1117.0275,-167"/>
<polygon fill="#000000" stroke="#000000" points="1117.0275,-170.5001 1127.0275,-167 1117.0274,-163.5001 1117.0275,-170.5001"/>
</g>
<!-- ResendCodeComponent -->
<g id="node12" class="node">
<title>ResendCodeComponent</title>
<polygon fill="#ffffb3" stroke="#000000" points="463.094,-122 310.906,-122 310.906,-86 463.094,-86 463.094,-122"/>
<text text-anchor="middle" x="387" y="-99.8" font-family="Times,serif" font-size="14.00" fill="#000000">ResendCodeComponent</text>
</g>
<!-- ResendCodeComponent&#45;&gt;HomeModule -->
<g id="edge12" class="edge">
<title>ResendCodeComponent&#45;&gt;HomeModule</title>
<path fill="none" stroke="#000000" d="M387,-122.2228C387,-142.3652 387,-172 387,-172 387,-172 1117.1264,-172 1117.1264,-172"/>
<polygon fill="#000000" stroke="#000000" points="1117.1265,-175.5001 1127.1264,-172 1117.1264,-168.5001 1117.1265,-175.5001"/>
</g>
<!-- HomeRoutingModule -->
<g id="node14" class="node">
<title>HomeRoutingModule</title>
<polygon fill="#8dd3c7" stroke="#000000" points="287.3795,-122 284.3795,-126 263.3795,-126 260.3795,-122 148.6205,-122 148.6205,-86 287.3795,-86 287.3795,-122"/>
<text text-anchor="middle" x="218" y="-99.8" font-family="Times,serif" font-size="14.00" fill="#000000">HomeRoutingModule</text>
</g>
<!-- HomeRoutingModule&#45;&gt;HomeModule -->
<g id="edge13" class="edge">
<title>HomeRoutingModule&#45;&gt;HomeModule</title>
<path fill="none" stroke="#000000" d="M218,-122.0449C218,-143.6623 218,-177 218,-177 218,-177 1116.9179,-177 1116.9179,-177"/>
<polygon fill="#000000" stroke="#000000" points="1116.9179,-180.5001 1126.9179,-177 1116.9179,-173.5001 1116.9179,-180.5001"/>
</g>
<!-- MaterialModule -->
<g id="node15" class="node">
<title>MaterialModule</title>
<polygon fill="#8dd3c7" stroke="#000000" points="130.4706,-122 127.4706,-126 106.4706,-126 103.4706,-122 23.5294,-122 23.5294,-86 130.4706,-86 130.4706,-122"/>
<text text-anchor="middle" x="77" y="-99.8" font-family="Times,serif" font-size="14.00" fill="#000000">MaterialModule</text>
</g>
<!-- MaterialModule&#45;&gt;HomeModule -->
<g id="edge14" class="edge">
<title>MaterialModule&#45;&gt;HomeModule</title>
<path fill="none" stroke="#000000" d="M77,-122.0908C77,-145.1328 77,-182 77,-182 77,-182 1117.2142,-182 1117.2142,-182"/>
<polygon fill="#000000" stroke="#000000" points="1117.2142,-185.5001 1127.2142,-182 1117.2142,-178.5001 1117.2142,-185.5001"/>
</g>
</g>
</svg>
