<?xml version="1.0" encoding="UTF-8" standalone="no"?>
<!DOCTYPE svg PUBLIC "-//W3C//DTD SVG 1.1//EN"
 "http://www.w3.org/Graphics/SVG/1.1/DTD/svg11.dtd">
<!-- Generated by graphviz version 2.40.1 (20161225.0304)
 -->
<!-- Title: dependencies Pages: 1 -->
<svg width="2490pt" height="211pt"
 viewBox="0.00 0.00 2490.00 211.00" xmlns="http://www.w3.org/2000/svg" xmlns:xlink="http://www.w3.org/1999/xlink">
<g id="graph0" class="graph" transform="scale(1 1) rotate(0) translate(4 207)">
<title>dependencies</title>
<polygon fill="#ffffff" stroke="transparent" points="-4,4 -4,-207 2486,-207 2486,4 -4,4"/>
<text text-anchor="start" x="1220.0091" y="-42.4" font-family="sans-serif" font-weight="bold" font-size="14.00" fill="#000000">Legend</text>
<polygon fill="#ffffb3" stroke="transparent" points="1007,-10 1007,-30 1027,-30 1027,-10 1007,-10"/>
<text text-anchor="start" x="1030.629" y="-15.4" font-family="sans-serif" font-size="14.00" fill="#000000"> &#160;Declarations</text>
<polygon fill="#8dd3c7" stroke="transparent" points="1120,-10 1120,-30 1140,-30 1140,-10 1120,-10"/>
<text text-anchor="start" x="1143.7251" y="-15.4" font-family="sans-serif" font-size="14.00" fill="#000000"> &#160;Module</text>
<polygon fill="#80b1d3" stroke="transparent" points="1206,-10 1206,-30 1226,-30 1226,-10 1206,-10"/>
<text text-anchor="start" x="1229.7812" y="-15.4" font-family="sans-serif" font-size="14.00" fill="#000000"> &#160;Bootstrap</text>
<polygon fill="#fdb462" stroke="transparent" points="1303,-10 1303,-30 1323,-30 1323,-10 1303,-10"/>
<text text-anchor="start" x="1326.6732" y="-15.4" font-family="sans-serif" font-size="14.00" fill="#000000"> &#160;Providers</text>
<polygon fill="#fb8072" stroke="transparent" points="1399,-10 1399,-30 1419,-30 1419,-10 1399,-10"/>
<text text-anchor="start" x="1422.7258" y="-15.4" font-family="sans-serif" font-size="14.00" fill="#000000"> &#160;Exports</text>
<g id="clust1" class="cluster">
<title>cluster_HomeModule</title>
<polygon fill="none" stroke="#000000" stroke-dasharray="1,5" points="8,-70 8,-195 2474,-195 2474,-70 8,-70"/>
</g>
<g id="clust2" class="cluster">
<title>cluster_HomeModule_declarations</title>
<polygon fill="none" stroke="#000000" points="303,-78 303,-130 2466,-130 2466,-78 303,-78"/>
</g>
<g id="clust16" class="cluster">
<title>cluster_HomeModule_imports</title>
<polygon fill="none" stroke="#000000" points="16,-78 16,-130 295,-130 295,-78 16,-78"/>
</g>
<!-- AboutComponent -->
<g id="node1" class="node">
<title>AboutComponent</title>
<polygon fill="#ffffb3" stroke="#000000" points="2458.3301,-122 2341.6699,-122 2341.6699,-86 2458.3301,-86 2458.3301,-122"/>
<text text-anchor="middle" x="2400" y="-99.8" font-family="Times,serif" font-size="14.00" fill="#000000">AboutComponent</text>
</g>
<!-- HomeModule -->
<g id="node14" class="node">
<title>HomeModule</title>
<polygon fill="#8dd3c7" stroke="#000000" points="1288.7619,-187 1285.7619,-191 1264.7619,-191 1261.7619,-187 1195.2381,-187 1195.2381,-151 1288.7619,-151 1288.7619,-187"/>
<text text-anchor="middle" x="1242" y="-164.8" font-family="Times,serif" font-size="14.00" fill="#000000">HomeModule</text>
</g>
<!-- AboutComponent&#45;&gt;HomeModule -->
<g id="edge1" class="edge">
<title>AboutComponent&#45;&gt;HomeModule</title>
<path fill="none" stroke="#000000" d="M2400,-122.3228C2400,-145.6602 2400,-183 2400,-183 2400,-183 1298.8292,-183 1298.8292,-183"/>
<polygon fill="#000000" stroke="#000000" points="1298.8292,-179.5001 1288.8292,-183 1298.8292,-186.5001 1298.8292,-179.5001"/>
</g>
<!-- ForgotPassword2Component -->
<g id="node2" class="node">
<title>ForgotPassword2Component</title>
<polygon fill="#ffffb3" stroke="#000000" points="2323.8201,-122 2144.1799,-122 2144.1799,-86 2323.8201,-86 2323.8201,-122"/>
<text text-anchor="middle" x="2234" y="-99.8" font-family="Times,serif" font-size="14.00" fill="#000000">ForgotPassword2Component</text>
</g>
<!-- ForgotPassword2Component&#45;&gt;HomeModule -->
<g id="edge2" class="edge">
<title>ForgotPassword2Component&#45;&gt;HomeModule</title>
<path fill="none" stroke="#000000" d="M2234,-122.2921C2234,-144.2057 2234,-178 2234,-178 2234,-178 1298.8468,-178 1298.8468,-178"/>
<polygon fill="#000000" stroke="#000000" points="1298.8468,-174.5001 1288.8468,-178 1298.8467,-181.5001 1298.8468,-174.5001"/>
</g>
<!-- ForgotPasswordStep1Component -->
<g id="node3" class="node">
<title>ForgotPasswordStep1Component</title>
<polygon fill="#ffffb3" stroke="#000000" points="2126.2077,-122 1921.7923,-122 1921.7923,-86 2126.2077,-86 2126.2077,-122"/>
<text text-anchor="middle" x="2024" y="-99.8" font-family="Times,serif" font-size="14.00" fill="#000000">ForgotPasswordStep1Component</text>
</g>
<!-- ForgotPasswordStep1Component&#45;&gt;HomeModule -->
<g id="edge3" class="edge">
<title>ForgotPasswordStep1Component&#45;&gt;HomeModule</title>
<path fill="none" stroke="#000000" d="M2024,-122.0267C2024,-142.7672 2024,-174 2024,-174 2024,-174 1298.8658,-174 1298.8658,-174"/>
<polygon fill="#000000" stroke="#000000" points="1298.8658,-170.5001 1288.8658,-174 1298.8657,-177.5001 1298.8658,-170.5001"/>
</g>
<!-- GetTokenComponent -->
<g id="node4" class="node">
<title>GetTokenComponent</title>
<polygon fill="#ffffb3" stroke="#000000" points="1903.8118,-122 1766.1882,-122 1766.1882,-86 1903.8118,-86 1903.8118,-122"/>
<text text-anchor="middle" x="1835" y="-99.8" font-family="Times,serif" font-size="14.00" fill="#000000">GetTokenComponent</text>
</g>
<!-- GetTokenComponent&#45;&gt;HomeModule -->
<g id="edge4" class="edge">
<title>GetTokenComponent&#45;&gt;HomeModule</title>
<path fill="none" stroke="#000000" d="M1835,-122.1061C1835,-141.3391 1835,-169 1835,-169 1835,-169 1299.0274,-169 1299.0274,-169"/>
<polygon fill="#000000" stroke="#000000" points="1299.0274,-165.5001 1289.0274,-169 1299.0273,-172.5001 1299.0274,-165.5001"/>
</g>
<!-- HomeComponent -->
<g id="node5" class="node">
<title>HomeComponent</title>
<polygon fill="#ffffb3" stroke="#000000" points="1748.5451,-122 1633.4549,-122 1633.4549,-86 1748.5451,-86 1748.5451,-122"/>
<text text-anchor="middle" x="1691" y="-99.8" font-family="Times,serif" font-size="14.00" fill="#000000">HomeComponent</text>
</g>
<!-- HomeComponent&#45;&gt;HomeModule -->
<g id="edge5" class="edge">
<title>HomeComponent&#45;&gt;HomeModule</title>
<path fill="none" stroke="#000000" d="M1691,-122.302C1691,-140.2699 1691,-165 1691,-165 1691,-165 1298.7802,-165 1298.7802,-165"/>
<polygon fill="#000000" stroke="#000000" points="1298.7803,-161.5001 1288.7802,-165 1298.7802,-168.5001 1298.7803,-161.5001"/>
</g>
<!-- HomeLandingComponent -->
<g id="node6" class="node">
<title>HomeLandingComponent</title>
<polygon fill="#ffffb3" stroke="#000000" points="1615.2021,-122 1452.7979,-122 1452.7979,-86 1615.2021,-86 1615.2021,-122"/>
<text text-anchor="middle" x="1534" y="-99.8" font-family="Times,serif" font-size="14.00" fill="#000000">HomeLandingComponent</text>
</g>
<!-- HomeLandingComponent&#45;&gt;HomeModule -->
<g id="edge6" class="edge">
<title>HomeLandingComponent&#45;&gt;HomeModule</title>
<path fill="none" stroke="#000000" d="M1534,-122.027C1534,-138.3976 1534,-160 1534,-160 1534,-160 1298.9149,-160 1298.9149,-160"/>
<polygon fill="#000000" stroke="#000000" points="1298.9149,-156.5001 1288.9149,-160 1298.9148,-163.5001 1298.9149,-156.5001"/>
</g>
<!-- LoginComponent -->
<g id="node7" class="node">
<title>LoginComponent</title>
<polygon fill="#ffffb3" stroke="#000000" points="1435.2758,-122 1320.7242,-122 1320.7242,-86 1435.2758,-86 1435.2758,-122"/>
<text text-anchor="middle" x="1378" y="-99.8" font-family="Times,serif" font-size="14.00" fill="#000000">LoginComponent</text>
</g>
<!-- LoginComponent&#45;&gt;HomeModule -->
<g id="edge7" class="edge">
<title>LoginComponent&#45;&gt;HomeModule</title>
<path fill="none" stroke="#000000" d="M1378,-122.1871C1378,-137.1824 1378,-156 1378,-156 1378,-156 1298.8035,-156 1298.8035,-156"/>
<polygon fill="#000000" stroke="#000000" points="1298.8035,-152.5001 1288.8035,-156 1298.8034,-159.5001 1298.8035,-152.5001"/>
</g>
<!-- LogoutComponent -->
<g id="node8" class="node">
<title>LogoutComponent</title>
<polygon fill="#ffffb3" stroke="#000000" points="1302.7758,-122 1181.2242,-122 1181.2242,-86 1302.7758,-86 1302.7758,-122"/>
<text text-anchor="middle" x="1242" y="-99.8" font-family="Times,serif" font-size="14.00" fill="#000000">LogoutComponent</text>
</g>
<!-- LogoutComponent&#45;&gt;HomeModule -->
<g id="edge8" class="edge">
<title>LogoutComponent&#45;&gt;HomeModule</title>
<path fill="none" stroke="#000000" d="M1242,-122.1061C1242,-122.1061 1242,-140.991 1242,-140.991"/>
<polygon fill="#000000" stroke="#000000" points="1238.5001,-140.9909 1242,-150.991 1245.5001,-140.991 1238.5001,-140.9909"/>
</g>
<!-- MFAComponent -->
<g id="node9" class="node">
<title>MFAComponent</title>
<polygon fill="#ffffb3" stroke="#000000" points="1162.6667,-122 1051.3333,-122 1051.3333,-86 1162.6667,-86 1162.6667,-122"/>
<text text-anchor="middle" x="1107" y="-99.8" font-family="Times,serif" font-size="14.00" fill="#000000">MFAComponent</text>
</g>
<!-- MFAComponent&#45;&gt;HomeModule -->
<g id="edge9" class="edge">
<title>MFAComponent&#45;&gt;HomeModule</title>
<path fill="none" stroke="#000000" d="M1107,-122.1871C1107,-137.1824 1107,-156 1107,-156 1107,-156 1185.1624,-156 1185.1624,-156"/>
<polygon fill="#000000" stroke="#000000" points="1185.1625,-159.5001 1195.1624,-156 1185.1624,-152.5001 1185.1625,-159.5001"/>
</g>
<!-- NewPasswordComponent -->
<g id="node10" class="node">
<title>NewPasswordComponent</title>
<polygon fill="#ffffb3" stroke="#000000" points="1032.9143,-122 871.0857,-122 871.0857,-86 1032.9143,-86 1032.9143,-122"/>
<text text-anchor="middle" x="952" y="-99.8" font-family="Times,serif" font-size="14.00" fill="#000000">NewPasswordComponent</text>
</g>
<!-- NewPasswordComponent&#45;&gt;HomeModule -->
<g id="edge10" class="edge">
<title>NewPasswordComponent&#45;&gt;HomeModule</title>
<path fill="none" stroke="#000000" d="M952,-122.027C952,-138.3976 952,-160 952,-160 952,-160 1185.0842,-160 1185.0842,-160"/>
<polygon fill="#000000" stroke="#000000" points="1185.0842,-163.5001 1195.0842,-160 1185.0841,-156.5001 1185.0842,-163.5001"/>
</g>
<!-- RegisterComponent -->
<g id="node11" class="node">
<title>RegisterComponent</title>
<polygon fill="#ffffb3" stroke="#000000" points="852.9846,-122 725.0154,-122 725.0154,-86 852.9846,-86 852.9846,-122"/>
<text text-anchor="middle" x="789" y="-99.8" font-family="Times,serif" font-size="14.00" fill="#000000">RegisterComponent</text>
</g>
<!-- RegisterComponent&#45;&gt;HomeModule -->
<g id="edge11" class="edge">
<title>RegisterComponent&#45;&gt;HomeModule</title>
<path fill="none" stroke="#000000" d="M789,-122.302C789,-140.2699 789,-165 789,-165 789,-165 1185.2273,-165 1185.2273,-165"/>
<polygon fill="#000000" stroke="#000000" points="1185.2273,-168.5001 1195.2273,-165 1185.2272,-161.5001 1185.2273,-168.5001"/>
</g>
<!-- RegistrationConfirmationComponent -->
<g id="node12" class="node">
<title>RegistrationConfirmationComponent</title>
<polygon fill="#ffffb3" stroke="#000000" points="706.7007,-122 481.2993,-122 481.2993,-86 706.7007,-86 706.7007,-122"/>
<text text-anchor="middle" x="594" y="-99.8" font-family="Times,serif" font-size="14.00" fill="#000000">RegistrationConfirmationComponent</text>
</g>
<!-- RegistrationConfirmationComponent&#45;&gt;HomeModule -->
<g id="edge12" class="edge">
<title>RegistrationConfirmationComponent&#45;&gt;HomeModule</title>
<path fill="none" stroke="#000000" d="M594,-122.1061C594,-141.3391 594,-169 594,-169 594,-169 1185.1368,-169 1185.1368,-169"/>
<polygon fill="#000000" stroke="#000000" points="1185.1368,-172.5001 1195.1368,-169 1185.1367,-165.5001 1185.1368,-172.5001"/>
</g>
<!-- ResendCodeComponent -->
<g id="node13" class="node">
<title>ResendCodeComponent</title>
<polygon fill="#ffffb3" stroke="#000000" points="463.094,-122 310.906,-122 310.906,-86 463.094,-86 463.094,-122"/>
<text text-anchor="middle" x="387" y="-99.8" font-family="Times,serif" font-size="14.00" fill="#000000">ResendCodeComponent</text>
</g>
<!-- ResendCodeComponent&#45;&gt;HomeModule -->
<g id="edge13" class="edge">
<title>ResendCodeComponent&#45;&gt;HomeModule</title>
<path fill="none" stroke="#000000" d="M387,-122.0267C387,-142.7672 387,-174 387,-174 387,-174 1185.1194,-174 1185.1194,-174"/>
<polygon fill="#000000" stroke="#000000" points="1185.1194,-177.5001 1195.1194,-174 1185.1194,-170.5001 1185.1194,-177.5001"/>
</g>
<!-- HomeRoutingModule -->
<g id="node15" class="node">
<title>HomeRoutingModule</title>
<polygon fill="#8dd3c7" stroke="#000000" points="287.3795,-122 284.3795,-126 263.3795,-126 260.3795,-122 148.6205,-122 148.6205,-86 287.3795,-86 287.3795,-122"/>
<text text-anchor="middle" x="218" y="-99.8" font-family="Times,serif" font-size="14.00" fill="#000000">HomeRoutingModule</text>
</g>
<!-- HomeRoutingModule&#45;&gt;HomeModule -->
<g id="edge14" class="edge">
<title>HomeRoutingModule&#45;&gt;HomeModule</title>
<path fill="none" stroke="#000000" d="M218,-122.2921C218,-144.2057 218,-178 218,-178 218,-178 1185.0026,-178 1185.0026,-178"/>
<polygon fill="#000000" stroke="#000000" points="1185.0026,-181.5001 1195.0026,-178 1185.0025,-174.5001 1185.0026,-181.5001"/>
</g>
<!-- MaterialModule -->
<g id="node16" class="node">
<title>MaterialModule</title>
<polygon fill="#8dd3c7" stroke="#000000" points="130.4706,-122 127.4706,-126 106.4706,-126 103.4706,-122 23.5294,-122 23.5294,-86 130.4706,-86 130.4706,-122"/>
<text text-anchor="middle" x="77" y="-99.8" font-family="Times,serif" font-size="14.00" fill="#000000">MaterialModule</text>
</g>
<!-- MaterialModule&#45;&gt;HomeModule -->
<g id="edge15" class="edge">
<title>MaterialModule&#45;&gt;HomeModule</title>
<path fill="none" stroke="#000000" d="M77,-122.3228C77,-145.6602 77,-183 77,-183 77,-183 1184.8877,-183 1184.8877,-183"/>
<polygon fill="#000000" stroke="#000000" points="1184.8878,-186.5001 1194.8877,-183 1184.8877,-179.5001 1184.8878,-186.5001"/>
</g>
</g>
</svg>
