<?xml version="1.0" encoding="UTF-8" standalone="no"?>
<!DOCTYPE svg PUBLIC "-//W3C//DTD SVG 1.1//EN"
 "http://www.w3.org/Graphics/SVG/1.1/DTD/svg11.dtd">
<!-- Generated by graphviz version 2.40.1 (20161225.0304)
 -->
<!-- Title: dependencies Pages: 1 -->
<svg width="6445pt" height="284pt"
 viewBox="0.00 0.00 6445.00 284.00" xmlns="http://www.w3.org/2000/svg" xmlns:xlink="http://www.w3.org/1999/xlink">
<g id="graph0" class="graph" transform="scale(1 1) rotate(0) translate(4 280)">
<title>dependencies</title>
<polygon fill="#ffffff" stroke="transparent" points="-4,4 -4,-280 6441,-280 6441,4 -4,4"/>
<text text-anchor="start" x="3197.5091" y="-42.4" font-family="sans-serif" font-weight="bold" font-size="14.00" fill="#000000">Legend</text>
<polygon fill="#ffffb3" stroke="transparent" points="2984.5,-10 2984.5,-30 3004.5,-30 3004.5,-10 2984.5,-10"/>
<text text-anchor="start" x="3008.129" y="-15.4" font-family="sans-serif" font-size="14.00" fill="#000000"> &#160;Declarations</text>
<polygon fill="#8dd3c7" stroke="transparent" points="3097.5,-10 3097.5,-30 3117.5,-30 3117.5,-10 3097.5,-10"/>
<text text-anchor="start" x="3121.2251" y="-15.4" font-family="sans-serif" font-size="14.00" fill="#000000"> &#160;Module</text>
<polygon fill="#80b1d3" stroke="transparent" points="3183.5,-10 3183.5,-30 3203.5,-30 3203.5,-10 3183.5,-10"/>
<text text-anchor="start" x="3207.2812" y="-15.4" font-family="sans-serif" font-size="14.00" fill="#000000"> &#160;Bootstrap</text>
<polygon fill="#fdb462" stroke="transparent" points="3280.5,-10 3280.5,-30 3300.5,-30 3300.5,-10 3280.5,-10"/>
<text text-anchor="start" x="3304.1732" y="-15.4" font-family="sans-serif" font-size="14.00" fill="#000000"> &#160;Providers</text>
<polygon fill="#fb8072" stroke="transparent" points="3376.5,-10 3376.5,-30 3396.5,-30 3396.5,-10 3376.5,-10"/>
<text text-anchor="start" x="3400.2258" y="-15.4" font-family="sans-serif" font-size="14.00" fill="#000000"> &#160;Exports</text>
<g id="clust1" class="cluster">
<title>cluster_AppModule</title>
<polygon fill="none" stroke="#000000" stroke-dasharray="1,5" points="8,-70 8,-268 6429,-268 6429,-70 8,-70"/>
</g>
<g id="clust2" class="cluster">
<title>cluster_AppModule_declarations</title>
<polygon fill="none" stroke="#000000" points="3675,-78 3675,-130 6421,-130 6421,-78 3675,-78"/>
</g>
<g id="clust20" class="cluster">
<title>cluster_AppModule_imports</title>
<polygon fill="none" stroke="#000000" points="1081,-78 1081,-130 3667,-130 3667,-78 1081,-78"/>
</g>
<g id="clust22" class="cluster">
<title>cluster_AppModule_bootstrap</title>
<polygon fill="none" stroke="#000000" points="3063,-208 3063,-260 3187,-260 3187,-208 3063,-208"/>
</g>
<g id="clust23" class="cluster">
<title>cluster_AppModule_providers</title>
<polygon fill="none" stroke="#000000" points="16,-78 16,-130 1073,-130 1073,-78 16,-78"/>
</g>
<!-- AboutComponent -->
<g id="node1" class="node">
<title>AboutComponent</title>
<polygon fill="#ffffb3" stroke="#000000" points="6413.3301,-122 6296.6699,-122 6296.6699,-86 6413.3301,-86 6413.3301,-122"/>
<text text-anchor="middle" x="6355" y="-99.8" font-family="Times,serif" font-size="14.00" fill="#000000">AboutComponent</text>
</g>
<!-- AppModule -->
<g id="node18" class="node">
<title>AppModule</title>
<polygon fill="#8dd3c7" stroke="#000000" points="3166.6571,-187 3163.6571,-191 3142.6571,-191 3139.6571,-187 3083.3429,-187 3083.3429,-151 3166.6571,-151 3166.6571,-187"/>
<text text-anchor="middle" x="3125" y="-164.8" font-family="Times,serif" font-size="14.00" fill="#000000">AppModule</text>
</g>
<!-- AboutComponent&#45;&gt;AppModule -->
<g id="edge1" class="edge">
<title>AboutComponent&#45;&gt;AppModule</title>
<path fill="none" stroke="#000000" d="M6355,-122.1985C6355,-146.3563 6355,-186 6355,-186 6355,-186 3176.7236,-186 3176.7236,-186"/>
<polygon fill="#000000" stroke="#000000" points="3176.7237,-182.5001 3166.7236,-186 3176.7236,-189.5001 3176.7237,-182.5001"/>
</g>
<!-- AppComponent -->
<g id="node2" class="node">
<title>AppComponent</title>
<polygon fill="#ffffb3" stroke="#000000" points="6278.9399,-122 6173.0601,-122 6173.0601,-86 6278.9399,-86 6278.9399,-122"/>
<text text-anchor="middle" x="6226" y="-99.8" font-family="Times,serif" font-size="14.00" fill="#000000">AppComponent</text>
</g>
<!-- AppComponent&#45;&gt;AppModule -->
<g id="edge2" class="edge">
<title>AppComponent&#45;&gt;AppModule</title>
<path fill="none" stroke="#000000" d="M6226,-122.1532C6226,-145.7566 6226,-184 6226,-184 6226,-184 3176.7815,-184 3176.7815,-184"/>
<polygon fill="#000000" stroke="#000000" points="3176.7816,-180.5001 3166.7815,-184 3176.7815,-187.5001 3176.7816,-180.5001"/>
</g>
<!-- ForgotPassword2Component -->
<g id="node3" class="node">
<title>ForgotPassword2Component</title>
<polygon fill="#ffffb3" stroke="#000000" points="6155.8201,-122 5976.1799,-122 5976.1799,-86 6155.8201,-86 6155.8201,-122"/>
<text text-anchor="middle" x="6066" y="-99.8" font-family="Times,serif" font-size="14.00" fill="#000000">ForgotPassword2Component</text>
</g>
<!-- ForgotPassword2Component&#45;&gt;AppModule -->
<g id="edge3" class="edge">
<title>ForgotPassword2Component&#45;&gt;AppModule</title>
<path fill="none" stroke="#000000" d="M6066,-122.3228C6066,-145.6602 6066,-183 6066,-183 6066,-183 3176.857,-183 3176.857,-183"/>
<polygon fill="#000000" stroke="#000000" points="3176.857,-179.5001 3166.857,-183 3176.8569,-186.5001 3176.857,-179.5001"/>
</g>
<!-- ForgotPasswordStep1Component -->
<g id="node4" class="node">
<title>ForgotPasswordStep1Component</title>
<polygon fill="#ffffb3" stroke="#000000" points="5958.2077,-122 5753.7923,-122 5753.7923,-86 5958.2077,-86 5958.2077,-122"/>
<text text-anchor="middle" x="5856" y="-99.8" font-family="Times,serif" font-size="14.00" fill="#000000">ForgotPasswordStep1Component</text>
</g>
<!-- ForgotPasswordStep1Component&#45;&gt;AppModule -->
<g id="edge4" class="edge">
<title>ForgotPasswordStep1Component&#45;&gt;AppModule</title>
<path fill="none" stroke="#000000" d="M5856,-122.2479C5856,-145.0179 5856,-181 5856,-181 5856,-181 3176.8046,-181 3176.8046,-181"/>
<polygon fill="#000000" stroke="#000000" points="3176.8047,-177.5001 3166.8046,-181 3176.8046,-184.5001 3176.8047,-177.5001"/>
</g>
<!-- HomeComponent -->
<g id="node5" class="node">
<title>HomeComponent</title>
<polygon fill="#ffffb3" stroke="#000000" points="5735.5451,-122 5620.4549,-122 5620.4549,-86 5735.5451,-86 5735.5451,-122"/>
<text text-anchor="middle" x="5678" y="-99.8" font-family="Times,serif" font-size="14.00" fill="#000000">HomeComponent</text>
</g>
<!-- HomeComponent&#45;&gt;AppModule -->
<g id="edge5" class="edge">
<title>HomeComponent&#45;&gt;AppModule</title>
<path fill="none" stroke="#000000" d="M5678,-122.1554C5678,-144.3519 5678,-179 5678,-179 5678,-179 3176.6573,-179 3176.6573,-179"/>
<polygon fill="#000000" stroke="#000000" points="3176.6573,-175.5001 3166.6573,-179 3176.6572,-182.5001 3176.6573,-175.5001"/>
</g>
<!-- HomeLandingComponent -->
<g id="node6" class="node">
<title>HomeLandingComponent</title>
<polygon fill="#ffffb3" stroke="#000000" points="5602.2021,-122 5439.7979,-122 5439.7979,-86 5602.2021,-86 5602.2021,-122"/>
<text text-anchor="middle" x="5521" y="-99.8" font-family="Times,serif" font-size="14.00" fill="#000000">HomeLandingComponent</text>
</g>
<!-- HomeLandingComponent&#45;&gt;AppModule -->
<g id="edge6" class="edge">
<title>HomeLandingComponent&#45;&gt;AppModule</title>
<path fill="none" stroke="#000000" d="M5521,-122.2921C5521,-144.2057 5521,-178 5521,-178 5521,-178 3176.8402,-178 3176.8402,-178"/>
<polygon fill="#000000" stroke="#000000" points="3176.8402,-174.5001 3166.8402,-178 3176.8402,-181.5001 3176.8402,-174.5001"/>
</g>
<!-- JwtComponent -->
<g id="node7" class="node">
<title>JwtComponent</title>
<polygon fill="#ffffb3" stroke="#000000" points="5422.2745,-122 5321.7255,-122 5321.7255,-86 5422.2745,-86 5422.2745,-122"/>
<text text-anchor="middle" x="5372" y="-99.8" font-family="Times,serif" font-size="14.00" fill="#000000">JwtComponent</text>
</g>
<!-- JwtComponent&#45;&gt;AppModule -->
<g id="edge7" class="edge">
<title>JwtComponent&#45;&gt;AppModule</title>
<path fill="none" stroke="#000000" d="M5372,-122.1686C5372,-143.498 5372,-176 5372,-176 5372,-176 3176.8943,-176 3176.8943,-176"/>
<polygon fill="#000000" stroke="#000000" points="3176.8943,-172.5001 3166.8943,-176 3176.8943,-179.5001 3176.8943,-172.5001"/>
</g>
<!-- LoginComponent -->
<g id="node8" class="node">
<title>LoginComponent</title>
<polygon fill="#ffffb3" stroke="#000000" points="5303.2758,-122 5188.7242,-122 5188.7242,-86 5303.2758,-86 5303.2758,-122"/>
<text text-anchor="middle" x="5246" y="-99.8" font-family="Times,serif" font-size="14.00" fill="#000000">LoginComponent</text>
</g>
<!-- LoginComponent&#45;&gt;AppModule -->
<g id="edge8" class="edge">
<title>LoginComponent&#45;&gt;AppModule</title>
<path fill="none" stroke="#000000" d="M5246,-122.0267C5246,-142.7672 5246,-174 5246,-174 5246,-174 3176.891,-174 3176.891,-174"/>
<polygon fill="#000000" stroke="#000000" points="3176.891,-170.5001 3166.891,-174 3176.891,-177.5001 3176.891,-170.5001"/>
</g>
<!-- LogoutComponent -->
<g id="node9" class="node">
<title>LogoutComponent</title>
<polygon fill="#ffffb3" stroke="#000000" points="5170.7758,-122 5049.2242,-122 5049.2242,-86 5170.7758,-86 5170.7758,-122"/>
<text text-anchor="middle" x="5110" y="-99.8" font-family="Times,serif" font-size="14.00" fill="#000000">LogoutComponent</text>
</g>
<!-- LogoutComponent&#45;&gt;AppModule -->
<g id="edge9" class="edge">
<title>LogoutComponent&#45;&gt;AppModule</title>
<path fill="none" stroke="#000000" d="M5110,-122.1289C5110,-142.5724 5110,-173 5110,-173 5110,-173 3176.9175,-173 3176.9175,-173"/>
<polygon fill="#000000" stroke="#000000" points="3176.9176,-169.5001 3166.9175,-173 3176.9175,-176.5001 3176.9176,-169.5001"/>
</g>
<!-- MFAComponent -->
<g id="node10" class="node">
<title>MFAComponent</title>
<polygon fill="#ffffb3" stroke="#000000" points="5030.6667,-122 4919.3333,-122 4919.3333,-86 5030.6667,-86 5030.6667,-122"/>
<text text-anchor="middle" x="4975" y="-99.8" font-family="Times,serif" font-size="14.00" fill="#000000">MFAComponent</text>
</g>
<!-- MFAComponent&#45;&gt;AppModule -->
<g id="edge10" class="edge">
<title>MFAComponent&#45;&gt;AppModule</title>
<path fill="none" stroke="#000000" d="M4975,-122.308C4975,-142.1455 4975,-171 4975,-171 4975,-171 3176.6737,-171 3176.6737,-171"/>
<polygon fill="#000000" stroke="#000000" points="3176.6737,-167.5001 3166.6737,-171 3176.6736,-174.5001 3176.6737,-167.5001"/>
</g>
<!-- MyProfileComponent -->
<g id="node11" class="node">
<title>MyProfileComponent</title>
<polygon fill="#ffffb3" stroke="#000000" points="4901.3767,-122 4762.6233,-122 4762.6233,-86 4901.3767,-86 4901.3767,-122"/>
<text text-anchor="middle" x="4832" y="-99.8" font-family="Times,serif" font-size="14.00" fill="#000000">MyProfileComponent</text>
</g>
<!-- MyProfileComponent&#45;&gt;AppModule -->
<g id="edge11" class="edge">
<title>MyProfileComponent&#45;&gt;AppModule</title>
<path fill="none" stroke="#000000" d="M4832,-122.1061C4832,-141.3391 4832,-169 4832,-169 4832,-169 3176.7718,-169 3176.7718,-169"/>
<polygon fill="#000000" stroke="#000000" points="3176.7719,-165.5001 3166.7718,-169 3176.7718,-172.5001 3176.7719,-165.5001"/>
</g>
<!-- NewPasswordComponent -->
<g id="node12" class="node">
<title>NewPasswordComponent</title>
<polygon fill="#ffffb3" stroke="#000000" points="4744.9143,-122 4583.0857,-122 4583.0857,-86 4744.9143,-86 4744.9143,-122"/>
<text text-anchor="middle" x="4664" y="-99.8" font-family="Times,serif" font-size="14.00" fill="#000000">NewPasswordComponent</text>
</g>
<!-- NewPasswordComponent&#45;&gt;AppModule -->
<g id="edge12" class="edge">
<title>NewPasswordComponent&#45;&gt;AppModule</title>
<path fill="none" stroke="#000000" d="M4664,-122.1686C4664,-141.0898 4664,-168 4664,-168 4664,-168 3176.9627,-168 3176.9627,-168"/>
<polygon fill="#000000" stroke="#000000" points="3176.9627,-164.5001 3166.9627,-168 3176.9627,-171.5001 3176.9627,-164.5001"/>
</g>
<!-- RegisterComponent -->
<g id="node13" class="node">
<title>RegisterComponent</title>
<polygon fill="#ffffb3" stroke="#000000" points="4564.9846,-122 4437.0154,-122 4437.0154,-86 4564.9846,-86 4564.9846,-122"/>
<text text-anchor="middle" x="4501" y="-99.8" font-family="Times,serif" font-size="14.00" fill="#000000">RegisterComponent</text>
</g>
<!-- RegisterComponent&#45;&gt;AppModule -->
<g id="edge13" class="edge">
<title>RegisterComponent&#45;&gt;AppModule</title>
<path fill="none" stroke="#000000" d="M4501,-122.2667C4501,-140.5552 4501,-166 4501,-166 4501,-166 3176.9323,-166 3176.9323,-166"/>
<polygon fill="#000000" stroke="#000000" points="3176.9323,-162.5001 3166.9323,-166 3176.9322,-169.5001 3176.9323,-162.5001"/>
</g>
<!-- RegistrationConfirmationComponent -->
<g id="node14" class="node">
<title>RegistrationConfirmationComponent</title>
<polygon fill="#ffffb3" stroke="#000000" points="4418.7007,-122 4193.2993,-122 4193.2993,-86 4418.7007,-86 4418.7007,-122"/>
<text text-anchor="middle" x="4306" y="-99.8" font-family="Times,serif" font-size="14.00" fill="#000000">RegistrationConfirmationComponent</text>
</g>
<!-- RegistrationConfirmationComponent&#45;&gt;AppModule -->
<g id="edge14" class="edge">
<title>RegistrationConfirmationComponent&#45;&gt;AppModule</title>
<path fill="none" stroke="#000000" d="M4306,-122.302C4306,-140.2699 4306,-165 4306,-165 4306,-165 3176.6855,-165 3176.6855,-165"/>
<polygon fill="#000000" stroke="#000000" points="3176.6856,-161.5001 3166.6855,-165 3176.6855,-168.5001 3176.6856,-161.5001"/>
</g>
<!-- ResendCodeComponent -->
<g id="node15" class="node">
<title>ResendCodeComponent</title>
<polygon fill="#ffffb3" stroke="#000000" points="4175.094,-122 4022.906,-122 4022.906,-86 4175.094,-86 4175.094,-122"/>
<text text-anchor="middle" x="4099" y="-99.8" font-family="Times,serif" font-size="14.00" fill="#000000">ResendCodeComponent</text>
</g>
<!-- ResendCodeComponent&#45;&gt;AppModule -->
<g id="edge15" class="edge">
<title>ResendCodeComponent&#45;&gt;AppModule</title>
<path fill="none" stroke="#000000" d="M4099,-122.0225C4099,-139.3734 4099,-163 4099,-163 4099,-163 3176.8516,-163 3176.8516,-163"/>
<polygon fill="#000000" stroke="#000000" points="3176.8516,-159.5001 3166.8516,-163 3176.8515,-166.5001 3176.8516,-159.5001"/>
</g>
<!-- SecureHomeComponent -->
<g id="node16" class="node">
<title>SecureHomeComponent</title>
<polygon fill="#ffffb3" stroke="#000000" points="4004.6316,-122 3851.3684,-122 3851.3684,-86 4004.6316,-86 4004.6316,-122"/>
<text text-anchor="middle" x="3928" y="-99.8" font-family="Times,serif" font-size="14.00" fill="#000000">SecureHomeComponent</text>
</g>
<!-- SecureHomeComponent&#45;&gt;AppModule -->
<g id="edge16" class="edge">
<title>SecureHomeComponent&#45;&gt;AppModule</title>
<path fill="none" stroke="#000000" d="M3928,-122.0352C3928,-138.7344 3928,-161 3928,-161 3928,-161 3176.7616,-161 3176.7616,-161"/>
<polygon fill="#000000" stroke="#000000" points="3176.7616,-157.5001 3166.7616,-161 3176.7616,-164.5001 3176.7616,-157.5001"/>
</g>
<!-- UseractivityComponent -->
<g id="node17" class="node">
<title>UseractivityComponent</title>
<polygon fill="#ffffb3" stroke="#000000" points="3832.7506,-122 3683.2494,-122 3683.2494,-86 3832.7506,-86 3832.7506,-122"/>
<text text-anchor="middle" x="3758" y="-99.8" font-family="Times,serif" font-size="14.00" fill="#000000">UseractivityComponent</text>
</g>
<!-- UseractivityComponent&#45;&gt;AppModule -->
<g id="edge17" class="edge">
<title>UseractivityComponent&#45;&gt;AppModule</title>
<path fill="none" stroke="#000000" d="M3758,-122.027C3758,-138.3976 3758,-160 3758,-160 3758,-160 3177.0231,-160 3177.0231,-160"/>
<polygon fill="#000000" stroke="#000000" points="3177.0232,-156.5001 3167.0231,-160 3177.0231,-163.5001 3177.0232,-156.5001"/>
</g>
<!-- AppComponent  -->
<g id="node39" class="node">
<title>AppComponent </title>
<polygon fill="#80b1d3" stroke="#000000" points="3179.439,-252 3070.561,-252 3070.561,-216 3179.439,-216 3179.439,-252"/>
<text text-anchor="middle" x="3125" y="-229.8" font-family="Times,serif" font-size="14.00" fill="#000000">AppComponent </text>
</g>
<!-- AppModule&#45;&gt;AppComponent  -->
<g id="edge38" class="edge">
<title>AppModule&#45;&gt;AppComponent </title>
<path fill="none" stroke="#000000" stroke-dasharray="1,5" d="M3125,-187.1061C3125,-187.1061 3125,-205.991 3125,-205.991"/>
<polygon fill="#000000" stroke="#000000" points="3121.5001,-205.9909 3125,-215.991 3128.5001,-205.991 3121.5001,-205.9909"/>
</g>
<!-- BillingModule -->
<g id="node19" class="node">
<title>BillingModule</title>
<polygon fill="#8dd3c7" stroke="#000000" points="3659.4498,-122 3656.4498,-126 3635.4498,-126 3632.4498,-122 3560.5502,-122 3560.5502,-86 3659.4498,-86 3659.4498,-122"/>
<text text-anchor="middle" x="3610" y="-99.8" font-family="Times,serif" font-size="14.00" fill="#000000">BillingModule</text>
</g>
<!-- BillingModule&#45;&gt;AppModule -->
<g id="edge18" class="edge">
<title>BillingModule&#45;&gt;AppModule</title>
<path fill="none" stroke="#000000" d="M3610,-122.2819C3610,-137.9478 3610,-158 3610,-158 3610,-158 3176.7706,-158 3176.7706,-158"/>
<polygon fill="#000000" stroke="#000000" points="3176.7706,-154.5001 3166.7706,-158 3176.7706,-161.5001 3176.7706,-154.5001"/>
</g>
<!-- BulkLoadModule -->
<g id="node20" class="node">
<title>BulkLoadModule</title>
<polygon fill="#8dd3c7" stroke="#000000" points="3542.5451,-122 3539.5451,-126 3518.5451,-126 3515.5451,-122 3427.4549,-122 3427.4549,-86 3542.5451,-86 3542.5451,-122"/>
<text text-anchor="middle" x="3485" y="-99.8" font-family="Times,serif" font-size="14.00" fill="#000000">BulkLoadModule</text>
</g>
<!-- BulkLoadModule&#45;&gt;AppModule -->
<g id="edge19" class="edge">
<title>BulkLoadModule&#45;&gt;AppModule</title>
<path fill="none" stroke="#000000" d="M3485,-122.1871C3485,-137.1824 3485,-156 3485,-156 3485,-156 3177.0011,-156 3177.0011,-156"/>
<polygon fill="#000000" stroke="#000000" points="3177.0012,-152.5001 3167.0011,-156 3177.0011,-159.5001 3177.0012,-152.5001"/>
</g>
<!-- DetailModule -->
<g id="node21" class="node">
<title>DetailModule</title>
<polygon fill="#8dd3c7" stroke="#000000" points="3408.7577,-122 3405.7577,-126 3384.7577,-126 3381.7577,-122 3315.2423,-122 3315.2423,-86 3408.7577,-86 3408.7577,-122"/>
<text text-anchor="middle" x="3362" y="-99.8" font-family="Times,serif" font-size="14.00" fill="#000000">DetailModule</text>
</g>
<!-- DetailModule&#45;&gt;AppModule -->
<g id="edge20" class="edge">
<title>DetailModule&#45;&gt;AppModule</title>
<path fill="none" stroke="#000000" d="M3362,-122.1243C3362,-136.7832 3362,-155 3362,-155 3362,-155 3176.8253,-155 3176.8253,-155"/>
<polygon fill="#000000" stroke="#000000" points="3176.8253,-151.5001 3166.8253,-155 3176.8253,-158.5001 3176.8253,-151.5001"/>
</g>
<!-- DispatchModule -->
<g id="node22" class="node">
<title>DispatchModule</title>
<polygon fill="#8dd3c7" stroke="#000000" points="3296.8118,-122 3293.8118,-126 3272.8118,-126 3269.8118,-122 3187.1882,-122 3187.1882,-86 3296.8118,-86 3296.8118,-122"/>
<text text-anchor="middle" x="3242" y="-99.8" font-family="Times,serif" font-size="14.00" fill="#000000">DispatchModule</text>
</g>
<!-- DispatchModule&#45;&gt;AppModule -->
<g id="edge21" class="edge">
<title>DispatchModule&#45;&gt;AppModule</title>
<path fill="none" stroke="#000000" d="M3242,-122.2458C3242,-136.1772 3242,-153 3242,-153 3242,-153 3176.9092,-153 3176.9092,-153"/>
<polygon fill="#000000" stroke="#000000" points="3176.9093,-149.5001 3166.9092,-153 3176.9092,-156.5001 3176.9093,-149.5001"/>
</g>
<!-- ErrroModule -->
<g id="node23" class="node">
<title>ErrroModule</title>
<polygon fill="#8dd3c7" stroke="#000000" points="3169.5842,-122 3166.5842,-126 3145.5842,-126 3142.5842,-122 3080.4158,-122 3080.4158,-86 3169.5842,-86 3169.5842,-122"/>
<text text-anchor="middle" x="3125" y="-99.8" font-family="Times,serif" font-size="14.00" fill="#000000">ErrroModule</text>
</g>
<!-- ErrroModule&#45;&gt;AppModule -->
<g id="edge22" class="edge">
<title>ErrroModule&#45;&gt;AppModule</title>
<path fill="none" stroke="#000000" d="M3125,-122.1061C3125,-122.1061 3125,-140.991 3125,-140.991"/>
<polygon fill="#000000" stroke="#000000" points="3121.5001,-140.9909 3125,-150.991 3128.5001,-140.991 3121.5001,-140.9909"/>
</g>
<!-- HistoricModule -->
<g id="node24" class="node">
<title>HistoricModule</title>
<polygon fill="#8dd3c7" stroke="#000000" points="3062.1486,-122 3059.1486,-126 3038.1486,-126 3035.1486,-122 2957.8514,-122 2957.8514,-86 3062.1486,-86 3062.1486,-122"/>
<text text-anchor="middle" x="3010" y="-99.8" font-family="Times,serif" font-size="14.00" fill="#000000">HistoricModule</text>
</g>
<!-- HistoricModule&#45;&gt;AppModule -->
<g id="edge23" class="edge">
<title>HistoricModule&#45;&gt;AppModule</title>
<path fill="none" stroke="#000000" d="M3010,-122.2458C3010,-136.1772 3010,-153 3010,-153 3010,-153 3073.157,-153 3073.157,-153"/>
<polygon fill="#000000" stroke="#000000" points="3073.1571,-156.5001 3083.157,-153 3073.157,-149.5001 3073.1571,-156.5001"/>
</g>
<!-- InDevolutionModule -->
<g id="node25" class="node">
<title>InDevolutionModule</title>
<polygon fill="#8dd3c7" stroke="#000000" points="2940.2036,-122 2937.2036,-126 2916.2036,-126 2913.2036,-122 2805.7964,-122 2805.7964,-86 2940.2036,-86 2940.2036,-122"/>
<text text-anchor="middle" x="2873" y="-99.8" font-family="Times,serif" font-size="14.00" fill="#000000">InDevolutionModule</text>
</g>
<!-- InDevolutionModule&#45;&gt;AppModule -->
<g id="edge24" class="edge">
<title>InDevolutionModule&#45;&gt;AppModule</title>
<path fill="none" stroke="#000000" d="M2873,-122.1243C2873,-136.7832 2873,-155 2873,-155 2873,-155 3073.1044,-155 3073.1044,-155"/>
<polygon fill="#000000" stroke="#000000" points="3073.1045,-158.5001 3083.1044,-155 3073.1044,-151.5001 3073.1045,-158.5001"/>
</g>
<!-- InValidationModule -->
<g id="node26" class="node">
<title>InValidationModule</title>
<polygon fill="#8dd3c7" stroke="#000000" points="2788.309,-122 2785.309,-126 2764.309,-126 2761.309,-122 2657.691,-122 2657.691,-86 2788.309,-86 2788.309,-122"/>
<text text-anchor="middle" x="2723" y="-99.8" font-family="Times,serif" font-size="14.00" fill="#000000">InValidationModule</text>
</g>
<!-- InValidationModule&#45;&gt;AppModule -->
<g id="edge25" class="edge">
<title>InValidationModule&#45;&gt;AppModule</title>
<path fill="none" stroke="#000000" d="M2723,-122.1871C2723,-137.1824 2723,-156 2723,-156 2723,-156 3073.1166,-156 3073.1166,-156"/>
<polygon fill="#000000" stroke="#000000" points="3073.1166,-159.5001 3083.1166,-156 3073.1166,-152.5001 3073.1166,-159.5001"/>
</g>
<!-- ListModule -->
<g id="node27" class="node">
<title>ListModule</title>
<polygon fill="#8dd3c7" stroke="#000000" points="2639.8289,-122 2636.8289,-126 2615.8289,-126 2612.8289,-122 2558.1711,-122 2558.1711,-86 2639.8289,-86 2639.8289,-122"/>
<text text-anchor="middle" x="2599" y="-99.8" font-family="Times,serif" font-size="14.00" fill="#000000">ListModule</text>
</g>
<!-- ListModule&#45;&gt;AppModule -->
<g id="edge26" class="edge">
<title>ListModule&#45;&gt;AppModule</title>
<path fill="none" stroke="#000000" d="M2599,-122.2819C2599,-137.9478 2599,-158 2599,-158 2599,-158 3073.286,-158 3073.286,-158"/>
<polygon fill="#000000" stroke="#000000" points="3073.286,-161.5001 3083.286,-158 3073.286,-154.5001 3073.286,-161.5001"/>
</g>
<!-- LoadGuideModule -->
<g id="node28" class="node">
<title>LoadGuideModule</title>
<polygon fill="#8dd3c7" stroke="#000000" points="2540.0297,-122 2537.0297,-126 2516.0297,-126 2513.0297,-122 2417.9703,-122 2417.9703,-86 2540.0297,-86 2540.0297,-122"/>
<text text-anchor="middle" x="2479" y="-99.8" font-family="Times,serif" font-size="14.00" fill="#000000">LoadGuideModule</text>
</g>
<!-- LoadGuideModule&#45;&gt;AppModule -->
<g id="edge27" class="edge">
<title>LoadGuideModule&#45;&gt;AppModule</title>
<path fill="none" stroke="#000000" d="M2479,-122.027C2479,-138.3976 2479,-160 2479,-160 2479,-160 3073.1119,-160 3073.1119,-160"/>
<polygon fill="#000000" stroke="#000000" points="3073.1119,-163.5001 3083.1119,-160 3073.1118,-156.5001 3073.1119,-163.5001"/>
</g>
<!-- MaterialModule -->
<g id="node29" class="node">
<title>MaterialModule</title>
<polygon fill="#8dd3c7" stroke="#000000" points="2399.4706,-122 2396.4706,-126 2375.4706,-126 2372.4706,-122 2292.5294,-122 2292.5294,-86 2399.4706,-86 2399.4706,-122"/>
<text text-anchor="middle" x="2346" y="-99.8" font-family="Times,serif" font-size="14.00" fill="#000000">MaterialModule</text>
</g>
<!-- MaterialModule&#45;&gt;AppModule -->
<g id="edge28" class="edge">
<title>MaterialModule&#45;&gt;AppModule</title>
<path fill="none" stroke="#000000" d="M2346,-122.0352C2346,-138.7344 2346,-161 2346,-161 2346,-161 3073.1176,-161 3073.1176,-161"/>
<polygon fill="#000000" stroke="#000000" points="3073.1176,-164.5001 3083.1176,-161 3073.1175,-157.5001 3073.1176,-164.5001"/>
</g>
<!-- OrdersModule -->
<g id="node30" class="node">
<title>OrdersModule</title>
<polygon fill="#8dd3c7" stroke="#000000" points="2274.6375,-122 2271.6375,-126 2250.6375,-126 2247.6375,-122 2177.3625,-122 2177.3625,-86 2274.6375,-86 2274.6375,-122"/>
<text text-anchor="middle" x="2226" y="-99.8" font-family="Times,serif" font-size="14.00" fill="#000000">OrdersModule</text>
</g>
<!-- OrdersModule&#45;&gt;AppModule -->
<g id="edge29" class="edge">
<title>OrdersModule&#45;&gt;AppModule</title>
<path fill="none" stroke="#000000" d="M2226,-122.0225C2226,-139.3734 2226,-163 2226,-163 2226,-163 3073.1442,-163 3073.1442,-163"/>
<polygon fill="#000000" stroke="#000000" points="3073.1443,-166.5001 3083.1442,-163 3073.1442,-159.5001 3073.1443,-166.5001"/>
</g>
<!-- PendingDevolutionModule -->
<g id="node31" class="node">
<title>PendingDevolutionModule</title>
<polygon fill="#8dd3c7" stroke="#000000" points="2159.4312,-122 2156.4312,-126 2135.4312,-126 2132.4312,-122 1990.5688,-122 1990.5688,-86 2159.4312,-86 2159.4312,-122"/>
<text text-anchor="middle" x="2075" y="-99.8" font-family="Times,serif" font-size="14.00" fill="#000000">PendingDevolutionModule</text>
</g>
<!-- PendingDevolutionModule&#45;&gt;AppModule -->
<g id="edge30" class="edge">
<title>PendingDevolutionModule&#45;&gt;AppModule</title>
<path fill="none" stroke="#000000" d="M2075,-122.302C2075,-140.2699 2075,-165 2075,-165 2075,-165 3073.1908,-165 3073.1908,-165"/>
<polygon fill="#000000" stroke="#000000" points="3073.1908,-168.5001 3083.1908,-165 3073.1908,-161.5001 3073.1908,-168.5001"/>
</g>
<!-- PendingModule -->
<g id="node32" class="node">
<title>PendingModule</title>
<polygon fill="#8dd3c7" stroke="#000000" points="1972.9385,-122 1969.9385,-126 1948.9385,-126 1945.9385,-122 1867.0615,-122 1867.0615,-86 1972.9385,-86 1972.9385,-122"/>
<text text-anchor="middle" x="1920" y="-99.8" font-family="Times,serif" font-size="14.00" fill="#000000">PendingModule</text>
</g>
<!-- PendingModule&#45;&gt;AppModule -->
<g id="edge31" class="edge">
<title>PendingModule&#45;&gt;AppModule</title>
<path fill="none" stroke="#000000" d="M1920,-122.2667C1920,-140.5552 1920,-166 1920,-166 1920,-166 3073.1712,-166 3073.1712,-166"/>
<polygon fill="#000000" stroke="#000000" points="3073.1713,-169.5001 3083.1712,-166 3073.1712,-162.5001 3073.1713,-169.5001"/>
</g>
<!-- RegisterModule -->
<g id="node33" class="node">
<title>RegisterModule</title>
<polygon fill="#8dd3c7" stroke="#000000" points="1849.2022,-122 1846.2022,-126 1825.2022,-126 1822.2022,-122 1742.7978,-122 1742.7978,-86 1849.2022,-86 1849.2022,-122"/>
<text text-anchor="middle" x="1796" y="-99.8" font-family="Times,serif" font-size="14.00" fill="#000000">RegisterModule</text>
</g>
<!-- RegisterModule&#45;&gt;AppModule -->
<g id="edge32" class="edge">
<title>RegisterModule&#45;&gt;AppModule</title>
<path fill="none" stroke="#000000" d="M1796,-122.1686C1796,-141.0898 1796,-168 1796,-168 1796,-168 3073.0307,-168 3073.0307,-168"/>
<polygon fill="#000000" stroke="#000000" points="3073.0307,-171.5001 3083.0307,-168 3073.0306,-164.5001 3073.0307,-171.5001"/>
</g>
<!-- ReportsModule -->
<g id="node34" class="node">
<title>ReportsModule</title>
<polygon fill="#8dd3c7" stroke="#000000" points="1724.5968,-122 1721.5968,-126 1700.5968,-126 1697.5968,-122 1621.4032,-122 1621.4032,-86 1724.5968,-86 1724.5968,-122"/>
<text text-anchor="middle" x="1673" y="-99.8" font-family="Times,serif" font-size="14.00" fill="#000000">ReportsModule</text>
</g>
<!-- ReportsModule&#45;&gt;AppModule -->
<g id="edge33" class="edge">
<title>ReportsModule&#45;&gt;AppModule</title>
<path fill="none" stroke="#000000" d="M1673,-122.1061C1673,-141.3391 1673,-169 1673,-169 1673,-169 3073.1104,-169 3073.1104,-169"/>
<polygon fill="#000000" stroke="#000000" points="3073.1104,-172.5001 3083.1104,-169 3073.1103,-165.5001 3073.1104,-172.5001"/>
</g>
<!-- ShellModule -->
<g id="node35" class="node">
<title>ShellModule</title>
<polygon fill="#8dd3c7" stroke="#000000" points="1603.3288,-122 1600.3288,-126 1579.3288,-126 1576.3288,-122 1514.6712,-122 1514.6712,-86 1603.3288,-86 1603.3288,-122"/>
<text text-anchor="middle" x="1559" y="-99.8" font-family="Times,serif" font-size="14.00" fill="#000000">ShellModule</text>
</g>
<!-- ShellModule&#45;&gt;AppModule -->
<g id="edge34" class="edge">
<title>ShellModule&#45;&gt;AppModule</title>
<path fill="none" stroke="#000000" d="M1559,-122.308C1559,-142.1455 1559,-171 1559,-171 1559,-171 3073.1133,-171 3073.1133,-171"/>
<polygon fill="#000000" stroke="#000000" points="3073.1133,-174.5001 3083.1133,-171 3073.1132,-167.5001 3073.1133,-174.5001"/>
</g>
<!-- StoresModule -->
<g id="node36" class="node">
<title>StoresModule</title>
<polygon fill="#8dd3c7" stroke="#000000" points="1497.0439,-122 1494.0439,-126 1473.0439,-126 1470.0439,-122 1402.9561,-122 1402.9561,-86 1497.0439,-86 1497.0439,-122"/>
<text text-anchor="middle" x="1450" y="-99.8" font-family="Times,serif" font-size="14.00" fill="#000000">StoresModule</text>
</g>
<!-- StoresModule&#45;&gt;AppModule -->
<g id="edge35" class="edge">
<title>StoresModule&#45;&gt;AppModule</title>
<path fill="none" stroke="#000000" d="M1450,-122.1289C1450,-142.5724 1450,-173 1450,-173 1450,-173 3073.1774,-173 3073.1774,-173"/>
<polygon fill="#000000" stroke="#000000" points="3073.1774,-176.5001 3083.1774,-173 3073.1773,-169.5001 3073.1774,-176.5001"/>
</g>
<!-- ToolbarLinkModule -->
<g id="node37" class="node">
<title>ToolbarLinkModule</title>
<polygon fill="#8dd3c7" stroke="#000000" points="1385.3118,-122 1382.3118,-126 1361.3118,-126 1358.3118,-122 1254.6882,-122 1254.6882,-86 1385.3118,-86 1385.3118,-122"/>
<text text-anchor="middle" x="1320" y="-99.8" font-family="Times,serif" font-size="14.00" fill="#000000">ToolbarLinkModule</text>
</g>
<!-- ToolbarLinkModule&#45;&gt;AppModule -->
<g id="edge36" class="edge">
<title>ToolbarLinkModule&#45;&gt;AppModule</title>
<path fill="none" stroke="#000000" d="M1320,-122.0267C1320,-142.7672 1320,-174 1320,-174 1320,-174 3073.0396,-174 3073.0396,-174"/>
<polygon fill="#000000" stroke="#000000" points="3073.0396,-177.5001 3083.0396,-174 3073.0396,-170.5001 3073.0396,-177.5001"/>
</g>
<!-- ToolbarOptionsModule -->
<g id="node38" class="node">
<title>ToolbarOptionsModule</title>
<polygon fill="#8dd3c7" stroke="#000000" points="1237.2007,-122 1234.2007,-126 1213.2007,-126 1210.2007,-122 1088.7993,-122 1088.7993,-86 1237.2007,-86 1237.2007,-122"/>
<text text-anchor="middle" x="1163" y="-99.8" font-family="Times,serif" font-size="14.00" fill="#000000">ToolbarOptionsModule</text>
</g>
<!-- ToolbarOptionsModule&#45;&gt;AppModule -->
<g id="edge37" class="edge">
<title>ToolbarOptionsModule&#45;&gt;AppModule</title>
<path fill="none" stroke="#000000" d="M1163,-122.1686C1163,-143.498 1163,-176 1163,-176 1163,-176 3073.1132,-176 3073.1132,-176"/>
<polygon fill="#000000" stroke="#000000" points="3073.1132,-179.5001 3083.1132,-176 3073.1131,-172.5001 3073.1132,-179.5001"/>
</g>
<!-- AwsUtil -->
<g id="node40" class="node">
<title>AwsUtil</title>
<ellipse fill="#fdb462" stroke="#000000" cx="1021" cy="-104" rx="43.5156" ry="18"/>
<text text-anchor="middle" x="1021" y="-99.8" font-family="Times,serif" font-size="14.00" fill="#000000">AwsUtil</text>
</g>
<!-- AwsUtil&#45;&gt;AppModule -->
<g id="edge39" class="edge">
<title>AwsUtil&#45;&gt;AppModule</title>
<path fill="none" stroke="#000000" d="M1021,-122.2921C1021,-144.2057 1021,-178 1021,-178 1021,-178 3072.9718,-178 3072.9718,-178"/>
<polygon fill="#000000" stroke="#000000" points="3072.9718,-181.5001 3082.9718,-178 3072.9718,-174.5001 3072.9718,-181.5001"/>
</g>
<!-- CognitoUtil -->
<g id="node41" class="node">
<title>CognitoUtil</title>
<ellipse fill="#fdb462" stroke="#000000" cx="902" cy="-104" rx="57.3611" ry="18"/>
<text text-anchor="middle" x="902" y="-99.8" font-family="Times,serif" font-size="14.00" fill="#000000">CognitoUtil</text>
</g>
<!-- CognitoUtil&#45;&gt;AppModule -->
<g id="edge40" class="edge">
<title>CognitoUtil&#45;&gt;AppModule</title>
<path fill="none" stroke="#000000" d="M902,-122.1554C902,-144.3519 902,-179 902,-179 902,-179 3073.0667,-179 3073.0667,-179"/>
<polygon fill="#000000" stroke="#000000" points="3073.0668,-182.5001 3083.0667,-179 3073.0667,-175.5001 3073.0668,-182.5001"/>
</g>
<!-- DynamoDBService -->
<g id="node42" class="node">
<title>DynamoDBService</title>
<ellipse fill="#fdb462" stroke="#000000" cx="740" cy="-104" rx="86.8184" ry="18"/>
<text text-anchor="middle" x="740" y="-99.8" font-family="Times,serif" font-size="14.00" fill="#000000">DynamoDBService</text>
</g>
<!-- DynamoDBService&#45;&gt;AppModule -->
<g id="edge41" class="edge">
<title>DynamoDBService&#45;&gt;AppModule</title>
<path fill="none" stroke="#000000" d="M740,-122.2479C740,-145.0179 740,-181 740,-181 740,-181 3073.0992,-181 3073.0992,-181"/>
<polygon fill="#000000" stroke="#000000" points="3073.0992,-184.5001 3083.0992,-181 3073.0991,-177.5001 3073.0992,-184.5001"/>
</g>
<!-- UserLoginService -->
<g id="node43" class="node">
<title>UserLoginService</title>
<ellipse fill="#fdb462" stroke="#000000" cx="554" cy="-104" rx="81.0782" ry="18"/>
<text text-anchor="middle" x="554" y="-99.8" font-family="Times,serif" font-size="14.00" fill="#000000">UserLoginService</text>
</g>
<!-- UserLoginService&#45;&gt;AppModule -->
<g id="edge42" class="edge">
<title>UserLoginService&#45;&gt;AppModule</title>
<path fill="none" stroke="#000000" d="M554,-122.3228C554,-145.6602 554,-183 554,-183 554,-183 3073.3121,-183 3073.3121,-183"/>
<polygon fill="#000000" stroke="#000000" points="3073.3121,-186.5001 3083.3121,-183 3073.3121,-179.5001 3073.3121,-186.5001"/>
</g>
<!-- UserParametersService -->
<g id="node44" class="node">
<title>UserParametersService</title>
<ellipse fill="#fdb462" stroke="#000000" cx="354" cy="-104" rx="101.2331" ry="18"/>
<text text-anchor="middle" x="354" y="-99.8" font-family="Times,serif" font-size="14.00" fill="#000000">UserParametersService</text>
</g>
<!-- UserParametersService&#45;&gt;AppModule -->
<g id="edge43" class="edge">
<title>UserParametersService&#45;&gt;AppModule</title>
<path fill="none" stroke="#000000" d="M354,-122.1532C354,-145.7566 354,-184 354,-184 354,-184 3073.1324,-184 3073.1324,-184"/>
<polygon fill="#000000" stroke="#000000" points="3073.1324,-187.5001 3083.1324,-184 3073.1324,-180.5001 3073.1324,-187.5001"/>
</g>
<!-- UserRegistrationService -->
<g id="node45" class="node">
<title>UserRegistrationService</title>
<ellipse fill="#fdb462" stroke="#000000" cx="129" cy="-104" rx="105.349" ry="18"/>
<text text-anchor="middle" x="129" y="-99.8" font-family="Times,serif" font-size="14.00" fill="#000000">UserRegistrationService</text>
</g>
<!-- UserRegistrationService&#45;&gt;AppModule -->
<g id="edge44" class="edge">
<title>UserRegistrationService&#45;&gt;AppModule</title>
<path fill="none" stroke="#000000" d="M129,-122.1985C129,-146.3563 129,-186 129,-186 129,-186 3073.2195,-186 3073.2195,-186"/>
<polygon fill="#000000" stroke="#000000" points="3073.2196,-189.5001 3083.2195,-186 3073.2195,-182.5001 3073.2196,-189.5001"/>
</g>
</g>
</svg>
