<?xml version="1.0" encoding="UTF-8" standalone="no"?>
<!DOCTYPE svg PUBLIC "-//W3C//DTD SVG 1.1//EN"
 "http://www.w3.org/Graphics/SVG/1.1/DTD/svg11.dtd">
<!-- Generated by graphviz version 2.40.1 (20161225.0304)
 -->
<!-- Title: dependencies Pages: 1 -->
<svg width="647pt" height="284pt"
 viewBox="0.00 0.00 647.00 284.00" xmlns="http://www.w3.org/2000/svg" xmlns:xlink="http://www.w3.org/1999/xlink">
<g id="graph0" class="graph" transform="scale(1 1) rotate(0) translate(4 280)">
<title>dependencies</title>
<polygon fill="#ffffff" stroke="transparent" points="-4,4 -4,-280 643,-280 643,4 -4,4"/>
<text text-anchor="start" x="298.5091" y="-42.4" font-family="sans-serif" font-weight="bold" font-size="14.00" fill="#000000">Legend</text>
<polygon fill="#ffffb3" stroke="transparent" points="85.5,-10 85.5,-30 105.5,-30 105.5,-10 85.5,-10"/>
<text text-anchor="start" x="109.129" y="-15.4" font-family="sans-serif" font-size="14.00" fill="#000000"> &#160;Declarations</text>
<polygon fill="#8dd3c7" stroke="transparent" points="198.5,-10 198.5,-30 218.5,-30 218.5,-10 198.5,-10"/>
<text text-anchor="start" x="222.2251" y="-15.4" font-family="sans-serif" font-size="14.00" fill="#000000"> &#160;Module</text>
<polygon fill="#80b1d3" stroke="transparent" points="284.5,-10 284.5,-30 304.5,-30 304.5,-10 284.5,-10"/>
<text text-anchor="start" x="308.2812" y="-15.4" font-family="sans-serif" font-size="14.00" fill="#000000"> &#160;Bootstrap</text>
<polygon fill="#fdb462" stroke="transparent" points="381.5,-10 381.5,-30 401.5,-30 401.5,-10 381.5,-10"/>
<text text-anchor="start" x="405.1732" y="-15.4" font-family="sans-serif" font-size="14.00" fill="#000000"> &#160;Providers</text>
<polygon fill="#fb8072" stroke="transparent" points="477.5,-10 477.5,-30 497.5,-30 497.5,-10 477.5,-10"/>
<text text-anchor="start" x="501.2258" y="-15.4" font-family="sans-serif" font-size="14.00" fill="#000000"> &#160;Exports</text>
<g id="clust1" class="cluster">
<title>cluster_AppModule</title>
<polygon fill="none" stroke="#000000" stroke-dasharray="1,5" points="8,-70 8,-268 631,-268 631,-70 8,-70"/>
</g>
<g id="clust2" class="cluster">
<title>cluster_AppModule_declarations</title>
<polygon fill="none" stroke="#000000" points="501,-78 501,-130 623,-130 623,-78 501,-78"/>
</g>
<g id="clust4" class="cluster">
<title>cluster_AppModule_imports</title>
<polygon fill="none" stroke="#000000" points="16,-78 16,-130 493,-130 493,-78 16,-78"/>
</g>
<g id="clust6" class="cluster">
<title>cluster_AppModule_bootstrap</title>
<polygon fill="none" stroke="#000000" points="233,-208 233,-260 357,-260 357,-208 233,-208"/>
</g>
<!-- AppComponent -->
<g id="node1" class="node">
<title>AppComponent</title>
<polygon fill="#ffffb3" stroke="#000000" points="614.9399,-122 509.0601,-122 509.0601,-86 614.9399,-86 614.9399,-122"/>
<text text-anchor="middle" x="562" y="-99.8" font-family="Times,serif" font-size="14.00" fill="#000000">AppComponent</text>
</g>
<!-- AppModule -->
<g id="node2" class="node">
<title>AppModule</title>
<polygon fill="#8dd3c7" stroke="#000000" points="336.6571,-187 333.6571,-191 312.6571,-191 309.6571,-187 253.3429,-187 253.3429,-151 336.6571,-151 336.6571,-187"/>
<text text-anchor="middle" x="295" y="-164.8" font-family="Times,serif" font-size="14.00" fill="#000000">AppModule</text>
</g>
<!-- AppComponent&#45;&gt;AppModule -->
<g id="edge1" class="edge">
<title>AppComponent&#45;&gt;AppModule</title>
<path fill="none" stroke="#000000" d="M562,-122.2843C562,-143.3211 562,-175 562,-175 562,-175 346.7188,-175 346.7188,-175"/>
<polygon fill="#000000" stroke="#000000" points="346.7188,-171.5001 336.7188,-175 346.7187,-178.5001 346.7188,-171.5001"/>
</g>
<!-- AppComponent  -->
<g id="node7" class="node">
<title>AppComponent </title>
<polygon fill="#80b1d3" stroke="#000000" points="349.439,-252 240.561,-252 240.561,-216 349.439,-216 349.439,-252"/>
<text text-anchor="middle" x="295" y="-229.8" font-family="Times,serif" font-size="14.00" fill="#000000">AppComponent </text>
</g>
<!-- AppModule&#45;&gt;AppComponent  -->
<g id="edge6" class="edge">
<title>AppModule&#45;&gt;AppComponent </title>
<path fill="none" stroke="#000000" stroke-dasharray="1,5" d="M295,-187.1061C295,-187.1061 295,-205.991 295,-205.991"/>
<polygon fill="#000000" stroke="#000000" points="291.5001,-205.9909 295,-215.991 298.5001,-205.991 291.5001,-205.9909"/>
</g>
<!-- AppRoutingModule -->
<g id="node3" class="node">
<title>AppRoutingModule</title>
<polygon fill="#8dd3c7" stroke="#000000" points="485.2744,-122 482.2744,-126 461.2744,-126 458.2744,-122 356.7256,-122 356.7256,-86 485.2744,-86 485.2744,-122"/>
<text text-anchor="middle" x="421" y="-99.8" font-family="Times,serif" font-size="14.00" fill="#000000">AppRoutingModule</text>
</g>
<!-- AppRoutingModule&#45;&gt;AppModule -->
<g id="edge2" class="edge">
<title>AppRoutingModule&#45;&gt;AppModule</title>
<path fill="none" stroke="#000000" d="M421,-122.0225C421,-139.3734 421,-163 421,-163 421,-163 346.9562,-163 346.9562,-163"/>
<polygon fill="#000000" stroke="#000000" points="346.9562,-159.5001 336.9562,-163 346.9561,-166.5001 346.9562,-159.5001"/>
</g>
<!-- CoreModule -->
<g id="node4" class="node">
<title>CoreModule</title>
<polygon fill="#8dd3c7" stroke="#000000" points="338.2619,-122 335.2619,-126 314.2619,-126 311.2619,-122 251.7381,-122 251.7381,-86 338.2619,-86 338.2619,-122"/>
<text text-anchor="middle" x="295" y="-99.8" font-family="Times,serif" font-size="14.00" fill="#000000">CoreModule</text>
</g>
<!-- CoreModule&#45;&gt;AppModule -->
<g id="edge3" class="edge">
<title>CoreModule&#45;&gt;AppModule</title>
<path fill="none" stroke="#000000" d="M295,-122.1061C295,-122.1061 295,-140.991 295,-140.991"/>
<polygon fill="#000000" stroke="#000000" points="291.5001,-140.9909 295,-150.991 298.5001,-140.991 291.5001,-140.9909"/>
</g>
<!-- HomeModule -->
<g id="node5" class="node">
<title>HomeModule</title>
<polygon fill="#8dd3c7" stroke="#000000" points="233.7619,-122 230.7619,-126 209.7619,-126 206.7619,-122 140.2381,-122 140.2381,-86 233.7619,-86 233.7619,-122"/>
<text text-anchor="middle" x="187" y="-99.8" font-family="Times,serif" font-size="14.00" fill="#000000">HomeModule</text>
</g>
<!-- HomeModule&#45;&gt;AppModule -->
<g id="edge4" class="edge">
<title>HomeModule&#45;&gt;AppModule</title>
<path fill="none" stroke="#000000" d="M187,-122.0225C187,-139.3734 187,-163 187,-163 187,-163 243.2444,-163 243.2444,-163"/>
<polygon fill="#000000" stroke="#000000" points="243.2444,-166.5001 253.2444,-163 243.2443,-159.5001 243.2444,-166.5001"/>
</g>
<!-- SecureModule -->
<g id="node6" class="node">
<title>SecureModule</title>
<polygon fill="#8dd3c7" stroke="#000000" points="121.6375,-122 118.6375,-126 97.6375,-126 94.6375,-122 24.3625,-122 24.3625,-86 121.6375,-86 121.6375,-122"/>
<text text-anchor="middle" x="73" y="-99.8" font-family="Times,serif" font-size="14.00" fill="#000000">SecureModule</text>
</g>
<!-- SecureModule&#45;&gt;AppModule -->
<g id="edge5" class="edge">
<title>SecureModule&#45;&gt;AppModule</title>
<path fill="none" stroke="#000000" d="M73,-122.2843C73,-143.3211 73,-175 73,-175 73,-175 243.2435,-175 243.2435,-175"/>
<polygon fill="#000000" stroke="#000000" points="243.2435,-178.5001 253.2435,-175 243.2435,-171.5001 243.2435,-178.5001"/>
</g>
</g>
</svg>
