<?xml version="1.0" encoding="UTF-8" standalone="no"?>
<!DOCTYPE svg PUBLIC "-//W3C//DTD SVG 1.1//EN"
 "http://www.w3.org/Graphics/SVG/1.1/DTD/svg11.dtd">
<!-- Generated by graphviz version 2.40.1 (20161225.0304)
 -->
<!-- Title: dependencies Pages: 1 -->
<svg width="763pt" height="284pt"
 viewBox="0.00 0.00 763.00 284.00" xmlns="http://www.w3.org/2000/svg" xmlns:xlink="http://www.w3.org/1999/xlink">
<g id="graph0" class="graph" transform="scale(1 1) rotate(0) translate(4 280)">
<title>dependencies</title>
<polygon fill="#ffffff" stroke="transparent" points="-4,4 -4,-280 759,-280 759,4 -4,4"/>
<text text-anchor="start" x="356.5091" y="-42.4" font-family="sans-serif" font-weight="bold" font-size="14.00" fill="#000000">Legend</text>
<polygon fill="#ffffb3" stroke="transparent" points="143.5,-10 143.5,-30 163.5,-30 163.5,-10 143.5,-10"/>
<text text-anchor="start" x="167.129" y="-15.4" font-family="sans-serif" font-size="14.00" fill="#000000"> &#160;Declarations</text>
<polygon fill="#8dd3c7" stroke="transparent" points="256.5,-10 256.5,-30 276.5,-30 276.5,-10 256.5,-10"/>
<text text-anchor="start" x="280.2251" y="-15.4" font-family="sans-serif" font-size="14.00" fill="#000000"> &#160;Module</text>
<polygon fill="#80b1d3" stroke="transparent" points="342.5,-10 342.5,-30 362.5,-30 362.5,-10 342.5,-10"/>
<text text-anchor="start" x="366.2812" y="-15.4" font-family="sans-serif" font-size="14.00" fill="#000000"> &#160;Bootstrap</text>
<polygon fill="#fdb462" stroke="transparent" points="439.5,-10 439.5,-30 459.5,-30 459.5,-10 439.5,-10"/>
<text text-anchor="start" x="463.1732" y="-15.4" font-family="sans-serif" font-size="14.00" fill="#000000"> &#160;Providers</text>
<polygon fill="#fb8072" stroke="transparent" points="535.5,-10 535.5,-30 555.5,-30 555.5,-10 535.5,-10"/>
<text text-anchor="start" x="559.2258" y="-15.4" font-family="sans-serif" font-size="14.00" fill="#000000"> &#160;Exports</text>
<g id="clust1" class="cluster">
<title>cluster_AppModule</title>
<polygon fill="none" stroke="#000000" stroke-dasharray="1,5" points="8,-70 8,-268 747,-268 747,-70 8,-70"/>
</g>
<g id="clust2" class="cluster">
<title>cluster_AppModule_declarations</title>
<polygon fill="none" stroke="#000000" points="617,-78 617,-130 739,-130 739,-78 617,-78"/>
</g>
<g id="clust4" class="cluster">
<title>cluster_AppModule_imports</title>
<polygon fill="none" stroke="#000000" points="16,-78 16,-130 609,-130 609,-78 16,-78"/>
</g>
<g id="clust6" class="cluster">
<title>cluster_AppModule_bootstrap</title>
<polygon fill="none" stroke="#000000" points="295,-208 295,-260 419,-260 419,-208 295,-208"/>
</g>
<!-- AppComponent -->
<g id="node1" class="node">
<title>AppComponent</title>
<polygon fill="#ffffb3" stroke="#000000" points="730.9399,-122 625.0601,-122 625.0601,-86 730.9399,-86 730.9399,-122"/>
<text text-anchor="middle" x="678" y="-99.8" font-family="Times,serif" font-size="14.00" fill="#000000">AppComponent</text>
</g>
<!-- AppModule -->
<g id="node2" class="node">
<title>AppModule</title>
<polygon fill="#8dd3c7" stroke="#000000" points="398.6571,-187 395.6571,-191 374.6571,-191 371.6571,-187 315.3429,-187 315.3429,-151 398.6571,-151 398.6571,-187"/>
<text text-anchor="middle" x="357" y="-164.8" font-family="Times,serif" font-size="14.00" fill="#000000">AppModule</text>
</g>
<!-- AppComponent&#45;&gt;AppModule -->
<g id="edge1" class="edge">
<title>AppComponent&#45;&gt;AppModule</title>
<path fill="none" stroke="#000000" d="M678,-122.2843C678,-143.3211 678,-175 678,-175 678,-175 408.9651,-175 408.9651,-175"/>
<polygon fill="#000000" stroke="#000000" points="408.9652,-171.5001 398.9651,-175 408.9651,-178.5001 408.9652,-171.5001"/>
</g>
<!-- AppComponent  -->
<g id="node8" class="node">
<title>AppComponent </title>
<polygon fill="#80b1d3" stroke="#000000" points="411.439,-252 302.561,-252 302.561,-216 411.439,-216 411.439,-252"/>
<text text-anchor="middle" x="357" y="-229.8" font-family="Times,serif" font-size="14.00" fill="#000000">AppComponent </text>
</g>
<!-- AppModule&#45;&gt;AppComponent  -->
<g id="edge7" class="edge">
<title>AppModule&#45;&gt;AppComponent </title>
<path fill="none" stroke="#000000" stroke-dasharray="1,5" d="M357,-187.1061C357,-187.1061 357,-205.991 357,-205.991"/>
<polygon fill="#000000" stroke="#000000" points="353.5001,-205.9909 357,-215.991 360.5001,-205.991 353.5001,-205.9909"/>
</g>
<!-- AppRoutingModule -->
<g id="node3" class="node">
<title>AppRoutingModule</title>
<polygon fill="#8dd3c7" stroke="#000000" points="601.2744,-122 598.2744,-126 577.2744,-126 574.2744,-122 472.7256,-122 472.7256,-86 601.2744,-86 601.2744,-122"/>
<text text-anchor="middle" x="537" y="-99.8" font-family="Times,serif" font-size="14.00" fill="#000000">AppRoutingModule</text>
</g>
<!-- AppRoutingModule&#45;&gt;AppModule -->
<g id="edge2" class="edge">
<title>AppRoutingModule&#45;&gt;AppModule</title>
<path fill="none" stroke="#000000" d="M537,-122.0225C537,-139.3734 537,-163 537,-163 537,-163 408.748,-163 408.748,-163"/>
<polygon fill="#000000" stroke="#000000" points="408.7481,-159.5001 398.748,-163 408.748,-166.5001 408.7481,-159.5001"/>
</g>
<!-- CoreModule -->
<g id="node4" class="node">
<title>CoreModule</title>
<polygon fill="#8dd3c7" stroke="#000000" points="454.2619,-122 451.2619,-126 430.2619,-126 427.2619,-122 367.7381,-122 367.7381,-86 454.2619,-86 454.2619,-122"/>
<text text-anchor="middle" x="411" y="-99.8" font-family="Times,serif" font-size="14.00" fill="#000000">CoreModule</text>
</g>
<!-- CoreModule&#45;&gt;AppModule -->
<g id="edge3" class="edge">
<title>CoreModule&#45;&gt;AppModule</title>
<path fill="none" stroke="#000000" d="M383.2237,-122.1061C383.2237,-122.1061 383.2237,-140.991 383.2237,-140.991"/>
<polygon fill="#000000" stroke="#000000" points="379.7238,-140.9909 383.2237,-150.991 386.7238,-140.991 379.7238,-140.9909"/>
</g>
<!-- HomeModule -->
<g id="node5" class="node">
<title>HomeModule</title>
<polygon fill="#8dd3c7" stroke="#000000" points="349.7619,-122 346.7619,-126 325.7619,-126 322.7619,-122 256.2381,-122 256.2381,-86 349.7619,-86 349.7619,-122"/>
<text text-anchor="middle" x="303" y="-99.8" font-family="Times,serif" font-size="14.00" fill="#000000">HomeModule</text>
</g>
<!-- HomeModule&#45;&gt;AppModule -->
<g id="edge4" class="edge">
<title>HomeModule&#45;&gt;AppModule</title>
<path fill="none" stroke="#000000" d="M332.5263,-122.1061C332.5263,-122.1061 332.5263,-140.991 332.5263,-140.991"/>
<polygon fill="#000000" stroke="#000000" points="329.0264,-140.9909 332.5263,-150.991 336.0264,-140.991 329.0264,-140.9909"/>
</g>
<!-- SecureModule -->
<g id="node6" class="node">
<title>SecureModule</title>
<polygon fill="#8dd3c7" stroke="#000000" points="237.6375,-122 234.6375,-126 213.6375,-126 210.6375,-122 140.3625,-122 140.3625,-86 237.6375,-86 237.6375,-122"/>
<text text-anchor="middle" x="189" y="-99.8" font-family="Times,serif" font-size="14.00" fill="#000000">SecureModule</text>
</g>
<!-- SecureModule&#45;&gt;AppModule -->
<g id="edge5" class="edge">
<title>SecureModule&#45;&gt;AppModule</title>
<path fill="none" stroke="#000000" d="M189,-122.0225C189,-139.3734 189,-163 189,-163 189,-163 305.0399,-163 305.0399,-163"/>
<polygon fill="#000000" stroke="#000000" points="305.0399,-166.5001 315.0399,-163 305.0398,-159.5001 305.0399,-166.5001"/>
</g>
<!-- SharedModule -->
<g id="node7" class="node">
<title>SharedModule</title>
<polygon fill="#8dd3c7" stroke="#000000" points="122.4231,-122 119.4231,-126 98.4231,-126 95.4231,-122 23.5769,-122 23.5769,-86 122.4231,-86 122.4231,-122"/>
<text text-anchor="middle" x="73" y="-99.8" font-family="Times,serif" font-size="14.00" fill="#000000">SharedModule</text>
</g>
<!-- SharedModule&#45;&gt;AppModule -->
<g id="edge6" class="edge">
<title>SharedModule&#45;&gt;AppModule</title>
<path fill="none" stroke="#000000" d="M73,-122.2843C73,-143.3211 73,-175 73,-175 73,-175 305.0948,-175 305.0948,-175"/>
<polygon fill="#000000" stroke="#000000" points="305.0949,-178.5001 315.0948,-175 305.0948,-171.5001 305.0949,-178.5001"/>
</g>
</g>
</svg>
