<?xml version="1.0" encoding="UTF-8" standalone="no"?>
<!DOCTYPE svg PUBLIC "-//W3C//DTD SVG 1.1//EN"
 "http://www.w3.org/Graphics/SVG/1.1/DTD/svg11.dtd">
<!-- Generated by graphviz version 2.40.1 (20161225.0304)
 -->
<!-- Title: dependencies Pages: 1 -->
<svg width="4404pt" height="284pt"
 viewBox="0.00 0.00 4404.00 284.00" xmlns="http://www.w3.org/2000/svg" xmlns:xlink="http://www.w3.org/1999/xlink">
<g id="graph0" class="graph" transform="scale(1 1) rotate(0) translate(4 280)">
<title>dependencies</title>
<polygon fill="#ffffff" stroke="transparent" points="-4,4 -4,-280 4400,-280 4400,4 -4,4"/>
<text text-anchor="start" x="2177.0091" y="-42.4" font-family="sans-serif" font-weight="bold" font-size="14.00" fill="#000000">Legend</text>
<polygon fill="#ffffb3" stroke="transparent" points="1964,-10 1964,-30 1984,-30 1984,-10 1964,-10"/>
<text text-anchor="start" x="1987.629" y="-15.4" font-family="sans-serif" font-size="14.00" fill="#000000"> &#160;Declarations</text>
<polygon fill="#8dd3c7" stroke="transparent" points="2077,-10 2077,-30 2097,-30 2097,-10 2077,-10"/>
<text text-anchor="start" x="2100.7251" y="-15.4" font-family="sans-serif" font-size="14.00" fill="#000000"> &#160;Module</text>
<polygon fill="#80b1d3" stroke="transparent" points="2163,-10 2163,-30 2183,-30 2183,-10 2163,-10"/>
<text text-anchor="start" x="2186.7812" y="-15.4" font-family="sans-serif" font-size="14.00" fill="#000000"> &#160;Bootstrap</text>
<polygon fill="#fdb462" stroke="transparent" points="2260,-10 2260,-30 2280,-30 2280,-10 2260,-10"/>
<text text-anchor="start" x="2283.6732" y="-15.4" font-family="sans-serif" font-size="14.00" fill="#000000"> &#160;Providers</text>
<polygon fill="#fb8072" stroke="transparent" points="2356,-10 2356,-30 2376,-30 2376,-10 2356,-10"/>
<text text-anchor="start" x="2379.7258" y="-15.4" font-family="sans-serif" font-size="14.00" fill="#000000"> &#160;Exports</text>
<g id="clust1" class="cluster">
<title>cluster_AppModule</title>
<polygon fill="none" stroke="#000000" stroke-dasharray="1,5" points="8,-70 8,-268 4388,-268 4388,-70 8,-70"/>
</g>
<g id="clust2" class="cluster">
<title>cluster_AppModule_declarations</title>
<polygon fill="none" stroke="#000000" points="4258,-78 4258,-130 4380,-130 4380,-78 4258,-78"/>
</g>
<g id="clust4" class="cluster">
<title>cluster_AppModule_imports</title>
<polygon fill="none" stroke="#000000" points="1081,-78 1081,-130 4250,-130 4250,-78 1081,-78"/>
</g>
<g id="clust6" class="cluster">
<title>cluster_AppModule_bootstrap</title>
<polygon fill="none" stroke="#000000" points="2284,-208 2284,-260 2408,-260 2408,-208 2284,-208"/>
</g>
<g id="clust7" class="cluster">
<title>cluster_AppModule_providers</title>
<polygon fill="none" stroke="#000000" points="16,-78 16,-130 1073,-130 1073,-78 16,-78"/>
</g>
<!-- AppComponent -->
<g id="node1" class="node">
<title>AppComponent</title>
<polygon fill="#ffffb3" stroke="#000000" points="4371.9399,-122 4266.0601,-122 4266.0601,-86 4371.9399,-86 4371.9399,-122"/>
<text text-anchor="middle" x="4319" y="-99.8" font-family="Times,serif" font-size="14.00" fill="#000000">AppComponent</text>
</g>
<!-- AppModule -->
<g id="node2" class="node">
<title>AppModule</title>
<polygon fill="#8dd3c7" stroke="#000000" points="2387.6571,-187 2384.6571,-191 2363.6571,-191 2360.6571,-187 2304.3429,-187 2304.3429,-151 2387.6571,-151 2387.6571,-187"/>
<text text-anchor="middle" x="2346" y="-164.8" font-family="Times,serif" font-size="14.00" fill="#000000">AppModule</text>
</g>
<!-- AppComponent&#45;&gt;AppModule -->
<g id="edge1" class="edge">
<title>AppComponent&#45;&gt;AppModule</title>
<path fill="none" stroke="#000000" d="M4319,-122.3802C4319,-146.2785 4319,-185 4319,-185 4319,-185 2397.6641,-185 2397.6641,-185"/>
<polygon fill="#000000" stroke="#000000" points="2397.6642,-181.5001 2387.6641,-185 2397.6641,-188.5001 2397.6642,-181.5001"/>
</g>
<!-- AppComponent  -->
<g id="node27" class="node">
<title>AppComponent </title>
<polygon fill="#80b1d3" stroke="#000000" points="2400.439,-252 2291.561,-252 2291.561,-216 2400.439,-216 2400.439,-252"/>
<text text-anchor="middle" x="2346" y="-229.8" font-family="Times,serif" font-size="14.00" fill="#000000">AppComponent </text>
</g>
<!-- AppModule&#45;&gt;AppComponent  -->
<g id="edge26" class="edge">
<title>AppModule&#45;&gt;AppComponent </title>
<path fill="none" stroke="#000000" stroke-dasharray="1,5" d="M2346,-187.1061C2346,-187.1061 2346,-205.991 2346,-205.991"/>
<polygon fill="#000000" stroke="#000000" points="2342.5001,-205.9909 2346,-215.991 2349.5001,-205.991 2342.5001,-205.9909"/>
</g>
<!-- AppRoutingModule -->
<g id="node3" class="node">
<title>AppRoutingModule</title>
<polygon fill="#8dd3c7" stroke="#000000" points="4242.2744,-122 4239.2744,-126 4218.2744,-126 4215.2744,-122 4113.7256,-122 4113.7256,-86 4242.2744,-86 4242.2744,-122"/>
<text text-anchor="middle" x="4178" y="-99.8" font-family="Times,serif" font-size="14.00" fill="#000000">AppRoutingModule</text>
</g>
<!-- AppRoutingModule&#45;&gt;AppModule -->
<g id="edge2" class="edge">
<title>AppRoutingModule&#45;&gt;AppModule</title>
<path fill="none" stroke="#000000" d="M4178,-122.3228C4178,-145.6602 4178,-183 4178,-183 4178,-183 2397.706,-183 2397.706,-183"/>
<polygon fill="#000000" stroke="#000000" points="2397.706,-179.5001 2387.706,-183 2397.706,-186.5001 2397.706,-179.5001"/>
</g>
<!-- AwsCognitoModule -->
<g id="node4" class="node">
<title>AwsCognitoModule</title>
<polygon fill="#8dd3c7" stroke="#000000" points="4095.3258,-122 4092.3258,-126 4071.3258,-126 4068.3258,-122 3964.6742,-122 3964.6742,-86 4095.3258,-86 4095.3258,-122"/>
<text text-anchor="middle" x="4030" y="-99.8" font-family="Times,serif" font-size="14.00" fill="#000000">AwsCognitoModule</text>
</g>
<!-- AwsCognitoModule&#45;&gt;AppModule -->
<g id="edge3" class="edge">
<title>AwsCognitoModule&#45;&gt;AppModule</title>
<path fill="none" stroke="#000000" d="M4030,-122.2479C4030,-145.0179 4030,-181 4030,-181 4030,-181 2398.0473,-181 2398.0473,-181"/>
<polygon fill="#000000" stroke="#000000" points="2398.0474,-177.5001 2388.0473,-181 2398.0473,-184.5001 2398.0474,-177.5001"/>
</g>
<!-- BillingModule -->
<g id="node5" class="node">
<title>BillingModule</title>
<polygon fill="#8dd3c7" stroke="#000000" points="3947.4498,-122 3944.4498,-126 3923.4498,-126 3920.4498,-122 3848.5502,-122 3848.5502,-86 3947.4498,-86 3947.4498,-122"/>
<text text-anchor="middle" x="3898" y="-99.8" font-family="Times,serif" font-size="14.00" fill="#000000">BillingModule</text>
</g>
<!-- BillingModule&#45;&gt;AppModule -->
<g id="edge4" class="edge">
<title>BillingModule&#45;&gt;AppModule</title>
<path fill="none" stroke="#000000" d="M3898,-122.2921C3898,-144.2057 3898,-178 3898,-178 3898,-178 2397.9138,-178 2397.9138,-178"/>
<polygon fill="#000000" stroke="#000000" points="2397.9138,-174.5001 2387.9138,-178 2397.9138,-181.5001 2397.9138,-174.5001"/>
</g>
<!-- BulkLoadModule -->
<g id="node6" class="node">
<title>BulkLoadModule</title>
<polygon fill="#8dd3c7" stroke="#000000" points="3830.5451,-122 3827.5451,-126 3806.5451,-126 3803.5451,-122 3715.4549,-122 3715.4549,-86 3830.5451,-86 3830.5451,-122"/>
<text text-anchor="middle" x="3773" y="-99.8" font-family="Times,serif" font-size="14.00" fill="#000000">BulkLoadModule</text>
</g>
<!-- BulkLoadModule&#45;&gt;AppModule -->
<g id="edge5" class="edge">
<title>BulkLoadModule&#45;&gt;AppModule</title>
<path fill="none" stroke="#000000" d="M3773,-122.1686C3773,-143.498 3773,-176 3773,-176 3773,-176 2397.9346,-176 2397.9346,-176"/>
<polygon fill="#000000" stroke="#000000" points="2397.9346,-172.5001 2387.9346,-176 2397.9345,-179.5001 2397.9346,-172.5001"/>
</g>
<!-- BulkLoadProductModule -->
<g id="node7" class="node">
<title>BulkLoadProductModule</title>
<polygon fill="#8dd3c7" stroke="#000000" points="3697.5926,-122 3694.5926,-126 3673.5926,-126 3670.5926,-122 3538.4074,-122 3538.4074,-86 3697.5926,-86 3697.5926,-122"/>
<text text-anchor="middle" x="3618" y="-99.8" font-family="Times,serif" font-size="14.00" fill="#000000">BulkLoadProductModule</text>
</g>
<!-- BulkLoadProductModule&#45;&gt;AppModule -->
<g id="edge6" class="edge">
<title>BulkLoadProductModule&#45;&gt;AppModule</title>
<path fill="none" stroke="#000000" d="M3618,-122.0267C3618,-142.7672 3618,-174 3618,-174 3618,-174 2397.9594,-174 2397.9594,-174"/>
<polygon fill="#000000" stroke="#000000" points="2397.9595,-170.5001 2387.9594,-174 2397.9594,-177.5001 2397.9595,-170.5001"/>
</g>
<!-- DetailModule -->
<g id="node8" class="node">
<title>DetailModule</title>
<polygon fill="#8dd3c7" stroke="#000000" points="3520.7577,-122 3517.7577,-126 3496.7577,-126 3493.7577,-122 3427.2423,-122 3427.2423,-86 3520.7577,-86 3520.7577,-122"/>
<text text-anchor="middle" x="3474" y="-99.8" font-family="Times,serif" font-size="14.00" fill="#000000">DetailModule</text>
</g>
<!-- DetailModule&#45;&gt;AppModule -->
<g id="edge7" class="edge">
<title>DetailModule&#45;&gt;AppModule</title>
<path fill="none" stroke="#000000" d="M3474,-122.2228C3474,-142.3652 3474,-172 3474,-172 3474,-172 2397.8214,-172 2397.8214,-172"/>
<polygon fill="#000000" stroke="#000000" points="2397.8215,-168.5001 2387.8214,-172 2397.8214,-175.5001 2397.8215,-168.5001"/>
</g>
<!-- DispatchModule -->
<g id="node9" class="node">
<title>DispatchModule</title>
<polygon fill="#8dd3c7" stroke="#000000" points="3408.8118,-122 3405.8118,-126 3384.8118,-126 3381.8118,-122 3299.1882,-122 3299.1882,-86 3408.8118,-86 3408.8118,-122"/>
<text text-anchor="middle" x="3354" y="-99.8" font-family="Times,serif" font-size="14.00" fill="#000000">DispatchModule</text>
</g>
<!-- DispatchModule&#45;&gt;AppModule -->
<g id="edge8" class="edge">
<title>DispatchModule&#45;&gt;AppModule</title>
<path fill="none" stroke="#000000" d="M3354,-122.1061C3354,-141.3391 3354,-169 3354,-169 3354,-169 2397.7111,-169 2397.7111,-169"/>
<polygon fill="#000000" stroke="#000000" points="2397.7111,-165.5001 2387.7111,-169 2397.711,-172.5001 2397.7111,-165.5001"/>
</g>
<!-- ErrroModule -->
<g id="node10" class="node">
<title>ErrroModule</title>
<polygon fill="#8dd3c7" stroke="#000000" points="3281.5842,-122 3278.5842,-126 3257.5842,-126 3254.5842,-122 3192.4158,-122 3192.4158,-86 3281.5842,-86 3281.5842,-122"/>
<text text-anchor="middle" x="3237" y="-99.8" font-family="Times,serif" font-size="14.00" fill="#000000">ErrroModule</text>
</g>
<!-- ErrroModule&#45;&gt;AppModule -->
<g id="edge9" class="edge">
<title>ErrroModule&#45;&gt;AppModule</title>
<path fill="none" stroke="#000000" d="M3237,-122.2222C3237,-140.8285 3237,-167 3237,-167 3237,-167 2397.7797,-167 2397.7797,-167"/>
<polygon fill="#000000" stroke="#000000" points="2397.7797,-163.5001 2387.7797,-167 2397.7797,-170.5001 2397.7797,-163.5001"/>
</g>
<!-- HistoricModule -->
<g id="node11" class="node">
<title>HistoricModule</title>
<polygon fill="#8dd3c7" stroke="#000000" points="3174.1486,-122 3171.1486,-126 3150.1486,-126 3147.1486,-122 3069.8514,-122 3069.8514,-86 3174.1486,-86 3174.1486,-122"/>
<text text-anchor="middle" x="3122" y="-99.8" font-family="Times,serif" font-size="14.00" fill="#000000">HistoricModule</text>
</g>
<!-- HistoricModule&#45;&gt;AppModule -->
<g id="edge10" class="edge">
<title>HistoricModule&#45;&gt;AppModule</title>
<path fill="none" stroke="#000000" d="M3122,-122.302C3122,-140.2699 3122,-165 3122,-165 3122,-165 2397.7211,-165 2397.7211,-165"/>
<polygon fill="#000000" stroke="#000000" points="2397.7212,-161.5001 2387.7211,-165 2397.7211,-168.5001 2397.7212,-161.5001"/>
</g>
<!-- HomeModule -->
<g id="node12" class="node">
<title>HomeModule</title>
<polygon fill="#8dd3c7" stroke="#000000" points="3051.7619,-122 3048.7619,-126 3027.7619,-126 3024.7619,-122 2958.2381,-122 2958.2381,-86 3051.7619,-86 3051.7619,-122"/>
<text text-anchor="middle" x="3005" y="-99.8" font-family="Times,serif" font-size="14.00" fill="#000000">HomeModule</text>
</g>
<!-- HomeModule&#45;&gt;AppModule -->
<g id="edge11" class="edge">
<title>HomeModule&#45;&gt;AppModule</title>
<path fill="none" stroke="#000000" d="M3005,-122.0225C3005,-139.3734 3005,-163 3005,-163 3005,-163 2397.7233,-163 2397.7233,-163"/>
<polygon fill="#000000" stroke="#000000" points="2397.7234,-159.5001 2387.7233,-163 2397.7233,-166.5001 2397.7234,-159.5001"/>
</g>
<!-- InDevolutionModule -->
<g id="node13" class="node">
<title>InDevolutionModule</title>
<polygon fill="#8dd3c7" stroke="#000000" points="2940.2036,-122 2937.2036,-126 2916.2036,-126 2913.2036,-122 2805.7964,-122 2805.7964,-86 2940.2036,-86 2940.2036,-122"/>
<text text-anchor="middle" x="2873" y="-99.8" font-family="Times,serif" font-size="14.00" fill="#000000">InDevolutionModule</text>
</g>
<!-- InDevolutionModule&#45;&gt;AppModule -->
<g id="edge12" class="edge">
<title>InDevolutionModule&#45;&gt;AppModule</title>
<path fill="none" stroke="#000000" d="M2873,-122.027C2873,-138.3976 2873,-160 2873,-160 2873,-160 2397.7933,-160 2397.7933,-160"/>
<polygon fill="#000000" stroke="#000000" points="2397.7933,-156.5001 2387.7933,-160 2397.7933,-163.5001 2397.7933,-156.5001"/>
</g>
<!-- InValidationModule -->
<g id="node14" class="node">
<title>InValidationModule</title>
<polygon fill="#8dd3c7" stroke="#000000" points="2788.309,-122 2785.309,-126 2764.309,-126 2761.309,-122 2657.691,-122 2657.691,-86 2788.309,-86 2788.309,-122"/>
<text text-anchor="middle" x="2723" y="-99.8" font-family="Times,serif" font-size="14.00" fill="#000000">InValidationModule</text>
</g>
<!-- InValidationModule&#45;&gt;AppModule -->
<g id="edge13" class="edge">
<title>InValidationModule&#45;&gt;AppModule</title>
<path fill="none" stroke="#000000" d="M2723,-122.2819C2723,-137.9478 2723,-158 2723,-158 2723,-158 2397.786,-158 2397.786,-158"/>
<polygon fill="#000000" stroke="#000000" points="2397.7861,-154.5001 2387.786,-158 2397.786,-161.5001 2397.7861,-154.5001"/>
</g>
<!-- ListModule -->
<g id="node15" class="node">
<title>ListModule</title>
<polygon fill="#8dd3c7" stroke="#000000" points="2639.8289,-122 2636.8289,-126 2615.8289,-126 2612.8289,-122 2558.1711,-122 2558.1711,-86 2639.8289,-86 2639.8289,-122"/>
<text text-anchor="middle" x="2599" y="-99.8" font-family="Times,serif" font-size="14.00" fill="#000000">ListModule</text>
</g>
<!-- ListModule&#45;&gt;AppModule -->
<g id="edge14" class="edge">
<title>ListModule&#45;&gt;AppModule</title>
<path fill="none" stroke="#000000" d="M2599,-122.1871C2599,-137.1824 2599,-156 2599,-156 2599,-156 2397.7778,-156 2397.7778,-156"/>
<polygon fill="#000000" stroke="#000000" points="2397.7778,-152.5001 2387.7778,-156 2397.7778,-159.5001 2397.7778,-152.5001"/>
</g>
<!-- LoadGuideModule -->
<g id="node16" class="node">
<title>LoadGuideModule</title>
<polygon fill="#8dd3c7" stroke="#000000" points="2540.0297,-122 2537.0297,-126 2516.0297,-126 2513.0297,-122 2417.9703,-122 2417.9703,-86 2540.0297,-86 2540.0297,-122"/>
<text text-anchor="middle" x="2479" y="-99.8" font-family="Times,serif" font-size="14.00" fill="#000000">LoadGuideModule</text>
</g>
<!-- LoadGuideModule&#45;&gt;AppModule -->
<g id="edge15" class="edge">
<title>LoadGuideModule&#45;&gt;AppModule</title>
<path fill="none" stroke="#000000" d="M2479,-122.0511C2479,-136.373 2479,-154 2479,-154 2479,-154 2397.7171,-154 2397.7171,-154"/>
<polygon fill="#000000" stroke="#000000" points="2397.7172,-150.5001 2387.7171,-154 2397.7171,-157.5001 2397.7172,-150.5001"/>
</g>
<!-- MaterialModule -->
<g id="node17" class="node">
<title>MaterialModule</title>
<polygon fill="#8dd3c7" stroke="#000000" points="2399.4706,-122 2396.4706,-126 2375.4706,-126 2372.4706,-122 2292.5294,-122 2292.5294,-86 2399.4706,-86 2399.4706,-122"/>
<text text-anchor="middle" x="2346" y="-99.8" font-family="Times,serif" font-size="14.00" fill="#000000">MaterialModule</text>
</g>
<!-- MaterialModule&#45;&gt;AppModule -->
<g id="edge16" class="edge">
<title>MaterialModule&#45;&gt;AppModule</title>
<path fill="none" stroke="#000000" d="M2346,-122.1061C2346,-122.1061 2346,-140.991 2346,-140.991"/>
<polygon fill="#000000" stroke="#000000" points="2342.5001,-140.9909 2346,-150.991 2349.5001,-140.991 2342.5001,-140.9909"/>
</g>
<!-- OrdersModule -->
<g id="node18" class="node">
<title>OrdersModule</title>
<polygon fill="#8dd3c7" stroke="#000000" points="2274.6375,-122 2271.6375,-126 2250.6375,-126 2247.6375,-122 2177.3625,-122 2177.3625,-86 2274.6375,-86 2274.6375,-122"/>
<text text-anchor="middle" x="2226" y="-99.8" font-family="Times,serif" font-size="14.00" fill="#000000">OrdersModule</text>
</g>
<!-- OrdersModule&#45;&gt;AppModule -->
<g id="edge17" class="edge">
<title>OrdersModule&#45;&gt;AppModule</title>
<path fill="none" stroke="#000000" d="M2226,-122.0511C2226,-136.373 2226,-154 2226,-154 2226,-154 2294.0298,-154 2294.0298,-154"/>
<polygon fill="#000000" stroke="#000000" points="2294.0299,-157.5001 2304.0298,-154 2294.0298,-150.5001 2294.0299,-157.5001"/>
</g>
<!-- PendingDevolutionModule -->
<g id="node19" class="node">
<title>PendingDevolutionModule</title>
<polygon fill="#8dd3c7" stroke="#000000" points="2159.4312,-122 2156.4312,-126 2135.4312,-126 2132.4312,-122 1990.5688,-122 1990.5688,-86 2159.4312,-86 2159.4312,-122"/>
<text text-anchor="middle" x="2075" y="-99.8" font-family="Times,serif" font-size="14.00" fill="#000000">PendingDevolutionModule</text>
</g>
<!-- PendingDevolutionModule&#45;&gt;AppModule -->
<g id="edge18" class="edge">
<title>PendingDevolutionModule&#45;&gt;AppModule</title>
<path fill="none" stroke="#000000" d="M2075,-122.1871C2075,-137.1824 2075,-156 2075,-156 2075,-156 2294.2502,-156 2294.2502,-156"/>
<polygon fill="#000000" stroke="#000000" points="2294.2502,-159.5001 2304.2502,-156 2294.2501,-152.5001 2294.2502,-159.5001"/>
</g>
<!-- PendingModule -->
<g id="node20" class="node">
<title>PendingModule</title>
<polygon fill="#8dd3c7" stroke="#000000" points="1972.9385,-122 1969.9385,-126 1948.9385,-126 1945.9385,-122 1867.0615,-122 1867.0615,-86 1972.9385,-86 1972.9385,-122"/>
<text text-anchor="middle" x="1920" y="-99.8" font-family="Times,serif" font-size="14.00" fill="#000000">PendingModule</text>
</g>
<!-- PendingModule&#45;&gt;AppModule -->
<g id="edge19" class="edge">
<title>PendingModule&#45;&gt;AppModule</title>
<path fill="none" stroke="#000000" d="M1920,-122.2819C1920,-137.9478 1920,-158 1920,-158 1920,-158 2293.9876,-158 2293.9876,-158"/>
<polygon fill="#000000" stroke="#000000" points="2293.9877,-161.5001 2303.9876,-158 2293.9876,-154.5001 2293.9877,-161.5001"/>
</g>
<!-- RegisterModule -->
<g id="node21" class="node">
<title>RegisterModule</title>
<polygon fill="#8dd3c7" stroke="#000000" points="1849.2022,-122 1846.2022,-126 1825.2022,-126 1822.2022,-122 1742.7978,-122 1742.7978,-86 1849.2022,-86 1849.2022,-122"/>
<text text-anchor="middle" x="1796" y="-99.8" font-family="Times,serif" font-size="14.00" fill="#000000">RegisterModule</text>
</g>
<!-- RegisterModule&#45;&gt;AppModule -->
<g id="edge20" class="edge">
<title>RegisterModule&#45;&gt;AppModule</title>
<path fill="none" stroke="#000000" d="M1796,-122.027C1796,-138.3976 1796,-160 1796,-160 1796,-160 2294.2092,-160 2294.2092,-160"/>
<polygon fill="#000000" stroke="#000000" points="2294.2092,-163.5001 2304.2092,-160 2294.2091,-156.5001 2294.2092,-163.5001"/>
</g>
<!-- ReportsModule -->
<g id="node22" class="node">
<title>ReportsModule</title>
<polygon fill="#8dd3c7" stroke="#000000" points="1724.5968,-122 1721.5968,-126 1700.5968,-126 1697.5968,-122 1621.4032,-122 1621.4032,-86 1724.5968,-86 1724.5968,-122"/>
<text text-anchor="middle" x="1673" y="-99.8" font-family="Times,serif" font-size="14.00" fill="#000000">ReportsModule</text>
</g>
<!-- ReportsModule&#45;&gt;AppModule -->
<g id="edge21" class="edge">
<title>ReportsModule&#45;&gt;AppModule</title>
<path fill="none" stroke="#000000" d="M1673,-122.0225C1673,-139.3734 1673,-163 1673,-163 1673,-163 2294.1551,-163 2294.1551,-163"/>
<polygon fill="#000000" stroke="#000000" points="2294.1551,-166.5001 2304.1551,-163 2294.1551,-159.5001 2294.1551,-166.5001"/>
</g>
<!-- ShellModule -->
<g id="node23" class="node">
<title>ShellModule</title>
<polygon fill="#8dd3c7" stroke="#000000" points="1603.3288,-122 1600.3288,-126 1579.3288,-126 1576.3288,-122 1514.6712,-122 1514.6712,-86 1603.3288,-86 1603.3288,-122"/>
<text text-anchor="middle" x="1559" y="-99.8" font-family="Times,serif" font-size="14.00" fill="#000000">ShellModule</text>
</g>
<!-- ShellModule&#45;&gt;AppModule -->
<g id="edge22" class="edge">
<title>ShellModule&#45;&gt;AppModule</title>
<path fill="none" stroke="#000000" d="M1559,-122.302C1559,-140.2699 1559,-165 1559,-165 1559,-165 2294.2431,-165 2294.2431,-165"/>
<polygon fill="#000000" stroke="#000000" points="2294.2432,-168.5001 2304.2431,-165 2294.2431,-161.5001 2294.2432,-168.5001"/>
</g>
<!-- StoresModule -->
<g id="node24" class="node">
<title>StoresModule</title>
<polygon fill="#8dd3c7" stroke="#000000" points="1497.0439,-122 1494.0439,-126 1473.0439,-126 1470.0439,-122 1402.9561,-122 1402.9561,-86 1497.0439,-86 1497.0439,-122"/>
<text text-anchor="middle" x="1450" y="-99.8" font-family="Times,serif" font-size="14.00" fill="#000000">StoresModule</text>
</g>
<!-- StoresModule&#45;&gt;AppModule -->
<g id="edge23" class="edge">
<title>StoresModule&#45;&gt;AppModule</title>
<path fill="none" stroke="#000000" d="M1450,-122.2222C1450,-140.8285 1450,-167 1450,-167 1450,-167 2294.2839,-167 2294.2839,-167"/>
<polygon fill="#000000" stroke="#000000" points="2294.284,-170.5001 2304.2839,-167 2294.2839,-163.5001 2294.284,-170.5001"/>
</g>
<!-- ToolbarLinkModule -->
<g id="node25" class="node">
<title>ToolbarLinkModule</title>
<polygon fill="#8dd3c7" stroke="#000000" points="1385.3118,-122 1382.3118,-126 1361.3118,-126 1358.3118,-122 1254.6882,-122 1254.6882,-86 1385.3118,-86 1385.3118,-122"/>
<text text-anchor="middle" x="1320" y="-99.8" font-family="Times,serif" font-size="14.00" fill="#000000">ToolbarLinkModule</text>
</g>
<!-- ToolbarLinkModule&#45;&gt;AppModule -->
<g id="edge24" class="edge">
<title>ToolbarLinkModule&#45;&gt;AppModule</title>
<path fill="none" stroke="#000000" d="M1320,-122.1061C1320,-141.3391 1320,-169 1320,-169 1320,-169 2294.1884,-169 2294.1884,-169"/>
<polygon fill="#000000" stroke="#000000" points="2294.1884,-172.5001 2304.1884,-169 2294.1883,-165.5001 2294.1884,-172.5001"/>
</g>
<!-- ToolbarOptionsModule -->
<g id="node26" class="node">
<title>ToolbarOptionsModule</title>
<polygon fill="#8dd3c7" stroke="#000000" points="1237.2007,-122 1234.2007,-126 1213.2007,-126 1210.2007,-122 1088.7993,-122 1088.7993,-86 1237.2007,-86 1237.2007,-122"/>
<text text-anchor="middle" x="1163" y="-99.8" font-family="Times,serif" font-size="14.00" fill="#000000">ToolbarOptionsModule</text>
</g>
<!-- ToolbarOptionsModule&#45;&gt;AppModule -->
<g id="edge25" class="edge">
<title>ToolbarOptionsModule&#45;&gt;AppModule</title>
<path fill="none" stroke="#000000" d="M1163,-122.2228C1163,-142.3652 1163,-172 1163,-172 1163,-172 2294.2439,-172 2294.2439,-172"/>
<polygon fill="#000000" stroke="#000000" points="2294.2439,-175.5001 2304.2439,-172 2294.2439,-168.5001 2294.2439,-175.5001"/>
</g>
<!-- AwsUtil -->
<g id="node28" class="node">
<title>AwsUtil</title>
<ellipse fill="#fdb462" stroke="#000000" cx="1021" cy="-104" rx="43.5156" ry="18"/>
<text text-anchor="middle" x="1021" y="-99.8" font-family="Times,serif" font-size="14.00" fill="#000000">AwsUtil</text>
</g>
<!-- AwsUtil&#45;&gt;AppModule -->
<g id="edge27" class="edge">
<title>AwsUtil&#45;&gt;AppModule</title>
<path fill="none" stroke="#000000" d="M1021,-122.0267C1021,-142.7672 1021,-174 1021,-174 1021,-174 2294.157,-174 2294.157,-174"/>
<polygon fill="#000000" stroke="#000000" points="2294.157,-177.5001 2304.157,-174 2294.1569,-170.5001 2294.157,-177.5001"/>
</g>
<!-- CognitoUtil -->
<g id="node29" class="node">
<title>CognitoUtil</title>
<ellipse fill="#fdb462" stroke="#000000" cx="902" cy="-104" rx="57.3611" ry="18"/>
<text text-anchor="middle" x="902" y="-99.8" font-family="Times,serif" font-size="14.00" fill="#000000">CognitoUtil</text>
</g>
<!-- CognitoUtil&#45;&gt;AppModule -->
<g id="edge28" class="edge">
<title>CognitoUtil&#45;&gt;AppModule</title>
<path fill="none" stroke="#000000" d="M902,-122.1686C902,-143.498 902,-176 902,-176 902,-176 2294.3412,-176 2294.3412,-176"/>
<polygon fill="#000000" stroke="#000000" points="2294.3412,-179.5001 2304.3412,-176 2294.3411,-172.5001 2294.3412,-179.5001"/>
</g>
<!-- DynamoDBService -->
<g id="node30" class="node">
<title>DynamoDBService</title>
<ellipse fill="#fdb462" stroke="#000000" cx="740" cy="-104" rx="86.8184" ry="18"/>
<text text-anchor="middle" x="740" y="-99.8" font-family="Times,serif" font-size="14.00" fill="#000000">DynamoDBService</text>
</g>
<!-- DynamoDBService&#45;&gt;AppModule -->
<g id="edge29" class="edge">
<title>DynamoDBService&#45;&gt;AppModule</title>
<path fill="none" stroke="#000000" d="M740,-122.2921C740,-144.2057 740,-178 740,-178 740,-178 2294.2789,-178 2294.2789,-178"/>
<polygon fill="#000000" stroke="#000000" points="2294.2789,-181.5001 2304.2789,-178 2294.2788,-174.5001 2294.2789,-181.5001"/>
</g>
<!-- UserLoginService -->
<g id="node31" class="node">
<title>UserLoginService</title>
<ellipse fill="#fdb462" stroke="#000000" cx="554" cy="-104" rx="81.0782" ry="18"/>
<text text-anchor="middle" x="554" y="-99.8" font-family="Times,serif" font-size="14.00" fill="#000000">UserLoginService</text>
</g>
<!-- UserLoginService&#45;&gt;AppModule -->
<g id="edge30" class="edge">
<title>UserLoginService&#45;&gt;AppModule</title>
<path fill="none" stroke="#000000" d="M554,-122.2479C554,-145.0179 554,-181 554,-181 554,-181 2294.3418,-181 2294.3418,-181"/>
<polygon fill="#000000" stroke="#000000" points="2294.3418,-184.5001 2304.3418,-181 2294.3418,-177.5001 2294.3418,-184.5001"/>
</g>
<!-- UserParametersService -->
<g id="node32" class="node">
<title>UserParametersService</title>
<ellipse fill="#fdb462" stroke="#000000" cx="354" cy="-104" rx="101.2331" ry="18"/>
<text text-anchor="middle" x="354" y="-99.8" font-family="Times,serif" font-size="14.00" fill="#000000">UserParametersService</text>
</g>
<!-- UserParametersService&#45;&gt;AppModule -->
<g id="edge31" class="edge">
<title>UserParametersService&#45;&gt;AppModule</title>
<path fill="none" stroke="#000000" d="M354,-122.3228C354,-145.6602 354,-183 354,-183 354,-183 2293.9346,-183 2293.9346,-183"/>
<polygon fill="#000000" stroke="#000000" points="2293.9347,-186.5001 2303.9346,-183 2293.9346,-179.5001 2293.9347,-186.5001"/>
</g>
<!-- UserRegistrationService -->
<g id="node33" class="node">
<title>UserRegistrationService</title>
<ellipse fill="#fdb462" stroke="#000000" cx="129" cy="-104" rx="105.349" ry="18"/>
<text text-anchor="middle" x="129" y="-99.8" font-family="Times,serif" font-size="14.00" fill="#000000">UserRegistrationService</text>
</g>
<!-- UserRegistrationService&#45;&gt;AppModule -->
<g id="edge32" class="edge">
<title>UserRegistrationService&#45;&gt;AppModule</title>
<path fill="none" stroke="#000000" d="M129,-122.3802C129,-146.2785 129,-185 129,-185 129,-185 2294.1799,-185 2294.1799,-185"/>
<polygon fill="#000000" stroke="#000000" points="2294.18,-188.5001 2304.1799,-185 2294.1799,-181.5001 2294.18,-188.5001"/>
</g>
</g>
</svg>
