<?xml version="1.0" encoding="UTF-8" standalone="no"?>
<!DOCTYPE svg PUBLIC "-//W3C//DTD SVG 1.1//EN"
 "http://www.w3.org/Graphics/SVG/1.1/DTD/svg11.dtd">
<!-- Generated by graphviz version 2.40.1 (20161225.0304)
 -->
<!-- Title: dependencies Pages: 1 -->
<svg width="4228pt" height="284pt"
 viewBox="0.00 0.00 4228.00 284.00" xmlns="http://www.w3.org/2000/svg" xmlns:xlink="http://www.w3.org/1999/xlink">
<g id="graph0" class="graph" transform="scale(1 1) rotate(0) translate(4 280)">
<title>dependencies</title>
<polygon fill="#ffffff" stroke="transparent" points="-4,4 -4,-280 4224,-280 4224,4 -4,4"/>
<text text-anchor="start" x="2089.0091" y="-42.4" font-family="sans-serif" font-weight="bold" font-size="14.00" fill="#000000">Legend</text>
<polygon fill="#ffffb3" stroke="transparent" points="1876,-10 1876,-30 1896,-30 1896,-10 1876,-10"/>
<text text-anchor="start" x="1899.629" y="-15.4" font-family="sans-serif" font-size="14.00" fill="#000000"> &#160;Declarations</text>
<polygon fill="#8dd3c7" stroke="transparent" points="1989,-10 1989,-30 2009,-30 2009,-10 1989,-10"/>
<text text-anchor="start" x="2012.7251" y="-15.4" font-family="sans-serif" font-size="14.00" fill="#000000"> &#160;Module</text>
<polygon fill="#80b1d3" stroke="transparent" points="2075,-10 2075,-30 2095,-30 2095,-10 2075,-10"/>
<text text-anchor="start" x="2098.7812" y="-15.4" font-family="sans-serif" font-size="14.00" fill="#000000"> &#160;Bootstrap</text>
<polygon fill="#fdb462" stroke="transparent" points="2172,-10 2172,-30 2192,-30 2192,-10 2172,-10"/>
<text text-anchor="start" x="2195.6732" y="-15.4" font-family="sans-serif" font-size="14.00" fill="#000000"> &#160;Providers</text>
<polygon fill="#fb8072" stroke="transparent" points="2268,-10 2268,-30 2288,-30 2288,-10 2268,-10"/>
<text text-anchor="start" x="2291.7258" y="-15.4" font-family="sans-serif" font-size="14.00" fill="#000000"> &#160;Exports</text>
<g id="clust1" class="cluster">
<title>cluster_AppModule</title>
<polygon fill="none" stroke="#000000" stroke-dasharray="1,5" points="8,-70 8,-268 4212,-268 4212,-70 8,-70"/>
</g>
<g id="clust2" class="cluster">
<title>cluster_AppModule_declarations</title>
<polygon fill="none" stroke="#000000" points="4082,-78 4082,-130 4204,-130 4204,-78 4082,-78"/>
</g>
<g id="clust4" class="cluster">
<title>cluster_AppModule_imports</title>
<polygon fill="none" stroke="#000000" points="1081,-78 1081,-130 4074,-130 4074,-78 1081,-78"/>
</g>
<g id="clust6" class="cluster">
<title>cluster_AppModule_bootstrap</title>
<polygon fill="none" stroke="#000000" points="2224,-208 2224,-260 2348,-260 2348,-208 2224,-208"/>
</g>
<g id="clust7" class="cluster">
<title>cluster_AppModule_providers</title>
<polygon fill="none" stroke="#000000" points="16,-78 16,-130 1073,-130 1073,-78 16,-78"/>
</g>
<!-- AppComponent -->
<g id="node1" class="node">
<title>AppComponent</title>
<polygon fill="#ffffb3" stroke="#000000" points="4195.9399,-122 4090.0601,-122 4090.0601,-86 4195.9399,-86 4195.9399,-122"/>
<text text-anchor="middle" x="4143" y="-99.8" font-family="Times,serif" font-size="14.00" fill="#000000">AppComponent</text>
</g>
<!-- AppModule -->
<g id="node2" class="node">
<title>AppModule</title>
<polygon fill="#8dd3c7" stroke="#000000" points="2327.6571,-187 2324.6571,-191 2303.6571,-191 2300.6571,-187 2244.3429,-187 2244.3429,-151 2327.6571,-151 2327.6571,-187"/>
<text text-anchor="middle" x="2286" y="-164.8" font-family="Times,serif" font-size="14.00" fill="#000000">AppModule</text>
</g>
<!-- AppComponent&#45;&gt;AppModule -->
<g id="edge1" class="edge">
<title>AppComponent&#45;&gt;AppModule</title>
<path fill="none" stroke="#000000" d="M4143,-122.3802C4143,-146.2785 4143,-185 4143,-185 4143,-185 2337.8313,-185 2337.8313,-185"/>
<polygon fill="#000000" stroke="#000000" points="2337.8314,-181.5001 2327.8313,-185 2337.8313,-188.5001 2337.8314,-181.5001"/>
</g>
<!-- AppComponent  -->
<g id="node26" class="node">
<title>AppComponent </title>
<polygon fill="#80b1d3" stroke="#000000" points="2340.439,-252 2231.561,-252 2231.561,-216 2340.439,-216 2340.439,-252"/>
<text text-anchor="middle" x="2286" y="-229.8" font-family="Times,serif" font-size="14.00" fill="#000000">AppComponent </text>
</g>
<!-- AppModule&#45;&gt;AppComponent  -->
<g id="edge25" class="edge">
<title>AppModule&#45;&gt;AppComponent </title>
<path fill="none" stroke="#000000" stroke-dasharray="1,5" d="M2286,-187.1061C2286,-187.1061 2286,-205.991 2286,-205.991"/>
<polygon fill="#000000" stroke="#000000" points="2282.5001,-205.9909 2286,-215.991 2289.5001,-205.991 2282.5001,-205.9909"/>
</g>
<!-- AppRoutingModule -->
<g id="node3" class="node">
<title>AppRoutingModule</title>
<polygon fill="#8dd3c7" stroke="#000000" points="4066.2744,-122 4063.2744,-126 4042.2744,-126 4039.2744,-122 3937.7256,-122 3937.7256,-86 4066.2744,-86 4066.2744,-122"/>
<text text-anchor="middle" x="4002" y="-99.8" font-family="Times,serif" font-size="14.00" fill="#000000">AppRoutingModule</text>
</g>
<!-- AppRoutingModule&#45;&gt;AppModule -->
<g id="edge2" class="edge">
<title>AppRoutingModule&#45;&gt;AppModule</title>
<path fill="none" stroke="#000000" d="M4002,-122.3228C4002,-145.6602 4002,-183 4002,-183 4002,-183 2337.9921,-183 2337.9921,-183"/>
<polygon fill="#000000" stroke="#000000" points="2337.9921,-179.5001 2327.9921,-183 2337.992,-186.5001 2337.9921,-179.5001"/>
</g>
<!-- AwsCognitoModule -->
<g id="node4" class="node">
<title>AwsCognitoModule</title>
<polygon fill="#8dd3c7" stroke="#000000" points="3919.3258,-122 3916.3258,-126 3895.3258,-126 3892.3258,-122 3788.6742,-122 3788.6742,-86 3919.3258,-86 3919.3258,-122"/>
<text text-anchor="middle" x="3854" y="-99.8" font-family="Times,serif" font-size="14.00" fill="#000000">AwsCognitoModule</text>
</g>
<!-- AwsCognitoModule&#45;&gt;AppModule -->
<g id="edge3" class="edge">
<title>AwsCognitoModule&#45;&gt;AppModule</title>
<path fill="none" stroke="#000000" d="M3854,-122.0109C3854,-144.4852 3854,-180 3854,-180 3854,-180 2337.9402,-180 2337.9402,-180"/>
<polygon fill="#000000" stroke="#000000" points="2337.9402,-176.5001 2327.9402,-180 2337.9402,-183.5001 2337.9402,-176.5001"/>
</g>
<!-- BillingModule -->
<g id="node5" class="node">
<title>BillingModule</title>
<polygon fill="#8dd3c7" stroke="#000000" points="3771.4498,-122 3768.4498,-126 3747.4498,-126 3744.4498,-122 3672.5502,-122 3672.5502,-86 3771.4498,-86 3771.4498,-122"/>
<text text-anchor="middle" x="3722" y="-99.8" font-family="Times,serif" font-size="14.00" fill="#000000">BillingModule</text>
</g>
<!-- BillingModule&#45;&gt;AppModule -->
<g id="edge4" class="edge">
<title>BillingModule&#45;&gt;AppModule</title>
<path fill="none" stroke="#000000" d="M3722,-122.2921C3722,-144.2057 3722,-178 3722,-178 3722,-178 2337.8127,-178 2337.8127,-178"/>
<polygon fill="#000000" stroke="#000000" points="2337.8128,-174.5001 2327.8127,-178 2337.8127,-181.5001 2337.8128,-174.5001"/>
</g>
<!-- BulkLoadModule -->
<g id="node6" class="node">
<title>BulkLoadModule</title>
<polygon fill="#8dd3c7" stroke="#000000" points="3654.5451,-122 3651.5451,-126 3630.5451,-126 3627.5451,-122 3539.4549,-122 3539.4549,-86 3654.5451,-86 3654.5451,-122"/>
<text text-anchor="middle" x="3597" y="-99.8" font-family="Times,serif" font-size="14.00" fill="#000000">BulkLoadModule</text>
</g>
<!-- BulkLoadModule&#45;&gt;AppModule -->
<g id="edge5" class="edge">
<title>BulkLoadModule&#45;&gt;AppModule</title>
<path fill="none" stroke="#000000" d="M3597,-122.2843C3597,-143.3211 3597,-175 3597,-175 3597,-175 2337.767,-175 2337.767,-175"/>
<polygon fill="#000000" stroke="#000000" points="2337.767,-171.5001 2327.767,-175 2337.7669,-178.5001 2337.767,-171.5001"/>
</g>
<!-- DetailModule -->
<g id="node7" class="node">
<title>DetailModule</title>
<polygon fill="#8dd3c7" stroke="#000000" points="3520.7577,-122 3517.7577,-126 3496.7577,-126 3493.7577,-122 3427.2423,-122 3427.2423,-86 3520.7577,-86 3520.7577,-122"/>
<text text-anchor="middle" x="3474" y="-99.8" font-family="Times,serif" font-size="14.00" fill="#000000">DetailModule</text>
</g>
<!-- DetailModule&#45;&gt;AppModule -->
<g id="edge6" class="edge">
<title>DetailModule&#45;&gt;AppModule</title>
<path fill="none" stroke="#000000" d="M3474,-122.1289C3474,-142.5724 3474,-173 3474,-173 3474,-173 2337.9326,-173 2337.9326,-173"/>
<polygon fill="#000000" stroke="#000000" points="2337.9326,-169.5001 2327.9326,-173 2337.9326,-176.5001 2337.9326,-169.5001"/>
</g>
<!-- DispatchModule -->
<g id="node8" class="node">
<title>DispatchModule</title>
<polygon fill="#8dd3c7" stroke="#000000" points="3408.8118,-122 3405.8118,-126 3384.8118,-126 3381.8118,-122 3299.1882,-122 3299.1882,-86 3408.8118,-86 3408.8118,-122"/>
<text text-anchor="middle" x="3354" y="-99.8" font-family="Times,serif" font-size="14.00" fill="#000000">DispatchModule</text>
</g>
<!-- DispatchModule&#45;&gt;AppModule -->
<g id="edge7" class="edge">
<title>DispatchModule&#45;&gt;AppModule</title>
<path fill="none" stroke="#000000" d="M3354,-122.308C3354,-142.1455 3354,-171 3354,-171 3354,-171 2337.8669,-171 2337.8669,-171"/>
<polygon fill="#000000" stroke="#000000" points="2337.8669,-167.5001 2327.8669,-171 2337.8668,-174.5001 2337.8669,-167.5001"/>
</g>
<!-- ErrroModule -->
<g id="node9" class="node">
<title>ErrroModule</title>
<polygon fill="#8dd3c7" stroke="#000000" points="3281.5842,-122 3278.5842,-126 3257.5842,-126 3254.5842,-122 3192.4158,-122 3192.4158,-86 3281.5842,-86 3281.5842,-122"/>
<text text-anchor="middle" x="3237" y="-99.8" font-family="Times,serif" font-size="14.00" fill="#000000">ErrroModule</text>
</g>
<!-- ErrroModule&#45;&gt;AppModule -->
<g id="edge8" class="edge">
<title>ErrroModule&#45;&gt;AppModule</title>
<path fill="none" stroke="#000000" d="M3237,-122.1686C3237,-141.0898 3237,-168 3237,-168 3237,-168 2337.7821,-168 2337.7821,-168"/>
<polygon fill="#000000" stroke="#000000" points="2337.7821,-164.5001 2327.7821,-168 2337.782,-171.5001 2337.7821,-164.5001"/>
</g>
<!-- HistoricModule -->
<g id="node10" class="node">
<title>HistoricModule</title>
<polygon fill="#8dd3c7" stroke="#000000" points="3174.1486,-122 3171.1486,-126 3150.1486,-126 3147.1486,-122 3069.8514,-122 3069.8514,-86 3174.1486,-86 3174.1486,-122"/>
<text text-anchor="middle" x="3122" y="-99.8" font-family="Times,serif" font-size="14.00" fill="#000000">HistoricModule</text>
</g>
<!-- HistoricModule&#45;&gt;AppModule -->
<g id="edge9" class="edge">
<title>HistoricModule&#45;&gt;AppModule</title>
<path fill="none" stroke="#000000" d="M3122,-122.2667C3122,-140.5552 3122,-166 3122,-166 3122,-166 2337.7434,-166 2337.7434,-166"/>
<polygon fill="#000000" stroke="#000000" points="2337.7434,-162.5001 2327.7434,-166 2337.7434,-169.5001 2337.7434,-162.5001"/>
</g>
<!-- HomeModule -->
<g id="node11" class="node">
<title>HomeModule</title>
<polygon fill="#8dd3c7" stroke="#000000" points="3051.7619,-122 3048.7619,-126 3027.7619,-126 3024.7619,-122 2958.2381,-122 2958.2381,-86 3051.7619,-86 3051.7619,-122"/>
<text text-anchor="middle" x="3005" y="-99.8" font-family="Times,serif" font-size="14.00" fill="#000000">HomeModule</text>
</g>
<!-- HomeModule&#45;&gt;AppModule -->
<g id="edge10" class="edge">
<title>HomeModule&#45;&gt;AppModule</title>
<path fill="none" stroke="#000000" d="M3005,-122.0225C3005,-139.3734 3005,-163 3005,-163 3005,-163 2337.7643,-163 2337.7643,-163"/>
<polygon fill="#000000" stroke="#000000" points="2337.7643,-159.5001 2327.7643,-163 2337.7642,-166.5001 2337.7643,-159.5001"/>
</g>
<!-- InDevolutionModule -->
<g id="node12" class="node">
<title>InDevolutionModule</title>
<polygon fill="#8dd3c7" stroke="#000000" points="2940.2036,-122 2937.2036,-126 2916.2036,-126 2913.2036,-122 2805.7964,-122 2805.7964,-86 2940.2036,-86 2940.2036,-122"/>
<text text-anchor="middle" x="2873" y="-99.8" font-family="Times,serif" font-size="14.00" fill="#000000">InDevolutionModule</text>
</g>
<!-- InDevolutionModule&#45;&gt;AppModule -->
<g id="edge11" class="edge">
<title>InDevolutionModule&#45;&gt;AppModule</title>
<path fill="none" stroke="#000000" d="M2873,-122.0352C2873,-138.7344 2873,-161 2873,-161 2873,-161 2337.745,-161 2337.745,-161"/>
<polygon fill="#000000" stroke="#000000" points="2337.745,-157.5001 2327.745,-161 2337.745,-164.5001 2337.745,-157.5001"/>
</g>
<!-- InValidationModule -->
<g id="node13" class="node">
<title>InValidationModule</title>
<polygon fill="#8dd3c7" stroke="#000000" points="2788.309,-122 2785.309,-126 2764.309,-126 2761.309,-122 2657.691,-122 2657.691,-86 2788.309,-86 2788.309,-122"/>
<text text-anchor="middle" x="2723" y="-99.8" font-family="Times,serif" font-size="14.00" fill="#000000">InValidationModule</text>
</g>
<!-- InValidationModule&#45;&gt;AppModule -->
<g id="edge12" class="edge">
<title>InValidationModule&#45;&gt;AppModule</title>
<path fill="none" stroke="#000000" d="M2723,-122.0091C2723,-138.0494 2723,-159 2723,-159 2723,-159 2337.9014,-159 2337.9014,-159"/>
<polygon fill="#000000" stroke="#000000" points="2337.9014,-155.5001 2327.9014,-159 2337.9014,-162.5001 2337.9014,-155.5001"/>
</g>
<!-- ListModule -->
<g id="node14" class="node">
<title>ListModule</title>
<polygon fill="#8dd3c7" stroke="#000000" points="2639.8289,-122 2636.8289,-126 2615.8289,-126 2612.8289,-122 2558.1711,-122 2558.1711,-86 2639.8289,-86 2639.8289,-122"/>
<text text-anchor="middle" x="2599" y="-99.8" font-family="Times,serif" font-size="14.00" fill="#000000">ListModule</text>
</g>
<!-- ListModule&#45;&gt;AppModule -->
<g id="edge13" class="edge">
<title>ListModule&#45;&gt;AppModule</title>
<path fill="none" stroke="#000000" d="M2599,-122.1871C2599,-137.1824 2599,-156 2599,-156 2599,-156 2337.8878,-156 2337.8878,-156"/>
<polygon fill="#000000" stroke="#000000" points="2337.8878,-152.5001 2327.8878,-156 2337.8878,-159.5001 2337.8878,-152.5001"/>
</g>
<!-- LoadGuideModule -->
<g id="node15" class="node">
<title>LoadGuideModule</title>
<polygon fill="#8dd3c7" stroke="#000000" points="2540.0297,-122 2537.0297,-126 2516.0297,-126 2513.0297,-122 2417.9703,-122 2417.9703,-86 2540.0297,-86 2540.0297,-122"/>
<text text-anchor="middle" x="2479" y="-99.8" font-family="Times,serif" font-size="14.00" fill="#000000">LoadGuideModule</text>
</g>
<!-- LoadGuideModule&#45;&gt;AppModule -->
<g id="edge14" class="edge">
<title>LoadGuideModule&#45;&gt;AppModule</title>
<path fill="none" stroke="#000000" d="M2479,-122.0511C2479,-136.373 2479,-154 2479,-154 2479,-154 2337.8781,-154 2337.8781,-154"/>
<polygon fill="#000000" stroke="#000000" points="2337.8782,-150.5001 2327.8781,-154 2337.8781,-157.5001 2337.8782,-150.5001"/>
</g>
<!-- MaterialModule -->
<g id="node16" class="node">
<title>MaterialModule</title>
<polygon fill="#8dd3c7" stroke="#000000" points="2399.4706,-122 2396.4706,-126 2375.4706,-126 2372.4706,-122 2292.5294,-122 2292.5294,-86 2399.4706,-86 2399.4706,-122"/>
<text text-anchor="middle" x="2346" y="-99.8" font-family="Times,serif" font-size="14.00" fill="#000000">MaterialModule</text>
</g>
<!-- MaterialModule&#45;&gt;AppModule -->
<g id="edge15" class="edge">
<title>MaterialModule&#45;&gt;AppModule</title>
<path fill="none" stroke="#000000" d="M2310.1715,-122.1061C2310.1715,-122.1061 2310.1715,-140.991 2310.1715,-140.991"/>
<polygon fill="#000000" stroke="#000000" points="2306.6715,-140.9909 2310.1715,-150.991 2313.6715,-140.991 2306.6715,-140.9909"/>
</g>
<!-- OrdersModule -->
<g id="node17" class="node">
<title>OrdersModule</title>
<polygon fill="#8dd3c7" stroke="#000000" points="2274.6375,-122 2271.6375,-126 2250.6375,-126 2247.6375,-122 2177.3625,-122 2177.3625,-86 2274.6375,-86 2274.6375,-122"/>
<text text-anchor="middle" x="2226" y="-99.8" font-family="Times,serif" font-size="14.00" fill="#000000">OrdersModule</text>
</g>
<!-- OrdersModule&#45;&gt;AppModule -->
<g id="edge16" class="edge">
<title>OrdersModule&#45;&gt;AppModule</title>
<path fill="none" stroke="#000000" d="M2259.4951,-122.1061C2259.4951,-122.1061 2259.4951,-140.991 2259.4951,-140.991"/>
<polygon fill="#000000" stroke="#000000" points="2255.9952,-140.9909 2259.4951,-150.991 2262.9952,-140.991 2255.9952,-140.9909"/>
</g>
<!-- PendingDevolutionModule -->
<g id="node18" class="node">
<title>PendingDevolutionModule</title>
<polygon fill="#8dd3c7" stroke="#000000" points="2159.4312,-122 2156.4312,-126 2135.4312,-126 2132.4312,-122 1990.5688,-122 1990.5688,-86 2159.4312,-86 2159.4312,-122"/>
<text text-anchor="middle" x="2075" y="-99.8" font-family="Times,serif" font-size="14.00" fill="#000000">PendingDevolutionModule</text>
</g>
<!-- PendingDevolutionModule&#45;&gt;AppModule -->
<g id="edge17" class="edge">
<title>PendingDevolutionModule&#45;&gt;AppModule</title>
<path fill="none" stroke="#000000" d="M2075,-122.0511C2075,-136.373 2075,-154 2075,-154 2075,-154 2234.3132,-154 2234.3132,-154"/>
<polygon fill="#000000" stroke="#000000" points="2234.3132,-157.5001 2244.3132,-154 2234.3132,-150.5001 2234.3132,-157.5001"/>
</g>
<!-- PendingModule -->
<g id="node19" class="node">
<title>PendingModule</title>
<polygon fill="#8dd3c7" stroke="#000000" points="1972.9385,-122 1969.9385,-126 1948.9385,-126 1945.9385,-122 1867.0615,-122 1867.0615,-86 1972.9385,-86 1972.9385,-122"/>
<text text-anchor="middle" x="1920" y="-99.8" font-family="Times,serif" font-size="14.00" fill="#000000">PendingModule</text>
</g>
<!-- PendingModule&#45;&gt;AppModule -->
<g id="edge18" class="edge">
<title>PendingModule&#45;&gt;AppModule</title>
<path fill="none" stroke="#000000" d="M1920,-122.1871C1920,-137.1824 1920,-156 1920,-156 1920,-156 2234.0151,-156 2234.0151,-156"/>
<polygon fill="#000000" stroke="#000000" points="2234.0152,-159.5001 2244.0151,-156 2234.0151,-152.5001 2234.0152,-159.5001"/>
</g>
<!-- RegisterModule -->
<g id="node20" class="node">
<title>RegisterModule</title>
<polygon fill="#8dd3c7" stroke="#000000" points="1849.2022,-122 1846.2022,-126 1825.2022,-126 1822.2022,-122 1742.7978,-122 1742.7978,-86 1849.2022,-86 1849.2022,-122"/>
<text text-anchor="middle" x="1796" y="-99.8" font-family="Times,serif" font-size="14.00" fill="#000000">RegisterModule</text>
</g>
<!-- RegisterModule&#45;&gt;AppModule -->
<g id="edge19" class="edge">
<title>RegisterModule&#45;&gt;AppModule</title>
<path fill="none" stroke="#000000" d="M1796,-122.0091C1796,-138.0494 1796,-159 1796,-159 1796,-159 2234.2229,-159 2234.2229,-159"/>
<polygon fill="#000000" stroke="#000000" points="2234.2229,-162.5001 2244.2229,-159 2234.2228,-155.5001 2234.2229,-162.5001"/>
</g>
<!-- ReportsModule -->
<g id="node21" class="node">
<title>ReportsModule</title>
<polygon fill="#8dd3c7" stroke="#000000" points="1724.5968,-122 1721.5968,-126 1700.5968,-126 1697.5968,-122 1621.4032,-122 1621.4032,-86 1724.5968,-86 1724.5968,-122"/>
<text text-anchor="middle" x="1673" y="-99.8" font-family="Times,serif" font-size="14.00" fill="#000000">ReportsModule</text>
</g>
<!-- ReportsModule&#45;&gt;AppModule -->
<g id="edge20" class="edge">
<title>ReportsModule&#45;&gt;AppModule</title>
<path fill="none" stroke="#000000" d="M1673,-122.0352C1673,-138.7344 1673,-161 1673,-161 1673,-161 2233.866,-161 2233.866,-161"/>
<polygon fill="#000000" stroke="#000000" points="2233.8661,-164.5001 2243.866,-161 2233.866,-157.5001 2233.8661,-164.5001"/>
</g>
<!-- ShellModule -->
<g id="node22" class="node">
<title>ShellModule</title>
<polygon fill="#8dd3c7" stroke="#000000" points="1603.3288,-122 1600.3288,-126 1579.3288,-126 1576.3288,-122 1514.6712,-122 1514.6712,-86 1603.3288,-86 1603.3288,-122"/>
<text text-anchor="middle" x="1559" y="-99.8" font-family="Times,serif" font-size="14.00" fill="#000000">ShellModule</text>
</g>
<!-- ShellModule&#45;&gt;AppModule -->
<g id="edge21" class="edge">
<title>ShellModule&#45;&gt;AppModule</title>
<path fill="none" stroke="#000000" d="M1559,-122.0225C1559,-139.3734 1559,-163 1559,-163 1559,-163 2234.3022,-163 2234.3022,-163"/>
<polygon fill="#000000" stroke="#000000" points="2234.3022,-166.5001 2244.3022,-163 2234.3021,-159.5001 2234.3022,-166.5001"/>
</g>
<!-- StoresModule -->
<g id="node23" class="node">
<title>StoresModule</title>
<polygon fill="#8dd3c7" stroke="#000000" points="1497.0439,-122 1494.0439,-126 1473.0439,-126 1470.0439,-122 1402.9561,-122 1402.9561,-86 1497.0439,-86 1497.0439,-122"/>
<text text-anchor="middle" x="1450" y="-99.8" font-family="Times,serif" font-size="14.00" fill="#000000">StoresModule</text>
</g>
<!-- StoresModule&#45;&gt;AppModule -->
<g id="edge22" class="edge">
<title>StoresModule&#45;&gt;AppModule</title>
<path fill="none" stroke="#000000" d="M1450,-122.2667C1450,-140.5552 1450,-166 1450,-166 1450,-166 2234.2566,-166 2234.2566,-166"/>
<polygon fill="#000000" stroke="#000000" points="2234.2566,-169.5001 2244.2566,-166 2234.2566,-162.5001 2234.2566,-169.5001"/>
</g>
<!-- ToolbarLinkModule -->
<g id="node24" class="node">
<title>ToolbarLinkModule</title>
<polygon fill="#8dd3c7" stroke="#000000" points="1385.3118,-122 1382.3118,-126 1361.3118,-126 1358.3118,-122 1254.6882,-122 1254.6882,-86 1385.3118,-86 1385.3118,-122"/>
<text text-anchor="middle" x="1320" y="-99.8" font-family="Times,serif" font-size="14.00" fill="#000000">ToolbarLinkModule</text>
</g>
<!-- ToolbarLinkModule&#45;&gt;AppModule -->
<g id="edge23" class="edge">
<title>ToolbarLinkModule&#45;&gt;AppModule</title>
<path fill="none" stroke="#000000" d="M1320,-122.1686C1320,-141.0898 1320,-168 1320,-168 1320,-168 2234.1821,-168 2234.1821,-168"/>
<polygon fill="#000000" stroke="#000000" points="2234.1822,-171.5001 2244.1821,-168 2234.1821,-164.5001 2234.1822,-171.5001"/>
</g>
<!-- ToolbarOptionsModule -->
<g id="node25" class="node">
<title>ToolbarOptionsModule</title>
<polygon fill="#8dd3c7" stroke="#000000" points="1237.2007,-122 1234.2007,-126 1213.2007,-126 1210.2007,-122 1088.7993,-122 1088.7993,-86 1237.2007,-86 1237.2007,-122"/>
<text text-anchor="middle" x="1163" y="-99.8" font-family="Times,serif" font-size="14.00" fill="#000000">ToolbarOptionsModule</text>
</g>
<!-- ToolbarOptionsModule&#45;&gt;AppModule -->
<g id="edge24" class="edge">
<title>ToolbarOptionsModule&#45;&gt;AppModule</title>
<path fill="none" stroke="#000000" d="M1163,-122.308C1163,-142.1455 1163,-171 1163,-171 1163,-171 2234.0266,-171 2234.0266,-171"/>
<polygon fill="#000000" stroke="#000000" points="2234.0267,-174.5001 2244.0266,-171 2234.0266,-167.5001 2234.0267,-174.5001"/>
</g>
<!-- AwsUtil -->
<g id="node27" class="node">
<title>AwsUtil</title>
<ellipse fill="#fdb462" stroke="#000000" cx="1021" cy="-104" rx="43.5156" ry="18"/>
<text text-anchor="middle" x="1021" y="-99.8" font-family="Times,serif" font-size="14.00" fill="#000000">AwsUtil</text>
</g>
<!-- AwsUtil&#45;&gt;AppModule -->
<g id="edge26" class="edge">
<title>AwsUtil&#45;&gt;AppModule</title>
<path fill="none" stroke="#000000" d="M1021,-122.1289C1021,-142.5724 1021,-173 1021,-173 1021,-173 2234.2715,-173 2234.2715,-173"/>
<polygon fill="#000000" stroke="#000000" points="2234.2715,-176.5001 2244.2715,-173 2234.2715,-169.5001 2234.2715,-176.5001"/>
</g>
<!-- CognitoUtil -->
<g id="node28" class="node">
<title>CognitoUtil</title>
<ellipse fill="#fdb462" stroke="#000000" cx="902" cy="-104" rx="57.3611" ry="18"/>
<text text-anchor="middle" x="902" y="-99.8" font-family="Times,serif" font-size="14.00" fill="#000000">CognitoUtil</text>
</g>
<!-- CognitoUtil&#45;&gt;AppModule -->
<g id="edge27" class="edge">
<title>CognitoUtil&#45;&gt;AppModule</title>
<path fill="none" stroke="#000000" d="M902,-122.2843C902,-143.3211 902,-175 902,-175 902,-175 2234.2026,-175 2234.2026,-175"/>
<polygon fill="#000000" stroke="#000000" points="2234.2026,-178.5001 2244.2026,-175 2234.2025,-171.5001 2234.2026,-178.5001"/>
</g>
<!-- DynamoDBService -->
<g id="node29" class="node">
<title>DynamoDBService</title>
<ellipse fill="#fdb462" stroke="#000000" cx="740" cy="-104" rx="86.8184" ry="18"/>
<text text-anchor="middle" x="740" y="-99.8" font-family="Times,serif" font-size="14.00" fill="#000000">DynamoDBService</text>
</g>
<!-- DynamoDBService&#45;&gt;AppModule -->
<g id="edge28" class="edge">
<title>DynamoDBService&#45;&gt;AppModule</title>
<path fill="none" stroke="#000000" d="M740,-122.2921C740,-144.2057 740,-178 740,-178 740,-178 2234.2482,-178 2234.2482,-178"/>
<polygon fill="#000000" stroke="#000000" points="2234.2483,-181.5001 2244.2482,-178 2234.2482,-174.5001 2234.2483,-181.5001"/>
</g>
<!-- UserLoginService -->
<g id="node30" class="node">
<title>UserLoginService</title>
<ellipse fill="#fdb462" stroke="#000000" cx="554" cy="-104" rx="81.0782" ry="18"/>
<text text-anchor="middle" x="554" y="-99.8" font-family="Times,serif" font-size="14.00" fill="#000000">UserLoginService</text>
</g>
<!-- UserLoginService&#45;&gt;AppModule -->
<g id="edge29" class="edge">
<title>UserLoginService&#45;&gt;AppModule</title>
<path fill="none" stroke="#000000" d="M554,-122.0109C554,-144.4852 554,-180 554,-180 554,-180 2234.0445,-180 2234.0445,-180"/>
<polygon fill="#000000" stroke="#000000" points="2234.0445,-183.5001 2244.0445,-180 2234.0444,-176.5001 2234.0445,-183.5001"/>
</g>
<!-- UserParametersService -->
<g id="node31" class="node">
<title>UserParametersService</title>
<ellipse fill="#fdb462" stroke="#000000" cx="354" cy="-104" rx="101.2331" ry="18"/>
<text text-anchor="middle" x="354" y="-99.8" font-family="Times,serif" font-size="14.00" fill="#000000">UserParametersService</text>
</g>
<!-- UserParametersService&#45;&gt;AppModule -->
<g id="edge30" class="edge">
<title>UserParametersService&#45;&gt;AppModule</title>
<path fill="none" stroke="#000000" d="M354,-122.3228C354,-145.6602 354,-183 354,-183 354,-183 2234.3033,-183 2234.3033,-183"/>
<polygon fill="#000000" stroke="#000000" points="2234.3033,-186.5001 2244.3033,-183 2234.3033,-179.5001 2234.3033,-186.5001"/>
</g>
<!-- UserRegistrationService -->
<g id="node32" class="node">
<title>UserRegistrationService</title>
<ellipse fill="#fdb462" stroke="#000000" cx="129" cy="-104" rx="105.349" ry="18"/>
<text text-anchor="middle" x="129" y="-99.8" font-family="Times,serif" font-size="14.00" fill="#000000">UserRegistrationService</text>
</g>
<!-- UserRegistrationService&#45;&gt;AppModule -->
<g id="edge31" class="edge">
<title>UserRegistrationService&#45;&gt;AppModule</title>
<path fill="none" stroke="#000000" d="M129,-122.3802C129,-146.2785 129,-185 129,-185 129,-185 2233.8803,-185 2233.8803,-185"/>
<polygon fill="#000000" stroke="#000000" points="2233.8803,-188.5001 2243.8803,-185 2233.8802,-181.5001 2233.8803,-188.5001"/>
</g>
</g>
</svg>
