<?xml version="1.0" encoding="UTF-8" standalone="no"?>
<!DOCTYPE svg PUBLIC "-//W3C//DTD SVG 1.1//EN"
 "http://www.w3.org/Graphics/SVG/1.1/DTD/svg11.dtd">
<!-- Generated by graphviz version 2.40.1 (20161225.0304)
 -->
<!-- Title: dependencies Pages: 1 -->
<svg width="1636pt" height="284pt"
 viewBox="0.00 0.00 1636.00 284.00" xmlns="http://www.w3.org/2000/svg" xmlns:xlink="http://www.w3.org/1999/xlink">
<g id="graph0" class="graph" transform="scale(1 1) rotate(0) translate(4 280)">
<title>dependencies</title>
<polygon fill="#ffffff" stroke="transparent" points="-4,4 -4,-280 1632,-280 1632,4 -4,4"/>
<text text-anchor="start" x="793.0091" y="-42.4" font-family="sans-serif" font-weight="bold" font-size="14.00" fill="#000000">Legend</text>
<polygon fill="#ffffb3" stroke="transparent" points="580,-10 580,-30 600,-30 600,-10 580,-10"/>
<text text-anchor="start" x="603.629" y="-15.4" font-family="sans-serif" font-size="14.00" fill="#000000"> &#160;Declarations</text>
<polygon fill="#8dd3c7" stroke="transparent" points="693,-10 693,-30 713,-30 713,-10 693,-10"/>
<text text-anchor="start" x="716.7251" y="-15.4" font-family="sans-serif" font-size="14.00" fill="#000000"> &#160;Module</text>
<polygon fill="#80b1d3" stroke="transparent" points="779,-10 779,-30 799,-30 799,-10 779,-10"/>
<text text-anchor="start" x="802.7812" y="-15.4" font-family="sans-serif" font-size="14.00" fill="#000000"> &#160;Bootstrap</text>
<polygon fill="#fdb462" stroke="transparent" points="876,-10 876,-30 896,-30 896,-10 876,-10"/>
<text text-anchor="start" x="899.6732" y="-15.4" font-family="sans-serif" font-size="14.00" fill="#000000"> &#160;Providers</text>
<polygon fill="#fb8072" stroke="transparent" points="972,-10 972,-30 992,-30 992,-10 972,-10"/>
<text text-anchor="start" x="995.7258" y="-15.4" font-family="sans-serif" font-size="14.00" fill="#000000"> &#160;Exports</text>
<g id="clust1" class="cluster">
<title>cluster_BulkLoadModule</title>
<polygon fill="none" stroke="#000000" stroke-dasharray="1,5" points="8,-70 8,-268 1620,-268 1620,-70 8,-70"/>
</g>
<g id="clust2" class="cluster">
<title>cluster_BulkLoadModule_declarations</title>
<polygon fill="none" stroke="#000000" points="890,-78 890,-130 1612,-130 1612,-78 890,-78"/>
</g>
<g id="clust7" class="cluster">
<title>cluster_BulkLoadModule_imports</title>
<polygon fill="none" stroke="#000000" points="589,-78 589,-130 882,-130 882,-78 589,-78"/>
</g>
<g id="clust8" class="cluster">
<title>cluster_BulkLoadModule_exports</title>
<polygon fill="none" stroke="#000000" points="716,-208 716,-260 872,-260 872,-208 716,-208"/>
</g>
<g id="clust10" class="cluster">
<title>cluster_BulkLoadModule_providers</title>
<polygon fill="none" stroke="#000000" points="16,-78 16,-130 581,-130 581,-78 16,-78"/>
</g>
<!-- BulkLoadComponent -->
<g id="node1" class="node">
<title>BulkLoadComponent</title>
<polygon fill="#ffffb3" stroke="#000000" points="1603.8272,-122 1466.1728,-122 1466.1728,-86 1603.8272,-86 1603.8272,-122"/>
<text text-anchor="middle" x="1535" y="-99.8" font-family="Times,serif" font-size="14.00" fill="#000000">BulkLoadComponent</text>
</g>
<!-- BulkLoadModule -->
<g id="node5" class="node">
<title>BulkLoadModule</title>
<polygon fill="#8dd3c7" stroke="#000000" points="851.5451,-187 848.5451,-191 827.5451,-191 824.5451,-187 736.4549,-187 736.4549,-151 851.5451,-151 851.5451,-187"/>
<text text-anchor="middle" x="794" y="-164.8" font-family="Times,serif" font-size="14.00" fill="#000000">BulkLoadModule</text>
</g>
<!-- BulkLoadComponent&#45;&gt;BulkLoadModule -->
<g id="edge1" class="edge">
<title>BulkLoadComponent&#45;&gt;BulkLoadModule</title>
<path fill="none" stroke="#000000" d="M1535,-122.0109C1535,-144.4852 1535,-180 1535,-180 1535,-180 861.8364,-180 861.8364,-180"/>
<polygon fill="#000000" stroke="#000000" points="861.8364,-176.5001 851.8364,-180 861.8363,-183.5001 861.8364,-176.5001"/>
</g>
<!-- FinishUploadInformationComponent -->
<g id="node2" class="node">
<title>FinishUploadInformationComponent</title>
<polygon fill="#ffffb3" stroke="#000000" points="1448.4212,-122 1223.5788,-122 1223.5788,-86 1448.4212,-86 1448.4212,-122"/>
<text text-anchor="middle" x="1336" y="-99.8" font-family="Times,serif" font-size="14.00" fill="#000000">FinishUploadInformationComponent</text>
</g>
<!-- FinishUploadInformationComponent&#45;&gt;BulkLoadModule -->
<g id="edge2" class="edge">
<title>FinishUploadInformationComponent&#45;&gt;BulkLoadModule</title>
<path fill="none" stroke="#000000" d="M1336,-122.1289C1336,-142.5724 1336,-173 1336,-173 1336,-173 861.7467,-173 861.7467,-173"/>
<polygon fill="#000000" stroke="#000000" points="861.7467,-169.5001 851.7467,-173 861.7467,-176.5001 861.7467,-169.5001"/>
</g>
<!-- TableErrorsComponent -->
<g id="node3" class="node">
<title>TableErrorsComponent</title>
<polygon fill="#ffffb3" stroke="#000000" points="1206.1839,-122 1057.8161,-122 1057.8161,-86 1206.1839,-86 1206.1839,-122"/>
<text text-anchor="middle" x="1132" y="-99.8" font-family="Times,serif" font-size="14.00" fill="#000000">TableErrorsComponent</text>
</g>
<!-- TableErrorsComponent&#45;&gt;BulkLoadModule -->
<g id="edge3" class="edge">
<title>TableErrorsComponent&#45;&gt;BulkLoadModule</title>
<path fill="none" stroke="#000000" d="M1132,-122.2667C1132,-140.5552 1132,-166 1132,-166 1132,-166 861.7202,-166 861.7202,-166"/>
<polygon fill="#000000" stroke="#000000" points="861.7203,-162.5001 851.7202,-166 861.7202,-169.5001 861.7203,-162.5001"/>
</g>
<!-- TableLoadComponent -->
<g id="node4" class="node">
<title>TableLoadComponent</title>
<polygon fill="#ffffb3" stroke="#000000" points="1039.972,-122 898.028,-122 898.028,-86 1039.972,-86 1039.972,-122"/>
<text text-anchor="middle" x="969" y="-99.8" font-family="Times,serif" font-size="14.00" fill="#000000">TableLoadComponent</text>
</g>
<!-- TableLoadComponent&#45;&gt;BulkLoadModule -->
<g id="edge4" class="edge">
<title>TableLoadComponent&#45;&gt;BulkLoadModule</title>
<path fill="none" stroke="#000000" d="M969,-122.0091C969,-138.0494 969,-159 969,-159 969,-159 861.7865,-159 861.7865,-159"/>
<polygon fill="#000000" stroke="#000000" points="861.7866,-155.5001 851.7865,-159 861.7865,-162.5001 861.7866,-155.5001"/>
</g>
<!-- BulkLoadComponent  -->
<g id="node8" class="node">
<title>BulkLoadComponent </title>
<polygon fill="#fb8072" stroke="#000000" points="864.3269,-252 723.6731,-252 723.6731,-216 864.3269,-216 864.3269,-252"/>
<text text-anchor="middle" x="794" y="-229.8" font-family="Times,serif" font-size="14.00" fill="#000000">BulkLoadComponent </text>
</g>
<!-- BulkLoadModule&#45;&gt;BulkLoadComponent  -->
<g id="edge7" class="edge">
<title>BulkLoadModule&#45;&gt;BulkLoadComponent </title>
<path fill="none" stroke="#000000" stroke-dasharray="5,2" d="M794,-187.1061C794,-187.1061 794,-205.991 794,-205.991"/>
<polygon fill="#000000" stroke="#000000" points="790.5001,-205.9909 794,-215.991 797.5001,-205.991 790.5001,-205.9909"/>
</g>
<!-- BulkLoadRoutingModule -->
<g id="node6" class="node">
<title>BulkLoadRoutingModule</title>
<polygon fill="#8dd3c7" stroke="#000000" points="874.1624,-122 871.1624,-126 850.1624,-126 847.1624,-122 713.8376,-122 713.8376,-86 874.1624,-86 874.1624,-122"/>
<text text-anchor="middle" x="794" y="-99.8" font-family="Times,serif" font-size="14.00" fill="#000000">BulkLoadRoutingModule</text>
</g>
<!-- BulkLoadRoutingModule&#45;&gt;BulkLoadModule -->
<g id="edge5" class="edge">
<title>BulkLoadRoutingModule&#45;&gt;BulkLoadModule</title>
<path fill="none" stroke="#000000" d="M794,-122.1061C794,-122.1061 794,-140.991 794,-140.991"/>
<polygon fill="#000000" stroke="#000000" points="790.5001,-140.9909 794,-150.991 797.5001,-140.991 790.5001,-140.9909"/>
</g>
<!-- SharedModule -->
<g id="node7" class="node">
<title>SharedModule</title>
<polygon fill="#8dd3c7" stroke="#000000" points="695.4231,-122 692.4231,-126 671.4231,-126 668.4231,-122 596.5769,-122 596.5769,-86 695.4231,-86 695.4231,-122"/>
<text text-anchor="middle" x="646" y="-99.8" font-family="Times,serif" font-size="14.00" fill="#000000">SharedModule</text>
</g>
<!-- SharedModule&#45;&gt;BulkLoadModule -->
<g id="edge6" class="edge">
<title>SharedModule&#45;&gt;BulkLoadModule</title>
<path fill="none" stroke="#000000" d="M646,-122.0091C646,-138.0494 646,-159 646,-159 646,-159 726.3555,-159 726.3555,-159"/>
<polygon fill="#000000" stroke="#000000" points="726.3556,-162.5001 736.3555,-159 726.3555,-155.5001 726.3556,-162.5001"/>
</g>
<!-- BulkLoadService -->
<g id="node9" class="node">
<title>BulkLoadService</title>
<ellipse fill="#fdb462" stroke="#000000" cx="494" cy="-104" rx="78.7318" ry="18"/>
<text text-anchor="middle" x="494" y="-99.8" font-family="Times,serif" font-size="14.00" fill="#000000">BulkLoadService</text>
</g>
<!-- BulkLoadService&#45;&gt;BulkLoadModule -->
<g id="edge8" class="edge">
<title>BulkLoadService&#45;&gt;BulkLoadModule</title>
<path fill="none" stroke="#000000" d="M494,-122.2667C494,-140.5552 494,-166 494,-166 494,-166 726.157,-166 726.157,-166"/>
<polygon fill="#000000" stroke="#000000" points="726.157,-169.5001 736.157,-166 726.1569,-162.5001 726.157,-169.5001"/>
</g>
<!-- ComponentsService -->
<g id="node10" class="node">
<title>ComponentsService</title>
<ellipse fill="#fdb462" stroke="#000000" cx="309" cy="-104" rx="88.6255" ry="18"/>
<text text-anchor="middle" x="309" y="-99.8" font-family="Times,serif" font-size="14.00" fill="#000000">ComponentsService</text>
</g>
<!-- ComponentsService&#45;&gt;BulkLoadModule -->
<g id="edge9" class="edge">
<title>ComponentsService&#45;&gt;BulkLoadModule</title>
<path fill="none" stroke="#000000" d="M309,-122.1289C309,-142.5724 309,-173 309,-173 309,-173 725.9794,-173 725.9794,-173"/>
<polygon fill="#000000" stroke="#000000" points="725.9794,-176.5001 735.9794,-173 725.9794,-169.5001 725.9794,-176.5001"/>
</g>
<!-- EventEmitterOrders -->
<g id="node11" class="node">
<title>EventEmitterOrders</title>
<ellipse fill="#fdb462" stroke="#000000" cx="113" cy="-104" rx="88.5986" ry="18"/>
<text text-anchor="middle" x="113" y="-99.8" font-family="Times,serif" font-size="14.00" fill="#000000">EventEmitterOrders</text>
</g>
<!-- EventEmitterOrders&#45;&gt;BulkLoadModule -->
<g id="edge10" class="edge">
<title>EventEmitterOrders&#45;&gt;BulkLoadModule</title>
<path fill="none" stroke="#000000" d="M113,-122.0109C113,-144.4852 113,-180 113,-180 113,-180 726.2321,-180 726.2321,-180"/>
<polygon fill="#000000" stroke="#000000" points="726.2321,-183.5001 736.2321,-180 726.2321,-176.5001 726.2321,-183.5001"/>
</g>
</g>
</svg>
