<?xml version="1.0" encoding="UTF-8" standalone="no"?>
<!DOCTYPE svg PUBLIC "-//W3C//DTD SVG 1.1//EN"
 "http://www.w3.org/Graphics/SVG/1.1/DTD/svg11.dtd">
<!-- Generated by graphviz version 2.40.1 (20161225.0304)
 -->
<!-- Title: dependencies Pages: 1 -->
<svg width="1068pt" height="284pt"
 viewBox="0.00 0.00 1068.00 284.00" xmlns="http://www.w3.org/2000/svg" xmlns:xlink="http://www.w3.org/1999/xlink">
<g id="graph0" class="graph" transform="scale(1 1) rotate(0) translate(4 280)">
<title>dependencies</title>
<polygon fill="#ffffff" stroke="transparent" points="-4,4 -4,-280 1064,-280 1064,4 -4,4"/>
<text text-anchor="start" x="509.0091" y="-42.4" font-family="sans-serif" font-weight="bold" font-size="14.00" fill="#000000">Legend</text>
<polygon fill="#ffffb3" stroke="transparent" points="296,-10 296,-30 316,-30 316,-10 296,-10"/>
<text text-anchor="start" x="319.629" y="-15.4" font-family="sans-serif" font-size="14.00" fill="#000000"> &#160;Declarations</text>
<polygon fill="#8dd3c7" stroke="transparent" points="409,-10 409,-30 429,-30 429,-10 409,-10"/>
<text text-anchor="start" x="432.7251" y="-15.4" font-family="sans-serif" font-size="14.00" fill="#000000"> &#160;Module</text>
<polygon fill="#80b1d3" stroke="transparent" points="495,-10 495,-30 515,-30 515,-10 495,-10"/>
<text text-anchor="start" x="518.7812" y="-15.4" font-family="sans-serif" font-size="14.00" fill="#000000"> &#160;Bootstrap</text>
<polygon fill="#fdb462" stroke="transparent" points="592,-10 592,-30 612,-30 612,-10 592,-10"/>
<text text-anchor="start" x="615.6732" y="-15.4" font-family="sans-serif" font-size="14.00" fill="#000000"> &#160;Providers</text>
<polygon fill="#fb8072" stroke="transparent" points="688,-10 688,-30 708,-30 708,-10 688,-10"/>
<text text-anchor="start" x="711.7258" y="-15.4" font-family="sans-serif" font-size="14.00" fill="#000000"> &#160;Exports</text>
<g id="clust1" class="cluster">
<title>cluster_BulkLoadModule</title>
<polygon fill="none" stroke="#000000" stroke-dasharray="1,5" points="8,-70 8,-268 1052,-268 1052,-70 8,-70"/>
</g>
<g id="clust2" class="cluster">
<title>cluster_BulkLoadModule_declarations</title>
<polygon fill="none" stroke="#000000" points="890,-78 890,-130 1044,-130 1044,-78 890,-78"/>
</g>
<g id="clust4" class="cluster">
<title>cluster_BulkLoadModule_imports</title>
<polygon fill="none" stroke="#000000" points="589,-78 589,-130 882,-130 882,-78 589,-78"/>
</g>
<g id="clust5" class="cluster">
<title>cluster_BulkLoadModule_exports</title>
<polygon fill="none" stroke="#000000" points="492,-208 492,-260 648,-260 648,-208 492,-208"/>
</g>
<g id="clust7" class="cluster">
<title>cluster_BulkLoadModule_providers</title>
<polygon fill="none" stroke="#000000" points="16,-78 16,-130 581,-130 581,-78 16,-78"/>
</g>
<!-- BulkLoadComponent -->
<g id="node1" class="node">
<title>BulkLoadComponent</title>
<polygon fill="#ffffb3" stroke="#000000" points="1035.8272,-122 898.1728,-122 898.1728,-86 1035.8272,-86 1035.8272,-122"/>
<text text-anchor="middle" x="967" y="-99.8" font-family="Times,serif" font-size="14.00" fill="#000000">BulkLoadComponent</text>
</g>
<!-- BulkLoadModule -->
<g id="node2" class="node">
<title>BulkLoadModule</title>
<polygon fill="#8dd3c7" stroke="#000000" points="627.5451,-187 624.5451,-191 603.5451,-191 600.5451,-187 512.4549,-187 512.4549,-151 627.5451,-151 627.5451,-187"/>
<text text-anchor="middle" x="570" y="-164.8" font-family="Times,serif" font-size="14.00" fill="#000000">BulkLoadModule</text>
</g>
<!-- BulkLoadComponent&#45;&gt;BulkLoadModule -->
<g id="edge1" class="edge">
<title>BulkLoadComponent&#45;&gt;BulkLoadModule</title>
<path fill="none" stroke="#000000" d="M967,-122.2843C967,-143.3211 967,-175 967,-175 967,-175 637.7272,-175 637.7272,-175"/>
<polygon fill="#000000" stroke="#000000" points="637.7272,-171.5001 627.7272,-175 637.7272,-178.5001 637.7272,-171.5001"/>
</g>
<!-- BulkLoadComponent  -->
<g id="node5" class="node">
<title>BulkLoadComponent </title>
<polygon fill="#fb8072" stroke="#000000" points="640.3269,-252 499.6731,-252 499.6731,-216 640.3269,-216 640.3269,-252"/>
<text text-anchor="middle" x="570" y="-229.8" font-family="Times,serif" font-size="14.00" fill="#000000">BulkLoadComponent </text>
</g>
<!-- BulkLoadModule&#45;&gt;BulkLoadComponent  -->
<g id="edge4" class="edge">
<title>BulkLoadModule&#45;&gt;BulkLoadComponent </title>
<path fill="none" stroke="#000000" stroke-dasharray="5,2" d="M570,-187.1061C570,-187.1061 570,-205.991 570,-205.991"/>
<polygon fill="#000000" stroke="#000000" points="566.5001,-205.9909 570,-215.991 573.5001,-205.991 566.5001,-205.9909"/>
</g>
<!-- BulkLoadRoutingModule -->
<g id="node3" class="node">
<title>BulkLoadRoutingModule</title>
<polygon fill="#8dd3c7" stroke="#000000" points="874.1624,-122 871.1624,-126 850.1624,-126 847.1624,-122 713.8376,-122 713.8376,-86 874.1624,-86 874.1624,-122"/>
<text text-anchor="middle" x="794" y="-99.8" font-family="Times,serif" font-size="14.00" fill="#000000">BulkLoadRoutingModule</text>
</g>
<!-- BulkLoadRoutingModule&#45;&gt;BulkLoadModule -->
<g id="edge2" class="edge">
<title>BulkLoadRoutingModule&#45;&gt;BulkLoadModule</title>
<path fill="none" stroke="#000000" d="M794,-122.0225C794,-139.3734 794,-163 794,-163 794,-163 637.6856,-163 637.6856,-163"/>
<polygon fill="#000000" stroke="#000000" points="637.6856,-159.5001 627.6856,-163 637.6855,-166.5001 637.6856,-159.5001"/>
</g>
<!-- SharedModule -->
<g id="node4" class="node">
<title>SharedModule</title>
<polygon fill="#8dd3c7" stroke="#000000" points="695.4231,-122 692.4231,-126 671.4231,-126 668.4231,-122 596.5769,-122 596.5769,-86 695.4231,-86 695.4231,-122"/>
<text text-anchor="middle" x="646" y="-99.8" font-family="Times,serif" font-size="14.00" fill="#000000">SharedModule</text>
</g>
<!-- SharedModule&#45;&gt;BulkLoadModule -->
<g id="edge3" class="edge">
<title>SharedModule&#45;&gt;BulkLoadModule</title>
<path fill="none" stroke="#000000" d="M612.2805,-122.1061C612.2805,-122.1061 612.2805,-140.991 612.2805,-140.991"/>
<polygon fill="#000000" stroke="#000000" points="608.7806,-140.9909 612.2805,-150.991 615.7806,-140.991 608.7806,-140.9909"/>
</g>
<!-- BulkLoadService -->
<g id="node6" class="node">
<title>BulkLoadService</title>
<ellipse fill="#fdb462" stroke="#000000" cx="494" cy="-104" rx="78.7318" ry="18"/>
<text text-anchor="middle" x="494" y="-99.8" font-family="Times,serif" font-size="14.00" fill="#000000">BulkLoadService</text>
</g>
<!-- BulkLoadService&#45;&gt;BulkLoadModule -->
<g id="edge5" class="edge">
<title>BulkLoadService&#45;&gt;BulkLoadModule</title>
<path fill="none" stroke="#000000" d="M542.4219,-118.4256C542.4219,-118.4256 542.4219,-140.8939 542.4219,-140.8939"/>
<polygon fill="#000000" stroke="#000000" points="538.922,-140.8938 542.4219,-150.8939 545.922,-140.8939 538.922,-140.8938"/>
</g>
<!-- ComponentsService -->
<g id="node7" class="node">
<title>ComponentsService</title>
<ellipse fill="#fdb462" stroke="#000000" cx="309" cy="-104" rx="88.6255" ry="18"/>
<text text-anchor="middle" x="309" y="-99.8" font-family="Times,serif" font-size="14.00" fill="#000000">ComponentsService</text>
</g>
<!-- ComponentsService&#45;&gt;BulkLoadModule -->
<g id="edge6" class="edge">
<title>ComponentsService&#45;&gt;BulkLoadModule</title>
<path fill="none" stroke="#000000" d="M309,-122.0225C309,-139.3734 309,-163 309,-163 309,-163 502.3993,-163 502.3993,-163"/>
<polygon fill="#000000" stroke="#000000" points="502.3994,-166.5001 512.3993,-163 502.3993,-159.5001 502.3994,-166.5001"/>
</g>
<!-- EventEmitterOrders -->
<g id="node8" class="node">
<title>EventEmitterOrders</title>
<ellipse fill="#fdb462" stroke="#000000" cx="113" cy="-104" rx="88.5986" ry="18"/>
<text text-anchor="middle" x="113" y="-99.8" font-family="Times,serif" font-size="14.00" fill="#000000">EventEmitterOrders</text>
</g>
<!-- EventEmitterOrders&#45;&gt;BulkLoadModule -->
<g id="edge7" class="edge">
<title>EventEmitterOrders&#45;&gt;BulkLoadModule</title>
<path fill="none" stroke="#000000" d="M113,-122.2843C113,-143.3211 113,-175 113,-175 113,-175 502.1206,-175 502.1206,-175"/>
<polygon fill="#000000" stroke="#000000" points="502.1207,-178.5001 512.1206,-175 502.1206,-171.5001 502.1207,-178.5001"/>
</g>
</g>
</svg>
