<?xml version="1.0" encoding="UTF-8" standalone="no"?>
<!DOCTYPE svg PUBLIC "-//W3C//DTD SVG 1.1//EN"
 "http://www.w3.org/Graphics/SVG/1.1/DTD/svg11.dtd">
<!-- Generated by graphviz version 2.40.1 (20161225.0304)
 -->
<!-- Title: dependencies Pages: 1 -->
<svg width="2191pt" height="284pt"
 viewBox="0.00 0.00 2191.00 284.00" xmlns="http://www.w3.org/2000/svg" xmlns:xlink="http://www.w3.org/1999/xlink">
<g id="graph0" class="graph" transform="scale(1 1) rotate(0) translate(4 280)">
<title>dependencies</title>
<polygon fill="#ffffff" stroke="transparent" points="-4,4 -4,-280 2187,-280 2187,4 -4,4"/>
<text text-anchor="start" x="1070.5091" y="-42.4" font-family="sans-serif" font-weight="bold" font-size="14.00" fill="#000000">Legend</text>
<polygon fill="#ffffb3" stroke="transparent" points="857.5,-10 857.5,-30 877.5,-30 877.5,-10 857.5,-10"/>
<text text-anchor="start" x="881.129" y="-15.4" font-family="sans-serif" font-size="14.00" fill="#000000"> &#160;Declarations</text>
<polygon fill="#8dd3c7" stroke="transparent" points="970.5,-10 970.5,-30 990.5,-30 990.5,-10 970.5,-10"/>
<text text-anchor="start" x="994.2251" y="-15.4" font-family="sans-serif" font-size="14.00" fill="#000000"> &#160;Module</text>
<polygon fill="#80b1d3" stroke="transparent" points="1056.5,-10 1056.5,-30 1076.5,-30 1076.5,-10 1056.5,-10"/>
<text text-anchor="start" x="1080.2812" y="-15.4" font-family="sans-serif" font-size="14.00" fill="#000000"> &#160;Bootstrap</text>
<polygon fill="#fdb462" stroke="transparent" points="1153.5,-10 1153.5,-30 1173.5,-30 1173.5,-10 1153.5,-10"/>
<text text-anchor="start" x="1177.1732" y="-15.4" font-family="sans-serif" font-size="14.00" fill="#000000"> &#160;Providers</text>
<polygon fill="#fb8072" stroke="transparent" points="1249.5,-10 1249.5,-30 1269.5,-30 1269.5,-10 1249.5,-10"/>
<text text-anchor="start" x="1273.2258" y="-15.4" font-family="sans-serif" font-size="14.00" fill="#000000"> &#160;Exports</text>
<g id="clust1" class="cluster">
<title>cluster_BulkLoadModule</title>
<polygon fill="none" stroke="#000000" stroke-dasharray="1,5" points="8,-70 8,-268 2175,-268 2175,-70 8,-70"/>
</g>
<g id="clust2" class="cluster">
<title>cluster_BulkLoadModule_declarations</title>
<polygon fill="none" stroke="#000000" points="1445,-78 1445,-130 2167,-130 2167,-78 1445,-78"/>
</g>
<g id="clust7" class="cluster">
<title>cluster_BulkLoadModule_imports</title>
<polygon fill="none" stroke="#000000" points="1136,-78 1136,-130 1437,-130 1437,-78 1136,-78"/>
</g>
<g id="clust8" class="cluster">
<title>cluster_BulkLoadModule_exports</title>
<polygon fill="none" stroke="#000000" points="767,-208 767,-260 1503,-260 1503,-208 767,-208"/>
</g>
<g id="clust10" class="cluster">
<title>cluster_BulkLoadModule_providers</title>
<polygon fill="none" stroke="#000000" points="16,-78 16,-130 1128,-130 1128,-78 16,-78"/>
</g>
<!-- BulkLoadComponent -->
<g id="node1" class="node">
<title>BulkLoadComponent</title>
<polygon fill="#ffffb3" stroke="#000000" points="2158.8272,-122 2021.1728,-122 2021.1728,-86 2158.8272,-86 2158.8272,-122"/>
<text text-anchor="middle" x="2090" y="-99.8" font-family="Times,serif" font-size="14.00" fill="#000000">BulkLoadComponent</text>
</g>
<!-- BulkLoadModule -->
<g id="node5" class="node">
<title>BulkLoadModule</title>
<polygon fill="#8dd3c7" stroke="#000000" points="1176.5451,-187 1173.5451,-191 1152.5451,-191 1149.5451,-187 1061.4549,-187 1061.4549,-151 1176.5451,-151 1176.5451,-187"/>
<text text-anchor="middle" x="1119" y="-164.8" font-family="Times,serif" font-size="14.00" fill="#000000">BulkLoadModule</text>
</g>
<!-- BulkLoadComponent&#45;&gt;BulkLoadModule -->
<g id="edge1" class="edge">
<title>BulkLoadComponent&#45;&gt;BulkLoadModule</title>
<path fill="none" stroke="#000000" d="M2090,-122.0449C2090,-143.6623 2090,-177 2090,-177 2090,-177 1186.8326,-177 1186.8326,-177"/>
<polygon fill="#000000" stroke="#000000" points="1186.8326,-173.5001 1176.8326,-177 1186.8326,-180.5001 1186.8326,-173.5001"/>
</g>
<!-- FinishUploadInformationComponent -->
<g id="node2" class="node">
<title>FinishUploadInformationComponent</title>
<polygon fill="#ffffb3" stroke="#000000" points="2003.4212,-122 1778.5788,-122 1778.5788,-86 2003.4212,-86 2003.4212,-122"/>
<text text-anchor="middle" x="1891" y="-99.8" font-family="Times,serif" font-size="14.00" fill="#000000">FinishUploadInformationComponent</text>
</g>
<!-- FinishUploadInformationComponent&#45;&gt;BulkLoadModule -->
<g id="edge2" class="edge">
<title>FinishUploadInformationComponent&#45;&gt;BulkLoadModule</title>
<path fill="none" stroke="#000000" d="M1891,-122.2228C1891,-142.3652 1891,-172 1891,-172 1891,-172 1186.7098,-172 1186.7098,-172"/>
<polygon fill="#000000" stroke="#000000" points="1186.7098,-168.5001 1176.7098,-172 1186.7097,-175.5001 1186.7098,-168.5001"/>
</g>
<!-- TableErrorsComponent -->
<g id="node3" class="node">
<title>TableErrorsComponent</title>
<polygon fill="#ffffb3" stroke="#000000" points="1761.1839,-122 1612.8161,-122 1612.8161,-86 1761.1839,-86 1761.1839,-122"/>
<text text-anchor="middle" x="1687" y="-99.8" font-family="Times,serif" font-size="14.00" fill="#000000">TableErrorsComponent</text>
</g>
<!-- TableErrorsComponent&#45;&gt;BulkLoadModule -->
<g id="edge3" class="edge">
<title>TableErrorsComponent&#45;&gt;BulkLoadModule</title>
<path fill="none" stroke="#000000" d="M1687,-122.2222C1687,-140.8285 1687,-167 1687,-167 1687,-167 1186.5887,-167 1186.5887,-167"/>
<polygon fill="#000000" stroke="#000000" points="1186.5887,-163.5001 1176.5887,-167 1186.5886,-170.5001 1186.5887,-163.5001"/>
</g>
<!-- TableLoadComponent -->
<g id="node4" class="node">
<title>TableLoadComponent</title>
<polygon fill="#ffffb3" stroke="#000000" points="1594.972,-122 1453.028,-122 1453.028,-86 1594.972,-86 1594.972,-122"/>
<text text-anchor="middle" x="1524" y="-99.8" font-family="Times,serif" font-size="14.00" fill="#000000">TableLoadComponent</text>
</g>
<!-- TableLoadComponent&#45;&gt;BulkLoadModule -->
<g id="edge4" class="edge">
<title>TableLoadComponent&#45;&gt;BulkLoadModule</title>
<path fill="none" stroke="#000000" d="M1474.2137,-122.0336C1474.2137,-139.0597 1474.2137,-162 1474.2137,-162 1474.2137,-162 1186.8618,-162 1186.8618,-162"/>
<polygon fill="#000000" stroke="#000000" points="1186.8618,-158.5001 1176.8618,-162 1186.8618,-165.5001 1186.8618,-158.5001"/>
</g>
<!-- BulkLoadComponent  -->
<g id="node8" class="node">
<title>BulkLoadComponent </title>
<polygon fill="#fb8072" stroke="#000000" points="1495.3269,-252 1354.6731,-252 1354.6731,-216 1495.3269,-216 1495.3269,-252"/>
<text text-anchor="middle" x="1425" y="-229.8" font-family="Times,serif" font-size="14.00" fill="#000000">BulkLoadComponent </text>
</g>
<!-- BulkLoadModule&#45;&gt;BulkLoadComponent  -->
<g id="edge7" class="edge">
<title>BulkLoadModule&#45;&gt;BulkLoadComponent </title>
<path fill="none" stroke="#000000" stroke-dasharray="5,2" d="M1176.554,-182C1256.637,-182 1391.9588,-182 1391.9588,-182 1391.9588,-182 1391.9588,-205.8129 1391.9588,-205.8129"/>
<polygon fill="#000000" stroke="#000000" points="1388.4589,-205.8129 1391.9588,-215.8129 1395.4589,-205.813 1388.4589,-205.8129"/>
</g>
<!-- FinishUploadInformationComponent  -->
<g id="node9" class="node">
<title>FinishUploadInformationComponent </title>
<polygon fill="#fb8072" stroke="#000000" points="1336.9208,-252 1109.0792,-252 1109.0792,-216 1336.9208,-216 1336.9208,-252"/>
<text text-anchor="middle" x="1223" y="-229.8" font-family="Times,serif" font-size="14.00" fill="#000000">FinishUploadInformationComponent </text>
</g>
<!-- BulkLoadModule&#45;&gt;FinishUploadInformationComponent  -->
<g id="edge8" class="edge">
<title>BulkLoadModule&#45;&gt;FinishUploadInformationComponent </title>
<path fill="none" stroke="#000000" stroke-dasharray="5,2" d="M1142.9059,-187.1061C1142.9059,-187.1061 1142.9059,-205.991 1142.9059,-205.991"/>
<polygon fill="#000000" stroke="#000000" points="1139.4059,-205.9909 1142.9059,-215.991 1146.4059,-205.991 1139.4059,-205.9909"/>
</g>
<!-- TableErrorsComponent  -->
<g id="node10" class="node">
<title>TableErrorsComponent </title>
<polygon fill="#fb8072" stroke="#000000" points="1090.6841,-252 939.3159,-252 939.3159,-216 1090.6841,-216 1090.6841,-252"/>
<text text-anchor="middle" x="1015" y="-229.8" font-family="Times,serif" font-size="14.00" fill="#000000">TableErrorsComponent </text>
</g>
<!-- BulkLoadModule&#45;&gt;TableErrorsComponent  -->
<g id="edge9" class="edge">
<title>BulkLoadModule&#45;&gt;TableErrorsComponent </title>
<path fill="none" stroke="#000000" stroke-dasharray="5,2" d="M1076.0349,-187.1061C1076.0349,-187.1061 1076.0349,-205.991 1076.0349,-205.991"/>
<polygon fill="#000000" stroke="#000000" points="1072.535,-205.9909 1076.0349,-215.991 1079.535,-205.991 1072.535,-205.9909"/>
</g>
<!-- TableLoadComponent  -->
<g id="node11" class="node">
<title>TableLoadComponent </title>
<polygon fill="#fb8072" stroke="#000000" points="920.9728,-252 775.0272,-252 775.0272,-216 920.9728,-216 920.9728,-252"/>
<text text-anchor="middle" x="848" y="-229.8" font-family="Times,serif" font-size="14.00" fill="#000000">TableLoadComponent </text>
</g>
<!-- BulkLoadModule&#45;&gt;TableLoadComponent  -->
<g id="edge10" class="edge">
<title>BulkLoadModule&#45;&gt;TableLoadComponent </title>
<path fill="none" stroke="#000000" stroke-dasharray="5,2" d="M1061.1961,-182C981.6064,-182 848,-182 848,-182 848,-182 848,-205.8129 848,-205.8129"/>
<polygon fill="#000000" stroke="#000000" points="844.5001,-205.8129 848,-215.8129 851.5001,-205.813 844.5001,-205.8129"/>
</g>
<!-- BulkLoadRoutingModule -->
<g id="node6" class="node">
<title>BulkLoadRoutingModule</title>
<polygon fill="#8dd3c7" stroke="#000000" points="1429.1624,-122 1426.1624,-126 1405.1624,-126 1402.1624,-122 1268.8376,-122 1268.8376,-86 1429.1624,-86 1429.1624,-122"/>
<text text-anchor="middle" x="1349" y="-99.8" font-family="Times,serif" font-size="14.00" fill="#000000">BulkLoadRoutingModule</text>
</g>
<!-- BulkLoadRoutingModule&#45;&gt;BulkLoadModule -->
<g id="edge5" class="edge">
<title>BulkLoadRoutingModule&#45;&gt;BulkLoadModule</title>
<path fill="none" stroke="#000000" d="M1302.8147,-122.2396C1302.8147,-137.5706 1302.8147,-157 1302.8147,-157 1302.8147,-157 1186.6558,-157 1186.6558,-157"/>
<polygon fill="#000000" stroke="#000000" points="1186.6558,-153.5001 1176.6558,-157 1186.6558,-160.5001 1186.6558,-153.5001"/>
</g>
<!-- MaterialModule -->
<g id="node7" class="node">
<title>MaterialModule</title>
<polygon fill="#8dd3c7" stroke="#000000" points="1250.4706,-122 1247.4706,-126 1226.4706,-126 1223.4706,-122 1143.5294,-122 1143.5294,-86 1250.4706,-86 1250.4706,-122"/>
<text text-anchor="middle" x="1197" y="-99.8" font-family="Times,serif" font-size="14.00" fill="#000000">MaterialModule</text>
</g>
<!-- MaterialModule&#45;&gt;BulkLoadModule -->
<g id="edge6" class="edge">
<title>MaterialModule&#45;&gt;BulkLoadModule</title>
<path fill="none" stroke="#000000" d="M1160.1434,-122.1061C1160.1434,-122.1061 1160.1434,-140.991 1160.1434,-140.991"/>
<polygon fill="#000000" stroke="#000000" points="1156.6435,-140.9909 1160.1434,-150.991 1163.6435,-140.991 1156.6435,-140.9909"/>
</g>
<!-- BulkLoadService -->
<g id="node12" class="node">
<title>BulkLoadService</title>
<ellipse fill="#fdb462" stroke="#000000" cx="1041" cy="-104" rx="78.7318" ry="18"/>
<text text-anchor="middle" x="1041" y="-99.8" font-family="Times,serif" font-size="14.00" fill="#000000">BulkLoadService</text>
</g>
<!-- BulkLoadService&#45;&gt;BulkLoadModule -->
<g id="edge11" class="edge">
<title>BulkLoadService&#45;&gt;BulkLoadModule</title>
<path fill="none" stroke="#000000" d="M1090.4219,-118.104C1090.4219,-118.104 1090.4219,-140.7209 1090.4219,-140.7209"/>
<polygon fill="#000000" stroke="#000000" points="1086.922,-140.7209 1090.4219,-150.7209 1093.922,-140.7209 1086.922,-140.7209"/>
</g>
<!-- ComponentsService -->
<g id="node13" class="node">
<title>ComponentsService</title>
<ellipse fill="#fdb462" stroke="#000000" cx="856" cy="-104" rx="88.6255" ry="18"/>
<text text-anchor="middle" x="856" y="-99.8" font-family="Times,serif" font-size="14.00" fill="#000000">ComponentsService</text>
</g>
<!-- ComponentsService&#45;&gt;BulkLoadModule -->
<g id="edge12" class="edge">
<title>ComponentsService&#45;&gt;BulkLoadModule</title>
<path fill="none" stroke="#000000" d="M929.9471,-114.2189C929.9471,-129.6201 929.9471,-157 929.9471,-157 929.9471,-157 1051.2506,-157 1051.2506,-157"/>
<polygon fill="#000000" stroke="#000000" points="1051.2507,-160.5001 1061.2506,-157 1051.2506,-153.5001 1051.2507,-160.5001"/>
</g>
<!-- EndpointService -->
<g id="node14" class="node">
<title>EndpointService</title>
<ellipse fill="#fdb462" stroke="#000000" cx="674" cy="-104" rx="75.3021" ry="18"/>
<text text-anchor="middle" x="674" y="-99.8" font-family="Times,serif" font-size="14.00" fill="#000000">EndpointService</text>
</g>
<!-- EndpointService&#45;&gt;BulkLoadModule -->
<g id="edge13" class="edge">
<title>EndpointService&#45;&gt;BulkLoadModule</title>
<path fill="none" stroke="#000000" d="M674,-122.0336C674,-139.0597 674,-162 674,-162 674,-162 1051.2802,-162 1051.2802,-162"/>
<polygon fill="#000000" stroke="#000000" points="1051.2803,-165.5001 1061.2802,-162 1051.2802,-158.5001 1051.2803,-165.5001"/>
</g>
<!-- EventEmitterOrders -->
<g id="node15" class="node">
<title>EventEmitterOrders</title>
<ellipse fill="#fdb462" stroke="#000000" cx="492" cy="-104" rx="88.5986" ry="18"/>
<text text-anchor="middle" x="492" y="-99.8" font-family="Times,serif" font-size="14.00" fill="#000000">EventEmitterOrders</text>
</g>
<!-- EventEmitterOrders&#45;&gt;BulkLoadModule -->
<g id="edge14" class="edge">
<title>EventEmitterOrders&#45;&gt;BulkLoadModule</title>
<path fill="none" stroke="#000000" d="M492,-122.2222C492,-140.8285 492,-167 492,-167 492,-167 1051.4168,-167 1051.4168,-167"/>
<polygon fill="#000000" stroke="#000000" points="1051.4168,-170.5001 1061.4168,-167 1051.4167,-163.5001 1051.4168,-170.5001"/>
</g>
<!-- HttpErrorHandlingService -->
<g id="node16" class="node">
<title>HttpErrorHandlingService</title>
<ellipse fill="#fdb462" stroke="#000000" cx="272" cy="-104" rx="113.4412" ry="18"/>
<text text-anchor="middle" x="272" y="-99.8" font-family="Times,serif" font-size="14.00" fill="#000000">HttpErrorHandlingService</text>
</g>
<!-- HttpErrorHandlingService&#45;&gt;BulkLoadModule -->
<g id="edge15" class="edge">
<title>HttpErrorHandlingService&#45;&gt;BulkLoadModule</title>
<path fill="none" stroke="#000000" d="M272,-122.2228C272,-142.3652 272,-172 272,-172 272,-172 1051.4482,-172 1051.4482,-172"/>
<polygon fill="#000000" stroke="#000000" points="1051.4482,-175.5001 1061.4482,-172 1051.4481,-168.5001 1051.4482,-175.5001"/>
</g>
<!-- UserService -->
<g id="node17" class="node">
<title>UserService</title>
<ellipse fill="#fdb462" stroke="#000000" cx="82" cy="-104" rx="58.4415" ry="18"/>
<text text-anchor="middle" x="82" y="-99.8" font-family="Times,serif" font-size="14.00" fill="#000000">UserService</text>
</g>
<!-- UserService&#45;&gt;BulkLoadModule -->
<g id="edge16" class="edge">
<title>UserService&#45;&gt;BulkLoadModule</title>
<path fill="none" stroke="#000000" d="M82,-122.0449C82,-143.6623 82,-177 82,-177 82,-177 1051.3973,-177 1051.3973,-177"/>
<polygon fill="#000000" stroke="#000000" points="1051.3974,-180.5001 1061.3973,-177 1051.3973,-173.5001 1051.3974,-180.5001"/>
</g>
</g>
</svg>
