<?xml version="1.0" encoding="UTF-8" standalone="no"?>
<!DOCTYPE svg PUBLIC "-//W3C//DTD SVG 1.1//EN"
 "http://www.w3.org/Graphics/SVG/1.1/DTD/svg11.dtd">
<!-- Generated by graphviz version 2.40.1 (20161225.0304)
 -->
<!-- Title: dependencies Pages: 1 -->
<svg width="1636pt" height="284pt"
 viewBox="0.00 0.00 1636.00 284.00" xmlns="http://www.w3.org/2000/svg" xmlns:xlink="http://www.w3.org/1999/xlink">
<g id="graph0" class="graph" transform="scale(1 1) rotate(0) translate(4 280)">
<title>dependencies</title>
<polygon fill="#ffffff" stroke="transparent" points="-4,4 -4,-280 1632,-280 1632,4 -4,4"/>
<text text-anchor="start" x="793.0091" y="-42.4" font-family="sans-serif" font-weight="bold" font-size="14.00" fill="#000000">Legend</text>
<polygon fill="#ffffb3" stroke="transparent" points="580,-10 580,-30 600,-30 600,-10 580,-10"/>
<text text-anchor="start" x="603.629" y="-15.4" font-family="sans-serif" font-size="14.00" fill="#000000"> &#160;Declarations</text>
<polygon fill="#8dd3c7" stroke="transparent" points="693,-10 693,-30 713,-30 713,-10 693,-10"/>
<text text-anchor="start" x="716.7251" y="-15.4" font-family="sans-serif" font-size="14.00" fill="#000000"> &#160;Module</text>
<polygon fill="#80b1d3" stroke="transparent" points="779,-10 779,-30 799,-30 799,-10 779,-10"/>
<text text-anchor="start" x="802.7812" y="-15.4" font-family="sans-serif" font-size="14.00" fill="#000000"> &#160;Bootstrap</text>
<polygon fill="#fdb462" stroke="transparent" points="876,-10 876,-30 896,-30 896,-10 876,-10"/>
<text text-anchor="start" x="899.6732" y="-15.4" font-family="sans-serif" font-size="14.00" fill="#000000"> &#160;Providers</text>
<polygon fill="#fb8072" stroke="transparent" points="972,-10 972,-30 992,-30 992,-10 972,-10"/>
<text text-anchor="start" x="995.7258" y="-15.4" font-family="sans-serif" font-size="14.00" fill="#000000"> &#160;Exports</text>
<g id="clust1" class="cluster">
<title>cluster_BulkLoadModule</title>
<polygon fill="none" stroke="#000000" stroke-dasharray="1,5" points="8,-70 8,-268 1620,-268 1620,-70 8,-70"/>
</g>
<g id="clust2" class="cluster">
<title>cluster_BulkLoadModule_declarations</title>
<polygon fill="none" stroke="#000000" points="890,-78 890,-130 1612,-130 1612,-78 890,-78"/>
</g>
<g id="clust7" class="cluster">
<title>cluster_BulkLoadModule_imports</title>
<polygon fill="none" stroke="#000000" points="589,-78 589,-130 882,-130 882,-78 589,-78"/>
</g>
<g id="clust8" class="cluster">
<title>cluster_BulkLoadModule_exports</title>
<polygon fill="none" stroke="#000000" points="442,-208 442,-260 1178,-260 1178,-208 442,-208"/>
</g>
<g id="clust10" class="cluster">
<title>cluster_BulkLoadModule_providers</title>
<polygon fill="none" stroke="#000000" points="16,-78 16,-130 581,-130 581,-78 16,-78"/>
</g>
<!-- BulkLoadComponent -->
<g id="node1" class="node">
<title>BulkLoadComponent</title>
<polygon fill="#ffffb3" stroke="#000000" points="1603.8272,-122 1466.1728,-122 1466.1728,-86 1603.8272,-86 1603.8272,-122"/>
<text text-anchor="middle" x="1535" y="-99.8" font-family="Times,serif" font-size="14.00" fill="#000000">BulkLoadComponent</text>
</g>
<!-- BulkLoadModule -->
<g id="node5" class="node">
<title>BulkLoadModule</title>
<polygon fill="#8dd3c7" stroke="#000000" points="851.5451,-187 848.5451,-191 827.5451,-191 824.5451,-187 736.4549,-187 736.4549,-151 851.5451,-151 851.5451,-187"/>
<text text-anchor="middle" x="794" y="-164.8" font-family="Times,serif" font-size="14.00" fill="#000000">BulkLoadModule</text>
</g>
<!-- BulkLoadComponent&#45;&gt;BulkLoadModule -->
<g id="edge1" class="edge">
<title>BulkLoadComponent&#45;&gt;BulkLoadModule</title>
<path fill="none" stroke="#000000" d="M1535,-122.2843C1535,-143.3211 1535,-175 1535,-175 1535,-175 861.8364,-175 861.8364,-175"/>
<polygon fill="#000000" stroke="#000000" points="861.8364,-171.5001 851.8364,-175 861.8363,-178.5001 861.8364,-171.5001"/>
</g>
<!-- FinishUploadInformationComponent -->
<g id="node2" class="node">
<title>FinishUploadInformationComponent</title>
<polygon fill="#ffffb3" stroke="#000000" points="1448.4212,-122 1223.5788,-122 1223.5788,-86 1448.4212,-86 1448.4212,-122"/>
<text text-anchor="middle" x="1336" y="-99.8" font-family="Times,serif" font-size="14.00" fill="#000000">FinishUploadInformationComponent</text>
</g>
<!-- FinishUploadInformationComponent&#45;&gt;BulkLoadModule -->
<g id="edge2" class="edge">
<title>FinishUploadInformationComponent&#45;&gt;BulkLoadModule</title>
<path fill="none" stroke="#000000" d="M1336,-122.1061C1336,-141.3391 1336,-169 1336,-169 1336,-169 861.7467,-169 861.7467,-169"/>
<polygon fill="#000000" stroke="#000000" points="861.7467,-165.5001 851.7467,-169 861.7467,-172.5001 861.7467,-165.5001"/>
</g>
<!-- TableErrorsComponent -->
<g id="node3" class="node">
<title>TableErrorsComponent</title>
<polygon fill="#ffffb3" stroke="#000000" points="1206.1839,-122 1057.8161,-122 1057.8161,-86 1206.1839,-86 1206.1839,-122"/>
<text text-anchor="middle" x="1132" y="-99.8" font-family="Times,serif" font-size="14.00" fill="#000000">TableErrorsComponent</text>
</g>
<!-- TableErrorsComponent&#45;&gt;BulkLoadModule -->
<g id="edge3" class="edge">
<title>TableErrorsComponent&#45;&gt;BulkLoadModule</title>
<path fill="none" stroke="#000000" d="M1114.1608,-122.0225C1114.1608,-139.3734 1114.1608,-163 1114.1608,-163 1114.1608,-163 861.6081,-163 861.6081,-163"/>
<polygon fill="#000000" stroke="#000000" points="861.6081,-159.5001 851.6081,-163 861.6081,-166.5001 861.6081,-159.5001"/>
</g>
<!-- TableLoadComponent -->
<g id="node4" class="node">
<title>TableLoadComponent</title>
<polygon fill="#ffffb3" stroke="#000000" points="1039.972,-122 898.028,-122 898.028,-86 1039.972,-86 1039.972,-122"/>
<text text-anchor="middle" x="969" y="-99.8" font-family="Times,serif" font-size="14.00" fill="#000000">TableLoadComponent</text>
</g>
<!-- TableLoadComponent&#45;&gt;BulkLoadModule -->
<g id="edge4" class="edge">
<title>TableLoadComponent&#45;&gt;BulkLoadModule</title>
<path fill="none" stroke="#000000" d="M954.9872,-122.2396C954.9872,-137.5706 954.9872,-157 954.9872,-157 954.9872,-157 861.6654,-157 861.6654,-157"/>
<polygon fill="#000000" stroke="#000000" points="861.6654,-153.5001 851.6654,-157 861.6653,-160.5001 861.6654,-153.5001"/>
</g>
<!-- BulkLoadComponent  -->
<g id="node8" class="node">
<title>BulkLoadComponent </title>
<polygon fill="#fb8072" stroke="#000000" points="1170.3269,-252 1029.6731,-252 1029.6731,-216 1170.3269,-216 1170.3269,-252"/>
<text text-anchor="middle" x="1100" y="-229.8" font-family="Times,serif" font-size="14.00" fill="#000000">BulkLoadComponent </text>
</g>
<!-- BulkLoadModule&#45;&gt;BulkLoadComponent  -->
<g id="edge7" class="edge">
<title>BulkLoadModule&#45;&gt;BulkLoadComponent </title>
<path fill="none" stroke="#000000" stroke-dasharray="5,2" d="M851.6743,-181C922.9088,-181 1034.7863,-181 1034.7863,-181 1034.7863,-181 1034.7863,-205.7604 1034.7863,-205.7604"/>
<polygon fill="#000000" stroke="#000000" points="1031.2864,-205.7604 1034.7863,-215.7604 1038.2864,-205.7604 1031.2864,-205.7604"/>
</g>
<!-- FinishUploadInformationComponent  -->
<g id="node9" class="node">
<title>FinishUploadInformationComponent </title>
<polygon fill="#fb8072" stroke="#000000" points="1011.9208,-252 784.0792,-252 784.0792,-216 1011.9208,-216 1011.9208,-252"/>
<text text-anchor="middle" x="898" y="-229.8" font-family="Times,serif" font-size="14.00" fill="#000000">FinishUploadInformationComponent </text>
</g>
<!-- BulkLoadModule&#45;&gt;FinishUploadInformationComponent  -->
<g id="edge8" class="edge">
<title>BulkLoadModule&#45;&gt;FinishUploadInformationComponent </title>
<path fill="none" stroke="#000000" stroke-dasharray="5,2" d="M817.9059,-187.1061C817.9059,-187.1061 817.9059,-205.991 817.9059,-205.991"/>
<polygon fill="#000000" stroke="#000000" points="814.4059,-205.9909 817.9059,-215.991 821.4059,-205.991 814.4059,-205.9909"/>
</g>
<!-- TableErrorsComponent  -->
<g id="node10" class="node">
<title>TableErrorsComponent </title>
<polygon fill="#fb8072" stroke="#000000" points="765.6841,-252 614.3159,-252 614.3159,-216 765.6841,-216 765.6841,-252"/>
<text text-anchor="middle" x="690" y="-229.8" font-family="Times,serif" font-size="14.00" fill="#000000">TableErrorsComponent </text>
</g>
<!-- BulkLoadModule&#45;&gt;TableErrorsComponent  -->
<g id="edge9" class="edge">
<title>BulkLoadModule&#45;&gt;TableErrorsComponent </title>
<path fill="none" stroke="#000000" stroke-dasharray="5,2" d="M751.0349,-187.1061C751.0349,-187.1061 751.0349,-205.991 751.0349,-205.991"/>
<polygon fill="#000000" stroke="#000000" points="747.535,-205.9909 751.0349,-215.991 754.535,-205.991 747.535,-205.9909"/>
</g>
<!-- TableLoadComponent  -->
<g id="node11" class="node">
<title>TableLoadComponent </title>
<polygon fill="#fb8072" stroke="#000000" points="595.9728,-252 450.0272,-252 450.0272,-216 595.9728,-216 595.9728,-252"/>
<text text-anchor="middle" x="523" y="-229.8" font-family="Times,serif" font-size="14.00" fill="#000000">TableLoadComponent </text>
</g>
<!-- BulkLoadModule&#45;&gt;TableLoadComponent  -->
<g id="edge10" class="edge">
<title>BulkLoadModule&#45;&gt;TableLoadComponent </title>
<path fill="none" stroke="#000000" stroke-dasharray="5,2" d="M736.3871,-181C674.2709,-181 584.1759,-181 584.1759,-181 584.1759,-181 584.1759,-205.7604 584.1759,-205.7604"/>
<polygon fill="#000000" stroke="#000000" points="580.676,-205.7604 584.1759,-215.7604 587.676,-205.7604 580.676,-205.7604"/>
</g>
<!-- BulkLoadRoutingModule -->
<g id="node6" class="node">
<title>BulkLoadRoutingModule</title>
<polygon fill="#8dd3c7" stroke="#000000" points="874.1624,-122 871.1624,-126 850.1624,-126 847.1624,-122 713.8376,-122 713.8376,-86 874.1624,-86 874.1624,-122"/>
<text text-anchor="middle" x="794" y="-99.8" font-family="Times,serif" font-size="14.00" fill="#000000">BulkLoadRoutingModule</text>
</g>
<!-- BulkLoadRoutingModule&#45;&gt;BulkLoadModule -->
<g id="edge5" class="edge">
<title>BulkLoadRoutingModule&#45;&gt;BulkLoadModule</title>
<path fill="none" stroke="#000000" d="M794,-122.1061C794,-122.1061 794,-140.991 794,-140.991"/>
<polygon fill="#000000" stroke="#000000" points="790.5001,-140.9909 794,-150.991 797.5001,-140.991 790.5001,-140.9909"/>
</g>
<!-- SharedModule -->
<g id="node7" class="node">
<title>SharedModule</title>
<polygon fill="#8dd3c7" stroke="#000000" points="695.4231,-122 692.4231,-126 671.4231,-126 668.4231,-122 596.5769,-122 596.5769,-86 695.4231,-86 695.4231,-122"/>
<text text-anchor="middle" x="646" y="-99.8" font-family="Times,serif" font-size="14.00" fill="#000000">SharedModule</text>
</g>
<!-- SharedModule&#45;&gt;BulkLoadModule -->
<g id="edge6" class="edge">
<title>SharedModule&#45;&gt;BulkLoadModule</title>
<path fill="none" stroke="#000000" d="M654.6846,-122.2396C654.6846,-137.5706 654.6846,-157 654.6846,-157 654.6846,-157 726.128,-157 726.128,-157"/>
<polygon fill="#000000" stroke="#000000" points="726.1281,-160.5001 736.128,-157 726.128,-153.5001 726.1281,-160.5001"/>
</g>
<!-- BulkLoadService -->
<g id="node12" class="node">
<title>BulkLoadService</title>
<ellipse fill="#fdb462" stroke="#000000" cx="494" cy="-104" rx="78.7318" ry="18"/>
<text text-anchor="middle" x="494" y="-99.8" font-family="Times,serif" font-size="14.00" fill="#000000">BulkLoadService</text>
</g>
<!-- BulkLoadService&#45;&gt;BulkLoadModule -->
<g id="edge11" class="edge">
<title>BulkLoadService&#45;&gt;BulkLoadModule</title>
<path fill="none" stroke="#000000" d="M511.4399,-121.7019C511.4399,-139.0808 511.4399,-163 511.4399,-163 511.4399,-163 726.1379,-163 726.1379,-163"/>
<polygon fill="#000000" stroke="#000000" points="726.1379,-166.5001 736.1379,-163 726.1379,-159.5001 726.1379,-166.5001"/>
</g>
<!-- ComponentsService -->
<g id="node13" class="node">
<title>ComponentsService</title>
<ellipse fill="#fdb462" stroke="#000000" cx="309" cy="-104" rx="88.6255" ry="18"/>
<text text-anchor="middle" x="309" y="-99.8" font-family="Times,serif" font-size="14.00" fill="#000000">ComponentsService</text>
</g>
<!-- ComponentsService&#45;&gt;BulkLoadModule -->
<g id="edge12" class="edge">
<title>ComponentsService&#45;&gt;BulkLoadModule</title>
<path fill="none" stroke="#000000" d="M309,-122.1061C309,-141.3391 309,-169 309,-169 309,-169 725.9794,-169 725.9794,-169"/>
<polygon fill="#000000" stroke="#000000" points="725.9794,-172.5001 735.9794,-169 725.9794,-165.5001 725.9794,-172.5001"/>
</g>
<!-- EventEmitterOrders -->
<g id="node14" class="node">
<title>EventEmitterOrders</title>
<ellipse fill="#fdb462" stroke="#000000" cx="113" cy="-104" rx="88.5986" ry="18"/>
<text text-anchor="middle" x="113" y="-99.8" font-family="Times,serif" font-size="14.00" fill="#000000">EventEmitterOrders</text>
</g>
<!-- EventEmitterOrders&#45;&gt;BulkLoadModule -->
<g id="edge13" class="edge">
<title>EventEmitterOrders&#45;&gt;BulkLoadModule</title>
<path fill="none" stroke="#000000" d="M113,-122.2843C113,-143.3211 113,-175 113,-175 113,-175 726.2321,-175 726.2321,-175"/>
<polygon fill="#000000" stroke="#000000" points="726.2321,-178.5001 736.2321,-175 726.2321,-171.5001 726.2321,-178.5001"/>
</g>
</g>
</svg>
