<?xml version="1.0" encoding="UTF-8" standalone="no"?>
<!DOCTYPE svg PUBLIC "-//W3C//DTD SVG 1.1//EN"
 "http://www.w3.org/Graphics/SVG/1.1/DTD/svg11.dtd">
<!-- Generated by graphviz version 2.40.1 (20161225.0304)
 -->
<!-- Title: dependencies Pages: 1 -->
<svg width="658pt" height="284pt"
 viewBox="0.00 0.00 658.00 284.00" xmlns="http://www.w3.org/2000/svg" xmlns:xlink="http://www.w3.org/1999/xlink">
<g id="graph0" class="graph" transform="scale(1 1) rotate(0) translate(4 280)">
<title>dependencies</title>
<polygon fill="#ffffff" stroke="transparent" points="-4,4 -4,-280 654,-280 654,4 -4,4"/>
<text text-anchor="start" x="304.0091" y="-42.4" font-family="sans-serif" font-weight="bold" font-size="14.00" fill="#000000">Legend</text>
<polygon fill="#ffffb3" stroke="transparent" points="91,-10 91,-30 111,-30 111,-10 91,-10"/>
<text text-anchor="start" x="114.629" y="-15.4" font-family="sans-serif" font-size="14.00" fill="#000000"> &#160;Declarations</text>
<polygon fill="#8dd3c7" stroke="transparent" points="204,-10 204,-30 224,-30 224,-10 204,-10"/>
<text text-anchor="start" x="227.7251" y="-15.4" font-family="sans-serif" font-size="14.00" fill="#000000"> &#160;Module</text>
<polygon fill="#80b1d3" stroke="transparent" points="290,-10 290,-30 310,-30 310,-10 290,-10"/>
<text text-anchor="start" x="313.7812" y="-15.4" font-family="sans-serif" font-size="14.00" fill="#000000"> &#160;Bootstrap</text>
<polygon fill="#fdb462" stroke="transparent" points="387,-10 387,-30 407,-30 407,-10 387,-10"/>
<text text-anchor="start" x="410.6732" y="-15.4" font-family="sans-serif" font-size="14.00" fill="#000000"> &#160;Providers</text>
<polygon fill="#fb8072" stroke="transparent" points="483,-10 483,-30 503,-30 503,-10 483,-10"/>
<text text-anchor="start" x="506.7258" y="-15.4" font-family="sans-serif" font-size="14.00" fill="#000000"> &#160;Exports</text>
<g id="clust1" class="cluster">
<title>cluster_HistoricModule</title>
<polygon fill="none" stroke="#000000" stroke-dasharray="1,5" points="8,-70 8,-268 642,-268 642,-70 8,-70"/>
</g>
<g id="clust2" class="cluster">
<title>cluster_HistoricModule_declarations</title>
<polygon fill="none" stroke="#000000" points="492,-78 492,-130 634,-130 634,-78 492,-78"/>
</g>
<g id="clust4" class="cluster">
<title>cluster_HistoricModule_imports</title>
<polygon fill="none" stroke="#000000" points="202,-78 202,-130 484,-130 484,-78 202,-78"/>
</g>
<g id="clust5" class="cluster">
<title>cluster_HistoricModule_exports</title>
<polygon fill="none" stroke="#000000" points="257,-208 257,-260 403,-260 403,-208 257,-208"/>
</g>
<g id="clust7" class="cluster">
<title>cluster_HistoricModule_providers</title>
<polygon fill="none" stroke="#000000" points="16,-78 16,-130 194,-130 194,-78 16,-78"/>
</g>
<!-- HistoricComponent -->
<g id="node1" class="node">
<title>HistoricComponent</title>
<polygon fill="#ffffb3" stroke="#000000" points="626.4313,-122 499.5687,-122 499.5687,-86 626.4313,-86 626.4313,-122"/>
<text text-anchor="middle" x="563" y="-99.8" font-family="Times,serif" font-size="14.00" fill="#000000">HistoricComponent</text>
</g>
<!-- HistoricModule -->
<g id="node2" class="node">
<title>HistoricModule</title>
<polygon fill="#8dd3c7" stroke="#000000" points="382.1486,-187 379.1486,-191 358.1486,-191 355.1486,-187 277.8514,-187 277.8514,-151 382.1486,-151 382.1486,-187"/>
<text text-anchor="middle" x="330" y="-164.8" font-family="Times,serif" font-size="14.00" fill="#000000">HistoricModule</text>
</g>
<!-- HistoricComponent&#45;&gt;HistoricModule -->
<g id="edge1" class="edge">
<title>HistoricComponent&#45;&gt;HistoricModule</title>
<path fill="none" stroke="#000000" d="M563,-122.1061C563,-141.3391 563,-169 563,-169 563,-169 392.2897,-169 392.2897,-169"/>
<polygon fill="#000000" stroke="#000000" points="392.2898,-165.5001 382.2897,-169 392.2897,-172.5001 392.2898,-165.5001"/>
</g>
<!-- HistoricComponent  -->
<g id="node5" class="node">
<title>HistoricComponent </title>
<polygon fill="#fb8072" stroke="#000000" points="394.9306,-252 265.0694,-252 265.0694,-216 394.9306,-216 394.9306,-252"/>
<text text-anchor="middle" x="330" y="-229.8" font-family="Times,serif" font-size="14.00" fill="#000000">HistoricComponent </text>
</g>
<!-- HistoricModule&#45;&gt;HistoricComponent  -->
<g id="edge4" class="edge">
<title>HistoricModule&#45;&gt;HistoricComponent </title>
<path fill="none" stroke="#000000" stroke-dasharray="5,2" d="M330,-187.1061C330,-187.1061 330,-205.991 330,-205.991"/>
<polygon fill="#000000" stroke="#000000" points="326.5001,-205.9909 330,-215.991 333.5001,-205.991 326.5001,-205.9909"/>
</g>
<!-- HistoricRoutingModule -->
<g id="node3" class="node">
<title>HistoricRoutingModule</title>
<polygon fill="#8dd3c7" stroke="#000000" points="475.766,-122 472.766,-126 451.766,-126 448.766,-122 326.234,-122 326.234,-86 475.766,-86 475.766,-122"/>
<text text-anchor="middle" x="401" y="-99.8" font-family="Times,serif" font-size="14.00" fill="#000000">HistoricRoutingModule</text>
</g>
<!-- HistoricRoutingModule&#45;&gt;HistoricModule -->
<g id="edge2" class="edge">
<title>HistoricRoutingModule&#45;&gt;HistoricModule</title>
<path fill="none" stroke="#000000" d="M354.2206,-122.1061C354.2206,-122.1061 354.2206,-140.991 354.2206,-140.991"/>
<polygon fill="#000000" stroke="#000000" points="350.7206,-140.9909 354.2206,-150.991 357.7206,-140.991 350.7206,-140.9909"/>
</g>
<!-- SharedModule -->
<g id="node4" class="node">
<title>SharedModule</title>
<polygon fill="#8dd3c7" stroke="#000000" points="308.4231,-122 305.4231,-126 284.4231,-126 281.4231,-122 209.5769,-122 209.5769,-86 308.4231,-86 308.4231,-122"/>
<text text-anchor="middle" x="259" y="-99.8" font-family="Times,serif" font-size="14.00" fill="#000000">SharedModule</text>
</g>
<!-- SharedModule&#45;&gt;HistoricModule -->
<g id="edge3" class="edge">
<title>SharedModule&#45;&gt;HistoricModule</title>
<path fill="none" stroke="#000000" d="M292.9435,-122.1061C292.9435,-122.1061 292.9435,-140.991 292.9435,-140.991"/>
<polygon fill="#000000" stroke="#000000" points="289.4436,-140.9909 292.9435,-150.991 296.4436,-140.991 289.4436,-140.9909"/>
</g>
<!-- ShipmentsService -->
<g id="node6" class="node">
<title>ShipmentsService</title>
<ellipse fill="#fdb462" stroke="#000000" cx="105" cy="-104" rx="80.5354" ry="18"/>
<text text-anchor="middle" x="105" y="-99.8" font-family="Times,serif" font-size="14.00" fill="#000000">ShipmentsService</text>
</g>
<!-- ShipmentsService&#45;&gt;HistoricModule -->
<g id="edge5" class="edge">
<title>ShipmentsService&#45;&gt;HistoricModule</title>
<path fill="none" stroke="#000000" d="M105,-122.1061C105,-141.3391 105,-169 105,-169 105,-169 267.8149,-169 267.8149,-169"/>
<polygon fill="#000000" stroke="#000000" points="267.815,-172.5001 277.8149,-169 267.8149,-165.5001 267.815,-172.5001"/>
</g>
</g>
</svg>
