<?xml version="1.0" encoding="UTF-8" standalone="no"?>
<!DOCTYPE svg PUBLIC "-//W3C//DTD SVG 1.1//EN"
 "http://www.w3.org/Graphics/SVG/1.1/DTD/svg11.dtd">
<!-- Generated by graphviz version 2.40.1 (20161225.0304)
 -->
<!-- Title: dependencies Pages: 1 -->
<svg width="1507pt" height="349pt"
 viewBox="0.00 0.00 1507.00 349.00" xmlns="http://www.w3.org/2000/svg" xmlns:xlink="http://www.w3.org/1999/xlink">
<g id="graph0" class="graph" transform="scale(1 1) rotate(0) translate(4 345)">
<title>dependencies</title>
<polygon fill="#ffffff" stroke="transparent" points="-4,4 -4,-345 1503,-345 1503,4 -4,4"/>
<text text-anchor="start" x="728.5091" y="-42.4" font-family="sans-serif" font-weight="bold" font-size="14.00" fill="#000000">Legend</text>
<polygon fill="#ffffb3" stroke="transparent" points="515.5,-10 515.5,-30 535.5,-30 535.5,-10 515.5,-10"/>
<text text-anchor="start" x="539.129" y="-15.4" font-family="sans-serif" font-size="14.00" fill="#000000"> &#160;Declarations</text>
<polygon fill="#8dd3c7" stroke="transparent" points="628.5,-10 628.5,-30 648.5,-30 648.5,-10 628.5,-10"/>
<text text-anchor="start" x="652.2251" y="-15.4" font-family="sans-serif" font-size="14.00" fill="#000000"> &#160;Module</text>
<polygon fill="#80b1d3" stroke="transparent" points="714.5,-10 714.5,-30 734.5,-30 734.5,-10 714.5,-10"/>
<text text-anchor="start" x="738.2812" y="-15.4" font-family="sans-serif" font-size="14.00" fill="#000000"> &#160;Bootstrap</text>
<polygon fill="#fdb462" stroke="transparent" points="811.5,-10 811.5,-30 831.5,-30 831.5,-10 811.5,-10"/>
<text text-anchor="start" x="835.1732" y="-15.4" font-family="sans-serif" font-size="14.00" fill="#000000"> &#160;Providers</text>
<polygon fill="#fb8072" stroke="transparent" points="907.5,-10 907.5,-30 927.5,-30 927.5,-10 907.5,-10"/>
<text text-anchor="start" x="931.2258" y="-15.4" font-family="sans-serif" font-size="14.00" fill="#000000"> &#160;Exports</text>
<g id="clust1" class="cluster">
<title>cluster_ToolbarOptionsModule</title>
<polygon fill="none" stroke="#000000" stroke-dasharray="1,5" points="8,-70 8,-333 1491,-333 1491,-70 8,-70"/>
</g>
<g id="clust2" class="cluster">
<title>cluster_ToolbarOptionsModule_declarations</title>
<polygon fill="none" stroke="#000000" points="1297,-143 1297,-195 1483,-195 1483,-143 1297,-143"/>
</g>
<g id="clust3" class="cluster">
<title>cluster_ToolbarOptionsModule_ToolbarOptionsComponent_providers</title>
<polygon fill="none" stroke="#000000" points="1335,-78 1335,-130 1445,-130 1445,-78 1335,-78"/>
</g>
<g id="clust4" class="cluster">
<title>cluster_ToolbarOptionsModule_imports</title>
<polygon fill="none" stroke="#000000" points="961,-143 961,-195 1289,-195 1289,-143 961,-143"/>
</g>
<g id="clust5" class="cluster">
<title>cluster_ToolbarOptionsModule_exports</title>
<polygon fill="none" stroke="#000000" points="670,-273 670,-325 860,-325 860,-273 670,-273"/>
</g>
<g id="clust7" class="cluster">
<title>cluster_ToolbarOptionsModule_providers</title>
<polygon fill="none" stroke="#000000" points="16,-143 16,-195 953,-195 953,-143 16,-143"/>
</g>
<!-- ToolbarOptionsComponent -->
<g id="node1" class="node">
<title>ToolbarOptionsComponent</title>
<polygon fill="#ffffb3" stroke="#000000" points="1474.9832,-187 1305.0168,-187 1305.0168,-151 1474.9832,-151 1474.9832,-187"/>
<text text-anchor="middle" x="1390" y="-164.8" font-family="Times,serif" font-size="14.00" fill="#000000">ToolbarOptionsComponent</text>
</g>
<!-- ToolbarOptionsModule -->
<g id="node2" class="node">
<title>ToolbarOptionsModule</title>
<polygon fill="#8dd3c7" stroke="#000000" points="839.2007,-252 836.2007,-256 815.2007,-256 812.2007,-252 690.7993,-252 690.7993,-216 839.2007,-216 839.2007,-252"/>
<text text-anchor="middle" x="765" y="-229.8" font-family="Times,serif" font-size="14.00" fill="#000000">ToolbarOptionsModule</text>
</g>
<!-- ToolbarOptionsComponent&#45;&gt;ToolbarOptionsModule -->
<g id="edge1" class="edge">
<title>ToolbarOptionsComponent&#45;&gt;ToolbarOptionsModule</title>
<path fill="none" stroke="#000000" d="M1390,-187.2921C1390,-209.2057 1390,-243 1390,-243 1390,-243 849.15,-243 849.15,-243"/>
<polygon fill="#000000" stroke="#000000" points="849.1501,-239.5001 839.15,-243 849.15,-246.5001 849.1501,-239.5001"/>
</g>
<!-- ToolbarOptionsComponent  -->
<g id="node6" class="node">
<title>ToolbarOptionsComponent </title>
<polygon fill="#fb8072" stroke="#000000" points="851.9839,-317 678.0161,-317 678.0161,-281 851.9839,-281 851.9839,-317"/>
<text text-anchor="middle" x="765" y="-294.8" font-family="Times,serif" font-size="14.00" fill="#000000">ToolbarOptionsComponent </text>
</g>
<!-- ToolbarOptionsModule&#45;&gt;ToolbarOptionsComponent  -->
<g id="edge5" class="edge">
<title>ToolbarOptionsModule&#45;&gt;ToolbarOptionsComponent </title>
<path fill="none" stroke="#000000" stroke-dasharray="5,2" d="M765,-252.1061C765,-252.1061 765,-270.991 765,-270.991"/>
<polygon fill="#000000" stroke="#000000" points="761.5001,-270.9909 765,-280.991 768.5001,-270.991 761.5001,-270.9909"/>
</g>
<!-- { : , : () } -->
<g id="node3" class="node">
<title>{ : , : () }</title>
<ellipse fill="#fdb462" stroke="#000000" cx="1390" cy="-104" rx="46.6753" ry="18"/>
<text text-anchor="middle" x="1390" y="-99.8" font-family="Times,serif" font-size="14.00" fill="#000000">{ : , : () }</text>
</g>
<!-- { : , : () }&#45;&gt;ToolbarOptionsComponent -->
<g id="edge2" class="edge">
<title>{ : , : () }&#45;&gt;ToolbarOptionsComponent</title>
<path fill="none" stroke="#000000" d="M1390,-122.1061C1390,-122.1061 1390,-140.991 1390,-140.991"/>
<polygon fill="#000000" stroke="#000000" points="1386.5001,-140.9909 1390,-150.991 1393.5001,-140.991 1386.5001,-140.9909"/>
</g>
<!-- DownloadOrderModalModule -->
<g id="node4" class="node">
<title>DownloadOrderModalModule</title>
<polygon fill="#8dd3c7" stroke="#000000" points="1280.5604,-187 1277.5604,-191 1256.5604,-191 1253.5604,-187 1093.4396,-187 1093.4396,-151 1280.5604,-151 1280.5604,-187"/>
<text text-anchor="middle" x="1187" y="-164.8" font-family="Times,serif" font-size="14.00" fill="#000000">DownloadOrderModalModule</text>
</g>
<!-- DownloadOrderModalModule&#45;&gt;ToolbarOptionsModule -->
<g id="edge3" class="edge">
<title>DownloadOrderModalModule&#45;&gt;ToolbarOptionsModule</title>
<path fill="none" stroke="#000000" d="M1187,-187.1061C1187,-206.3391 1187,-234 1187,-234 1187,-234 849.4737,-234 849.4737,-234"/>
<polygon fill="#000000" stroke="#000000" points="849.4738,-230.5001 839.4737,-234 849.4737,-237.5001 849.4738,-230.5001"/>
</g>
<!-- MaterialModule -->
<g id="node5" class="node">
<title>MaterialModule</title>
<polygon fill="#8dd3c7" stroke="#000000" points="1075.4706,-187 1072.4706,-191 1051.4706,-191 1048.4706,-187 968.5294,-187 968.5294,-151 1075.4706,-151 1075.4706,-187"/>
<text text-anchor="middle" x="1022" y="-164.8" font-family="Times,serif" font-size="14.00" fill="#000000">MaterialModule</text>
</g>
<!-- MaterialModule&#45;&gt;ToolbarOptionsModule -->
<g id="edge4" class="edge">
<title>MaterialModule&#45;&gt;ToolbarOptionsModule</title>
<path fill="none" stroke="#000000" d="M1022,-187.027C1022,-203.3976 1022,-225 1022,-225 1022,-225 849.335,-225 849.335,-225"/>
<polygon fill="#000000" stroke="#000000" points="849.3351,-221.5001 839.335,-225 849.335,-228.5001 849.3351,-221.5001"/>
</g>
<!-- ComponentsService -->
<g id="node7" class="node">
<title>ComponentsService</title>
<ellipse fill="#fdb462" stroke="#000000" cx="856" cy="-169" rx="88.6255" ry="18"/>
<text text-anchor="middle" x="856" y="-164.8" font-family="Times,serif" font-size="14.00" fill="#000000">ComponentsService</text>
</g>
<!-- ComponentsService&#45;&gt;ToolbarOptionsModule -->
<g id="edge6" class="edge">
<title>ComponentsService&#45;&gt;ToolbarOptionsModule</title>
<path fill="none" stroke="#000000" d="M803.1439,-183.7495C803.1439,-183.7495 803.1439,-205.5882 803.1439,-205.5882"/>
<polygon fill="#000000" stroke="#000000" points="799.644,-205.5881 803.1439,-215.5882 806.644,-205.5882 799.644,-205.5881"/>
</g>
<!-- EndpointService -->
<g id="node8" class="node">
<title>EndpointService</title>
<ellipse fill="#fdb462" stroke="#000000" cx="674" cy="-169" rx="75.3021" ry="18"/>
<text text-anchor="middle" x="674" y="-164.8" font-family="Times,serif" font-size="14.00" fill="#000000">EndpointService</text>
</g>
<!-- EndpointService&#45;&gt;ToolbarOptionsModule -->
<g id="edge7" class="edge">
<title>EndpointService&#45;&gt;ToolbarOptionsModule</title>
<path fill="none" stroke="#000000" d="M720.1504,-183.4256C720.1504,-183.4256 720.1504,-205.8939 720.1504,-205.8939"/>
<polygon fill="#000000" stroke="#000000" points="716.6505,-205.8938 720.1504,-215.8939 723.6505,-205.8939 716.6505,-205.8938"/>
</g>
<!-- EventEmitterOrders -->
<g id="node9" class="node">
<title>EventEmitterOrders</title>
<ellipse fill="#fdb462" stroke="#000000" cx="492" cy="-169" rx="88.5986" ry="18"/>
<text text-anchor="middle" x="492" y="-164.8" font-family="Times,serif" font-size="14.00" fill="#000000">EventEmitterOrders</text>
</g>
<!-- EventEmitterOrders&#45;&gt;ToolbarOptionsModule -->
<g id="edge8" class="edge">
<title>EventEmitterOrders&#45;&gt;ToolbarOptionsModule</title>
<path fill="none" stroke="#000000" d="M492,-187.027C492,-203.3976 492,-225 492,-225 492,-225 680.7622,-225 680.7622,-225"/>
<polygon fill="#000000" stroke="#000000" points="680.7622,-228.5001 690.7622,-225 680.7621,-221.5001 680.7622,-228.5001"/>
</g>
<!-- HttpErrorHandlingService -->
<g id="node10" class="node">
<title>HttpErrorHandlingService</title>
<ellipse fill="#fdb462" stroke="#000000" cx="272" cy="-169" rx="113.4412" ry="18"/>
<text text-anchor="middle" x="272" y="-164.8" font-family="Times,serif" font-size="14.00" fill="#000000">HttpErrorHandlingService</text>
</g>
<!-- HttpErrorHandlingService&#45;&gt;ToolbarOptionsModule -->
<g id="edge9" class="edge">
<title>HttpErrorHandlingService&#45;&gt;ToolbarOptionsModule</title>
<path fill="none" stroke="#000000" d="M272,-187.1061C272,-206.3391 272,-234 272,-234 272,-234 680.6591,-234 680.6591,-234"/>
<polygon fill="#000000" stroke="#000000" points="680.6592,-237.5001 690.6591,-234 680.6591,-230.5001 680.6592,-237.5001"/>
</g>
<!-- UserService -->
<g id="node11" class="node">
<title>UserService</title>
<ellipse fill="#fdb462" stroke="#000000" cx="82" cy="-169" rx="58.4415" ry="18"/>
<text text-anchor="middle" x="82" y="-164.8" font-family="Times,serif" font-size="14.00" fill="#000000">UserService</text>
</g>
<!-- UserService&#45;&gt;ToolbarOptionsModule -->
<g id="edge10" class="edge">
<title>UserService&#45;&gt;ToolbarOptionsModule</title>
<path fill="none" stroke="#000000" d="M82,-187.2921C82,-209.2057 82,-243 82,-243 82,-243 680.6069,-243 680.6069,-243"/>
<polygon fill="#000000" stroke="#000000" points="680.6069,-246.5001 690.6069,-243 680.6068,-239.5001 680.6069,-246.5001"/>
</g>
</g>
</svg>
