<?xml version="1.0" encoding="UTF-8" standalone="no"?>
<!DOCTYPE svg PUBLIC "-//W3C//DTD SVG 1.1//EN"
 "http://www.w3.org/Graphics/SVG/1.1/DTD/svg11.dtd">
<!-- Generated by graphviz version 2.40.1 (20161225.0304)
 -->
<!-- Title: dependencies Pages: 1 -->
<svg width="584pt" height="349pt"
 viewBox="0.00 0.00 584.00 349.00" xmlns="http://www.w3.org/2000/svg" xmlns:xlink="http://www.w3.org/1999/xlink">
<g id="graph0" class="graph" transform="scale(1 1) rotate(0) translate(4 345)">
<title>dependencies</title>
<polygon fill="#ffffff" stroke="transparent" points="-4,4 -4,-345 580,-345 580,4 -4,4"/>
<text text-anchor="start" x="267.0091" y="-42.4" font-family="sans-serif" font-weight="bold" font-size="14.00" fill="#000000">Legend</text>
<polygon fill="#ffffb3" stroke="transparent" points="54,-10 54,-30 74,-30 74,-10 54,-10"/>
<text text-anchor="start" x="77.629" y="-15.4" font-family="sans-serif" font-size="14.00" fill="#000000"> &#160;Declarations</text>
<polygon fill="#8dd3c7" stroke="transparent" points="167,-10 167,-30 187,-30 187,-10 167,-10"/>
<text text-anchor="start" x="190.7251" y="-15.4" font-family="sans-serif" font-size="14.00" fill="#000000"> &#160;Module</text>
<polygon fill="#80b1d3" stroke="transparent" points="253,-10 253,-30 273,-30 273,-10 253,-10"/>
<text text-anchor="start" x="276.7812" y="-15.4" font-family="sans-serif" font-size="14.00" fill="#000000"> &#160;Bootstrap</text>
<polygon fill="#fdb462" stroke="transparent" points="350,-10 350,-30 370,-30 370,-10 350,-10"/>
<text text-anchor="start" x="373.6732" y="-15.4" font-family="sans-serif" font-size="14.00" fill="#000000"> &#160;Providers</text>
<polygon fill="#fb8072" stroke="transparent" points="446,-10 446,-30 466,-30 466,-10 446,-10"/>
<text text-anchor="start" x="469.7258" y="-15.4" font-family="sans-serif" font-size="14.00" fill="#000000"> &#160;Exports</text>
<g id="clust1" class="cluster">
<title>cluster_ToolbarOptionsModule</title>
<polygon fill="none" stroke="#000000" stroke-dasharray="1,5" points="8,-70 8,-333 568,-333 568,-70 8,-70"/>
</g>
<g id="clust2" class="cluster">
<title>cluster_ToolbarOptionsModule_declarations</title>
<polygon fill="none" stroke="#000000" points="352,-143 352,-195 538,-195 538,-143 352,-143"/>
</g>
<g id="clust3" class="cluster">
<title>cluster_ToolbarOptionsModule_ToolbarOptionsComponent_providers</title>
<polygon fill="none" stroke="#000000" points="16,-78 16,-130 560,-130 560,-78 16,-78"/>
</g>
<g id="clust4" class="cluster">
<title>cluster_ToolbarOptionsModule_imports</title>
<polygon fill="none" stroke="#000000" points="16,-143 16,-195 344,-195 344,-143 16,-143"/>
</g>
<g id="clust5" class="cluster">
<title>cluster_ToolbarOptionsModule_exports</title>
<polygon fill="none" stroke="#000000" points="147,-273 147,-325 337,-325 337,-273 147,-273"/>
</g>
<!-- ToolbarOptionsComponent -->
<g id="node1" class="node">
<title>ToolbarOptionsComponent</title>
<polygon fill="#ffffb3" stroke="#000000" points="529.9832,-187 360.0168,-187 360.0168,-151 529.9832,-151 529.9832,-187"/>
<text text-anchor="middle" x="445" y="-164.8" font-family="Times,serif" font-size="14.00" fill="#000000">ToolbarOptionsComponent</text>
</g>
<!-- ToolbarOptionsModule -->
<g id="node2" class="node">
<title>ToolbarOptionsModule</title>
<polygon fill="#8dd3c7" stroke="#000000" points="316.2007,-252 313.2007,-256 292.2007,-256 289.2007,-252 167.7993,-252 167.7993,-216 316.2007,-216 316.2007,-252"/>
<text text-anchor="middle" x="242" y="-229.8" font-family="Times,serif" font-size="14.00" fill="#000000">ToolbarOptionsModule</text>
</g>
<!-- ToolbarOptionsComponent&#45;&gt;ToolbarOptionsModule -->
<g id="edge1" class="edge">
<title>ToolbarOptionsComponent&#45;&gt;ToolbarOptionsModule</title>
<path fill="none" stroke="#000000" d="M445,-187.1061C445,-206.3391 445,-234 445,-234 445,-234 326.1494,-234 326.1494,-234"/>
<polygon fill="#000000" stroke="#000000" points="326.1494,-230.5001 316.1494,-234 326.1493,-237.5001 326.1494,-230.5001"/>
</g>
<!-- ToolbarOptionsComponent  -->
<g id="node6" class="node">
<title>ToolbarOptionsComponent </title>
<polygon fill="#fb8072" stroke="#000000" points="328.9839,-317 155.0161,-317 155.0161,-281 328.9839,-281 328.9839,-317"/>
<text text-anchor="middle" x="242" y="-294.8" font-family="Times,serif" font-size="14.00" fill="#000000">ToolbarOptionsComponent </text>
</g>
<!-- ToolbarOptionsModule&#45;&gt;ToolbarOptionsComponent  -->
<g id="edge5" class="edge">
<title>ToolbarOptionsModule&#45;&gt;ToolbarOptionsComponent </title>
<path fill="none" stroke="#000000" stroke-dasharray="5,2" d="M242,-252.1061C242,-252.1061 242,-270.991 242,-270.991"/>
<polygon fill="#000000" stroke="#000000" points="238.5001,-270.9909 242,-280.991 245.5001,-270.991 238.5001,-270.9909"/>
</g>
<!-- { provide: MatPaginatorIntl, useValue: getDutchPaginatorIntl() } -->
<g id="node3" class="node">
<title>{ provide: MatPaginatorIntl, useValue: getDutchPaginatorIntl() }</title>
<ellipse fill="#fdb462" stroke="#000000" cx="288" cy="-104" rx="263.6123" ry="18"/>
<text text-anchor="middle" x="288" y="-99.8" font-family="Times,serif" font-size="14.00" fill="#000000">{ provide: MatPaginatorIntl, useValue: getDutchPaginatorIntl() }</text>
</g>
<!-- { provide: MatPaginatorIntl, useValue: getDutchPaginatorIntl() }&#45;&gt;ToolbarOptionsComponent -->
<g id="edge2" class="edge">
<title>{ provide: MatPaginatorIntl, useValue: getDutchPaginatorIntl() }&#45;&gt;ToolbarOptionsComponent</title>
<path fill="none" stroke="#000000" d="M445,-118.7495C445,-118.7495 445,-140.5882 445,-140.5882"/>
<polygon fill="#000000" stroke="#000000" points="441.5001,-140.5881 445,-150.5882 448.5001,-140.5882 441.5001,-140.5881"/>
</g>
<!-- DownloadOrderModalModule -->
<g id="node4" class="node">
<title>DownloadOrderModalModule</title>
<polygon fill="#8dd3c7" stroke="#000000" points="335.5604,-187 332.5604,-191 311.5604,-191 308.5604,-187 148.4396,-187 148.4396,-151 335.5604,-151 335.5604,-187"/>
<text text-anchor="middle" x="242" y="-164.8" font-family="Times,serif" font-size="14.00" fill="#000000">DownloadOrderModalModule</text>
</g>
<!-- DownloadOrderModalModule&#45;&gt;ToolbarOptionsModule -->
<g id="edge3" class="edge">
<title>DownloadOrderModalModule&#45;&gt;ToolbarOptionsModule</title>
<path fill="none" stroke="#000000" d="M242,-187.1061C242,-187.1061 242,-205.991 242,-205.991"/>
<polygon fill="#000000" stroke="#000000" points="238.5001,-205.9909 242,-215.991 245.5001,-205.991 238.5001,-205.9909"/>
</g>
<!-- MaterialModule -->
<g id="node5" class="node">
<title>MaterialModule</title>
<polygon fill="#8dd3c7" stroke="#000000" points="130.4706,-187 127.4706,-191 106.4706,-191 103.4706,-187 23.5294,-187 23.5294,-151 130.4706,-151 130.4706,-187"/>
<text text-anchor="middle" x="77" y="-164.8" font-family="Times,serif" font-size="14.00" fill="#000000">MaterialModule</text>
</g>
<!-- MaterialModule&#45;&gt;ToolbarOptionsModule -->
<g id="edge4" class="edge">
<title>MaterialModule&#45;&gt;ToolbarOptionsModule</title>
<path fill="none" stroke="#000000" d="M77,-187.1061C77,-206.3391 77,-234 77,-234 77,-234 157.7057,-234 157.7057,-234"/>
<polygon fill="#000000" stroke="#000000" points="157.7057,-237.5001 167.7057,-234 157.7057,-230.5001 157.7057,-237.5001"/>
</g>
</g>
</svg>
