<?xml version="1.0" encoding="UTF-8" standalone="no"?>
<!DOCTYPE svg PUBLIC "-//W3C//DTD SVG 1.1//EN"
 "http://www.w3.org/Graphics/SVG/1.1/DTD/svg11.dtd">
<!-- Generated by graphviz version 2.40.1 (20161225.0304)
 -->
<!-- Title: dependencies Pages: 1 -->
<svg width="826pt" height="211pt"
 viewBox="0.00 0.00 826.00 211.00" xmlns="http://www.w3.org/2000/svg" xmlns:xlink="http://www.w3.org/1999/xlink">
<g id="graph0" class="graph" transform="scale(1 1) rotate(0) translate(4 207)">
<title>dependencies</title>
<polygon fill="#ffffff" stroke="transparent" points="-4,4 -4,-207 822,-207 822,4 -4,4"/>
<text text-anchor="start" x="388.0091" y="-42.4" font-family="sans-serif" font-weight="bold" font-size="14.00" fill="#000000">Legend</text>
<polygon fill="#ffffb3" stroke="transparent" points="175,-10 175,-30 195,-30 195,-10 175,-10"/>
<text text-anchor="start" x="198.629" y="-15.4" font-family="sans-serif" font-size="14.00" fill="#000000"> &#160;Declarations</text>
<polygon fill="#8dd3c7" stroke="transparent" points="288,-10 288,-30 308,-30 308,-10 288,-10"/>
<text text-anchor="start" x="311.7251" y="-15.4" font-family="sans-serif" font-size="14.00" fill="#000000"> &#160;Module</text>
<polygon fill="#80b1d3" stroke="transparent" points="374,-10 374,-30 394,-30 394,-10 374,-10"/>
<text text-anchor="start" x="397.7812" y="-15.4" font-family="sans-serif" font-size="14.00" fill="#000000"> &#160;Bootstrap</text>
<polygon fill="#fdb462" stroke="transparent" points="471,-10 471,-30 491,-30 491,-10 471,-10"/>
<text text-anchor="start" x="494.6732" y="-15.4" font-family="sans-serif" font-size="14.00" fill="#000000"> &#160;Providers</text>
<polygon fill="#fb8072" stroke="transparent" points="567,-10 567,-30 587,-30 587,-10 567,-10"/>
<text text-anchor="start" x="590.7258" y="-15.4" font-family="sans-serif" font-size="14.00" fill="#000000"> &#160;Exports</text>
<g id="clust1" class="cluster">
<title>cluster_ManageModule</title>
<polygon fill="none" stroke="#000000" stroke-dasharray="1,5" points="8,-70 8,-195 810,-195 810,-70 8,-70"/>
</g>
<g id="clust2" class="cluster">
<title>cluster_ManageModule_declarations</title>
<polygon fill="none" stroke="#000000" points="306,-78 306,-130 802,-130 802,-78 306,-78"/>
</g>
<g id="clust6" class="cluster">
<title>cluster_ManageModule_imports</title>
<polygon fill="none" stroke="#000000" points="16,-78 16,-130 298,-130 298,-78 16,-78"/>
</g>
<!-- ManageComponent -->
<g id="node1" class="node">
<title>ManageComponent</title>
<polygon fill="#ffffb3" stroke="#000000" points="794.4215,-122 667.5785,-122 667.5785,-86 794.4215,-86 794.4215,-122"/>
<text text-anchor="middle" x="731" y="-99.8" font-family="Times,serif" font-size="14.00" fill="#000000">ManageComponent</text>
</g>
<!-- ManageModule -->
<g id="node4" class="node">
<title>ManageModule</title>
<polygon fill="#8dd3c7" stroke="#000000" points="445.1388,-187 442.1388,-191 421.1388,-191 418.1388,-187 340.8612,-187 340.8612,-151 445.1388,-151 445.1388,-187"/>
<text text-anchor="middle" x="393" y="-164.8" font-family="Times,serif" font-size="14.00" fill="#000000">ManageModule</text>
</g>
<!-- ManageComponent&#45;&gt;ManageModule -->
<g id="edge1" class="edge">
<title>ManageComponent&#45;&gt;ManageModule</title>
<path fill="none" stroke="#000000" d="M731,-122.2843C731,-143.3211 731,-175 731,-175 731,-175 455.4416,-175 455.4416,-175"/>
<polygon fill="#000000" stroke="#000000" points="455.4417,-171.5001 445.4416,-175 455.4416,-178.5001 455.4417,-171.5001"/>
</g>
<!-- ManageSellerComponent -->
<g id="node2" class="node">
<title>ManageSellerComponent</title>
<polygon fill="#ffffb3" stroke="#000000" points="649.5744,-122 490.4256,-122 490.4256,-86 649.5744,-86 649.5744,-122"/>
<text text-anchor="middle" x="570" y="-99.8" font-family="Times,serif" font-size="14.00" fill="#000000">ManageSellerComponent</text>
</g>
<!-- ManageSellerComponent&#45;&gt;ManageModule -->
<g id="edge2" class="edge">
<title>ManageSellerComponent&#45;&gt;ManageModule</title>
<path fill="none" stroke="#000000" d="M570,-122.0225C570,-139.3734 570,-163 570,-163 570,-163 455.1485,-163 455.1485,-163"/>
<polygon fill="#000000" stroke="#000000" points="455.1485,-159.5001 445.1485,-163 455.1485,-166.5001 455.1485,-159.5001"/>
</g>
<!-- ToolbarSellerComponent -->
<g id="node3" class="node">
<title>ToolbarSellerComponent</title>
<polygon fill="#ffffb3" stroke="#000000" points="472.3047,-122 313.6953,-122 313.6953,-86 472.3047,-86 472.3047,-122"/>
<text text-anchor="middle" x="393" y="-99.8" font-family="Times,serif" font-size="14.00" fill="#000000">ToolbarSellerComponent</text>
</g>
<!-- ToolbarSellerComponent&#45;&gt;ManageModule -->
<g id="edge3" class="edge">
<title>ToolbarSellerComponent&#45;&gt;ManageModule</title>
<path fill="none" stroke="#000000" d="M393,-122.1061C393,-122.1061 393,-140.991 393,-140.991"/>
<polygon fill="#000000" stroke="#000000" points="389.5001,-140.9909 393,-150.991 396.5001,-140.991 389.5001,-140.9909"/>
</g>
<!-- ManageRoutingModule -->
<g id="node5" class="node">
<title>ManageRoutingModule</title>
<polygon fill="#8dd3c7" stroke="#000000" points="289.7562,-122 286.7562,-126 265.7562,-126 262.7562,-122 140.2438,-122 140.2438,-86 289.7562,-86 289.7562,-122"/>
<text text-anchor="middle" x="215" y="-99.8" font-family="Times,serif" font-size="14.00" fill="#000000">ManageRoutingModule</text>
</g>
<!-- ManageRoutingModule&#45;&gt;ManageModule -->
<g id="edge4" class="edge">
<title>ManageRoutingModule&#45;&gt;ManageModule</title>
<path fill="none" stroke="#000000" d="M215,-122.0225C215,-139.3734 215,-163 215,-163 215,-163 330.5569,-163 330.5569,-163"/>
<polygon fill="#000000" stroke="#000000" points="330.5569,-166.5001 340.5569,-163 330.5568,-159.5001 330.5569,-166.5001"/>
</g>
<!-- SharedModule -->
<g id="node6" class="node">
<title>SharedModule</title>
<polygon fill="#8dd3c7" stroke="#000000" points="122.4231,-122 119.4231,-126 98.4231,-126 95.4231,-122 23.5769,-122 23.5769,-86 122.4231,-86 122.4231,-122"/>
<text text-anchor="middle" x="73" y="-99.8" font-family="Times,serif" font-size="14.00" fill="#000000">SharedModule</text>
</g>
<!-- SharedModule&#45;&gt;ManageModule -->
<g id="edge5" class="edge">
<title>SharedModule&#45;&gt;ManageModule</title>
<path fill="none" stroke="#000000" d="M73,-122.2843C73,-143.3211 73,-175 73,-175 73,-175 330.5168,-175 330.5168,-175"/>
<polygon fill="#000000" stroke="#000000" points="330.5169,-178.5001 340.5168,-175 330.5168,-171.5001 330.5169,-178.5001"/>
</g>
</g>
</svg>
