<?xml version="1.0" encoding="UTF-8" standalone="no"?>
<!DOCTYPE svg PUBLIC "-//W3C//DTD SVG 1.1//EN"
 "http://www.w3.org/Graphics/SVG/1.1/DTD/svg11.dtd">
<!-- Generated by graphviz version 2.40.1 (20161225.0304)
 -->
<!-- Title: dependencies Pages: 1 -->
<svg width="1198pt" height="211pt"
 viewBox="0.00 0.00 1198.00 211.00" xmlns="http://www.w3.org/2000/svg" xmlns:xlink="http://www.w3.org/1999/xlink">
<g id="graph0" class="graph" transform="scale(1 1) rotate(0) translate(4 207)">
<title>dependencies</title>
<polygon fill="#ffffff" stroke="transparent" points="-4,4 -4,-207 1194,-207 1194,4 -4,4"/>
<text text-anchor="start" x="574.0091" y="-42.4" font-family="sans-serif" font-weight="bold" font-size="14.00" fill="#000000">Legend</text>
<polygon fill="#ffffb3" stroke="transparent" points="361,-10 361,-30 381,-30 381,-10 361,-10"/>
<text text-anchor="start" x="384.629" y="-15.4" font-family="sans-serif" font-size="14.00" fill="#000000"> &#160;Declarations</text>
<polygon fill="#8dd3c7" stroke="transparent" points="474,-10 474,-30 494,-30 494,-10 474,-10"/>
<text text-anchor="start" x="497.7251" y="-15.4" font-family="sans-serif" font-size="14.00" fill="#000000"> &#160;Module</text>
<polygon fill="#80b1d3" stroke="transparent" points="560,-10 560,-30 580,-30 580,-10 560,-10"/>
<text text-anchor="start" x="583.7812" y="-15.4" font-family="sans-serif" font-size="14.00" fill="#000000"> &#160;Bootstrap</text>
<polygon fill="#fdb462" stroke="transparent" points="657,-10 657,-30 677,-30 677,-10 657,-10"/>
<text text-anchor="start" x="680.6732" y="-15.4" font-family="sans-serif" font-size="14.00" fill="#000000"> &#160;Providers</text>
<polygon fill="#fb8072" stroke="transparent" points="753,-10 753,-30 773,-30 773,-10 753,-10"/>
<text text-anchor="start" x="776.7258" y="-15.4" font-family="sans-serif" font-size="14.00" fill="#000000"> &#160;Exports</text>
<g id="clust1" class="cluster">
<title>cluster_ManageModule</title>
<polygon fill="none" stroke="#000000" stroke-dasharray="1,5" points="8,-70 8,-195 1182,-195 1182,-70 8,-70"/>
</g>
<g id="clust2" class="cluster">
<title>cluster_ManageModule_declarations</title>
<polygon fill="none" stroke="#000000" points="508,-78 508,-130 1174,-130 1174,-78 508,-78"/>
</g>
<g id="clust7" class="cluster">
<title>cluster_ManageModule_imports</title>
<polygon fill="none" stroke="#000000" points="210,-78 210,-130 500,-130 500,-78 210,-78"/>
</g>
<g id="clust10" class="cluster">
<title>cluster_ManageModule_providers</title>
<polygon fill="none" stroke="#000000" points="16,-78 16,-130 202,-130 202,-78 16,-78"/>
</g>
<!-- ManageComponent -->
<g id="node1" class="node">
<title>ManageComponent</title>
<polygon fill="#ffffb3" stroke="#000000" points="1166.4215,-122 1039.5785,-122 1039.5785,-86 1166.4215,-86 1166.4215,-122"/>
<text text-anchor="middle" x="1103" y="-99.8" font-family="Times,serif" font-size="14.00" fill="#000000">ManageComponent</text>
</g>
<!-- ManageModule -->
<g id="node5" class="node">
<title>ManageModule</title>
<polygon fill="#8dd3c7" stroke="#000000" points="647.1388,-187 644.1388,-191 623.1388,-191 620.1388,-187 542.8612,-187 542.8612,-151 647.1388,-151 647.1388,-187"/>
<text text-anchor="middle" x="595" y="-164.8" font-family="Times,serif" font-size="14.00" fill="#000000">ManageModule</text>
</g>
<!-- ManageComponent&#45;&gt;ManageModule -->
<g id="edge1" class="edge">
<title>ManageComponent&#45;&gt;ManageModule</title>
<path fill="none" stroke="#000000" d="M1103,-122.2921C1103,-144.2057 1103,-178 1103,-178 1103,-178 657.4516,-178 657.4516,-178"/>
<polygon fill="#000000" stroke="#000000" points="657.4516,-174.5001 647.4516,-178 657.4515,-181.5001 657.4516,-174.5001"/>
</g>
<!-- ManageSellerComponent -->
<g id="node2" class="node">
<title>ManageSellerComponent</title>
<polygon fill="#ffffb3" stroke="#000000" points="1021.5744,-122 862.4256,-122 862.4256,-86 1021.5744,-86 1021.5744,-122"/>
<text text-anchor="middle" x="942" y="-99.8" font-family="Times,serif" font-size="14.00" fill="#000000">ManageSellerComponent</text>
</g>
<!-- ManageSellerComponent&#45;&gt;ManageModule -->
<g id="edge2" class="edge">
<title>ManageSellerComponent&#45;&gt;ManageModule</title>
<path fill="none" stroke="#000000" d="M942,-122.1061C942,-141.3391 942,-169 942,-169 942,-169 657.3251,-169 657.3251,-169"/>
<polygon fill="#000000" stroke="#000000" points="657.3251,-165.5001 647.3251,-169 657.3251,-172.5001 657.3251,-165.5001"/>
</g>
<!-- SearchSellerComponent -->
<g id="node3" class="node">
<title>SearchSellerComponent</title>
<polygon fill="#ffffb3" stroke="#000000" points="844.073,-122 691.927,-122 691.927,-86 844.073,-86 844.073,-122"/>
<text text-anchor="middle" x="768" y="-99.8" font-family="Times,serif" font-size="14.00" fill="#000000">SearchSellerComponent</text>
</g>
<!-- SearchSellerComponent&#45;&gt;ManageModule -->
<g id="edge3" class="edge">
<title>SearchSellerComponent&#45;&gt;ManageModule</title>
<path fill="none" stroke="#000000" d="M768,-122.027C768,-138.3976 768,-160 768,-160 768,-160 657.3752,-160 657.3752,-160"/>
<polygon fill="#000000" stroke="#000000" points="657.3752,-156.5001 647.3752,-160 657.3751,-163.5001 657.3752,-156.5001"/>
</g>
<!-- ToolbarSellerComponent -->
<g id="node4" class="node">
<title>ToolbarSellerComponent</title>
<polygon fill="#ffffb3" stroke="#000000" points="674.3047,-122 515.6953,-122 515.6953,-86 674.3047,-86 674.3047,-122"/>
<text text-anchor="middle" x="595" y="-99.8" font-family="Times,serif" font-size="14.00" fill="#000000">ToolbarSellerComponent</text>
</g>
<!-- ToolbarSellerComponent&#45;&gt;ManageModule -->
<g id="edge4" class="edge">
<title>ToolbarSellerComponent&#45;&gt;ManageModule</title>
<path fill="none" stroke="#000000" d="M595,-122.1061C595,-122.1061 595,-140.991 595,-140.991"/>
<polygon fill="#000000" stroke="#000000" points="591.5001,-140.9909 595,-150.991 598.5001,-140.991 591.5001,-140.9909"/>
</g>
<!-- ManageRoutingModule -->
<g id="node6" class="node">
<title>ManageRoutingModule</title>
<polygon fill="#8dd3c7" stroke="#000000" points="491.7562,-122 488.7562,-126 467.7562,-126 464.7562,-122 342.2438,-122 342.2438,-86 491.7562,-86 491.7562,-122"/>
<text text-anchor="middle" x="417" y="-99.8" font-family="Times,serif" font-size="14.00" fill="#000000">ManageRoutingModule</text>
</g>
<!-- ManageRoutingModule&#45;&gt;ManageModule -->
<g id="edge5" class="edge">
<title>ManageRoutingModule&#45;&gt;ManageModule</title>
<path fill="none" stroke="#000000" d="M417,-122.027C417,-138.3976 417,-160 417,-160 417,-160 532.5569,-160 532.5569,-160"/>
<polygon fill="#000000" stroke="#000000" points="532.5569,-163.5001 542.5569,-160 532.5568,-156.5001 532.5569,-163.5001"/>
</g>
<!-- MaterialModule -->
<g id="node7" class="node">
<title>MaterialModule</title>
<polygon fill="#8dd3c7" stroke="#000000" points="324.4706,-122 321.4706,-126 300.4706,-126 297.4706,-122 217.5294,-122 217.5294,-86 324.4706,-86 324.4706,-122"/>
<text text-anchor="middle" x="271" y="-99.8" font-family="Times,serif" font-size="14.00" fill="#000000">MaterialModule</text>
</g>
<!-- MaterialModule&#45;&gt;ManageModule -->
<g id="edge6" class="edge">
<title>MaterialModule&#45;&gt;ManageModule</title>
<path fill="none" stroke="#000000" d="M271,-122.1061C271,-141.3391 271,-169 271,-169 271,-169 532.5837,-169 532.5837,-169"/>
<polygon fill="#000000" stroke="#000000" points="532.5837,-172.5001 542.5837,-169 532.5837,-165.5001 532.5837,-172.5001"/>
</g>
<!-- EventEmitterSeller -->
<g id="node8" class="node">
<title>EventEmitterSeller</title>
<ellipse fill="#fdb462" stroke="#000000" cx="109" cy="-104" rx="85.1024" ry="18"/>
<text text-anchor="middle" x="109" y="-99.8" font-family="Times,serif" font-size="14.00" fill="#000000">EventEmitterSeller</text>
</g>
<!-- EventEmitterSeller&#45;&gt;ManageModule -->
<g id="edge7" class="edge">
<title>EventEmitterSeller&#45;&gt;ManageModule</title>
<path fill="none" stroke="#000000" d="M109,-122.2921C109,-144.2057 109,-178 109,-178 109,-178 532.5277,-178 532.5277,-178"/>
<polygon fill="#000000" stroke="#000000" points="532.5278,-181.5001 542.5277,-178 532.5277,-174.5001 532.5278,-181.5001"/>
</g>
</g>
</svg>
