<?xml version="1.0" encoding="UTF-8" standalone="no"?>
<!DOCTYPE svg PUBLIC "-//W3C//DTD SVG 1.1//EN"
 "http://www.w3.org/Graphics/SVG/1.1/DTD/svg11.dtd">
<!-- Generated by graphviz version 2.40.1 (20161225.0304)
 -->
<!-- Title: dependencies Pages: 1 -->
<svg width="1396pt" height="211pt"
 viewBox="0.00 0.00 1396.00 211.00" xmlns="http://www.w3.org/2000/svg" xmlns:xlink="http://www.w3.org/1999/xlink">
<g id="graph0" class="graph" transform="scale(1 1) rotate(0) translate(4 207)">
<title>dependencies</title>
<polygon fill="#ffffff" stroke="transparent" points="-4,4 -4,-207 1392,-207 1392,4 -4,4"/>
<text text-anchor="start" x="673.0091" y="-42.4" font-family="sans-serif" font-weight="bold" font-size="14.00" fill="#000000">Legend</text>
<polygon fill="#ffffb3" stroke="transparent" points="460,-10 460,-30 480,-30 480,-10 460,-10"/>
<text text-anchor="start" x="483.629" y="-15.4" font-family="sans-serif" font-size="14.00" fill="#000000"> &#160;Declarations</text>
<polygon fill="#8dd3c7" stroke="transparent" points="573,-10 573,-30 593,-30 593,-10 573,-10"/>
<text text-anchor="start" x="596.7251" y="-15.4" font-family="sans-serif" font-size="14.00" fill="#000000"> &#160;Module</text>
<polygon fill="#80b1d3" stroke="transparent" points="659,-10 659,-30 679,-30 679,-10 659,-10"/>
<text text-anchor="start" x="682.7812" y="-15.4" font-family="sans-serif" font-size="14.00" fill="#000000"> &#160;Bootstrap</text>
<polygon fill="#fdb462" stroke="transparent" points="756,-10 756,-30 776,-30 776,-10 756,-10"/>
<text text-anchor="start" x="779.6732" y="-15.4" font-family="sans-serif" font-size="14.00" fill="#000000"> &#160;Providers</text>
<polygon fill="#fb8072" stroke="transparent" points="852,-10 852,-30 872,-30 872,-10 852,-10"/>
<text text-anchor="start" x="875.7258" y="-15.4" font-family="sans-serif" font-size="14.00" fill="#000000"> &#160;Exports</text>
<g id="clust1" class="cluster">
<title>cluster_ManageModule</title>
<polygon fill="none" stroke="#000000" stroke-dasharray="1,5" points="8,-70 8,-195 1380,-195 1380,-70 8,-70"/>
</g>
<g id="clust2" class="cluster">
<title>cluster_ManageModule_declarations</title>
<polygon fill="none" stroke="#000000" points="706,-78 706,-130 1372,-130 1372,-78 706,-78"/>
</g>
<g id="clust7" class="cluster">
<title>cluster_ManageModule_imports</title>
<polygon fill="none" stroke="#000000" points="416,-78 416,-130 698,-130 698,-78 416,-78"/>
</g>
<g id="clust10" class="cluster">
<title>cluster_ManageModule_providers</title>
<polygon fill="none" stroke="#000000" points="16,-78 16,-130 408,-130 408,-78 16,-78"/>
</g>
<!-- ManageComponent -->
<g id="node1" class="node">
<title>ManageComponent</title>
<polygon fill="#ffffb3" stroke="#000000" points="1364.4215,-122 1237.5785,-122 1237.5785,-86 1364.4215,-86 1364.4215,-122"/>
<text text-anchor="middle" x="1301" y="-99.8" font-family="Times,serif" font-size="14.00" fill="#000000">ManageComponent</text>
</g>
<!-- ManageModule -->
<g id="node5" class="node">
<title>ManageModule</title>
<polygon fill="#8dd3c7" stroke="#000000" points="756.1388,-187 753.1388,-191 732.1388,-191 729.1388,-187 651.8612,-187 651.8612,-151 756.1388,-151 756.1388,-187"/>
<text text-anchor="middle" x="704" y="-164.8" font-family="Times,serif" font-size="14.00" fill="#000000">ManageModule</text>
</g>
<!-- ManageComponent&#45;&gt;ManageModule -->
<g id="edge1" class="edge">
<title>ManageComponent&#45;&gt;ManageModule</title>
<path fill="none" stroke="#000000" d="M1301,-122.2921C1301,-144.2057 1301,-178 1301,-178 1301,-178 766.1957,-178 766.1957,-178"/>
<polygon fill="#000000" stroke="#000000" points="766.1958,-174.5001 756.1957,-178 766.1957,-181.5001 766.1958,-174.5001"/>
</g>
<!-- ManageSellerComponent -->
<g id="node2" class="node">
<title>ManageSellerComponent</title>
<polygon fill="#ffffb3" stroke="#000000" points="1219.5744,-122 1060.4256,-122 1060.4256,-86 1219.5744,-86 1219.5744,-122"/>
<text text-anchor="middle" x="1140" y="-99.8" font-family="Times,serif" font-size="14.00" fill="#000000">ManageSellerComponent</text>
</g>
<!-- ManageSellerComponent&#45;&gt;ManageModule -->
<g id="edge2" class="edge">
<title>ManageSellerComponent&#45;&gt;ManageModule</title>
<path fill="none" stroke="#000000" d="M1140,-122.1061C1140,-141.3391 1140,-169 1140,-169 1140,-169 766.1587,-169 766.1587,-169"/>
<polygon fill="#000000" stroke="#000000" points="766.1588,-165.5001 756.1587,-169 766.1587,-172.5001 766.1588,-165.5001"/>
</g>
<!-- SearchSellerComponent -->
<g id="node3" class="node">
<title>SearchSellerComponent</title>
<polygon fill="#ffffb3" stroke="#000000" points="1042.073,-122 889.927,-122 889.927,-86 1042.073,-86 1042.073,-122"/>
<text text-anchor="middle" x="966" y="-99.8" font-family="Times,serif" font-size="14.00" fill="#000000">SearchSellerComponent</text>
</g>
<!-- SearchSellerComponent&#45;&gt;ManageModule -->
<g id="edge3" class="edge">
<title>SearchSellerComponent&#45;&gt;ManageModule</title>
<path fill="none" stroke="#000000" d="M966,-122.027C966,-138.3976 966,-160 966,-160 966,-160 766.3899,-160 766.3899,-160"/>
<polygon fill="#000000" stroke="#000000" points="766.3899,-156.5001 756.3899,-160 766.3899,-163.5001 766.3899,-156.5001"/>
</g>
<!-- ToolbarSellerComponent -->
<g id="node4" class="node">
<title>ToolbarSellerComponent</title>
<polygon fill="#ffffb3" stroke="#000000" points="872.3047,-122 713.6953,-122 713.6953,-86 872.3047,-86 872.3047,-122"/>
<text text-anchor="middle" x="793" y="-99.8" font-family="Times,serif" font-size="14.00" fill="#000000">ToolbarSellerComponent</text>
</g>
<!-- ToolbarSellerComponent&#45;&gt;ManageModule -->
<g id="edge4" class="edge">
<title>ToolbarSellerComponent&#45;&gt;ManageModule</title>
<path fill="none" stroke="#000000" d="M735.0835,-122.1061C735.0835,-122.1061 735.0835,-140.991 735.0835,-140.991"/>
<polygon fill="#000000" stroke="#000000" points="731.5835,-140.9909 735.0835,-150.991 738.5835,-140.991 731.5835,-140.9909"/>
</g>
<!-- ManageRoutingModule -->
<g id="node6" class="node">
<title>ManageRoutingModule</title>
<polygon fill="#8dd3c7" stroke="#000000" points="689.7562,-122 686.7562,-126 665.7562,-126 662.7562,-122 540.2438,-122 540.2438,-86 689.7562,-86 689.7562,-122"/>
<text text-anchor="middle" x="615" y="-99.8" font-family="Times,serif" font-size="14.00" fill="#000000">ManageRoutingModule</text>
</g>
<!-- ManageRoutingModule&#45;&gt;ManageModule -->
<g id="edge5" class="edge">
<title>ManageRoutingModule&#45;&gt;ManageModule</title>
<path fill="none" stroke="#000000" d="M670.7795,-122.1061C670.7795,-122.1061 670.7795,-140.991 670.7795,-140.991"/>
<polygon fill="#000000" stroke="#000000" points="667.2795,-140.9909 670.7795,-150.991 674.2795,-140.991 667.2795,-140.9909"/>
</g>
<!-- SharedModule -->
<g id="node7" class="node">
<title>SharedModule</title>
<polygon fill="#8dd3c7" stroke="#000000" points="522.4231,-122 519.4231,-126 498.4231,-126 495.4231,-122 423.5769,-122 423.5769,-86 522.4231,-86 522.4231,-122"/>
<text text-anchor="middle" x="473" y="-99.8" font-family="Times,serif" font-size="14.00" fill="#000000">SharedModule</text>
</g>
<!-- SharedModule&#45;&gt;ManageModule -->
<g id="edge6" class="edge">
<title>SharedModule&#45;&gt;ManageModule</title>
<path fill="none" stroke="#000000" d="M473,-122.027C473,-138.3976 473,-160 473,-160 473,-160 641.5825,-160 641.5825,-160"/>
<polygon fill="#000000" stroke="#000000" points="641.5826,-163.5001 651.5825,-160 641.5825,-156.5001 641.5826,-163.5001"/>
</g>
<!-- EventEmitterSeller -->
<g id="node8" class="node">
<title>EventEmitterSeller</title>
<ellipse fill="#fdb462" stroke="#000000" cx="315" cy="-104" rx="85.1024" ry="18"/>
<text text-anchor="middle" x="315" y="-99.8" font-family="Times,serif" font-size="14.00" fill="#000000">EventEmitterSeller</text>
</g>
<!-- EventEmitterSeller&#45;&gt;ManageModule -->
<g id="edge7" class="edge">
<title>EventEmitterSeller&#45;&gt;ManageModule</title>
<path fill="none" stroke="#000000" d="M315,-122.1061C315,-141.3391 315,-169 315,-169 315,-169 641.5377,-169 641.5377,-169"/>
<polygon fill="#000000" stroke="#000000" points="641.5378,-172.5001 651.5377,-169 641.5377,-165.5001 641.5378,-172.5001"/>
</g>
<!-- ManageSellerService -->
<g id="node9" class="node">
<title>ManageSellerService</title>
<ellipse fill="#fdb462" stroke="#000000" cx="118" cy="-104" rx="93.734" ry="18"/>
<text text-anchor="middle" x="118" y="-99.8" font-family="Times,serif" font-size="14.00" fill="#000000">ManageSellerService</text>
</g>
<!-- ManageSellerService&#45;&gt;ManageModule -->
<g id="edge8" class="edge">
<title>ManageSellerService&#45;&gt;ManageModule</title>
<path fill="none" stroke="#000000" d="M118,-122.2921C118,-144.2057 118,-178 118,-178 118,-178 641.7388,-178 641.7388,-178"/>
<polygon fill="#000000" stroke="#000000" points="641.7389,-181.5001 651.7388,-178 641.7388,-174.5001 641.7389,-181.5001"/>
</g>
</g>
</svg>
