<?xml version="1.0" encoding="UTF-8" standalone="no"?>
<!DOCTYPE svg PUBLIC "-//W3C//DTD SVG 1.1//EN"
 "http://www.w3.org/Graphics/SVG/1.1/DTD/svg11.dtd">
<!-- Generated by graphviz version 2.40.1 (20161225.0304)
 -->
<!-- Title: dependencies Pages: 1 -->
<svg width="1038pt" height="211pt"
 viewBox="0.00 0.00 1038.00 211.00" xmlns="http://www.w3.org/2000/svg" xmlns:xlink="http://www.w3.org/1999/xlink">
<g id="graph0" class="graph" transform="scale(1 1) rotate(0) translate(4 207)">
<title>dependencies</title>
<polygon fill="#ffffff" stroke="transparent" points="-4,4 -4,-207 1034,-207 1034,4 -4,4"/>
<text text-anchor="start" x="494.0091" y="-42.4" font-family="sans-serif" font-weight="bold" font-size="14.00" fill="#000000">Legend</text>
<polygon fill="#ffffb3" stroke="transparent" points="281,-10 281,-30 301,-30 301,-10 281,-10"/>
<text text-anchor="start" x="304.629" y="-15.4" font-family="sans-serif" font-size="14.00" fill="#000000"> &#160;Declarations</text>
<polygon fill="#8dd3c7" stroke="transparent" points="394,-10 394,-30 414,-30 414,-10 394,-10"/>
<text text-anchor="start" x="417.7251" y="-15.4" font-family="sans-serif" font-size="14.00" fill="#000000"> &#160;Module</text>
<polygon fill="#80b1d3" stroke="transparent" points="480,-10 480,-30 500,-30 500,-10 480,-10"/>
<text text-anchor="start" x="503.7812" y="-15.4" font-family="sans-serif" font-size="14.00" fill="#000000"> &#160;Bootstrap</text>
<polygon fill="#fdb462" stroke="transparent" points="577,-10 577,-30 597,-30 597,-10 577,-10"/>
<text text-anchor="start" x="600.6732" y="-15.4" font-family="sans-serif" font-size="14.00" fill="#000000"> &#160;Providers</text>
<polygon fill="#fb8072" stroke="transparent" points="673,-10 673,-30 693,-30 693,-10 673,-10"/>
<text text-anchor="start" x="696.7258" y="-15.4" font-family="sans-serif" font-size="14.00" fill="#000000"> &#160;Exports</text>
<g id="clust1" class="cluster">
<title>cluster_ManageModule</title>
<polygon fill="none" stroke="#000000" stroke-dasharray="1,5" points="8,-70 8,-195 1022,-195 1022,-70 8,-70"/>
</g>
<g id="clust2" class="cluster">
<title>cluster_ManageModule_declarations</title>
<polygon fill="none" stroke="#000000" points="518,-78 518,-130 1014,-130 1014,-78 518,-78"/>
</g>
<g id="clust6" class="cluster">
<title>cluster_ManageModule_imports</title>
<polygon fill="none" stroke="#000000" points="228,-78 228,-130 510,-130 510,-78 228,-78"/>
</g>
<g id="clust9" class="cluster">
<title>cluster_ManageModule_providers</title>
<polygon fill="none" stroke="#000000" points="16,-78 16,-130 220,-130 220,-78 16,-78"/>
</g>
<!-- ManageComponent -->
<g id="node1" class="node">
<title>ManageComponent</title>
<polygon fill="#ffffb3" stroke="#000000" points="1006.4215,-122 879.5785,-122 879.5785,-86 1006.4215,-86 1006.4215,-122"/>
<text text-anchor="middle" x="943" y="-99.8" font-family="Times,serif" font-size="14.00" fill="#000000">ManageComponent</text>
</g>
<!-- ManageModule -->
<g id="node4" class="node">
<title>ManageModule</title>
<polygon fill="#8dd3c7" stroke="#000000" points="568.1388,-187 565.1388,-191 544.1388,-191 541.1388,-187 463.8612,-187 463.8612,-151 568.1388,-151 568.1388,-187"/>
<text text-anchor="middle" x="516" y="-164.8" font-family="Times,serif" font-size="14.00" fill="#000000">ManageModule</text>
</g>
<!-- ManageComponent&#45;&gt;ManageModule -->
<g id="edge1" class="edge">
<title>ManageComponent&#45;&gt;ManageModule</title>
<path fill="none" stroke="#000000" d="M943,-122.2843C943,-143.3211 943,-175 943,-175 943,-175 578.3586,-175 578.3586,-175"/>
<polygon fill="#000000" stroke="#000000" points="578.3586,-171.5001 568.3586,-175 578.3585,-178.5001 578.3586,-171.5001"/>
</g>
<!-- ManageSellerComponent -->
<g id="node2" class="node">
<title>ManageSellerComponent</title>
<polygon fill="#ffffb3" stroke="#000000" points="861.5744,-122 702.4256,-122 702.4256,-86 861.5744,-86 861.5744,-122"/>
<text text-anchor="middle" x="782" y="-99.8" font-family="Times,serif" font-size="14.00" fill="#000000">ManageSellerComponent</text>
</g>
<!-- ManageSellerComponent&#45;&gt;ManageModule -->
<g id="edge2" class="edge">
<title>ManageSellerComponent&#45;&gt;ManageModule</title>
<path fill="none" stroke="#000000" d="M782,-122.0225C782,-139.3734 782,-163 782,-163 782,-163 578.2357,-163 578.2357,-163"/>
<polygon fill="#000000" stroke="#000000" points="578.2357,-159.5001 568.2357,-163 578.2356,-166.5001 578.2357,-159.5001"/>
</g>
<!-- ToolbarSellerComponent -->
<g id="node3" class="node">
<title>ToolbarSellerComponent</title>
<polygon fill="#ffffb3" stroke="#000000" points="684.3047,-122 525.6953,-122 525.6953,-86 684.3047,-86 684.3047,-122"/>
<text text-anchor="middle" x="605" y="-99.8" font-family="Times,serif" font-size="14.00" fill="#000000">ToolbarSellerComponent</text>
</g>
<!-- ToolbarSellerComponent&#45;&gt;ManageModule -->
<g id="edge3" class="edge">
<title>ToolbarSellerComponent&#45;&gt;ManageModule</title>
<path fill="none" stroke="#000000" d="M547.0835,-122.1061C547.0835,-122.1061 547.0835,-140.991 547.0835,-140.991"/>
<polygon fill="#000000" stroke="#000000" points="543.5835,-140.9909 547.0835,-150.991 550.5835,-140.991 543.5835,-140.9909"/>
</g>
<!-- ManageRoutingModule -->
<g id="node5" class="node">
<title>ManageRoutingModule</title>
<polygon fill="#8dd3c7" stroke="#000000" points="501.7562,-122 498.7562,-126 477.7562,-126 474.7562,-122 352.2438,-122 352.2438,-86 501.7562,-86 501.7562,-122"/>
<text text-anchor="middle" x="427" y="-99.8" font-family="Times,serif" font-size="14.00" fill="#000000">ManageRoutingModule</text>
</g>
<!-- ManageRoutingModule&#45;&gt;ManageModule -->
<g id="edge4" class="edge">
<title>ManageRoutingModule&#45;&gt;ManageModule</title>
<path fill="none" stroke="#000000" d="M482.7795,-122.1061C482.7795,-122.1061 482.7795,-140.991 482.7795,-140.991"/>
<polygon fill="#000000" stroke="#000000" points="479.2795,-140.9909 482.7795,-150.991 486.2795,-140.991 479.2795,-140.9909"/>
</g>
<!-- SharedModule -->
<g id="node6" class="node">
<title>SharedModule</title>
<polygon fill="#8dd3c7" stroke="#000000" points="334.4231,-122 331.4231,-126 310.4231,-126 307.4231,-122 235.5769,-122 235.5769,-86 334.4231,-86 334.4231,-122"/>
<text text-anchor="middle" x="285" y="-99.8" font-family="Times,serif" font-size="14.00" fill="#000000">SharedModule</text>
</g>
<!-- SharedModule&#45;&gt;ManageModule -->
<g id="edge5" class="edge">
<title>SharedModule&#45;&gt;ManageModule</title>
<path fill="none" stroke="#000000" d="M285,-122.0225C285,-139.3734 285,-163 285,-163 285,-163 453.5825,-163 453.5825,-163"/>
<polygon fill="#000000" stroke="#000000" points="453.5826,-166.5001 463.5825,-163 453.5825,-159.5001 453.5826,-166.5001"/>
</g>
<!-- ManageSellerService -->
<g id="node7" class="node">
<title>ManageSellerService</title>
<ellipse fill="#fdb462" stroke="#000000" cx="118" cy="-104" rx="93.734" ry="18"/>
<text text-anchor="middle" x="118" y="-99.8" font-family="Times,serif" font-size="14.00" fill="#000000">ManageSellerService</text>
</g>
<!-- ManageSellerService&#45;&gt;ManageModule -->
<g id="edge6" class="edge">
<title>ManageSellerService&#45;&gt;ManageModule</title>
<path fill="none" stroke="#000000" d="M118,-122.2843C118,-143.3211 118,-175 118,-175 118,-175 453.5592,-175 453.5592,-175"/>
<polygon fill="#000000" stroke="#000000" points="453.5592,-178.5001 463.5592,-175 453.5591,-171.5001 453.5592,-178.5001"/>
</g>
</g>
</svg>
