<?xml version="1.0" encoding="UTF-8" standalone="no"?>
<!DOCTYPE svg PUBLIC "-//W3C//DTD SVG 1.1//EN"
 "http://www.w3.org/Graphics/SVG/1.1/DTD/svg11.dtd">
<!-- Generated by graphviz version 2.40.1 (20161225.0304)
 -->
<!-- Title: dependencies Pages: 1 -->
<svg width="785pt" height="276pt"
 viewBox="0.00 0.00 785.00 276.00" xmlns="http://www.w3.org/2000/svg" xmlns:xlink="http://www.w3.org/1999/xlink">
<g id="graph0" class="graph" transform="scale(1 1) rotate(0) translate(4 272)">
<title>dependencies</title>
<polygon fill="#ffffff" stroke="transparent" points="-4,4 -4,-272 781,-272 781,4 -4,4"/>
<text text-anchor="start" x="367.5091" y="-42.4" font-family="sans-serif" font-weight="bold" font-size="14.00" fill="#000000">Legend</text>
<polygon fill="#ffffb3" stroke="transparent" points="154.5,-10 154.5,-30 174.5,-30 174.5,-10 154.5,-10"/>
<text text-anchor="start" x="178.129" y="-15.4" font-family="sans-serif" font-size="14.00" fill="#000000"> &#160;Declarations</text>
<polygon fill="#8dd3c7" stroke="transparent" points="267.5,-10 267.5,-30 287.5,-30 287.5,-10 267.5,-10"/>
<text text-anchor="start" x="291.2251" y="-15.4" font-family="sans-serif" font-size="14.00" fill="#000000"> &#160;Module</text>
<polygon fill="#80b1d3" stroke="transparent" points="353.5,-10 353.5,-30 373.5,-30 373.5,-10 353.5,-10"/>
<text text-anchor="start" x="377.2812" y="-15.4" font-family="sans-serif" font-size="14.00" fill="#000000"> &#160;Bootstrap</text>
<polygon fill="#fdb462" stroke="transparent" points="450.5,-10 450.5,-30 470.5,-30 470.5,-10 450.5,-10"/>
<text text-anchor="start" x="474.1732" y="-15.4" font-family="sans-serif" font-size="14.00" fill="#000000"> &#160;Providers</text>
<polygon fill="#fb8072" stroke="transparent" points="546.5,-10 546.5,-30 566.5,-30 566.5,-10 546.5,-10"/>
<text text-anchor="start" x="570.2258" y="-15.4" font-family="sans-serif" font-size="14.00" fill="#000000"> &#160;Exports</text>
<g id="clust1" class="cluster">
<title>cluster_RegisterModule</title>
<polygon fill="none" stroke="#000000" stroke-dasharray="1,5" points="8,-70 8,-260 769,-260 769,-70 8,-70"/>
</g>
<g id="clust2" class="cluster">
<title>cluster_RegisterModule_declarations</title>
<polygon fill="none" stroke="#000000" points="308,-143 308,-195 749,-195 749,-143 308,-143"/>
</g>
<g id="clust4" class="cluster">
<title>cluster_RegisterModule_RegisterSellerComponent_providers</title>
<polygon fill="none" stroke="#000000" points="525,-78 525,-130 685,-130 685,-78 525,-78"/>
</g>
<g id="clust6" class="cluster">
<title>cluster_RegisterModule_imports</title>
<polygon fill="none" stroke="#000000" points="16,-143 16,-195 300,-195 300,-143 16,-143"/>
</g>
<!-- CitiesComponent -->
<g id="node1" class="node">
<title>CitiesComponent</title>
<polygon fill="#ffffb3" stroke="#000000" points="741,-187 627,-187 627,-151 741,-151 741,-187"/>
<text text-anchor="middle" x="684" y="-164.8" font-family="Times,serif" font-size="14.00" fill="#000000">CitiesComponent</text>
</g>
<!-- RegisterModule -->
<g id="node4" class="node">
<title>RegisterModule</title>
<polygon fill="#8dd3c7" stroke="#000000" points="504.2022,-252 501.2022,-256 480.2022,-256 477.2022,-252 397.7978,-252 397.7978,-216 504.2022,-216 504.2022,-252"/>
<text text-anchor="middle" x="451" y="-229.8" font-family="Times,serif" font-size="14.00" fill="#000000">RegisterModule</text>
</g>
<!-- CitiesComponent&#45;&gt;RegisterModule -->
<g id="edge1" class="edge">
<title>CitiesComponent&#45;&gt;RegisterModule</title>
<path fill="none" stroke="#000000" d="M684,-187.1061C684,-206.3391 684,-234 684,-234 684,-234 514.1629,-234 514.1629,-234"/>
<polygon fill="#000000" stroke="#000000" points="514.1629,-230.5001 504.1629,-234 514.1628,-237.5001 514.1629,-230.5001"/>
</g>
<!-- RegisterSellerComponent -->
<g id="node2" class="node">
<title>RegisterSellerComponent</title>
<polygon fill="#ffffb3" stroke="#000000" points="609.1386,-187 448.8614,-187 448.8614,-151 609.1386,-151 609.1386,-187"/>
<text text-anchor="middle" x="529" y="-164.8" font-family="Times,serif" font-size="14.00" fill="#000000">RegisterSellerComponent</text>
</g>
<!-- RegisterSellerComponent&#45;&gt;RegisterModule -->
<g id="edge2" class="edge">
<title>RegisterSellerComponent&#45;&gt;RegisterModule</title>
<path fill="none" stroke="#000000" d="M476.391,-187.1061C476.391,-187.1061 476.391,-205.991 476.391,-205.991"/>
<polygon fill="#000000" stroke="#000000" points="472.891,-205.9909 476.391,-215.991 479.891,-205.991 472.891,-205.9909"/>
</g>
<!-- StatesComponent -->
<g id="node3" class="node">
<title>StatesComponent</title>
<polygon fill="#ffffb3" stroke="#000000" points="430.2702,-187 315.7298,-187 315.7298,-151 430.2702,-151 430.2702,-187"/>
<text text-anchor="middle" x="373" y="-164.8" font-family="Times,serif" font-size="14.00" fill="#000000">StatesComponent</text>
</g>
<!-- StatesComponent&#45;&gt;RegisterModule -->
<g id="edge4" class="edge">
<title>StatesComponent&#45;&gt;RegisterModule</title>
<path fill="none" stroke="#000000" d="M414.142,-187.1061C414.142,-187.1061 414.142,-205.991 414.142,-205.991"/>
<polygon fill="#000000" stroke="#000000" points="410.6421,-205.9909 414.142,-215.991 417.6421,-205.991 410.6421,-205.9909"/>
</g>
<!-- RegisterService -->
<g id="node5" class="node">
<title>RegisterService</title>
<ellipse fill="#fdb462" stroke="#000000" cx="605" cy="-104" rx="72.3439" ry="18"/>
<text text-anchor="middle" x="605" y="-99.8" font-family="Times,serif" font-size="14.00" fill="#000000">RegisterService</text>
</g>
<!-- RegisterService&#45;&gt;RegisterSellerComponent -->
<g id="edge3" class="edge">
<title>RegisterService&#45;&gt;RegisterSellerComponent</title>
<path fill="none" stroke="#000000" d="M571.0737,-120.0674C571.0737,-120.0674 571.0737,-140.8237 571.0737,-140.8237"/>
<polygon fill="#000000" stroke="#000000" points="567.5738,-140.8236 571.0737,-150.8237 574.5738,-140.8237 567.5738,-140.8236"/>
</g>
<!-- RegisterService&#45;&gt;RegisterModule -->
<g id="edge7" class="edge">
<title>RegisterService&#45;&gt;RegisterModule</title>
<path fill="none" stroke="#000000" d="M532.4237,-104C487.9648,-104 439.533,-104 439.533,-104 439.533,-104 439.533,-205.9241 439.533,-205.9241"/>
<polygon fill="#000000" stroke="#000000" points="436.033,-205.924 439.533,-215.9241 443.033,-205.9241 436.033,-205.924"/>
</g>
<!-- RegisterRoutingModule -->
<g id="node6" class="node">
<title>RegisterRoutingModule</title>
<polygon fill="#8dd3c7" stroke="#000000" points="291.8201,-187 288.8201,-191 267.8201,-191 264.8201,-187 140.1799,-187 140.1799,-151 291.8201,-151 291.8201,-187"/>
<text text-anchor="middle" x="216" y="-164.8" font-family="Times,serif" font-size="14.00" fill="#000000">RegisterRoutingModule</text>
</g>
<!-- RegisterRoutingModule&#45;&gt;RegisterModule -->
<g id="edge5" class="edge">
<title>RegisterRoutingModule&#45;&gt;RegisterModule</title>
<path fill="none" stroke="#000000" d="M216,-187.0225C216,-204.3734 216,-228 216,-228 216,-228 387.6749,-228 387.6749,-228"/>
<polygon fill="#000000" stroke="#000000" points="387.6749,-231.5001 397.6749,-228 387.6748,-224.5001 387.6749,-231.5001"/>
</g>
<!-- SharedModule -->
<g id="node7" class="node">
<title>SharedModule</title>
<polygon fill="#8dd3c7" stroke="#000000" points="122.4231,-187 119.4231,-191 98.4231,-191 95.4231,-187 23.5769,-187 23.5769,-151 122.4231,-151 122.4231,-187"/>
<text text-anchor="middle" x="73" y="-164.8" font-family="Times,serif" font-size="14.00" fill="#000000">SharedModule</text>
</g>
<!-- SharedModule&#45;&gt;RegisterModule -->
<g id="edge6" class="edge">
<title>SharedModule&#45;&gt;RegisterModule</title>
<path fill="none" stroke="#000000" d="M73,-187.2843C73,-208.3211 73,-240 73,-240 73,-240 387.6435,-240 387.6435,-240"/>
<polygon fill="#000000" stroke="#000000" points="387.6436,-243.5001 397.6435,-240 387.6435,-236.5001 387.6436,-243.5001"/>
</g>
</g>
</svg>
