<?xml version="1.0" encoding="UTF-8" standalone="no"?>
<!DOCTYPE svg PUBLIC "-//W3C//DTD SVG 1.1//EN"
 "http://www.w3.org/Graphics/SVG/1.1/DTD/svg11.dtd">
<!-- Generated by graphviz version 2.40.1 (20161225.0304)
 -->
<!-- Title: dependencies Pages: 1 -->
<svg width="520pt" height="276pt"
 viewBox="0.00 0.00 520.00 276.00" xmlns="http://www.w3.org/2000/svg" xmlns:xlink="http://www.w3.org/1999/xlink">
<g id="graph0" class="graph" transform="scale(1 1) rotate(0) translate(4 272)">
<title>dependencies</title>
<polygon fill="#ffffff" stroke="transparent" points="-4,4 -4,-272 516,-272 516,4 -4,4"/>
<text text-anchor="start" x="235.0091" y="-42.4" font-family="sans-serif" font-weight="bold" font-size="14.00" fill="#000000">Legend</text>
<polygon fill="#ffffb3" stroke="transparent" points="22,-10 22,-30 42,-30 42,-10 22,-10"/>
<text text-anchor="start" x="45.629" y="-15.4" font-family="sans-serif" font-size="14.00" fill="#000000"> &#160;Declarations</text>
<polygon fill="#8dd3c7" stroke="transparent" points="135,-10 135,-30 155,-30 155,-10 135,-10"/>
<text text-anchor="start" x="158.7251" y="-15.4" font-family="sans-serif" font-size="14.00" fill="#000000"> &#160;Module</text>
<polygon fill="#80b1d3" stroke="transparent" points="221,-10 221,-30 241,-30 241,-10 221,-10"/>
<text text-anchor="start" x="244.7812" y="-15.4" font-family="sans-serif" font-size="14.00" fill="#000000"> &#160;Bootstrap</text>
<polygon fill="#fdb462" stroke="transparent" points="318,-10 318,-30 338,-30 338,-10 318,-10"/>
<text text-anchor="start" x="341.6732" y="-15.4" font-family="sans-serif" font-size="14.00" fill="#000000"> &#160;Providers</text>
<polygon fill="#fb8072" stroke="transparent" points="414,-10 414,-30 434,-30 434,-10 414,-10"/>
<text text-anchor="start" x="437.7258" y="-15.4" font-family="sans-serif" font-size="14.00" fill="#000000"> &#160;Exports</text>
<g id="clust1" class="cluster">
<title>cluster_RegisterModule</title>
<polygon fill="none" stroke="#000000" stroke-dasharray="1,5" points="8,-70 8,-260 504,-260 504,-70 8,-70"/>
</g>
<g id="clust2" class="cluster">
<title>cluster_RegisterModule_declarations</title>
<polygon fill="none" stroke="#000000" points="308,-143 308,-195 484,-195 484,-143 308,-143"/>
</g>
<g id="clust3" class="cluster">
<title>cluster_RegisterModule_RegisterSellerComponent_providers</title>
<polygon fill="none" stroke="#000000" points="326,-78 326,-130 486,-130 486,-78 326,-78"/>
</g>
<g id="clust4" class="cluster">
<title>cluster_RegisterModule_imports</title>
<polygon fill="none" stroke="#000000" points="16,-143 16,-195 300,-195 300,-143 16,-143"/>
</g>
<!-- RegisterSellerComponent -->
<g id="node1" class="node">
<title>RegisterSellerComponent</title>
<polygon fill="#ffffb3" stroke="#000000" points="476.1386,-187 315.8614,-187 315.8614,-151 476.1386,-151 476.1386,-187"/>
<text text-anchor="middle" x="396" y="-164.8" font-family="Times,serif" font-size="14.00" fill="#000000">RegisterSellerComponent</text>
</g>
<!-- RegisterModule -->
<g id="node2" class="node">
<title>RegisterModule</title>
<polygon fill="#8dd3c7" stroke="#000000" points="359.2022,-252 356.2022,-256 335.2022,-256 332.2022,-252 252.7978,-252 252.7978,-216 359.2022,-216 359.2022,-252"/>
<text text-anchor="middle" x="306" y="-229.8" font-family="Times,serif" font-size="14.00" fill="#000000">RegisterModule</text>
</g>
<!-- RegisterSellerComponent&#45;&gt;RegisterModule -->
<g id="edge1" class="edge">
<title>RegisterSellerComponent&#45;&gt;RegisterModule</title>
<path fill="none" stroke="#000000" d="M337.3909,-187.1061C337.3909,-187.1061 337.3909,-205.991 337.3909,-205.991"/>
<polygon fill="#000000" stroke="#000000" points="333.891,-205.9909 337.3909,-215.991 340.891,-205.991 333.891,-205.9909"/>
</g>
<!-- RegisterService -->
<g id="node3" class="node">
<title>RegisterService</title>
<ellipse fill="#fdb462" stroke="#000000" cx="406" cy="-104" rx="72.3439" ry="18"/>
<text text-anchor="middle" x="406" y="-99.8" font-family="Times,serif" font-size="14.00" fill="#000000">RegisterService</text>
</g>
<!-- RegisterService&#45;&gt;RegisterSellerComponent -->
<g id="edge2" class="edge">
<title>RegisterService&#45;&gt;RegisterSellerComponent</title>
<path fill="none" stroke="#000000" d="M405.0737,-122.1061C405.0737,-122.1061 405.0737,-140.991 405.0737,-140.991"/>
<polygon fill="#000000" stroke="#000000" points="401.5738,-140.9909 405.0737,-150.991 408.5738,-140.991 401.5738,-140.9909"/>
</g>
<!-- RegisterService&#45;&gt;RegisterModule -->
<g id="edge5" class="edge">
<title>RegisterService&#45;&gt;RegisterModule</title>
<path fill="none" stroke="#000000" d="M333.8192,-104C316.8863,-104 303.6704,-104 303.6704,-104 303.6704,-104 303.6704,-205.9241 303.6704,-205.9241"/>
<polygon fill="#000000" stroke="#000000" points="300.1705,-205.924 303.6704,-215.9241 307.1705,-205.9241 300.1705,-205.924"/>
</g>
<!-- RegisterRoutingModule -->
<g id="node4" class="node">
<title>RegisterRoutingModule</title>
<polygon fill="#8dd3c7" stroke="#000000" points="291.8201,-187 288.8201,-191 267.8201,-191 264.8201,-187 140.1799,-187 140.1799,-151 291.8201,-151 291.8201,-187"/>
<text text-anchor="middle" x="216" y="-164.8" font-family="Times,serif" font-size="14.00" fill="#000000">RegisterRoutingModule</text>
</g>
<!-- RegisterRoutingModule&#45;&gt;RegisterModule -->
<g id="edge3" class="edge">
<title>RegisterRoutingModule&#45;&gt;RegisterModule</title>
<path fill="none" stroke="#000000" d="M272.2795,-187.1061C272.2795,-187.1061 272.2795,-205.991 272.2795,-205.991"/>
<polygon fill="#000000" stroke="#000000" points="268.7795,-205.9909 272.2795,-215.991 275.7795,-205.991 268.7795,-205.9909"/>
</g>
<!-- SharedModule -->
<g id="node5" class="node">
<title>SharedModule</title>
<polygon fill="#8dd3c7" stroke="#000000" points="122.4231,-187 119.4231,-191 98.4231,-191 95.4231,-187 23.5769,-187 23.5769,-151 122.4231,-151 122.4231,-187"/>
<text text-anchor="middle" x="73" y="-164.8" font-family="Times,serif" font-size="14.00" fill="#000000">SharedModule</text>
</g>
<!-- SharedModule&#45;&gt;RegisterModule -->
<g id="edge4" class="edge">
<title>SharedModule&#45;&gt;RegisterModule</title>
<path fill="none" stroke="#000000" d="M73,-187.1061C73,-206.3391 73,-234 73,-234 73,-234 242.8371,-234 242.8371,-234"/>
<polygon fill="#000000" stroke="#000000" points="242.8372,-237.5001 252.8371,-234 242.8371,-230.5001 242.8372,-237.5001"/>
</g>
</g>
</svg>
