<?xml version="1.0" encoding="UTF-8" standalone="no"?>
<!DOCTYPE svg PUBLIC "-//W3C//DTD SVG 1.1//EN"
 "http://www.w3.org/Graphics/SVG/1.1/DTD/svg11.dtd">
<!-- Generated by graphviz version 2.40.1 (20161225.0304)
 -->
<!-- Title: dependencies Pages: 1 -->
<svg width="964pt" height="276pt"
 viewBox="0.00 0.00 964.00 276.00" xmlns="http://www.w3.org/2000/svg" xmlns:xlink="http://www.w3.org/1999/xlink">
<g id="graph0" class="graph" transform="scale(1 1) rotate(0) translate(4 272)">
<title>dependencies</title>
<polygon fill="#ffffff" stroke="transparent" points="-4,4 -4,-272 960,-272 960,4 -4,4"/>
<text text-anchor="start" x="457.0091" y="-42.4" font-family="sans-serif" font-weight="bold" font-size="14.00" fill="#000000">Legend</text>
<polygon fill="#ffffb3" stroke="transparent" points="244,-10 244,-30 264,-30 264,-10 244,-10"/>
<text text-anchor="start" x="267.629" y="-15.4" font-family="sans-serif" font-size="14.00" fill="#000000"> &#160;Declarations</text>
<polygon fill="#8dd3c7" stroke="transparent" points="357,-10 357,-30 377,-30 377,-10 357,-10"/>
<text text-anchor="start" x="380.7251" y="-15.4" font-family="sans-serif" font-size="14.00" fill="#000000"> &#160;Module</text>
<polygon fill="#80b1d3" stroke="transparent" points="443,-10 443,-30 463,-30 463,-10 443,-10"/>
<text text-anchor="start" x="466.7812" y="-15.4" font-family="sans-serif" font-size="14.00" fill="#000000"> &#160;Bootstrap</text>
<polygon fill="#fdb462" stroke="transparent" points="540,-10 540,-30 560,-30 560,-10 540,-10"/>
<text text-anchor="start" x="563.6732" y="-15.4" font-family="sans-serif" font-size="14.00" fill="#000000"> &#160;Providers</text>
<polygon fill="#fb8072" stroke="transparent" points="636,-10 636,-30 656,-30 656,-10 636,-10"/>
<text text-anchor="start" x="659.7258" y="-15.4" font-family="sans-serif" font-size="14.00" fill="#000000"> &#160;Exports</text>
<g id="clust1" class="cluster">
<title>cluster_RegisterModule</title>
<polygon fill="none" stroke="#000000" stroke-dasharray="1,5" points="8,-70 8,-260 948,-260 948,-70 8,-70"/>
</g>
<g id="clust2" class="cluster">
<title>cluster_RegisterModule_declarations</title>
<polygon fill="none" stroke="#000000" points="330,-143 330,-195 940,-195 940,-143 330,-143"/>
</g>
<g id="clust4" class="cluster">
<title>cluster_RegisterModule_NoWhitespaceDirective_providers</title>
<polygon fill="none" stroke="#000000" points="652,-78 652,-130 798,-130 798,-78 652,-78"/>
</g>
<g id="clust5" class="cluster">
<title>cluster_RegisterModule_RegisterSellerComponent_providers</title>
<polygon fill="none" stroke="#000000" points="355,-78 355,-130 515,-130 515,-78 355,-78"/>
</g>
<g id="clust7" class="cluster">
<title>cluster_RegisterModule_imports</title>
<polygon fill="none" stroke="#000000" points="16,-143 16,-195 308,-195 308,-143 16,-143"/>
</g>
<!-- CitiesComponent -->
<g id="node1" class="node">
<title>CitiesComponent</title>
<polygon fill="#ffffb3" stroke="#000000" points="932,-187 818,-187 818,-151 932,-151 932,-187"/>
<text text-anchor="middle" x="875" y="-164.8" font-family="Times,serif" font-size="14.00" fill="#000000">CitiesComponent</text>
</g>
<!-- RegisterModule -->
<g id="node5" class="node">
<title>RegisterModule</title>
<polygon fill="#8dd3c7" stroke="#000000" points="448.2022,-252 445.2022,-256 424.2022,-256 421.2022,-252 341.7978,-252 341.7978,-216 448.2022,-216 448.2022,-252"/>
<text text-anchor="middle" x="395" y="-229.8" font-family="Times,serif" font-size="14.00" fill="#000000">RegisterModule</text>
</g>
<!-- CitiesComponent&#45;&gt;RegisterModule -->
<g id="edge1" class="edge">
<title>CitiesComponent&#45;&gt;RegisterModule</title>
<path fill="none" stroke="#000000" d="M875,-187.0109C875,-209.4852 875,-245 875,-245 875,-245 458.2024,-245 458.2024,-245"/>
<polygon fill="#000000" stroke="#000000" points="458.2024,-241.5001 448.2024,-245 458.2023,-248.5001 458.2024,-241.5001"/>
</g>
<!-- NoWhitespaceDirective -->
<g id="node2" class="node">
<title>NoWhitespaceDirective</title>
<polygon fill="#ffffb3" stroke="#000000" points="800.489,-187 649.511,-187 649.511,-151 800.489,-151 800.489,-187"/>
<text text-anchor="middle" x="725" y="-164.8" font-family="Times,serif" font-size="14.00" fill="#000000">NoWhitespaceDirective</text>
</g>
<!-- NoWhitespaceDirective&#45;&gt;RegisterModule -->
<g id="edge2" class="edge">
<title>NoWhitespaceDirective&#45;&gt;RegisterModule</title>
<path fill="none" stroke="#000000" d="M725,-187.1289C725,-207.5724 725,-238 725,-238 725,-238 458.387,-238 458.387,-238"/>
<polygon fill="#000000" stroke="#000000" points="458.387,-234.5001 448.387,-238 458.3869,-241.5001 458.387,-234.5001"/>
</g>
<!-- RegisterSellerComponent -->
<g id="node3" class="node">
<title>RegisterSellerComponent</title>
<polygon fill="#ffffb3" stroke="#000000" points="631.1386,-187 470.8614,-187 470.8614,-151 631.1386,-151 631.1386,-187"/>
<text text-anchor="middle" x="551" y="-164.8" font-family="Times,serif" font-size="14.00" fill="#000000">RegisterSellerComponent</text>
</g>
<!-- RegisterSellerComponent&#45;&gt;RegisterModule -->
<g id="edge4" class="edge">
<title>RegisterSellerComponent&#45;&gt;RegisterModule</title>
<path fill="none" stroke="#000000" d="M551,-187.2667C551,-205.5552 551,-231 551,-231 551,-231 458.25,-231 458.25,-231"/>
<polygon fill="#000000" stroke="#000000" points="458.2501,-227.5001 448.25,-231 458.25,-234.5001 458.2501,-227.5001"/>
</g>
<!-- StatesComponent -->
<g id="node4" class="node">
<title>StatesComponent</title>
<polygon fill="#ffffb3" stroke="#000000" points="452.2702,-187 337.7298,-187 337.7298,-151 452.2702,-151 452.2702,-187"/>
<text text-anchor="middle" x="395" y="-164.8" font-family="Times,serif" font-size="14.00" fill="#000000">StatesComponent</text>
</g>
<!-- StatesComponent&#45;&gt;RegisterModule -->
<g id="edge6" class="edge">
<title>StatesComponent&#45;&gt;RegisterModule</title>
<path fill="none" stroke="#000000" d="M395,-187.1061C395,-187.1061 395,-205.991 395,-205.991"/>
<polygon fill="#000000" stroke="#000000" points="391.5001,-205.9909 395,-215.991 398.5001,-205.991 391.5001,-205.9909"/>
</g>
<!-- { : , : , : true } -->
<g id="node6" class="node">
<title>{ : , : , : true }</title>
<ellipse fill="#fdb462" stroke="#000000" cx="725" cy="-104" rx="65.1962" ry="18"/>
<text text-anchor="middle" x="725" y="-99.8" font-family="Times,serif" font-size="14.00" fill="#000000">{ : , : , : true }</text>
</g>
<!-- { : , : , : true }&#45;&gt;NoWhitespaceDirective -->
<g id="edge3" class="edge">
<title>{ : , : , : true }&#45;&gt;NoWhitespaceDirective</title>
<path fill="none" stroke="#000000" d="M725,-122.1061C725,-122.1061 725,-140.991 725,-140.991"/>
<polygon fill="#000000" stroke="#000000" points="721.5001,-140.9909 725,-150.991 728.5001,-140.991 721.5001,-140.9909"/>
</g>
<!-- RegisterService -->
<g id="node7" class="node">
<title>RegisterService</title>
<ellipse fill="#fdb462" stroke="#000000" cx="435" cy="-104" rx="72.3439" ry="18"/>
<text text-anchor="middle" x="435" y="-99.8" font-family="Times,serif" font-size="14.00" fill="#000000">RegisterService</text>
</g>
<!-- RegisterService&#45;&gt;RegisterSellerComponent -->
<g id="edge5" class="edge">
<title>RegisterService&#45;&gt;RegisterSellerComponent</title>
<path fill="none" stroke="#000000" d="M488.9263,-116.226C488.9263,-116.226 488.9263,-140.683 488.9263,-140.683"/>
<polygon fill="#000000" stroke="#000000" points="485.4264,-140.683 488.9263,-150.683 492.4264,-140.683 485.4264,-140.683"/>
</g>
<!-- RegisterService&#45;&gt;RegisterModule -->
<g id="edge9" class="edge">
<title>RegisterService&#45;&gt;RegisterModule</title>
<path fill="none" stroke="#000000" d="M461.533,-120.9386C461.533,-154.0166 461.533,-224 461.533,-224 461.533,-224 458.3882,-224 458.3882,-224"/>
<polygon fill="#000000" stroke="#000000" points="458.3882,-220.5001 448.3882,-224 458.3881,-227.5001 458.3882,-220.5001"/>
</g>
<!-- MaterialModule -->
<g id="node8" class="node">
<title>MaterialModule</title>
<polygon fill="#8dd3c7" stroke="#000000" points="300.4706,-187 297.4706,-191 276.4706,-191 273.4706,-187 193.5294,-187 193.5294,-151 300.4706,-151 300.4706,-187"/>
<text text-anchor="middle" x="247" y="-164.8" font-family="Times,serif" font-size="14.00" fill="#000000">MaterialModule</text>
</g>
<!-- MaterialModule&#45;&gt;RegisterModule -->
<g id="edge7" class="edge">
<title>MaterialModule&#45;&gt;RegisterModule</title>
<path fill="none" stroke="#000000" d="M247,-187.0225C247,-204.3734 247,-228 247,-228 247,-228 331.5686,-228 331.5686,-228"/>
<polygon fill="#000000" stroke="#000000" points="331.5686,-231.5001 341.5686,-228 331.5686,-224.5001 331.5686,-231.5001"/>
</g>
<!-- RegisterRoutingModule -->
<g id="node9" class="node">
<title>RegisterRoutingModule</title>
<polygon fill="#8dd3c7" stroke="#000000" points="175.8201,-187 172.8201,-191 151.8201,-191 148.8201,-187 24.1799,-187 24.1799,-151 175.8201,-151 175.8201,-187"/>
<text text-anchor="middle" x="100" y="-164.8" font-family="Times,serif" font-size="14.00" fill="#000000">RegisterRoutingModule</text>
</g>
<!-- RegisterRoutingModule&#45;&gt;RegisterModule -->
<g id="edge8" class="edge">
<title>RegisterRoutingModule&#45;&gt;RegisterModule</title>
<path fill="none" stroke="#000000" d="M100,-187.2843C100,-208.3211 100,-240 100,-240 100,-240 331.5777,-240 331.5777,-240"/>
<polygon fill="#000000" stroke="#000000" points="331.5778,-243.5001 341.5777,-240 331.5777,-236.5001 331.5778,-243.5001"/>
</g>
</g>
</svg>
