<?xml version="1.0" encoding="UTF-8" standalone="no"?>
<!DOCTYPE svg PUBLIC "-//W3C//DTD SVG 1.1//EN"
 "http://www.w3.org/Graphics/SVG/1.1/DTD/svg11.dtd">
<!-- Generated by graphviz version 2.40.1 (20161225.0304)
 -->
<!-- Title: dependencies Pages: 1 -->
<svg width="2092pt" height="284pt"
 viewBox="0.00 0.00 2092.00 284.00" xmlns="http://www.w3.org/2000/svg" xmlns:xlink="http://www.w3.org/1999/xlink">
<g id="graph0" class="graph" transform="scale(1 1) rotate(0) translate(4 280)">
<title>dependencies</title>
<polygon fill="#ffffff" stroke="transparent" points="-4,4 -4,-280 2088,-280 2088,4 -4,4"/>
<text text-anchor="start" x="1021.0091" y="-42.4" font-family="sans-serif" font-weight="bold" font-size="14.00" fill="#000000">Legend</text>
<polygon fill="#ffffb3" stroke="transparent" points="808,-10 808,-30 828,-30 828,-10 808,-10"/>
<text text-anchor="start" x="831.629" y="-15.4" font-family="sans-serif" font-size="14.00" fill="#000000"> &#160;Declarations</text>
<polygon fill="#8dd3c7" stroke="transparent" points="921,-10 921,-30 941,-30 941,-10 921,-10"/>
<text text-anchor="start" x="944.7251" y="-15.4" font-family="sans-serif" font-size="14.00" fill="#000000"> &#160;Module</text>
<polygon fill="#80b1d3" stroke="transparent" points="1007,-10 1007,-30 1027,-30 1027,-10 1007,-10"/>
<text text-anchor="start" x="1030.7812" y="-15.4" font-family="sans-serif" font-size="14.00" fill="#000000"> &#160;Bootstrap</text>
<polygon fill="#fdb462" stroke="transparent" points="1104,-10 1104,-30 1124,-30 1124,-10 1104,-10"/>
<text text-anchor="start" x="1127.6732" y="-15.4" font-family="sans-serif" font-size="14.00" fill="#000000"> &#160;Providers</text>
<polygon fill="#fb8072" stroke="transparent" points="1200,-10 1200,-30 1220,-30 1220,-10 1200,-10"/>
<text text-anchor="start" x="1223.7258" y="-15.4" font-family="sans-serif" font-size="14.00" fill="#000000"> &#160;Exports</text>
<g id="clust1" class="cluster">
<title>cluster_BillingModule</title>
<polygon fill="none" stroke="#000000" stroke-dasharray="1,5" points="8,-70 8,-268 2076,-268 2076,-70 8,-70"/>
</g>
<g id="clust2" class="cluster">
<title>cluster_BillingModule_declarations</title>
<polygon fill="none" stroke="#000000" points="982,-78 982,-130 2068,-130 2068,-78 982,-78"/>
</g>
<g id="clust8" class="cluster">
<title>cluster_BillingModule_imports</title>
<polygon fill="none" stroke="#000000" points="698,-78 698,-130 974,-130 974,-78 698,-78"/>
</g>
<g id="clust9" class="cluster">
<title>cluster_BillingModule_exports</title>
<polygon fill="none" stroke="#000000" points="399,-208 399,-260 1264,-260 1264,-208 399,-208"/>
</g>
<g id="clust11" class="cluster">
<title>cluster_BillingModule_providers</title>
<polygon fill="none" stroke="#000000" points="16,-78 16,-130 690,-130 690,-78 16,-78"/>
</g>
<!-- BillingComponent -->
<g id="node1" class="node">
<title>BillingComponent</title>
<polygon fill="#ffffb3" stroke="#000000" points="2060.2316,-122 1939.7684,-122 1939.7684,-86 2060.2316,-86 2060.2316,-122"/>
<text text-anchor="middle" x="2000" y="-99.8" font-family="Times,serif" font-size="14.00" fill="#000000">BillingComponent</text>
</g>
<!-- BillingModule -->
<g id="node6" class="node">
<title>BillingModule</title>
<polygon fill="#8dd3c7" stroke="#000000" points="943.4498,-187 940.4498,-191 919.4498,-191 916.4498,-187 844.5502,-187 844.5502,-151 943.4498,-151 943.4498,-187"/>
<text text-anchor="middle" x="894" y="-164.8" font-family="Times,serif" font-size="14.00" fill="#000000">BillingModule</text>
</g>
<!-- BillingComponent&#45;&gt;BillingModule -->
<g id="edge1" class="edge">
<title>BillingComponent&#45;&gt;BillingModule</title>
<path fill="none" stroke="#000000" d="M2000,-122.0449C2000,-143.6623 2000,-177 2000,-177 2000,-177 953.3102,-177 953.3102,-177"/>
<polygon fill="#000000" stroke="#000000" points="953.3103,-173.5001 943.3102,-177 953.3102,-180.5001 953.3103,-173.5001"/>
</g>
<!-- BillingFulfillmentDetailComponent -->
<g id="node2" class="node">
<title>BillingFulfillmentDetailComponent</title>
<polygon fill="#ffffb3" stroke="#000000" points="1921.9408,-122 1704.0592,-122 1704.0592,-86 1921.9408,-86 1921.9408,-122"/>
<text text-anchor="middle" x="1813" y="-99.8" font-family="Times,serif" font-size="14.00" fill="#000000">BillingFulfillmentDetailComponent</text>
</g>
<!-- BillingFulfillmentDetailComponent&#45;&gt;BillingModule -->
<g id="edge2" class="edge">
<title>BillingFulfillmentDetailComponent&#45;&gt;BillingModule</title>
<path fill="none" stroke="#000000" d="M1813,-122.2228C1813,-142.3652 1813,-172 1813,-172 1813,-172 953.4094,-172 953.4094,-172"/>
<polygon fill="#000000" stroke="#000000" points="953.4095,-168.5001 943.4094,-172 953.4094,-175.5001 953.4095,-168.5001"/>
</g>
<!-- BillingProductsOrderComponent -->
<g id="node3" class="node">
<title>BillingProductsOrderComponent</title>
<polygon fill="#ffffb3" stroke="#000000" points="1685.8668,-122 1484.1332,-122 1484.1332,-86 1685.8668,-86 1685.8668,-122"/>
<text text-anchor="middle" x="1585" y="-99.8" font-family="Times,serif" font-size="14.00" fill="#000000">BillingProductsOrderComponent</text>
</g>
<!-- BillingProductsOrderComponent&#45;&gt;BillingModule -->
<g id="edge3" class="edge">
<title>BillingProductsOrderComponent&#45;&gt;BillingModule</title>
<path fill="none" stroke="#000000" d="M1585,-122.2222C1585,-140.8285 1585,-167 1585,-167 1585,-167 953.4177,-167 953.4177,-167"/>
<polygon fill="#000000" stroke="#000000" points="953.4177,-163.5001 943.4177,-167 953.4177,-170.5001 953.4177,-163.5001"/>
</g>
<!-- OrderBillingDetailModalComponent -->
<g id="node4" class="node">
<title>OrderBillingDetailModalComponent</title>
<polygon fill="#ffffb3" stroke="#000000" points="1465.6315,-122 1242.3685,-122 1242.3685,-86 1465.6315,-86 1465.6315,-122"/>
<text text-anchor="middle" x="1354" y="-99.8" font-family="Times,serif" font-size="14.00" fill="#000000">OrderBillingDetailModalComponent</text>
</g>
<!-- OrderBillingDetailModalComponent&#45;&gt;BillingModule -->
<g id="edge4" class="edge">
<title>OrderBillingDetailModalComponent&#45;&gt;BillingModule</title>
<path fill="none" stroke="#000000" d="M1249.0251,-122.0336C1249.0251,-139.0597 1249.0251,-162 1249.0251,-162 1249.0251,-162 953.3647,-162 953.3647,-162"/>
<polygon fill="#000000" stroke="#000000" points="953.3647,-158.5001 943.3647,-162 953.3647,-165.5001 953.3647,-158.5001"/>
</g>
<!-- ProductDetailBillingModalComponent -->
<g id="node5" class="node">
<title>ProductDetailBillingModalComponent</title>
<polygon fill="#ffffb3" stroke="#000000" points="1224.0377,-122 989.9623,-122 989.9623,-86 1224.0377,-86 1224.0377,-122"/>
<text text-anchor="middle" x="1107" y="-99.8" font-family="Times,serif" font-size="14.00" fill="#000000">ProductDetailBillingModalComponent</text>
</g>
<!-- ProductDetailBillingModalComponent&#45;&gt;BillingModule -->
<g id="edge5" class="edge">
<title>ProductDetailBillingModalComponent&#45;&gt;BillingModule</title>
<path fill="none" stroke="#000000" d="M1051.7074,-122.2396C1051.7074,-137.5706 1051.7074,-157 1051.7074,-157 1051.7074,-157 953.4669,-157 953.4669,-157"/>
<polygon fill="#000000" stroke="#000000" points="953.4669,-153.5001 943.4669,-157 953.4669,-160.5001 953.4669,-153.5001"/>
</g>
<!-- BillingComponent  -->
<g id="node9" class="node">
<title>BillingComponent </title>
<polygon fill="#fb8072" stroke="#000000" points="1255.7317,-252 1132.2683,-252 1132.2683,-216 1255.7317,-216 1255.7317,-252"/>
<text text-anchor="middle" x="1194" y="-229.8" font-family="Times,serif" font-size="14.00" fill="#000000">BillingComponent </text>
</g>
<!-- BillingModule&#45;&gt;BillingComponent  -->
<g id="edge8" class="edge">
<title>BillingModule&#45;&gt;BillingComponent </title>
<path fill="none" stroke="#000000" stroke-dasharray="5,2" d="M943.5041,-182C1024.9297,-182 1178.2015,-182 1178.2015,-182 1178.2015,-182 1178.2015,-205.8129 1178.2015,-205.8129"/>
<polygon fill="#000000" stroke="#000000" points="1174.7015,-205.8129 1178.2015,-215.8129 1181.7015,-205.813 1174.7015,-205.8129"/>
</g>
<!-- BillingProductsOrderComponent  -->
<g id="node10" class="node">
<title>BillingProductsOrderComponent </title>
<polygon fill="#fb8072" stroke="#000000" points="1113.8671,-252 908.1329,-252 908.1329,-216 1113.8671,-216 1113.8671,-252"/>
<text text-anchor="middle" x="1011" y="-229.8" font-family="Times,serif" font-size="14.00" fill="#000000">BillingProductsOrderComponent </text>
</g>
<!-- BillingModule&#45;&gt;BillingProductsOrderComponent  -->
<g id="edge9" class="edge">
<title>BillingModule&#45;&gt;BillingProductsOrderComponent </title>
<path fill="none" stroke="#000000" stroke-dasharray="5,2" d="M925.7705,-187.1061C925.7705,-187.1061 925.7705,-205.991 925.7705,-205.991"/>
<polygon fill="#000000" stroke="#000000" points="922.2706,-205.9909 925.7705,-215.991 929.2706,-205.991 922.2706,-205.9909"/>
</g>
<!-- OrderBillingDetailModalComponent  -->
<g id="node11" class="node">
<title>OrderBillingDetailModalComponent </title>
<polygon fill="#fb8072" stroke="#000000" points="890.6312,-252 663.3688,-252 663.3688,-216 890.6312,-216 890.6312,-252"/>
<text text-anchor="middle" x="777" y="-229.8" font-family="Times,serif" font-size="14.00" fill="#000000">OrderBillingDetailModalComponent </text>
</g>
<!-- BillingModule&#45;&gt;OrderBillingDetailModalComponent  -->
<g id="edge10" class="edge">
<title>BillingModule&#45;&gt;OrderBillingDetailModalComponent </title>
<path fill="none" stroke="#000000" stroke-dasharray="5,2" d="M867.6706,-187.1061C867.6706,-187.1061 867.6706,-205.991 867.6706,-205.991"/>
<polygon fill="#000000" stroke="#000000" points="864.1707,-205.9909 867.6706,-215.991 871.1707,-205.991 864.1707,-205.9909"/>
</g>
<!-- ProductDetailBillingModalComponent  -->
<g id="node12" class="node">
<title>ProductDetailBillingModalComponent </title>
<polygon fill="#fb8072" stroke="#000000" points="645.0372,-252 406.9628,-252 406.9628,-216 645.0372,-216 645.0372,-252"/>
<text text-anchor="middle" x="526" y="-229.8" font-family="Times,serif" font-size="14.00" fill="#000000">ProductDetailBillingModalComponent </text>
</g>
<!-- BillingModule&#45;&gt;ProductDetailBillingModalComponent  -->
<g id="edge11" class="edge">
<title>BillingModule&#45;&gt;ProductDetailBillingModalComponent </title>
<path fill="none" stroke="#000000" stroke-dasharray="5,2" d="M844.5562,-182C759.9885,-182 596.5974,-182 596.5974,-182 596.5974,-182 596.5974,-205.8129 596.5974,-205.8129"/>
<polygon fill="#000000" stroke="#000000" points="593.0975,-205.8129 596.5974,-215.8129 600.0975,-205.813 593.0975,-205.8129"/>
</g>
<!-- BillingRoutingModule -->
<g id="node7" class="node">
<title>BillingRoutingModule</title>
<polygon fill="#8dd3c7" stroke="#000000" points="965.5673,-122 962.5673,-126 941.5673,-126 938.5673,-122 822.4327,-122 822.4327,-86 965.5673,-86 965.5673,-122"/>
<text text-anchor="middle" x="894" y="-99.8" font-family="Times,serif" font-size="14.00" fill="#000000">BillingRoutingModule</text>
</g>
<!-- BillingRoutingModule&#45;&gt;BillingModule -->
<g id="edge6" class="edge">
<title>BillingRoutingModule&#45;&gt;BillingModule</title>
<path fill="none" stroke="#000000" d="M894,-122.1061C894,-122.1061 894,-140.991 894,-140.991"/>
<polygon fill="#000000" stroke="#000000" points="890.5001,-140.9909 894,-150.991 897.5001,-140.991 890.5001,-140.9909"/>
</g>
<!-- SharedModule -->
<g id="node8" class="node">
<title>SharedModule</title>
<polygon fill="#8dd3c7" stroke="#000000" points="804.4231,-122 801.4231,-126 780.4231,-126 777.4231,-122 705.5769,-122 705.5769,-86 804.4231,-86 804.4231,-122"/>
<text text-anchor="middle" x="755" y="-99.8" font-family="Times,serif" font-size="14.00" fill="#000000">SharedModule</text>
</g>
<!-- SharedModule&#45;&gt;BillingModule -->
<g id="edge7" class="edge">
<title>SharedModule&#45;&gt;BillingModule</title>
<path fill="none" stroke="#000000" d="M755,-122.2396C755,-137.5706 755,-157 755,-157 755,-157 834.6024,-157 834.6024,-157"/>
<polygon fill="#000000" stroke="#000000" points="834.6025,-160.5001 844.6024,-157 834.6024,-153.5001 834.6025,-160.5001"/>
</g>
<!-- BillingService -->
<g id="node13" class="node">
<title>BillingService</title>
<ellipse fill="#fdb462" stroke="#000000" cx="615" cy="-104" rx="66.6479" ry="18"/>
<text text-anchor="middle" x="615" y="-99.8" font-family="Times,serif" font-size="14.00" fill="#000000">BillingService</text>
</g>
<!-- BillingService&#45;&gt;BillingModule -->
<g id="edge12" class="edge">
<title>BillingService&#45;&gt;BillingModule</title>
<path fill="none" stroke="#000000" d="M672.6291,-113.3187C672.6291,-129.714 672.6291,-162 672.6291,-162 672.6291,-162 834.5956,-162 834.5956,-162"/>
<polygon fill="#000000" stroke="#000000" points="834.5956,-165.5001 844.5956,-162 834.5955,-158.5001 834.5956,-165.5001"/>
</g>
<!-- CognitoUtil -->
<g id="node14" class="node">
<title>CognitoUtil</title>
<ellipse fill="#fdb462" stroke="#000000" cx="473" cy="-104" rx="57.3611" ry="18"/>
<text text-anchor="middle" x="473" y="-99.8" font-family="Times,serif" font-size="14.00" fill="#000000">CognitoUtil</text>
</g>
<!-- CognitoUtil&#45;&gt;BillingModule -->
<g id="edge13" class="edge">
<title>CognitoUtil&#45;&gt;BillingModule</title>
<path fill="none" stroke="#000000" d="M473,-122.2222C473,-140.8285 473,-167 473,-167 473,-167 834.468,-167 834.468,-167"/>
<polygon fill="#000000" stroke="#000000" points="834.468,-170.5001 844.468,-167 834.4679,-163.5001 834.468,-170.5001"/>
</g>
<!-- ComponentsService -->
<g id="node15" class="node">
<title>ComponentsService</title>
<ellipse fill="#fdb462" stroke="#000000" cx="309" cy="-104" rx="88.6255" ry="18"/>
<text text-anchor="middle" x="309" y="-99.8" font-family="Times,serif" font-size="14.00" fill="#000000">ComponentsService</text>
</g>
<!-- ComponentsService&#45;&gt;BillingModule -->
<g id="edge14" class="edge">
<title>ComponentsService&#45;&gt;BillingModule</title>
<path fill="none" stroke="#000000" d="M309,-122.2228C309,-142.3652 309,-172 309,-172 309,-172 834.6274,-172 834.6274,-172"/>
<polygon fill="#000000" stroke="#000000" points="834.6274,-175.5001 844.6274,-172 834.6274,-168.5001 834.6274,-175.5001"/>
</g>
<!-- EventEmitterOrders -->
<g id="node16" class="node">
<title>EventEmitterOrders</title>
<ellipse fill="#fdb462" stroke="#000000" cx="113" cy="-104" rx="88.5986" ry="18"/>
<text text-anchor="middle" x="113" y="-99.8" font-family="Times,serif" font-size="14.00" fill="#000000">EventEmitterOrders</text>
</g>
<!-- EventEmitterOrders&#45;&gt;BillingModule -->
<g id="edge15" class="edge">
<title>EventEmitterOrders&#45;&gt;BillingModule</title>
<path fill="none" stroke="#000000" d="M113,-122.0449C113,-143.6623 113,-177 113,-177 113,-177 834.5525,-177 834.5525,-177"/>
<polygon fill="#000000" stroke="#000000" points="834.5525,-180.5001 844.5525,-177 834.5524,-173.5001 834.5525,-180.5001"/>
</g>
</g>
</svg>
