<?xml version="1.0" encoding="UTF-8" standalone="no"?>
<!DOCTYPE svg PUBLIC "-//W3C//DTD SVG 1.1//EN"
 "http://www.w3.org/Graphics/SVG/1.1/DTD/svg11.dtd">
<!-- Generated by graphviz version 2.40.1 (20161225.0304)
 -->
<!-- Title: dependencies Pages: 1 -->
<svg width="3176pt" height="284pt"
 viewBox="0.00 0.00 3176.00 284.00" xmlns="http://www.w3.org/2000/svg" xmlns:xlink="http://www.w3.org/1999/xlink">
<g id="graph0" class="graph" transform="scale(1 1) rotate(0) translate(4 280)">
<title>dependencies</title>
<polygon fill="#ffffff" stroke="transparent" points="-4,4 -4,-280 3172,-280 3172,4 -4,4"/>
<text text-anchor="start" x="1563.0091" y="-42.4" font-family="sans-serif" font-weight="bold" font-size="14.00" fill="#000000">Legend</text>
<polygon fill="#ffffb3" stroke="transparent" points="1350,-10 1350,-30 1370,-30 1370,-10 1350,-10"/>
<text text-anchor="start" x="1373.629" y="-15.4" font-family="sans-serif" font-size="14.00" fill="#000000"> &#160;Declarations</text>
<polygon fill="#8dd3c7" stroke="transparent" points="1463,-10 1463,-30 1483,-30 1483,-10 1463,-10"/>
<text text-anchor="start" x="1486.7251" y="-15.4" font-family="sans-serif" font-size="14.00" fill="#000000"> &#160;Module</text>
<polygon fill="#80b1d3" stroke="transparent" points="1549,-10 1549,-30 1569,-30 1569,-10 1549,-10"/>
<text text-anchor="start" x="1572.7812" y="-15.4" font-family="sans-serif" font-size="14.00" fill="#000000"> &#160;Bootstrap</text>
<polygon fill="#fdb462" stroke="transparent" points="1646,-10 1646,-30 1666,-30 1666,-10 1646,-10"/>
<text text-anchor="start" x="1669.6732" y="-15.4" font-family="sans-serif" font-size="14.00" fill="#000000"> &#160;Providers</text>
<polygon fill="#fb8072" stroke="transparent" points="1742,-10 1742,-30 1762,-30 1762,-10 1742,-10"/>
<text text-anchor="start" x="1765.7258" y="-15.4" font-family="sans-serif" font-size="14.00" fill="#000000"> &#160;Exports</text>
<g id="clust1" class="cluster">
<title>cluster_BillingModule</title>
<polygon fill="none" stroke="#000000" stroke-dasharray="1,5" points="8,-70 8,-268 3160,-268 3160,-70 8,-70"/>
</g>
<g id="clust2" class="cluster">
<title>cluster_BillingModule_declarations</title>
<polygon fill="none" stroke="#000000" points="2066,-78 2066,-130 3152,-130 3152,-78 2066,-78"/>
</g>
<g id="clust8" class="cluster">
<title>cluster_BillingModule_imports</title>
<polygon fill="none" stroke="#000000" points="1245,-78 1245,-130 2058,-130 2058,-78 1245,-78"/>
</g>
<g id="clust9" class="cluster">
<title>cluster_BillingModule_exports</title>
<polygon fill="none" stroke="#000000" points="989,-208 989,-260 1854,-260 1854,-208 989,-208"/>
</g>
<g id="clust11" class="cluster">
<title>cluster_BillingModule_providers</title>
<polygon fill="none" stroke="#000000" points="16,-78 16,-130 1237,-130 1237,-78 16,-78"/>
</g>
<!-- BillingComponent -->
<g id="node1" class="node">
<title>BillingComponent</title>
<polygon fill="#ffffb3" stroke="#000000" points="3144.2316,-122 3023.7684,-122 3023.7684,-86 3144.2316,-86 3144.2316,-122"/>
<text text-anchor="middle" x="3084" y="-99.8" font-family="Times,serif" font-size="14.00" fill="#000000">BillingComponent</text>
</g>
<!-- BillingModule -->
<g id="node6" class="node">
<title>BillingModule</title>
<polygon fill="#8dd3c7" stroke="#000000" points="1533.4498,-187 1530.4498,-191 1509.4498,-191 1506.4498,-187 1434.5502,-187 1434.5502,-151 1533.4498,-151 1533.4498,-187"/>
<text text-anchor="middle" x="1484" y="-164.8" font-family="Times,serif" font-size="14.00" fill="#000000">BillingModule</text>
</g>
<!-- BillingComponent&#45;&gt;BillingModule -->
<g id="edge1" class="edge">
<title>BillingComponent&#45;&gt;BillingModule</title>
<path fill="none" stroke="#000000" d="M3084,-122.0109C3084,-144.4852 3084,-180 3084,-180 3084,-180 1543.6393,-180 1543.6393,-180"/>
<polygon fill="#000000" stroke="#000000" points="1543.6394,-176.5001 1533.6393,-180 1543.6393,-183.5001 1543.6394,-176.5001"/>
</g>
<!-- BillingFulfillmentDetailComponent -->
<g id="node2" class="node">
<title>BillingFulfillmentDetailComponent</title>
<polygon fill="#ffffb3" stroke="#000000" points="3005.9408,-122 2788.0592,-122 2788.0592,-86 3005.9408,-86 3005.9408,-122"/>
<text text-anchor="middle" x="2897" y="-99.8" font-family="Times,serif" font-size="14.00" fill="#000000">BillingFulfillmentDetailComponent</text>
</g>
<!-- BillingFulfillmentDetailComponent&#45;&gt;BillingModule -->
<g id="edge2" class="edge">
<title>BillingFulfillmentDetailComponent&#45;&gt;BillingModule</title>
<path fill="none" stroke="#000000" d="M2897,-122.0449C2897,-143.6623 2897,-177 2897,-177 2897,-177 1543.4609,-177 1543.4609,-177"/>
<polygon fill="#000000" stroke="#000000" points="1543.4609,-173.5001 1533.4609,-177 1543.4609,-180.5001 1543.4609,-173.5001"/>
</g>
<!-- BillingProductsOrderComponent -->
<g id="node3" class="node">
<title>BillingProductsOrderComponent</title>
<polygon fill="#ffffb3" stroke="#000000" points="2769.8668,-122 2568.1332,-122 2568.1332,-86 2769.8668,-86 2769.8668,-122"/>
<text text-anchor="middle" x="2669" y="-99.8" font-family="Times,serif" font-size="14.00" fill="#000000">BillingProductsOrderComponent</text>
</g>
<!-- BillingProductsOrderComponent&#45;&gt;BillingModule -->
<g id="edge3" class="edge">
<title>BillingProductsOrderComponent&#45;&gt;BillingModule</title>
<path fill="none" stroke="#000000" d="M2669,-122.1289C2669,-142.5724 2669,-173 2669,-173 2669,-173 1543.4093,-173 1543.4093,-173"/>
<polygon fill="#000000" stroke="#000000" points="1543.4093,-169.5001 1533.4093,-173 1543.4093,-176.5001 1543.4093,-169.5001"/>
</g>
<!-- OrderBillingDetailModalComponent -->
<g id="node4" class="node">
<title>OrderBillingDetailModalComponent</title>
<polygon fill="#ffffb3" stroke="#000000" points="2549.6315,-122 2326.3685,-122 2326.3685,-86 2549.6315,-86 2549.6315,-122"/>
<text text-anchor="middle" x="2438" y="-99.8" font-family="Times,serif" font-size="14.00" fill="#000000">OrderBillingDetailModalComponent</text>
</g>
<!-- OrderBillingDetailModalComponent&#45;&gt;BillingModule -->
<g id="edge4" class="edge">
<title>OrderBillingDetailModalComponent&#45;&gt;BillingModule</title>
<path fill="none" stroke="#000000" d="M2438,-122.1061C2438,-141.3391 2438,-169 2438,-169 2438,-169 1543.2823,-169 1543.2823,-169"/>
<polygon fill="#000000" stroke="#000000" points="1543.2823,-165.5001 1533.2823,-169 1543.2823,-172.5001 1543.2823,-165.5001"/>
</g>
<!-- ProductDetailBillingModalComponent -->
<g id="node5" class="node">
<title>ProductDetailBillingModalComponent</title>
<polygon fill="#ffffb3" stroke="#000000" points="2308.0377,-122 2073.9623,-122 2073.9623,-86 2308.0377,-86 2308.0377,-122"/>
<text text-anchor="middle" x="2191" y="-99.8" font-family="Times,serif" font-size="14.00" fill="#000000">ProductDetailBillingModalComponent</text>
</g>
<!-- ProductDetailBillingModalComponent&#45;&gt;BillingModule -->
<g id="edge5" class="edge">
<title>ProductDetailBillingModalComponent&#45;&gt;BillingModule</title>
<path fill="none" stroke="#000000" d="M2191,-122.2667C2191,-140.5552 2191,-166 2191,-166 2191,-166 1543.4339,-166 1543.4339,-166"/>
<polygon fill="#000000" stroke="#000000" points="1543.4339,-162.5001 1533.4339,-166 1543.4338,-169.5001 1543.4339,-162.5001"/>
</g>
<!-- BillingComponent  -->
<g id="node12" class="node">
<title>BillingComponent </title>
<polygon fill="#fb8072" stroke="#000000" points="1845.7317,-252 1722.2683,-252 1722.2683,-216 1845.7317,-216 1845.7317,-252"/>
<text text-anchor="middle" x="1784" y="-229.8" font-family="Times,serif" font-size="14.00" fill="#000000">BillingComponent </text>
</g>
<!-- BillingModule&#45;&gt;BillingComponent  -->
<g id="edge11" class="edge">
<title>BillingModule&#45;&gt;BillingComponent </title>
<path fill="none" stroke="#000000" stroke-dasharray="5,2" d="M1533.5389,-184C1618.7473,-184 1784,-184 1784,-184 1784,-184 1784,-205.9489 1784,-205.9489"/>
<polygon fill="#000000" stroke="#000000" points="1780.5001,-205.9488 1784,-215.9489 1787.5001,-205.9489 1780.5001,-205.9488"/>
</g>
<!-- BillingProductsOrderComponent  -->
<g id="node13" class="node">
<title>BillingProductsOrderComponent </title>
<polygon fill="#fb8072" stroke="#000000" points="1703.8671,-252 1498.1329,-252 1498.1329,-216 1703.8671,-216 1703.8671,-252"/>
<text text-anchor="middle" x="1601" y="-229.8" font-family="Times,serif" font-size="14.00" fill="#000000">BillingProductsOrderComponent </text>
</g>
<!-- BillingModule&#45;&gt;BillingProductsOrderComponent  -->
<g id="edge12" class="edge">
<title>BillingModule&#45;&gt;BillingProductsOrderComponent </title>
<path fill="none" stroke="#000000" stroke-dasharray="5,2" d="M1515.7705,-187.1061C1515.7705,-187.1061 1515.7705,-205.991 1515.7705,-205.991"/>
<polygon fill="#000000" stroke="#000000" points="1512.2706,-205.9909 1515.7705,-215.991 1519.2706,-205.991 1512.2706,-205.9909"/>
</g>
<!-- OrderBillingDetailModalComponent  -->
<g id="node14" class="node">
<title>OrderBillingDetailModalComponent </title>
<polygon fill="#fb8072" stroke="#000000" points="1480.6312,-252 1253.3688,-252 1253.3688,-216 1480.6312,-216 1480.6312,-252"/>
<text text-anchor="middle" x="1367" y="-229.8" font-family="Times,serif" font-size="14.00" fill="#000000">OrderBillingDetailModalComponent </text>
</g>
<!-- BillingModule&#45;&gt;OrderBillingDetailModalComponent  -->
<g id="edge13" class="edge">
<title>BillingModule&#45;&gt;OrderBillingDetailModalComponent </title>
<path fill="none" stroke="#000000" stroke-dasharray="5,2" d="M1457.6706,-187.1061C1457.6706,-187.1061 1457.6706,-205.991 1457.6706,-205.991"/>
<polygon fill="#000000" stroke="#000000" points="1454.1707,-205.9909 1457.6706,-215.991 1461.1707,-205.991 1454.1707,-205.9909"/>
</g>
<!-- ProductDetailBillingModalComponent  -->
<g id="node15" class="node">
<title>ProductDetailBillingModalComponent </title>
<polygon fill="#fb8072" stroke="#000000" points="1235.0372,-252 996.9628,-252 996.9628,-216 1235.0372,-216 1235.0372,-252"/>
<text text-anchor="middle" x="1116" y="-229.8" font-family="Times,serif" font-size="14.00" fill="#000000">ProductDetailBillingModalComponent </text>
</g>
<!-- BillingModule&#45;&gt;ProductDetailBillingModalComponent  -->
<g id="edge14" class="edge">
<title>BillingModule&#45;&gt;ProductDetailBillingModalComponent </title>
<path fill="none" stroke="#000000" stroke-dasharray="5,2" d="M1434.6738,-184C1339.4789,-184 1139.7254,-184 1139.7254,-184 1139.7254,-184 1139.7254,-205.9489 1139.7254,-205.9489"/>
<polygon fill="#000000" stroke="#000000" points="1136.2255,-205.9488 1139.7254,-215.9489 1143.2255,-205.9489 1136.2255,-205.9488"/>
</g>
<!-- BillingRoutingModule -->
<g id="node7" class="node">
<title>BillingRoutingModule</title>
<polygon fill="#8dd3c7" stroke="#000000" points="2049.5673,-122 2046.5673,-126 2025.5673,-126 2022.5673,-122 1906.4327,-122 1906.4327,-86 2049.5673,-86 2049.5673,-122"/>
<text text-anchor="middle" x="1978" y="-99.8" font-family="Times,serif" font-size="14.00" fill="#000000">BillingRoutingModule</text>
</g>
<!-- BillingRoutingModule&#45;&gt;BillingModule -->
<g id="edge6" class="edge">
<title>BillingRoutingModule&#45;&gt;BillingModule</title>
<path fill="none" stroke="#000000" d="M1978,-122.0336C1978,-139.0597 1978,-162 1978,-162 1978,-162 1543.6284,-162 1543.6284,-162"/>
<polygon fill="#000000" stroke="#000000" points="1543.6285,-158.5001 1533.6284,-162 1543.6284,-165.5001 1543.6285,-158.5001"/>
</g>
<!-- CdkDetailRowDirectiveModule -->
<g id="node8" class="node">
<title>CdkDetailRowDirectiveModule</title>
<polygon fill="#8dd3c7" stroke="#000000" points="1887.6204,-122 1884.6204,-126 1863.6204,-126 1860.6204,-122 1692.3796,-122 1692.3796,-86 1887.6204,-86 1887.6204,-122"/>
<text text-anchor="middle" x="1790" y="-99.8" font-family="Times,serif" font-size="14.00" fill="#000000">CdkDetailRowDirectiveModule</text>
</g>
<!-- CdkDetailRowDirectiveModule&#45;&gt;BillingModule -->
<g id="edge7" class="edge">
<title>CdkDetailRowDirectiveModule&#45;&gt;BillingModule</title>
<path fill="none" stroke="#000000" d="M1697.9367,-122.0091C1697.9367,-138.0494 1697.9367,-159 1697.9367,-159 1697.9367,-159 1543.35,-159 1543.35,-159"/>
<polygon fill="#000000" stroke="#000000" points="1543.3501,-155.5001 1533.35,-159 1543.35,-162.5001 1543.3501,-155.5001"/>
</g>
<!-- MaterialModule -->
<g id="node9" class="node">
<title>MaterialModule</title>
<polygon fill="#8dd3c7" stroke="#000000" points="1674.4706,-122 1671.4706,-126 1650.4706,-126 1647.4706,-122 1567.5294,-122 1567.5294,-86 1674.4706,-86 1674.4706,-122"/>
<text text-anchor="middle" x="1621" y="-99.8" font-family="Times,serif" font-size="14.00" fill="#000000">MaterialModule</text>
</g>
<!-- MaterialModule&#45;&gt;BillingModule -->
<g id="edge8" class="edge">
<title>MaterialModule&#45;&gt;BillingModule</title>
<path fill="none" stroke="#000000" d="M1621,-122.1243C1621,-136.7832 1621,-155 1621,-155 1621,-155 1543.4601,-155 1543.4601,-155"/>
<polygon fill="#000000" stroke="#000000" points="1543.4602,-151.5001 1533.4601,-155 1543.4601,-158.5001 1543.4602,-151.5001"/>
</g>
<!-- ToolbarLinkModule -->
<g id="node10" class="node">
<title>ToolbarLinkModule</title>
<polygon fill="#8dd3c7" stroke="#000000" points="1549.3118,-122 1546.3118,-126 1525.3118,-126 1522.3118,-122 1418.6882,-122 1418.6882,-86 1549.3118,-86 1549.3118,-122"/>
<text text-anchor="middle" x="1484" y="-99.8" font-family="Times,serif" font-size="14.00" fill="#000000">ToolbarLinkModule</text>
</g>
<!-- ToolbarLinkModule&#45;&gt;BillingModule -->
<g id="edge9" class="edge">
<title>ToolbarLinkModule&#45;&gt;BillingModule</title>
<path fill="none" stroke="#000000" d="M1484,-122.1061C1484,-122.1061 1484,-140.991 1484,-140.991"/>
<polygon fill="#000000" stroke="#000000" points="1480.5001,-140.9909 1484,-150.991 1487.5001,-140.991 1480.5001,-140.9909"/>
</g>
<!-- ToolbarOptionsModule -->
<g id="node11" class="node">
<title>ToolbarOptionsModule</title>
<polygon fill="#8dd3c7" stroke="#000000" points="1401.2007,-122 1398.2007,-126 1377.2007,-126 1374.2007,-122 1252.7993,-122 1252.7993,-86 1401.2007,-86 1401.2007,-122"/>
<text text-anchor="middle" x="1327" y="-99.8" font-family="Times,serif" font-size="14.00" fill="#000000">ToolbarOptionsModule</text>
</g>
<!-- ToolbarOptionsModule&#45;&gt;BillingModule -->
<g id="edge10" class="edge">
<title>ToolbarOptionsModule&#45;&gt;BillingModule</title>
<path fill="none" stroke="#000000" d="M1327.2674,-122.1243C1327.2674,-136.7832 1327.2674,-155 1327.2674,-155 1327.2674,-155 1424.4088,-155 1424.4088,-155"/>
<polygon fill="#000000" stroke="#000000" points="1424.4088,-158.5001 1434.4088,-155 1424.4088,-151.5001 1424.4088,-158.5001"/>
</g>
<!-- BillingService -->
<g id="node16" class="node">
<title>BillingService</title>
<ellipse fill="#fdb462" stroke="#000000" cx="1162" cy="-104" rx="66.6479" ry="18"/>
<text text-anchor="middle" x="1162" y="-99.8" font-family="Times,serif" font-size="14.00" fill="#000000">BillingService</text>
</g>
<!-- BillingService&#45;&gt;BillingModule -->
<g id="edge15" class="edge">
<title>BillingService&#45;&gt;BillingModule</title>
<path fill="none" stroke="#000000" d="M1184.2746,-121.1009C1184.2746,-137.2462 1184.2746,-159 1184.2746,-159 1184.2746,-159 1424.5064,-159 1424.5064,-159"/>
<polygon fill="#000000" stroke="#000000" points="1424.5065,-162.5001 1434.5064,-159 1424.5064,-155.5001 1424.5065,-162.5001"/>
</g>
<!-- CognitoUtil -->
<g id="node17" class="node">
<title>CognitoUtil</title>
<ellipse fill="#fdb462" stroke="#000000" cx="1020" cy="-104" rx="57.3611" ry="18"/>
<text text-anchor="middle" x="1020" y="-99.8" font-family="Times,serif" font-size="14.00" fill="#000000">CognitoUtil</text>
</g>
<!-- CognitoUtil&#45;&gt;BillingModule -->
<g id="edge16" class="edge">
<title>CognitoUtil&#45;&gt;BillingModule</title>
<path fill="none" stroke="#000000" d="M1037.0808,-121.4019C1037.0808,-138.4862 1037.0808,-162 1037.0808,-162 1037.0808,-162 1424.4642,-162 1424.4642,-162"/>
<polygon fill="#000000" stroke="#000000" points="1424.4643,-165.5001 1434.4642,-162 1424.4642,-158.5001 1424.4643,-165.5001"/>
</g>
<!-- ComponentsService -->
<g id="node18" class="node">
<title>ComponentsService</title>
<ellipse fill="#fdb462" stroke="#000000" cx="856" cy="-104" rx="88.6255" ry="18"/>
<text text-anchor="middle" x="856" y="-99.8" font-family="Times,serif" font-size="14.00" fill="#000000">ComponentsService</text>
</g>
<!-- ComponentsService&#45;&gt;BillingModule -->
<g id="edge17" class="edge">
<title>ComponentsService&#45;&gt;BillingModule</title>
<path fill="none" stroke="#000000" d="M856,-122.2667C856,-140.5552 856,-166 856,-166 856,-166 1424.7219,-166 1424.7219,-166"/>
<polygon fill="#000000" stroke="#000000" points="1424.7219,-169.5001 1434.7219,-166 1424.7219,-162.5001 1424.7219,-169.5001"/>
</g>
<!-- EndpointService -->
<g id="node19" class="node">
<title>EndpointService</title>
<ellipse fill="#fdb462" stroke="#000000" cx="674" cy="-104" rx="75.3021" ry="18"/>
<text text-anchor="middle" x="674" y="-99.8" font-family="Times,serif" font-size="14.00" fill="#000000">EndpointService</text>
</g>
<!-- EndpointService&#45;&gt;BillingModule -->
<g id="edge18" class="edge">
<title>EndpointService&#45;&gt;BillingModule</title>
<path fill="none" stroke="#000000" d="M674,-122.1061C674,-141.3391 674,-169 674,-169 674,-169 1424.5502,-169 1424.5502,-169"/>
<polygon fill="#000000" stroke="#000000" points="1424.5502,-172.5001 1434.5502,-169 1424.5502,-165.5001 1424.5502,-172.5001"/>
</g>
<!-- EventEmitterOrders -->
<g id="node20" class="node">
<title>EventEmitterOrders</title>
<ellipse fill="#fdb462" stroke="#000000" cx="492" cy="-104" rx="88.5986" ry="18"/>
<text text-anchor="middle" x="492" y="-99.8" font-family="Times,serif" font-size="14.00" fill="#000000">EventEmitterOrders</text>
</g>
<!-- EventEmitterOrders&#45;&gt;BillingModule -->
<g id="edge19" class="edge">
<title>EventEmitterOrders&#45;&gt;BillingModule</title>
<path fill="none" stroke="#000000" d="M492,-122.1289C492,-142.5724 492,-173 492,-173 492,-173 1424.4672,-173 1424.4672,-173"/>
<polygon fill="#000000" stroke="#000000" points="1424.4672,-176.5001 1434.4672,-173 1424.4671,-169.5001 1424.4672,-176.5001"/>
</g>
<!-- HttpErrorHandlingService -->
<g id="node21" class="node">
<title>HttpErrorHandlingService</title>
<ellipse fill="#fdb462" stroke="#000000" cx="272" cy="-104" rx="113.4412" ry="18"/>
<text text-anchor="middle" x="272" y="-99.8" font-family="Times,serif" font-size="14.00" fill="#000000">HttpErrorHandlingService</text>
</g>
<!-- HttpErrorHandlingService&#45;&gt;BillingModule -->
<g id="edge20" class="edge">
<title>HttpErrorHandlingService&#45;&gt;BillingModule</title>
<path fill="none" stroke="#000000" d="M272,-122.0449C272,-143.6623 272,-177 272,-177 272,-177 1424.6085,-177 1424.6085,-177"/>
<polygon fill="#000000" stroke="#000000" points="1424.6085,-180.5001 1434.6085,-177 1424.6085,-173.5001 1424.6085,-180.5001"/>
</g>
<!-- UserService -->
<g id="node22" class="node">
<title>UserService</title>
<ellipse fill="#fdb462" stroke="#000000" cx="82" cy="-104" rx="58.4415" ry="18"/>
<text text-anchor="middle" x="82" y="-99.8" font-family="Times,serif" font-size="14.00" fill="#000000">UserService</text>
</g>
<!-- UserService&#45;&gt;BillingModule -->
<g id="edge21" class="edge">
<title>UserService&#45;&gt;BillingModule</title>
<path fill="none" stroke="#000000" d="M82,-122.0109C82,-144.4852 82,-180 82,-180 82,-180 1424.5139,-180 1424.5139,-180"/>
<polygon fill="#000000" stroke="#000000" points="1424.5139,-183.5001 1434.5139,-180 1424.5139,-176.5001 1424.5139,-183.5001"/>
</g>
</g>
</svg>
