<?xml version="1.0" encoding="UTF-8" standalone="no"?>
<!DOCTYPE svg PUBLIC "-//W3C//DTD SVG 1.1//EN"
 "http://www.w3.org/Graphics/SVG/1.1/DTD/svg11.dtd">
<!-- Generated by graphviz version 2.40.1 (20161225.0304)
 -->
<!-- Title: dependencies Pages: 1 -->
<svg width="548pt" height="284pt"
 viewBox="0.00 0.00 548.00 284.00" xmlns="http://www.w3.org/2000/svg" xmlns:xlink="http://www.w3.org/1999/xlink">
<g id="graph0" class="graph" transform="scale(1 1) rotate(0) translate(4 280)">
<title>dependencies</title>
<polygon fill="#ffffff" stroke="transparent" points="-4,4 -4,-280 544,-280 544,4 -4,4"/>
<text text-anchor="start" x="249.0091" y="-42.4" font-family="sans-serif" font-weight="bold" font-size="14.00" fill="#000000">Legend</text>
<polygon fill="#ffffb3" stroke="transparent" points="36,-10 36,-30 56,-30 56,-10 36,-10"/>
<text text-anchor="start" x="59.629" y="-15.4" font-family="sans-serif" font-size="14.00" fill="#000000"> &#160;Declarations</text>
<polygon fill="#8dd3c7" stroke="transparent" points="149,-10 149,-30 169,-30 169,-10 149,-10"/>
<text text-anchor="start" x="172.7251" y="-15.4" font-family="sans-serif" font-size="14.00" fill="#000000"> &#160;Module</text>
<polygon fill="#80b1d3" stroke="transparent" points="235,-10 235,-30 255,-30 255,-10 235,-10"/>
<text text-anchor="start" x="258.7812" y="-15.4" font-family="sans-serif" font-size="14.00" fill="#000000"> &#160;Bootstrap</text>
<polygon fill="#fdb462" stroke="transparent" points="332,-10 332,-30 352,-30 352,-10 332,-10"/>
<text text-anchor="start" x="355.6732" y="-15.4" font-family="sans-serif" font-size="14.00" fill="#000000"> &#160;Providers</text>
<polygon fill="#fb8072" stroke="transparent" points="428,-10 428,-30 448,-30 448,-10 428,-10"/>
<text text-anchor="start" x="451.7258" y="-15.4" font-family="sans-serif" font-size="14.00" fill="#000000"> &#160;Exports</text>
<g id="clust1" class="cluster">
<title>cluster_CreateDialogModule</title>
<polygon fill="none" stroke="#000000" stroke-dasharray="1,5" points="8,-70 8,-268 532,-268 532,-70 8,-70"/>
</g>
<g id="clust2" class="cluster">
<title>cluster_CreateDialogModule_declarations</title>
<polygon fill="none" stroke="#000000" points="352,-78 352,-130 524,-130 524,-78 352,-78"/>
</g>
<g id="clust4" class="cluster">
<title>cluster_CreateDialogModule_imports</title>
<polygon fill="none" stroke="#000000" points="222,-78 222,-130 344,-130 344,-78 222,-78"/>
</g>
<g id="clust5" class="cluster">
<title>cluster_CreateDialogModule_exports</title>
<polygon fill="none" stroke="#000000" points="195,-208 195,-260 371,-260 371,-208 195,-208"/>
</g>
<g id="clust7" class="cluster">
<title>cluster_CreateDialogModule_providers</title>
<polygon fill="none" stroke="#000000" points="16,-78 16,-130 214,-130 214,-78 16,-78"/>
</g>
<!-- CreateDialogComponent -->
<g id="node1" class="node">
<title>CreateDialogComponent</title>
<polygon fill="#ffffb3" stroke="#000000" points="515.9664,-122 360.0336,-122 360.0336,-86 515.9664,-86 515.9664,-122"/>
<text text-anchor="middle" x="438" y="-99.8" font-family="Times,serif" font-size="14.00" fill="#000000">CreateDialogComponent</text>
</g>
<!-- CreateDialogModule -->
<g id="node2" class="node">
<title>CreateDialogModule</title>
<polygon fill="#8dd3c7" stroke="#000000" points="350.1839,-187 347.1839,-191 326.1839,-191 323.1839,-187 215.8161,-187 215.8161,-151 350.1839,-151 350.1839,-187"/>
<text text-anchor="middle" x="283" y="-164.8" font-family="Times,serif" font-size="14.00" fill="#000000">CreateDialogModule</text>
</g>
<!-- CreateDialogComponent&#45;&gt;CreateDialogModule -->
<g id="edge1" class="edge">
<title>CreateDialogComponent&#45;&gt;CreateDialogModule</title>
<path fill="none" stroke="#000000" d="M359.7861,-104C349.9711,-104 343.2886,-104 343.2886,-104 343.2886,-104 343.2886,-140.8939 343.2886,-140.8939"/>
<polygon fill="#000000" stroke="#000000" points="339.7887,-140.8938 343.2886,-150.8939 346.7887,-140.8939 339.7887,-140.8938"/>
</g>
<!-- CreateDialogComponent  -->
<g id="node4" class="node">
<title>CreateDialogComponent </title>
<polygon fill="#fb8072" stroke="#000000" points="362.9671,-252 203.0329,-252 203.0329,-216 362.9671,-216 362.9671,-252"/>
<text text-anchor="middle" x="283" y="-229.8" font-family="Times,serif" font-size="14.00" fill="#000000">CreateDialogComponent </text>
</g>
<!-- CreateDialogModule&#45;&gt;CreateDialogComponent  -->
<g id="edge3" class="edge">
<title>CreateDialogModule&#45;&gt;CreateDialogComponent </title>
<path fill="none" stroke="#000000" stroke-dasharray="5,2" d="M283,-187.1061C283,-187.1061 283,-205.991 283,-205.991"/>
<polygon fill="#000000" stroke="#000000" points="279.5001,-205.9909 283,-215.991 286.5001,-205.991 279.5001,-205.9909"/>
</g>
<!-- MaterialModule -->
<g id="node3" class="node">
<title>MaterialModule</title>
<polygon fill="#8dd3c7" stroke="#000000" points="336.4706,-122 333.4706,-126 312.4706,-126 309.4706,-122 229.5294,-122 229.5294,-86 336.4706,-86 336.4706,-122"/>
<text text-anchor="middle" x="283" y="-99.8" font-family="Times,serif" font-size="14.00" fill="#000000">MaterialModule</text>
</g>
<!-- MaterialModule&#45;&gt;CreateDialogModule -->
<g id="edge2" class="edge">
<title>MaterialModule&#45;&gt;CreateDialogModule</title>
<path fill="none" stroke="#000000" d="M283,-122.1061C283,-122.1061 283,-140.991 283,-140.991"/>
<polygon fill="#000000" stroke="#000000" points="279.5001,-140.9909 283,-150.991 286.5001,-140.991 279.5001,-140.9909"/>
</g>
<!-- CreateDialogService -->
<g id="node5" class="node">
<title>CreateDialogService</title>
<ellipse fill="#fdb462" stroke="#000000" cx="115" cy="-104" rx="91.4461" ry="18"/>
<text text-anchor="middle" x="115" y="-99.8" font-family="Times,serif" font-size="14.00" fill="#000000">CreateDialogService</text>
</g>
<!-- CreateDialogService&#45;&gt;CreateDialogModule -->
<g id="edge4" class="edge">
<title>CreateDialogService&#45;&gt;CreateDialogModule</title>
<path fill="none" stroke="#000000" d="M206.8182,-104C216.3936,-104 222.7114,-104 222.7114,-104 222.7114,-104 222.7114,-140.8939 222.7114,-140.8939"/>
<polygon fill="#000000" stroke="#000000" points="219.2115,-140.8938 222.7114,-150.8939 226.2115,-140.8939 219.2115,-140.8938"/>
</g>
</g>
</svg>
