<?xml version="1.0" encoding="UTF-8" standalone="no"?>
<!DOCTYPE svg PUBLIC "-//W3C//DTD SVG 1.1//EN"
 "http://www.w3.org/Graphics/SVG/1.1/DTD/svg11.dtd">
<!-- Generated by graphviz version 2.40.1 (20161225.0304)
 -->
<!-- Title: dependencies Pages: 1 -->
<svg width="504pt" height="284pt"
 viewBox="0.00 0.00 504.00 284.00" xmlns="http://www.w3.org/2000/svg" xmlns:xlink="http://www.w3.org/1999/xlink">
<g id="graph0" class="graph" transform="scale(1 1) rotate(0) translate(4 280)">
<title>dependencies</title>
<polygon fill="#ffffff" stroke="transparent" points="-4,4 -4,-280 500,-280 500,4 -4,4"/>
<text text-anchor="start" x="227.0091" y="-42.4" font-family="sans-serif" font-weight="bold" font-size="14.00" fill="#000000">Legend</text>
<polygon fill="#ffffb3" stroke="transparent" points="14,-10 14,-30 34,-30 34,-10 14,-10"/>
<text text-anchor="start" x="37.629" y="-15.4" font-family="sans-serif" font-size="14.00" fill="#000000"> &#160;Declarations</text>
<polygon fill="#8dd3c7" stroke="transparent" points="127,-10 127,-30 147,-30 147,-10 127,-10"/>
<text text-anchor="start" x="150.7251" y="-15.4" font-family="sans-serif" font-size="14.00" fill="#000000"> &#160;Module</text>
<polygon fill="#80b1d3" stroke="transparent" points="213,-10 213,-30 233,-30 233,-10 213,-10"/>
<text text-anchor="start" x="236.7812" y="-15.4" font-family="sans-serif" font-size="14.00" fill="#000000"> &#160;Bootstrap</text>
<polygon fill="#fdb462" stroke="transparent" points="310,-10 310,-30 330,-30 330,-10 310,-10"/>
<text text-anchor="start" x="333.6732" y="-15.4" font-family="sans-serif" font-size="14.00" fill="#000000"> &#160;Providers</text>
<polygon fill="#fb8072" stroke="transparent" points="406,-10 406,-30 426,-30 426,-10 406,-10"/>
<text text-anchor="start" x="429.7258" y="-15.4" font-family="sans-serif" font-size="14.00" fill="#000000"> &#160;Exports</text>
<g id="clust1" class="cluster">
<title>cluster_CreateDialogModule</title>
<polygon fill="none" stroke="#000000" stroke-dasharray="1,5" points="89,-70 89,-268 407,-268 407,-70 89,-70"/>
</g>
<g id="clust2" class="cluster">
<title>cluster_CreateDialogModule_declarations</title>
<polygon fill="none" stroke="#000000" points="227,-78 227,-130 399,-130 399,-78 227,-78"/>
</g>
<g id="clust4" class="cluster">
<title>cluster_CreateDialogModule_imports</title>
<polygon fill="none" stroke="#000000" points="97,-78 97,-130 219,-130 219,-78 97,-78"/>
</g>
<g id="clust5" class="cluster">
<title>cluster_CreateDialogModule_exports</title>
<polygon fill="none" stroke="#000000" points="160,-208 160,-260 336,-260 336,-208 160,-208"/>
</g>
<!-- CreateDialogComponent -->
<g id="node1" class="node">
<title>CreateDialogComponent</title>
<polygon fill="#ffffb3" stroke="#000000" points="390.9664,-122 235.0336,-122 235.0336,-86 390.9664,-86 390.9664,-122"/>
<text text-anchor="middle" x="313" y="-99.8" font-family="Times,serif" font-size="14.00" fill="#000000">CreateDialogComponent</text>
</g>
<!-- CreateDialogModule -->
<g id="node2" class="node">
<title>CreateDialogModule</title>
<polygon fill="#8dd3c7" stroke="#000000" points="315.1839,-187 312.1839,-191 291.1839,-191 288.1839,-187 180.8161,-187 180.8161,-151 315.1839,-151 315.1839,-187"/>
<text text-anchor="middle" x="248" y="-164.8" font-family="Times,serif" font-size="14.00" fill="#000000">CreateDialogModule</text>
</g>
<!-- CreateDialogComponent&#45;&gt;CreateDialogModule -->
<g id="edge1" class="edge">
<title>CreateDialogComponent&#45;&gt;CreateDialogModule</title>
<path fill="none" stroke="#000000" d="M275.0544,-122.1061C275.0544,-122.1061 275.0544,-140.991 275.0544,-140.991"/>
<polygon fill="#000000" stroke="#000000" points="271.5544,-140.9909 275.0544,-150.991 278.5544,-140.991 271.5544,-140.9909"/>
</g>
<!-- CreateDialogComponent  -->
<g id="node4" class="node">
<title>CreateDialogComponent </title>
<polygon fill="#fb8072" stroke="#000000" points="327.9671,-252 168.0329,-252 168.0329,-216 327.9671,-216 327.9671,-252"/>
<text text-anchor="middle" x="248" y="-229.8" font-family="Times,serif" font-size="14.00" fill="#000000">CreateDialogComponent </text>
</g>
<!-- CreateDialogModule&#45;&gt;CreateDialogComponent  -->
<g id="edge3" class="edge">
<title>CreateDialogModule&#45;&gt;CreateDialogComponent </title>
<path fill="none" stroke="#000000" stroke-dasharray="5,2" d="M248,-187.1061C248,-187.1061 248,-205.991 248,-205.991"/>
<polygon fill="#000000" stroke="#000000" points="244.5001,-205.9909 248,-215.991 251.5001,-205.991 244.5001,-205.9909"/>
</g>
<!-- MaterialModule -->
<g id="node3" class="node">
<title>MaterialModule</title>
<polygon fill="#8dd3c7" stroke="#000000" points="211.4706,-122 208.4706,-126 187.4706,-126 184.4706,-122 104.5294,-122 104.5294,-86 211.4706,-86 211.4706,-122"/>
<text text-anchor="middle" x="158" y="-99.8" font-family="Times,serif" font-size="14.00" fill="#000000">MaterialModule</text>
</g>
<!-- MaterialModule&#45;&gt;CreateDialogModule -->
<g id="edge2" class="edge">
<title>MaterialModule&#45;&gt;CreateDialogModule</title>
<path fill="none" stroke="#000000" d="M196.1967,-122.1061C196.1967,-122.1061 196.1967,-140.991 196.1967,-140.991"/>
<polygon fill="#000000" stroke="#000000" points="192.6968,-140.9909 196.1967,-150.991 199.6968,-140.991 192.6968,-140.9909"/>
</g>
</g>
</svg>
