<?xml version="1.0" encoding="UTF-8" standalone="no"?>
<!DOCTYPE svg PUBLIC "-//W3C//DTD SVG 1.1//EN"
 "http://www.w3.org/Graphics/SVG/1.1/DTD/svg11.dtd">
<!-- Generated by graphviz version 2.40.1 (20161225.0304)
 -->
<!-- Title: dependencies Pages: 1 -->
<svg width="1299pt" height="211pt"
 viewBox="0.00 0.00 1299.00 211.00" xmlns="http://www.w3.org/2000/svg" xmlns:xlink="http://www.w3.org/1999/xlink">
<g id="graph0" class="graph" transform="scale(1 1) rotate(0) translate(4 207)">
<title>dependencies</title>
<polygon fill="#ffffff" stroke="transparent" points="-4,4 -4,-207 1295,-207 1295,4 -4,4"/>
<text text-anchor="start" x="624.5091" y="-42.4" font-family="sans-serif" font-weight="bold" font-size="14.00" fill="#000000">Legend</text>
<polygon fill="#ffffb3" stroke="transparent" points="411.5,-10 411.5,-30 431.5,-30 431.5,-10 411.5,-10"/>
<text text-anchor="start" x="435.129" y="-15.4" font-family="sans-serif" font-size="14.00" fill="#000000"> &#160;Declarations</text>
<polygon fill="#8dd3c7" stroke="transparent" points="524.5,-10 524.5,-30 544.5,-30 544.5,-10 524.5,-10"/>
<text text-anchor="start" x="548.2251" y="-15.4" font-family="sans-serif" font-size="14.00" fill="#000000"> &#160;Module</text>
<polygon fill="#80b1d3" stroke="transparent" points="610.5,-10 610.5,-30 630.5,-30 630.5,-10 610.5,-10"/>
<text text-anchor="start" x="634.2812" y="-15.4" font-family="sans-serif" font-size="14.00" fill="#000000"> &#160;Bootstrap</text>
<polygon fill="#fdb462" stroke="transparent" points="707.5,-10 707.5,-30 727.5,-30 727.5,-10 707.5,-10"/>
<text text-anchor="start" x="731.1732" y="-15.4" font-family="sans-serif" font-size="14.00" fill="#000000"> &#160;Providers</text>
<polygon fill="#fb8072" stroke="transparent" points="803.5,-10 803.5,-30 823.5,-30 823.5,-10 803.5,-10"/>
<text text-anchor="start" x="827.2258" y="-15.4" font-family="sans-serif" font-size="14.00" fill="#000000"> &#160;Exports</text>
<g id="clust1" class="cluster">
<title>cluster_HistoricalModule</title>
<polygon fill="none" stroke="#000000" stroke-dasharray="1,5" points="8,-70 8,-195 1283,-195 1283,-70 8,-70"/>
</g>
<g id="clust2" class="cluster">
<title>cluster_HistoricalModule_declarations</title>
<polygon fill="none" stroke="#000000" points="849,-78 849,-130 1275,-130 1275,-78 849,-78"/>
</g>
<g id="clust6" class="cluster">
<title>cluster_HistoricalModule_imports</title>
<polygon fill="none" stroke="#000000" points="196,-78 196,-130 841,-130 841,-78 196,-78"/>
</g>
<g id="clust9" class="cluster">
<title>cluster_HistoricalModule_providers</title>
<polygon fill="none" stroke="#000000" points="16,-78 16,-130 188,-130 188,-78 16,-78"/>
</g>
<!-- FilterComponent -->
<g id="node1" class="node">
<title>FilterComponent</title>
<polygon fill="#ffffb3" stroke="#000000" points="1266.6625,-122 1155.3375,-122 1155.3375,-86 1266.6625,-86 1266.6625,-122"/>
<text text-anchor="middle" x="1211" y="-99.8" font-family="Times,serif" font-size="14.00" fill="#000000">FilterComponent</text>
</g>
<!-- HistoricalModule -->
<g id="node4" class="node">
<title>HistoricalModule</title>
<polygon fill="#8dd3c7" stroke="#000000" points="683.2535,-187 680.2535,-191 659.2535,-191 656.2535,-187 568.7465,-187 568.7465,-151 683.2535,-151 683.2535,-187"/>
<text text-anchor="middle" x="626" y="-164.8" font-family="Times,serif" font-size="14.00" fill="#000000">HistoricalModule</text>
</g>
<!-- FilterComponent&#45;&gt;HistoricalModule -->
<g id="edge1" class="edge">
<title>FilterComponent&#45;&gt;HistoricalModule</title>
<path fill="none" stroke="#000000" d="M1211,-122.2921C1211,-144.2057 1211,-178 1211,-178 1211,-178 693.425,-178 693.425,-178"/>
<polygon fill="#000000" stroke="#000000" points="693.425,-174.5001 683.425,-178 693.4249,-181.5001 693.425,-174.5001"/>
</g>
<!-- HistoricalComponent -->
<g id="node2" class="node">
<title>HistoricalComponent</title>
<polygon fill="#ffffb3" stroke="#000000" points="1137.0366,-122 1000.9634,-122 1000.9634,-86 1137.0366,-86 1137.0366,-122"/>
<text text-anchor="middle" x="1069" y="-99.8" font-family="Times,serif" font-size="14.00" fill="#000000">HistoricalComponent</text>
</g>
<!-- HistoricalComponent&#45;&gt;HistoricalModule -->
<g id="edge2" class="edge">
<title>HistoricalComponent&#45;&gt;HistoricalModule</title>
<path fill="none" stroke="#000000" d="M1069,-122.1061C1069,-141.3391 1069,-169 1069,-169 1069,-169 693.4604,-169 693.4604,-169"/>
<polygon fill="#000000" stroke="#000000" points="693.4604,-165.5001 683.4604,-169 693.4603,-172.5001 693.4604,-165.5001"/>
</g>
<!-- ToolbarComponent -->
<g id="node3" class="node">
<title>ToolbarComponent</title>
<polygon fill="#ffffb3" stroke="#000000" points="982.6513,-122 857.3487,-122 857.3487,-86 982.6513,-86 982.6513,-122"/>
<text text-anchor="middle" x="920" y="-99.8" font-family="Times,serif" font-size="14.00" fill="#000000">ToolbarComponent</text>
</g>
<!-- ToolbarComponent&#45;&gt;HistoricalModule -->
<g id="edge3" class="edge">
<title>ToolbarComponent&#45;&gt;HistoricalModule</title>
<path fill="none" stroke="#000000" d="M920,-122.027C920,-138.3976 920,-160 920,-160 920,-160 693.3841,-160 693.3841,-160"/>
<polygon fill="#000000" stroke="#000000" points="693.3841,-156.5001 683.3841,-160 693.3841,-163.5001 693.3841,-156.5001"/>
</g>
<!-- DownloadHistoricalModalModule -->
<g id="node5" class="node">
<title>DownloadHistoricalModalModule</title>
<polygon fill="#8dd3c7" stroke="#000000" points="832.6217,-122 829.6217,-126 808.6217,-126 805.6217,-122 623.3783,-122 623.3783,-86 832.6217,-86 832.6217,-122"/>
<text text-anchor="middle" x="728" y="-99.8" font-family="Times,serif" font-size="14.00" fill="#000000">DownloadHistoricalModalModule</text>
</g>
<!-- DownloadHistoricalModalModule&#45;&gt;HistoricalModule -->
<g id="edge4" class="edge">
<title>DownloadHistoricalModalModule&#45;&gt;HistoricalModule</title>
<path fill="none" stroke="#000000" d="M653.283,-122.1061C653.283,-122.1061 653.283,-140.991 653.283,-140.991"/>
<polygon fill="#000000" stroke="#000000" points="649.783,-140.9909 653.283,-150.991 656.783,-140.991 649.783,-140.9909"/>
</g>
<!-- HistoricalRoutingModule -->
<g id="node6" class="node">
<title>HistoricalRoutingModule</title>
<polygon fill="#8dd3c7" stroke="#000000" points="604.8711,-122 601.8711,-126 580.8711,-126 577.8711,-122 445.1289,-122 445.1289,-86 604.8711,-86 604.8711,-122"/>
<text text-anchor="middle" x="525" y="-99.8" font-family="Times,serif" font-size="14.00" fill="#000000">HistoricalRoutingModule</text>
</g>
<!-- HistoricalRoutingModule&#45;&gt;HistoricalModule -->
<g id="edge5" class="edge">
<title>HistoricalRoutingModule&#45;&gt;HistoricalModule</title>
<path fill="none" stroke="#000000" d="M586.7795,-122.1061C586.7795,-122.1061 586.7795,-140.991 586.7795,-140.991"/>
<polygon fill="#000000" stroke="#000000" points="583.2795,-140.9909 586.7795,-150.991 590.2795,-140.991 583.2795,-140.9909"/>
</g>
<!-- MaterialModule -->
<g id="node7" class="node">
<title>MaterialModule</title>
<polygon fill="#8dd3c7" stroke="#000000" points="427.4706,-122 424.4706,-126 403.4706,-126 400.4706,-122 320.5294,-122 320.5294,-86 427.4706,-86 427.4706,-122"/>
<text text-anchor="middle" x="374" y="-99.8" font-family="Times,serif" font-size="14.00" fill="#000000">MaterialModule</text>
</g>
<!-- MaterialModule&#45;&gt;HistoricalModule -->
<g id="edge6" class="edge">
<title>MaterialModule&#45;&gt;HistoricalModule</title>
<path fill="none" stroke="#000000" d="M374,-122.027C374,-138.3976 374,-160 374,-160 374,-160 558.502,-160 558.502,-160"/>
<polygon fill="#000000" stroke="#000000" points="558.502,-163.5001 568.502,-160 558.5019,-156.5001 558.502,-163.5001"/>
</g>
<!-- SharedModule -->
<g id="node8" class="node">
<title>SharedModule</title>
<polygon fill="#8dd3c7" stroke="#000000" points="302.4231,-122 299.4231,-126 278.4231,-126 275.4231,-122 203.5769,-122 203.5769,-86 302.4231,-86 302.4231,-122"/>
<text text-anchor="middle" x="253" y="-99.8" font-family="Times,serif" font-size="14.00" fill="#000000">SharedModule</text>
</g>
<!-- SharedModule&#45;&gt;HistoricalModule -->
<g id="edge7" class="edge">
<title>SharedModule&#45;&gt;HistoricalModule</title>
<path fill="none" stroke="#000000" d="M253,-122.1061C253,-141.3391 253,-169 253,-169 253,-169 558.5362,-169 558.5362,-169"/>
<polygon fill="#000000" stroke="#000000" points="558.5362,-172.5001 568.5362,-169 558.5362,-165.5001 558.5362,-172.5001"/>
</g>
<!-- HistoricalService -->
<g id="node9" class="node">
<title>HistoricalService</title>
<ellipse fill="#fdb462" stroke="#000000" cx="102" cy="-104" rx="78.1404" ry="18"/>
<text text-anchor="middle" x="102" y="-99.8" font-family="Times,serif" font-size="14.00" fill="#000000">HistoricalService</text>
</g>
<!-- HistoricalService&#45;&gt;HistoricalModule -->
<g id="edge8" class="edge">
<title>HistoricalService&#45;&gt;HistoricalModule</title>
<path fill="none" stroke="#000000" d="M102,-122.2921C102,-144.2057 102,-178 102,-178 102,-178 558.6748,-178 558.6748,-178"/>
<polygon fill="#000000" stroke="#000000" points="558.6749,-181.5001 568.6748,-178 558.6748,-174.5001 558.6749,-181.5001"/>
</g>
</g>
</svg>
